<svg width="220" height="328" viewBox="0 0 220 328" fill="none" xmlns="http://www.w3.org/2000/svg">
<rect width="220" height="328" rx="6" fill="#FFEED4"/>
<path d="M70.612 35.748V54H80.882V50.568H75.058V35.748H70.612ZM95.4826 35.748H84.3026V54H95.4826V50.438H88.7486V46.434H94.7026V43.002H88.7486V39.31H95.4826V35.748ZM112.253 35.748H99.357V39.388H107.157L99.357 50.62V54H112.253V50.36H104.401L112.253 39.128V35.748ZM127.637 35.748H116.457V54H127.637V50.438H120.903V46.434H126.857V43.002H120.903V39.31H127.637V35.748ZM143.706 35.748V47.058L136.27 35.748H131.824V54H136.27V42.742L143.706 54H148.152V35.748H143.706Z" fill="#07005A"/>
<rect x="52" y="70" width="116" height="34" rx="6" fill="#FF8585"/>
<path d="M92.442 93H96.204L91.128 86.556L96.024 80.364H92.406L88.194 85.908V80.364H85.116V93H88.194V87.42L92.442 93ZM100.745 88.338C100.745 86.61 101.591 86.106 103.049 86.106H103.895V82.848C102.545 82.848 101.447 83.568 100.745 84.63V82.956H97.6668V93H100.745V88.338ZM104.754 87.96C104.754 91.128 106.716 93.144 109.164 93.144C110.658 93.144 111.72 92.46 112.278 91.578V93H115.356V82.956H112.278V84.378C111.738 83.496 110.676 82.812 109.182 82.812C106.716 82.812 104.754 84.792 104.754 87.96ZM112.278 87.978C112.278 89.58 111.252 90.462 110.082 90.462C108.93 90.462 107.886 89.562 107.886 87.96C107.886 86.358 108.93 85.494 110.082 85.494C111.252 85.494 112.278 86.376 112.278 87.978ZM124.513 93H127.573V87.132C127.573 84.432 126.025 82.848 123.703 82.848C122.353 82.848 121.273 83.442 120.661 84.288V82.956H117.583V93H120.661V87.546C120.661 86.178 121.417 85.422 122.587 85.422C123.757 85.422 124.513 86.178 124.513 87.546V93ZM130.198 89.508C130.198 92.118 131.656 93 133.744 93H135.31V90.39H134.212C133.528 90.39 133.276 90.138 133.276 89.544V85.512H135.292V82.956H133.276V80.508H130.198V82.956H128.974V85.512H130.198V89.508Z" fill="white"/>
<path fill-rule="evenodd" clip-rule="evenodd" d="M122.091 295.242H48.2781C45.4604 295.242 43.1768 292.712 43.1768 289.59V156.463C43.1768 153.341 45.4604 150.811 48.2781 150.811H122.091C119.273 150.811 116.99 153.341 116.99 156.463V289.59C116.971 292.691 119.273 295.242 122.091 295.242Z" fill="#E1E9FE"/>
<path fill-rule="evenodd" clip-rule="evenodd" d="M63.0498 162.073L69.4403 137.835C69.6797 136.937 70.5269 136.427 71.3372 136.672L119.386 152.198V167.949" fill="white"/>
<path fill-rule="evenodd" clip-rule="evenodd" d="M68.9113 137.661C69.23 136.466 70.3441 135.771 71.4389 136.069L71.4928 136.084L119.541 151.611C119.766 151.683 119.924 151.905 119.938 152.161L119.939 152.198V167.949C119.939 168.287 119.692 168.561 119.386 168.561C119.092 168.561 118.852 168.306 118.835 167.985L118.834 167.949L118.834 152.657L71.1927 137.262C70.681 137.108 70.1517 137.418 69.984 137.963L69.9715 138.006L63.581 162.245C63.4955 162.569 63.1887 162.755 62.8958 162.661C62.6133 162.569 62.447 162.25 62.5121 161.936L62.5204 161.902L68.9113 137.661Z" fill="#07005A"/>
<path fill-rule="evenodd" clip-rule="evenodd" d="M77.252 143.845C77.3347 143.532 77.6227 143.348 77.9057 143.42L77.9371 143.429L117.993 156.385C118.286 156.48 118.454 156.82 118.368 157.144C118.286 157.457 117.998 157.641 117.714 157.569L117.683 157.56L78.1305 144.767L78.1046 144.837C77.1063 147.466 74.5501 148.975 72.0176 148.396L71.9702 148.384L68.1835 162.735C68.101 163.047 67.8127 163.232 67.5296 163.159L67.4982 163.15C67.2158 163.059 67.0495 162.739 67.1147 162.426L67.1229 162.391L71.064 147.456C71.1519 147.123 71.4719 146.938 71.769 147.047L71.8086 147.063L71.9061 147.105L71.9654 147.123C74.2045 147.806 76.5408 146.384 77.2314 143.92L77.252 143.845Z" fill="#07005A"/>
<path fill-rule="evenodd" clip-rule="evenodd" d="M55.0957 197.614L57.8766 163.277C57.9502 162.338 58.6869 161.665 59.5341 161.747L117.472 167.398V195.411" fill="white"/>
<path fill-rule="evenodd" clip-rule="evenodd" d="M57.325 163.224C57.4234 161.97 58.3975 161.055 59.5274 161.133L59.5813 161.137L117.519 166.789C117.794 166.815 118.006 167.061 118.022 167.362L118.023 167.398V195.411C118.023 195.749 117.776 196.023 117.471 196.023C117.177 196.023 116.936 195.768 116.919 195.447L116.918 195.411V167.959L59.485 162.356C58.9519 162.305 58.496 162.711 58.43 163.287L58.4257 163.332L55.6448 197.669C55.6175 198.006 55.3491 198.254 55.0451 198.224C54.7521 198.195 54.5331 197.917 54.5423 197.596L54.5442 197.56L57.325 163.224Z" fill="#07005A"/>
<path fill-rule="evenodd" clip-rule="evenodd" d="M68.2455 167.833C68.272 167.508 68.5224 167.266 68.8126 167.276L68.845 167.278L116.875 172.032C117.179 172.062 117.403 172.359 117.376 172.696C117.35 173.021 117.099 173.263 116.809 173.253L116.777 173.251L69.2676 168.549L69.2652 168.565C68.7174 171.618 66.0523 173.802 62.9887 173.706L62.944 173.704L61.0035 197.71C60.9772 198.035 60.7267 198.277 60.4363 198.267L60.4039 198.265C60.1108 198.236 59.8918 197.958 59.9009 197.637L59.9029 197.601L61.8919 172.995C61.9174 172.679 62.1561 172.438 62.4421 172.438C62.4914 172.438 62.5239 172.441 62.5774 172.449L62.6331 172.458C62.6329 172.458 62.6307 172.458 62.6263 172.458L62.6505 172.459L62.6746 172.46C65.5294 172.738 68.0161 170.648 68.2455 167.833Z" fill="#07005A"/>
<path fill-rule="evenodd" clip-rule="evenodd" d="M76.4222 197.104C76.7274 197.104 76.9747 197.378 76.9747 197.716C76.9747 198.042 76.7447 198.309 76.4547 198.327L76.4222 198.329H49.7185C49.4134 198.329 49.166 198.054 49.166 197.716C49.166 197.39 49.396 197.124 49.686 197.105L49.7185 197.104H76.4222Z" fill="#07005A"/>
<path fill-rule="evenodd" clip-rule="evenodd" d="M49.7169 199.145C50.4289 199.145 51.006 198.505 51.006 197.717C51.006 196.928 50.4289 196.288 49.7169 196.288C49.0049 196.288 48.4277 196.928 48.4277 197.717C48.4277 198.505 49.0049 199.145 49.7169 199.145Z" fill="#07005A"/>
<path fill-rule="evenodd" clip-rule="evenodd" d="M86.9167 295.241H79.9185C78.0952 295.241 76.6035 293.589 76.6035 291.569V185.271C76.6035 183.251 78.0952 181.599 79.9185 181.599H83.6017C85.425 181.599 86.9167 183.251 86.9167 185.271V295.241Z" fill="#07005A"/>
<path fill-rule="evenodd" clip-rule="evenodd" d="M171.078 295.262H83.7471C85.7729 295.262 87.4303 293.426 87.4303 291.181V185.679C87.4303 183.435 85.7729 181.599 83.7471 181.599H171.078C173.103 181.599 174.761 183.435 174.761 185.679V291.181C174.761 293.446 173.103 295.262 171.078 295.262Z" fill="#FFCE85"/>
<path fill-rule="evenodd" clip-rule="evenodd" d="M83.5994 181.599C85.7014 181.599 87.4308 183.36 87.4662 185.569L87.4668 185.638V294.915C87.4668 295.253 87.2194 295.527 86.9143 295.527C86.6201 295.527 86.3796 295.272 86.3628 294.951L86.3618 294.915V185.638C86.3618 184.093 85.13 182.823 83.5994 182.823C83.2942 182.823 83.0469 182.549 83.0469 182.211C83.0469 181.873 83.2942 181.599 83.5994 181.599Z" fill="#07005A"/>
<path fill-rule="evenodd" clip-rule="evenodd" d="M76.5634 188.209C76.8686 188.209 77.1159 188.483 77.1159 188.821C77.1159 189.147 76.8859 189.413 76.5959 189.432L76.5634 189.433H71.2595C70.9544 189.433 70.707 189.159 70.707 188.821C70.707 188.495 70.937 188.229 71.2271 188.21L71.2595 188.209H76.5634Z" fill="#07005A"/>
<path fill-rule="evenodd" clip-rule="evenodd" d="M76.5634 192.616C76.8686 192.616 77.1159 192.89 77.1159 193.228C77.1159 193.554 76.8859 193.821 76.5959 193.839L76.5634 193.84H71.2595C70.9544 193.84 70.707 193.566 70.707 193.228C70.707 192.902 70.937 192.636 71.2271 192.617L71.2595 192.616H76.5634Z" fill="#07005A"/>
<path fill-rule="evenodd" clip-rule="evenodd" d="M76.5634 201.45C76.8686 201.45 77.1159 201.724 77.1159 202.062C77.1159 202.388 76.8859 202.655 76.5959 202.673L76.5634 202.674H71.2595C70.9544 202.674 70.707 202.4 70.707 202.062C70.707 201.736 70.937 201.47 71.2271 201.451L71.2595 201.45H76.5634Z" fill="#07005A"/>
<path fill-rule="evenodd" clip-rule="evenodd" d="M76.5634 205.857C76.8686 205.857 77.1159 206.131 77.1159 206.47C77.1159 206.795 76.8859 207.062 76.5959 207.081L76.5634 207.082H71.2595C70.9544 207.082 70.707 206.808 70.707 206.47C70.707 206.144 70.937 205.877 71.2271 205.858L71.2595 205.857H76.5634Z" fill="#07005A"/>
<path fill-rule="evenodd" clip-rule="evenodd" d="M76.5634 210.264C76.8686 210.264 77.1159 210.538 77.1159 210.876C77.1159 211.202 76.8859 211.469 76.5959 211.487L76.5634 211.488H71.2595C70.9544 211.488 70.707 211.214 70.707 210.876C70.707 210.55 70.937 210.284 71.2271 210.265L71.2595 210.264H76.5634Z" fill="#07005A"/>
<path fill-rule="evenodd" clip-rule="evenodd" d="M76.5634 214.692C76.8686 214.692 77.1159 214.966 77.1159 215.304C77.1159 215.63 76.8859 215.896 76.5959 215.915L76.5634 215.916H71.2595C70.9544 215.916 70.707 215.642 70.707 215.304C70.707 214.978 70.937 214.711 71.2271 214.693L71.2595 214.692H76.5634Z" fill="#07005A"/>
<path fill-rule="evenodd" clip-rule="evenodd" d="M76.5634 219.099C76.8686 219.099 77.1159 219.373 77.1159 219.711C77.1159 220.037 76.8859 220.303 76.5959 220.322L76.5634 220.323H71.2595C70.9544 220.323 70.707 220.049 70.707 219.711C70.707 219.385 70.937 219.118 71.2271 219.1L71.2595 219.099H76.5634Z" fill="#07005A"/>
<path fill-rule="evenodd" clip-rule="evenodd" d="M76.5634 223.526C76.8686 223.526 77.1159 223.8 77.1159 224.138C77.1159 224.464 76.8859 224.731 76.5959 224.749L76.5634 224.75H71.2595C70.9544 224.75 70.707 224.476 70.707 224.138C70.707 223.812 70.937 223.546 71.2271 223.527L71.2595 223.526H76.5634Z" fill="#07005A"/>
<path fill-rule="evenodd" clip-rule="evenodd" d="M76.5634 227.933C76.8686 227.933 77.1159 228.207 77.1159 228.545C77.1159 228.871 76.8859 229.137 76.5959 229.156L76.5634 229.157H71.2595C70.9544 229.157 70.707 228.883 70.707 228.545C70.707 228.219 70.937 227.953 71.2271 227.934L71.2595 227.933H76.5634Z" fill="#07005A"/>
<path fill-rule="evenodd" clip-rule="evenodd" d="M76.5634 232.34C76.8686 232.34 77.1159 232.614 77.1159 232.952C77.1159 233.278 76.8859 233.545 76.5959 233.563L76.5634 233.564H71.2595C70.9544 233.564 70.707 233.29 70.707 232.952C70.707 232.626 70.937 232.36 71.2271 232.341L71.2595 232.34H76.5634Z" fill="#07005A"/>
<path fill-rule="evenodd" clip-rule="evenodd" d="M76.5634 236.767C76.8686 236.767 77.1159 237.041 77.1159 237.379C77.1159 237.705 76.8859 237.972 76.5959 237.99L76.5634 237.992H71.2595C70.9544 237.992 70.707 237.717 70.707 237.379C70.707 237.053 70.937 236.787 71.2271 236.768L71.2595 236.767H76.5634Z" fill="#07005A"/>
<path fill-rule="evenodd" clip-rule="evenodd" d="M76.5634 241.174C76.8686 241.174 77.1159 241.448 77.1159 241.786C77.1159 242.112 76.8859 242.379 76.5959 242.397L76.5634 242.398H71.2595C70.9544 242.398 70.707 242.124 70.707 241.786C70.707 241.46 70.937 241.194 71.2271 241.175L71.2595 241.174H76.5634Z" fill="#07005A"/>
<path fill-rule="evenodd" clip-rule="evenodd" d="M76.5634 245.581C76.8686 245.581 77.1159 245.855 77.1159 246.193C77.1159 246.519 76.8859 246.786 76.5959 246.804L76.5634 246.805H71.2595C70.9544 246.805 70.707 246.531 70.707 246.193C70.707 245.867 70.937 245.601 71.2271 245.582L71.2595 245.581H76.5634Z" fill="#07005A"/>
<path fill-rule="evenodd" clip-rule="evenodd" d="M76.5634 250.009C76.8686 250.009 77.1159 250.283 77.1159 250.621C77.1159 250.947 76.8859 251.213 76.5959 251.232L76.5634 251.233H71.2595C70.9544 251.233 70.707 250.959 70.707 250.621C70.707 250.295 70.937 250.028 71.2271 250.01L71.2595 250.009H76.5634Z" fill="#07005A"/>
<path fill-rule="evenodd" clip-rule="evenodd" d="M76.5634 254.416C76.8686 254.416 77.1159 254.69 77.1159 255.028C77.1159 255.354 76.8859 255.62 76.5959 255.639L76.5634 255.64H71.2595C70.9544 255.64 70.707 255.366 70.707 255.028C70.707 254.702 70.937 254.435 71.2271 254.417L71.2595 254.416H76.5634Z" fill="#07005A"/>
<path fill-rule="evenodd" clip-rule="evenodd" d="M76.5634 263.25C76.8686 263.25 77.1159 263.524 77.1159 263.862C77.1159 264.188 76.8859 264.455 76.5959 264.473L76.5634 264.474H71.2595C70.9544 264.474 70.707 264.2 70.707 263.862C70.707 263.536 70.937 263.27 71.2271 263.251L71.2595 263.25H76.5634Z" fill="#07005A"/>
<path fill-rule="evenodd" clip-rule="evenodd" d="M76.5634 267.657C76.8686 267.657 77.1159 267.931 77.1159 268.269C77.1159 268.595 76.8859 268.861 76.5959 268.88L76.5634 268.881H71.2595C70.9544 268.881 70.707 268.607 70.707 268.269C70.707 267.943 70.937 267.677 71.2271 267.658L71.2595 267.657H76.5634Z" fill="#07005A"/>
<path fill-rule="evenodd" clip-rule="evenodd" d="M76.5634 272.064C76.8686 272.064 77.1159 272.338 77.1159 272.676C77.1159 273.002 76.8859 273.268 76.5959 273.287L76.5634 273.288H71.2595C70.9544 273.288 70.707 273.014 70.707 272.676C70.707 272.35 70.937 272.084 71.2271 272.065L71.2595 272.064H76.5634Z" fill="#07005A"/>
<path fill-rule="evenodd" clip-rule="evenodd" d="M76.5634 276.491C76.8686 276.491 77.1159 276.765 77.1159 277.103C77.1159 277.429 76.8859 277.696 76.5959 277.714L76.5634 277.716H71.2595C70.9544 277.716 70.707 277.441 70.707 277.103C70.707 276.777 70.937 276.511 71.2271 276.492L71.2595 276.491H76.5634Z" fill="#07005A"/>
<path fill-rule="evenodd" clip-rule="evenodd" d="M76.5634 280.898C76.8686 280.898 77.1159 281.172 77.1159 281.51C77.1159 281.836 76.8859 282.103 76.5959 282.121L76.5634 282.122H71.2595C70.9544 282.122 70.707 281.848 70.707 281.51C70.707 281.184 70.937 280.918 71.2271 280.899L71.2595 280.898H76.5634Z" fill="#07005A"/>
<path fill-rule="evenodd" clip-rule="evenodd" d="M76.5634 285.305C76.8686 285.305 77.1159 285.579 77.1159 285.917C77.1159 286.243 76.8859 286.51 76.5959 286.528L76.5634 286.529H71.2595C70.9544 286.529 70.707 286.255 70.707 285.917C70.707 285.591 70.937 285.325 71.2271 285.306L71.2595 285.305H76.5634Z" fill="#07005A"/>
<path fill-rule="evenodd" clip-rule="evenodd" d="M86.9145 255.966C85.607 255.64 84.2626 255.456 82.8629 255.456C72.9917 255.456 64.999 264.311 64.999 275.247C64.999 286.183 72.9917 295.037 82.8629 295.037C84.2626 295.037 85.607 294.854 86.9145 294.527V255.966Z" fill="white"/>
<path fill-rule="evenodd" clip-rule="evenodd" d="M86.9524 274.451C86.4552 274.451 85.9395 274.451 85.4239 274.451C85.829 273.145 86.3447 272.146 86.9524 271.452V268.432C86.6762 268.575 86.4183 268.738 86.1973 268.942C85.4054 269.636 84.8161 270.432 84.4294 271.329C84.0426 272.227 83.6927 273.268 83.398 274.451H82.2746H75.2028C75.3133 273.125 75.7737 272.105 76.6024 271.411C77.4311 270.717 78.3335 270.37 79.3464 270.37C79.7516 270.35 80.0278 270.248 80.1752 270.064C80.3225 269.881 80.3962 269.575 80.3962 269.146C80.3962 268.677 80.3041 268.371 80.1199 268.228C79.9358 268.085 79.5859 268.024 79.0886 268.024C78.131 268.024 77.2286 268.289 76.3998 268.84C75.5711 269.391 74.8713 270.146 74.3372 271.105C73.8031 272.084 73.4716 273.186 73.3795 274.431H70.6907C70.5618 274.431 70.4513 274.512 70.3592 274.655C70.2487 274.798 70.2119 274.981 70.2119 275.206C70.2119 275.41 70.2672 275.594 70.3777 275.736C70.4882 275.879 70.6171 275.961 70.7644 275.961H73.3979C73.4716 277.246 73.7663 278.409 74.2635 279.47C74.7608 280.511 75.4606 281.347 76.3262 281.939C77.2101 282.53 78.2046 282.837 79.328 282.837C80.6172 282.837 81.6485 282.449 82.422 281.694C83.1955 280.939 83.7664 280.103 84.0979 279.184C84.4478 278.266 84.7793 277.185 85.1108 275.92C85.608 275.92 86.2526 275.92 87.0261 275.94V274.451H86.9524ZM81.5541 279.246C81.0016 280.021 80.2281 280.388 79.2521 280.388C78.1471 280.388 77.2447 280.001 76.5265 279.225C75.8082 278.45 75.3846 277.369 75.2373 275.981C76.8579 275.961 79.2889 275.94 82.5854 275.94H83.009C82.5854 277.369 82.1066 278.47 81.5541 279.246Z" fill="#FFCE85"/>
<path fill-rule="evenodd" clip-rule="evenodd" d="M117.485 196.044H103.028C101.095 196.044 99.5293 197.492 99.5293 199.267V212.223H117.448" fill="white"/>
<rect x="99.4365" y="201.593" width="18.0481" height="3.67248" fill="#07005A"/>
<path fill-rule="evenodd" clip-rule="evenodd" d="M117.485 237.625H103.028C101.095 237.625 99.5293 239.073 99.5293 240.848V253.804H117.448" fill="white"/>
<rect x="99.4365" y="243.174" width="18.0481" height="3.67247" fill="#07005A"/>
<path fill-rule="evenodd" clip-rule="evenodd" d="M117.707 211.591C118.012 211.591 118.259 211.865 118.259 212.203C118.259 212.529 118.029 212.795 117.739 212.814L117.707 212.815H95.2019C94.8968 212.815 94.6494 212.541 94.6494 212.203C94.6494 211.877 94.8794 211.61 95.1694 211.592L95.2019 211.591H117.707Z" fill="#07005A"/>
<path fill-rule="evenodd" clip-rule="evenodd" d="M95.2013 213.631C95.9132 213.631 96.4904 212.991 96.4904 212.203C96.4904 211.414 95.9132 210.774 95.2013 210.774C94.4893 210.774 93.9121 211.414 93.9121 212.203C93.9121 212.991 94.4893 213.631 95.2013 213.631Z" fill="#07005A"/>
<path fill-rule="evenodd" clip-rule="evenodd" d="M117.707 253.171C118.012 253.171 118.259 253.445 118.259 253.783C118.259 254.109 118.029 254.376 117.739 254.394L117.707 254.395H95.2019C94.8968 254.395 94.6494 254.121 94.6494 253.783C94.6494 253.457 94.8794 253.191 95.1694 253.172L95.2019 253.171H117.707Z" fill="#07005A"/>
<path fill-rule="evenodd" clip-rule="evenodd" d="M186.18 295.241H119.881C117.855 295.241 116.197 293.405 116.197 291.161V154.871C116.197 152.627 117.855 150.791 119.881 150.791H186.18C188.205 150.791 189.863 152.627 189.863 154.871V291.161C189.863 293.405 188.205 295.241 186.18 295.241Z" fill="#07005A"/>
<path fill-rule="evenodd" clip-rule="evenodd" d="M178.185 275.043H136.177C133.268 275.043 130.929 272.431 130.929 269.228V166.092C130.929 162.869 133.286 160.278 136.177 160.278H178.185C181.095 160.278 183.434 162.889 183.434 166.092V269.228C183.434 272.431 181.077 275.043 178.185 275.043Z" fill="white"/>
<path fill-rule="evenodd" clip-rule="evenodd" d="M158.374 290.753C155.427 290.753 153.033 288.101 153.033 284.836C153.033 281.572 155.427 278.919 158.374 278.919C161.321 278.919 163.715 281.572 163.715 284.836C163.715 288.101 161.321 290.753 158.374 290.753ZM158.373 280.144C156.035 280.144 154.138 282.245 154.138 284.836C154.138 287.427 156.035 289.529 158.373 289.529C160.712 289.529 162.609 287.427 162.609 284.836C162.609 282.245 160.712 280.144 158.373 280.144Z" fill="white"/>
<path fill-rule="evenodd" clip-rule="evenodd" d="M147.874 157.523C148.586 157.523 149.163 156.884 149.163 156.095C149.163 155.306 148.586 154.667 147.874 154.667C147.162 154.667 146.585 155.306 146.585 156.095C146.585 156.884 147.162 157.523 147.874 157.523Z" fill="white"/>
<path fill-rule="evenodd" clip-rule="evenodd" d="M165.922 157.319H152.478C151.87 157.319 151.373 156.769 151.373 156.095C151.373 155.422 151.87 154.871 152.478 154.871H165.922C166.53 154.871 167.027 155.422 167.027 156.095C167.027 156.769 166.53 157.319 165.922 157.319Z" fill="white"/>
<path fill-rule="evenodd" clip-rule="evenodd" d="M127.341 151.382C127.646 151.382 127.894 151.656 127.894 151.994C127.894 152.332 127.646 152.606 127.341 152.606C124.779 152.606 122.687 154.879 122.646 157.683L122.645 157.768V289.467C122.645 292.318 124.742 294.629 127.341 294.629C127.646 294.629 127.894 294.903 127.894 295.241C127.894 295.579 127.646 295.853 127.341 295.853C124.165 295.853 121.592 293.052 121.541 289.573L121.54 289.467V157.768C121.54 154.247 124.145 151.382 127.341 151.382Z" fill="white"/>
<path fill-rule="evenodd" clip-rule="evenodd" d="M118.775 237.481C118.186 237.481 117.726 236.951 117.726 236.319V217.691C117.726 217.038 118.204 216.528 118.775 216.528C119.365 216.528 119.825 217.058 119.825 217.691V236.319C119.825 236.951 119.365 237.481 118.775 237.481Z" fill="#07005A"/>
<path fill-rule="evenodd" clip-rule="evenodd" d="M172.499 200.043C171.67 199.471 170.602 199.757 170.086 200.655L165.777 208.326C163.217 206.041 159.957 204.674 156.421 204.674C148.189 204.674 141.504 212.101 141.504 221.2C141.504 230.3 148.207 237.726 156.421 237.726C164.635 237.726 171.338 230.3 171.338 221.2C171.338 217.446 170.197 213.978 168.281 211.182L173.051 202.695C173.567 201.818 173.327 200.614 172.499 200.043ZM170.251 221.221C170.251 229.667 164.044 236.523 156.438 236.523C148.832 236.523 142.626 229.647 142.626 221.221C142.626 212.794 148.832 205.919 156.438 205.919C159.753 205.919 162.81 207.224 165.204 209.407L157.396 223.302L152.884 216.63C152.295 215.773 151.208 215.61 150.435 216.242C149.661 216.895 149.514 218.099 150.085 218.956L156.144 227.872C156.475 228.362 156.991 228.647 157.543 228.647C157.562 228.647 157.598 228.647 157.617 228.647C158.188 228.627 158.722 228.28 159.017 227.729L167.672 212.305C169.293 214.835 170.251 217.895 170.251 221.221Z" fill="#476FF5"/>
<path fill-rule="evenodd" clip-rule="evenodd" d="M76.362 217.507H43.2861V154.871C43.2861 152.627 46.1407 150.791 48.1665 150.791H34.2253C32.1995 150.791 30.542 152.627 30.542 154.871V291.161C30.542 293.405 32.1995 295.241 34.2253 295.241H46.9694C44.9436 295.241 43.2861 293.405 43.2861 291.161V238.522H76.362C80.4504 238.522 83.7469 234.85 83.7469 230.341V225.689C83.7469 221.159 80.4504 217.507 76.362 217.507Z" fill="#476FF5"/>
<path fill-rule="evenodd" clip-rule="evenodd" d="M74.9102 232.809C72.4792 232.809 70.4902 230.606 70.4902 227.913C70.4902 225.219 72.4792 223.016 74.9102 223.016C77.3411 223.016 79.3301 225.219 79.3301 227.913C79.3301 230.606 77.3595 232.809 74.9102 232.809ZM74.9116 224.24C73.0884 224.24 71.5967 225.893 71.5967 227.913C71.5967 229.933 73.0884 231.585 74.9116 231.585C76.7349 231.585 78.2266 229.933 78.2266 227.913C78.2266 225.893 76.7533 224.24 74.9116 224.24Z" fill="#FFCE85"/>
<path fill-rule="evenodd" clip-rule="evenodd" d="M48.1332 150.627V151.851C45.5107 151.851 43.6044 153.809 43.5665 156.562L43.5659 156.646V217.426H42.4609V156.646C42.4609 153.19 44.8405 150.678 48.0361 150.628L48.1332 150.627Z" fill="#07005A"/>
<path fill-rule="evenodd" clip-rule="evenodd" d="M43.5659 238.502V289.467C43.5659 292.289 45.6208 294.583 48.1843 294.629L48.2621 294.629V295.853C45.0856 295.853 42.5128 293.052 42.4617 289.573L42.4609 289.467V238.502H43.5659Z" fill="#07005A"/>
<path fill-rule="evenodd" clip-rule="evenodd" d="M193.65 294.937C193.843 294.937 194 295.175 194 295.468C194 295.752 193.854 295.983 193.671 295.999L193.65 296H26.3498C26.1566 296 26 295.762 26 295.468C26 295.185 26.1456 294.954 26.3292 294.938L26.3498 294.937H193.65Z" fill="#07005A"/>
</svg>
