<svg width="24" height="20" viewBox="0 0 24 20" fill="none" xmlns="http://www.w3.org/2000/svg">
<path d="M16 18.7796V16.8163C16 15.7749 15.5786 14.7761 14.8284 14.0397C14.0783 13.3033 13.0609 12.8896 12 12.8896H5C3.93913 12.8896 2.92172 13.3033 2.17157 14.0397C1.42143 14.7761 1 15.7749 1 16.8163V18.7796" stroke="white" stroke-width="2" stroke-linecap="round" stroke-linejoin="round"/>
<path d="M8.5 8.96356C10.7091 8.96356 12.5 7.20556 12.5 5.03696C12.5 2.86835 10.7091 1.11035 8.5 1.11035C6.29086 1.11035 4.5 2.86835 4.5 5.03696C4.5 7.20556 6.29086 8.96356 8.5 8.96356Z" stroke="white" stroke-width="2" stroke-linecap="round" stroke-linejoin="round"/>
<path d="M20 6.01855V11.9085" stroke="white" stroke-width="2" stroke-linecap="round" stroke-linejoin="round"/>
<path d="M23 8.96289H17" stroke="white" stroke-width="2" stroke-linecap="round" stroke-linejoin="round"/>
</svg>
