<svg width="33" height="32" viewBox="0 0 33 32" fill="none" xmlns="http://www.w3.org/2000/svg">
<path d="M14.5398 4.16309H4.10304C3.31218 4.16309 2.55371 4.47725 1.99449 5.03648C1.43526 5.5957 1.12109 6.35417 1.12109 7.14503V28.0186C1.12109 28.8095 1.43526 29.568 1.99449 30.1272C2.55371 30.6864 3.31218 31.0006 4.10304 31.0006H24.9767C25.7675 31.0006 26.526 30.6864 27.0852 30.1272C27.6444 29.568 27.9586 28.8095 27.9586 28.0186V17.5818" stroke="#476FF5" stroke-width="2" stroke-linecap="round" stroke-linejoin="round"/>
<path d="M25.7221 1.92637C26.3153 1.33323 27.1197 1 27.9586 1C28.7974 1 29.6019 1.33323 30.195 1.92637C30.7882 2.51952 31.1214 3.324 31.1214 4.16283C31.1214 5.00167 30.7882 5.80614 30.195 6.39929L16.0308 20.5635L10.0669 22.0545L11.5579 16.0906L25.7221 1.92637Z" stroke="#476FF5" stroke-width="2" stroke-linecap="round" stroke-linejoin="round"/>
</svg>
