<svg width="32" height="32" viewBox="0 0 32 32" fill="none" xmlns="http://www.w3.org/2000/svg">
<rect x="1" y="1" width="30" height="30" rx="6" stroke="#FF8585" stroke-width="1.5"/>
<path d="M21.1362 11.8402C20.8625 11.5265 20.5376 11.2776 20.18 11.1078C19.8224 10.938 19.4391 10.8506 19.052 10.8506C18.6649 10.8506 18.2815 10.938 17.9239 11.1078C17.5663 11.2776 17.2414 11.5265 16.9677 11.8402V11.8402C16.6673 12.1844 16.1322 12.1844 15.8318 11.8402V11.8402C15.2791 11.2068 14.5293 10.8509 13.7476 10.8509C12.9659 10.8509 12.2161 11.2068 11.6634 11.8402C11.1106 12.4737 10.8 13.3328 10.8 14.2286C10.8 15.1244 11.1106 15.9836 11.6634 16.617L12.2313 17.2678L15.6463 21.1812C16.0448 21.6379 16.7547 21.6379 17.1532 21.1812L20.5683 17.2678L21.1362 16.617C21.41 16.3034 21.6272 15.9311 21.7754 15.5213C21.9235 15.1115 21.9998 14.6722 21.9998 14.2286C21.9998 13.785 21.9235 13.3458 21.7754 12.936C21.6272 12.5262 21.41 12.1538 21.1362 11.8402Z" stroke="#FF8585" stroke-width="1.5" stroke-linecap="round" stroke-linejoin="round"/>
</svg>
