<svg width="19" height="17" viewBox="0 0 19 17" fill="none" xmlns="http://www.w3.org/2000/svg">
<path d="M17.5349 1.50292C17.0707 1.02645 16.5194 0.648483 15.9128 0.390606C15.3061 0.13273 14.6558 0 13.9991 0C13.3424 0 12.6921 0.13273 12.0854 0.390606C11.4787 0.648483 10.9275 1.02645 10.4633 1.50292L10.2158 1.75674C9.82334 2.15936 9.17618 2.15936 8.78369 1.75674L8.53626 1.50292C7.5985 0.540937 6.32662 0.000498631 5.00043 0.000498641C3.67423 0.000498651 2.40235 0.540937 1.46459 1.50292C0.526829 2.46491 9.88093e-09 3.76964 0 5.1301C-9.88093e-09 6.49055 0.526829 7.79528 1.46459 8.75727L2.42808 9.74565L8.78369 16.2654C9.17618 16.6681 9.82334 16.6681 10.2158 16.2654L16.5714 9.74565L17.5349 8.75727C17.9994 8.28102 18.3678 7.71557 18.6192 7.0932C18.8706 6.47084 19 5.80377 19 5.1301C19 4.45642 18.8706 3.78935 18.6192 3.16699C18.3678 2.54463 17.9994 1.97917 17.5349 1.50292Z" fill="#FF8585"/>
</svg>
