<svg width="29" height="27" viewBox="0 0 29 27" fill="none" xmlns="http://www.w3.org/2000/svg">
<path d="M25.918 3.21018C25.2583 2.50949 24.475 1.95365 23.6129 1.57442C22.7507 1.19519 21.8267 1 20.8934 1C19.9602 1 19.0361 1.19519 18.174 1.57442C17.3119 1.95365 16.5286 2.50949 15.8688 3.21018L15.2276 3.89094C14.8328 4.31004 14.1665 4.31004 13.7717 3.89094L13.1305 3.21018C11.7979 1.7955 9.99047 1.00073 8.10587 1.00073C6.22128 1.00073 4.41387 1.7955 3.08126 3.21018C1.74865 4.62487 1 6.54359 1 8.54426C1 10.5449 1.74865 12.4637 3.08126 13.8783L4.45043 15.3318L13.7717 25.2273C14.1665 25.6464 14.8328 25.6464 15.2276 25.2273L24.5489 15.3318L25.918 13.8783C26.5781 13.178 27.1017 12.3464 27.4589 11.4312C27.8161 10.5159 28 9.53496 28 8.54426C28 7.55356 27.8161 6.57258 27.4589 5.65734C27.1017 4.7421 26.5781 3.91054 25.918 3.21018Z" fill="#F2F6FF" stroke="#FF8585" stroke-width="2" stroke-linecap="round" stroke-linejoin="round"/>
</svg>
