<svg width="113" height="81" viewBox="0 0 113 81" fill="none" xmlns="http://www.w3.org/2000/svg">
<path d="M21.9098 27.5209C22.2895 27.5209 22.6363 27.7358 22.8053 28.0758L29.3483 41.2405C29.7202 41.9889 30.7916 41.978 31.1482 41.2221L49.1063 3.15344C49.2715 2.8034 49.6237 2.58008 50.0108 2.58008H58.4818H65.9874C66.7263 2.58008 67.21 3.35377 66.8864 4.01801L31.2927 77.0858C30.7541 78.101 29.8115 78.6085 28.4649 78.6085C27.139 78.6085 26.2171 78.101 25.6992 77.0858L0.757133 28.9812C0.411994 28.3155 0.895084 27.5209 1.6449 27.5209H21.9098Z" fill="#07005A"/>
<path d="M37.8412 9.89032C37.8412 15.3526 33.4131 19.7806 27.9509 19.7806C22.4886 19.7806 18.0605 15.3526 18.0605 9.89032C18.0605 4.42805 22.4886 0 27.9509 0C33.4131 0 37.8412 4.42805 37.8412 9.89032Z" fill="#476FF5"/>
<path d="M61.68 80.1201C62.2323 80.1201 62.68 79.6723 62.68 79.1201V53.0401C62.68 52.4878 62.2323 52.0401 61.68 52.0401H56C55.4477 52.0401 55 52.4878 55 53.0401V79.1201C55 79.6723 55.4477 80.1201 56 80.1201H61.68ZM61.68 49.3401C62.2323 49.3401 62.68 48.8923 62.68 48.3401V42.6601C62.68 42.1078 62.2323 41.6601 61.68 41.6601H56C55.4477 41.6601 55 42.1078 55 42.6601V48.3401C55 48.8923 55.4477 49.3401 56 49.3401H61.68Z" fill="#07005A"/>
<path d="M81.4923 53.0401C81.4923 52.4878 81.0446 52.0401 80.4923 52.0401H77.2923V42.5732C77.2923 41.8409 76.531 41.3569 75.8679 41.6678L70.1879 44.3303C69.8367 44.4949 69.6123 44.8478 69.6123 45.2357V52.0401H67.2523C66.7001 52.0401 66.2523 52.4878 66.2523 53.0401V58.7201C66.2523 59.2723 66.7001 59.7201 67.2523 59.7201H69.6123V79.1201C69.6123 79.6723 70.0601 80.1201 70.6123 80.1201H76.2923C76.8446 80.1201 77.2923 79.6723 77.2923 79.1201V59.7201H80.4923C81.0446 59.7201 81.4923 59.2723 81.4923 58.7201V53.0401Z" fill="#07005A"/>
<path d="M104.497 79.1201C104.497 79.6723 104.945 80.1201 105.497 80.1201H111.177C111.729 80.1201 112.177 79.6723 112.177 79.1201V53.0401C112.177 52.4878 111.729 52.0401 111.177 52.0401H105.497C104.945 52.0401 104.497 52.4878 104.497 53.0401V53.8401C102.877 52.1601 100.657 51.2001 97.4772 51.2001C90.5772 51.2001 83.9172 57.8601 83.9172 66.0801C83.9172 74.3001 90.5772 80.9601 97.4772 80.9601C100.657 80.9601 102.877 80.0001 104.497 78.3801V79.1201ZM104.497 70.4601C103.177 72.2001 101.137 73.2801 98.7972 73.2801C94.8972 73.2801 91.5972 70.0401 91.5972 66.0801C91.5972 62.1201 94.8972 58.8801 98.7972 58.8801C101.137 58.8801 103.177 59.9601 104.497 61.7001V70.4601Z" fill="#07005A"/>
</svg>
