<svg width="550" height="319" viewBox="0 0 550 319" fill="none" xmlns="http://www.w3.org/2000/svg">
<path fill-rule="evenodd" clip-rule="evenodd" d="M206.35 210.138C202.045 207.85 198.367 208.927 194.331 213.233C196.17 202.827 196.125 190.223 187.873 188.115C179.397 185.917 174.598 191.21 169.62 203.993C169.8 193.049 167.647 178.92 158.588 178.337C148.408 177.709 144.999 186.097 142.488 204.711C139.304 194.305 130.559 176.05 120.244 179.683C110.153 183.226 110.826 192.959 116.432 212.784C110.916 204.217 99.8385 191.479 92.4387 196.323C85.3977 200.898 87.3262 208.388 95.1295 222.293C89.9721 220.05 84.6353 219.826 80.33 224.042C70.6879 233.551 75.352 242.566 88.6716 259.296C102.036 276.026 197.964 246.423 202.493 238.888C207.067 231.308 214.198 214.354 206.35 210.138Z" fill="white"/>
<path fill-rule="evenodd" clip-rule="evenodd" d="M146.4 183.806C144.548 187.174 143.198 191.839 142.039 198.654L141.958 199.133L141.948 199.107C140.099 194.407 137.719 189.765 135.131 186.15C130.421 179.571 125.208 176.509 119.794 178.415C114.365 180.322 111.611 183.992 111.124 189.815L111.095 190.204C110.842 194.066 111.496 198.876 113.152 205.682L113.242 206.052L113.127 205.908C110.844 203.07 108.396 200.487 106 198.492C100.657 194.044 95.7179 192.568 91.6994 195.199C87.773 197.75 86.2287 201.261 86.8822 205.995L86.9078 206.174C87.4209 209.633 89.0649 213.812 92.0782 219.517L92.2734 219.885L92.1604 219.856C87.3183 218.655 82.942 219.6 79.3862 223.082C74.2908 228.107 72.8013 233.23 74.5968 239.342L74.6955 239.669C76.3032 244.856 80.1053 250.702 87.6165 260.136C94.0862 268.235 117.409 267.084 149.205 259.502C175.284 253.284 201.028 243.934 203.644 239.583C206.442 234.946 209.128 228.801 210.386 223.568C212.084 216.501 211.254 211.248 206.984 208.954L206.819 208.868C203.152 206.979 199.78 207.237 196.403 209.605L196.215 209.739L196.242 209.516C196.785 204.996 196.811 200.823 196.209 197.335C195.237 191.696 192.642 187.947 188.203 186.813L187.936 186.746C180.553 184.938 175.58 188.194 170.972 197.514L170.81 197.843L170.805 197.764C170.522 193.721 169.878 189.98 168.843 186.858C166.867 180.896 163.517 177.308 158.672 176.996C153.112 176.653 149.202 178.812 146.486 183.651L146.4 183.806ZM158.502 179.683C165.196 180.114 168.5 190.084 168.272 203.973C168.248 205.474 170.327 205.882 170.871 204.484C175.901 191.568 180.286 187.541 187.533 189.42C193.676 190.99 195.265 200.203 193.003 213.001C192.77 214.319 194.395 215.132 195.31 214.155L195.605 213.845C199.185 210.153 202.159 209.438 205.716 211.329C208.571 212.862 209.214 216.93 207.769 222.939C206.581 227.881 204.005 233.778 201.338 238.195C200.473 239.635 193.905 242.827 184.215 246.346C173.93 250.082 161.092 253.902 148.581 256.885C118.053 264.164 95.1795 265.293 89.7199 258.459L88.8168 257.319C81.9659 248.627 78.5374 243.211 77.1782 238.584C75.6711 233.454 76.8649 229.349 81.2718 225.003C84.7883 221.559 89.2774 221.219 94.5903 223.529C95.7724 224.043 96.9309 222.761 96.2999 221.637C88.2216 207.242 87.3888 201.21 93.1689 197.454C98.41 194.023 107.759 201.807 115.298 213.515C116.135 214.815 118.144 213.908 117.724 212.42C111.75 191.295 112.292 183.903 120.687 180.955C124.678 179.549 128.849 181.999 132.943 187.718C136.305 192.413 139.344 199.044 141.199 205.107C141.621 206.487 143.625 206.324 143.818 204.893C146.449 185.394 149.95 179.155 158.502 179.683Z" fill="#07005A"/>
<path fill-rule="evenodd" clip-rule="evenodd" d="M207.111 238.527L207.201 238.257L78.1759 238.661L78.2656 238.93C71.404 240.276 66.5157 246.824 67.6369 254.046L77.279 316.301L208.053 315.897L217.695 253.642C218.861 246.466 213.972 239.872 207.111 238.527Z" fill="#FF8585"/>
<path fill-rule="evenodd" clip-rule="evenodd" d="M418.427 216.104C416.409 216.104 414.391 216.238 412.418 216.462C401.699 201.661 389.411 189.102 376.495 181.119C342.86 160.397 296.668 166.317 253.57 182.285C223.926 193.229 186.389 228.573 162.306 253.601C130.914 255.978 106.786 277.328 108.221 301.772C108.535 307.11 110.06 312.133 112.526 316.753L217.872 317.471C218.051 317.202 218.231 316.888 218.41 316.619L374.657 316.08C374.836 316.305 375.015 316.529 375.195 316.798L461.705 316.663C469.732 306.033 474.531 292.443 474.531 277.597C474.531 243.598 449.416 216.104 418.427 216.104Z" fill="#FFCE85"/>
<path fill-rule="evenodd" clip-rule="evenodd" d="M379.589 183.131C339.81 207.8 304.112 208.338 280.97 204.346C259.534 200.669 244.061 192.416 239.039 189.186C238.187 189.68 237.334 190.173 236.438 190.666C240.563 193.492 256.708 202.821 280.029 206.903C287.653 208.249 295.322 208.921 303.035 208.921C310.883 208.921 318.732 208.249 326.535 206.858C345.416 203.494 364.027 196.094 381.966 184.836C381.159 184.208 380.396 183.669 379.589 183.131Z" fill="white"/>
<path fill-rule="evenodd" clip-rule="evenodd" d="M375.461 225.52C381.784 216.64 389.588 211.661 398.692 210.674C402.907 210.226 406.45 210.809 408.558 211.302C407.706 210.226 406.854 209.149 406.002 208.117C403.939 207.848 401.382 207.714 398.557 208.028C391.695 208.745 381.739 212.065 373.263 223.995C372.815 224.578 372.994 225.431 373.577 225.879C373.801 226.059 374.071 226.148 374.34 226.148C374.788 226.103 375.192 225.924 375.461 225.52Z" fill="white"/>
<path fill-rule="evenodd" clip-rule="evenodd" d="M375.955 257.045C376.717 257.045 377.3 256.462 377.345 255.744C377.435 251.797 379.004 242.827 384.521 234.394C390.889 224.572 400.307 218.561 412.415 216.408C411.832 215.601 411.249 214.794 410.622 213.986C398.513 216.453 388.736 222.957 382.233 232.914C376.807 241.257 374.744 250.407 374.609 255.655C374.609 256.417 375.192 257.045 375.955 257.045Z" fill="white"/>
<path fill-rule="evenodd" clip-rule="evenodd" d="M185.941 243.818C180.245 243.594 174.774 244.132 170.737 244.984C169.392 246.33 168.047 247.675 166.746 249.021C171.724 246.285 200.067 242.876 211.772 256.197C212.042 256.511 212.4 256.646 212.804 256.646C213.118 256.646 213.432 256.556 213.701 256.332C214.239 255.838 214.329 254.986 213.835 254.448C206.256 245.791 193.116 244.087 185.941 243.818Z" fill="white"/>
<path fill-rule="evenodd" clip-rule="evenodd" d="M161.408 253.688C161.408 253.688 161.453 253.688 161.498 253.688C161.453 253.643 161.408 253.688 161.408 253.688C161.408 253.688 161.363 253.688 161.408 253.688Z" fill="white"/>
<path fill-rule="evenodd" clip-rule="evenodd" d="M208.99 263.061C193.159 251.085 173.427 250.368 165.085 250.726C164.143 251.713 163.202 252.655 162.305 253.597C167.103 253.193 190.02 252.117 207.376 265.214C207.6 265.393 207.914 265.483 208.183 265.483C208.587 265.483 208.99 265.304 209.259 264.945C209.708 264.362 209.573 263.509 208.99 263.061Z" fill="white"/>
<path fill-rule="evenodd" clip-rule="evenodd" d="M140.602 316.347C140.602 316.347 155.311 272.84 196.705 280.734C238.099 288.628 294.74 305.583 294.74 305.583V316.482L140.602 316.347Z" fill="white"/>
<path fill-rule="evenodd" clip-rule="evenodd" d="M168.14 282.529C161.104 285.813 155.073 290.875 149.978 297.224C146.703 301.306 144.009 305.674 141.856 310.043C141.102 311.573 140.468 312.996 139.951 314.276L139.731 314.827C139.663 315.002 139.6 315.167 139.542 315.323L139.368 315.799C139.35 315.849 139.336 315.89 139.326 315.921C139.031 316.793 139.679 317.696 140.599 317.697L294.738 317.832C295.482 317.832 296.085 317.23 296.085 316.486V305.587C296.085 304.993 295.695 304.468 295.125 304.298L293.335 303.767L290.917 303.058C287.543 302.072 283.728 300.974 279.549 299.792C267.612 296.413 255.154 293.034 242.797 289.881C236.587 288.296 230.547 286.806 224.725 285.427L223.091 285.042C213.6 282.813 204.841 280.921 196.956 279.417C186.228 277.371 176.629 278.567 168.14 282.529ZM196.452 282.061C204.745 283.642 214.021 285.658 224.105 288.046C229.912 289.421 235.936 290.907 242.133 292.488C253.816 295.47 265.592 298.654 276.932 301.849L278.817 302.381C282.609 303.454 286.1 304.458 289.234 305.37L293.394 306.59V315.139L142.559 315.008L142.682 314.712C143.129 313.643 143.657 312.476 144.27 311.233C146.341 307.03 148.934 302.826 152.077 298.909C156.929 292.861 162.646 288.064 169.278 284.968C177.255 281.245 186.28 280.121 196.452 282.061Z" fill="#07005A"/>
<path fill-rule="evenodd" clip-rule="evenodd" d="M467.444 155.643C467.444 155.643 464.125 153.983 463.721 150.171C463.318 146.358 465.874 129.763 470 127.431C474.171 125.098 493.141 114.827 496.639 115.051C500.137 115.275 501.572 145.73 467.444 155.643Z" fill="white"/>
<path fill-rule="evenodd" clip-rule="evenodd" d="M469.461 129.267C476.547 104.464 482.332 98.902 485.696 101.324C488.745 103.522 482.556 119.31 480.762 127.518" fill="white"/>
<path fill-rule="evenodd" clip-rule="evenodd" d="M477.852 104.347L478.069 104.021C480.937 99.8078 483.915 98.3822 486.484 100.232C487.998 101.323 488.162 103.579 487.556 107.164L487.467 107.67C487.062 109.888 486.396 112.478 485.306 116.245L483.525 122.322C482.692 125.193 482.414 126.27 482.079 127.805C481.92 128.531 481.203 128.991 480.477 128.832C479.751 128.673 479.291 127.956 479.45 127.23L479.577 126.658C479.866 125.383 480.162 124.265 480.841 121.918L482.635 115.794C483.834 111.666 484.521 108.974 484.903 106.716L484.958 106.375C485.322 104.034 485.208 102.629 484.911 102.416C483.88 101.673 482.308 102.466 480.1 105.825L479.901 106.133C477.067 110.584 473.971 118.384 470.757 129.637C470.552 130.351 469.808 130.765 469.093 130.561C468.379 130.357 467.965 129.612 468.169 128.897L468.401 128.092C471.677 116.769 474.854 108.907 477.852 104.347Z" fill="#07005A"/>
<path fill-rule="evenodd" clip-rule="evenodd" d="M500.72 123.888C504.263 118.102 510.137 118.416 507.088 128.239C504.083 137.837 501.886 150.306 496.28 155.958C490.674 161.609 488.656 164.121 488.656 164.121C488.656 164.121 477.444 205.968 471.076 240.774C461.882 291.099 444.482 300.787 428.247 295.001C412.012 289.26 409.008 266.475 431.162 222.295C453.316 178.07 465.021 152.324 465.021 152.324" fill="white"/>
<path fill-rule="evenodd" clip-rule="evenodd" d="M499.574 123.183C501.585 119.899 504.51 118.057 506.857 118.951C509.44 119.935 509.944 123.445 508.435 128.438L508.109 129.496C507.721 130.776 507.321 132.178 506.793 134.092L505.818 137.632C502.967 147.917 500.857 153.186 497.352 156.787L496.47 157.679C494.638 159.541 493.109 161.15 491.861 162.514L491.366 163.059C490.847 163.633 490.421 164.117 490.083 164.512L489.881 164.749L489.173 167.439L488.537 169.881C487.92 172.262 487.252 174.87 486.545 177.673C483.985 187.816 481.424 198.428 479.035 208.989L478.519 211.282C477.41 216.231 476.367 221.052 475.4 225.713L475.012 227.597C474.18 231.655 473.414 235.561 472.717 239.3L472.401 241.014C468.015 265.022 461.555 281.071 453.283 289.85C445.883 297.703 437.148 299.599 427.8 296.268C418.818 293.091 413.976 285.161 413.965 273.062C413.953 260.466 419.118 243.448 429.64 222.331L431.709 218.197C440.088 201.423 447.486 186.269 453.879 172.888L456.365 167.666C457.9 164.43 459.293 161.471 460.543 158.798L462.508 154.572L463.799 151.766C464.106 151.089 464.904 150.79 465.58 151.098C466.232 151.394 466.534 152.147 466.279 152.807L466.11 153.182L464.712 156.217L462.792 160.34C461.336 163.453 459.69 166.942 457.856 170.797L455.975 174.742C449.208 188.895 441.329 205.005 432.366 222.896C412.017 263.477 412.04 287.84 428.7 293.731C437.066 296.713 444.674 295.062 451.324 288.004C459.095 279.758 465.327 264.386 469.625 241.234L469.754 240.53C470.64 235.686 471.648 230.553 472.766 225.167C473.885 219.772 475.105 214.165 476.41 208.395C478.672 198.398 481.086 188.358 483.508 178.712L484.494 174.809C484.952 173.008 485.391 171.297 485.808 169.686L486.644 166.474L487.358 163.771C487.406 163.59 487.492 163.422 487.609 163.276L487.794 163.052L488.038 162.764C488.392 162.35 488.834 161.847 489.369 161.255L490.049 160.509C491.463 158.969 493.212 157.14 495.326 155.008L495.531 154.798C498.404 151.778 500.353 147.068 502.867 138.194L504.479 132.367C504.926 130.765 505.284 129.528 505.643 128.36L505.805 127.838C507.017 123.935 506.727 121.781 505.899 121.466C505.071 121.15 503.286 122.274 501.869 124.589C501.481 125.222 500.652 125.422 500.019 125.034C499.385 124.645 499.186 123.817 499.574 123.183Z" fill="#07005A"/>
<path fill-rule="evenodd" clip-rule="evenodd" d="M465.429 153.088C462.2 150.89 462.604 138.242 458.971 132.725C454.486 125.863 450.091 118.731 458.388 119.807C465.519 120.704 467.761 126.984 469.42 129.226" fill="white"/>
<path fill-rule="evenodd" clip-rule="evenodd" d="M452.578 123.61C451.646 119.854 453.835 117.857 458.553 118.469C462.514 118.967 465.382 120.927 467.704 124.055L467.813 124.204C468.661 125.391 470.275 128.096 470.487 128.406L470.499 128.423C470.941 129.02 470.815 129.863 470.218 130.305C469.621 130.747 468.778 130.621 468.336 130.024L468.291 129.958C467.908 129.392 466.23 126.583 465.544 125.659C463.626 123.076 461.372 121.536 458.212 121.139C456.563 120.925 455.604 121.077 455.252 121.398C455.044 121.587 454.974 122.028 455.162 122.847L455.19 122.962C455.656 124.841 457.004 127.246 459.941 131.751L460.092 131.982C461.466 134.068 462.311 136.828 463.174 141.243L463.349 142.154L463.875 145.001C464.695 149.343 465.336 151.343 466.142 151.943L466.183 151.972C466.798 152.391 466.957 153.228 466.539 153.842C466.121 154.456 465.284 154.615 464.669 154.197C462.987 153.052 462.263 150.935 461.281 145.765L460.674 142.493L460.587 142.036C459.787 137.884 459.024 135.313 457.915 133.57L457.082 132.286C454.373 128.084 453.109 125.749 452.578 123.61Z" fill="#07005A"/>
<path fill-rule="evenodd" clip-rule="evenodd" d="M496.595 134.38C496.595 134.38 502.919 119.04 505.027 111.908C507.359 104.149 499.197 103.028 495.25 114.196" fill="white"/>
<path fill-rule="evenodd" clip-rule="evenodd" d="M502.408 104.615C505.906 104.387 507.61 107.794 506.362 112.146L506.319 112.293C505.675 114.473 504.618 117.502 503.24 121.182L502.993 121.838C502.803 122.344 502.607 122.859 502.407 123.383C501.533 125.67 500.605 128.037 499.67 130.377L498.904 132.285L498.109 134.242L497.841 134.896C497.558 135.583 496.772 135.91 496.085 135.627C495.422 135.354 495.094 134.613 495.326 133.944L496.408 131.278C496.526 130.986 496.648 130.685 496.772 130.375C497.703 128.056 498.634 125.696 499.518 123.401L500.091 121.905L500.475 120.889C501.912 117.077 503.016 113.939 503.684 111.713L503.74 111.524C504.599 108.666 503.891 107.215 502.582 107.3C500.644 107.426 498.149 110.039 496.521 114.647C496.273 115.348 495.504 115.715 494.804 115.468C494.103 115.22 493.736 114.451 493.984 113.751C495.933 108.235 499.191 104.824 502.408 104.615Z" fill="#07005A"/>
<path fill-rule="evenodd" clip-rule="evenodd" d="M489.15 130.347C489.15 130.347 501.573 102.224 496.012 99.7123C490.944 97.4248 487.087 107.696 480.719 127.521" fill="white"/>
<path fill-rule="evenodd" clip-rule="evenodd" d="M487.843 104.345C490.542 99.1278 493.283 97.0021 496.567 98.4847C499.945 100.01 499.304 105.835 496.284 115.346C495.771 116.961 495.194 118.648 494.564 120.386C493.751 122.629 492.888 124.86 492.018 126.998L491.692 127.795C491.387 128.535 491.102 129.216 490.842 129.826L490.383 130.889C490.082 131.569 489.288 131.877 488.608 131.576C487.929 131.276 487.621 130.481 487.921 129.802L488.272 128.993L488.563 128.307C488.764 127.831 488.979 127.317 489.204 126.771C490.169 124.426 491.134 121.954 492.034 119.469C492.652 117.763 493.217 116.111 493.719 114.531L493.939 113.83C496.203 106.498 496.712 101.503 495.46 100.937C493.903 100.235 492.244 101.579 490.057 105.928L489.806 106.435C487.793 110.572 485.638 116.61 482.002 127.931C481.774 128.639 481.017 129.028 480.309 128.801C479.602 128.573 479.213 127.816 479.44 127.108L480.222 124.686C483.546 114.436 485.588 108.858 487.588 104.849L487.843 104.345Z" fill="#07005A"/>
<path fill-rule="evenodd" clip-rule="evenodd" d="M286.129 150.79L287.878 182.501C287.878 182.501 284.918 199.634 308.687 196.45C332.366 193.31 329.451 179.271 329.451 179.271L322.141 139.891L286.129 150.79Z" fill="white"/>
<path fill-rule="evenodd" clip-rule="evenodd" d="M321.749 138.601L285.737 149.5C285.143 149.68 284.749 150.242 284.783 150.862L286.525 182.433L286.506 182.577C286.497 182.656 286.487 182.745 286.478 182.843C286.257 185.121 286.513 187.719 287.632 190.22C290.363 196.328 297.169 199.349 308.863 197.782C318.408 196.516 324.617 193.421 328.023 188.987C330.497 185.765 331.169 182.377 330.842 179.504L330.82 179.322C330.805 179.21 330.79 179.118 330.776 179.046L323.462 139.643C323.315 138.855 322.516 138.369 321.749 138.601ZM287.528 151.766L321.091 141.608L328.139 179.581C328.148 179.635 328.158 179.708 328.169 179.805C328.424 182.04 327.888 184.742 325.889 187.345C322.959 191.16 317.398 193.932 308.508 195.111C297.909 196.531 292.288 194.036 290.088 189.118C289.189 187.107 288.977 184.953 289.156 183.099L289.177 182.91C289.187 182.82 289.196 182.758 289.202 182.724L289.215 182.624C289.222 182.557 289.223 182.489 289.219 182.421L287.528 151.766Z" fill="#07005A"/>
<path fill-rule="evenodd" clip-rule="evenodd" d="M331.242 99.8838C331.242 99.8838 349.629 92.9765 350.347 112.129C351.065 131.281 331.242 126.302 331.242 126.302" fill="white"/>
<path fill-rule="evenodd" clip-rule="evenodd" d="M333.025 97.9649C335.681 97.3369 338.422 97.1118 341.024 97.5359C347.361 98.5688 351.361 103.206 351.694 112.075C352.037 121.246 347.954 126.266 341.094 127.768C338.301 128.379 335.36 128.343 332.58 127.921L332.145 127.851C331.598 127.759 331.18 127.67 330.917 127.604C330.196 127.423 329.758 126.692 329.939 125.971C330.114 125.276 330.8 124.845 331.495 124.977L331.787 125.043L331.926 125.072C332.234 125.136 332.589 125.2 332.984 125.26C335.466 125.637 338.095 125.669 340.519 125.139C346.133 123.91 349.298 120.018 349.005 112.176L348.984 111.72C348.595 104.432 345.549 101 340.591 100.192C338.389 99.8331 335.984 100.031 333.644 100.584C333.191 100.691 332.772 100.804 332.396 100.918L332.211 100.975C332.074 101.018 331.961 101.055 331.874 101.085L331.717 101.141C331.022 101.402 330.246 101.05 329.985 100.354C329.723 99.6583 330.076 98.8825 330.771 98.6212L330.945 98.5581C331.412 98.3932 332.123 98.178 333.025 97.9649Z" fill="#07005A"/>
<path fill-rule="evenodd" clip-rule="evenodd" d="M296.756 160.436C276.844 160.436 260.699 144.289 260.699 124.375V92.888C260.699 80.1499 271.059 69.7889 283.795 69.7889H315.368C325.01 69.7889 332.858 77.6381 332.858 87.2815V124.33C332.858 144.244 316.713 160.436 296.756 160.436Z" fill="white"/>
<path fill-rule="evenodd" clip-rule="evenodd" d="M315.369 68.441H283.797C270.317 68.441 259.355 79.4044 259.355 92.8857V124.372C259.355 145.03 276.103 161.779 296.758 161.779L297.366 161.775C317.8 161.443 334.205 144.77 334.205 124.327V87.2792C334.205 76.8927 325.754 68.441 315.369 68.441ZM283.797 71.132H315.37C324.269 71.132 331.515 78.3788 331.515 87.2789V124.327C331.515 143.3 316.288 158.776 297.334 159.083L296.747 159.088C277.589 159.088 262.047 143.544 262.047 124.372V92.8855C262.047 80.8905 271.804 71.132 283.797 71.132Z" fill="#07005A"/>
<path fill-rule="evenodd" clip-rule="evenodd" d="M341.245 141.419C341.2 129.174 339.496 120.248 339.048 118.005C339.048 117.871 339.092 117.691 339.092 117.557C339.092 114.731 336.805 112.444 333.98 112.444V117.557L334.114 122.67C335.191 122.625 336.177 122.266 336.985 121.683C338.644 131.999 341.918 162.768 328.105 188.918C325.593 193.717 323.217 198.157 320.885 202.418C307.879 226.683 299.268 242.741 299.493 257.049C299.493 257.766 300.12 258.394 300.838 258.394C301.6 258.394 302.183 257.766 302.183 257.049C302.004 243.414 310.48 227.625 323.261 203.719C325.549 199.413 327.926 195.018 330.482 190.173C339.496 173.085 341.335 154.246 341.245 141.419Z" fill="#476FF5"/>
<path fill-rule="evenodd" clip-rule="evenodd" d="M257.201 123.253C257.828 123.612 258.501 123.836 259.263 123.881V113.699C256.887 113.923 255.003 115.717 254.689 118.05C254.555 118.274 254.465 118.543 254.465 118.812C254.465 120.875 254.465 169.182 268.816 190.98C283.481 213.317 288.01 226.055 289.042 247.674C289.087 248.392 289.67 248.975 290.387 248.975H290.432C291.194 248.93 291.733 248.302 291.733 247.584C290.701 225.337 286.082 212.33 271.058 189.5C259.577 172.097 257.559 135.856 257.201 123.253Z" fill="#476FF5"/>
<path fill-rule="evenodd" clip-rule="evenodd" d="M285.701 101.362C286.418 101.35 287.013 101.9 287.066 102.606L287.07 102.685L287.553 131.159L287.574 131.167C287.671 131.199 287.779 131.192 287.928 131.137L287.994 131.111C288.685 130.815 289.597 129.814 290.643 127.898C290.999 127.246 291.816 127.006 292.468 127.362C293.121 127.718 293.36 128.536 293.004 129.188C290.546 133.69 287.901 134.821 285.789 133.224C285.475 132.987 285.254 132.743 285.113 132.541C284.98 132.349 284.899 132.126 284.878 131.895L284.872 131.795L284.379 102.731C284.366 101.988 284.959 101.375 285.701 101.362Z" fill="#07005A"/>
<path fill-rule="evenodd" clip-rule="evenodd" d="M299.877 135.398C300.627 134.907 301.639 135.274 301.901 136.132L301.932 136.243C301.965 136.367 302.001 136.531 302.036 136.729C302.313 138.306 302.163 140.05 301.261 141.721C299.759 144.504 296.512 146.318 291.283 146.833C290.543 146.906 289.885 146.366 289.812 145.626C289.739 144.887 290.279 144.228 291.019 144.155C295.422 143.721 297.858 142.36 298.894 140.442C299.149 139.97 299.31 139.479 299.395 138.99L299.424 138.8L299.383 138.822C293.535 141.972 287.693 142.182 284.797 138.943L284.701 138.832C284.219 138.267 284.286 137.418 284.851 136.935C285.417 136.453 286.266 136.52 286.748 137.086C288.83 139.527 294.339 139.022 299.877 135.398Z" fill="#07005A"/>
<path fill-rule="evenodd" clip-rule="evenodd" d="M297.953 90.8618C300.889 88.6287 304.374 88.3902 308.133 91.3808C308.715 91.8434 308.811 92.6899 308.349 93.2715C307.886 93.8531 307.04 93.9495 306.458 93.4869C303.738 91.3228 301.599 91.4692 299.582 93.0038C299.309 93.2113 299.066 93.4238 298.803 93.6761L298.309 94.1644C298.24 94.2312 298.181 94.2846 298.118 94.3358C297.944 94.4764 297.793 94.571 297.531 94.6363C296.811 94.8165 296.08 94.3782 295.9 93.6572C295.765 93.1165 295.977 92.5704 296.396 92.2551L296.455 92.2132L296.749 91.9204C297.152 91.5213 297.519 91.1923 297.953 90.8618Z" fill="#07005A"/>
<path fill-rule="evenodd" clip-rule="evenodd" d="M307.297 114.727C308.535 114.727 309.539 113.181 309.539 111.273C309.539 109.366 308.535 107.82 307.297 107.82C306.059 107.82 305.055 109.366 305.055 111.273C305.055 113.181 306.059 114.727 307.297 114.727Z" fill="#07005A"/>
<path fill-rule="evenodd" clip-rule="evenodd" d="M274.692 115.581C275.93 115.581 276.934 114.035 276.934 112.128C276.934 110.22 275.93 108.674 274.692 108.674C273.453 108.674 272.449 110.22 272.449 112.128C272.449 114.035 273.453 115.581 274.692 115.581Z" fill="#07005A"/>
<path fill-rule="evenodd" clip-rule="evenodd" d="M268.437 90.4399C271.796 87.7606 275.478 87.6345 278.713 91.7893C279.169 92.3757 279.064 93.2212 278.478 93.6777C277.891 94.1342 277.046 94.029 276.59 93.4426C274.406 90.6379 272.419 90.7059 270.115 92.5437C269.804 92.7923 269.522 93.0462 269.211 93.3508L268.682 93.8785C268.611 93.948 268.552 94.0029 268.49 94.0542C268.306 94.2072 268.163 94.301 267.887 94.3699C267.166 94.5501 266.436 94.1118 266.255 93.3908C266.12 92.8501 266.333 92.304 266.752 91.9887L266.804 91.9517L267.15 91.6045C267.591 91.1629 267.982 90.8029 268.437 90.4399Z" fill="#07005A"/>
<path fill-rule="evenodd" clip-rule="evenodd" d="M305.771 61.9356C297.026 62.0702 290.389 62.4739 286.442 63.2364C254.332 70.5473 259.534 94.3193 259.534 94.3193C259.534 94.3193 275.231 97.3244 288.012 78.3966C288.012 78.3966 305.547 92.7046 331.514 98.4906C331.917 98.4009 332.41 98.2663 332.859 98.1317V99.4325C334.384 99.0288 336.85 98.5803 339.407 98.7597C339.138 89.3855 337.433 77.5444 329.72 69.9194C324.248 64.4922 316.176 61.8011 305.771 61.9356Z" fill="#07005A"/>
<path fill-rule="evenodd" clip-rule="evenodd" d="M287.153 60.3323C292.269 59.6216 300.324 59.1546 307.264 59.1983C321.125 59.3451 330.389 64.4531 335.879 73.4619C338.04 77.0085 339.547 81.0451 340.562 85.5736C341.312 88.9167 341.714 91.9801 342.091 96.3091C342.155 97.0495 341.608 97.7019 340.867 97.7664C340.127 97.8309 339.475 97.283 339.41 96.5427L339.338 95.7377C338.502 86.7009 337.067 80.583 333.581 74.8625C328.581 66.6582 320.181 62.0264 307.241 61.8893L306.451 61.8866C299.825 61.8822 292.312 62.3327 287.523 62.9979C286.787 63.1001 286.107 62.5863 286.005 61.8502C285.903 61.1141 286.417 60.4346 287.153 60.3323Z" fill="white"/>
<path fill-rule="evenodd" clip-rule="evenodd" d="M390.04 42.4246C378.963 10.7586 347.57 -7.04791 319.9 2.64026C297.162 10.5792 284.022 34.6651 286.175 60.5451C290.345 59.8274 296.893 59.3789 305.773 59.2443C316.94 59.1098 325.64 62.0252 331.649 67.9906C340.17 76.4229 341.919 89.2059 342.144 99.1632C346.27 100.285 350.082 103.648 350.395 112.126C350.44 112.978 349.678 119.571 349.857 119.526C349.857 121.634 350.306 124.281 351.875 126.882C354.97 131.861 361.248 134.956 370.577 136.032C370.621 136.032 370.666 136.032 370.756 136.032C371.429 136.032 372.012 135.539 372.101 134.866C372.191 134.148 371.653 133.475 370.935 133.386C362.504 132.399 356.853 129.753 354.207 125.492C353.131 123.787 352.727 122.038 352.593 120.513C354.88 123.204 358.872 126.12 365.195 126.12C366.72 126.12 368.379 125.94 370.173 125.581C370.891 125.447 371.384 124.729 371.204 124.012C371.07 123.294 370.352 122.801 369.635 122.98C361.473 124.684 356.943 121.59 354.566 118.809C356.405 118.405 358.199 117.912 359.993 117.284C387.618 107.551 401.073 74.0457 390.04 42.4246Z" fill="#07005A"/>
<path fill-rule="evenodd" clip-rule="evenodd" d="M309.224 94.3517C299.416 94.3517 291.465 102.304 291.465 112.113C291.465 121.923 299.416 129.875 309.224 129.875C319.032 129.875 326.984 121.923 326.984 112.113C326.984 102.304 319.032 94.3517 309.224 94.3517ZM309.225 97.043C317.547 97.043 324.293 103.79 324.293 112.113C324.293 120.437 317.547 127.184 309.225 127.184C300.903 127.184 294.156 120.437 294.156 112.113C294.156 103.79 300.903 97.043 309.225 97.043Z" fill="#07005A"/>
<path fill-rule="evenodd" clip-rule="evenodd" d="M292.453 110.369C293.196 110.369 293.798 110.971 293.798 111.714C293.798 112.431 293.238 113.017 292.532 113.057L292.453 113.06H281.779C281.036 113.06 280.434 112.457 280.434 111.714C280.434 110.998 280.994 110.412 281.7 110.371L281.779 110.369H292.453Z" fill="#07005A"/>
<path fill-rule="evenodd" clip-rule="evenodd" d="M332.197 97.7649C332.844 97.3992 333.665 97.6272 334.031 98.2742C334.383 98.8972 334.184 99.6814 333.592 100.065L333.521 100.108L324.238 105.355C323.591 105.721 322.77 105.493 322.405 104.846C322.053 104.223 322.251 103.439 322.844 103.055L322.914 103.013L332.197 97.7649Z" fill="#07005A"/>
<path fill-rule="evenodd" clip-rule="evenodd" d="M264.826 94.3517C255.018 94.3517 247.066 102.304 247.066 112.113C247.066 121.923 255.018 129.875 264.826 129.875C274.634 129.875 282.585 121.923 282.585 112.113C282.585 102.304 274.634 94.3517 264.826 94.3517ZM264.826 97.043C273.148 97.043 279.895 103.79 279.895 112.113C279.895 120.437 273.148 127.184 264.826 127.184C256.504 127.184 249.758 120.437 249.758 112.113C249.758 103.79 256.504 97.043 264.826 97.043Z" fill="#07005A"/>
<path fill-rule="evenodd" clip-rule="evenodd" d="M377.706 299.528H368.378L363.804 231.665C363.49 226.911 359.364 223.054 354.61 223.054H224.599C219.845 223.054 216.213 226.911 216.571 231.665L221.639 306.794C221.953 311.548 226.079 315.405 230.833 315.405L377.662 315.226C380.352 315.226 382.505 313.028 382.505 310.382V304.416C382.55 301.725 380.397 299.528 377.706 299.528Z" fill="#476FF5"/>
<path fill-rule="evenodd" clip-rule="evenodd" d="M298.776 267.952C296.938 265.979 294.471 264.723 291.87 264.23C292.274 263.646 292.543 262.929 292.632 262.166C292.857 259.744 291.108 257.502 288.776 257.143C288.731 257.143 288.686 257.143 288.641 257.143C288.148 255.304 287.206 252.254 286.13 250.953C285.726 250.46 284.964 250.28 284.425 250.594C283.932 250.908 283.842 251.536 284.246 252.03C284.964 252.882 285.816 255.528 286.354 257.546C285.143 258.174 284.291 259.385 284.156 260.91C284.022 262.301 284.56 263.602 285.412 264.543C284.605 264.813 283.842 265.127 283.125 265.575C278.461 268.491 277.878 274.232 281.824 278.493C285.771 282.709 292.812 283.785 297.476 280.87C302.185 277.954 302.768 272.168 298.776 267.952Z" fill="white"/>
<path fill-rule="evenodd" clip-rule="evenodd" d="M296.804 250.729C296.804 250.729 290.077 249.383 289.18 254.99C289.225 254.99 294.516 256.873 296.804 250.729Z" fill="white"/>
<path fill-rule="evenodd" clip-rule="evenodd" d="M548.528 315.402C549.271 315.402 549.873 316.005 549.873 316.748C549.873 317.465 549.313 318.05 548.607 318.091L548.528 318.094H1.79853C1.05548 318.094 0.453125 317.491 0.453125 316.748C0.453125 316.031 1.01323 315.446 1.71948 315.405L1.79853 315.402H548.528Z" fill="#07005A"/>
</svg>
