<svg width="162" height="162" viewBox="0 0 162 162" fill="none" xmlns="http://www.w3.org/2000/svg">
<rect width="162" height="162" rx="10" fill="#FFEDD3"/>
<rect x="10" y="20" width="142.2" height="121.5" rx="10" fill="white"/>
<rect x="19.9001" y="39.7998" width="122.4" height="28.613" rx="2" fill="#FFB13E"/>
<circle cx="33.0145" cy="53.7086" r="8.14026" stroke="white" stroke-width="2"/>
<path d="M38.7275 54.0785C38.1745 52.974 36.5981 52.974 36.045 54.0785L35.2085 55.7491C35.1352 55.8956 34.9948 55.9968 34.8327 56.0202L32.9843 56.2865C31.7477 56.4647 31.2582 57.9879 32.1593 58.8532L33.4769 60.1183C33.5969 60.2335 33.6518 60.4008 33.6232 60.5647L33.31 62.3651C33.0973 63.5877 34.3765 64.5251 35.4782 63.9539L37.1561 63.084C37.3004 63.0092 37.4721 63.0092 37.6164 63.084L39.2944 63.9539C40.3961 64.5251 41.6752 63.5877 41.4625 62.3651L41.1493 60.5647C41.1208 60.4008 41.1756 60.2335 41.2956 60.1183L42.6132 58.8532C43.5144 57.9879 43.0248 56.4647 41.7883 56.2865L39.9398 56.0202C39.7777 55.9968 39.6374 55.8956 39.564 55.7491L38.7275 54.0785Z" fill="white" stroke="#FFB13E" stroke-linecap="round" stroke-linejoin="round"/>
<rect x="19.9001" y="70.7969" width="122.4" height="28.613" rx="2" fill="#FFEDD3"/>
<circle cx="33.0148" cy="84.7067" r="9.14026" fill="white"/>
<rect x="19.9001" y="101.795" width="122.4" height="28.613" rx="2" fill="#FFEDD3"/>
<circle cx="33.0148" cy="115.704" r="9.14026" fill="white"/>
<circle cx="22.6001" cy="30.8006" r="2.7" fill="#FFEDD3"/>
<circle cx="30.7" cy="30.8006" r="2.7" fill="#FFEDD3"/>
<circle cx="38.8001" cy="30.8006" r="2.7" fill="#FFEDD3"/>
</svg>
