<svg width="19" height="18" viewBox="0 0 19 18" fill="none" xmlns="http://www.w3.org/2000/svg">
<path d="M8.45876 0.806621C8.8256 0.0634528 9.88534 0.0634527 10.2522 0.806621L12.213 4.77908C12.3586 5.07393 12.6397 5.27839 12.9651 5.32594L17.3517 5.96711C18.1716 6.08695 18.4984 7.09479 17.9048 7.67295L14.7323 10.763C14.4964 10.9927 14.3887 11.3239 14.4444 11.6484L15.1929 16.0126C15.333 16.8296 14.4755 17.4525 13.7418 17.0667L9.82092 15.0048C9.52954 14.8515 9.1814 14.8515 8.89002 15.0048L4.9691 17.0667C4.23547 17.4525 3.37792 16.8296 3.51804 16.0126L4.26656 11.6484C4.32222 11.3239 4.21455 10.9927 3.97868 10.763L0.806147 7.67295C0.212554 7.09479 0.539338 6.08695 1.35925 5.96711L5.74584 5.32594C6.07119 5.27839 6.35238 5.07393 6.49791 4.77908L8.45876 0.806621Z" fill="white"/>
</svg>
