<svg width="22" height="21" viewBox="0 0 22 21" fill="none" xmlns="http://www.w3.org/2000/svg">
<path d="M5.09991 13.3103L5.62321 12.773L5.09991 13.3103C5.15888 13.3677 5.1858 13.4505 5.17188 13.5316L4.42337 17.8958C4.17816 19.3255 5.67887 20.4157 6.96272 19.7406L10.8836 17.6786C10.9565 17.6403 11.0435 17.6403 11.1164 17.6786L15.0373 19.7406C16.3211 20.4157 17.8218 19.3255 17.5766 17.8958L16.8281 13.5316C16.8142 13.4505 16.8411 13.3677 16.9001 13.3103L20.0726 10.2202C21.1114 9.20845 20.5395 7.44473 19.1047 7.235L14.7181 6.59384C14.6368 6.58195 14.5665 6.53083 14.5301 6.45712L13.8576 6.78909L14.5301 6.45712L12.5692 2.48466C11.9273 1.18412 10.0727 1.18412 9.43076 2.48466L7.46992 6.45712C7.43353 6.53083 7.36323 6.58195 7.2819 6.59384L2.89531 7.235C1.46046 7.44473 0.88859 9.20845 1.92738 10.2202L5.09991 13.3103Z" fill="#FFB13E" stroke="#F2F6FF" stroke-width="1.5" stroke-linecap="round" stroke-linejoin="round"/>
</svg>
