<svg width="30" height="30" viewBox="0 0 30 30" fill="none" xmlns="http://www.w3.org/2000/svg">
<rect x="1" y="1" width="28" height="28" rx="7" fill="#FFF2F2" stroke="#FF8585" stroke-width="2"/>
<path d="M7.28467 10.8184H8.92161H22.0171" fill="#FFF2F2"/>
<path d="M7.28467 10.8184H8.92161H22.0171" stroke="#FF8585" stroke-width="2" stroke-linecap="round" stroke-linejoin="round"/>
<path d="M20.38 10.8183V21.0756C20.38 21.4642 20.2075 21.8369 19.9005 22.1117C19.5935 22.3865 19.1772 22.5409 18.743 22.5409H10.5583C10.1242 22.5409 9.70782 22.3865 9.40084 22.1117C9.09385 21.8369 8.92139 21.4642 8.92139 21.0756V10.8183H20.38ZM11.3768 10.8183V9.35301C11.3768 8.96439 11.5493 8.59168 11.8562 8.31688C12.1632 8.04208 12.5796 7.8877 13.0137 7.8877H16.2876C16.7218 7.8877 17.1381 8.04208 17.4451 8.31688C17.7521 8.59168 17.9246 8.96439 17.9246 9.35301V10.8183" fill="#FFF2F2"/>
<path d="M11.3768 10.8183V9.35301C11.3768 8.96439 11.5493 8.59168 11.8562 8.31688C12.1632 8.04208 12.5796 7.8877 13.0137 7.8877H16.2876C16.7218 7.8877 17.1381 8.04208 17.4451 8.31688C17.7521 8.59168 17.9246 8.96439 17.9246 9.35301V10.8183M20.38 10.8183V21.0756C20.38 21.4642 20.2075 21.8369 19.9005 22.1117C19.5935 22.3865 19.1772 22.5409 18.743 22.5409H10.5583C10.1242 22.5409 9.70782 22.3865 9.40084 22.1117C9.09385 21.8369 8.92139 21.4642 8.92139 21.0756V10.8183H20.38Z" stroke="#FF8585" stroke-width="2" stroke-linecap="round" stroke-linejoin="round"/>
<path d="M13.0134 14.4814V18.8774" stroke="#FF8585" stroke-width="2" stroke-linecap="round" stroke-linejoin="round"/>
<path d="M16.2874 14.4814V18.8774" stroke="#FF8585" stroke-width="2" stroke-linecap="round" stroke-linejoin="round"/>
</svg>
