<svg width="98" height="71" viewBox="0 0 98 71" fill="none" xmlns="http://www.w3.org/2000/svg">
<path fill-rule="evenodd" clip-rule="evenodd" d="M95.9736 3.73682C96.9449 3.73682 97.7324 4.52427 97.7324 5.49564V27.9604C97.7324 28.9317 96.9449 29.7192 95.9736 29.7192H73.5088C72.5375 29.7192 71.75 28.9317 71.75 27.9604C71.75 26.989 72.5375 26.2015 73.5088 26.2015H94.2147V5.49564C94.2147 4.52427 95.0022 3.73682 95.9736 3.73682Z" fill="#476FF5"/>
<path fill-rule="evenodd" clip-rule="evenodd" d="M59.2884 3.83421C52.4322 2.86172 45.4457 4.14391 39.3816 7.48758C33.3175 10.8312 28.5045 16.0552 25.6677 22.3723C22.8309 28.6894 22.1241 35.7574 23.6538 42.5112C25.1835 49.2649 28.8668 55.3385 34.1487 59.8168C39.4306 64.295 46.0249 66.9353 52.9379 67.3397C59.8509 67.7441 66.708 65.8908 72.4761 62.059C78.2441 58.2271 82.6105 52.6244 84.9173 46.0951C85.2408 45.1792 86.2456 44.6991 87.1615 45.0227C88.0774 45.3462 88.5576 46.351 88.234 47.2669C85.6732 54.5154 80.8259 60.7351 74.4225 64.989C68.0192 69.2429 60.4068 71.3003 52.7324 70.8514C45.0581 70.4024 37.7375 67.4713 31.8739 62.4999C26.0102 57.5284 21.9213 50.7858 20.2231 43.2882C18.5249 35.7906 19.3095 27.9442 22.4588 20.9313C25.608 13.9185 30.9511 8.11911 37.6831 4.40717C44.4151 0.695233 52.1711 -0.728181 59.7824 0.351424C67.3848 1.42976 74.4314 4.94687 79.863 10.3736L97.1791 26.68C97.8863 27.3459 97.9198 28.459 97.2538 29.1662C96.5879 29.8734 95.4748 29.9068 94.7676 29.2409L77.4323 12.9165C77.4194 12.9043 77.4066 12.8919 77.394 12.8793C72.499 7.9812 66.1446 4.80671 59.2884 3.83421Z" fill="#476FF5"/>
<path d="M0 21.5456C0 18.6315 2.36236 16.2692 5.27647 16.2692H53.2044C56.1186 16.2692 58.4809 18.6315 58.4809 21.5456V50.1265C58.4809 53.0407 56.1186 55.403 53.2044 55.403H5.27647C2.36236 55.403 0 53.0407 0 50.1265V21.5456Z" fill="#476FF5"/>
<path fill-rule="evenodd" clip-rule="evenodd" d="M53.2044 18.4677H5.27647C3.57657 18.4677 2.19853 19.8457 2.19853 21.5456V50.1265C2.19853 51.8264 3.57657 53.2045 5.27647 53.2045H53.2044C54.9043 53.2045 56.2824 51.8264 56.2824 50.1265V21.5456C56.2824 19.8457 54.9043 18.4677 53.2044 18.4677ZM5.27647 16.2692C2.36236 16.2692 0 18.6315 0 21.5456V50.1265C0 53.0407 2.36236 55.403 5.27647 55.403H53.2044C56.1186 55.403 58.4809 53.0407 58.4809 50.1265V21.5456C58.4809 18.6315 56.1186 16.2692 53.2044 16.2692H5.27647Z" fill="white"/>
<path d="M54.0841 35.6163C54.0841 36.8305 53.0998 37.8148 51.8855 37.8148C50.6713 37.8148 49.687 36.8305 49.687 35.6163C49.687 34.402 50.6713 33.4177 51.8855 33.4177C53.0998 33.4177 54.0841 34.402 54.0841 35.6163Z" fill="white"/>
<path d="M5.71631 22.8648C5.71631 22.1362 6.3069 21.5457 7.03543 21.5457H47.0487C47.7772 21.5457 48.3678 22.1362 48.3678 22.8648V48.8074C48.3678 49.536 47.7772 50.1266 47.0487 50.1266H7.03543C6.3069 50.1266 5.71631 49.536 5.71631 48.8074V22.8648Z" fill="white"/>
</svg>
