<svg width="556" height="378" viewBox="0 0 556 378" fill="none" xmlns="http://www.w3.org/2000/svg">
<g opacity="0.3">
<path opacity="0.3" d="M291.165 3.3175V126.065H294.482V1.65875C294.482 1.21882 294.308 0.796912 293.996 0.485836C293.685 0.174761 293.263 0 292.824 0L149.309 0V3.3175H291.165Z" fill="#07005A"/>
<path opacity="0.3" d="M291.165 252.373H149.309V255.691H292.824C293.263 255.691 293.685 255.516 293.996 255.205C294.308 254.894 294.482 254.472 294.482 254.032V129.383H291.165V252.373Z" fill="#07005A"/>
<path opacity="0.3" d="M4.1339 252.373V129.383H0.816406V254.032C0.819304 254.471 0.994989 254.892 1.30544 255.202C1.61589 255.512 2.03612 255.688 2.47516 255.691H145.99V252.373H4.1339Z" fill="#07005A"/>
<path opacity="0.3" d="M4.1339 3.3175H145.99V0H2.47516C2.03523 0 1.61331 0.174761 1.30223 0.485836C0.991157 0.796912 0.816406 1.21882 0.816406 1.65875V126.065H4.1339V3.3175Z" fill="#07005A"/>
<path opacity="0.3" d="M16.9197 15.007H145.992V11.6895H15.2056C14.7657 11.6895 14.3438 11.8642 14.0327 12.1753C13.7216 12.4864 13.5469 12.9083 13.5469 13.3482V126.066H16.8644L16.9197 15.007Z" fill="#07005A"/>
<path opacity="0.3" d="M278.437 15.007V126.066H281.754V13.3482C281.754 12.9083 281.579 12.4864 281.268 12.1753C280.957 11.8642 280.535 11.6895 280.095 11.6895H149.309V15.007H278.437Z" fill="#07005A"/>
<path opacity="0.3" d="M278.437 240.685H149.309V244.002H280.106C280.546 243.999 280.966 243.824 281.276 243.513C281.587 243.203 281.762 242.783 281.765 242.344V129.383H278.448L278.437 240.685Z" fill="#07005A"/>
<path opacity="0.3" d="M16.9152 240.685V129.383H13.5977V242.344C13.6006 242.783 13.7762 243.203 14.0867 243.513C14.3971 243.824 14.8174 243.999 15.2564 244.002H145.988V240.685H16.9152Z" fill="#07005A"/>
<path opacity="0.3" d="M149.31 244.002H145.992V252.373H149.31V244.002Z" fill="#07005A"/>
<path opacity="0.3" d="M149.31 15.0059H145.992V126.043H149.31V15.0059Z" fill="#07005A"/>
<path opacity="0.3" d="M149.31 3.31836H145.992V11.6895H149.31V3.31836Z" fill="#07005A"/>
<path opacity="0.3" d="M149.31 129.361H145.992V240.685H149.31V129.361Z" fill="#07005A"/>
<path opacity="0.3" d="M149.31 252.373H145.992V255.691H149.31V252.373Z" fill="#07005A"/>
<path opacity="0.3" d="M149.31 0H145.992V3.3175H149.31V0Z" fill="#07005A"/>
<path opacity="0.3" d="M149.31 240.686H145.992V244.003H149.31V240.686Z" fill="#07005A"/>
<path opacity="0.3" d="M149.31 11.6895H145.992V15.007H149.31V11.6895Z" fill="#07005A"/>
<path opacity="0.3" d="M145.991 126.043H16.8633V129.36H145.991V126.043Z" fill="#07005A"/>
<path opacity="0.3" d="M13.5435 126.043H4.13281V129.36H13.5435V126.043Z" fill="#07005A"/>
<path opacity="0.3" d="M278.426 126.043H149.309V129.36H278.426V126.043Z" fill="#07005A"/>
<path opacity="0.3" d="M4.1339 126.043H0.816406V129.36H4.1339V126.043Z" fill="#07005A"/>
<path opacity="0.3" d="M16.8644 126.043H13.5469V129.36H16.8644V126.043Z" fill="#07005A"/>
<path opacity="0.3" d="M149.31 126.043H145.992V129.36H149.31V126.043Z" fill="#07005A"/>
</g>
<path opacity="0.1" d="M565.341 277.548H506.031V208.636H524.728C524.971 208.636 525.21 208.583 525.43 208.482C525.65 208.38 525.845 208.231 526.001 208.046C526.157 207.861 526.27 207.644 526.333 207.41C526.396 207.177 526.407 206.932 526.365 206.694L515.308 144.368C515.24 143.984 515.039 143.637 514.739 143.386C514.44 143.136 514.062 142.999 513.671 143H479.151C478.76 142.999 478.382 143.136 478.083 143.386C477.783 143.637 477.582 143.984 477.515 144.368L466.513 206.65C466.471 206.888 466.482 207.132 466.544 207.366C466.607 207.6 466.721 207.817 466.877 208.002C467.033 208.187 467.228 208.336 467.447 208.437C467.667 208.539 467.907 208.592 468.149 208.591H486.847V277.548H411.659C411.219 277.548 410.797 277.722 410.486 278.033C410.175 278.343 410 278.764 410 279.203V375.345C410 375.784 410.175 376.205 410.486 376.515C410.797 376.826 411.219 377 411.659 377H565.341C565.781 377 566.203 376.826 566.514 376.515C566.825 376.205 566.999 375.784 566.999 375.345V279.247C567.005 279.026 566.967 278.806 566.886 278.6C566.805 278.394 566.684 278.207 566.53 278.048C566.375 277.89 566.19 277.764 565.986 277.678C565.782 277.592 565.562 277.548 565.341 277.548ZM480.533 146.255H512.278L522.749 205.326H470.062L480.533 146.255ZM502.714 208.636V277.217H490.109V208.636H502.714ZM563.682 373.69H413.218V280.858H563.682V373.69Z" fill="#07005A"/>
<path d="M46 376H555" stroke="#07005A" stroke-width="3" stroke-linecap="round" stroke-linejoin="round"/>
<path d="M314.219 47.1289H304.797V50.4464H314.219V47.1289Z" fill="#07005A"/>
<path d="M317.528 47.1289H314.211V50.4464H317.528V47.1289Z" fill="#07005A"/>
<path d="M304.798 47.1289H301.48V50.4464H304.798V47.1289Z" fill="#07005A"/>
<path fill-rule="evenodd" clip-rule="evenodd" d="M357.459 185.901C347.96 191.706 328.773 209.632 324.107 261.097C320.789 298.043 322.912 356.199 323.786 375.684L295.753 375.75C295.753 347.374 294.902 235.309 286.21 215.592C278.469 198.164 285.723 190.059 293.132 184.728C314.569 183.28 336.089 183.672 357.459 185.901Z" fill="#FF8585" stroke="#07005A" stroke-width="3" stroke-miterlimit="10"/>
<path fill-rule="evenodd" clip-rule="evenodd" d="M207.685 375.582L295.754 375.748C295.754 347.372 294.902 235.307 286.21 215.59C278.47 198.162 285.724 190.057 293.133 184.727C279.188 185.832 267.079 187.867 259.958 191.229C239.953 202.387 217.041 244.53 217.041 244.53C205.595 266.713 200.088 319.362 198.761 366.371C198.729 367.565 198.935 368.754 199.369 369.867C199.802 370.981 200.454 371.996 201.285 372.854C202.116 373.712 203.111 374.396 204.21 374.864C205.309 375.333 206.49 375.577 207.685 375.582Z" fill="#476FF5" stroke="#07005A" stroke-width="3" stroke-linecap="round" stroke-linejoin="round"/>
<path fill-rule="evenodd" clip-rule="evenodd" d="M276.323 311.601C273.437 313.116 271.491 315.161 271.236 318.103C270.573 325.943 278.612 326.95 286.375 330.267C302.62 337.19 301.238 356.696 286.375 360.257C279.453 361.916 277.385 351.72 284.164 349.42C285.701 348.9 285.933 346.103 285.081 344.156C284.732 343.143 284.137 342.232 283.35 341.504C282.563 340.777 281.607 340.256 280.57 339.987C277.13 338.882 271.469 338.24 267.93 337.289C259.891 335.077 255.832 328.874 254.328 321.708C251.63 308.891 263.661 297.38 275.737 293.631" fill="#FFCE85"/>
<path fill-rule="evenodd" clip-rule="evenodd" d="M446.625 319.694C449.733 347.196 437.347 362.467 428.246 369.81C423.64 373.481 417.924 375.477 412.035 375.472L323.789 375.693C322.916 356.219 320.748 298.053 324.11 261.107C328.777 209.63 347.963 191.705 357.462 185.91C364.627 186.573 371.726 187.831 378.683 189.67C378.683 189.67 431.663 202.044 433.864 239.322C434.616 252.105 451.811 298.075 446.625 319.694Z" fill="#476FF5" stroke="#07005A" stroke-width="3" stroke-linecap="round" stroke-linejoin="round"/>
<path fill-rule="evenodd" clip-rule="evenodd" d="M281.322 323.444C287.957 325.28 295.565 321.587 301.581 319.088C311.168 315.107 320.756 311.203 330.553 307.786C340.041 304.468 349.625 301.494 359.305 298.862C367.267 296.65 375.892 295.677 379.807 287.317C382.472 281.6 384.883 273.129 378.978 267.633C373.537 262.557 362.943 263.995 356.507 265.554C351.918 266.66 344.841 269.303 340.152 269.977C335.032 270.707 333.517 269.922 328.496 269.148C320.004 267.821 308.37 267.943 300.11 269.966C289.328 272.609 285.281 280.538 281.41 284.055C277.54 287.571 276.379 288.777 273.935 291.209C269.047 296.064 267.864 303.628 269.036 310.34" fill="#FFCE85"/>
<path fill-rule="evenodd" clip-rule="evenodd" d="M335.285 271.692C333.792 267.07 334.312 258.953 338.26 257.681C342.208 256.41 351.032 264.239 353.178 267.634C355.323 271.029 335.285 271.692 335.285 271.692Z" fill="#FFCE85"/>
<path fill-rule="evenodd" clip-rule="evenodd" d="M357.337 267.046C355.833 263.729 361.86 251.387 366.261 251.564C371.193 251.808 373.681 267.046 373.681 267.046H357.337Z" fill="#FFCE85"/>
<path d="M309.419 285.061C307.096 288.632 297.642 310.141 320.068 311.601" stroke="#07005A" stroke-width="1.5" stroke-linecap="round" stroke-linejoin="round"/>
<path d="M339.643 260.047C338.814 263.176 335.541 270.851 341.479 275.119" stroke="#07005A" stroke-width="1.5" stroke-linecap="round" stroke-linejoin="round"/>
<path d="M366.061 254.041C364.082 256.319 358.143 263.12 361.638 268.185" stroke="#07005A" stroke-width="1.5" stroke-linecap="round" stroke-linejoin="round"/>
<path d="M354.486 280.018C351.299 279.185 347.94 279.281 344.805 280.294C341.671 281.307 338.891 283.195 336.793 285.735" stroke="#07005A" stroke-width="1.5" stroke-linecap="round" stroke-linejoin="round"/>
<path d="M356.1 283.325C353.059 283.004 343.936 283.579 339.656 290.922" stroke="#07005A" stroke-width="1.5" stroke-linecap="round" stroke-linejoin="round"/>
<path d="M375.031 271.956C378.249 268.141 382.772 264.215 391.851 263.529" stroke="#07005A" stroke-width="1.5" stroke-linecap="round" stroke-linejoin="round"/>
<path d="M376.223 275.739C378.368 273.306 383.245 269.236 392.545 270.464" stroke="#07005A" stroke-width="1.5" stroke-linecap="round" stroke-linejoin="round"/>
<path d="M361.914 281.113C363.02 282.363 367.189 282.119 366.039 278.525" stroke="#07005A" stroke-width="1.5" stroke-linecap="round" stroke-linejoin="round"/>
<path d="M370.883 278.27C370.695 279.939 367.189 282.173 366.039 278.579" stroke="#07005A" stroke-width="1.5" stroke-linecap="round" stroke-linejoin="round"/>
<path d="M359.214 277.408C359.91 277.408 360.474 276.844 360.474 276.147C360.474 275.451 359.91 274.887 359.214 274.887C358.518 274.887 357.953 275.451 357.953 276.147C357.953 276.844 358.518 277.408 359.214 277.408Z" fill="#07005A" stroke="#07005A" stroke-miterlimit="10"/>
<path d="M368.761 273.912C369.457 273.912 370.021 273.348 370.021 272.651C370.021 271.955 369.457 271.391 368.761 271.391C368.064 271.391 367.5 271.955 367.5 272.651C367.5 273.348 368.064 273.912 368.761 273.912Z" fill="#07005A" stroke="#07005A" stroke-miterlimit="10"/>
<path fill-rule="evenodd" clip-rule="evenodd" d="M363.209 276.411L366.372 275.206C366.465 275.171 366.566 275.163 366.664 275.181C366.762 275.2 366.853 275.244 366.928 275.309C367.002 275.375 367.058 275.46 367.089 275.554C367.119 275.649 367.124 275.75 367.102 275.847L366.505 278.523C366.486 278.607 366.448 278.686 366.394 278.753C366.34 278.819 366.271 278.873 366.193 278.908C366.114 278.943 366.029 278.96 365.943 278.957C365.857 278.953 365.773 278.93 365.697 278.888L363.132 277.395C363.041 277.345 362.966 277.27 362.916 277.178C362.867 277.086 362.845 276.982 362.853 276.878C362.861 276.774 362.899 276.675 362.963 276.592C363.026 276.509 363.111 276.447 363.209 276.411Z" fill="#07005A" stroke="#07005A" stroke-miterlimit="10"/>
<path d="M270.672 313.215C271.475 315.661 272.866 317.873 274.722 319.656C276.579 321.439 278.845 322.74 281.321 323.444" stroke="#07005A" stroke-width="1.5" stroke-linecap="round" stroke-linejoin="round"/>
<path fill-rule="evenodd" clip-rule="evenodd" d="M285.336 308.461L282.892 286.499C281.598 281.711 286.298 279.178 289.461 283.392C291.157 285.605 292.394 288.136 293.099 290.834C295.919 301.129 302.454 322.903 302.001 321.963C301.547 321.023 285.336 308.461 285.336 308.461Z" fill="white" stroke="#07005A" stroke-width="3" stroke-linecap="round" stroke-linejoin="round"/>
<path fill-rule="evenodd" clip-rule="evenodd" d="M349.597 319.188L304.567 316.523L286.808 300.046L261.495 283.757C260.836 283.399 260.08 283.262 259.337 283.366C258.595 283.469 257.905 283.808 257.369 284.333C256.833 284.858 256.48 285.54 256.36 286.28C256.241 287.021 256.363 287.78 256.707 288.446C257.735 290.061 276.612 302.988 276.612 302.988L250.912 292.493C250.323 292.254 249.677 292.194 249.054 292.322C248.431 292.45 247.86 292.759 247.413 293.211C246.966 293.663 246.662 294.237 246.541 294.861C246.42 295.485 246.487 296.131 246.732 296.718C247.838 299.361 250.934 300.4 254.86 302.557C257.249 303.85 273.106 310.441 273.106 310.441L249.231 305.443C243.271 304.47 241.07 312.785 252.549 314.544C258.476 315.451 265.421 317.474 270.651 317.518L253.511 317.574C247.396 319.266 251.1 326.664 275.351 326.255C285.845 341.051 292.37 345.109 306.69 341.382L349.652 346.281L349.597 319.188Z" fill="white" stroke="#07005A" stroke-width="3" stroke-linecap="round" stroke-linejoin="round"/>
<path fill-rule="evenodd" clip-rule="evenodd" d="M446.622 319.872C445.705 326.983 437.544 330.875 431.008 332.667L316.422 355.336C314.755 355.469 313.098 354.984 311.764 353.975C310.431 352.966 309.515 351.503 309.19 349.863L309.134 313.79C308.954 312.865 308.967 311.912 309.17 310.991C309.374 310.07 309.765 309.201 310.319 308.438C310.873 307.675 311.577 307.034 312.39 306.554C313.202 306.075 314.104 305.767 315.039 305.651L389.009 291.961L379.454 214.752" fill="#476FF5"/>
<path d="M446.624 319.695C445.706 326.805 437.545 330.753 431.009 332.489L316.423 355.159C314.756 355.291 313.099 354.807 311.766 353.797C310.432 352.788 309.516 351.325 309.191 349.685L309.158 313.657C308.978 312.732 308.99 311.78 309.194 310.859C309.398 309.939 309.789 309.071 310.343 308.309C310.897 307.546 311.602 306.906 312.414 306.428C313.226 305.95 314.127 305.644 315.063 305.529L389.032 291.828L379.455 214.574" stroke="#07005A" stroke-width="3" stroke-linecap="round" stroke-linejoin="round"/>
<path fill-rule="evenodd" clip-rule="evenodd" d="M329.283 293.264C323.754 296.394 322.338 304.002 331.14 303.217C339.943 302.432 369.27 300.331 367.235 295.83C365.2 291.329 362.447 290.234 360.976 289.958C359.141 289.735 357.295 289.61 355.447 289.582L351.167 290.688L346.091 292.535L341.491 294.934L337.333 296.737L332.91 296.604L330.477 295.819L329.283 293.264Z" fill="#FFCE85"/>
<path d="M328.858 292.126C329.875 295.277 331.877 298.761 339.916 295.233C347.657 291.849 362.331 284.241 366.909 294.924C367.122 295.402 367.144 295.944 366.969 296.438C366.794 296.932 366.436 297.34 365.969 297.578C359.489 300.74 343.046 303.936 328.073 303.107C326.337 302.882 324.663 302.322 323.141 301.459" stroke="#07005A" stroke-width="1.5" stroke-linecap="round" stroke-linejoin="round"/>
<path d="M355.457 292.734C357.857 293.011 360.986 293.84 362.38 298.076" stroke="#07005A" stroke-width="1.5" stroke-linecap="round" stroke-linejoin="round"/>
<path d="M352.148 295.266C353.29 295.413 354.363 295.891 355.237 296.639C356.111 297.387 356.748 298.374 357.069 299.479" stroke="#07005A" stroke-width="1.5" stroke-linecap="round" stroke-linejoin="round"/>
<path fill-rule="evenodd" clip-rule="evenodd" d="M374.176 287.116L376.907 286.463L380.004 285.457C381.338 285.478 382.671 285.571 383.996 285.733C385.102 285.933 387.059 286.729 388.53 289.991C389.403 291.915 382.271 293.485 375.005 294.359C374.371 294.511 373.703 294.416 373.136 294.094C372.786 293.883 372.456 293.638 372.152 293.364L372.429 287.326L374.176 287.116Z" fill="#FFCE85"/>
<path d="M372.43 287.117C373.536 287.692 376.356 286.487 377.605 286.122C382.029 284.828 386.452 284.928 388.332 289.44C388.486 289.785 388.5 290.177 388.373 290.534C388.245 290.89 387.985 291.183 387.646 291.353C385.302 292.459 381.1 293.41 376.234 294.471C375.493 294.626 372.773 294.703 371.977 293.177" stroke="#07005A" stroke-width="1.09" stroke-linecap="round" stroke-linejoin="round"/>
<path d="M380.008 287.801C381.146 287.823 382.247 288.211 383.148 288.905C384.05 289.6 384.705 290.565 385.017 291.66" stroke="#07005A" stroke-width="1.09" stroke-linecap="round" stroke-linejoin="round"/>
<path d="M377.605 289.627C378.431 289.735 379.207 290.082 379.84 290.623C380.472 291.165 380.933 291.88 381.166 292.679" stroke="#07005A" stroke-width="1.09" stroke-linecap="round" stroke-linejoin="round"/>
<path d="M389.781 292.037C395.31 292.822 404.157 292.8 406.369 302.078" stroke="#07005A" stroke-width="3" stroke-linecap="round" stroke-linejoin="round"/>
<path d="M389.031 291.783C395.467 288.311 403.496 285.325 410.042 293.818" stroke="#07005A" stroke-width="3" stroke-linecap="round" stroke-linejoin="round"/>
<path d="M241.535 375.649C243.349 346.278 245.019 336.06 245.682 333.959" stroke="#07005A" stroke-width="3" stroke-linecap="round" stroke-linejoin="round"/>
<path fill-rule="evenodd" clip-rule="evenodd" d="M266.801 122.039V138.284C252.845 140.816 249.594 187.681 282.139 191.585H350.17C366.956 191.585 384.683 179.288 382.46 159.029C380.237 138.77 369.721 137.023 369.721 137.023V122.039H266.801Z" fill="#07005A"/>
<path fill-rule="evenodd" clip-rule="evenodd" d="M296.405 147.913L292.281 185.931C292.281 185.931 289.317 203.779 311.456 205.913C337.775 208.125 337.996 192.267 337.996 192.267L339.102 145.336" fill="white"/>
<path d="M296.405 147.913L292.281 185.931C292.281 185.931 289.317 203.779 311.456 205.913C337.775 208.125 337.996 192.267 337.996 192.267L339.102 145.336" stroke="#07005A" stroke-width="3" stroke-miterlimit="10"/>
<path fill-rule="evenodd" clip-rule="evenodd" d="M369.723 88.3197C369.723 65.6834 366.295 55.6535 355.457 47.4039C346.677 40.6915 346.036 40.0502 346.036 31.2588L341.988 27.8086C341.988 27.8086 336.327 50.7989 340.883 54.0611C345.439 57.3233 355.07 63.4606 357.758 91.6594L369.678 92.6325L369.723 88.3197Z" fill="#07005A"/>
<path d="M342.297 36.7344C345.172 37.9508 374.255 41.5669 374.255 76.9314" stroke="#07005A" stroke-width="3" stroke-linecap="round" stroke-linejoin="round"/>
<path fill-rule="evenodd" clip-rule="evenodd" d="M356.23 122.823C362.335 124.526 375.03 127.799 376.423 109.244C377.816 90.6877 362.102 91.7604 356.385 93.4634L358.298 94.8899L356.23 122.823Z" fill="white" stroke="#07005A" stroke-width="3" stroke-linecap="round" stroke-linejoin="round"/>
<path fill-rule="evenodd" clip-rule="evenodd" d="M280.904 121.419C274.8 123.122 262.105 126.395 260.712 107.839C259.318 89.2835 275.088 90.3561 280.749 92.0591L278.825 93.4856L280.904 121.419Z" fill="white" stroke="#07005A" stroke-width="3" stroke-linecap="round" stroke-linejoin="round"/>
<path fill-rule="evenodd" clip-rule="evenodd" d="M304.666 55.7205C295.687 55.7205 279.232 63.6161 279.232 78.943V116.077C279.232 116.077 278.447 150.833 313.015 155.5C350.613 160.576 358.918 127.157 358.918 111.001C358.918 96.1166 360.61 70.5497 354.805 63.1406C348.999 55.7316 341.955 55.4883 337.222 55.4883C332.489 55.4883 304.666 55.7205 304.666 55.7205Z" fill="white" stroke="#07005A" stroke-width="3" stroke-miterlimit="10"/>
<path fill-rule="evenodd" clip-rule="evenodd" d="M266.801 92.491C266.801 92.491 273.801 90.224 276.587 91.1861C279.374 92.1482 308.811 96.8259 332.708 80.1278C356.605 63.4297 342.849 50.0712 345.016 38.4821C347.184 26.893 348.997 17.1174 316.055 22.5581C283.112 27.9988 266.801 48.6226 266.801 82.2731V92.491Z" fill="#07005A"/>
<path d="M270.574 89.5586C266.969 90.0562 263.762 93.9819 263.762 134.632" stroke="#07005A" stroke-width="3" stroke-linecap="round" stroke-linejoin="round"/>
<path d="M271.403 115.791C271.757 115.791 272.044 115.503 272.044 115.149C272.044 114.795 271.757 114.508 271.403 114.508C271.049 114.508 270.762 114.795 270.762 115.149C270.762 115.503 271.049 115.791 271.403 115.791Z" fill="#FF8585" stroke="#FF8585" stroke-width="3" stroke-linecap="round" stroke-linejoin="round"/>
<path d="M365.774 116.896C366.128 116.896 366.416 116.609 366.416 116.255C366.416 115.9 366.128 115.613 365.774 115.613C365.42 115.613 365.133 115.9 365.133 116.255C365.133 116.609 365.42 116.896 365.774 116.896Z" fill="#FF8585" stroke="#FF8585" stroke-width="3" stroke-linecap="round" stroke-linejoin="round"/>
<path fill-rule="evenodd" clip-rule="evenodd" d="M324.735 90.6323C326.615 90.7097 328.705 92.8439 330.264 91.9371C331.823 91.0303 330.187 88.1884 327.522 87.171C324.856 86.1536 319.515 86.8835 319.659 89.0509C319.803 91.2183 322.866 90.5659 324.735 90.6323Z" fill="#07005A"/>
<path d="M307.179 98.6406C307.209 103.113 306.991 107.584 306.527 112.032C306.14 113.912 304.868 117.915 306.184 119.773C306.39 120.059 306.656 120.297 306.963 120.472C307.27 120.646 307.611 120.752 307.963 120.782C308.314 120.812 308.668 120.767 309.001 120.648C309.333 120.529 309.636 120.34 309.888 120.094" stroke="#07005A" stroke-width="3" stroke-linecap="round" stroke-linejoin="round"/>
<path d="M308.68 130.463C310.77 131.691 316.509 131.569 317.969 128.086" stroke="#07005A" stroke-width="4" stroke-linecap="round" stroke-linejoin="round"/>
<path fill-rule="evenodd" clip-rule="evenodd" d="M322.902 103.794C324.262 103.794 325.379 102.091 325.379 99.9785C325.379 97.8664 324.273 96.1523 322.902 96.1523C321.531 96.1523 320.414 97.8664 320.414 99.9785C320.414 102.091 321.531 103.794 322.902 103.794Z" fill="#07005A"/>
<path fill-rule="evenodd" clip-rule="evenodd" d="M292.657 102.442C293.762 102.442 294.68 101.049 294.68 99.3235C294.68 97.5984 293.773 96.2051 292.657 96.2051C291.54 96.2051 290.633 97.6095 290.633 99.3235C290.633 101.038 291.54 102.442 292.657 102.442Z" fill="#07005A"/>
<path fill-rule="evenodd" clip-rule="evenodd" d="M289.703 170.01C301.978 170.264 337.177 164.027 339.045 157.525V152.206L331.072 155.28L314.374 155.844L295.575 149.895L289.703 170.01Z" fill="#07005A"/>
</svg>
