<svg width="775" height="319" viewBox="0 0 775 319" fill="none" xmlns="http://www.w3.org/2000/svg">
<g opacity="0.3">
<path opacity="0.3" d="M707.53 178.49H371.161C370.715 178.49 370.288 178.667 369.973 178.982C369.658 179.298 369.48 179.725 369.48 180.171V318.357C369.48 318.803 369.658 319.23 369.973 319.546C370.288 319.861 370.715 320.038 371.161 320.038H380.863V329.259C380.863 329.704 381.04 330.132 381.356 330.447C381.671 330.762 382.098 330.939 382.544 330.939H389.345V339.779C389.348 340.224 389.526 340.649 389.84 340.964C390.155 341.278 390.58 341.456 391.025 341.459H536.595C537.041 341.459 537.468 341.282 537.783 340.967C538.098 340.652 538.276 340.225 538.276 339.779V330.939H551.877V339.779C551.877 340.225 552.054 340.652 552.369 340.967C552.684 341.282 553.112 341.459 553.557 341.459H699.049C699.494 341.459 699.922 341.282 700.237 340.967C700.552 340.652 700.729 340.225 700.729 339.779V330.939H707.53C707.976 330.939 708.403 330.762 708.718 330.447C709.033 330.132 709.211 329.704 709.211 329.259V180.171C709.211 179.725 709.033 179.298 708.718 178.982C708.403 178.667 707.976 178.49 707.53 178.49ZM372.842 316.677V181.851H705.849V189.403H382.499C382.053 189.403 381.626 189.58 381.311 189.895C380.996 190.21 380.819 190.637 380.819 191.083V316.677H372.842ZM705.849 316.677H700.729V301.877C700.715 301.441 700.531 301.028 700.218 300.724C699.904 300.421 699.485 300.252 699.049 300.252H553.501C553.056 300.252 552.628 300.429 552.313 300.744C551.998 301.06 551.821 301.487 551.821 301.933V316.733H546.678V192.764H705.849V316.677ZM595.997 320.038C596.055 320.295 596.085 320.558 596.087 320.822C596.087 321.809 595.695 322.755 594.997 323.452C594.3 324.15 593.354 324.542 592.367 324.542C591.381 324.542 590.434 324.15 589.737 323.452C589.039 322.755 588.647 321.809 588.647 320.822C588.645 320.559 588.672 320.296 588.726 320.038H595.997ZM590.238 327.578H555.182V320.038H585.331C585.314 320.299 585.314 320.561 585.331 320.822C585.328 322.323 585.801 323.786 586.683 325C587.565 326.215 588.81 327.117 590.238 327.578ZM599.448 320.856C599.464 320.595 599.464 320.333 599.448 320.072H653.226C653.226 320.329 653.226 320.598 653.226 320.856C653.231 322.358 653.715 323.82 654.608 325.029C655.5 326.237 656.755 327.13 658.189 327.578H594.496C595.932 327.125 597.187 326.226 598.078 325.011C598.968 323.796 599.448 322.329 599.448 320.822V320.856ZM663.824 320.072C663.882 320.329 663.912 320.592 663.914 320.856C663.942 321.362 663.866 321.869 663.691 322.345C663.517 322.821 663.247 323.257 662.898 323.625C662.549 323.993 662.129 324.287 661.664 324.487C661.198 324.688 660.696 324.791 660.189 324.791C659.682 324.791 659.18 324.688 658.714 324.487C658.248 324.287 657.828 323.993 657.479 323.625C657.131 323.257 656.861 322.821 656.686 322.345C656.511 321.869 656.436 321.362 656.463 320.856C656.465 320.592 656.495 320.329 656.553 320.072H663.824ZM667.275 320.856C667.275 320.598 667.275 320.329 667.275 320.072H697.413V327.612H662.312C663.755 327.157 665.015 326.254 665.908 325.032C666.801 323.81 667.28 322.335 667.275 320.822V320.856ZM665.919 316.71C665.266 315.801 664.405 315.061 663.409 314.55C662.412 314.039 661.308 313.773 660.189 313.773C659.069 313.773 657.965 314.039 656.969 314.55C655.972 315.061 655.112 315.801 654.458 316.71H598.092C597.438 315.801 596.578 315.061 595.581 314.55C594.585 314.039 593.481 313.773 592.361 313.773C591.242 313.773 590.138 314.039 589.142 314.55C588.145 315.061 587.284 315.801 586.631 316.71H555.182V303.613H697.368V316.733L665.919 316.71ZM433.633 320.072C433.691 320.329 433.721 320.592 433.723 320.856C433.723 321.842 433.331 322.788 432.633 323.486C431.936 324.183 430.989 324.575 430.003 324.575C429.016 324.575 428.07 324.183 427.373 323.486C426.675 322.788 426.283 321.842 426.283 320.856C426.281 320.592 426.307 320.329 426.362 320.072H433.633ZM427.919 327.578H392.661V320.038H422.967C422.95 320.299 422.95 320.561 422.967 320.822C422.966 322.329 423.446 323.796 424.337 325.011C425.227 326.226 426.482 327.125 427.919 327.578ZM437.128 320.856C437.145 320.595 437.145 320.333 437.128 320.072H490.906C490.906 320.329 490.906 320.598 490.906 320.856C490.912 322.358 491.396 323.82 492.288 325.029C493.181 326.237 494.435 327.13 495.87 327.578H432.132C433.568 327.125 434.823 326.226 435.714 325.011C436.604 323.796 437.084 322.329 437.084 320.822L437.128 320.856ZM501.505 320.072C501.563 320.329 501.593 320.592 501.595 320.856C501.622 321.362 501.547 321.869 501.372 322.345C501.197 322.821 500.927 323.257 500.579 323.625C500.23 323.993 499.81 324.287 499.344 324.487C498.878 324.688 498.377 324.791 497.869 324.791C497.362 324.791 496.86 324.688 496.395 324.487C495.929 324.287 495.509 323.993 495.16 323.625C494.811 323.257 494.541 322.821 494.367 322.345C494.192 321.869 494.116 321.362 494.144 320.856C494.146 320.592 494.176 320.329 494.234 320.072H501.505ZM504.956 320.856C504.956 320.598 504.956 320.329 504.956 320.072H534.948V327.612H499.948C501.391 327.157 502.651 326.254 503.544 325.032C504.437 323.81 504.916 322.335 504.911 320.822L504.956 320.856ZM503.6 316.71C502.946 315.801 502.086 315.061 501.089 314.55C500.093 314.039 498.989 313.773 497.869 313.773C496.75 313.773 495.646 314.039 494.649 314.55C493.653 315.061 492.792 315.801 492.139 316.71H435.762C435.108 315.801 434.247 315.061 433.251 314.55C432.254 314.039 431.151 313.773 430.031 313.773C428.911 313.773 427.807 314.039 426.811 314.55C425.815 315.061 424.954 315.801 424.3 316.71H392.661V303.613H534.858V316.733L503.6 316.71ZM536.595 300.252H390.947C390.501 300.252 390.074 300.429 389.758 300.744C389.443 301.06 389.266 301.487 389.266 301.933V316.733H384.225V192.764H543.317V316.677H538.197V301.877C538.183 301.454 538.011 301.052 537.714 300.751C537.417 300.45 537.017 300.272 536.595 300.252ZM384.225 327.578V320.038H389.345V327.578H384.225ZM534.903 338.098H392.661V330.939H534.858L534.903 338.098ZM538.264 320.038H543.317V327.578H538.197L538.264 320.038ZM546.746 327.578V320.038H551.866V327.578H546.746ZM697.413 338.098H555.182V330.939H697.368L697.413 338.098ZM700.774 327.578V320.038H705.894V327.578H700.774Z" fill="#07005A"/>
<path opacity="0.3" d="M390.946 244.929H536.594C537.04 244.929 537.468 244.752 537.783 244.437C538.098 244.122 538.275 243.694 538.275 243.249V205.347C538.275 204.901 538.098 204.473 537.783 204.158C537.468 203.843 537.04 203.666 536.594 203.666H390.946C390.5 203.666 390.073 203.843 389.758 204.158C389.443 204.473 389.266 204.901 389.266 205.347V243.249C389.269 243.694 389.447 244.119 389.761 244.434C390.076 244.748 390.501 244.926 390.946 244.929ZM392.627 207.027H534.858V241.568H392.66L392.627 207.027Z" fill="#07005A"/>
<path opacity="0.3" d="M538.219 253.612C538.219 253.166 538.042 252.739 537.727 252.424C537.412 252.109 536.984 251.932 536.538 251.932H390.946C390.5 251.932 390.073 252.109 389.758 252.424C389.443 252.739 389.266 253.166 389.266 253.612V291.514C389.269 291.959 389.447 292.385 389.761 292.699C390.076 293.014 390.501 293.192 390.946 293.195H536.594C537.04 293.195 537.468 293.018 537.783 292.703C538.098 292.388 538.275 291.96 538.275 291.514L538.219 253.612ZM534.858 289.834H392.66V255.293H534.858V289.834Z" fill="#07005A"/>
<path opacity="0.3" d="M553.501 244.929H699.048C699.494 244.929 699.921 244.752 700.237 244.437C700.552 244.122 700.729 243.694 700.729 243.249V205.347C700.729 204.901 700.552 204.473 700.237 204.158C699.921 203.843 699.494 203.666 699.048 203.666H553.501C553.055 203.666 552.628 203.843 552.313 204.158C551.997 204.473 551.82 204.901 551.82 205.347V243.249C551.82 243.694 551.997 244.122 552.313 244.437C552.628 244.752 553.055 244.929 553.501 244.929ZM555.181 207.027H697.368V241.568H555.181V207.027Z" fill="#07005A"/>
<path opacity="0.3" d="M553.501 293.195H699.048C699.494 293.195 699.921 293.018 700.237 292.703C700.552 292.388 700.729 291.96 700.729 291.514V253.612C700.729 253.166 700.552 252.739 700.237 252.424C699.921 252.109 699.494 251.932 699.048 251.932H553.501C553.055 251.932 552.628 252.109 552.313 252.424C551.997 252.739 551.82 253.166 551.82 253.612V291.514C551.82 291.96 551.997 292.388 552.313 292.703C552.628 293.018 553.055 293.195 553.501 293.195ZM555.181 255.293H697.368V289.834H555.181V255.293Z" fill="#07005A"/>
<path opacity="0.3" d="M497.819 217.211C496.416 217.211 495.045 217.627 493.878 218.406C492.712 219.185 491.803 220.293 491.266 221.589C490.73 222.885 490.589 224.311 490.863 225.686C491.136 227.062 491.812 228.326 492.804 229.318C493.796 230.309 495.059 230.985 496.435 231.259C497.811 231.532 499.237 231.392 500.532 230.855C501.828 230.318 502.936 229.409 503.715 228.243C504.495 227.077 504.91 225.706 504.91 224.303C504.907 222.423 504.159 220.621 502.83 219.291C501.501 217.962 499.699 217.214 497.819 217.211ZM497.819 228.023C497.08 228.023 496.358 227.803 495.745 227.393C495.131 226.983 494.653 226.399 494.371 225.717C494.089 225.034 494.015 224.284 494.16 223.56C494.305 222.836 494.661 222.171 495.184 221.65C495.707 221.128 496.373 220.774 497.098 220.631C497.822 220.488 498.573 220.564 499.254 220.848C499.936 221.132 500.517 221.612 500.926 222.227C501.335 222.842 501.552 223.565 501.549 224.303C501.549 224.792 501.453 225.277 501.265 225.729C501.078 226.181 500.802 226.591 500.456 226.937C500.109 227.283 499.698 227.556 499.245 227.743C498.793 227.929 498.308 228.024 497.819 228.023Z" fill="#07005A"/>
<path opacity="0.3" d="M497.819 279.649C499.222 279.651 500.594 279.237 501.762 278.459C502.93 277.681 503.841 276.574 504.379 275.279C504.918 273.983 505.06 272.557 504.787 271.18C504.515 269.804 503.84 268.539 502.849 267.546C501.858 266.553 500.594 265.876 499.218 265.602C497.842 265.327 496.415 265.467 495.119 266.004C493.822 266.54 492.714 267.449 491.934 268.616C491.154 269.782 490.738 271.154 490.738 272.557C490.741 274.435 491.488 276.235 492.815 277.564C494.142 278.893 495.941 279.643 497.819 279.649ZM497.819 268.837C498.558 268.835 499.281 269.052 499.896 269.461C500.511 269.87 500.991 270.453 501.275 271.135C501.559 271.817 501.633 272.568 501.49 273.293C501.346 274.018 500.991 274.684 500.468 275.206C499.946 275.729 499.28 276.084 498.555 276.228C497.831 276.371 497.079 276.296 496.397 276.013C495.715 275.729 495.133 275.249 494.723 274.634C494.314 274.018 494.097 273.296 494.099 272.557C494.114 271.579 494.512 270.646 495.208 269.959C495.903 269.271 496.841 268.885 497.819 268.882V268.837Z" fill="#07005A"/>
<path opacity="0.3" d="M660.186 217.211C658.783 217.211 657.412 217.627 656.246 218.406C655.079 219.185 654.17 220.293 653.634 221.589C653.097 222.885 652.956 224.311 653.23 225.686C653.504 227.062 654.179 228.326 655.171 229.318C656.163 230.309 657.426 230.985 658.802 231.259C660.178 231.532 661.604 231.392 662.9 230.855C664.196 230.318 665.303 229.409 666.082 228.243C666.862 227.077 667.278 225.706 667.278 224.303C667.275 222.423 666.527 220.621 665.197 219.291C663.868 217.962 662.066 217.214 660.186 217.211ZM660.186 228.023C659.447 228.023 658.726 227.803 658.112 227.393C657.498 226.983 657.02 226.399 656.738 225.717C656.456 225.034 656.383 224.284 656.527 223.56C656.672 222.836 657.029 222.171 657.552 221.65C658.075 221.128 658.74 220.774 659.465 220.631C660.189 220.488 660.94 220.564 661.621 220.848C662.303 221.132 662.885 221.612 663.293 222.227C663.702 222.842 663.919 223.565 663.917 224.303C663.917 224.792 663.82 225.277 663.632 225.729C663.445 226.181 663.17 226.591 662.823 226.937C662.477 227.283 662.065 227.556 661.613 227.743C661.16 227.929 660.675 228.024 660.186 228.023Z" fill="#07005A"/>
<path opacity="0.3" d="M592.369 217.211C590.966 217.209 589.593 217.623 588.426 218.401C587.258 219.179 586.347 220.285 585.809 221.581C585.27 222.877 585.128 224.303 585.401 225.68C585.673 227.056 586.347 228.321 587.339 229.314C588.33 230.307 589.594 230.983 590.97 231.258C592.346 231.532 593.772 231.393 595.069 230.856C596.365 230.32 597.474 229.411 598.254 228.244C599.033 227.078 599.449 225.706 599.449 224.303C599.449 222.424 598.704 220.622 597.376 219.292C596.049 217.962 594.248 217.214 592.369 217.211ZM592.369 228.023C591.63 228.025 590.907 227.808 590.292 227.398C589.677 226.989 589.197 226.407 588.913 225.725C588.629 225.042 588.554 224.291 588.698 223.567C588.842 222.842 589.197 222.176 589.719 221.654C590.242 221.131 590.908 220.776 591.632 220.632C592.357 220.488 593.108 220.563 593.79 220.847C594.473 221.131 595.055 221.611 595.464 222.226C595.873 222.841 596.091 223.564 596.088 224.303C596.088 225.289 595.697 226.235 594.999 226.933C594.301 227.631 593.355 228.023 592.369 228.023Z" fill="#07005A"/>
<path opacity="0.3" d="M660.186 265.52C658.783 265.52 657.411 265.936 656.244 266.716C655.078 267.495 654.169 268.604 653.633 269.9C653.096 271.197 652.956 272.623 653.231 273.999C653.505 275.375 654.182 276.639 655.175 277.63C656.168 278.622 657.433 279.296 658.809 279.569C660.185 279.841 661.612 279.699 662.907 279.16C664.203 278.622 665.31 277.711 666.088 276.543C666.866 275.376 667.28 274.003 667.278 272.6C667.275 270.721 666.526 268.92 665.197 267.593C663.867 266.265 662.065 265.52 660.186 265.52ZM660.186 276.331C659.448 276.331 658.727 276.112 658.113 275.702C657.499 275.292 657.021 274.71 656.739 274.028C656.456 273.346 656.383 272.596 656.527 271.872C656.671 271.149 657.026 270.484 657.548 269.962C658.069 269.44 658.734 269.085 659.458 268.941C660.182 268.797 660.932 268.871 661.613 269.153C662.295 269.436 662.878 269.914 663.288 270.528C663.698 271.141 663.917 271.862 663.917 272.6C663.905 273.582 663.506 274.519 662.808 275.209C662.11 275.899 661.167 276.286 660.186 276.286V276.331Z" fill="#07005A"/>
<path opacity="0.3" d="M592.369 265.52C590.965 265.517 589.592 265.932 588.424 266.71C587.256 267.488 586.346 268.596 585.808 269.892C585.269 271.189 585.128 272.616 585.401 273.992C585.675 275.369 586.35 276.634 587.343 277.626C588.335 278.619 589.6 279.294 590.977 279.568C592.353 279.841 593.78 279.7 595.077 279.161C596.373 278.623 597.481 277.713 598.259 276.545C599.037 275.377 599.452 274.004 599.449 272.6C599.447 270.723 598.7 268.924 597.372 267.597C596.045 266.269 594.246 265.523 592.369 265.52ZM592.369 276.331C591.63 276.333 590.908 276.116 590.293 275.708C589.678 275.299 589.198 274.717 588.914 274.036C588.63 273.354 588.554 272.604 588.697 271.879C588.84 271.155 589.194 270.489 589.716 269.966C590.237 269.443 590.902 269.087 591.626 268.942C592.35 268.797 593.1 268.87 593.783 269.152C594.465 269.434 595.048 269.913 595.459 270.526C595.869 271.14 596.088 271.862 596.088 272.6C596.077 273.58 595.68 274.516 594.984 275.206C594.288 275.895 593.349 276.283 592.369 276.286V276.331Z" fill="#07005A"/>
</g>
<path d="M80.4825 216.844C72.5055 202.828 59.3523 204.52 58.8594 222.525" stroke="#07005A" stroke-width="3" stroke-linecap="round" stroke-linejoin="round"/>
<path fill-rule="evenodd" clip-rule="evenodd" d="M66.5987 187.502C65.9453 188.016 65.1602 188.335 64.3337 188.422C63.5072 188.509 62.6729 188.361 61.9267 187.995C35.0378 173.206 12.3503 145.589 12.003 115.821C11.6109 85.2013 49.6475 78.7703 63.3496 126.229C73.6682 161.958 71.1922 178.024 69.3436 183.771C68.8118 185.256 67.8577 186.553 66.5987 187.502Z" fill="#476FF5"/>
<path d="M22.2891 96.6523C37.0107 102.646 52.7631 126.432 65.1544 188.456" stroke="#07005A" stroke-width="1.5" stroke-linecap="round" stroke-linejoin="round"/>
<path d="M61.6566 125.748C62.5641 134.644 63.8974 154.06 58.9453 161.454" stroke="#07005A" stroke-width="1.5" stroke-linecap="round" stroke-linejoin="round"/>
<path d="M54.4981 147.741C43.3617 136.537 24.629 124.65 15.2852 122.129" stroke="#07005A" stroke-width="1.5" stroke-linecap="round" stroke-linejoin="round"/>
<path d="M24.2422 153.947C35.4924 162.298 48.1743 168.521 61.6626 172.31" stroke="#07005A" stroke-width="1.5" stroke-linecap="round" stroke-linejoin="round"/>
<path fill-rule="evenodd" clip-rule="evenodd" d="M89.6224 191.3C89.1838 190.408 89.0126 189.408 89.1295 188.421C89.6896 184.656 92.8379 174.92 108.702 157.712C129.799 134.856 149.394 149.197 140.543 166.316C131.972 182.976 111.414 192.085 92.1097 192.891C91.5886 192.881 91.0805 192.728 90.6415 192.447C90.2025 192.166 89.8498 191.769 89.6224 191.3Z" fill="#476FF5"/>
<path d="M140.163 152.625C130.18 151.852 114.607 160.815 90.1719 192.242" stroke="#07005A" stroke-width="1.5" stroke-linecap="round" stroke-linejoin="round"/>
<path d="M109.802 157.924C106.777 162.674 100.559 173.228 101.276 178.785" stroke="#07005A" stroke-width="1.5" stroke-linecap="round" stroke-linejoin="round"/>
<path d="M107.637 172.312C117.059 169.152 130.952 167.729 136.912 168.951" stroke="#07005A" stroke-width="1.5" stroke-linecap="round" stroke-linejoin="round"/>
<path d="M122.919 184.333C114.238 185.871 105.348 185.803 96.6914 184.131" stroke="#07005A" stroke-width="1.5" stroke-linecap="round" stroke-linejoin="round"/>
<path d="M106.68 120.48C96.137 127.203 68.587 169.777 83.3647 230.971" stroke="#07005A" stroke-width="3" stroke-linecap="round" stroke-linejoin="round"/>
<path fill-rule="evenodd" clip-rule="evenodd" d="M113.938 115.519C116.683 110.713 117.03 105.738 114.688 104.394C112.347 103.049 108.246 105.873 105.49 110.679C102.734 115.485 102.398 120.46 104.728 121.793C107.059 123.126 111.159 120.314 113.938 115.519Z" fill="#476FF5"/>
<path fill-rule="evenodd" clip-rule="evenodd" d="M114.115 126.431C119.594 126.319 123.997 124.034 123.941 121.323C123.885 118.611 119.392 116.494 113.857 116.606C108.323 116.718 103.987 119.003 104.032 121.715C104.076 124.426 108.636 126.544 114.115 126.431Z" fill="#476FF5"/>
<path fill-rule="evenodd" clip-rule="evenodd" d="M104.042 121.905C105.98 120.471 105.162 116.09 102.215 112.124C99.2687 108.158 95.3138 106.108 93.3756 107.553C91.4373 108.998 92.2552 113.379 95.2018 117.334C98.1484 121.289 102.103 123.35 104.042 121.905Z" fill="#476FF5"/>
<path fill-rule="evenodd" clip-rule="evenodd" d="M107.619 129.713C109.625 125.231 109.49 120.75 107.317 119.786C105.143 118.823 101.715 121.68 99.7204 126.195C97.7262 130.71 97.8494 135.158 100.023 136.121C102.196 137.085 105.558 134.228 107.619 129.713Z" fill="#476FF5"/>
<path fill-rule="evenodd" clip-rule="evenodd" d="M100.657 125.657C105.049 125.175 108.432 123.024 108.186 120.84C107.939 118.655 104.197 117.266 99.8056 117.736C95.4137 118.207 92.0302 120.369 92.2655 122.554C92.5007 124.738 96.254 126.128 100.657 125.657Z" fill="#476FF5"/>
<path d="M106.096 122.184C107.525 122.184 108.684 121.025 108.684 119.596C108.684 118.167 107.525 117.008 106.096 117.008C104.667 117.008 103.508 118.167 103.508 119.596C103.508 121.025 104.667 122.184 106.096 122.184Z" fill="white"/>
<path fill-rule="evenodd" clip-rule="evenodd" d="M122.766 229.416H122.867C125.791 229.55 128.043 233.102 127.259 236.799L110.039 314.699C109.824 315.68 109.281 316.558 108.498 317.188C107.716 317.818 106.741 318.161 105.737 318.161H57.4712C56.4687 318.158 55.497 317.814 54.7168 317.184C53.9366 316.555 53.3945 315.678 53.1802 314.699L36.0161 236.967C35.1647 233.102 37.5174 229.416 40.4976 229.416H122.766Z" fill="#FF8585" stroke="#FF8585" stroke-width="3" stroke-miterlimit="10"/>
<path d="M246.711 106.488C257.082 106.488 265.488 98.0815 265.488 87.711C265.488 77.3405 257.082 68.9336 246.711 68.9336C236.341 68.9336 227.934 77.3405 227.934 87.711C227.934 98.0815 236.341 106.488 246.711 106.488Z" fill="white"/>
<path fill-rule="evenodd" clip-rule="evenodd" d="M323.153 103.732C329.449 104.998 342.546 107.351 342.546 88.5173C342.546 69.6839 326.76 71.9134 321.125 74.0645L323.153 75.3641V103.732Z" fill="white" stroke="#07005A" stroke-width="3" stroke-linecap="round" stroke-linejoin="round"/>
<path fill-rule="evenodd" clip-rule="evenodd" d="M370.568 164.345H239.832C285.935 148.2 334.492 142.901 370.568 164.345Z" fill="#FFCE85"/>
<path fill-rule="evenodd" clip-rule="evenodd" d="M401.883 191.76H191.5C200.775 184.512 210.626 178.034 220.955 172.389H382.142C389.308 178.221 395.917 184.706 401.883 191.76Z" fill="#FFCE85"/>
<path fill-rule="evenodd" clip-rule="evenodd" d="M457.9 219.242H159.332C166.402 212.665 173.83 206.077 181.381 199.859H408.435C409.668 201.45 410.878 203.067 412.065 204.711C414.296 204.447 416.541 204.312 418.788 204.307C433.208 204.361 447.114 209.67 457.9 219.242Z" fill="#FFCE85"/>
<path fill-rule="evenodd" clip-rule="evenodd" d="M476.822 246.647H128.207C129.406 246.501 130.627 246.378 131.848 246.288C137.562 240.351 143.948 233.886 150.794 227.242H465.685C470.418 233.069 474.178 239.621 476.822 246.647Z" fill="#FFCE85"/>
<path fill-rule="evenodd" clip-rule="evenodd" d="M73.2227 309.602H471.391C469.697 312.518 467.826 315.328 465.789 318.016H76.8975C75.4418 315.317 74.2126 312.503 73.2227 309.602Z" fill="#FFCE85"/>
<path fill-rule="evenodd" clip-rule="evenodd" d="M481.016 282.162C480.018 288.84 478.134 295.354 475.414 301.533H71.3635C71.3635 301.108 71.2739 300.682 71.2515 300.256C70.9016 294.06 71.9906 287.867 74.4333 282.162H481.016Z" fill="#FFCE85"/>
<path fill-rule="evenodd" clip-rule="evenodd" d="M481.65 273.165C481.65 273.479 481.65 273.782 481.65 274.095H78.832C84.6257 265.86 92.3809 259.198 101.396 254.713H479.365C480.89 260.745 481.657 266.944 481.65 273.165Z" fill="#FFCE85"/>
<path fill-rule="evenodd" clip-rule="evenodd" d="M382.141 172.389H220.953C225.207 170.09 229.613 168.084 234.14 166.384C236.045 165.678 237.96 164.983 239.876 164.322H370.567L371.822 165.073C375.406 167.302 378.852 169.745 382.141 172.389Z" fill="#FFCE85"/>
<path fill-rule="evenodd" clip-rule="evenodd" d="M408.436 199.826H181.359C184.72 197.059 188.082 194.359 191.499 191.76H401.882C404.134 194.359 406.307 197.048 408.436 199.826Z" fill="#FFCE85"/>
<path fill-rule="evenodd" clip-rule="evenodd" d="M465.684 227.276H150.793C153.56 224.609 156.395 221.909 159.308 219.209H457.898C460.719 221.67 463.324 224.369 465.684 227.276Z" fill="#FFCE85"/>
<path fill-rule="evenodd" clip-rule="evenodd" d="M479.367 254.715H101.398C109.784 250.451 118.863 247.72 128.209 246.648H476.824C477.831 249.284 478.68 251.978 479.367 254.715Z" fill="#FFCE85"/>
<path fill-rule="evenodd" clip-rule="evenodd" d="M481.64 274.141C481.6 276.84 481.39 279.534 481.012 282.207H74.4297C75.62 279.376 77.0953 276.673 78.8327 274.141H481.64Z" fill="#FFCE85"/>
<path fill-rule="evenodd" clip-rule="evenodd" d="M475.447 301.533C474.238 304.291 472.884 306.984 471.392 309.6H73.2231C72.3136 306.986 71.69 304.281 71.3633 301.533H475.447Z" fill="#FFCE85"/>
<path opacity="0.5" fill-rule="evenodd" clip-rule="evenodd" d="M382.141 172.389H220.953C225.207 170.09 229.613 168.084 234.14 166.384C236.045 165.678 237.96 164.983 239.876 164.322H370.567L371.822 165.073C375.406 167.302 378.852 169.745 382.141 172.389Z" fill="#FFEED4"/>
<path opacity="0.5" fill-rule="evenodd" clip-rule="evenodd" d="M408.436 199.826H181.359C184.72 197.059 188.082 194.359 191.499 191.76H401.882C404.134 194.359 406.307 197.048 408.436 199.826Z" fill="#FFEED4"/>
<path opacity="0.5" fill-rule="evenodd" clip-rule="evenodd" d="M465.684 227.276H150.793C153.56 224.609 156.395 221.909 159.308 219.209H457.898C460.719 221.67 463.324 224.369 465.684 227.276Z" fill="#FFEED4"/>
<path opacity="0.5" fill-rule="evenodd" clip-rule="evenodd" d="M479.367 254.715H101.398C109.784 250.451 118.863 247.72 128.209 246.648H476.824C477.831 249.284 478.68 251.978 479.367 254.715Z" fill="#FFEED4"/>
<path opacity="0.5" fill-rule="evenodd" clip-rule="evenodd" d="M481.64 274.141C481.6 276.84 481.39 279.534 481.012 282.207H74.4297C75.62 279.376 77.0953 276.673 78.8327 274.141H481.64Z" fill="#FFEED4"/>
<path opacity="0.5" fill-rule="evenodd" clip-rule="evenodd" d="M475.447 301.533C474.238 304.291 472.884 306.984 471.392 309.6H73.2231C72.3136 306.986 71.69 304.281 71.3633 301.533H475.447Z" fill="#FFEED4"/>
<path fill-rule="evenodd" clip-rule="evenodd" d="M461.487 318.026C462.856 318.034 464.206 317.705 465.417 317.068C466.628 316.431 467.664 315.506 468.433 314.373C476.119 302.89 481.654 288.168 481.654 273.177C481.654 235.085 453.521 204.275 418.801 204.275C416.555 204.285 414.31 204.42 412.079 204.678C400.068 188.096 386.31 174.025 371.835 165.084C334.146 141.87 282.396 148.503 234.108 166.384C200.9 178.652 158.841 218.246 131.863 246.289C96.6832 248.955 69.7047 272.875 71.2508 300.257C71.6275 304.604 72.7097 308.861 74.455 312.861C75.0984 314.394 76.1811 315.703 77.5667 316.622C78.9523 317.541 80.5789 318.029 82.2416 318.026H461.487Z" stroke="#07005A" stroke-width="3" stroke-linecap="round" stroke-linejoin="round"/>
<path fill-rule="evenodd" clip-rule="evenodd" d="M511.129 100.774C512.944 96.0568 514.815 90.9591 515.824 87.542C518.434 78.8479 509.292 77.5931 504.867 90.0964L504.945 91.2728L504.43 91.4072C507.018 83.3966 508.754 75.2403 505.729 73.8734C500.755 71.6327 496.822 80.1699 491.164 97.2444L490.694 97.4797C493.36 88.3822 496.822 77.5707 494.201 75.6772C490.526 73.0332 484.274 78.9039 476.611 104.93C476.134 105.223 475.716 105.603 475.378 106.05C473.541 103.059 470.785 97.2892 463.603 96.3929C454.304 95.1829 459.234 103.171 464.253 110.857C467.435 115.674 467.861 125.343 469.597 130.542C469.749 131.629 470.131 132.672 470.718 133.6C468.477 138.508 455.604 166.382 433.152 211.208C408.324 260.706 411.697 286.273 429.88 292.671C448.064 299.068 467.569 288.301 477.866 231.913C485.002 192.924 497.562 146.037 497.562 146.037C497.562 146.037 499.802 143.224 506.099 136.894C512.395 130.564 514.849 116.593 518.21 105.838C521.571 95.0821 515.107 94.4995 511.129 100.774Z" fill="white"/>
<path fill-rule="evenodd" clip-rule="evenodd" d="M269.748 298.149L271.754 292.178H274.913L301.802 298.721L313.51 302.037L315.65 303.874V305.533L312.905 306.619L310.631 308.255L310.81 310.261H307.706L306.059 313.017L302.273 313.666L300.581 315.706L300.2 317.028L265.95 317.487L265.547 315.213L269.748 298.149Z" fill="white"/>
<path d="M370.66 214.827C377.752 204.878 386.491 199.298 396.698 198.189C400.393 197.809 404.127 198.048 407.744 198.895" stroke="#07005A" stroke-width="3" stroke-linecap="round" stroke-linejoin="round"/>
<path d="M372.777 248.686C373.363 240.157 376.129 231.92 380.81 224.766C387.947 213.764 398.501 207.031 412.069 204.6" stroke="#07005A" stroke-width="3" stroke-linecap="round" stroke-linejoin="round"/>
<path d="M136.824 241.157C142.426 238.087 174.155 234.267 187.241 249.201" stroke="#07005A" stroke-width="3" stroke-linecap="round" stroke-linejoin="round"/>
<path fill-rule="evenodd" clip-rule="evenodd" d="M130.844 246.388H130.945C130.945 246.332 130.844 246.388 130.844 246.388Z" fill="white"/>
<path d="M131.848 246.289C137.225 245.829 162.893 244.63 182.343 259.296" stroke="#07005A" stroke-width="3" stroke-linecap="round" stroke-linejoin="round"/>
<path fill-rule="evenodd" clip-rule="evenodd" d="M271.09 140.435L272.49 166.584C272.49 166.584 273.431 184.891 295.805 182.213C322.336 178.695 319.064 162.965 319.064 162.965L312.689 128.604" fill="white"/>
<path d="M271.09 140.435L272.49 166.584C272.49 166.584 273.431 184.891 295.805 182.213C322.336 178.695 319.064 162.965 319.064 162.965L312.689 128.604" stroke="#07005A" stroke-width="3" stroke-miterlimit="10"/>
<path d="M474.821 135.485C470.832 133.02 469.219 133.109 467.135 117.648C466.216 110.926 459.292 103.957 458.698 100.484C458.105 97.011 458.508 94.3558 465.712 96.2492C472.916 98.1426 475.963 106.489 475.963 106.489C480.198 93.3362 485.531 76.0713 491.256 75.3207C497.833 74.4468 496.489 80.2727 488.433 104.988" stroke="#07005A" stroke-width="3" stroke-linecap="round" stroke-linejoin="round"/>
<path d="M490.023 100.047C492.343 92.3048 499.087 70.2447 505.709 73.8747C512.33 77.5047 497.866 108.113 497.866 108.113" stroke="#07005A" stroke-width="3" stroke-linecap="round" stroke-linejoin="round"/>
<path d="M506.121 112.808C512.362 97.4254 519.498 83.9025 514.894 81.2248C510.289 78.5471 506.984 85.2246 504.25 92.4285" stroke="#07005A" stroke-width="3" stroke-linecap="round" stroke-linejoin="round"/>
<path d="M510.814 101.604C513.212 97.2682 519.094 94.4225 519.083 100.73C519.083 108.752 510.12 131.227 510.12 131.227C508.506 133.781 500.35 142.856 498.098 145.355C497.712 145.774 497.435 146.282 497.291 146.833C495.824 152.29 487.611 183.212 482.951 206.381C477.819 231.87 470.627 291.361 440.892 294.297C411.157 297.232 409.443 259.565 424.546 228.878C439.648 198.191 470.671 133.557 470.671 133.557" stroke="#07005A" stroke-width="3" stroke-linecap="round" stroke-linejoin="round"/>
<path fill-rule="evenodd" clip-rule="evenodd" d="M267.684 318.025L106.508 317.633C106.508 317.633 118.742 259.307 170.627 269.659C216.999 278.499 272.984 291.943 272.984 291.943" fill="white"/>
<path d="M267.684 318.025L106.508 317.633C106.508 317.633 118.742 259.307 170.627 269.659C216.999 278.499 272.984 291.943 272.984 291.943" stroke="#07005A" stroke-width="3" stroke-linecap="round" stroke-linejoin="round"/>
<path d="M287.336 295.316C297.823 297.378 312.309 301.59 313.497 302.039C314.684 302.487 318.583 304.739 314.314 306.184C310.046 307.629 309.217 306.968 309.217 306.968" stroke="#07005A" stroke-width="3" stroke-linecap="round" stroke-linejoin="round"/>
<path d="M304.556 309.386C314.639 312.983 311.558 308.266 303.357 302.149C295.156 296.031 278.855 293.298 271.527 291.617" stroke="#07005A" stroke-width="3" stroke-linecap="round" stroke-linejoin="round"/>
<path d="M291.535 301.691C301.114 306.576 314.962 314.318 300.252 313.623" stroke="#07005A" stroke-width="3" stroke-linecap="round" stroke-linejoin="round"/>
<path d="M288.344 307.338C292.21 309.175 297.923 312.189 299.548 313.108C301.172 314.026 303.223 317.925 296.377 317.488C289.532 317.052 263.203 318.015 263.203 318.015" stroke="#07005A" stroke-width="3" stroke-linecap="round" stroke-linejoin="round"/>
<path d="M269.59 291.136C319.536 296.144 348.094 276.515 350.469 265.367" stroke="#07005A" stroke-width="3" stroke-linecap="round" stroke-linejoin="round"/>
<path fill-rule="evenodd" clip-rule="evenodd" d="M268.012 40.3525C258.915 40.3525 242.244 48.3519 242.244 63.8803V101.491C242.244 101.491 241.437 136.716 276.471 141.444C314.564 146.586 322.978 112.728 322.978 96.3598C322.978 81.2796 324.692 55.3766 318.81 47.8702C312.928 40.3637 305.791 40.1172 300.996 40.1172C296.201 40.1172 268.012 40.3525 268.012 40.3525Z" fill="white" stroke="#07005A" stroke-width="3" stroke-miterlimit="10"/>
<path fill-rule="evenodd" clip-rule="evenodd" d="M294.291 90.7027C295.68 90.7027 296.801 88.9661 296.801 86.8262C296.801 84.6863 295.68 82.9609 294.291 82.9609C292.902 82.9609 291.781 84.6863 291.781 86.8262C291.781 88.9661 292.902 90.7027 294.291 90.7027Z" fill="#07005A"/>
<path fill-rule="evenodd" clip-rule="evenodd" d="M257.767 91.6558C259.145 91.6558 260.277 89.9192 260.277 87.7905C260.277 85.6618 259.156 83.9141 257.767 83.9141C256.378 83.9141 255.246 85.6506 255.246 87.7905C255.246 89.9304 256.378 91.6558 257.767 91.6558Z" fill="#07005A"/>
<path fill-rule="evenodd" clip-rule="evenodd" d="M328.51 71.8234C330.637 64.4868 331.768 56.8973 331.871 49.2592C331.647 38.8397 325.149 29.4398 315.839 26.9526C308.097 24.8687 303.649 28.9468 303.649 28.9468C303.649 28.9468 307.682 13.3737 293.846 3.68248C291.537 2.01966 288.893 0.881351 286.099 0.347223C283.304 -0.186905 280.427 -0.103964 277.668 0.590244C264.425 4.17543 263.248 17.7319 263.248 17.7319C263.248 17.7319 242.051 -8.26068 216.787 15.9617C214.221 18.4041 212.036 24.0508 211.185 27.7592C206.165 49.965 243.675 66.0871 260.728 64.048C279.471 61.8073 289.398 55.9366 294.07 49.6289C290.417 53.539 302.484 82.8927 328.51 71.8234Z" fill="#07005A"/>
<path d="M313.27 78.4686L324.238 72.2617" stroke="#07005A" stroke-width="3" stroke-miterlimit="10"/>
<path d="M269.984 77.1562C270.231 102.353 270.578 106.488 270.578 106.488C270.578 112.851 272.819 111.955 276.819 106.488" stroke="#07005A" stroke-width="3" stroke-linecap="round" stroke-linejoin="round"/>
<path d="M265.465 86.8262H278.147" stroke="#07005A" stroke-width="3" stroke-linecap="round" stroke-linejoin="round"/>
<path d="M288.245 117.77C288.032 121.131 283.819 125.679 274.453 122.71" stroke="#07005A" stroke-width="3" stroke-linecap="round" stroke-linejoin="round"/>
<path d="M282.508 67.1636C285.354 64.5532 287.639 61.1585 294.294 65.7184" stroke="#07005A" stroke-width="3" stroke-linecap="round" stroke-linejoin="round"/>
<path d="M250.34 65.3585C253.186 62.7369 256.401 58.95 263.975 64.5295" stroke="#07005A" stroke-width="3" stroke-linecap="round" stroke-linejoin="round"/>
<path opacity="0.1" fill-rule="evenodd" clip-rule="evenodd" d="M310.111 74.0547L279.133 93.7508L284.757 102.602L316.374 82.5023L310.111 74.0547Z" fill="#476FF5"/>
<path opacity="0.1" fill-rule="evenodd" clip-rule="evenodd" d="M307.648 70.8828L277.465 90.0748L278.518 91.7329L308.309 72.7874L307.648 70.8828Z" fill="#476FF5"/>
<path d="M296.914 106.488C307.285 106.488 315.692 98.0815 315.692 87.711C315.692 77.3405 307.285 68.9336 296.914 68.9336C286.544 68.9336 278.137 77.3405 278.137 87.711C278.137 98.0815 286.544 106.488 296.914 106.488Z" stroke="#07005A" stroke-width="3" stroke-miterlimit="10"/>
<path opacity="0.1" fill-rule="evenodd" clip-rule="evenodd" d="M259.392 74.0547L228.414 93.7508L234.05 102.602L265.655 82.5023L259.392 74.0547Z" fill="#476FF5"/>
<path opacity="0.1" fill-rule="evenodd" clip-rule="evenodd" d="M256.929 70.8828L226.746 90.0748L227.799 91.7329L257.59 72.7874L256.929 70.8828Z" fill="#476FF5"/>
<path d="M246.711 106.488C257.082 106.488 265.488 98.0815 265.488 87.711C265.488 77.3405 257.082 68.9336 246.711 68.9336C236.341 68.9336 227.934 77.3405 227.934 87.711C227.934 98.0815 236.341 106.488 246.711 106.488Z" stroke="#07005A" stroke-width="3" stroke-miterlimit="10"/>
<path fill-rule="evenodd" clip-rule="evenodd" d="M65.4348 224.766C69.2553 222.693 71.5296 219.522 70.5325 217.674C69.5354 215.825 65.6253 215.993 61.8048 218.055C57.9843 220.116 55.71 223.298 56.7071 225.147C57.7042 226.995 61.6143 226.827 65.4348 224.766Z" fill="#476FF5"/>
<path fill-rule="evenodd" clip-rule="evenodd" d="M61.0525 232.115C64.7497 234.3 68.6262 234.591 69.7017 232.754C70.7773 230.916 68.671 227.667 64.9738 225.482C61.2766 223.298 57.3777 223.006 56.3133 224.844C55.249 226.681 57.3777 229.93 61.0525 232.115Z" fill="#476FF5"/>
<path fill-rule="evenodd" clip-rule="evenodd" d="M56.2576 224.945C58.151 224.777 59.4171 221.584 59.0809 217.674C58.7448 213.764 56.9634 210.817 55.0812 210.952C53.199 211.086 51.933 214.369 52.2579 218.223C52.5828 222.077 54.3194 225.102 56.2576 224.945Z" fill="#476FF5"/>
<path fill-rule="evenodd" clip-rule="evenodd" d="M55.3623 231.623C58.5665 229.449 60.3143 226.424 59.2612 224.901C58.208 223.377 54.7797 223.859 51.553 226.021C48.3263 228.183 46.6122 231.22 47.6653 232.743C48.7185 234.267 52.158 233.808 55.3623 231.623Z" fill="#476FF5"/>
<path fill-rule="evenodd" clip-rule="evenodd" d="M52.4046 226.044C55.5305 227.545 58.6675 227.5 59.4181 225.943C60.1688 224.386 58.2306 221.921 55.1047 220.419C51.9789 218.918 48.8418 218.963 48.0912 220.52C47.3405 222.078 49.2788 224.542 52.4046 226.044Z" fill="#476FF5"/>
<path d="M58.524 226.278C59.6439 226.278 60.5518 225.37 60.5518 224.251C60.5518 223.131 59.6439 222.223 58.524 222.223C57.404 222.223 56.4961 223.131 56.4961 224.251C56.4961 225.37 57.404 226.278 58.524 226.278Z" fill="white"/>
<path d="M95.07 293.188C94.1901 292.804 93.2404 292.606 92.2803 292.605C91.2625 292.604 90.2572 292.829 89.3369 293.264C88.4165 293.698 87.604 294.332 86.958 295.118C86.312 295.905 85.8485 296.825 85.601 297.812C85.3535 298.799 85.3282 299.829 85.5268 300.827C85.7254 301.825 86.1431 302.767 86.7496 303.584C87.3562 304.401 88.1365 305.074 89.0344 305.553C89.9323 306.033 90.9253 306.307 91.9419 306.356C92.9585 306.405 93.9733 306.228 94.9132 305.837" stroke="#07005A" stroke-width="2.33" stroke-miterlimit="10"/>
<path fill-rule="evenodd" clip-rule="evenodd" d="M93.5234 302.855V308.928C93.5234 310.933 94.3183 312.856 95.7338 314.275C97.1493 315.695 99.0699 316.496 101.075 316.502H113.858C115.867 316.502 117.793 315.704 119.214 314.283C120.634 312.863 121.432 310.937 121.432 308.928V290.206C121.432 289.437 121.126 288.699 120.582 288.155C120.038 287.61 119.3 287.305 118.53 287.305H96.4252C95.6556 287.305 94.9175 287.61 94.3733 288.155C93.8292 288.699 93.5234 289.437 93.5234 290.206V302.855Z" fill="#476FF5"/>
<path fill-rule="evenodd" clip-rule="evenodd" d="M103.751 232.173C103.719 231.953 103.63 231.745 103.494 231.569C103.358 231.393 103.178 231.256 102.973 231.17C102.767 231.084 102.543 231.053 102.322 231.08C102.101 231.106 101.891 231.189 101.712 231.321C95.662 235.568 88.6149 243.119 93.2308 255.275C98.3957 268.876 106.765 265.358 106.888 272.349V278.892C106.886 279.121 106.944 279.347 107.058 279.546C107.171 279.745 107.336 279.91 107.534 280.024C107.733 280.138 107.959 280.197 108.188 280.195C108.417 280.193 108.641 280.13 108.838 280.013C113.51 277.369 120.545 266.747 119.851 256.586C119.055 244.878 107.325 244.855 105.118 237.685C104.526 235.884 104.069 234.042 103.751 232.173Z" fill="white"/>
<path d="M2 318H774" stroke="#07005A" stroke-width="3" stroke-linecap="round" stroke-linejoin="round"/>
</svg>
