<svg width="1078" height="412" viewBox="0 0 1078 412" fill="none" xmlns="http://www.w3.org/2000/svg">
<g clip-path="url(#clip0)">
<path opacity="0.1" d="M1016.38 322.46H962.741V260H979.651C979.87 260 980.086 259.953 980.285 259.86C980.484 259.768 980.66 259.633 980.801 259.465C980.942 259.297 981.045 259.101 981.102 258.889C981.159 258.677 981.169 258.456 981.131 258.24L971.131 201.75C971.069 201.402 970.887 201.087 970.617 200.86C970.346 200.633 970.004 200.509 969.651 200.51H938.431C938.077 200.509 937.735 200.633 937.465 200.86C937.194 201.087 937.012 201.402 936.951 201.75L927.001 258.2C926.963 258.416 926.972 258.637 927.029 258.849C927.086 259.061 927.189 259.257 927.33 259.425C927.471 259.593 927.647 259.728 927.846 259.82C928.045 259.913 928.261 259.96 928.481 259.96H945.391V322.46H877.391C876.993 322.46 876.611 322.618 876.33 322.899C876.049 323.18 875.891 323.562 875.891 323.96V411.1C875.891 411.498 876.049 411.879 876.33 412.16C876.611 412.442 876.993 412.6 877.391 412.6H1016.38C1016.78 412.6 1017.16 412.442 1017.44 412.16C1017.72 411.879 1017.88 411.498 1017.88 411.1V324C1017.89 323.799 1017.85 323.6 1017.78 323.413C1017.71 323.227 1017.6 323.057 1017.46 322.913C1017.32 322.77 1017.15 322.656 1016.96 322.578C1016.78 322.5 1016.58 322.46 1016.38 322.46ZM939.681 203.46H968.391L977.861 257H930.211L939.681 203.46ZM959.741 260V322.16H948.341V260H959.741ZM1014.88 409.6H878.801V325.46H1014.88V409.6Z" fill="#07005A"/>
<g opacity="0.3">
<path opacity="0.3" d="M707.57 286.32H407.34C406.942 286.32 406.56 286.478 406.279 286.76C405.998 287.041 405.84 287.422 405.84 287.82V411.16C405.84 411.558 405.998 411.94 406.279 412.221C406.56 412.502 406.942 412.66 407.34 412.66H416V420.89C416 421.288 416.158 421.67 416.439 421.951C416.72 422.232 417.102 422.39 417.5 422.39H423.57V430.28C423.572 430.677 423.731 431.057 424.012 431.338C424.293 431.619 424.673 431.778 425.07 431.78H555C555.398 431.78 555.779 431.622 556.061 431.341C556.342 431.06 556.5 430.678 556.5 430.28V422.39H568.64V430.28C568.64 430.678 568.798 431.06 569.079 431.341C569.361 431.622 569.742 431.78 570.14 431.78H700C700.398 431.78 700.779 431.622 701.061 431.341C701.342 431.06 701.5 430.678 701.5 430.28V422.39H707.57C707.968 422.39 708.349 422.232 708.631 421.951C708.912 421.67 709.07 421.288 709.07 420.89V287.82C709.07 287.422 708.912 287.041 708.631 286.76C708.349 286.478 707.968 286.32 707.57 286.32ZM408.84 409.66V289.32H706.07V296.06H417.46C417.062 296.06 416.681 296.218 416.399 296.5C416.118 296.781 415.96 297.162 415.96 297.56V409.66H408.84ZM706.07 409.66H701.5V396.45C701.487 396.061 701.323 395.692 701.043 395.422C700.763 395.151 700.389 395 700 395H570.09C569.692 395 569.311 395.158 569.029 395.44C568.748 395.721 568.59 396.102 568.59 396.5V409.71H564V299.06H706.07V409.66ZM608.02 412.66C608.072 412.89 608.098 413.125 608.1 413.36C608.1 414.241 607.75 415.085 607.127 415.708C606.505 416.331 605.66 416.68 604.78 416.68C603.899 416.68 603.055 416.331 602.432 415.708C601.81 415.085 601.46 414.241 601.46 413.36C601.458 413.125 601.481 412.89 601.53 412.66H608.02ZM602.88 419.39H571.59V412.66H598.5C598.485 412.893 598.485 413.127 598.5 413.36C598.497 414.7 598.919 416.006 599.706 417.09C600.494 418.173 601.605 418.979 602.88 419.39ZM611.1 413.39C611.115 413.157 611.115 412.923 611.1 412.69H659.1C659.1 412.92 659.1 413.16 659.1 413.39C659.105 414.731 659.537 416.036 660.334 417.115C661.13 418.194 662.25 418.991 663.53 419.39H606.68C607.962 418.986 609.082 418.183 609.877 417.099C610.672 416.015 611.1 414.705 611.1 413.36V413.39ZM668.56 412.69C668.612 412.92 668.638 413.155 668.64 413.39C668.665 413.842 668.597 414.295 668.441 414.72C668.285 415.145 668.044 415.533 667.733 415.862C667.422 416.191 667.047 416.453 666.631 416.632C666.215 416.81 665.768 416.903 665.315 416.903C664.862 416.903 664.414 416.81 663.999 416.632C663.583 416.453 663.208 416.191 662.897 415.862C662.585 415.533 662.344 415.145 662.189 414.72C662.033 414.295 661.965 413.842 661.99 413.39C661.991 413.155 662.018 412.92 662.07 412.69H668.56ZM671.64 413.39C671.64 413.16 671.64 412.92 671.64 412.69H698.54V419.42H667.21C668.498 419.015 669.623 418.208 670.42 417.118C671.217 416.028 671.645 414.711 671.64 413.36V413.39ZM670.43 409.69C669.846 408.879 669.078 408.218 668.189 407.762C667.299 407.306 666.314 407.068 665.315 407.068C664.315 407.068 663.33 407.306 662.441 407.762C661.551 408.218 660.783 408.879 660.2 409.69H609.89C609.306 408.879 608.538 408.218 607.649 407.762C606.759 407.306 605.774 407.068 604.775 407.068C603.775 407.068 602.79 407.306 601.901 407.762C601.012 408.218 600.243 408.879 599.66 409.69H571.59V398H698.5V409.71L670.43 409.69ZM463.1 412.69C463.152 412.92 463.178 413.155 463.18 413.39C463.18 414.271 462.83 415.115 462.207 415.738C461.585 416.361 460.74 416.71 459.86 416.71C458.979 416.71 458.135 416.361 457.512 415.738C456.89 415.115 456.54 414.271 456.54 413.39C456.538 413.155 456.561 412.92 456.61 412.69H463.1ZM458 419.39H426.53V412.66H453.58C453.565 412.893 453.565 413.127 453.58 413.36C453.579 414.705 454.008 416.015 454.803 417.099C455.597 418.183 456.717 418.986 458 419.39ZM466.22 413.39C466.235 413.157 466.235 412.923 466.22 412.69H514.22C514.22 412.92 514.22 413.16 514.22 413.39C514.225 414.731 514.657 416.036 515.454 417.115C516.25 418.194 517.37 418.991 518.65 419.39H461.76C463.042 418.986 464.162 418.183 464.957 417.099C465.752 416.015 466.18 414.705 466.18 413.36L466.22 413.39ZM523.68 412.69C523.732 412.92 523.758 413.155 523.76 413.39C523.785 413.842 523.717 414.295 523.561 414.72C523.405 415.145 523.164 415.533 522.853 415.862C522.542 416.191 522.167 416.453 521.751 416.632C521.335 416.81 520.888 416.903 520.435 416.903C519.982 416.903 519.534 416.81 519.118 416.632C518.703 416.453 518.328 416.191 518.017 415.862C517.705 415.533 517.464 415.145 517.309 414.72C517.153 414.295 517.085 413.842 517.11 413.39C517.111 413.155 517.138 412.92 517.19 412.69H523.68ZM526.76 413.39C526.76 413.16 526.76 412.92 526.76 412.69H553.53V419.42H522.29C523.578 419.015 524.703 418.208 525.5 417.118C526.297 416.028 526.725 414.711 526.72 413.36L526.76 413.39ZM525.55 409.69C524.966 408.879 524.198 408.218 523.309 407.762C522.419 407.306 521.434 407.068 520.435 407.068C519.435 407.068 518.45 407.306 517.561 407.762C516.671 408.218 515.903 408.879 515.32 409.69H465C464.416 408.879 463.648 408.218 462.759 407.762C461.869 407.306 460.884 407.068 459.885 407.068C458.885 407.068 457.9 407.306 457.011 407.762C456.121 408.218 455.353 408.879 454.77 409.69H426.53V398H553.45V409.71L525.55 409.69ZM555 395H425C424.602 395 424.22 395.158 423.939 395.44C423.658 395.721 423.5 396.102 423.5 396.5V409.71H419V299.06H561V409.66H556.43V396.45C556.418 396.073 556.264 395.714 555.999 395.445C555.734 395.177 555.377 395.018 555 395ZM419 419.39V412.66H423.57V419.39H419ZM553.49 428.78H426.53V422.39H553.45L553.49 428.78ZM556.49 412.66H561V419.39H556.43L556.49 412.66ZM564.06 419.39V412.66H568.63V419.39H564.06ZM698.54 428.78H571.59V422.39H698.5L698.54 428.78ZM701.54 419.39V412.66H706.11V419.39H701.54Z" fill="#07005A"/>
<path opacity="0.3" d="M425 345.621H555C555.398 345.621 555.779 345.463 556.061 345.182C556.342 344.9 556.5 344.519 556.5 344.121V310.291C556.5 309.893 556.342 309.512 556.061 309.23C555.779 308.949 555.398 308.791 555 308.791H425C424.602 308.791 424.221 308.949 423.939 309.23C423.658 309.512 423.5 309.893 423.5 310.291V344.121C423.503 344.518 423.661 344.898 423.942 345.179C424.223 345.46 424.603 345.618 425 345.621ZM426.5 311.791H553.45V342.621H426.53L426.5 311.791Z" fill="#07005A"/>
<path opacity="0.3" d="M556.45 353.371C556.45 352.973 556.292 352.592 556.011 352.31C555.729 352.029 555.348 351.871 554.95 351.871H425C424.602 351.871 424.221 352.029 423.939 352.31C423.658 352.592 423.5 352.973 423.5 353.371V387.201C423.503 387.598 423.661 387.978 423.942 388.259C424.223 388.54 424.603 388.698 425 388.701H555C555.398 388.701 555.779 388.543 556.061 388.262C556.342 387.98 556.5 387.599 556.5 387.201L556.45 353.371ZM553.45 385.701H426.53V354.871H553.45V385.701Z" fill="#07005A"/>
<path opacity="0.3" d="M570.09 345.621H700C700.398 345.621 700.779 345.463 701.06 345.182C701.342 344.9 701.5 344.519 701.5 344.121V310.291C701.5 309.893 701.342 309.512 701.06 309.23C700.779 308.949 700.398 308.791 700 308.791H570.09C569.692 308.791 569.31 308.949 569.029 309.23C568.748 309.512 568.59 309.893 568.59 310.291V344.121C568.59 344.519 568.748 344.9 569.029 345.182C569.31 345.463 569.692 345.621 570.09 345.621ZM571.59 311.791H698.5V342.621H571.59V311.791Z" fill="#07005A"/>
<path opacity="0.3" d="M570.09 388.701H700C700.398 388.701 700.779 388.543 701.06 388.262C701.342 387.98 701.5 387.599 701.5 387.201V353.371C701.5 352.973 701.342 352.592 701.06 352.31C700.779 352.029 700.398 351.871 700 351.871H570.09C569.692 351.871 569.31 352.029 569.029 352.31C568.748 352.592 568.59 352.973 568.59 353.371V387.201C568.59 387.599 568.748 387.98 569.029 388.262C569.31 388.543 569.692 388.701 570.09 388.701ZM571.59 354.871H698.5V385.701H571.59V354.871Z" fill="#07005A"/>
<path opacity="0.3" d="M520.391 320.881C519.139 320.881 517.915 321.252 516.874 321.948C515.833 322.643 515.021 323.632 514.542 324.788C514.063 325.945 513.938 327.218 514.182 328.446C514.426 329.674 515.029 330.802 515.915 331.687C516.8 332.572 517.928 333.175 519.156 333.419C520.384 333.663 521.656 333.538 522.813 333.059C523.97 332.58 524.958 331.769 525.654 330.728C526.349 329.687 526.721 328.463 526.721 327.211C526.718 325.533 526.05 323.924 524.864 322.738C523.677 321.551 522.069 320.884 520.391 320.881ZM520.391 330.531C519.732 330.531 519.087 330.335 518.539 329.969C517.992 329.603 517.565 329.082 517.313 328.473C517.061 327.864 516.996 327.194 517.125 326.548C517.255 325.901 517.573 325.308 518.039 324.843C518.506 324.377 519.1 324.061 519.747 323.934C520.394 323.806 521.064 323.874 521.672 324.127C522.28 324.381 522.8 324.809 523.164 325.358C523.529 325.907 523.723 326.552 523.721 327.211C523.721 327.648 523.634 328.08 523.467 328.484C523.299 328.887 523.054 329.254 522.745 329.562C522.435 329.87 522.068 330.115 521.664 330.281C521.26 330.447 520.827 330.532 520.391 330.531Z" fill="#07005A"/>
<path opacity="0.3" d="M520.39 376.611C521.643 376.613 522.868 376.244 523.91 375.549C524.952 374.855 525.765 373.867 526.246 372.711C526.726 371.554 526.853 370.281 526.61 369.052C526.367 367.824 525.765 366.695 524.88 365.809C523.995 364.922 522.867 364.319 521.639 364.074C520.411 363.828 519.137 363.953 517.98 364.432C516.823 364.911 515.834 365.722 515.138 366.763C514.442 367.805 514.07 369.029 514.07 370.281C514.073 371.957 514.739 373.564 515.924 374.751C517.108 375.937 518.714 376.606 520.39 376.611ZM520.39 366.961C521.05 366.959 521.695 367.153 522.244 367.518C522.793 367.883 523.222 368.403 523.475 369.012C523.728 369.621 523.795 370.291 523.667 370.938C523.539 371.585 523.221 372.18 522.755 372.646C522.289 373.112 521.694 373.429 521.047 373.558C520.401 373.686 519.73 373.619 519.121 373.366C518.512 373.112 517.992 372.684 517.627 372.135C517.262 371.586 517.068 370.941 517.07 370.281C517.083 369.408 517.439 368.576 518.06 367.962C518.68 367.349 519.517 367.004 520.39 367.001V366.961Z" fill="#07005A"/>
<path opacity="0.3" d="M665.31 320.881C664.059 320.881 662.835 321.252 661.794 321.948C660.753 322.643 659.941 323.632 659.462 324.788C658.983 325.945 658.858 327.218 659.102 328.446C659.346 329.674 659.949 330.802 660.834 331.687C661.72 332.572 662.848 333.175 664.076 333.419C665.303 333.663 666.576 333.538 667.733 333.059C668.889 332.58 669.878 331.769 670.574 330.728C671.269 329.687 671.64 328.463 671.64 327.211C671.638 325.533 670.97 323.924 669.784 322.738C668.597 321.551 666.988 320.884 665.31 320.881ZM665.31 330.531C664.651 330.531 664.007 330.335 663.459 329.969C662.912 329.603 662.485 329.082 662.233 328.473C661.981 327.864 661.916 327.194 662.045 326.548C662.175 325.901 662.493 325.308 662.959 324.843C663.426 324.377 664.02 324.061 664.667 323.934C665.314 323.806 665.983 323.874 666.592 324.127C667.2 324.381 667.719 324.809 668.084 325.358C668.449 325.907 668.642 326.552 668.64 327.211C668.64 327.648 668.554 328.08 668.387 328.484C668.219 328.887 667.974 329.254 667.665 329.562C667.355 329.87 666.988 330.115 666.584 330.281C666.18 330.447 665.747 330.532 665.31 330.531Z" fill="#07005A"/>
<path opacity="0.3" d="M604.779 320.881C603.527 320.879 602.302 321.248 601.26 321.943C600.218 322.637 599.405 323.625 598.924 324.782C598.444 325.938 598.317 327.211 598.56 328.44C598.803 329.668 599.405 330.797 600.29 331.683C601.175 332.57 602.303 333.173 603.531 333.418C604.759 333.664 606.032 333.539 607.19 333.06C608.347 332.581 609.336 331.77 610.032 330.729C610.728 329.687 611.099 328.463 611.099 327.211C611.099 325.534 610.434 323.925 609.249 322.738C608.064 321.552 606.457 320.884 604.779 320.881ZM604.779 330.531C604.12 330.533 603.475 330.339 602.926 329.974C602.377 329.609 601.948 329.089 601.695 328.48C601.442 327.871 601.375 327.201 601.503 326.554C601.631 325.907 601.948 325.313 602.415 324.846C602.881 324.38 603.475 324.063 604.122 323.934C604.769 323.806 605.44 323.873 606.048 324.126C606.657 324.38 607.177 324.808 607.542 325.357C607.908 325.906 608.101 326.551 608.099 327.211C608.099 328.091 607.75 328.936 607.127 329.558C606.504 330.181 605.66 330.531 604.779 330.531Z" fill="#07005A"/>
<path opacity="0.3" d="M665.31 364C664.058 364 662.834 364.372 661.793 365.068C660.751 365.763 659.94 366.753 659.461 367.91C658.983 369.067 658.858 370.34 659.103 371.569C659.348 372.797 659.952 373.925 660.838 374.81C661.724 375.694 662.853 376.296 664.082 376.54C665.31 376.783 666.583 376.656 667.74 376.175C668.896 375.695 669.884 374.882 670.579 373.839C671.273 372.797 671.642 371.572 671.64 370.32C671.638 368.643 670.97 367.035 669.783 365.85C668.596 364.666 666.988 364 665.31 364ZM665.31 373.65C664.652 373.65 664.008 373.455 663.46 373.089C662.913 372.723 662.486 372.203 662.234 371.594C661.982 370.986 661.916 370.316 662.044 369.67C662.173 369.024 662.49 368.431 662.956 367.965C663.422 367.5 664.015 367.182 664.661 367.054C665.307 366.925 665.976 366.991 666.585 367.243C667.193 367.496 667.713 367.922 668.079 368.47C668.445 369.018 668.64 369.661 668.64 370.32C668.63 371.196 668.274 372.033 667.651 372.649C667.028 373.265 666.187 373.61 665.31 373.61V373.65Z" fill="#07005A"/>
<path opacity="0.3" d="M604.779 364C603.527 363.998 602.301 364.368 601.259 365.063C600.216 365.757 599.404 366.746 598.923 367.903C598.443 369.06 598.317 370.334 598.561 371.562C598.805 372.791 599.408 373.92 600.293 374.806C601.179 375.692 602.308 376.295 603.537 376.539C604.766 376.783 606.039 376.657 607.196 376.176C608.354 375.696 609.342 374.883 610.037 373.841C610.732 372.798 611.101 371.573 611.099 370.32C611.097 368.645 610.43 367.039 609.245 365.854C608.061 364.669 606.455 364.003 604.779 364ZM604.779 373.65C604.12 373.652 603.476 373.458 602.927 373.094C602.378 372.729 601.949 372.21 601.696 371.601C601.442 370.993 601.375 370.323 601.502 369.677C601.63 369.03 601.946 368.436 602.411 367.969C602.877 367.502 603.47 367.184 604.116 367.055C604.762 366.925 605.432 366.991 606.041 367.243C606.65 367.494 607.171 367.921 607.538 368.469C607.904 369.017 608.099 369.661 608.099 370.32C608.089 371.195 607.735 372.03 607.114 372.645C606.492 373.261 605.654 373.607 604.779 373.61V373.65Z" fill="#07005A"/>
</g>
<path d="M794.01 113.98H785.49V116.98H794.01V113.98Z" fill="#07005A"/>
<path d="M797 113.98H794V116.98H797V113.98Z" fill="#07005A"/>
<path d="M785.49 113.98H782.49V116.98H785.49V113.98Z" fill="#07005A"/>
<g opacity="0.3">
<path opacity="0.3" d="M794.001 3V114H797.001V1.5C797.001 1.10218 796.843 0.720644 796.561 0.43934C796.28 0.158035 795.899 0 795.501 0L665.721 0V3H794.001Z" fill="#07005A"/>
<path opacity="0.3" d="M794.001 228.22H665.721V231.22H795.501C795.899 231.22 796.28 231.062 796.561 230.781C796.843 230.499 797.001 230.118 797.001 229.72V117H794.001V228.22Z" fill="#07005A"/>
<path opacity="0.3" d="M534.441 228.22V117H531.441V229.72C531.444 230.117 531.603 230.497 531.884 230.778C532.164 231.059 532.544 231.217 532.941 231.22H662.721V228.22H534.441Z" fill="#07005A"/>
<path opacity="0.3" d="M534.441 3H662.721V0H532.941C532.544 0 532.162 0.158035 531.881 0.43934C531.599 0.720644 531.441 1.10218 531.441 1.5V114H534.441V3Z" fill="#07005A"/>
<path opacity="0.3" d="M546.001 13.5703H662.721V10.5703H544.451C544.053 10.5703 543.672 10.7283 543.391 11.0097C543.109 11.291 542.951 11.6725 542.951 12.0703V114H545.951L546.001 13.5703Z" fill="#07005A"/>
<path opacity="0.3" d="M782.491 13.5703V114H785.491V12.0703C785.491 11.6725 785.333 11.291 785.051 11.0097C784.77 10.7283 784.389 10.5703 783.991 10.5703H665.721V13.5703H782.491Z" fill="#07005A"/>
<path opacity="0.3" d="M782.491 217.65H665.721V220.65H784.001C784.398 220.647 784.778 220.489 785.058 220.208C785.339 219.927 785.498 219.547 785.501 219.15V117H782.501L782.491 217.65Z" fill="#07005A"/>
<path opacity="0.3" d="M546.002 217.65V117H543.002V219.15C543.005 219.547 543.163 219.927 543.444 220.208C543.725 220.489 544.105 220.647 544.502 220.65H662.722V217.65H546.002Z" fill="#07005A"/>
<path opacity="0.3" d="M665.721 220.65H662.721V228.22H665.721V220.65Z" fill="#07005A"/>
<path opacity="0.3" d="M665.721 13.5703H662.721V113.98H665.721V13.5703Z" fill="#07005A"/>
<path opacity="0.3" d="M665.721 3H662.721V10.57H665.721V3Z" fill="#07005A"/>
<path opacity="0.3" d="M665.721 116.98H662.721V217.65H665.721V116.98Z" fill="#07005A"/>
<path opacity="0.3" d="M665.721 228.221H662.721V231.221H665.721V228.221Z" fill="#07005A"/>
<path opacity="0.3" d="M665.721 0H662.721V3H665.721V0Z" fill="#07005A"/>
<path opacity="0.3" d="M665.721 217.65H662.721V220.65H665.721V217.65Z" fill="#07005A"/>
<path opacity="0.3" d="M665.721 10.5703H662.721V13.5703H665.721V10.5703Z" fill="#07005A"/>
<path opacity="0.3" d="M662.721 113.98H545.951V116.98H662.721V113.98Z" fill="#07005A"/>
<path opacity="0.3" d="M542.951 113.98H534.441V116.98H542.951V113.98Z" fill="#07005A"/>
<path opacity="0.3" d="M782.481 113.98H665.721V116.98H782.481V113.98Z" fill="#07005A"/>
<path opacity="0.3" d="M534.441 113.98H531.441V116.98H534.441V113.98Z" fill="#07005A"/>
<path opacity="0.3" d="M545.951 113.98H542.951V116.98H545.951V113.98Z" fill="#07005A"/>
<path opacity="0.3" d="M665.721 113.98H662.721V116.98H665.721V113.98Z" fill="#07005A"/>
</g>
<path fill-rule="evenodd" clip-rule="evenodd" d="M833.111 239.47C824.521 244.72 807.171 260.93 802.951 307.47C799.951 340.88 801.871 393.47 802.661 411.09L777.311 411.15C777.311 385.49 776.541 284.15 768.681 266.32C761.681 250.56 768.241 243.23 774.941 238.41C794.326 237.1 813.787 237.455 833.111 239.47Z" fill="#FF8585" stroke="#07005A" stroke-width="3" stroke-miterlimit="10"/>
<path fill-rule="evenodd" clip-rule="evenodd" d="M697.671 411L777.311 411.15C777.311 385.49 776.541 284.15 768.681 266.32C761.681 250.56 768.241 243.23 774.941 238.41C762.331 239.41 751.381 241.25 744.941 244.29C726.851 254.38 706.131 292.49 706.131 292.49C695.781 312.55 690.801 360.16 689.601 402.67C689.571 403.75 689.758 404.825 690.15 405.832C690.542 406.839 691.131 407.757 691.883 408.533C692.635 409.309 693.534 409.927 694.528 410.351C695.522 410.774 696.59 410.995 697.671 411Z" fill="#476FF5" stroke="#07005A" stroke-width="3" stroke-linecap="round" stroke-linejoin="round"/>
<path fill-rule="evenodd" clip-rule="evenodd" d="M759.74 353.141C757.13 354.511 755.37 356.361 755.14 359.021C754.54 366.111 761.81 367.021 768.83 370.021C783.52 376.281 782.27 393.921 768.83 397.141C762.57 398.641 760.7 389.421 766.83 387.341C768.22 386.871 768.43 384.341 767.66 382.581C767.344 381.664 766.806 380.84 766.094 380.182C765.382 379.525 764.519 379.053 763.58 378.811C760.47 377.811 755.35 377.231 752.15 376.371C744.88 374.371 741.21 368.761 739.85 362.281C737.41 350.691 748.29 340.281 759.21 336.891" fill="#FFCE85"/>
<path fill-rule="evenodd" clip-rule="evenodd" d="M913.742 360.46C916.552 385.33 905.352 399.14 897.122 405.78C892.957 409.1 887.787 410.905 882.462 410.9L802.662 411.1C801.872 393.49 799.912 340.89 802.952 307.48C807.172 260.93 824.522 244.72 833.112 239.48C839.591 240.08 846.01 241.217 852.302 242.88C852.302 242.88 900.212 254.07 902.202 287.78C902.882 299.34 918.432 340.91 913.742 360.46Z" fill="#476FF5" stroke="#07005A" stroke-width="3" stroke-linecap="round" stroke-linejoin="round"/>
<path fill-rule="evenodd" clip-rule="evenodd" d="M764.26 363.851C770.26 365.511 777.14 362.171 782.58 359.911C791.25 356.311 799.92 352.781 808.78 349.691C817.36 346.691 826.027 344.001 834.78 341.621C841.98 339.621 849.78 338.741 853.32 331.181C855.73 326.011 857.91 318.351 852.57 313.381C847.65 308.791 838.07 310.091 832.25 311.501C828.1 312.501 821.7 314.891 817.46 315.501C812.83 316.161 811.46 315.451 806.92 314.751C799.24 313.551 788.72 313.661 781.25 315.491C771.5 317.881 767.84 325.051 764.34 328.231C760.84 331.411 759.79 332.501 757.58 334.701C753.16 339.091 752.09 345.931 753.15 352.001" fill="#FFCE85"/>
<path fill-rule="evenodd" clip-rule="evenodd" d="M813.061 317.051C811.711 312.871 812.181 305.531 815.751 304.381C819.321 303.231 827.301 310.311 829.241 313.381C831.181 316.451 813.061 317.051 813.061 317.051Z" fill="#FFCE85"/>
<path fill-rule="evenodd" clip-rule="evenodd" d="M833 312.849C831.64 309.849 837.09 298.689 841.07 298.849C845.53 299.069 847.78 312.849 847.78 312.849H833Z" fill="#FFCE85"/>
<path d="M789.67 329.141C787.57 332.371 779.02 351.821 799.3 353.141" stroke="#07005A" stroke-width="1.5" stroke-linecap="round" stroke-linejoin="round"/>
<path d="M817.001 306.52C816.251 309.35 813.291 316.29 818.661 320.15" stroke="#07005A" stroke-width="1.5" stroke-linecap="round" stroke-linejoin="round"/>
<path d="M840.89 301.09C839.1 303.15 833.73 309.3 836.89 313.88" stroke="#07005A" stroke-width="1.5" stroke-linecap="round" stroke-linejoin="round"/>
<path d="M830.42 324.579C827.538 323.827 824.5 323.913 821.665 324.829C818.831 325.745 816.317 327.452 814.42 329.749" stroke="#07005A" stroke-width="1.5" stroke-linecap="round" stroke-linejoin="round"/>
<path d="M831.882 327.57C829.132 327.28 820.882 327.8 817.012 334.44" stroke="#07005A" stroke-width="1.5" stroke-linecap="round" stroke-linejoin="round"/>
<path d="M849 317.29C851.91 313.84 856 310.29 864.21 309.67" stroke="#07005A" stroke-width="1.5" stroke-linecap="round" stroke-linejoin="round"/>
<path d="M850.08 320.71C852.02 318.51 856.43 314.83 864.84 315.94" stroke="#07005A" stroke-width="1.5" stroke-linecap="round" stroke-linejoin="round"/>
<path d="M837.141 325.57C838.141 326.7 841.911 326.48 840.871 323.23" stroke="#07005A" stroke-width="1.5" stroke-linecap="round" stroke-linejoin="round"/>
<path d="M845.251 323C845.081 324.51 841.911 326.53 840.871 323.28" stroke="#07005A" stroke-width="1.5" stroke-linecap="round" stroke-linejoin="round"/>
<path d="M834.701 322.219C835.33 322.219 835.841 321.709 835.841 321.079C835.841 320.45 835.33 319.939 834.701 319.939C834.071 319.939 833.561 320.45 833.561 321.079C833.561 321.709 834.071 322.219 834.701 322.219Z" fill="#07005A" stroke="#07005A" stroke-miterlimit="10"/>
<path d="M843.331 319.059C843.961 319.059 844.471 318.549 844.471 317.919C844.471 317.29 843.961 316.779 843.331 316.779C842.702 316.779 842.191 317.29 842.191 317.919C842.191 318.549 842.702 319.059 843.331 319.059Z" fill="#07005A" stroke="#07005A" stroke-miterlimit="10"/>
<path fill-rule="evenodd" clip-rule="evenodd" d="M838.31 321.32L841.17 320.23C841.254 320.199 841.346 320.191 841.434 320.208C841.522 320.224 841.605 320.264 841.672 320.324C841.74 320.383 841.79 320.46 841.818 320.545C841.846 320.631 841.85 320.722 841.83 320.81L841.29 323.23C841.273 323.306 841.239 323.377 841.19 323.437C841.141 323.498 841.078 323.546 841.008 323.578C840.937 323.61 840.859 323.625 840.782 323.622C840.704 323.619 840.628 323.597 840.56 323.56L838.24 322.21C838.157 322.164 838.09 322.096 838.045 322.013C838 321.93 837.98 321.836 837.988 321.742C837.995 321.648 838.03 321.559 838.087 321.484C838.144 321.409 838.221 321.352 838.31 321.32Z" fill="#07005A" stroke="#07005A" stroke-miterlimit="10"/>
<path d="M754.631 354.6C755.357 356.812 756.615 358.812 758.294 360.424C759.972 362.037 762.022 363.213 764.261 363.85" stroke="#07005A" stroke-width="1.5" stroke-linecap="round" stroke-linejoin="round"/>
<path fill-rule="evenodd" clip-rule="evenodd" d="M767.891 350.3L765.681 330.44C764.511 326.11 768.761 323.82 771.621 327.63C773.155 329.632 774.274 331.92 774.911 334.36C777.461 343.67 783.371 363.36 782.961 362.51C782.551 361.66 767.891 350.3 767.891 350.3Z" fill="white" stroke="#07005A" stroke-width="3" stroke-linecap="round" stroke-linejoin="round"/>
<path fill-rule="evenodd" clip-rule="evenodd" d="M826 360.001L785.28 357.591L769.22 342.691L746.33 327.961C745.734 327.637 745.05 327.513 744.379 327.607C743.707 327.7 743.083 328.007 742.599 328.481C742.114 328.956 741.795 329.573 741.687 330.242C741.579 330.912 741.689 331.598 742 332.201C742.93 333.661 760 345.351 760 345.351L736.76 335.861C736.228 335.644 735.643 335.59 735.08 335.706C734.516 335.821 734 336.101 733.596 336.51C733.191 336.918 732.917 337.438 732.808 338.002C732.698 338.566 732.758 339.151 732.98 339.681C733.98 342.071 736.78 343.011 740.33 344.961C742.49 346.131 756.83 352.091 756.83 352.091L735.24 347.571C729.85 346.691 727.86 354.211 738.24 355.801C743.6 356.621 749.88 358.451 754.61 358.491L739.11 358.541C733.58 360.071 736.93 366.761 758.86 366.391C768.35 379.771 774.25 383.441 787.2 380.071L826.05 384.501L826 360.001Z" fill="white" stroke="#07005A" stroke-width="3" stroke-linecap="round" stroke-linejoin="round"/>
<path fill-rule="evenodd" clip-rule="evenodd" d="M913.741 360.621C912.911 367.051 905.531 370.571 899.621 372.191L796.001 392.691C794.494 392.81 792.995 392.372 791.79 391.46C790.584 390.547 789.756 389.224 789.461 387.741L789.411 355.121C789.248 354.283 789.26 353.422 789.444 352.589C789.628 351.757 789.982 350.971 790.482 350.281C790.983 349.59 791.621 349.01 792.355 348.577C793.089 348.143 793.905 347.866 794.751 347.761L861.641 335.381L853.001 265.561" fill="#476FF5"/>
<path d="M913.741 360.46C912.911 366.89 905.531 370.46 899.621 372.03L796.001 392.53C794.493 392.65 792.995 392.212 791.789 391.299C790.584 390.387 789.755 389.063 789.461 387.58L789.431 355C789.268 354.164 789.279 353.303 789.463 352.471C789.648 351.639 790.001 350.854 790.502 350.164C791.003 349.475 791.641 348.896 792.375 348.463C793.109 348.031 793.925 347.754 794.771 347.65L861.661 335.26L853.001 265.4" stroke="#07005A" stroke-width="3" stroke-linecap="round" stroke-linejoin="round"/>
<path fill-rule="evenodd" clip-rule="evenodd" d="M807.631 336.56C802.631 339.39 801.351 346.27 809.311 345.56C817.271 344.85 843.791 342.95 841.951 338.88C840.111 334.81 837.621 333.82 836.291 333.57C834.631 333.369 832.962 333.255 831.291 333.23L827.421 334.23L822.831 335.9L818.671 338.07L814.911 339.7L810.911 339.58L808.711 338.87L807.631 336.56Z" fill="#FFCE85"/>
<path d="M807.25 335.53C808.17 338.38 809.98 341.53 817.25 338.34C824.25 335.28 837.52 328.4 841.66 338.06C841.853 338.493 841.872 338.983 841.714 339.43C841.555 339.876 841.232 340.245 840.81 340.46C834.95 343.32 820.08 346.21 806.54 345.46C804.971 345.257 803.456 344.751 802.08 343.97" stroke="#07005A" stroke-width="1.5" stroke-linecap="round" stroke-linejoin="round"/>
<path d="M831.301 336.08C833.471 336.33 836.301 337.08 837.561 340.91" stroke="#07005A" stroke-width="1.5" stroke-linecap="round" stroke-linejoin="round"/>
<path d="M828.311 338.369C829.342 338.503 830.313 338.934 831.103 339.611C831.894 340.288 832.47 341.18 832.761 342.179" stroke="#07005A" stroke-width="1.5" stroke-linecap="round" stroke-linejoin="round"/>
<path fill-rule="evenodd" clip-rule="evenodd" d="M848.23 331L850.7 330.41L853.5 329.5C854.707 329.519 855.912 329.603 857.11 329.75C858.11 329.93 859.88 330.65 861.21 333.6C862 335.34 855.55 336.76 848.98 337.55C848.407 337.688 847.803 337.602 847.29 337.31C846.973 337.119 846.675 336.898 846.4 336.65L846.65 331.19L848.23 331Z" fill="#FFCE85"/>
<path d="M846.65 331C847.65 331.52 850.2 330.43 851.33 330.1C855.33 328.93 859.33 329.02 861.03 333.1C861.169 333.413 861.183 333.767 861.067 334.09C860.952 334.412 860.716 334.677 860.41 334.83C858.29 335.83 854.49 336.69 850.09 337.65C849.42 337.79 846.96 337.86 846.24 336.48" stroke="#07005A" stroke-width="1.09" stroke-linecap="round" stroke-linejoin="round"/>
<path d="M853.5 331.619C854.529 331.64 855.525 331.99 856.34 332.618C857.155 333.246 857.748 334.119 858.03 335.109" stroke="#07005A" stroke-width="1.09" stroke-linecap="round" stroke-linejoin="round"/>
<path d="M851.33 333.27C852.077 333.367 852.779 333.681 853.351 334.171C853.922 334.661 854.339 335.307 854.55 336.03" stroke="#07005A" stroke-width="1.09" stroke-linecap="round" stroke-linejoin="round"/>
<path d="M862.34 335.449C867.34 336.159 875.34 336.139 877.34 344.529" stroke="#07005A" stroke-width="3" stroke-linecap="round" stroke-linejoin="round"/>
<path d="M861.66 335.22C867.48 332.08 874.74 329.38 880.66 337.06" stroke="#07005A" stroke-width="3" stroke-linecap="round" stroke-linejoin="round"/>
<path d="M728.281 411.059C729.921 384.499 731.431 375.259 732.031 373.359" stroke="#07005A" stroke-width="3" stroke-linecap="round" stroke-linejoin="round"/>
<path d="M114.62 320.86C107.5 308.35 95.7603 309.86 95.3203 325.93" stroke="#07005A" stroke-width="3" stroke-linecap="round" stroke-linejoin="round"/>
<path fill-rule="evenodd" clip-rule="evenodd" d="M102.231 294.669C101.648 295.128 100.947 295.412 100.209 295.49C99.4714 295.568 98.7267 295.436 98.0607 295.109C74.0607 281.909 53.8107 257.259 53.5007 230.689C53.1507 203.359 87.1007 197.619 99.3307 239.979C108.541 271.869 106.331 286.209 104.681 291.339C104.206 292.664 103.355 293.822 102.231 294.669Z" fill="#476FF5"/>
<path d="M62.6816 213.58C75.8216 218.93 89.8816 240.16 100.942 295.52" stroke="#07005A" stroke-width="1.5" stroke-linecap="round" stroke-linejoin="round"/>
<path d="M97.8204 239.551C98.6304 247.491 99.8204 264.821 95.4004 271.421" stroke="#07005A" stroke-width="1.5" stroke-linecap="round" stroke-linejoin="round"/>
<path d="M91.4316 259.18C81.4916 249.18 64.7716 238.57 56.4316 236.32" stroke="#07005A" stroke-width="1.5" stroke-linecap="round" stroke-linejoin="round"/>
<path d="M64.4199 264.721C74.4614 272.174 85.7808 277.728 97.8199 281.111" stroke="#07005A" stroke-width="1.5" stroke-linecap="round" stroke-linejoin="round"/>
<path fill-rule="evenodd" clip-rule="evenodd" d="M122.78 298.06C122.389 297.264 122.236 296.372 122.34 295.49C122.84 292.13 125.65 283.44 139.81 268.08C158.64 247.68 176.13 260.481 168.23 275.761C160.58 290.631 142.23 298.761 125 299.481C124.535 299.472 124.082 299.334 123.69 299.084C123.298 298.833 122.983 298.479 122.78 298.06Z" fill="#476FF5"/>
<path d="M167.891 263.54C158.981 262.85 145.081 270.85 123.271 298.9" stroke="#07005A" stroke-width="1.5" stroke-linecap="round" stroke-linejoin="round"/>
<path d="M140.79 268.27C138.09 272.51 132.54 281.93 133.18 286.89" stroke="#07005A" stroke-width="1.5" stroke-linecap="round" stroke-linejoin="round"/>
<path d="M138.861 281.111C147.271 278.291 159.671 277.021 164.991 278.111" stroke="#07005A" stroke-width="1.5" stroke-linecap="round" stroke-linejoin="round"/>
<path d="M152.5 291.84C144.751 293.213 136.816 293.152 129.09 291.66" stroke="#07005A" stroke-width="1.5" stroke-linecap="round" stroke-linejoin="round"/>
<path d="M138 234.85C128.59 240.85 104 278.85 117.19 333.47" stroke="#07005A" stroke-width="3" stroke-linecap="round" stroke-linejoin="round"/>
<path fill-rule="evenodd" clip-rule="evenodd" d="M144.481 230.42C146.931 226.13 147.241 221.69 145.151 220.49C143.061 219.29 139.401 221.81 136.941 226.1C134.481 230.39 134.181 234.83 136.261 236.02C138.341 237.21 142.001 234.7 144.481 230.42Z" fill="#476FF5"/>
<path fill-rule="evenodd" clip-rule="evenodd" d="M144.641 240.161C149.531 240.061 153.461 238.021 153.411 235.601C153.361 233.181 149.351 231.291 144.411 231.391C139.471 231.491 135.601 233.531 135.641 235.951C135.681 238.371 139.751 240.261 144.641 240.161Z" fill="#476FF5"/>
<path fill-rule="evenodd" clip-rule="evenodd" d="M135.65 236.12C137.38 234.84 136.65 230.93 134.02 227.39C131.39 223.85 127.86 222.02 126.13 223.31C124.4 224.6 125.13 228.51 127.76 232.04C130.39 235.57 133.92 237.41 135.65 236.12Z" fill="#476FF5"/>
<path fill-rule="evenodd" clip-rule="evenodd" d="M138.841 243.089C140.631 239.089 140.511 235.089 138.571 234.229C136.631 233.369 133.571 235.919 131.791 239.949C130.011 243.979 130.121 247.949 132.061 248.809C134.001 249.669 137.001 247.119 138.841 243.089Z" fill="#476FF5"/>
<path fill-rule="evenodd" clip-rule="evenodd" d="M132.631 239.47C136.551 239.04 139.571 237.12 139.351 235.17C139.131 233.22 135.791 231.98 131.871 232.4C127.951 232.82 124.931 234.75 125.141 236.7C125.351 238.65 128.701 239.89 132.631 239.47Z" fill="#476FF5"/>
<path d="M137.48 236.37C138.756 236.37 139.79 235.336 139.79 234.06C139.79 232.784 138.756 231.75 137.48 231.75C136.204 231.75 135.17 232.784 135.17 234.06C135.17 235.336 136.204 236.37 137.48 236.37Z" fill="white"/>
<path fill-rule="evenodd" clip-rule="evenodd" d="M152.361 332.08H152.451C155.061 332.2 157.071 335.37 156.371 338.67L141.001 408.2C140.809 409.076 140.324 409.86 139.625 410.422C138.927 410.984 138.057 411.29 137.161 411.29H94.0808C93.186 411.288 92.3187 410.981 91.6223 410.419C90.9259 409.857 90.442 409.074 90.2508 408.2L74.9308 338.82C74.1708 335.37 76.2708 332.08 78.9308 332.08H152.361Z" fill="#FF8585" stroke="#FF8585" stroke-width="3" stroke-miterlimit="10"/>
<path d="M262.99 222.36C272.247 222.36 279.75 214.856 279.75 205.6C279.75 196.344 272.247 188.84 262.99 188.84C253.734 188.84 246.23 196.344 246.23 205.6C246.23 214.856 253.734 222.36 262.99 222.36Z" fill="white"/>
<path fill-rule="evenodd" clip-rule="evenodd" d="M331.22 219.9C336.84 221.03 348.53 223.13 348.53 206.32C348.53 189.51 334.44 191.5 329.41 193.42L331.22 194.58V219.9Z" fill="white" stroke="#07005A" stroke-width="3" stroke-linecap="round" stroke-linejoin="round"/>
<path fill-rule="evenodd" clip-rule="evenodd" d="M373.542 274.001H256.852C298.002 259.591 341.342 254.861 373.542 274.001Z" fill="#FFCE85"/>
<path fill-rule="evenodd" clip-rule="evenodd" d="M401.491 298.47H213.711C221.989 292.001 230.782 286.218 240.001 281.18H383.871C390.267 286.385 396.166 292.173 401.491 298.47Z" fill="#FFCE85"/>
<path fill-rule="evenodd" clip-rule="evenodd" d="M451.49 322.999H185C191.31 317.129 197.94 311.249 204.68 305.699H407.34C408.44 307.119 409.52 308.563 410.58 310.029C412.571 309.794 414.575 309.673 416.58 309.669C429.451 309.717 441.863 314.456 451.49 322.999Z" fill="#FFCE85"/>
<path fill-rule="evenodd" clip-rule="evenodd" d="M468.381 347.461H157.221C158.291 347.331 159.381 347.221 160.471 347.141C165.571 341.841 171.271 336.071 177.381 330.141H458.441C462.665 335.341 466.021 341.19 468.381 347.461Z" fill="#FFCE85"/>
<path fill-rule="evenodd" clip-rule="evenodd" d="M108.141 403.65H463.531C462.018 406.253 460.349 408.761 458.531 411.16H111.421C110.121 408.752 109.024 406.24 108.141 403.65Z" fill="#FFCE85"/>
<path fill-rule="evenodd" clip-rule="evenodd" d="M472.121 379.16C471.231 385.12 469.549 390.935 467.121 396.45H106.481C106.481 396.07 106.401 395.69 106.381 395.31C106.069 389.78 107.041 384.252 109.221 379.16H472.121Z" fill="#FFCE85"/>
<path fill-rule="evenodd" clip-rule="evenodd" d="M472.69 371.13C472.69 371.41 472.69 371.68 472.69 371.96H113.15C118.322 364.609 125.244 358.663 133.29 354.66H470.65C472.012 360.044 472.697 365.577 472.69 371.13Z" fill="#FFCE85"/>
<path fill-rule="evenodd" clip-rule="evenodd" d="M383.87 281.18H240C243.797 279.129 247.73 277.338 251.77 275.82C253.47 275.19 255.18 274.57 256.89 273.98H373.54L374.66 274.65C377.859 276.64 380.934 278.82 383.87 281.18Z" fill="#FFCE85"/>
<path fill-rule="evenodd" clip-rule="evenodd" d="M407.34 305.671H204.66C207.66 303.201 210.66 300.791 213.71 298.471H401.49C403.5 300.791 405.44 303.191 407.34 305.671Z" fill="#FFCE85"/>
<path fill-rule="evenodd" clip-rule="evenodd" d="M458.441 330.171H177.381C179.851 327.791 182.381 325.381 184.981 322.971H451.491C454.009 325.168 456.334 327.576 458.441 330.171Z" fill="#FFCE85"/>
<path fill-rule="evenodd" clip-rule="evenodd" d="M470.651 354.661H133.291C140.775 350.855 148.879 348.417 157.221 347.461H468.381C469.28 349.814 470.038 352.218 470.651 354.661Z" fill="#FFCE85"/>
<path fill-rule="evenodd" clip-rule="evenodd" d="M472.681 372C472.645 374.409 472.458 376.814 472.121 379.2H109.221C110.283 376.673 111.6 374.261 113.151 372H472.681Z" fill="#FFCE85"/>
<path fill-rule="evenodd" clip-rule="evenodd" d="M467.15 396.449C466.071 398.911 464.862 401.314 463.53 403.649H108.14C107.329 401.316 106.772 398.902 106.48 396.449H467.15Z" fill="#FFCE85"/>
<path opacity="0.5" fill-rule="evenodd" clip-rule="evenodd" d="M383.87 281.18H240C243.797 279.129 247.73 277.338 251.77 275.82C253.47 275.19 255.18 274.57 256.89 273.98H373.54L374.66 274.65C377.859 276.64 380.934 278.82 383.87 281.18Z" fill="#FFEED4"/>
<path opacity="0.5" fill-rule="evenodd" clip-rule="evenodd" d="M407.34 305.671H204.66C207.66 303.201 210.66 300.791 213.71 298.471H401.49C403.5 300.791 405.44 303.191 407.34 305.671Z" fill="#FFEED4"/>
<path opacity="0.5" fill-rule="evenodd" clip-rule="evenodd" d="M458.441 330.171H177.381C179.851 327.791 182.381 325.381 184.981 322.971H451.491C454.009 325.168 456.334 327.576 458.441 330.171Z" fill="#FFEED4"/>
<path opacity="0.5" fill-rule="evenodd" clip-rule="evenodd" d="M470.651 354.661H133.291C140.775 350.855 148.879 348.417 157.221 347.461H468.381C469.28 349.814 470.038 352.218 470.651 354.661Z" fill="#FFEED4"/>
<path opacity="0.5" fill-rule="evenodd" clip-rule="evenodd" d="M472.681 372C472.645 374.409 472.458 376.814 472.121 379.2H109.221C110.283 376.673 111.6 374.261 113.151 372H472.681Z" fill="#FFEED4"/>
<path opacity="0.5" fill-rule="evenodd" clip-rule="evenodd" d="M467.15 396.449C466.071 398.911 464.862 401.314 463.53 403.649H108.14C107.329 401.316 106.772 398.902 106.48 396.449H467.15Z" fill="#FFEED4"/>
<path fill-rule="evenodd" clip-rule="evenodd" d="M454.691 411.171C455.912 411.178 457.117 410.885 458.198 410.316C459.28 409.747 460.204 408.921 460.891 407.911C467.751 397.661 472.691 384.521 472.691 371.141C472.691 337.141 447.581 309.641 416.591 309.641C414.586 309.65 412.582 309.77 410.591 310.001C399.871 295.201 387.591 282.641 374.671 274.661C341.031 253.941 294.841 259.861 251.741 275.821C222.101 286.771 184.561 322.111 160.481 347.141C129.081 349.521 105.001 370.871 106.381 395.311C106.717 399.191 107.683 402.991 109.241 406.561C109.815 407.929 110.781 409.097 112.018 409.917C113.255 410.738 114.707 411.174 116.191 411.171H454.691Z" stroke="#07005A" stroke-width="3" stroke-linecap="round" stroke-linejoin="round"/>
<path fill-rule="evenodd" clip-rule="evenodd" d="M499.001 217.26C500.621 213.05 502.291 208.5 503.191 205.45C505.521 197.69 497.361 196.57 493.411 207.73L493.481 208.78L493.021 208.9C495.331 201.75 496.881 194.47 494.181 193.25C489.741 191.25 486.231 198.87 481.181 214.11L480.761 214.32C483.141 206.2 486.231 196.55 483.891 194.86C480.611 192.5 475.031 197.74 468.191 220.97C467.765 221.231 467.392 221.571 467.091 221.97C465.451 219.3 462.991 214.15 456.581 213.35C448.281 212.27 452.681 219.4 457.161 226.26C460.001 230.56 460.381 239.19 461.931 243.83C462.067 244.8 462.407 245.731 462.931 246.56C460.931 250.94 449.441 275.82 429.401 315.83C407.241 360.01 410.251 382.83 426.481 388.54C442.711 394.25 460.121 384.64 469.311 334.31C475.681 299.51 486.891 257.66 486.891 257.66C486.891 257.66 488.891 255.15 494.511 249.5C500.131 243.85 502.321 231.38 505.321 221.78C508.321 212.18 502.551 211.66 499.001 217.26Z" fill="white"/>
<path fill-rule="evenodd" clip-rule="evenodd" d="M283.551 393.43L285.341 388.1H288.161L312.161 393.94L322.611 396.9L324.521 398.54V400.02L322.071 400.99L320.041 402.45L320.201 404.24H317.431L315.961 406.7L312.581 407.28L311.071 409.1L310.731 410.28L280.161 410.69L279.801 408.66L283.551 393.43Z" fill="white"/>
<path d="M373.621 319.059C379.951 310.179 387.751 305.199 396.861 304.209C400.16 303.87 403.492 304.083 406.721 304.839" stroke="#07005A" stroke-width="3" stroke-linecap="round" stroke-linejoin="round"/>
<path d="M375.512 349.28C376.035 341.667 378.503 334.315 382.682 327.93C389.052 318.11 398.472 312.1 410.582 309.93" stroke="#07005A" stroke-width="3" stroke-linecap="round" stroke-linejoin="round"/>
<path d="M164.91 342.56C169.91 339.82 198.23 336.41 209.91 349.74" stroke="#07005A" stroke-width="3" stroke-linecap="round" stroke-linejoin="round"/>
<path fill-rule="evenodd" clip-rule="evenodd" d="M159.57 347.229H159.66C159.66 347.179 159.57 347.229 159.57 347.229Z" fill="white"/>
<path d="M160.471 347.14C165.271 346.73 188.181 345.66 205.541 358.75" stroke="#07005A" stroke-width="3" stroke-linecap="round" stroke-linejoin="round"/>
<path fill-rule="evenodd" clip-rule="evenodd" d="M284.75 252.66L286 276C286 276 286.84 292.34 306.81 289.95C330.49 286.81 327.57 272.77 327.57 272.77L321.88 242.1" fill="white"/>
<path d="M284.75 252.66L286 276C286 276 286.84 292.34 306.81 289.95C330.49 286.81 327.57 272.77 327.57 272.77L321.88 242.1" stroke="#07005A" stroke-width="3" stroke-miterlimit="10"/>
<path d="M466.591 248.24C463.031 246.04 461.591 246.12 459.731 232.32C458.911 226.32 452.731 220.1 452.201 217C451.671 213.9 452.031 211.53 458.461 213.22C464.891 214.91 467.611 222.36 467.611 222.36C471.391 210.62 476.151 195.21 481.261 194.54C487.131 193.76 485.931 198.96 478.741 221.02" stroke="#07005A" stroke-width="3" stroke-linecap="round" stroke-linejoin="round"/>
<path d="M480.16 216.61C482.23 209.7 488.25 190.01 494.16 193.25C500.07 196.49 487.16 223.81 487.16 223.81" stroke="#07005A" stroke-width="3" stroke-linecap="round" stroke-linejoin="round"/>
<path d="M494.531 228C500.101 214.27 506.471 202.2 502.361 199.81C498.251 197.42 495.301 203.38 492.861 209.81" stroke="#07005A" stroke-width="3" stroke-linecap="round" stroke-linejoin="round"/>
<path d="M498.721 218C500.861 214.13 506.111 211.59 506.101 217.22C506.101 224.38 498.101 244.44 498.101 244.44C496.661 246.72 489.381 254.82 487.371 257.05C487.026 257.425 486.779 257.878 486.651 258.37C485.341 263.24 478.011 290.84 473.851 311.52C469.271 334.27 462.851 387.37 436.311 389.99C409.771 392.61 408.241 358.99 421.721 331.6C435.201 304.21 462.891 246.52 462.891 246.52" stroke="#07005A" stroke-width="3" stroke-linecap="round" stroke-linejoin="round"/>
<path fill-rule="evenodd" clip-rule="evenodd" d="M281.712 411.169L137.852 410.819C137.852 410.819 148.772 358.759 195.082 367.999C236.472 375.889 286.442 387.889 286.442 387.889" fill="white"/>
<path d="M281.712 411.169L137.852 410.819C137.852 410.819 148.772 358.759 195.082 367.999C236.472 375.889 286.442 387.889 286.442 387.889" stroke="#07005A" stroke-width="3" stroke-linecap="round" stroke-linejoin="round"/>
<path d="M299.25 390.9C308.61 392.74 321.54 396.5 322.6 396.9C323.66 397.3 327.14 399.31 323.33 400.6C319.52 401.89 318.78 401.3 318.78 401.3" stroke="#07005A" stroke-width="3" stroke-linecap="round" stroke-linejoin="round"/>
<path d="M314.621 403.46C323.621 406.67 320.871 402.46 313.551 397C306.231 391.54 291.681 389.1 285.141 387.6" stroke="#07005A" stroke-width="3" stroke-linecap="round" stroke-linejoin="round"/>
<path d="M303 396.59C311.55 400.95 323.91 407.86 310.78 407.24" stroke="#07005A" stroke-width="3" stroke-linecap="round" stroke-linejoin="round"/>
<path d="M300.151 401.631C303.601 403.271 308.701 405.961 310.151 406.781C311.601 407.601 313.431 411.081 307.321 410.691C301.211 410.301 277.711 411.161 277.711 411.161" stroke="#07005A" stroke-width="3" stroke-linecap="round" stroke-linejoin="round"/>
<path d="M283.41 387.17C327.99 391.64 353.48 374.12 355.6 364.17" stroke="#07005A" stroke-width="3" stroke-linecap="round" stroke-linejoin="round"/>
<path fill-rule="evenodd" clip-rule="evenodd" d="M282.001 163.329C273.881 163.329 259.001 170.469 259.001 184.329V217.899C259.001 217.899 258.281 249.339 289.551 253.559C323.551 258.149 331.061 227.929 331.061 213.319C331.061 199.859 332.591 176.739 327.341 170.039C322.091 163.339 315.721 163.119 311.441 163.119C307.161 163.119 282.001 163.329 282.001 163.329Z" fill="white" stroke="#07005A" stroke-width="3" stroke-miterlimit="10"/>
<path fill-rule="evenodd" clip-rule="evenodd" d="M305.461 208.269C306.701 208.269 307.701 206.719 307.701 204.809C307.701 202.899 306.701 201.359 305.461 201.359C304.221 201.359 303.221 202.899 303.221 204.809C303.221 206.719 304.221 208.269 305.461 208.269Z" fill="#07005A"/>
<path fill-rule="evenodd" clip-rule="evenodd" d="M272.861 209.121C274.091 209.121 275.101 207.571 275.101 205.671C275.101 203.771 274.101 202.211 272.861 202.211C271.621 202.211 270.611 203.761 270.611 205.671C270.611 207.581 271.621 209.121 272.861 209.121Z" fill="#07005A"/>
<path fill-rule="evenodd" clip-rule="evenodd" d="M336 191.419C337.899 184.871 338.908 178.097 339 171.279C338.8 161.979 333 153.589 324.69 151.369C317.78 149.509 313.81 153.149 313.81 153.149C313.81 153.149 317.41 139.249 305.06 130.599C302.999 129.115 300.64 128.099 298.145 127.622C295.651 127.146 293.083 127.22 290.62 127.839C278.8 131.039 277.75 143.139 277.75 143.139C277.75 143.139 258.83 119.939 236.28 141.559C233.99 143.739 232.04 148.779 231.28 152.089C226.8 171.909 260.28 186.299 275.5 184.479C292.23 182.479 301.09 177.239 305.26 171.609C302 175.099 312.77 201.299 336 191.419Z" fill="#07005A"/>
<path d="M322.4 197.351L332.19 191.811" stroke="#07005A" stroke-width="3" stroke-miterlimit="10"/>
<path d="M283.76 196.18C283.98 218.67 284.29 222.36 284.29 222.36C284.29 228.04 286.29 227.24 289.86 222.36" stroke="#07005A" stroke-width="3" stroke-linecap="round" stroke-linejoin="round"/>
<path d="M279.73 204.811H291.05" stroke="#07005A" stroke-width="3" stroke-linecap="round" stroke-linejoin="round"/>
<path d="M300.06 232.43C299.87 235.43 296.11 239.49 287.75 236.84" stroke="#07005A" stroke-width="3" stroke-linecap="round" stroke-linejoin="round"/>
<path d="M294.941 187.26C297.481 184.93 299.521 181.9 305.461 185.97" stroke="#07005A" stroke-width="3" stroke-linecap="round" stroke-linejoin="round"/>
<path d="M266.23 185.649C268.77 183.309 271.64 179.929 278.4 184.909" stroke="#07005A" stroke-width="3" stroke-linecap="round" stroke-linejoin="round"/>
<path opacity="0.1" fill-rule="evenodd" clip-rule="evenodd" d="M319.582 193.41L291.932 210.99L296.952 218.89L325.172 200.95L319.582 193.41Z" fill="#476FF5"/>
<path opacity="0.1" fill-rule="evenodd" clip-rule="evenodd" d="M317.381 190.58L290.441 207.71L291.381 209.19L317.971 192.28L317.381 190.58Z" fill="#476FF5"/>
<path d="M307.801 222.36C317.057 222.36 324.561 214.856 324.561 205.6C324.561 196.344 317.057 188.84 307.801 188.84C298.545 188.84 291.041 196.344 291.041 205.6C291.041 214.856 298.545 222.36 307.801 222.36Z" stroke="#07005A" stroke-width="3" stroke-miterlimit="10"/>
<path opacity="0.1" fill-rule="evenodd" clip-rule="evenodd" d="M274.31 193.41L246.66 210.99L251.69 218.89L279.9 200.95L274.31 193.41Z" fill="#476FF5"/>
<path opacity="0.1" fill-rule="evenodd" clip-rule="evenodd" d="M272.11 190.58L245.17 207.71L246.11 209.19L272.7 192.28L272.11 190.58Z" fill="#476FF5"/>
<path d="M262.99 222.36C272.247 222.36 279.75 214.856 279.75 205.6C279.75 196.344 272.247 188.84 262.99 188.84C253.734 188.84 246.23 196.344 246.23 205.6C246.23 214.856 253.734 222.36 262.99 222.36Z" stroke="#07005A" stroke-width="3" stroke-miterlimit="10"/>
<path fill-rule="evenodd" clip-rule="evenodd" d="M101.191 327.93C104.601 326.08 106.631 323.25 105.741 321.6C104.851 319.95 101.361 320.1 97.9507 321.94C94.5407 323.78 92.5107 326.62 93.4007 328.27C94.2907 329.92 97.7807 329.77 101.191 327.93Z" fill="#476FF5"/>
<path fill-rule="evenodd" clip-rule="evenodd" d="M97.2814 334.489C100.581 336.439 104.041 336.699 105.001 335.059C105.961 333.419 104.081 330.519 100.781 328.569C97.4814 326.619 94.0014 326.359 93.0514 327.999C92.1014 329.639 94.0014 332.539 97.2814 334.489Z" fill="#476FF5"/>
<path fill-rule="evenodd" clip-rule="evenodd" d="M93.0002 328.09C94.6902 327.94 95.8202 325.09 95.5202 321.6C95.2202 318.11 93.6302 315.48 91.9502 315.6C90.2702 315.72 89.1402 318.65 89.4302 322.09C89.7202 325.53 91.2702 328.23 93.0002 328.09Z" fill="#476FF5"/>
<path fill-rule="evenodd" clip-rule="evenodd" d="M92.2013 334.049C95.0612 332.109 96.6212 329.409 95.6812 328.049C94.7413 326.689 91.6812 327.119 88.8012 329.049C85.9212 330.979 84.3913 333.689 85.3313 335.049C86.2713 336.409 89.3413 335.999 92.2013 334.049Z" fill="#476FF5"/>
<path fill-rule="evenodd" clip-rule="evenodd" d="M89.5606 329.07C92.3506 330.41 95.1506 330.37 95.8206 328.98C96.4906 327.59 94.7606 325.39 91.9706 324.05C89.1806 322.71 86.3806 322.75 85.7106 324.14C85.0406 325.53 86.7706 327.73 89.5606 329.07Z" fill="#476FF5"/>
<path d="M95.0209 329.28C96.0206 329.28 96.8309 328.47 96.8309 327.47C96.8309 326.471 96.0206 325.66 95.0209 325.66C94.0213 325.66 93.2109 326.471 93.2109 327.47C93.2109 328.47 94.0213 329.28 95.0209 329.28Z" fill="white"/>
<path d="M53.5 411.16H1075.92" stroke="#07005A" stroke-width="3" stroke-linecap="round" stroke-linejoin="round"/>
<path d="M127.64 389C126.854 388.658 126.007 388.481 125.15 388.48C124.241 388.48 123.344 388.68 122.523 389.068C121.701 389.456 120.976 390.021 120.399 390.723C119.823 391.425 119.409 392.246 119.188 393.127C118.967 394.009 118.945 394.928 119.122 395.819C119.299 396.71 119.672 397.55 120.213 398.28C120.755 399.009 121.451 399.609 122.253 400.037C123.054 400.465 123.94 400.71 124.848 400.753C125.755 400.797 126.661 400.639 127.5 400.29" stroke="#07005A" stroke-width="2.33" stroke-miterlimit="10"/>
<path fill-rule="evenodd" clip-rule="evenodd" d="M126.26 397.63V403.05C126.26 404.839 126.969 406.556 128.233 407.823C129.496 409.09 131.21 409.805 133 409.81H144.41C146.203 409.81 147.922 409.098 149.19 407.83C150.458 406.562 151.17 404.843 151.17 403.05V386.34C151.17 385.653 150.897 384.994 150.411 384.509C149.925 384.023 149.267 383.75 148.58 383.75H128.85C128.163 383.75 127.504 384.023 127.018 384.509C126.533 384.994 126.26 385.653 126.26 386.34V397.63Z" fill="#476FF5"/>
<path fill-rule="evenodd" clip-rule="evenodd" d="M135.391 334.541C135.362 334.344 135.283 334.158 135.161 334.002C135.039 333.845 134.879 333.722 134.696 333.645C134.512 333.569 134.313 333.541 134.115 333.565C133.918 333.589 133.73 333.663 133.571 333.781C128.171 337.571 121.881 344.311 126.001 355.161C130.611 367.301 138.081 364.161 138.191 370.401V376.241C138.188 376.445 138.241 376.646 138.342 376.824C138.443 377.002 138.59 377.149 138.767 377.251C138.945 377.353 139.146 377.405 139.35 377.404C139.555 377.402 139.755 377.346 139.931 377.241C144.101 374.881 150.381 365.401 149.761 356.331C149.051 345.881 138.581 345.861 136.611 339.461C136.082 337.853 135.675 336.209 135.391 334.541Z" fill="white"/>
<path opacity="0.1" d="M250.702 101.77H216.852L210.852 45.03C210.832 44.8335 210.773 44.6429 210.679 44.4691C210.585 44.2953 210.458 44.1418 210.305 44.0173C210.152 43.8928 209.975 43.7998 209.786 43.7436C209.597 43.6874 209.398 43.6692 209.202 43.69L202.032 44.46C201.835 44.4786 201.644 44.5363 201.47 44.6299C201.296 44.7234 201.143 44.8508 201.019 45.0046C200.895 45.1583 200.803 45.3354 200.748 45.5252C200.694 45.715 200.678 45.9139 200.702 46.11L206.622 101.77H200.502V45.62C200.502 45.2221 200.344 44.8406 200.062 44.5593C199.781 44.278 199.399 44.12 199.002 44.12H170.182C169.784 44.12 169.402 44.278 169.121 44.5593C168.84 44.8406 168.682 45.2221 168.682 45.62V103.27C168.682 103.668 168.84 104.049 169.121 104.331C169.402 104.612 169.784 104.77 170.182 104.77H250.702C251.099 104.77 251.481 104.612 251.762 104.331C252.044 104.049 252.202 103.668 252.202 103.27C252.202 102.872 252.044 102.491 251.762 102.209C251.481 101.928 251.099 101.77 250.702 101.77ZM208.002 46.83L213.782 101.08L209.572 101.26L203.822 47.26L208.002 46.83ZM171.702 47.12H175.902V101.77H171.702V47.12ZM178.902 47.12H183.112V101.77H178.902V47.12ZM186.112 47.12H190.312V101.77H186.112V47.12ZM193.312 101.77V47.12H197.522V101.77H193.312Z" fill="#07005A"/>
<path fill-rule="evenodd" clip-rule="evenodd" d="M751.13 181.721V196.411C738.51 198.701 735.57 241.081 765 244.611H826.52C841.7 244.611 857.73 233.491 855.72 215.171C853.71 196.851 844.2 195.271 844.2 195.271V181.721H751.13Z" fill="#07005A"/>
<path fill-rule="evenodd" clip-rule="evenodd" d="M777.9 205.119L774.17 239.499C774.17 239.499 771.49 255.639 791.51 257.569C815.31 259.569 815.51 245.229 815.51 245.229L816.51 202.789" fill="white"/>
<path d="M777.9 205.119L774.17 239.499C774.17 239.499 771.49 255.639 791.51 257.569C815.31 259.569 815.51 245.229 815.51 245.229L816.51 202.789" stroke="#07005A" stroke-width="3" stroke-miterlimit="10"/>
<path fill-rule="evenodd" clip-rule="evenodd" d="M844.201 151.23C844.201 130.76 841.101 121.69 831.301 114.23C823.361 108.16 822.781 107.58 822.781 99.6298L819.121 96.5098C819.121 96.5098 814.001 117.3 818.121 120.25C822.241 123.2 830.951 128.75 833.381 154.25L844.161 155.13L844.201 151.23Z" fill="#07005A"/>
<path d="M819.4 104.58C822 105.68 848.3 108.95 848.3 140.93" stroke="#07005A" stroke-width="3" stroke-linecap="round" stroke-linejoin="round"/>
<path fill-rule="evenodd" clip-rule="evenodd" d="M832 182.43C837.52 183.97 849 186.93 850.26 170.15C851.52 153.37 837.31 154.34 832.14 155.88L833.87 157.17L832 182.43Z" fill="white" stroke="#07005A" stroke-width="3" stroke-linecap="round" stroke-linejoin="round"/>
<path fill-rule="evenodd" clip-rule="evenodd" d="M763.881 181.161C758.361 182.701 746.881 185.661 745.621 168.881C744.361 152.101 758.621 153.071 763.741 154.611L762.001 155.901L763.881 181.161Z" fill="white" stroke="#07005A" stroke-width="3" stroke-linecap="round" stroke-linejoin="round"/>
<path fill-rule="evenodd" clip-rule="evenodd" d="M785.37 121.749C777.25 121.749 762.37 128.889 762.37 142.749V176.329C762.37 176.329 761.66 207.759 792.92 211.979C826.92 216.569 834.43 186.349 834.43 171.739C834.43 158.279 835.961 135.159 830.711 128.459C825.461 121.759 819.09 121.539 814.81 121.539C810.53 121.539 785.37 121.749 785.37 121.749Z" fill="white" stroke="#07005A" stroke-width="3" stroke-miterlimit="10"/>
<path fill-rule="evenodd" clip-rule="evenodd" d="M751.131 155C751.131 155 757.461 152.95 759.981 153.82C762.501 154.69 789.121 158.92 810.731 143.82C832.341 128.72 819.901 116.64 821.861 106.16C823.821 95.6797 825.461 86.8397 795.671 91.7597C765.881 96.6797 751.131 115.33 751.131 145.76V155Z" fill="#07005A"/>
<path d="M754.541 152.35C751.281 152.8 748.381 156.35 748.381 193.11" stroke="#07005A" stroke-width="3" stroke-linecap="round" stroke-linejoin="round"/>
<path d="M755.291 176.07C755.611 176.07 755.871 175.81 755.871 175.49C755.871 175.17 755.611 174.91 755.291 174.91C754.971 174.91 754.711 175.17 754.711 175.49C754.711 175.81 754.971 176.07 755.291 176.07Z" fill="#FF8585" stroke="#FF8585" stroke-width="3" stroke-linecap="round" stroke-linejoin="round"/>
<path d="M840.631 177.07C840.951 177.07 841.211 176.81 841.211 176.49C841.211 176.17 840.951 175.91 840.631 175.91C840.31 175.91 840.051 176.17 840.051 176.49C840.051 176.81 840.31 177.07 840.631 177.07Z" fill="#FF8585" stroke="#FF8585" stroke-width="3" stroke-linecap="round" stroke-linejoin="round"/>
<path fill-rule="evenodd" clip-rule="evenodd" d="M803.52 153.32C805.22 153.39 807.11 155.32 808.52 154.5C809.93 153.68 808.45 151.11 806.04 150.19C803.63 149.27 798.8 149.93 798.93 151.89C799.06 153.85 801.83 153.26 803.52 153.32Z" fill="#07005A"/>
<path d="M787.641 160.561C787.668 164.605 787.471 168.648 787.051 172.671C786.701 174.371 785.551 177.991 786.741 179.671C786.928 179.929 787.169 180.145 787.446 180.302C787.724 180.46 788.032 180.555 788.35 180.583C788.668 180.61 788.988 180.569 789.289 180.462C789.589 180.354 789.863 180.183 790.091 179.961" stroke="#07005A" stroke-width="3" stroke-linecap="round" stroke-linejoin="round"/>
<path d="M789 189.339C790.89 190.449 796.08 190.339 797.4 187.189" stroke="#07005A" stroke-width="4" stroke-linecap="round" stroke-linejoin="round"/>
<path fill-rule="evenodd" clip-rule="evenodd" d="M801.861 165.221C803.091 165.221 804.101 163.681 804.101 161.771C804.101 159.861 803.101 158.311 801.861 158.311C800.621 158.311 799.611 159.861 799.611 161.771C799.611 163.681 800.621 165.221 801.861 165.221Z" fill="#07005A"/>
<path fill-rule="evenodd" clip-rule="evenodd" d="M774.512 163.999C775.512 163.999 776.342 162.739 776.342 161.179C776.342 159.619 775.522 158.359 774.512 158.359C773.502 158.359 772.682 159.629 772.682 161.179C772.682 162.729 773.502 163.999 774.512 163.999Z" fill="#07005A"/>
<path fill-rule="evenodd" clip-rule="evenodd" d="M771.84 225.1C782.94 225.33 814.77 219.69 816.46 213.81V209L809.25 211.78L794.15 212.29L777.15 206.91L771.84 225.1Z" fill="#07005A"/>
</g>
<mask id="path-179-inside-1" fill="white">
<path fill-rule="evenodd" clip-rule="evenodd" d="M98.2752 170.253C43.9997 170.253 0.000717163 144.901 0.000717163 113.627C0.000717163 82.3526 43.9997 57 98.2752 57C152.551 57 196.55 82.3526 196.55 113.627C196.55 121.423 193.816 128.851 188.87 135.61L204.346 151.061L182.462 142.856C165.255 159.275 133.99 170.253 98.2752 170.253Z"/>
</mask>
<path fill-rule="evenodd" clip-rule="evenodd" d="M98.2752 170.253C43.9997 170.253 0.000717163 144.901 0.000717163 113.627C0.000717163 82.3526 43.9997 57 98.2752 57C152.551 57 196.55 82.3526 196.55 113.627C196.55 121.423 193.816 128.851 188.87 135.61L204.346 151.061L182.462 142.856C165.255 159.275 133.99 170.253 98.2752 170.253Z" fill="white"/>
<path d="M188.87 135.61L187.457 137.025L186.243 135.813L187.256 134.429L188.87 135.61ZM204.346 151.061L205.759 149.646L203.644 152.934L204.346 151.061ZM182.462 142.856L181.081 141.409L181.989 140.543L183.164 140.984L182.462 142.856ZM2.00072 113.627C2.00072 128.245 12.3003 141.861 29.7831 151.935C47.2125 161.978 71.4238 168.253 98.2752 168.253V172.253C70.8511 172.253 45.9251 165.852 27.7861 155.401C9.70059 144.979 -1.99928 130.283 -1.99928 113.627H2.00072ZM98.2752 59C71.4238 59 47.2125 65.2755 29.7831 75.3184C12.3003 85.3922 2.00072 99.0086 2.00072 113.627H-1.99928C-1.99928 96.9706 9.70059 82.2737 27.7861 71.8526C45.9251 61.4008 70.8511 55 98.2752 55V59ZM194.55 113.627C194.55 99.0086 184.25 85.3922 166.767 75.3184C149.338 65.2755 125.127 59 98.2752 59V55C125.699 55 150.625 61.4008 168.764 71.8526C186.85 82.2737 198.55 96.9706 198.55 113.627H194.55ZM187.256 134.429C191.993 127.955 194.55 120.932 194.55 113.627H198.55C198.55 121.913 195.638 129.746 190.484 136.791L187.256 134.429ZM202.933 152.476L187.457 137.025L190.283 134.194L205.759 149.646L202.933 152.476ZM183.164 140.984L205.048 149.188L203.644 152.934L181.76 144.729L183.164 140.984ZM98.2752 168.253C133.661 168.253 164.362 157.363 181.081 141.409L183.843 144.303C166.148 161.187 134.319 172.253 98.2752 172.253V168.253Z" fill="#07005A" mask="url(#path-179-inside-1)"/>
<path d="M26.4886 113.38V109.32H28.7086C30.2886 109.32 30.9886 110.08 30.9886 111.36C30.9886 112.6 30.2886 113.38 28.7086 113.38H26.4886ZM33.8686 111.36C33.8686 108.94 32.1886 107.04 28.8286 107.04H23.6886V121H26.4886V115.64H28.8286C32.4286 115.64 33.8686 113.48 33.8686 111.36ZM38.6566 115.48C38.6566 113.34 39.6566 112.7 41.3166 112.7H42.0566V109.76C40.5166 109.76 39.3566 110.5 38.6566 111.64V109.92H35.8566V121H38.6566V115.48ZM48.7025 112.04C50.1425 112.04 51.3025 112.96 51.3425 114.42H46.0825C46.3025 112.9 47.3625 112.04 48.7025 112.04ZM53.9625 117.52H50.9425C50.5825 118.26 49.9225 118.86 48.7225 118.86C47.3225 118.86 46.2025 117.94 46.0625 116.3H54.1625C54.2225 115.94 54.2425 115.58 54.2425 115.22C54.2425 111.92 51.9825 109.74 48.7825 109.74C45.5025 109.74 43.2225 111.96 43.2225 115.46C43.2225 118.94 45.5625 121.18 48.7825 121.18C51.5225 121.18 53.3625 119.56 53.9625 117.52ZM56.7263 117.56C56.7263 120.1 58.1463 121 60.2663 121H62.0263V118.64H60.7263C59.8463 118.64 59.5463 118.32 59.5463 117.58V112.22H62.0263V109.92H59.5463V107.18H56.7263V109.92H55.4063V112.22H56.7263V117.56ZM64.4802 117.56C64.4802 120.1 65.9002 121 68.0202 121H69.7802V118.64H68.4802C67.6002 118.64 67.3002 118.32 67.3002 117.58V112.22H69.7802V109.92H67.3002V107.18H64.4802V109.92H63.1602V112.22H64.4802V117.56ZM71.7941 121H74.5941V109.92H71.7941V121ZM73.2141 108.6C74.1941 108.6 74.9341 107.88 74.9341 106.96C74.9341 106.04 74.1941 105.32 73.2141 105.32C72.2141 105.32 71.4941 106.04 71.4941 106.96C71.4941 107.88 72.2141 108.6 73.2141 108.6ZM76.6405 115.42C76.6405 118.88 78.8805 121.18 81.7005 121.18C83.4405 121.18 84.7005 120.32 85.3605 119.36V121.08C85.3605 123.14 84.1605 124.02 82.6205 124.02C81.2205 124.02 80.1805 123.36 79.9005 122.36H77.1205C77.4005 124.9 79.5805 126.46 82.7005 126.46C86.3405 126.46 88.1805 124.08 88.1805 121.08V109.92H85.3605V111.5C84.7005 110.54 83.4405 109.74 81.7005 109.74C78.8805 109.74 76.6405 111.96 76.6405 115.42ZM85.3605 115.46C85.3605 117.56 83.9605 118.72 82.4205 118.72C80.9205 118.72 79.5005 117.52 79.5005 115.42C79.5005 113.32 80.9205 112.2 82.4205 112.2C83.9605 112.2 85.3605 113.36 85.3605 115.46ZM94.5008 109.92L98.5808 121H101.981L106.081 109.92H103.101L100.301 118.42L97.5008 109.92H94.5008ZM112.413 112.04C113.853 112.04 115.013 112.96 115.053 114.42H109.793C110.013 112.9 111.073 112.04 112.413 112.04ZM117.673 117.52H114.653C114.293 118.26 113.633 118.86 112.433 118.86C111.033 118.86 109.913 117.94 109.773 116.3H117.873C117.933 115.94 117.953 115.58 117.953 115.22C117.953 111.92 115.693 109.74 112.493 109.74C109.213 109.74 106.933 111.96 106.933 115.46C106.933 118.94 109.273 121.18 112.493 121.18C115.233 121.18 117.073 119.56 117.673 117.52ZM122.797 115.48C122.797 113.34 123.797 112.7 125.457 112.7H126.197V109.76C124.657 109.76 123.497 110.5 122.797 111.64V109.92H119.997V121H122.797V115.48ZM130.883 111.54V106.2H128.083V121H130.883V119.42C131.563 120.38 132.803 121.18 134.543 121.18C137.383 121.18 139.603 118.88 139.603 115.42C139.603 111.96 137.383 109.74 134.543 109.74C132.863 109.74 131.563 110.52 130.883 111.54ZM136.743 115.42C136.743 117.52 135.323 118.72 133.803 118.72C132.303 118.72 130.883 117.56 130.883 115.46C130.883 113.36 132.303 112.2 133.803 112.2C135.323 112.2 136.743 113.32 136.743 115.42ZM141.638 121H144.438V106.2H141.638V121ZM147.204 121H150.004V109.92H147.204V121ZM148.624 108.6C149.604 108.6 150.344 107.88 150.344 106.96C150.344 106.04 149.604 105.32 148.624 105.32C147.624 105.32 146.904 106.04 146.904 106.96C146.904 107.88 147.624 108.6 148.624 108.6ZM154.191 108.6C155.171 108.6 155.891 107.88 155.891 106.96C155.891 106.04 155.171 105.32 154.191 105.32C153.171 105.32 152.451 106.04 152.451 106.96C152.451 107.88 153.171 108.6 154.191 108.6ZM152.771 109.92V122.84C152.771 123.58 152.471 123.9 151.611 123.9H150.811V126.28H152.051C154.191 126.28 155.571 125.38 155.571 122.82V109.92H152.771ZM158.637 121H161.477V112.22H163.417V109.92H161.477V109.46C161.477 108.22 161.937 107.78 163.297 107.82V105.46C160.177 105.38 158.637 106.64 158.637 109.36V109.92H157.377V112.22H158.637V121ZM170.937 116.46H173.297L173.617 106.8H170.597L170.937 116.46ZM173.877 119.5C173.877 118.58 173.157 117.86 172.177 117.86C171.157 117.86 170.437 118.58 170.437 119.5C170.437 120.42 171.157 121.14 172.177 121.14C173.157 121.14 173.877 120.42 173.877 119.5Z" fill="#07005A"/>
<defs>
<clipPath id="clip0">
<rect width="1025.42" height="431.78" fill="white" transform="translate(52)"/>
</clipPath>
</defs>
</svg>
