<svg width="18" height="18" viewBox="0 0 18 18" fill="none" xmlns="http://www.w3.org/2000/svg">
<path d="M15.4016 9V17H2.60156V9" stroke="#CAD4ED" stroke-width="1.5" stroke-linecap="round" stroke-linejoin="round"/>
<path d="M17 5.00055H1V9.00055H17V5.00055Z" stroke="#CAD4ED" stroke-width="1.5" stroke-linecap="round" stroke-linejoin="round"/>
<path d="M9 17.0005V5.00055" stroke="#CAD4ED" stroke-width="1.5" stroke-linecap="round" stroke-linejoin="round"/>
<path d="M8.99844 5H5.39844C4.868 5 4.3593 4.78929 3.98422 4.41421C3.60915 4.03914 3.39844 3.53043 3.39844 3C3.39844 2.46957 3.60915 1.96086 3.98422 1.58579C4.3593 1.21071 4.868 1 5.39844 1C8.19844 1 8.99844 5 8.99844 5Z" stroke="#CAD4ED" stroke-width="1.5" stroke-linecap="round" stroke-linejoin="round"/>
<path d="M9 5H12.6C13.1304 5 13.6391 4.78929 14.0142 4.41421C14.3893 4.03914 14.6 3.53043 14.6 3C14.6 2.46957 14.3893 1.96086 14.0142 1.58579C13.6391 1.21071 13.1304 1 12.6 1C9.8 1 9 5 9 5Z" stroke="#CAD4ED" stroke-width="1.5" stroke-linecap="round" stroke-linejoin="round"/>
</svg>
