<svg width="19" height="18" viewBox="0 0 19 18" fill="none" xmlns="http://www.w3.org/2000/svg">
<path d="M1 1H6.1C7.00174 1 7.86654 1.35821 8.50416 1.99584C9.14179 2.63346 9.5 3.49826 9.5 4.4V16.3C9.5 15.6237 9.23134 14.9751 8.75312 14.4969C8.27491 14.0187 7.6263 13.75 6.95 13.75H1V1Z" stroke="#CAD4ED" stroke-width="1.5" stroke-linecap="round" stroke-linejoin="round"/>
<path d="M18 1H12.9C11.9983 1 11.1335 1.35821 10.4958 1.99584C9.85821 2.63346 9.5 3.49826 9.5 4.4V16.3C9.5 15.6237 9.76866 14.9751 10.2469 14.4969C10.7251 14.0187 11.3737 13.75 12.05 13.75H18V1Z" stroke="#CAD4ED" stroke-width="1.5" stroke-linecap="round" stroke-linejoin="round"/>
</svg>
