<svg width="46" height="47" viewBox="0 0 46 47" fill="none" xmlns="http://www.w3.org/2000/svg">
<path d="M20.61 43.6479C13.6256 41.7578 9.26683 37.6569 8.44887 31.0806C6.86631 30.8877 5.36363 30.2781 4.09488 29.3145C2.82612 28.3508 1.83693 27.0677 1.22872 25.5967C0.620506 24.1257 0.415149 22.5197 0.6337 20.9433C0.852251 19.367 1.48685 17.877 2.47243 16.6262C3.45802 15.3753 4.75914 14.4086 6.2424 13.8251C7.72567 13.2415 9.33772 13.0622 10.9133 13.3055C12.4889 13.5488 13.9713 14.2059 15.2086 15.2095C16.4459 16.2131 17.3936 17.527 17.9544 19.0167C19.7008 18.5839 21.52 18.5306 23.2888 18.8604C25.0577 19.1903 26.7349 19.8954 28.207 20.9283C29.6792 21.9612 30.9119 23.2976 31.8217 24.8472C32.7316 26.3967 33.2974 28.1233 33.4808 29.91C33.4808 29.91 39.7742 20.5452 40.3195 9.40575C40.3195 9.40575 40.3195 7.2323 37.5967 6.688C34.8739 6.1437 34.3249 0.674653 40.3195 0.547899C46.3142 0.421145 45.2236 12.1049 45.2236 12.1049C45.2236 12.1049 47.1284 39.0214 39.7742 43.9163C32.42 48.8113 20.61 43.6479 20.61 43.6479Z" fill="#476FF5"/>
<path d="M31.8116 46.5707C30.3084 46.5632 28.8087 46.4247 27.3296 46.1569C24.9618 45.7397 22.6454 45.0711 20.4199 44.1624C13.0844 42.1604 8.89372 37.9216 7.9525 31.5616C5.56759 31.1714 3.42176 29.8875 1.95302 27.9718C0.484274 26.0562 -0.19664 23.6532 0.0492608 21.2535C0.277093 19.0381 1.27009 16.9709 2.85794 15.4064C4.44579 13.842 6.52954 12.8777 8.75179 12.679C10.736 12.526 12.7188 12.992 14.4263 14.0124C16.1338 15.0329 17.4816 16.5574 18.2835 18.3755C21.6644 17.6673 25.1888 18.3179 28.0924 20.1861C30.996 22.0543 33.0449 24.9895 33.7949 28.3554C35.4719 25.4625 39.3526 17.9169 39.7709 9.39085C39.7709 9.22681 39.6439 7.64239 37.4851 7.20994C35.9911 6.90797 34.9528 5.3981 35.1021 3.69811C35.2515 1.99812 36.7082 0.0781746 40.3087 0.00361354C40.9182 -0.021823 41.5257 0.0872763 42.088 0.323131C42.6503 0.558985 43.1536 0.915784 43.5619 1.36808C46.3631 4.37289 45.829 11.4338 45.7693 12.1198C45.8813 13.7378 47.5285 39.4203 40.0772 44.3786C37.8922 45.8326 35.0835 46.5707 31.8116 46.5707ZM9.54361 13.7639C9.31204 13.7639 9.07673 13.7639 8.84143 13.7937C6.87783 13.964 5.03455 14.8101 3.62695 16.1872C2.21934 17.5643 1.3349 19.3868 1.12494 21.343C0.895882 23.5383 1.54297 25.7353 2.92592 27.4577C4.30887 29.18 6.31621 30.2889 8.51275 30.5438C8.63373 30.5571 8.74669 30.6107 8.83343 30.6959C8.92016 30.7811 8.97561 30.893 8.99083 31.0135C9.73783 37.135 13.7081 41.2098 20.7561 43.1223L20.8307 43.1484C20.9092 43.1819 26.254 45.4784 31.8714 45.4784C34.5158 45.4784 37.2236 44.9676 39.4721 43.4727C42.3331 41.5714 44.1446 35.5841 44.7011 26.1633C44.9603 21.4966 44.9491 16.8188 44.6675 12.1533C44.6656 12.1235 44.6656 12.0937 44.6675 12.0639C44.6675 11.993 45.3024 4.84635 42.7477 2.10623C42.4466 1.77053 42.0747 1.5055 41.6589 1.33019C41.243 1.15487 40.7934 1.0736 40.3423 1.0922C37.4627 1.15185 36.316 2.5275 36.204 3.79504C36.1031 4.91346 36.768 5.95358 37.698 6.14371C40.2004 6.64327 40.8615 8.48866 40.8615 9.39458C40.3199 20.5899 33.9929 30.1188 33.9331 30.2008C33.8703 30.2932 33.7805 30.364 33.676 30.4037C33.5715 30.4434 33.4573 30.4501 33.3488 30.4228C33.2404 30.3956 33.1429 30.3357 33.0697 30.2513C32.9965 30.1669 32.9511 30.0621 32.9396 29.951C32.7665 28.2401 32.227 26.5863 31.3576 25.1017C30.4881 23.6171 29.3091 22.3364 27.9004 21.3465C26.4917 20.3565 24.8862 19.6804 23.1928 19.364C21.4994 19.0476 19.7576 19.0982 18.0855 19.5125C17.9559 19.5449 17.8188 19.5286 17.7004 19.4668C17.5819 19.4049 17.4904 19.3018 17.4431 19.177C16.8411 17.5738 15.7609 16.1935 14.3484 15.2222C12.9359 14.2509 11.2589 13.7354 9.54361 13.7452V13.7639Z" fill="#07005A"/>
<path d="M29.5331 26.7783C29.4176 26.7795 29.3048 26.744 29.2108 26.677C29.1168 26.61 29.0466 26.5149 29.0102 26.4055C28.7867 25.6285 28.4009 24.9075 27.8782 24.29C27.3554 23.6725 26.7076 23.1725 25.9774 22.8229C25.9082 22.7938 25.8457 22.7508 25.7939 22.6965C25.7421 22.6422 25.7021 22.5778 25.6764 22.5073C25.6508 22.4369 25.6399 22.3619 25.6446 22.2871C25.6493 22.2122 25.6695 22.1392 25.7038 22.0725C25.7381 22.0058 25.7858 21.9469 25.844 21.8995C25.9022 21.8521 25.9696 21.8172 26.0419 21.797C26.1142 21.7768 26.1899 21.7717 26.2643 21.7821C26.3387 21.7925 26.4102 21.8181 26.4742 21.8573C27.3379 22.2713 28.1039 22.8635 28.7213 23.5948C29.3388 24.3262 29.7937 25.18 30.056 26.0998C30.0798 26.1809 30.0843 26.2664 30.0692 26.3496C30.0542 26.4327 30.0199 26.5112 29.9692 26.5789C29.9184 26.6465 29.8526 26.7014 29.7769 26.7393C29.7013 26.7771 29.6178 26.7969 29.5331 26.797V26.7783Z" fill="white"/>
<path d="M24.4088 22.1783C24.363 22.1856 24.3164 22.1856 24.2706 22.1783C23.4833 21.9672 22.6729 21.8533 21.8578 21.8391C21.7132 21.8391 21.5745 21.7817 21.4722 21.6797C21.37 21.5776 21.3125 21.4391 21.3125 21.2948C21.3125 21.1504 21.37 21.012 21.4722 20.9099C21.5745 20.8078 21.7132 20.7505 21.8578 20.7505C22.7738 20.7603 23.6849 20.8855 24.5694 21.1233C24.6999 21.1543 24.8143 21.2325 24.8903 21.3428C24.9664 21.4531 24.9987 21.5877 24.981 21.7204C24.9633 21.8531 24.8969 21.9746 24.7947 22.0613C24.6924 22.1479 24.5616 22.1936 24.4275 22.1895L24.4088 22.1783Z" fill="white"/>
<path d="M39.7747 7.49316C40.5392 8.26871 41.3526 8.99468 42.2099 9.66662C41.123 10.4831 39.7598 14.0098 39.7598 14.0098C39.7598 14.0098 40.5927 8.85017 39.7747 7.49316Z" fill="#07005A"/>
<path d="M3.43695 15.5942C3.43695 15.5942 0.822458 23.796 10.3579 28.4299C14.1713 35.2262 15.9828 43.9274 34.9603 43.2489C41.3098 39.9869 43.5993 36.0948 44.8207 31.0396C42.3593 41.0494 43.4723 44.6059 33.3169 46.0338C23.9794 46.1046 22.9971 44.5202 22.9971 44.5202L18.306 42.9097L13.9547 40.6169L10.6791 37.2617L8.90498 33.377L8.44931 31.0806L6.12241 30.4729L3.64985 28.9518L1.5209 26.2341L0.549805 22.8341L1.02415 19.2887L2.1185 17.119L3.43695 15.5942Z" fill="#07005A"/>
</svg>
