<svg width="50" height="50" viewBox="0 0 50 50" fill="none" xmlns="http://www.w3.org/2000/svg">
<path d="M12.0717 8.7046L7.75049 13.0225L40.1599 45.4064L44.4811 41.0886L12.0717 8.7046Z" fill="#476FF5"/>
<path d="M44.9587 41.5681L40.6367 45.8833C40.5736 45.9464 40.4988 45.9964 40.4163 46.0306C40.3339 46.0647 40.2455 46.0823 40.1563 46.0823C40.0671 46.0823 39.9787 46.0647 39.8963 46.0306C39.8138 45.9964 39.739 45.9464 39.6759 45.8833L7.2663 13.4991C7.13983 13.372 7.06885 13.2 7.06885 13.0208C7.06885 12.8415 7.13983 12.6696 7.2663 12.5425L11.5883 8.22389C11.6513 8.16081 11.7262 8.11077 11.8086 8.07662C11.8911 8.04248 11.9794 8.0249 12.0687 8.0249C12.1579 8.0249 12.2463 8.04248 12.3287 8.07662C12.4111 8.11077 12.486 8.16081 12.5491 8.22389L44.9587 40.6081C45.0218 40.6711 45.0719 40.7459 45.1061 40.8283C45.1402 40.9106 45.1578 40.9989 45.1578 41.0881C45.1578 41.1773 45.1402 41.2655 45.1061 41.3479C45.0719 41.4303 45.0218 41.5051 44.9587 41.5681ZM40.158 44.4449L43.5191 41.0864L12.0704 9.66229L8.70922 13.0208L40.158 44.4449Z" fill="#07005A"/>
<path d="M44.4763 41.0864L46.8087 47.7322L40.1577 45.405L44.4763 41.0864Z" fill="#FFEED4"/>
<path d="M47.2885 48.2106C47.1982 48.3016 47.084 48.3652 46.959 48.3941C46.834 48.4229 46.7034 48.4157 46.5823 48.3735L39.9347 46.0462C39.826 46.0081 39.7287 45.943 39.652 45.8569C39.5754 45.7709 39.522 45.6667 39.4968 45.5543C39.4715 45.4431 39.4748 45.3272 39.5062 45.2175C39.5377 45.1078 39.5963 45.0078 39.6767 44.9267L43.9987 40.6082C44.0798 40.5267 44.1803 40.4672 44.2907 40.4351C44.4012 40.4031 44.518 40.3996 44.6302 40.425C44.742 40.4507 44.8455 40.5043 44.931 40.5809C45.0165 40.6574 45.0812 40.7543 45.1191 40.8626L47.4481 47.4982C47.4922 47.6198 47.5006 47.7515 47.4724 47.8777C47.4441 48.0039 47.3803 48.1194 47.2885 48.2106ZM41.4014 45.1235L45.6996 46.6297L44.1956 42.3349L41.4014 45.1235Z" fill="#07005A"/>
<path d="M6.30909 2.94546L7.47021 4.0955L9.44276 6.06311L5.09364 10.3817L3.12109 8.41407L1.98713 7.26403C0.527237 5.80528 0.180937 3.79018 1.50502 2.46713C2.82911 1.14408 4.84919 1.48672 6.30909 2.94546Z" fill="#FF8585"/>
<path d="M10.39 6.06276L5.09369 11.3414L1.50507 7.74201C-0.301118 5.93724 -0.504823 3.51504 1.01957 1.98505C2.54397 0.455066 4.97826 0.658612 6.79124 2.46678L10.39 6.06276ZM5.09369 9.42127L8.45483 6.06276L5.81345 3.42684C4.78813 2.37858 3.14151 1.79168 1.98718 2.94511C0.832844 4.09854 1.42699 5.74387 2.46589 6.78874L5.09369 9.42127Z" fill="#07005A"/>
<path d="M9.42965 6.06593L5.1084 10.3838L7.74916 13.0225L12.0704 8.70462L9.42965 6.06593Z" fill="#E1E9FE"/>
<path d="M13.0285 8.70232L7.74917 13.9809L4.14697 10.3816L9.42974 5.09277L13.0285 8.70232ZM7.74917 12.0608L11.1103 8.70232L9.42974 7.02307L6.0686 10.3816L7.74917 12.0608Z" fill="#07005A"/>
<path d="M10.8709 10.8637L9.91064 11.8232L41.3597 43.2477L42.32 42.2882L10.8709 10.8637Z" fill="#07005A"/>
<path d="M44.8637 28.0357C43.0948 29.8538 40.9151 31.2212 38.5077 32.0228C36.1002 32.8245 33.5354 33.037 31.0286 32.6426C29.2859 32.3895 27.508 32.5492 25.8384 33.1091C24.1688 33.6689 22.6543 34.6131 21.4171 35.8654L19.8418 37.4429L12.522 30.1322L13.2417 29.3994C14.6982 27.9403 15.8106 26.1748 16.4978 24.2317C17.1849 22.2885 17.4296 20.2167 17.214 18.1671C16.9625 15.819 17.2407 13.4444 18.0279 11.2177C18.8152 8.99101 20.0916 6.96882 21.7634 5.2996C28.1428 -1.07478 38.6608 -0.837308 44.9519 5.93738C50.7677 12.2168 50.7236 21.9972 44.8637 28.0357Z" fill="white"/>
<path d="M19.353 37.9212L12.0434 30.6105C11.9803 30.5475 11.9302 30.4727 11.896 30.3903C11.8618 30.3079 11.8442 30.2196 11.8442 30.1305C11.8442 30.0413 11.8618 29.953 11.896 29.8706C11.9302 29.7883 11.9803 29.7134 12.0434 29.6504L12.7733 28.9211C14.1617 27.5355 15.2218 25.8567 15.8757 24.0081C16.5297 22.1594 16.7608 20.1879 16.5521 18.2383C16.2989 15.91 16.5458 13.5545 17.2764 11.3292C18.0071 9.10388 19.2045 7.05998 20.7888 5.33403C22.3731 3.60807 24.3078 2.23982 26.4636 1.32066C28.6194 0.401498 30.9466 -0.047398 33.2899 0.00395827C35.5817 0.0434847 37.8415 0.548707 39.9317 1.48886C42.0218 2.42902 43.8986 3.78443 45.4477 5.47256C51.5589 12.0471 51.508 22.1599 45.3493 28.5038C43.5016 30.3949 41.2285 31.8178 38.7193 32.6539C36.2101 33.4901 33.5374 33.7153 30.9235 33.3109C29.286 33.0773 27.6165 33.2302 26.0488 33.7575C24.4811 34.2847 23.0588 35.1716 21.896 36.3471L20.3206 37.9212C20.2574 37.9853 20.1821 38.0362 20.0991 38.071C20.016 38.1057 19.9269 38.1236 19.8368 38.1236C19.7468 38.1236 19.6576 38.1057 19.5746 38.071C19.4915 38.0362 19.4162 37.9853 19.353 37.9212ZM13.4761 30.1186L19.8351 36.4692L20.9317 35.3735C22.2445 34.0487 23.8495 33.0497 25.6183 32.4565C27.387 31.8632 29.2703 31.6923 31.117 31.9573C33.5161 32.3285 35.9691 32.122 38.2721 31.3549C40.5752 30.5879 42.6616 29.2824 44.3579 27.5471C50.0107 21.7257 50.0447 12.4304 44.436 6.38513C43.0135 4.83504 41.2903 3.59029 39.3713 2.72657C37.4522 1.86285 35.3773 1.39821 33.2729 1.36093C31.121 1.31144 28.9834 1.72188 27.0031 2.56476C25.0228 3.40764 23.2456 4.66351 21.7903 6.2483C20.3351 7.83309 19.2356 9.71023 18.5652 11.754C17.8948 13.7979 17.6692 15.9612 17.9033 18.0992C18.133 20.2495 17.8778 22.4239 17.1563 24.4627C16.4349 26.5016 15.2655 28.353 13.7341 29.8811L13.4761 30.1186Z" fill="#07005A"/>
<path d="M21.1624 38.7624L16.1207 43.8002L15.4179 43.0979L15.9 42.6196L7.46321 34.1894L6.98111 34.6677L6.27832 33.9655L11.32 28.9277L21.1624 38.7624Z" fill="#476FF5"/>
<path d="M16.1211 44.7603L14.4575 43.0981L14.9396 42.6197L7.47036 35.1564L6.98147 35.6245L5.31787 33.9622L11.3204 27.9712L22.1236 38.7659L16.1211 44.7603ZM7.7182 33.4873L16.6032 42.3619L20.202 38.7659L11.3204 29.8879L7.7182 33.4873Z" fill="#07005A"/>
<path d="M7.47914 34.2061L4.11816 37.5645L12.5206 45.9603L15.8816 42.602L7.47914 34.2061Z" fill="#476FF5"/>
<path d="M12.5224 46.9215L3.15869 37.5652L7.47046 33.25L16.8409 42.6029L12.5224 46.9215ZM5.0939 37.5652L12.5359 45.0014L14.9397 42.6029L7.47046 35.1667L5.0939 37.5652Z" fill="#07005A"/>
<path d="M5.07875 38.5245L1.71777 41.8828L8.19965 48.3596L11.5606 45.0013L5.07875 38.5245Z" fill="#476FF5"/>
<path d="M8.20035 49.3197L0.758301 41.8835L5.09384 37.5649L12.5359 45.0012L8.20035 49.3197ZM2.67993 41.8835L8.20035 47.3996L10.6007 45.0012L5.09384 39.4851L2.67993 41.8835Z" fill="#07005A"/>
<path d="M7.71759 47.8779C6.97642 48.5606 5.99974 48.9304 4.99194 48.9099C3.98414 48.8894 3.02332 48.4802 2.31055 47.768C1.59778 47.0558 1.1883 46.0958 1.1678 45.0887C1.1473 44.0817 1.51736 43.1058 2.20056 42.3652L7.71759 47.8779Z" fill="white"/>
<path d="M1.838 48.2409C0.999358 47.4082 0.516317 46.2832 0.490361 45.1021C0.464404 43.9211 0.897551 42.7759 1.69881 41.9073L2.18091 41.3916L8.69949 47.9051L8.17665 48.3834C7.30648 49.1828 6.16035 49.6145 4.97861 49.5879C3.79686 49.5614 2.67132 49.0786 1.838 48.2409ZM2.27597 43.3999C1.91825 44.0153 1.77419 44.7316 1.86623 45.4373C1.95826 46.1429 2.28122 46.7984 2.78483 47.3016C3.28844 47.8048 3.94442 48.1275 4.65066 48.2195C5.3569 48.3115 6.07375 48.1675 6.6896 47.8101L2.27597 43.3999Z" fill="#07005A"/>
<path d="M18.1337 34.7764L17.1729 33.8197L33.1739 17.8312C33.0415 17.5699 32.9159 17.2952 32.7869 17.0068L34.0329 16.4606C34.0838 16.5827 34.1381 16.7015 34.1891 16.7999L35.3604 15.6329C35.5437 15.4293 37.2345 13.6551 39.2342 13.7535C40.3138 13.8077 41.2712 14.3777 42.0351 15.4497C42.5245 16.1443 42.8069 16.9632 42.8495 17.8116C42.8922 18.66 42.6934 19.5031 42.2762 20.2432C41.935 20.9404 41.4032 21.5268 40.7422 21.9345C40.0813 22.3421 39.3183 22.5544 38.5416 22.5466C37.4891 22.5059 35.632 21.953 33.8496 19.0592L18.1337 34.7764ZM34.8443 18.0822C36.3416 20.6876 37.7981 21.1693 38.6027 21.1998C39.1236 21.1955 39.6326 21.0441 40.0711 20.7632C40.5096 20.4823 40.8597 20.0833 41.0811 19.6122C41.3756 19.0968 41.5185 18.5087 41.4932 17.9158C41.468 17.3228 41.2757 16.749 40.9385 16.2605C40.4089 15.5311 39.8317 15.1579 39.1731 15.124C37.7471 15.0494 36.3721 16.5522 36.3585 16.5692L36.3348 16.5963L34.8443 18.0822Z" fill="#FFCE85"/>
<path d="M35.3099 20.9453C34.2338 19.7993 33.3796 18.4639 32.7907 17.0067C32.7548 16.925 32.7354 16.837 32.7335 16.7477C32.7317 16.6585 32.7475 16.5697 32.7799 16.4866C32.8124 16.4034 32.8609 16.3274 32.9228 16.263C32.9846 16.1986 33.0586 16.147 33.1404 16.1111C33.2222 16.0753 33.3103 16.0559 33.3996 16.054C33.4889 16.0522 33.5778 16.0679 33.661 16.1004C33.7442 16.1328 33.8202 16.1813 33.8847 16.2431C33.9492 16.3049 34.0008 16.3788 34.0367 16.4605C35.8056 20.4975 37.6559 21.1625 38.6065 21.21C39.1279 21.204 39.637 21.0509 40.0749 20.7681C40.5129 20.4854 40.8619 20.0846 41.0815 19.6121C41.376 19.0967 41.5189 18.5087 41.4936 17.9157C41.4684 17.3228 41.2761 16.749 40.9389 16.2604C40.8327 16.1146 40.7887 15.9327 40.8168 15.7545C40.8448 15.5764 40.9425 15.4167 41.0883 15.3105C41.2342 15.2043 41.4163 15.1604 41.5946 15.1884C41.7729 15.2164 41.9327 15.314 42.039 15.4598C42.5283 16.1544 42.8107 16.9733 42.8534 17.8217C42.896 18.6701 42.6972 19.5132 42.28 20.2533C41.9388 20.9505 41.407 21.5369 40.746 21.9446C40.0851 22.3522 39.3221 22.5645 38.5454 22.5568C37.7815 22.5262 36.5864 22.2243 35.3099 20.9453Z" fill="#FFCE85"/>
<path d="M16.1722 32.8156L15.2114 31.8556L30.9341 16.1486C28.0347 14.3676 27.5017 12.5085 27.444 11.4568C27.3828 9.95061 28.2656 8.52239 29.7492 7.72517C30.4896 7.30867 31.333 7.11054 32.1816 7.15377C33.0301 7.19701 33.849 7.47984 34.5431 7.96943C35.6126 8.7463 36.1829 9.686 36.2406 10.7682C36.3425 12.7663 34.5635 14.4524 34.3598 14.639L33.1885 15.8127L33.528 15.9722L32.9848 17.2138C32.6928 17.0883 32.4178 16.9594 32.1563 16.8305L16.1722 32.8156ZM34.2172 9.47228C34.0703 9.32701 33.9125 9.19318 33.7453 9.07197C33.2553 8.73587 32.6806 8.54428 32.0868 8.51909C31.4931 8.49389 30.9042 8.63611 30.3875 8.92949C29.9165 9.15135 29.5176 9.50136 29.2366 9.93938C28.9556 10.3774 28.8038 10.8857 28.7986 11.406C28.8326 12.2066 29.3147 13.6619 31.9187 15.1614L33.4091 13.6721L33.4363 13.6484C33.4363 13.6484 34.9573 12.2609 34.8826 10.836C34.845 10.3127 34.6066 9.82418 34.2172 9.47228Z" fill="#FFCE85"/>
<path d="M29.0527 14.6966C27.7727 13.4177 27.4706 12.2235 27.4434 11.4568C27.3823 9.95061 28.265 8.5224 29.7487 7.72517C30.4891 7.30867 31.3325 7.11054 32.181 7.15377C33.0295 7.19701 33.8484 7.47984 34.5426 7.96943C34.6776 8.07892 34.7654 8.23599 34.7879 8.40827C34.8105 8.58055 34.766 8.7549 34.6637 8.8954C34.5614 9.03589 34.4091 9.13182 34.2381 9.16341C34.0671 9.195 33.8905 9.15984 33.7447 9.06518C33.2548 8.72909 32.6801 8.5375 32.0863 8.5123C31.4925 8.48711 30.9037 8.62932 30.387 8.9227C29.916 9.14457 29.5171 9.49458 29.236 9.9326C28.955 10.3706 28.8032 10.8789 28.7981 11.3992C28.8354 12.3457 29.5008 14.1979 33.5512 15.9654C33.6375 15.9978 33.7163 16.0474 33.7827 16.1112C33.8492 16.175 33.902 16.2517 33.9379 16.3365C33.9737 16.4214 33.9919 16.5127 33.9914 16.6048C33.9908 16.6969 33.9714 16.7879 33.9345 16.8723C33.8976 16.9567 33.8439 17.0327 33.7766 17.0957C33.7093 17.1586 33.6299 17.2073 33.5432 17.2386C33.4565 17.2699 33.3644 17.2833 33.2723 17.2778C33.1803 17.2724 33.0904 17.2483 33.008 17.207C31.5452 16.6224 30.204 15.7712 29.0527 14.6966Z" fill="#FFCE85"/>
</svg>
