<svg width="32" height="51" viewBox="0 0 32 51" fill="none" xmlns="http://www.w3.org/2000/svg">
<path d="M22.8432 24.9886C22.8433 26.1665 23.2816 27.3045 24.0773 28.1928C24.8729 29.0811 25.9722 29.6597 27.1723 29.8218C27.5618 29.8665 27.9561 29.8493 28.3399 29.7708C28.6591 29.7113 29.1095 29.6263 29.6517 29.5498C30.0365 29.4903 30.4607 29.4307 30.9024 29.3755V41.4309H20.4469C20.4994 41.856 20.5606 42.2811 20.6218 42.6466C20.7049 43.161 20.788 43.6031 20.8492 43.9219C20.9336 44.293 20.9528 44.6753 20.906 45.0526C20.7466 46.1709 20.1932 47.2009 19.3402 47.967C18.4871 48.7331 17.3872 49.1881 16.2278 49.2542C15.0684 49.3204 13.9213 48.9938 12.9819 48.3299C12.0425 47.6661 11.3689 46.7062 11.0759 45.6137C10.9272 45.0231 10.9272 44.4063 11.0759 43.8156C11.1634 43.4585 11.277 42.9654 11.3733 42.3661C11.4257 42.077 11.4651 41.7667 11.5001 41.4436H0.979004V29.4265C1.17724 29.4463 1.36527 29.4718 1.5431 29.503C2.14655 29.5965 2.66692 29.7113 3.03424 29.7963C3.64185 29.9408 4.27634 29.9408 4.88395 29.7963C6.00776 29.5119 6.99537 28.8575 7.67853 27.9446C8.36169 27.0317 8.69815 25.9169 8.63059 24.7899C8.56304 23.6629 8.09564 22.5936 7.30802 21.764C6.52041 20.9345 5.4613 20.396 4.31111 20.2404C3.92886 20.198 3.54209 20.2152 3.16543 20.2914C2.85058 20.3509 2.3958 20.436 1.85357 20.5125C1.58246 20.555 1.28948 20.5975 0.979004 20.6357V8.63135H11.4738C11.417 8.20627 11.3558 7.78118 11.2945 7.41561C11.2158 6.90125 11.1284 6.45917 11.0672 6.14035C10.9864 5.76874 10.9687 5.3868 11.0147 5.00963C11.1799 3.89606 11.7358 2.87219 12.5884 2.11133C13.441 1.35046 14.5378 0.899341 15.6932 0.83433C16.8487 0.769318 17.9917 1.09441 18.9289 1.75457C19.8661 2.41474 20.5398 3.36942 20.8361 4.45702C20.9847 5.04768 20.9847 5.66447 20.8361 6.25513C20.7486 6.6122 20.6306 7.1053 20.5344 7.70467C20.4863 7.99372 20.4425 8.30403 20.4075 8.6271H30.9024V20.6825C30.5744 20.6485 30.2552 20.606 29.9535 20.5592C29.3456 20.4657 28.8296 20.3509 28.4579 20.2659C27.8518 20.1214 27.2187 20.1214 26.6126 20.2659C25.5346 20.5355 24.5794 21.1457 23.897 22.0006C23.2147 22.8555 22.844 23.9066 22.8432 24.9886Z" fill="#476FF5"/>
<path d="M15.9342 50.1109C14.6279 50.1117 13.3585 49.6904 12.3254 48.9132C11.2924 48.136 10.5545 47.047 10.2276 45.8176C10.044 45.0916 10.044 44.3331 10.2276 43.6071C10.3413 43.1438 10.4288 42.7059 10.5031 42.2809H0.979088C0.747138 42.2809 0.524688 42.1913 0.360674 42.0318C0.196661 41.8724 0.104519 41.6562 0.104519 41.4307V29.4263C0.104129 29.3059 0.130045 29.1868 0.180552 29.0769C0.23106 28.967 0.305007 28.8687 0.3975 28.7887C0.489693 28.7092 0.598123 28.6495 0.715683 28.6137C0.833243 28.5778 0.957279 28.5664 1.07966 28.5804L1.66125 28.6611C2.15975 28.7377 2.67138 28.8354 3.21798 28.9629C3.68759 29.0755 4.17829 29.0755 4.6479 28.9629C5.57003 28.725 6.37951 28.1852 6.93979 27.4345C7.50006 26.6838 7.77682 25.7683 7.72339 24.8423C7.66996 23.9163 7.2896 23.0366 6.64647 22.3515C6.00335 21.6665 5.13684 21.2181 4.19313 21.0819C3.90095 21.0503 3.60541 21.0661 3.31856 21.1286C2.98185 21.1881 2.51833 21.2732 1.9761 21.3539H1.87552C1.62627 21.3922 1.3639 21.4347 1.08841 21.4687C0.964726 21.4839 0.839141 21.4731 0.720072 21.4372C0.601003 21.4014 0.491201 21.3411 0.398029 21.2606C0.304857 21.1801 0.230466 21.0812 0.179845 20.9704C0.129223 20.8597 0.103541 20.7397 0.104519 20.6185V8.63114C0.104519 8.40566 0.196661 8.18942 0.360674 8.02998C0.524688 7.87054 0.747138 7.78097 0.979088 7.78097H10.4594C10.4594 7.70021 10.4332 7.62369 10.4244 7.54718C10.3457 7.04133 10.2626 6.61199 10.2014 6.31018C10.1088 5.84503 10.0955 5.36824 10.1621 4.8989C10.3579 3.59487 11.0104 2.39641 12.0096 1.50573C13.0087 0.615057 14.2934 0.0866843 15.6467 0.00976613C17.0001 -0.067152 18.3393 0.312093 19.4384 1.08351C20.5376 1.85493 21.3293 2.9713 21.6801 4.24427C21.866 4.97 21.866 5.72898 21.6801 6.45471C21.5664 6.91805 21.4746 7.35589 21.4046 7.78097H30.8893C31.1213 7.78097 31.3437 7.87054 31.5077 8.02998C31.6718 8.18942 31.7639 8.40566 31.7639 8.63114V20.6823C31.7636 20.8009 31.7378 20.9182 31.6881 21.0265C31.6384 21.1349 31.5659 21.2319 31.4753 21.3114C31.3843 21.3918 31.277 21.4527 31.1602 21.4901C31.0434 21.5274 30.9198 21.5404 30.7975 21.5282C30.4564 21.49 30.1285 21.4474 29.8267 21.4007H29.8005C29.302 21.3242 28.7904 21.2264 28.2438 21.0989C27.7742 20.9863 27.2834 20.9863 26.8138 21.0989C25.8867 21.3348 25.0723 21.8757 24.5092 22.6295C23.9461 23.3834 23.6691 24.3036 23.7252 25.2336C23.7814 26.1636 24.1674 27.046 24.8174 27.7306C25.4674 28.4152 26.3413 28.8597 27.2905 28.9885C27.5827 29.0196 27.8781 29.0038 28.165 28.9417C28.4974 28.8822 28.9609 28.7972 29.5031 28.7164C29.8923 28.6569 30.3252 28.5974 30.78 28.5421C30.9031 28.5275 31.028 28.5386 31.1463 28.5745C31.2647 28.6104 31.3738 28.6704 31.4665 28.7504C31.5585 28.83 31.6321 28.9275 31.6826 29.0367C31.7331 29.1458 31.7593 29.2641 31.7595 29.3838V41.4307C31.7595 41.6562 31.6674 41.8724 31.5034 42.0318C31.3394 42.1913 31.1169 42.2809 30.885 42.2809H21.4527C21.4527 42.3616 21.4527 42.4381 21.4877 42.5146C21.5664 43.0205 21.6495 43.4498 21.7107 43.7516C21.8106 44.2156 21.8313 44.6924 21.772 45.1629C21.5741 46.5325 20.8749 47.7867 19.8026 48.6956C18.7303 49.6045 17.3569 50.107 15.9342 50.1109ZM12.2435 42.4594C12.2415 42.4678 12.2415 42.4765 12.2435 42.4849C12.1648 42.9737 12.0599 43.4668 11.9331 44.0024C11.8173 44.459 11.8173 44.936 11.9331 45.3925C12.1739 46.2952 12.7297 47.0885 13.5055 47.6371C14.2813 48.1857 15.229 48.4554 16.1866 48.4002C17.1442 48.345 18.0525 47.9683 18.7561 47.3344C19.4598 46.7006 19.9152 45.8489 20.0447 44.9249C20.0811 44.6412 20.0663 44.3535 20.001 44.0747C19.9354 43.7516 19.8523 43.3011 19.7692 42.774C19.708 42.3956 19.6424 41.9705 19.5899 41.5327C19.5743 41.4125 19.5854 41.2904 19.6223 41.1746C19.6592 41.0589 19.7211 40.9522 19.8039 40.8616C19.8868 40.771 19.9886 40.6987 20.1025 40.6495C20.2164 40.6003 20.3398 40.5753 20.4645 40.5763H30.0148V30.353L29.7786 30.387C29.2539 30.4677 28.8166 30.5443 28.5061 30.6038C28.0288 30.7009 27.5384 30.721 27.0543 30.6633C25.7017 30.4838 24.4552 29.8532 23.528 28.8792C22.6007 27.9052 22.0503 26.6484 21.9707 25.3236C21.8912 23.9987 22.2875 22.6882 23.092 21.616C23.8964 20.5438 25.059 19.7765 26.3809 19.4453C27.126 19.2646 27.9054 19.2646 28.6504 19.4453C29.1314 19.5558 29.5775 19.6451 30.0148 19.7131V9.48131H20.3945C20.2715 9.48197 20.1497 9.4574 20.0372 9.40921C19.9246 9.36101 19.8238 9.29028 19.7412 9.20162C19.6587 9.11296 19.5963 9.00838 19.5582 8.89469C19.5201 8.78101 19.507 8.66079 19.5199 8.54187C19.5593 8.21031 19.603 7.89149 19.6511 7.59819C19.6511 7.59819 19.6511 7.59819 19.6511 7.57268C19.7298 7.08383 19.8304 6.59073 19.9616 6.05513C20.0774 5.59862 20.0774 5.12161 19.9616 4.6651C19.7185 3.76382 19.1617 2.97227 18.3859 2.42515C17.6101 1.87803 16.6632 1.60915 15.7064 1.66427C14.7496 1.7194 13.842 2.09512 13.1381 2.72749C12.4342 3.35987 11.9774 4.20982 11.8456 5.13269C11.8131 5.41672 11.8293 5.70402 11.8937 5.98286C11.9549 6.30593 12.0424 6.75652 12.1255 7.28362C12.1867 7.66195 12.2479 8.08703 12.3047 8.52487C12.3203 8.6451 12.3093 8.76718 12.2724 8.88293C12.2355 8.99868 12.1735 9.10542 12.0907 9.19599C12.0079 9.28656 11.9061 9.35888 11.7922 9.40809C11.6783 9.4573 11.5548 9.48226 11.4302 9.48131H1.85366V19.6536C2.29094 19.5813 2.69761 19.5091 2.98185 19.4581C3.45915 19.361 3.94962 19.3409 4.43363 19.3985C5.78605 19.5786 7.03213 20.2098 7.95888 21.1841C8.88562 22.1584 9.4355 23.4153 9.5145 24.74C9.59351 26.0648 9.19675 27.3751 8.39204 28.4469C7.58732 29.5188 6.42462 30.2857 5.10268 30.6165C4.3576 30.7972 3.57825 30.7972 2.83317 30.6165C2.49209 30.557 2.1685 30.4762 1.85366 30.4167V40.5805H11.5001C11.6233 40.5807 11.7449 40.6062 11.8572 40.6553C11.9695 40.7044 12.0698 40.7759 12.1517 40.8653C12.2331 40.9536 12.2946 41.0574 12.3322 41.1702C12.3699 41.2829 12.3829 41.402 12.3703 41.52C12.3485 41.8515 12.2916 42.1703 12.2435 42.4594Z" fill="#07005A"/>
<path d="M27.8809 18.4423C27.649 18.4423 27.4265 18.3527 27.2625 18.1932C27.0985 18.0338 27.0063 17.8176 27.0063 17.5921V16.5294C27.0063 16.3039 27.0985 16.0876 27.2625 15.9282C27.4265 15.7688 27.649 15.6792 27.8809 15.6792C28.1129 15.6792 28.3353 15.7688 28.4993 15.9282C28.6633 16.0876 28.7555 16.3039 28.7555 16.5294V17.5921C28.7555 17.7037 28.7329 17.8143 28.6889 17.9174C28.645 18.0206 28.5805 18.1143 28.4993 18.1932C28.4181 18.2722 28.3217 18.3348 28.2156 18.3775C28.1095 18.4203 27.9958 18.4423 27.8809 18.4423Z" fill="white"/>
<path d="M27.8808 14.8288C27.6488 14.8288 27.4264 14.7393 27.2624 14.5798C27.0984 14.4204 27.0062 14.2041 27.0062 13.9787V12.4909H22.9307C22.6988 12.4909 22.4763 12.4013 22.3123 12.2419C22.1483 12.0824 22.0562 11.8662 22.0562 11.6407C22.0562 11.4152 22.1483 11.199 22.3123 11.0395C22.4763 10.8801 22.6988 10.7905 22.9307 10.7905H27.8808C27.9956 10.7905 28.1094 10.8125 28.2155 10.8552C28.3216 10.898 28.418 10.9606 28.4992 11.0395C28.5804 11.1185 28.6448 11.2122 28.6888 11.3154C28.7327 11.4185 28.7553 11.5291 28.7553 11.6407V13.9787C28.7553 14.0903 28.7327 14.2009 28.6888 14.304C28.6448 14.4072 28.5804 14.5009 28.4992 14.5798C28.418 14.6588 28.3216 14.7214 28.2155 14.7641C28.1094 14.8068 27.9956 14.8288 27.8808 14.8288Z" fill="white"/>
<path d="M14.9413 47.4625C14.8029 47.4624 14.6666 47.4304 14.5434 47.369C13.6609 46.9263 12.9944 46.1622 12.6893 45.2436C12.6266 45.0346 12.6487 44.8102 12.7511 44.6166C12.8536 44.423 13.0285 44.275 13.2399 44.203C13.4512 44.1311 13.6829 44.1407 13.8872 44.2299C14.0915 44.3191 14.2528 44.4811 14.3379 44.6825C14.4167 44.9332 14.5458 45.1663 14.7177 45.3684C14.8895 45.5705 15.1008 45.7375 15.3393 45.86C15.5139 45.9469 15.6533 46.0884 15.7352 46.2618C15.8171 46.4351 15.8367 46.6302 15.7908 46.8156C15.7448 47.001 15.6361 47.1661 15.482 47.2842C15.328 47.4023 15.1375 47.4666 14.9413 47.4668V47.4625Z" fill="#F2F6FF"/>
</svg>
