<svg width="61" height="51" viewBox="0 0 61 51" fill="none" xmlns="http://www.w3.org/2000/svg">
<path d="M61 49.4976V50.0678H0V49.4976H9.95477H10.524H11.0933H35.3825H35.9518H36.5211H49.6144V49.8055H53.0301V49.4976H61Z" fill="#07005A"/>
<path d="M61.0002 48.9268H53.0303V49.497H61.0002V48.9268Z" fill="#07005A"/>
<path d="M57.5842 5.19723V22.937C57.5835 24.2049 57.1201 25.4289 56.2813 26.3784C55.4425 27.3279 54.2862 27.9375 53.0299 28.0924V27.5183C54.131 27.3655 55.1402 26.8201 55.8722 25.982C56.6041 25.144 57.0099 24.0696 57.0149 22.956V5.19723C57.0149 3.97009 56.5283 2.79321 55.6621 1.92549C54.7959 1.05777 53.6211 0.570289 52.3961 0.570289H50.2481C49.0231 0.570289 47.8483 1.05777 46.9821 1.92549C46.116 2.79321 45.6293 3.97009 45.6293 5.19723V22.937C45.6344 24.0506 46.0401 25.125 46.7721 25.963C47.5041 26.801 48.5132 27.3465 49.6143 27.4993V28.0734C48.3581 27.9185 47.2017 27.3089 46.3629 26.3594C45.5241 25.4099 45.0608 24.1859 45.0601 22.918V5.19723C45.0611 3.81915 45.608 2.4978 46.5807 1.52335C47.5534 0.548894 48.8724 0.001007 50.2481 0H52.3961C53.7718 0.001007 55.0908 0.548894 56.0635 1.52335C57.0362 2.4978 57.5832 3.81915 57.5842 5.19723Z" fill="#07005A"/>
<path d="M57.0149 5.19725V22.937C57.0099 24.0506 56.6042 25.125 55.8722 25.963C55.1402 26.8011 54.1311 27.3465 53.03 27.4993V26.9443C53.9814 26.7909 54.8473 26.3036 55.473 25.5695C56.0987 24.8354 56.4435 23.9023 56.4457 22.937V5.19725C56.4437 4.12198 56.0164 3.09132 55.2574 2.33099C54.4984 1.57065 53.4696 1.14261 52.3962 1.1406H50.2481C49.1748 1.14261 48.1459 1.57065 47.3869 2.33099C46.628 3.09132 46.2007 4.12198 46.1987 5.19725V22.937C46.2008 23.9023 46.5456 24.8354 47.1713 25.5695C47.7971 26.3036 48.663 26.7909 49.6143 26.9443V27.5183C48.5133 27.3655 47.5041 26.8201 46.7721 25.982C46.0401 25.144 45.6344 24.0696 45.6294 22.956V5.19725C45.6294 3.97011 46.116 2.79323 46.9822 1.92551C47.8484 1.05779 49.0232 0.570312 50.2481 0.570312H52.3962C53.6212 0.570313 54.796 1.05779 55.6622 1.92551C56.5283 2.79323 57.0149 3.97011 57.0149 5.19725Z" fill="#07005A"/>
<path d="M56.4457 5.19728V22.9371C56.4436 23.9024 56.0988 24.8354 55.4731 25.5695C54.8473 26.3036 53.9814 26.7909 53.0301 26.9443V22.0512H51.8915V16.6943C51.9838 16.6631 52.0663 16.608 52.1306 16.5346L54.7872 13.4931C54.8879 13.3791 54.9392 13.2298 54.93 13.0779C54.9207 12.9261 54.8516 12.7841 54.7379 12.6833C54.6242 12.5824 54.4751 12.531 54.3235 12.5403C54.1719 12.5495 54.0302 12.6187 53.9295 12.7327L51.8915 15.0671V7.64572C51.8915 7.49447 51.8315 7.34941 51.7248 7.24246C51.618 7.13551 51.4732 7.07543 51.3222 7.07543C51.1712 7.07543 51.0264 7.13551 50.9197 7.24246C50.8129 7.34941 50.7529 7.49447 50.7529 7.64572V17.4889L49.8345 16.5346C49.7287 16.4309 49.5867 16.3726 49.4387 16.372C49.2906 16.3714 49.1482 16.4286 49.0415 16.5315C48.9349 16.6343 48.8725 16.7748 48.8675 16.923C48.8625 17.0712 48.9153 17.2156 49.0148 17.3254L50.7529 19.1313V22.0512H49.6144V26.9443C48.663 26.7909 47.7971 26.3036 47.1714 25.5695C46.5457 24.8354 46.2009 23.9024 46.1987 22.9371V5.19728C46.2007 4.122 46.628 3.09135 47.387 2.33101C48.146 1.57068 49.1748 1.14263 50.2482 1.14062H52.3963C53.4696 1.14263 54.4985 1.57068 55.2574 2.33101C56.0164 3.09135 56.4437 4.122 56.4457 5.19728Z" fill="#FFCE85"/>
<path d="M51.8916 15.9416V15.0748L53.9296 12.7404C54.0303 12.6264 54.172 12.5572 54.3236 12.5479C54.4752 12.5387 54.6242 12.5901 54.738 12.6909C54.8517 12.7918 54.9208 12.9337 54.9301 13.0856C54.9393 13.2375 54.888 13.3868 54.7873 13.5008L52.1307 16.5423C52.0664 16.6157 51.9839 16.6707 51.8916 16.702V15.9416Z" fill="#07005A"/>
<path d="M53.0299 49.4976H49.6143V49.8055H53.0299V49.4976Z" fill="#07005A"/>
<path d="M53.0299 48.9268V49.497H49.6143V48.9268H50.1835V49.2347H52.4607V48.9268H53.0299Z" fill="#07005A"/>
<path d="M53.0302 28.0923V48.9268H52.4609V28.1341C52.6514 28.1318 52.8415 28.1178 53.0302 28.0923Z" fill="#07005A"/>
<path d="M53.0302 27.5181V28.0922C52.8415 28.1177 52.6514 28.1317 52.4609 28.134V27.5599C52.6514 27.5595 52.8417 27.5455 53.0302 27.5181Z" fill="#07005A"/>
<path d="M53.0302 26.9438V27.5179C52.8417 27.5454 52.6514 27.5594 52.4609 27.5598V26.9933C52.6516 26.9903 52.8419 26.9738 53.0302 26.9438Z" fill="#07005A"/>
<path d="M53.0302 22.0513V26.9443C52.8418 26.9743 52.6516 26.9908 52.4609 26.9938V22.6216H51.8916V22.0513H53.0302Z" fill="#FFCE85"/>
<path d="M52.4612 48.9268H50.1841V49.2347H52.4612V48.9268Z" fill="#07005A"/>
<path d="M52.4612 28.1343V48.927H50.1841V28.1343H50.7534V48.6647H51.8919V28.1343H52.4612Z" fill="#07005A"/>
<path d="M52.4609 27.5601V28.1341H51.8916V27.5639H52.4609V27.5601Z" fill="#07005A"/>
<path d="M52.4609 26.9937V27.5601H51.8916V26.9937H52.4609Z" fill="#07005A"/>
<path d="M52.4609 22.6211V26.9933H51.8916V22.6211H52.4609Z" fill="#FFCE85"/>
<path d="M51.8915 28.1343H50.7529V48.6647H51.8915V28.1343Z" fill="#FFF2F2"/>
<path d="M51.8915 27.5635V28.1338H50.7529V27.5635H51.0186C51.1086 27.6232 51.2142 27.655 51.3222 27.655C51.4302 27.655 51.5358 27.6232 51.6258 27.5635H51.8915Z" fill="#07005A"/>
<path d="M51.8913 27.085V27.564H51.6143C51.6977 27.5149 51.7671 27.4449 51.8157 27.361C51.8642 27.277 51.8903 27.182 51.8913 27.085Z" fill="#07005A"/>
<path d="M51.3222 26.9937H51.8915V27.0849C51.8916 27.1808 51.8673 27.2752 51.8208 27.359C51.7743 27.4428 51.7072 27.5134 51.6258 27.5639H51.0186C50.9372 27.5134 50.8701 27.4428 50.8236 27.359C50.7771 27.2752 50.7528 27.1808 50.7529 27.0849V26.9937H51.3222Z" fill="#07005A"/>
<path d="M51.8915 23.1914H51.3223V26.9933H51.8915V23.1914Z" fill="#07005A"/>
<path d="M51.8915 22.6211H51.3223V23.1914H51.8915V22.6211Z" fill="#07005A"/>
<path d="M51.8915 22.0513H51.3223V22.6216H51.8915V22.0513Z" fill="#07005A"/>
<path d="M51.8915 18.8916V22.051H51.3223V19.4619C51.4644 19.4587 51.6 19.4016 51.7018 19.3022C51.7604 19.251 51.8076 19.1879 51.8403 19.1172C51.873 19.0464 51.8905 18.9696 51.8915 18.8916Z" fill="#07005A"/>
<path d="M51.8915 16.6942V18.8918C51.8876 18.7495 51.8308 18.6139 51.7321 18.5116L51.3223 18.0857V16.584C51.4275 16.6755 51.5624 16.7256 51.7018 16.7247C51.7663 16.7259 51.8306 16.7156 51.8915 16.6942Z" fill="#07005A"/>
<path d="M51.8915 15.9415V16.7019C51.8308 16.7246 51.7666 16.7362 51.7018 16.7361C51.5624 16.737 51.4275 16.687 51.3223 16.5955V15.7248L51.8915 15.0747V15.9415Z" fill="#07005A"/>
<path d="M51.3222 15.7251L51.2729 15.7821C51.1747 15.8957 51.1248 16.0433 51.134 16.1933C51.1433 16.3433 51.2108 16.4837 51.3222 16.5843V18.0708L50.7529 17.4892V7.64597C50.7529 7.49472 50.8129 7.34967 50.9197 7.24272C51.0264 7.13577 51.1712 7.07568 51.3222 7.07568C51.4732 7.07568 51.618 7.13577 51.7248 7.24272C51.8315 7.34967 51.8915 7.49472 51.8915 7.64597V15.0749L51.3222 15.7251Z" fill="#07005A"/>
<path d="M51.7321 18.4961C51.8307 18.5985 51.8876 18.7341 51.8915 18.8763C51.8923 18.9531 51.8773 19.0293 51.8472 19.1C51.8172 19.1707 51.7728 19.2343 51.7169 19.2869C51.6151 19.3863 51.4795 19.4434 51.3374 19.4466V18.0703L51.7321 18.4961Z" fill="#07005A"/>
<path d="M51.0187 27.5635H51.6146C51.5245 27.6232 51.4189 27.655 51.3109 27.655C51.203 27.655 51.0974 27.6232 51.0073 27.5635H51.0187Z" fill="#07005A"/>
<path d="M51.3222 23.1914H50.7529V26.9933H51.3222V23.1914Z" fill="#07005A"/>
<path d="M51.3222 22.6211H50.7529V23.1914H51.3222V22.6211Z" fill="#07005A"/>
<path d="M51.3222 22.0513H50.7529V22.6216H51.3222V22.0513Z" fill="#07005A"/>
<path d="M51.3222 19.4618V22.0509H50.7529V19.1196L50.9123 19.2869C50.9651 19.3425 51.0287 19.3867 51.0992 19.4168C51.1697 19.4469 51.2456 19.4622 51.3222 19.4618Z" fill="#07005A"/>
<path d="M51.3222 18.8914V19.4617C51.2456 19.4621 51.1697 19.4468 51.0992 19.4167C51.0287 19.3867 50.9651 19.3425 50.9123 19.2868L50.7529 19.1196V18.2983L51.3222 18.8914Z" fill="#07005A"/>
<path d="M51.3222 18.0706V18.8919L50.7529 18.2988V17.4775L51.3222 18.0706Z" fill="#07005A"/>
<path d="M51.3226 15.7246V16.5838C51.2112 16.4832 51.1436 16.3428 51.1344 16.1928C51.1252 16.0428 51.175 15.8952 51.2732 15.7816L51.3226 15.7246Z" fill="#07005A"/>
<path d="M51.0186 27.564H50.7529V27.085C50.7528 27.1809 50.7771 27.2752 50.8236 27.3591C50.8701 27.4429 50.9372 27.5135 51.0186 27.564Z" fill="#07005A"/>
<path d="M50.7534 27.5639V28.1341H50.1841V27.5601H50.7534V27.5639Z" fill="#07005A"/>
<path d="M50.7534 27.0849V27.5639H50.1841V26.9937H50.7534V27.0849Z" fill="#07005A"/>
<path d="M50.7534 23.1914V26.9933H50.1841V22.6211H50.7534V23.1914Z" fill="#FFCE85"/>
<path d="M50.7528 22.0513V22.6216H50.1835V26.9938C49.9928 26.9908 49.8026 26.9743 49.6143 26.9443V22.0513H50.7528Z" fill="#FFCE85"/>
<path d="M50.753 18.2985V19.1197L49.0148 17.3138C48.9153 17.2039 48.8625 17.0596 48.8675 16.9114C48.8725 16.7632 48.935 16.6227 49.0416 16.5198C49.1482 16.417 49.2907 16.3598 49.4387 16.3604C49.5868 16.3609 49.7288 16.4193 49.8346 16.523L50.753 17.4887V18.2985Z" fill="#07005A"/>
<path d="M50.1835 28.1341V48.9268H49.6143V28.0923C49.803 28.1178 49.9931 28.1318 50.1835 28.1341Z" fill="#07005A"/>
<path d="M50.1835 27.5599V28.134C49.9931 28.1317 49.803 28.1177 49.6143 28.0922V27.5181C49.8028 27.5455 49.993 27.5595 50.1835 27.5599Z" fill="#07005A"/>
<path d="M50.1835 26.9933V27.5598C49.993 27.5594 49.8028 27.5454 49.6143 27.5179V26.9438C49.8026 26.9738 49.9928 26.9903 50.1835 26.9933Z" fill="#07005A"/>
<path d="M49.6144 48.9268H36.521V49.497H49.6144V48.9268Z" fill="#07005A"/>
<path d="M43.1626 27.2673V33.9435C43.1626 34.2793 43.0965 34.6118 42.9681 34.9221C42.8396 35.2323 42.6515 35.5141 42.4142 35.7514C42.177 35.9887 41.8954 36.1768 41.5855 36.305C41.2757 36.4331 40.9436 36.4989 40.6084 36.4984H36.0997V35.9281H40.6084C41.1338 35.9281 41.6377 35.719 42.0092 35.3468C42.3808 34.9746 42.5895 34.4698 42.5895 33.9435V27.2673C42.5895 26.7409 42.3808 26.2362 42.0092 25.864C41.6377 25.4918 41.1338 25.2827 40.6084 25.2827H5.48396C4.95854 25.2827 4.45464 25.4918 4.08312 25.864C3.71159 26.2362 3.50287 26.7409 3.50287 27.2673V30.0351H3.31311V31.1757H3.50287V33.9435C3.50287 34.4698 3.71159 34.9746 4.08312 35.3468C4.45464 35.719 4.95854 35.9281 5.48396 35.9281H10.2925V36.4984H5.48396C4.80756 36.4984 4.15886 36.2292 3.68058 35.7501C3.20229 35.2709 2.93359 34.6211 2.93359 33.9435V27.2673C2.93359 26.5897 3.20229 25.9398 3.68058 25.4607C4.15886 24.9816 4.80756 24.7124 5.48396 24.7124H40.6084C40.9436 24.7119 41.2757 24.7776 41.5855 24.9058C41.8954 25.034 42.177 25.2221 42.4142 25.4594C42.6515 25.6967 42.8396 25.9785 42.9681 26.2887C43.0965 26.5989 43.1626 26.9315 43.1626 27.2673Z" fill="#07005A"/>
<path d="M42.5933 30.0352V33.9435C42.5933 34.2045 42.542 34.4629 42.4422 34.7039C42.3424 34.9449 42.1961 35.1639 42.0117 35.3482C41.8274 35.5325 41.6085 35.6786 41.3677 35.7782C41.127 35.8777 40.8689 35.9286 40.6085 35.9281H36.0998V35.6848H34.9612V35.9281H11.4311V35.6848H10.2925V35.9281H5.48402C4.9586 35.9281 4.4547 35.719 4.08318 35.3469C3.71165 34.9747 3.50293 34.4699 3.50293 33.9435V31.1757H4.07221V33.9435C4.07321 34.3183 4.22227 34.6775 4.48682 34.9425C4.75137 35.2075 5.10989 35.3568 5.48402 35.3578H40.6085C40.9826 35.3568 41.3411 35.2075 41.6056 34.9425C41.8702 34.6775 42.0193 34.3183 42.0203 33.9435V31.1757H42.3998V30.0352H42.5933Z" fill="#07005A"/>
<path d="M42.5933 27.2678V30.0356H42.0241V27.2678C42.0231 26.8924 41.8735 26.5326 41.6081 26.2675C41.3427 26.0024 40.9832 25.8535 40.6085 25.8535H5.48402C5.10989 25.8545 4.75137 26.0038 4.48682 26.2688C4.22227 26.5339 4.07321 26.893 4.07221 27.2678V30.0356H3.50293V27.2678C3.50293 26.7415 3.71165 26.2367 4.08318 25.8645C4.4547 25.4923 4.9586 25.2832 5.48402 25.2832H40.6085C40.8689 25.2827 41.127 25.3337 41.3677 25.4332C41.6085 25.5327 41.8274 25.6788 42.0117 25.8631C42.1961 26.0475 42.3424 26.2664 42.4422 26.5075C42.542 26.7485 42.5933 27.0069 42.5933 27.2678Z" fill="#07005A"/>
<path d="M42.4034 30.606H42.0239V31.1762H42.4034V30.606Z" fill="#07005A"/>
<path d="M42.4034 30.0352H42.0239V30.6054H42.4034V30.0352Z" fill="#07005A"/>
<path d="M40.4223 40.4902C41.0987 40.4902 41.7474 40.7594 42.2257 41.2385C42.704 41.7177 42.9727 42.3675 42.9727 43.0451C42.9727 43.7227 42.704 44.3726 42.2257 44.8517C41.7474 45.3308 41.0987 45.6 40.4223 45.6H36.5209V45.0297H40.4223C40.9477 45.0297 41.4516 44.8206 41.8232 44.4485C42.1947 44.0763 42.4034 43.5715 42.4034 43.0451C42.4034 42.5188 42.1947 42.014 41.8232 41.6418C41.4516 41.2696 40.9477 41.0605 40.4223 41.0605H36.0996V40.4902H40.4223Z" fill="#07005A"/>
<path d="M42.0241 31.1753V33.9431C42.0231 34.3185 41.8735 34.6783 41.6081 34.9434C41.3428 35.2085 40.9833 35.3574 40.6085 35.3574H5.48407C5.10995 35.3564 4.75143 35.2071 4.48688 34.9421C4.22233 34.677 4.07327 34.3179 4.07227 33.9431V31.1753H42.0241Z" fill="#476FF5"/>
<path d="M42.0241 30.606H4.07227V31.1762H42.0241V30.606Z" fill="#07005A"/>
<path d="M42.0241 30.0352H4.07227V30.6054H42.0241V30.0352Z" fill="#07005A"/>
<path d="M42.0241 27.2673V30.0351H4.07227V27.2673C4.07327 26.8926 4.22233 26.5334 4.48688 26.2684C4.75143 26.0034 5.10995 25.854 5.48407 25.853H40.6085C40.9833 25.853 41.3428 26.0019 41.6081 26.267C41.8735 26.5322 42.0231 26.8919 42.0241 27.2673Z" fill="#476FF5"/>
<path d="M40.4224 41.061C40.9478 41.061 41.4517 41.2701 41.8232 41.6423C42.1947 42.0145 42.4035 42.5193 42.4035 43.0456C42.4035 43.572 42.1947 44.0768 41.8232 44.449C41.4517 44.8211 40.9478 45.0302 40.4224 45.0302H5.31312C4.7877 45.0302 4.2838 44.8211 3.91228 44.449C3.54075 44.0768 3.33203 43.572 3.33203 43.0456C3.33203 42.5193 3.54075 42.0145 3.91228 41.6423C4.2838 41.2701 4.7877 41.061 5.31312 41.061H40.4413H40.4224ZM41.8342 43.0456C41.8332 42.6708 41.6841 42.3117 41.4196 42.0467C41.155 41.7817 40.7965 41.6323 40.4224 41.6313H5.31312C4.93868 41.6313 4.57958 41.7803 4.31482 42.0456C4.05005 42.3108 3.90131 42.6705 3.90131 43.0456C3.90131 43.4207 4.05005 43.7805 4.31482 44.0457C4.57958 44.3109 4.93868 44.46 5.31312 44.46H40.4413C40.8122 44.454 41.1658 44.3025 41.4263 44.038C41.6868 43.7735 41.8332 43.4172 41.8342 43.0456Z" fill="#07005A"/>
<path d="M40.4229 41.6313C40.7973 41.6313 41.1564 41.7804 41.4212 42.0456C41.686 42.3108 41.8347 42.6706 41.8347 43.0457C41.8347 43.4208 41.686 43.7805 41.4212 44.0457C41.1564 44.311 40.7973 44.46 40.4229 44.46H5.31366C4.93923 44.46 4.58013 44.311 4.31536 44.0457C4.0506 43.7805 3.90186 43.4208 3.90186 43.0457C3.90186 42.6706 4.0506 42.3108 4.31536 42.0456C4.58013 41.7804 4.93923 41.6313 5.31366 41.6313H40.4229Z" fill="#476FF5"/>
<path d="M36.5209 48.9268H35.9517V49.497H36.5209V48.9268Z" fill="#07005A"/>
<path d="M36.5209 45.6001H35.9517V48.9268H36.5209V45.6001Z" fill="#07005A"/>
<path d="M36.5209 45.0298H35.9517V45.6001H36.5209V45.0298Z" fill="#07005A"/>
<path d="M36.0996 40.4902H35.5303V41.0605H36.0996V40.4902Z" fill="#07005A"/>
<path d="M36.0996 36.498H35.5303V40.4901H36.0996V36.498Z" fill="#07005A"/>
<path d="M36.0996 35.9282H35.5303V36.4985H36.0996V35.9282Z" fill="#07005A"/>
<path d="M36.0996 35.6851H35.5303V35.9284H36.0996V35.6851Z" fill="#07005A"/>
<path d="M35.9516 48.9268H35.3823V49.497H35.9516V48.9268Z" fill="#07005A"/>
<path d="M35.9516 45.6001H35.3823V48.9268H35.9516V45.6001Z" fill="#07005A"/>
<path d="M35.9516 45.0298H35.3823V45.6001H35.9516V45.0298Z" fill="#07005A"/>
<path d="M35.5307 40.4902H34.9614V41.0605H35.5307V40.4902Z" fill="#07005A"/>
<path d="M35.5307 36.498H34.9614V40.4901H35.5307V36.498Z" fill="#07005A"/>
<path d="M35.5307 35.9282H34.9614V36.4985H35.5307V35.9282Z" fill="#07005A"/>
<path d="M35.5307 35.6851H34.9614V35.9284H35.5307V35.6851Z" fill="#07005A"/>
<path d="M35.3824 48.9268H11.0933V49.497H35.3824V48.9268Z" fill="#07005A"/>
<path d="M35.3824 45.0298H11.0933V45.6001H35.3824V45.0298Z" fill="#07005A"/>
<path d="M34.9613 40.4902H11.4312V41.0605H34.9613V40.4902Z" fill="#07005A"/>
<path d="M34.9613 35.9282H11.4312V36.4985H34.9613V35.9282Z" fill="#07005A"/>
<path d="M20.5815 3.80153C22.041 3.80153 23.4407 4.38234 24.4727 5.41619C25.5048 6.45004 26.0845 7.85224 26.0845 9.31432C26.0845 10.7764 25.5048 12.1786 24.4727 13.2125C23.4407 14.2463 22.041 14.8271 20.5815 14.8271H9.19597C9.05186 14.8348 8.90744 14.8348 8.76332 14.8271C7.3144 14.6451 5.99699 13.894 5.10092 12.7389C4.20484 11.5838 3.8035 10.1195 3.98518 8.66799C4.16687 7.2165 4.91669 5.89675 6.0697 4.99909C7.22271 4.10142 8.68446 3.69937 10.1334 3.88137C10.617 3.04723 11.3108 2.35491 12.1453 1.87368C12.9798 1.39245 13.9258 1.13916 14.8888 1.13916C15.8517 1.13916 16.7977 1.39245 17.6322 1.87368C18.4668 2.35491 19.1605 3.04723 19.6441 3.88137C19.9537 3.82806 20.2674 3.80134 20.5815 3.80153ZM25.5153 9.31432C25.5151 8.56074 25.343 7.81718 25.012 7.14047C24.681 6.46377 24.1999 5.87184 23.6056 5.40995C23.0112 4.94807 22.3193 4.62845 21.5827 4.47553C20.8461 4.32262 20.0843 4.34046 19.3557 4.5277C18.9551 3.68381 18.3238 2.97099 17.5352 2.4719C16.7466 1.9728 15.8329 1.7079 14.9001 1.7079C13.9673 1.7079 13.0536 1.9728 12.265 2.4719C11.4764 2.97099 10.8452 3.68381 10.4446 4.5277C9.78229 4.35705 9.09182 4.32619 8.41698 4.43708C7.74215 4.54797 7.09769 4.79819 6.52452 5.17185C5.95135 5.54552 5.46199 6.03447 5.08748 6.60767C4.71297 7.18087 4.4615 7.82581 4.34903 8.50155C4.23657 9.17729 4.26556 9.86907 4.43416 10.533C4.60277 11.1969 4.90731 11.8185 5.32845 12.3582C5.7496 12.8979 6.27815 13.3441 6.88057 13.6683C7.48298 13.9925 8.1461 14.1878 8.82784 14.2416C8.95308 14.2416 9.07832 14.2416 9.20736 14.2416H20.5929C21.8968 14.2386 23.1465 13.7186 24.0689 12.7953C24.9912 11.8721 25.5113 10.6205 25.5153 9.31432Z" fill="#07005A"/>
<path d="M20.5816 4.37186C21.8901 4.37186 23.145 4.89259 24.0702 5.81948C24.9955 6.74638 25.5153 8.00353 25.5153 9.31436C25.5153 10.6252 24.9955 11.8823 24.0702 12.8092C23.145 13.7361 21.8901 14.2569 20.5816 14.2569H9.19601C9.06698 14.2569 8.94173 14.2569 8.81649 14.2569C8.13476 14.203 7.47164 14.0078 6.86922 13.6836C6.26681 13.3593 5.73825 12.9132 5.31711 12.3735C4.89596 11.8337 4.59142 11.2122 4.42282 10.5482C4.25421 9.88432 4.22522 9.19254 4.33769 8.5168C4.45016 7.84106 4.70162 7.19612 5.07613 6.62292C5.45064 6.04971 5.94001 5.56076 6.51318 5.1871C7.08635 4.81343 7.7308 4.56322 8.40563 4.45233C9.08047 4.34144 9.77095 4.3723 10.4332 4.54295C10.8339 3.69906 11.4651 2.98623 12.2537 2.48714C13.0423 1.98805 13.956 1.72314 14.8888 1.72314C15.8216 1.72314 16.7353 1.98805 17.5239 2.48714C18.3125 2.98623 18.9437 3.69906 19.3443 4.54295C19.7478 4.4334 20.1636 4.37591 20.5816 4.37186ZM24.946 9.31436C24.9449 8.64721 24.7917 7.98913 24.498 7.39034C24.2043 6.79155 23.778 6.26789 23.2515 5.85931C22.725 5.45074 22.1123 5.16805 21.4602 5.03281C20.808 4.89758 20.1337 4.91339 19.4886 5.07902L19.0331 5.19688L18.832 4.77486C18.4769 4.02862 17.9181 3.39839 17.2202 2.95717C16.5224 2.51595 15.714 2.28178 14.8888 2.28178C14.0636 2.28178 13.2552 2.51595 12.5574 2.95717C11.8595 3.39839 11.3007 4.02862 10.9456 4.77486L10.7444 5.19688L10.289 5.07902C9.70777 4.9428 9.10479 4.92749 8.51739 5.03402C7.92998 5.14056 7.37064 5.36667 6.87394 5.69839C6.37725 6.0301 5.95376 6.46036 5.62967 6.96257C5.30558 7.46477 5.08777 8.02824 4.98971 8.61813C4.89166 9.20802 4.91544 9.81179 5.0596 10.3921C5.20375 10.9724 5.4652 11.5169 5.82779 11.992C6.19039 12.4671 6.6464 12.8625 7.16765 13.154C7.68889 13.4455 8.26428 13.6267 8.85824 13.6866C8.97589 13.6866 9.08595 13.6866 9.19601 13.6866H20.5816C21.7388 13.6856 22.8483 13.2246 23.6666 12.4049C24.4849 11.5851 24.945 10.4736 24.946 9.31436Z" fill="#07005A"/>
<path d="M20.5815 4.94203C21.1547 4.94203 21.7222 5.05513 22.2517 5.27485C22.7812 5.49457 23.2624 5.81663 23.6676 6.22263C24.0729 6.62862 24.3944 7.11061 24.6137 7.64107C24.8331 8.17153 24.946 8.74008 24.946 9.31425C24.946 9.88841 24.8331 10.457 24.6137 10.9874C24.3944 11.5179 24.0729 11.9999 23.6676 12.4059C23.2624 12.8119 22.7812 13.1339 22.2517 13.3536C21.7222 13.5734 21.1547 13.6865 20.5815 13.6865H9.19595C9.08589 13.6865 8.97583 13.6865 8.85818 13.6865C8.25477 13.6393 7.66775 13.4668 7.13442 13.1802C6.6011 12.8935 6.13312 12.4988 5.76023 12.0213C5.38733 11.5437 5.11766 10.9936 4.96837 10.406C4.81907 9.81844 4.79339 9.20617 4.89298 8.60811C4.99257 8.01005 5.21524 7.43928 5.54685 6.93206C5.87845 6.42483 6.31174 5.99225 6.8192 5.66178C7.32665 5.33132 7.89716 5.1102 8.4945 5.01247C9.09183 4.91474 9.70293 4.94255 10.289 5.09411L10.7444 5.21197L10.9455 4.78996C11.3006 4.04371 11.8594 3.41349 12.5573 2.97227C13.2552 2.53104 14.0635 2.29687 14.8887 2.29688C15.714 2.29687 16.5223 2.53104 17.2202 2.97227C17.918 3.41349 18.4768 4.04371 18.8319 4.78996L19.0331 5.21197L19.4885 5.09411C19.8449 4.99697 20.2122 4.94587 20.5815 4.94203Z" fill="white"/>
<path d="M11.4311 40.4902H10.8618V41.0605H11.4311V40.4902Z" fill="#07005A"/>
<path d="M11.4311 36.498H10.8618V40.4901H11.4311V36.498Z" fill="#07005A"/>
<path d="M11.4311 35.9282H10.8618V36.4985H11.4311V35.9282Z" fill="#07005A"/>
<path d="M11.4311 35.6851H10.8618V35.9284H11.4311V35.6851Z" fill="#07005A"/>
<path d="M11.0932 48.9268H10.5239V49.497H11.0932V48.9268Z" fill="#07005A"/>
<path d="M11.0932 45.6001H10.5239V48.9268H11.0932V45.6001Z" fill="#07005A"/>
<path d="M11.0932 45.0298H10.5239V45.6001H11.0932V45.0298Z" fill="#07005A"/>
<path d="M10.8618 40.4902H10.2925V41.0605H10.8618V40.4902Z" fill="#07005A"/>
<path d="M10.8618 36.498H10.2925V40.4901H10.8618V36.498Z" fill="#07005A"/>
<path d="M10.8618 35.9282H10.2925V36.4985H10.8618V35.9282Z" fill="#07005A"/>
<path d="M10.8618 35.6851H10.2925V35.9284H10.8618V35.6851Z" fill="#07005A"/>
<path d="M10.5244 48.9268H9.95508V49.497H10.5244V48.9268Z" fill="#07005A"/>
<path d="M10.5244 45.6001H9.95508V48.9268H10.5244V45.6001Z" fill="#07005A"/>
<path d="M10.5244 45.0298H9.95508V45.6001H10.5244V45.0298Z" fill="#07005A"/>
<path d="M10.2923 40.4902V41.0605H5.31306C4.78764 41.0605 4.28375 41.2696 3.91222 41.6418C3.54069 42.014 3.33197 42.5188 3.33197 43.0451C3.33197 43.5715 3.54069 44.0763 3.91222 44.4485C4.28375 44.8206 4.78764 45.0297 5.31306 45.0297H9.95457V45.6H5.31306C4.63666 45.6 3.98797 45.3308 3.50968 44.8517C3.03139 44.3726 2.7627 43.7227 2.7627 43.0451C2.7627 42.3675 3.03139 41.7177 3.50968 41.2385C3.98797 40.7594 4.63666 40.4902 5.31306 40.4902H10.2923Z" fill="#07005A"/>
<path d="M9.95477 48.9268H0V49.497H9.95477V48.9268Z" fill="#07005A"/>
<path d="M4.07221 30.606H3.50293V31.1762H4.07221V30.606Z" fill="#07005A"/>
<path d="M4.07221 30.0352H3.50293V30.6054H4.07221V30.0352Z" fill="#07005A"/>
<path d="M3.50324 30.606H3.31348V31.1762H3.50324V30.606Z" fill="#07005A"/>
<path d="M3.50324 30.0352H3.31348V30.6054H3.50324V30.0352Z" fill="#07005A"/>
</svg>
