<svg width="52" height="54" viewBox="0 0 52 54" fill="none" xmlns="http://www.w3.org/2000/svg">
<path d="M43.2631 6.95996H35.71V23.4967H43.2631V6.95996Z" fill="#F2F6FF"/>
<path d="M43.2627 24.2154H35.7096C35.5188 24.2154 35.3358 24.1397 35.2009 24.0048C35.066 23.87 34.9902 23.6871 34.9902 23.4964V6.95971C34.9902 6.76902 35.066 6.58615 35.2009 6.45131C35.3358 6.31647 35.5188 6.24072 35.7096 6.24072H43.2627C43.4535 6.24072 43.6364 6.31647 43.7713 6.45131C43.9062 6.58615 43.982 6.76902 43.982 6.95971V23.4964C43.982 23.6871 43.9062 23.87 43.7713 24.0048C43.6364 24.1397 43.4535 24.2154 43.2627 24.2154ZM36.4289 22.7775H42.5433V7.6787H36.4289V22.7775Z" fill="#07005A"/>
<path d="M45.6906 52.9753H6.48633V20.4627L26.0885 5.1626L45.6906 20.4627V52.9753Z" fill="#476FF5"/>
<path d="M46.41 53.6943H5.76709V20.1104L26.0886 4.24951L46.41 20.1104V53.6943ZM7.20578 52.2563H44.9714V20.815L26.0886 6.07574L7.20578 20.815V52.2563Z" fill="#07005A"/>
<path d="M50.2079 27.2427C49.9154 27.5334 49.5197 27.6965 49.1073 27.6965C48.6949 27.6965 48.2992 27.5334 48.0067 27.2427L25.7969 5.05114L3.59078 27.2427C3.29877 27.5342 2.90292 27.698 2.49019 27.698C2.07746 27.698 1.6816 27.5342 1.38959 27.2427C1.09792 26.9508 0.934082 26.5552 0.934082 26.1427C0.934082 25.7301 1.09792 25.3345 1.38959 25.0426L25.7214 0.719238L25.7969 0.794732L25.8689 0.719238L50.2079 25.0426C50.3527 25.1869 50.4677 25.3583 50.5461 25.5471C50.6245 25.7359 50.6649 25.9383 50.6649 26.1427C50.6649 26.3471 50.6245 26.5494 50.5461 26.7382C50.4677 26.927 50.3527 27.0984 50.2079 27.2427Z" fill="#FF8585"/>
<path d="M49.1003 28.418C48.8017 28.4183 48.506 28.3597 48.2301 28.2456C47.9542 28.1315 47.7036 27.964 47.4925 27.7529L25.7971 6.06826L4.09809 27.7493C3.67169 28.1784 3.09224 28.4206 2.4872 28.4226C1.88215 28.4246 1.30109 28.1863 0.87183 27.7601C0.442571 27.3339 0.200279 26.7548 0.198255 26.15C0.196231 25.5453 0.434642 24.9645 0.86104 24.5355L25.2108 0.212102C25.2778 0.144816 25.3574 0.0914331 25.445 0.0550304C25.5327 0.0186278 25.6267 -7.49515e-05 25.7216 2.25737e-07H25.8691C26.0595 0.0008029 26.2419 0.0770801 26.3762 0.212102L50.7116 24.5319C50.9248 24.744 51.0939 24.9961 51.2093 25.2737C51.3247 25.5513 51.3841 25.849 51.3841 26.1496C51.3841 26.4502 51.3247 26.7479 51.2093 27.0255C51.0939 27.3031 50.9248 27.5552 50.7116 27.7673C50.499 27.9763 50.2472 28.1413 49.9707 28.2529C49.6942 28.3646 49.3985 28.4207 49.1003 28.418ZM49.6901 26.7356L50.2081 27.2425L49.7009 26.7356C49.8577 26.578 49.9458 26.3647 49.9458 26.1424C49.9458 25.9201 49.8577 25.7069 49.7009 25.5492L25.7935 1.66086L1.8969 25.5492C1.74008 25.7069 1.65205 25.9201 1.65205 26.1424C1.65205 26.3647 1.74008 26.578 1.8969 26.7356C2.05661 26.887 2.26839 26.9715 2.48856 26.9715C2.70872 26.9715 2.9205 26.887 3.08022 26.7356L25.2864 4.544C25.3532 4.47716 25.4325 4.42412 25.5198 4.38794C25.6072 4.35176 25.7008 4.33314 25.7953 4.33314C25.8899 4.33314 25.9835 4.35176 26.0708 4.38794C26.1581 4.42412 26.2374 4.47716 26.3043 4.544L48.5068 26.7356C48.6639 26.8921 48.8767 26.98 49.0985 26.98C49.3203 26.98 49.5331 26.8921 49.6901 26.7356Z" fill="#07005A"/>
<path d="M25.9985 27.0915C28.5808 27.0915 30.6742 24.9991 30.6742 22.4181C30.6742 19.837 28.5808 17.7446 25.9985 17.7446C23.4162 17.7446 21.3228 19.837 21.3228 22.4181C21.3228 24.9991 23.4162 27.0915 25.9985 27.0915Z" fill="#F2F6FF"/>
<path d="M25.9986 27.8107C24.9316 27.8107 23.8885 27.4944 23.0013 26.9019C22.114 26.3094 21.4225 25.4672 21.0142 24.4819C20.6059 23.4965 20.499 22.4123 20.7072 21.3663C20.9154 20.3203 21.4292 19.3594 22.1837 18.6053C22.9382 17.8511 23.8995 17.3376 24.9461 17.1295C25.9926 16.9214 27.0774 17.0282 28.0632 17.4364C29.049 17.8445 29.8916 18.5357 30.4844 19.4224C31.0773 20.3092 31.3937 21.3518 31.3937 22.4183C31.3937 23.8484 30.8253 25.22 29.8135 26.2313C28.8017 27.2426 27.4295 27.8107 25.9986 27.8107ZM25.9986 18.4639C25.2161 18.4639 24.4512 18.6958 23.8005 19.1303C23.1499 19.5648 22.6428 20.1824 22.3434 20.905C22.0439 21.6276 21.9656 22.4227 22.1182 23.1898C22.2709 23.9569 22.6477 24.6615 23.201 25.2145C23.7543 25.7675 24.4593 26.1442 25.2267 26.2967C25.9942 26.4493 26.7897 26.371 27.5126 26.0717C28.2356 25.7724 28.8535 25.2656 29.2882 24.6153C29.723 23.965 29.955 23.2004 29.955 22.4183C29.955 21.3695 29.5382 20.3637 28.7962 19.6221C28.0542 18.8805 27.0479 18.4639 25.9986 18.4639Z" fill="#07005A"/>
<path d="M25.9989 39.2676C27.5252 39.2676 28.9889 39.8736 30.0681 40.9523C31.1474 42.031 31.7537 43.494 31.7537 45.0195V52.9751H20.2441V45.0195C20.2441 43.494 20.8504 42.031 21.9297 40.9523C23.0089 39.8736 24.4726 39.2676 25.9989 39.2676Z" fill="white"/>
<path d="M32.4726 53.6943H19.5244V45.0197C19.5244 43.3035 20.2065 41.6576 21.4206 40.4441C22.6348 39.2306 24.2815 38.5488 25.9985 38.5488C27.7156 38.5488 29.3623 39.2306 30.5764 40.4441C31.7905 41.6576 32.4726 43.3035 32.4726 45.0197V53.6943ZM20.9631 52.2563H31.0339V45.0197C31.0339 43.6849 30.5034 42.4048 29.5591 41.4609C28.6148 40.5171 27.334 39.9868 25.9985 39.9868C24.663 39.9868 23.3823 40.5171 22.4379 41.4609C21.4936 42.4048 20.9631 43.6849 20.9631 45.0197V52.2563Z" fill="#07005A"/>
<path d="M23.1212 47.5543C23.5185 47.5543 23.8405 47.2695 23.8405 46.918C23.8405 46.5666 23.5185 46.2817 23.1212 46.2817C22.7239 46.2817 22.4019 46.5666 22.4019 46.918C22.4019 47.2695 22.7239 47.5543 23.1212 47.5543Z" fill="#07005A"/>
<path d="M26.718 17.7446H25.2793V27.0915H26.718V17.7446Z" fill="#07005A"/>
<path d="M30.6742 21.6992H21.3228V23.1372H30.6742V21.6992Z" fill="#07005A"/>
</svg>
