<svg width="59" height="59" viewBox="0 0 59 59" fill="none" xmlns="http://www.w3.org/2000/svg">
<path d="M45.3378 45.5099C45.4572 46.0066 45.5174 46.5157 45.5171 47.0266C45.5151 48.4 45.0812 49.7382 44.2767 50.8516C43.4723 51.9651 42.338 52.7975 41.0344 53.2313C41.0344 53.3416 41.0344 53.4519 41.0344 53.576C41.0346 54.312 40.8535 55.0367 40.5071 55.6862C40.1606 56.3356 39.6595 56.8898 39.0479 57.2996C38.4364 57.7095 37.7333 57.9625 37.0007 58.0362C36.2682 58.1099 35.5287 58.0021 34.8477 57.7223C34.1667 57.4426 33.5651 56.9994 33.0961 56.432C32.6271 55.8647 32.3051 55.1906 32.1586 54.4693C32.0121 53.748 32.0456 53.0017 32.2561 52.2964C32.4666 51.5911 32.8476 50.9485 33.3655 50.4254C32.7462 49.4062 32.4169 48.2374 32.4133 47.045C32.4096 45.8525 32.7317 44.6817 33.3448 43.6588C32.033 42.0171 31.3398 39.9669 31.3865 37.8662C31.4331 35.7656 32.2166 33.7481 33.6 32.1663C32.8206 31.053 32.4069 29.725 32.4161 28.3663C32.4254 27.0075 32.8572 25.6853 33.6517 24.5827C33.0457 24.0678 32.5876 23.401 32.3245 22.6507C32.0613 21.9004 32.0026 21.0936 32.1544 20.3131C32.3062 19.5327 32.6629 18.8066 33.188 18.2095C33.7132 17.6123 34.3878 17.1656 35.1426 16.9152C35.8975 16.6647 36.7054 16.6195 37.4835 16.7842C38.2616 16.949 38.9818 17.3177 39.5703 17.8526C40.1588 18.3874 40.5943 19.0692 40.8322 19.8279C41.0701 20.5865 41.1018 21.3948 40.924 22.1698C42.2544 22.5864 43.4172 23.4165 44.2433 24.5392C45.0693 25.6619 45.5155 27.0187 45.5171 28.4124C45.5198 29.1265 45.4033 29.836 45.1723 30.5117C46.4273 31.3126 47.4631 32.4134 48.186 33.7147C48.9089 35.0159 49.2963 36.4767 49.313 37.9651C49.3298 39.4535 48.9755 40.9226 48.282 42.2398C47.5886 43.5571 46.5779 44.6809 45.3412 45.5099H45.3378Z" fill="#476FF5"/>
<path d="M36.5517 58.7463C35.576 58.7463 34.6202 58.4703 33.7947 57.9503C32.9691 57.4302 32.3076 56.6874 31.8864 55.8075C31.4653 54.9276 31.3017 53.9466 31.4145 52.9777C31.5274 52.0089 31.9121 51.0917 32.5242 50.3321C31.9984 49.3088 31.7242 48.175 31.7242 47.0246C31.7242 45.8742 31.9984 44.7404 32.5242 43.7172C31.2969 42.0209 30.6559 39.9712 30.6983 37.8782C30.7406 35.7853 31.4639 33.7631 32.7587 32.1178C32.0867 30.9947 31.7318 29.7105 31.7318 28.4019C31.7318 27.0932 32.0867 25.809 32.7587 24.6859C32.1859 24.0683 31.7728 23.3203 31.5551 22.5067C31.3374 21.6931 31.3218 20.8387 31.5096 20.0178C31.6974 19.1968 32.083 18.4342 32.6328 17.7961C33.1826 17.158 33.88 16.6638 34.6644 16.3565C35.4487 16.0492 36.2963 15.9381 37.1334 16.0328C37.9705 16.1275 38.7718 16.4252 39.4676 16.8999C40.1634 17.3747 40.7327 18.0122 41.126 18.7569C41.5192 19.5017 41.7246 20.3312 41.7241 21.1734C41.7241 21.3526 41.7241 21.5181 41.6965 21.7077C43.0328 22.2461 44.1769 23.1728 44.9809 24.368C45.785 25.5632 46.212 26.9719 46.2068 28.4122C46.2086 29.024 46.131 29.6335 45.9758 30.2254C47.2101 31.1113 48.2179 32.2759 48.9171 33.6245C49.6163 34.9732 49.9872 36.4678 49.9996 37.9868C50.0121 39.5057 49.6657 41.0062 48.9887 42.3661C48.3116 43.726 47.3231 44.907 46.1034 45.813C46.1723 46.2137 46.2069 46.6197 46.2068 47.0263C46.2071 48.4606 45.7811 49.8625 44.983 51.0544C44.1849 52.2462 43.0506 53.1742 41.7241 53.7205C41.6864 55.0666 41.1248 56.3449 40.1589 57.2835C39.1929 58.222 37.8988 58.7469 36.5517 58.7463ZM36.5517 17.3816C35.7764 17.3828 35.0201 17.6215 34.3846 18.0656C33.7492 18.5096 33.2651 19.1377 32.9976 19.8652C32.7301 20.5926 32.692 21.3846 32.8885 22.1343C33.085 22.8841 33.5067 23.5557 34.0966 24.0586L34.5863 24.4722L34.2104 24.9893C33.5008 25.9754 33.1154 27.1576 33.1074 28.3723C33.0993 29.587 33.4691 30.7742 34.1656 31.7696L34.4828 32.204L34.138 32.6107C32.8542 34.0697 32.1251 35.9338 32.0784 37.8763C32.0317 39.8188 32.6705 41.7157 33.8828 43.2346L34.1828 43.6068L33.938 44.0205C33.3869 44.9339 33.0956 45.9803 33.0956 47.047C33.0956 48.1137 33.3869 49.1601 33.938 50.0735L34.2173 50.532L33.838 50.9146C33.4039 51.359 33.0856 51.9032 32.9112 52.4994C32.7368 53.0956 32.7116 53.7255 32.8377 54.3337C32.9639 54.9419 33.2376 55.5098 33.6348 55.9875C34.0319 56.4652 34.5404 56.838 35.1155 57.0732C35.6906 57.3084 36.3147 57.3987 36.9329 57.3363C37.5511 57.2739 38.1445 57.0606 38.661 56.7152C39.1774 56.3698 39.601 55.9029 39.8947 55.3555C40.1883 54.808 40.3428 54.1969 40.3448 53.5758C40.3448 53.4861 40.3448 53.4 40.3448 53.3103L40.2931 52.7622L40.8138 52.5899C41.9827 52.2017 42.9996 51.4552 43.72 50.4565C44.4405 49.4578 44.828 48.2576 44.8275 47.0263C44.8268 46.5702 44.7736 46.1156 44.6689 45.6716L44.5551 45.2063L44.9551 44.9374C46.0963 44.172 47.0289 43.1344 47.6686 41.9185C48.3083 40.7026 48.635 39.3466 48.6193 37.9728C48.6035 36.5991 48.2458 35.2509 47.5784 34.05C46.911 32.849 45.9549 31.8331 44.7965 31.094L44.3379 30.801L44.5172 30.2874C44.7247 29.6841 44.8296 29.0502 44.8275 28.4122C44.8327 27.1628 44.436 25.9449 43.6959 24.9382C42.9558 23.9314 41.9115 23.1892 40.7172 22.8211L40.1103 22.6315L40.2517 22.0076C40.3142 21.7339 40.3455 21.4541 40.3448 21.1734C40.3448 20.1677 39.9452 19.2033 39.2338 18.4922C38.5225 17.7811 37.5577 17.3816 36.5517 17.3816Z" fill="#07005A"/>
<path d="M45.172 30.5115C45.172 30.5115 43.9651 29.6187 42.9307 29.9634L45.172 30.5115Z" fill="#476FF5"/>
<path d="M45.1718 31.2011C45.0242 31.2014 44.8803 31.1543 44.7615 31.0667C44.5201 30.8909 43.7063 30.4324 43.1511 30.6186C43.0651 30.6471 42.9743 30.6584 42.8839 30.6518C42.7935 30.6453 42.7052 30.621 42.6242 30.5803C42.5432 30.5397 42.471 30.4834 42.4117 30.4149C42.3525 30.3464 42.3073 30.2668 42.2787 30.1808C42.2502 30.0948 42.2389 30.004 42.2455 29.9136C42.252 29.8233 42.2763 29.7351 42.317 29.6541C42.3577 29.5731 42.4139 29.5009 42.4825 29.4416C42.551 29.3824 42.6306 29.3372 42.7167 29.3087C44.0546 28.864 45.4304 29.8464 45.5821 29.9567C45.6991 30.0429 45.7859 30.1639 45.8301 30.3023C45.8742 30.4407 45.8735 30.5896 45.828 30.7275C45.7825 30.8655 45.6945 30.9856 45.5767 31.0707C45.4588 31.1557 45.3171 31.2014 45.1718 31.2011Z" fill="#07005A"/>
<path d="M33.6001 32.1665C33.6001 32.1665 34.6553 33.4109 35.3449 33.7556L33.6001 32.1665Z" fill="#476FF5"/>
<path d="M35.3452 34.4445C35.2387 34.4444 35.1336 34.4197 35.0383 34.3722C34.2452 33.9757 33.19 32.7486 33.0762 32.6107C32.9879 32.4709 32.9528 32.304 32.9773 32.1405C33.0018 31.977 33.0843 31.8277 33.2097 31.7199C33.3351 31.6121 33.4951 31.553 33.6605 31.5532C33.8259 31.5535 33.9857 31.6132 34.1107 31.7214C34.5496 32.2629 35.0627 32.7398 35.6348 33.1381C35.7739 33.2074 35.8855 33.3216 35.9515 33.4622C36.0175 33.6028 36.0341 33.7615 35.9986 33.9127C35.9631 34.0639 35.8775 34.1987 35.7558 34.2952C35.6341 34.3918 35.4833 34.4444 35.3279 34.4445H35.3452Z" fill="#07005A"/>
<path d="M45.3375 45.51C45.3375 45.4756 43.9582 46.165 43.2686 46.165L45.3375 45.51Z" fill="#476FF5"/>
<path d="M43.2756 46.854C43.0927 46.854 42.9173 46.7813 42.7879 46.652C42.6586 46.5227 42.5859 46.3474 42.5859 46.1645C42.5859 45.9817 42.6586 45.8063 42.7879 45.6771C42.9173 45.5478 43.0927 45.4751 43.2756 45.4751C43.8205 45.374 44.3494 45.2001 44.848 44.9581C44.9837 44.8639 45.1449 44.8135 45.31 44.8135C45.4752 44.8135 45.6364 44.8639 45.7721 44.9581C45.8693 45.0371 45.9431 45.1411 45.9857 45.2589C46.0282 45.3768 46.0378 45.5039 46.0135 45.6268C45.9913 45.7559 45.9329 45.876 45.8449 45.973C45.757 46.0701 45.6432 46.1401 45.5169 46.1749L45.3928 46.2266C44.6376 46.5541 43.8583 46.854 43.2756 46.854Z" fill="#07005A"/>
<path d="M33.3657 50.4253C33.7007 50.9311 34.1405 51.359 34.6554 51.68L33.3657 50.4253Z" fill="#476FF5"/>
<path d="M34.6546 52.3695C34.5481 52.3694 34.4431 52.3446 34.3477 52.2971C33.7237 51.9275 33.1909 51.422 32.7891 50.8183C32.6921 50.6657 32.659 50.481 32.697 50.3041C32.7349 50.1273 32.8408 49.9724 32.9919 49.873C33.143 49.7735 33.3272 49.7373 33.5047 49.7723C33.6822 49.8073 33.8388 49.9106 33.9409 50.06C34.2119 50.4665 34.5641 50.8127 34.9753 51.0769C35.1144 51.1461 35.226 51.2603 35.292 51.4009C35.358 51.5415 35.3746 51.7003 35.3391 51.8515C35.3036 52.0027 35.218 52.1375 35.0963 52.234C34.9746 52.3305 34.8238 52.3831 34.6684 52.3833L34.6546 52.3695Z" fill="#07005A"/>
<path d="M33.6514 24.5861C33.6514 24.5861 34.9996 23.4141 35.6893 23.4141L33.6514 24.5861Z" fill="#476FF5"/>
<path d="M33.6511 25.2754C33.5106 25.2753 33.3735 25.2323 33.2581 25.1522C33.1427 25.0721 33.0546 24.9587 33.0054 24.8271C32.9563 24.6955 32.9486 24.5521 32.9832 24.416C33.0179 24.2799 33.0933 24.1576 33.1993 24.0655C33.5442 23.7518 34.8097 22.7246 35.689 22.7246C35.8719 22.7246 36.0473 22.7972 36.1766 22.9265C36.306 23.0558 36.3786 23.2312 36.3786 23.414C36.3786 23.5969 36.306 23.7722 36.1766 23.9015C36.0473 24.0308 35.8719 24.1034 35.689 24.1034C35.4545 24.1034 34.6821 24.6033 34.1028 25.1065C33.9774 25.2153 33.8171 25.2753 33.6511 25.2754Z" fill="#07005A"/>
<path d="M45.172 30.5115C45.172 30.5115 43.9651 29.6187 42.9307 29.9634L45.172 30.5115Z" fill="#476FF5"/>
<path d="M45.1718 31.2011C45.0242 31.2014 44.8803 31.1543 44.7615 31.0667C44.5201 30.8909 43.7063 30.4324 43.1511 30.6186C43.0651 30.6471 42.9743 30.6584 42.8839 30.6518C42.7935 30.6453 42.7052 30.621 42.6242 30.5803C42.5432 30.5397 42.471 30.4834 42.4117 30.4149C42.3525 30.3464 42.3073 30.2668 42.2787 30.1808C42.2502 30.0948 42.2389 30.004 42.2455 29.9136C42.252 29.8233 42.2763 29.7351 42.317 29.6541C42.3577 29.5731 42.4139 29.5009 42.4825 29.4416C42.551 29.3824 42.6306 29.3372 42.7167 29.3087C44.0546 28.864 45.4304 29.8464 45.5821 29.9567C45.6991 30.0429 45.7859 30.1639 45.8301 30.3023C45.8742 30.4407 45.8735 30.5896 45.828 30.7275C45.7825 30.8655 45.6945 30.9856 45.5767 31.0707C45.4588 31.1557 45.3171 31.2014 45.1718 31.2011Z" fill="#07005A"/>
<path d="M33.6001 32.1665C33.6001 32.1665 34.6553 33.4109 35.3449 33.7556L33.6001 32.1665Z" fill="#476FF5"/>
<path d="M35.3452 34.4445C35.2387 34.4444 35.1336 34.4197 35.0383 34.3722C34.2452 33.9757 33.19 32.7486 33.0762 32.6107C32.9879 32.4709 32.9528 32.304 32.9773 32.1405C33.0018 31.977 33.0843 31.8277 33.2097 31.7199C33.3351 31.6121 33.4951 31.553 33.6605 31.5532C33.8259 31.5535 33.9857 31.6132 34.1107 31.7214C34.5496 32.2629 35.0627 32.7398 35.6348 33.1381C35.7739 33.2074 35.8855 33.3216 35.9515 33.4622C36.0175 33.6028 36.0341 33.7615 35.9986 33.9127C35.9631 34.0639 35.8775 34.1987 35.7558 34.2952C35.6341 34.3918 35.4833 34.4444 35.3279 34.4445H35.3452Z" fill="#07005A"/>
<path d="M45.3375 45.51C45.3375 45.4756 43.9582 46.165 43.2686 46.165L45.3375 45.51Z" fill="#476FF5"/>
<path d="M43.2756 46.854C43.0927 46.854 42.9173 46.7813 42.7879 46.652C42.6586 46.5227 42.5859 46.3474 42.5859 46.1645C42.5859 45.9817 42.6586 45.8063 42.7879 45.6771C42.9173 45.5478 43.0927 45.4751 43.2756 45.4751C43.8205 45.374 44.3494 45.2001 44.848 44.9581C44.9837 44.8639 45.1449 44.8135 45.31 44.8135C45.4752 44.8135 45.6364 44.8639 45.7721 44.9581C45.8693 45.0371 45.9431 45.1411 45.9857 45.2589C46.0282 45.3768 46.0378 45.5039 46.0135 45.6268C45.9913 45.7559 45.9329 45.876 45.8449 45.973C45.757 46.0701 45.6432 46.1401 45.5169 46.1749L45.3928 46.2266C44.6376 46.5541 43.8583 46.854 43.2756 46.854Z" fill="#07005A"/>
<path d="M33.3657 50.4253C33.7007 50.9311 34.1405 51.359 34.6554 51.68L33.3657 50.4253Z" fill="#476FF5"/>
<path d="M34.6546 52.3695C34.5481 52.3694 34.4431 52.3446 34.3477 52.2971C33.7237 51.9275 33.1909 51.422 32.7891 50.8183C32.6921 50.6657 32.659 50.481 32.697 50.3041C32.7349 50.1273 32.8408 49.9724 32.9919 49.873C33.143 49.7735 33.3272 49.7373 33.5047 49.7723C33.6822 49.8073 33.8388 49.9106 33.9409 50.06C34.2119 50.4665 34.5641 50.8127 34.9753 51.0769C35.1144 51.1461 35.226 51.2603 35.292 51.4009C35.358 51.5415 35.3746 51.7003 35.3391 51.8515C35.3036 52.0027 35.218 52.1375 35.0963 52.234C34.9746 52.3305 34.8238 52.3831 34.6684 52.3833L34.6546 52.3695Z" fill="#07005A"/>
<path d="M33.6514 24.5861C33.6514 24.5861 34.9996 23.4141 35.6893 23.4141L33.6514 24.5861Z" fill="#476FF5"/>
<path d="M33.6511 25.2754C33.5106 25.2753 33.3735 25.2323 33.2581 25.1522C33.1427 25.0721 33.0546 24.9587 33.0054 24.8271C32.9563 24.6955 32.9486 24.5521 32.9832 24.416C33.0179 24.2799 33.0933 24.1576 33.1993 24.0655C33.5442 23.7518 34.8097 22.7246 35.689 22.7246C35.8719 22.7246 36.0473 22.7972 36.1766 22.9265C36.306 23.0558 36.3786 23.2312 36.3786 23.414C36.3786 23.5969 36.306 23.7722 36.1766 23.9015C36.0473 24.0308 35.8719 24.1034 35.689 24.1034C35.4545 24.1034 34.6821 24.6033 34.1028 25.1065C33.9774 25.2153 33.8171 25.2753 33.6511 25.2754Z" fill="#07005A"/>
<path d="M14.6624 45.5099C14.543 46.0066 14.4828 46.5157 14.483 47.0266C14.4851 48.4 14.919 49.7382 15.7234 50.8516C16.5278 51.9651 17.6621 52.7975 18.9657 53.2313C18.9657 53.3416 18.9657 53.4519 18.9657 53.576C18.9655 54.312 19.1466 55.0367 19.493 55.6862C19.8395 56.3356 20.3406 56.8898 20.9522 57.2996C21.5637 57.7095 22.2669 57.9625 22.9994 58.0362C23.732 58.1099 24.4714 58.0021 25.1524 57.7223C25.8334 57.4426 26.435 56.9994 26.904 56.432C27.373 55.8647 27.695 55.1906 27.8415 54.4693C27.988 53.748 27.9546 53.0017 27.7441 52.2964C27.5336 51.5911 27.1525 50.9485 26.6346 50.4254C27.254 49.4062 27.5832 48.2374 27.5868 47.045C27.5905 45.8525 27.2684 44.6817 26.6553 43.6588C27.9671 42.0171 28.6603 39.9669 28.6136 37.8662C28.567 35.7656 27.7836 33.7481 26.4001 32.1663C27.1795 31.053 27.5933 29.725 27.584 28.3663C27.5747 27.0075 27.1429 25.6853 26.3484 24.5827C26.9545 24.0678 27.4125 23.401 27.6757 22.6507C27.9388 21.9004 27.9975 21.0936 27.8457 20.3131C27.694 19.5327 27.3372 18.8066 26.8121 18.2095C26.287 17.6123 25.6124 17.1656 24.8575 16.9152C24.1026 16.6647 23.2947 16.6195 22.5166 16.7842C21.7385 16.949 21.0183 17.3177 20.4298 17.8526C19.8413 18.3874 19.4058 19.0692 19.1679 19.8279C18.93 20.5865 18.8983 21.3948 19.0761 22.1698C17.7457 22.5864 16.5829 23.4165 15.7569 24.5392C14.9308 25.6619 14.4846 27.0187 14.483 28.4124C14.4803 29.1265 14.5969 29.836 14.8279 30.5117C13.5728 31.3126 12.537 32.4134 11.8141 33.7147C11.0912 35.0159 10.7039 36.4767 10.6871 37.9651C10.6703 39.4535 11.0247 40.9226 11.7181 42.2398C12.4115 43.5571 13.4222 44.6809 14.6589 45.5099H14.6624Z" fill="#476FF5"/>
<path d="M23.4482 58.7463C22.1012 58.7469 20.807 58.222 19.8411 57.2835C18.8751 56.3449 18.3136 55.0666 18.2759 53.7205C16.9493 53.1742 15.8151 52.2462 15.017 51.0544C14.2189 49.8625 13.7929 48.4606 13.7932 47.0263C13.7928 46.6197 13.8274 46.2137 13.8966 45.813C12.6769 44.907 11.6883 43.726 11.0113 42.3661C10.3343 41.0062 9.98789 39.5057 10.0003 37.9868C10.0128 36.4678 10.3837 34.9732 11.0829 33.6245C11.7821 32.2759 12.7898 31.1113 14.0242 30.2254C13.8692 29.6335 13.7916 29.024 13.7932 28.4122C13.788 26.9719 14.215 25.5632 15.019 24.368C15.8231 23.1728 16.9671 22.2461 18.3035 21.7077C18.2759 21.5181 18.2759 21.3526 18.2759 21.1734C18.2754 20.3312 18.4807 19.5017 18.874 18.7569C19.2673 18.0122 19.8366 17.3747 20.5324 16.8999C21.2282 16.4252 22.0295 16.1275 22.8666 16.0328C23.7037 15.9381 24.5513 16.0492 25.3356 16.3565C26.12 16.6638 26.8174 17.158 27.3672 17.7961C27.917 18.4342 28.3026 19.1968 28.4904 20.0178C28.6782 20.8387 28.6626 21.6931 28.4449 22.5067C28.2272 23.3203 27.814 24.0683 27.2413 24.6859C27.9133 25.809 28.2682 27.0932 28.2682 28.4019C28.2682 29.7105 27.9133 30.9947 27.2413 32.1178C28.5341 33.7646 29.2549 35.7876 29.2948 37.8805C29.3346 39.9735 28.6912 42.0224 27.462 43.7172C27.9878 44.7404 28.262 45.8742 28.262 47.0246C28.262 48.175 27.9878 49.3088 27.462 50.3321C28.0734 51.0908 28.4579 52.0067 28.5713 52.9743C28.6846 53.942 28.5222 54.9219 28.1027 55.8013C27.6832 56.6807 27.0238 57.4237 26.2003 57.9448C25.3768 58.4658 24.4228 58.7437 23.4482 58.7463ZM23.4482 17.3816C22.8789 17.3815 22.3168 17.5095 21.8037 17.7562C21.2906 18.0029 20.8396 18.3619 20.4842 18.8065C20.1288 19.2512 19.8781 19.7702 19.7507 20.3249C19.6233 20.8796 19.6225 21.4559 19.7483 22.011L19.8896 22.6315L19.2828 22.8211C18.0885 23.1892 17.0442 23.9314 16.3041 24.9382C15.564 25.9449 15.1673 27.1628 15.1725 28.4122C15.1703 29.0502 15.2752 29.6841 15.4828 30.2874L15.6587 30.801L15.2035 31.094C14.0452 31.8334 13.0894 32.8496 12.4223 34.0507C11.7552 35.2518 11.3978 36.6 11.3824 37.9738C11.3671 39.3475 11.6941 40.7035 12.3341 41.9192C12.9741 43.135 13.9069 44.1722 15.0483 44.9374L15.4449 45.2063L15.3311 45.6716C15.2262 46.1156 15.1729 46.5702 15.1725 47.0263C15.1727 48.2589 15.5617 49.4601 16.2841 50.4589C17.0066 51.4578 18.0257 52.2034 19.1965 52.5899L19.7172 52.7622L19.6552 53.3103C19.6552 53.4 19.6552 53.4861 19.6552 53.5758C19.6548 54.1985 19.8079 54.8118 20.101 55.3614C20.394 55.911 20.818 56.38 21.3353 56.7269C21.8527 57.0738 22.4476 57.288 23.0675 57.3505C23.6873 57.413 24.3131 57.3219 24.8893 57.0853C25.4656 56.8487 25.9747 56.4738 26.3717 55.9938C26.7686 55.5138 27.0412 54.9435 27.1653 54.3331C27.2894 53.7228 27.2612 53.0914 27.0832 52.4946C26.9052 51.8977 26.5829 51.3539 26.1447 50.9112L25.7654 50.5251L26.0447 50.0666C26.5958 49.1532 26.8871 48.1068 26.8871 47.0401C26.8871 45.9734 26.5958 44.927 26.0447 44.0136L25.7999 43.6L26.1172 43.2346C27.3277 41.7194 27.9675 39.8274 27.9246 37.8887C27.8817 35.9501 27.159 34.0881 25.8827 32.628L25.5172 32.204L25.831 31.7593C26.5269 30.7635 26.8961 29.5761 26.8874 28.3614C26.8788 27.1467 26.4927 25.9647 25.7827 24.9789L25.4068 24.4619L25.8965 24.0482C26.4821 23.5448 26.9 22.8746 27.0943 22.1274C27.2887 21.3801 27.2502 20.5914 26.984 19.8665C26.7178 19.1417 26.2367 18.5154 25.6048 18.0714C24.973 17.6273 24.2206 17.3867 23.4482 17.3816Z" fill="#07005A"/>
<path d="M14.8276 30.5115C14.8276 30.5115 16.0345 29.6187 17.069 29.9634L14.8276 30.5115Z" fill="#476FF5"/>
<path d="M14.8276 31.2011C14.6822 31.2014 14.5405 31.1557 14.4227 31.0707C14.3048 30.9856 14.2169 30.8655 14.1714 30.7275C14.1259 30.5896 14.1252 30.4407 14.1693 30.3023C14.2135 30.1639 14.3002 30.0429 14.4172 29.9567C14.5689 29.8464 15.9482 28.864 17.2827 29.3087C17.3687 29.3372 17.4483 29.3824 17.5169 29.4416C17.5855 29.5009 17.6417 29.5731 17.6823 29.6541C17.723 29.7351 17.7473 29.8233 17.7539 29.9136C17.7605 30.004 17.7492 30.0948 17.7206 30.1808C17.6921 30.2668 17.6469 30.3464 17.5876 30.4149C17.5283 30.4834 17.4561 30.5397 17.3751 30.5803C17.2941 30.621 17.2059 30.6453 17.1155 30.6518C17.0251 30.6584 16.9343 30.6471 16.8482 30.6186C16.2724 30.4255 15.431 30.9219 15.2379 31.0667C15.119 31.1543 14.9752 31.2014 14.8276 31.2011Z" fill="#07005A"/>
<path d="M26.4001 32.1665C26.4001 32.1665 25.3449 33.4109 24.6553 33.7556L26.4001 32.1665Z" fill="#476FF5"/>
<path d="M24.6552 34.4447C24.4999 34.4445 24.3491 34.3919 24.2274 34.2954C24.1056 34.1988 24.0201 34.0641 23.9846 33.9129C23.9491 33.7617 23.9657 33.6029 24.0317 33.4623C24.0977 33.3217 24.2093 33.2075 24.3483 33.1382C24.916 32.7382 25.4254 32.2614 25.8621 31.7215C25.983 31.5925 26.1489 31.5148 26.3255 31.5046C26.502 31.4943 26.6758 31.5523 26.8108 31.6665C26.9458 31.7807 27.0318 31.9423 27.051 32.1181C27.0701 32.2938 27.021 32.4702 26.9138 32.6108C26.7966 32.7487 25.7414 33.9897 24.9483 34.3723C24.8572 34.4177 24.7571 34.4425 24.6552 34.4447Z" fill="#07005A"/>
<path d="M14.6621 45.51C14.6621 45.4756 16.0414 46.165 16.7311 46.165L14.6621 45.51Z" fill="#476FF5"/>
<path d="M16.7239 46.8544C16.1412 46.8544 15.3619 46.5545 14.6033 46.227L14.4826 46.1753C14.3602 46.1421 14.2494 46.0758 14.1623 45.9837C14.0751 45.8917 14.0151 45.7774 13.9887 45.6534C13.9623 45.5294 13.9707 45.4006 14.0128 45.281C14.0549 45.1615 14.1291 45.0559 14.2274 44.9757C14.3622 44.881 14.5229 44.8301 14.6877 44.8301C14.8525 44.8301 15.0133 44.881 15.1481 44.9757C15.6449 45.2215 16.1763 45.3901 16.7239 45.4756C16.9068 45.4756 17.0822 45.5482 17.2116 45.6775C17.3409 45.8068 17.4136 45.9821 17.4136 46.165C17.4136 46.3478 17.3409 46.5232 17.2116 46.6525C17.0822 46.7818 16.9068 46.8544 16.7239 46.8544Z" fill="#07005A"/>
<path d="M26.6344 50.4253C26.2994 50.9311 25.8596 51.359 25.3447 51.68L26.6344 50.4253Z" fill="#476FF5"/>
<path d="M25.3452 52.3697C25.1898 52.3695 25.039 52.3169 24.9173 52.2204C24.7956 52.1238 24.71 51.9891 24.6745 51.8379C24.639 51.6867 24.6556 51.5279 24.7216 51.3873C24.7876 51.2467 24.8992 51.1325 25.0383 51.0632C25.4495 50.7991 25.8017 50.4529 26.0727 50.0463C26.1218 49.9691 26.1858 49.9024 26.2609 49.8501C26.336 49.7979 26.4208 49.7611 26.5103 49.7419C26.5998 49.7227 26.6922 49.7215 26.7822 49.7384C26.8721 49.7553 26.9578 49.7899 27.0342 49.8402C27.1107 49.8906 27.1763 49.9556 27.2274 50.0316C27.2784 50.1075 27.3138 50.1929 27.3315 50.2826C27.3492 50.3724 27.3489 50.4648 27.3305 50.5544C27.3121 50.6441 27.2761 50.7291 27.2245 50.8047C26.8243 51.4134 26.2914 51.9237 25.6658 52.2973C25.5664 52.3469 25.4563 52.3717 25.3452 52.3697Z" fill="#07005A"/>
<path d="M26.348 24.5861C26.348 24.5861 24.9997 23.4141 24.3101 23.4141L26.348 24.5861Z" fill="#476FF5"/>
<path d="M26.3487 25.2754C26.1827 25.2753 26.0223 25.2153 25.897 25.1065C25.3073 24.5929 24.5487 24.1172 24.3073 24.1034C24.1244 24.1034 23.949 24.0308 23.8197 23.9015C23.6903 23.7722 23.6177 23.5969 23.6177 23.414C23.6177 23.2312 23.6903 23.0558 23.8197 22.9265C23.949 22.7972 24.1244 22.7246 24.3073 22.7246C25.1866 22.7246 26.4349 23.7587 26.7969 24.0655C26.903 24.1576 26.9784 24.2799 27.0131 24.416C27.0477 24.5521 27.04 24.6955 26.9908 24.8271C26.9417 24.9587 26.8536 25.0721 26.7382 25.1522C26.6228 25.2323 26.4857 25.2753 26.3452 25.2754H26.3487Z" fill="#07005A"/>
<path d="M44.655 42.3729C44.5269 42.3729 44.4014 42.3372 44.2924 42.2699C44.1835 42.2026 44.0954 42.1063 44.0381 41.9918C43.9809 41.8772 43.9566 41.749 43.9681 41.6215C43.9796 41.494 44.0264 41.3722 44.1033 41.2698C44.8067 40.3878 45.194 39.2954 45.2032 38.1674C45.2032 37.9846 45.2759 37.8092 45.4052 37.68C45.5346 37.5507 45.71 37.478 45.8929 37.478C46.0758 37.478 46.2512 37.5507 46.3806 37.68C46.5099 37.8092 46.5825 37.9846 46.5825 38.1674C46.5797 39.6017 46.0939 40.9933 45.2032 42.1178C45.1373 42.1991 45.0536 42.2644 44.9586 42.3086C44.8636 42.3528 44.7597 42.3748 44.655 42.3729Z" fill="white"/>
<path d="M45.0106 35.7755C44.8891 35.776 44.7696 35.7443 44.6642 35.6838C44.5589 35.6233 44.4714 35.536 44.4106 35.4308C44.1698 35.0033 43.8831 34.6034 43.5554 34.2381C43.4379 34.1055 43.3759 33.9328 43.3823 33.7558C43.3887 33.5787 43.4631 33.4109 43.5899 33.2872C43.7168 33.1635 43.8864 33.0934 44.0636 33.0914C44.2408 33.0893 44.412 33.1556 44.5416 33.2764C44.9555 33.7225 45.3144 34.2167 45.6106 34.7482C45.6555 34.827 45.6845 34.9138 45.6958 35.0038C45.7071 35.0937 45.7005 35.185 45.6765 35.2724C45.6525 35.3598 45.6115 35.4416 45.5558 35.5131C45.5001 35.5847 45.4308 35.6445 45.352 35.6893C45.2476 35.7471 45.1299 35.7768 45.0106 35.7755Z" fill="white"/>
<path d="M17.069 28.4124C16.8861 28.4124 16.7107 28.3398 16.5814 28.2105C16.4521 28.0812 16.3794 27.9058 16.3794 27.723C16.38 27.4727 16.4066 27.2232 16.4587 26.9784C16.4762 26.8884 16.5115 26.8028 16.5624 26.7266C16.6134 26.6504 16.6791 26.5851 16.7556 26.5346C16.8322 26.484 16.918 26.4493 17.0081 26.4323C17.0983 26.4153 17.1909 26.4165 17.2806 26.4358C17.3702 26.455 17.4552 26.492 17.5304 26.5445C17.6056 26.5969 17.6696 26.6639 17.7186 26.7414C17.7676 26.8189 17.8007 26.9053 17.8159 26.9958C17.831 27.0862 17.828 27.1787 17.807 27.268C17.7754 27.4176 17.7592 27.5701 17.7587 27.723C17.7587 27.9058 17.686 28.0812 17.5567 28.2105C17.4274 28.3398 17.2519 28.4124 17.069 28.4124Z" fill="white"/>
<path d="M18.0894 26.1166C17.9567 26.1149 17.8273 26.0751 17.7167 26.0018C17.6062 25.9285 17.5191 25.8249 17.4659 25.7033C17.4128 25.5818 17.3959 25.4475 17.4171 25.3166C17.4384 25.1857 17.497 25.0637 17.5859 24.9652C18.1 24.4365 18.7006 23.9994 19.3618 23.6726C19.5257 23.6058 19.7089 23.6046 19.8737 23.6691C20.0385 23.7337 20.1721 23.8591 20.247 24.0194C20.3219 24.1797 20.3322 24.3626 20.2759 24.5303C20.2196 24.698 20.101 24.8377 19.9445 24.9204C19.4332 25.1761 18.9673 25.5138 18.5652 25.9201C18.4379 26.0445 18.2674 26.1149 18.0894 26.1166Z" fill="white"/>
<path d="M47.9679 20.0631L51.3399 15.8677C51.6627 15.4661 51.6275 14.885 51.2587 14.5253L48.416 11.7532C48.0135 11.3607 48.0135 10.7138 48.416 10.3213L55.346 3.56326C56.1317 2.79706 57.3994 3.67267 56.9609 4.67872L54.6396 10.0051C54.4735 10.3862 54.5605 10.8303 54.8582 11.1205L58.1087 14.2904C58.5663 14.7367 58.4935 15.4918 57.9591 15.8425L49.2959 21.5257C48.3433 22.1507 47.2542 20.9512 47.9679 20.0631Z" fill="#FED180"/>
<path d="M7.12942 30.0091L5.73736 28.2142C5.42986 27.8177 5.46381 27.2547 5.81674 26.898L7.60405 25.0917C7.9896 24.702 7.9896 24.0746 7.60405 23.6849L3.63729 19.676C2.86346 18.8939 1.57815 19.7528 2.00464 20.767L3.14096 23.4691C3.29776 23.842 3.21449 24.2726 2.92999 24.5601L0.845478 26.6668C0.405749 27.1112 0.477061 27.8456 0.994073 28.1971L5.77696 31.4489C6.71874 32.0892 7.82733 30.9091 7.12942 30.0091Z" fill="#FED180"/>
</svg>
