<svg width="49" height="47" viewBox="0 0 49 47" fill="none" xmlns="http://www.w3.org/2000/svg">
<path d="M11.4496 35.7093C11.4508 35.9557 11.3635 36.1943 11.2037 36.3818C11.044 36.5693 10.8223 36.6933 10.5789 36.7312C9.9193 36.833 6.5684 37.3534 5.65247 39.5632C3.76782 44.0883 7.01695 46.6186 11.3064 45.9738C15.8597 45.295 16.0105 41.5279 16.0105 41.5279V21.9604C16.0109 21.5933 16.1328 21.2366 16.3571 20.946C16.5815 20.6554 16.8956 20.4472 17.2506 20.354L41.2798 14.0565C41.5246 13.9953 41.7802 13.9906 42.0271 14.0428C42.274 14.0951 42.5057 14.2029 42.7048 14.358C42.9039 14.5132 43.065 14.7117 43.176 14.9384C43.287 15.1652 43.3449 15.4142 43.3454 15.6667V31.2596C43.3397 31.7762 43.1604 32.2759 42.8363 32.6781C42.5122 33.0804 42.0622 33.3617 41.5587 33.4769C40.5478 33.7879 39.6149 34.3111 38.8222 35.0117C34.676 39.5632 38.8222 43.3341 42.403 43.1569C43.7525 43.0853 44.9775 42.8892 45.8746 42.2066C46.6264 41.6107 47.2313 40.8499 47.6424 39.9829C48.0535 39.1158 48.2598 38.1659 48.2454 37.2064V5.55681C48.2453 5.30352 48.1873 5.05362 48.0758 4.82618C47.9644 4.59873 47.8025 4.39975 47.6026 4.24442C47.4026 4.0891 47.1698 3.98152 46.9219 3.92991C46.674 3.8783 46.4177 3.88401 46.1723 3.94662L12.0603 12.7028C11.8843 12.7473 11.7282 12.8495 11.6169 12.9929C11.5055 13.1364 11.4454 13.313 11.4459 13.4946L11.4496 35.7093Z" fill="#476FF5"/>
<path d="M10.0178 46.8258C7.99367 46.8258 6.27865 46.1244 5.27979 44.8423C4.16785 43.4169 4.05477 41.4484 4.95563 39.2726C5.90172 37.01 8.81538 36.2558 10.4663 35.9843C10.5312 35.9735 10.5901 35.9398 10.6323 35.8893C10.6744 35.8388 10.6971 35.7749 10.6963 35.7091V13.4944C10.699 13.1474 10.8167 12.8112 11.0308 12.5382C11.245 12.2653 11.5436 12.0711 11.8798 11.986L45.9843 3.21482C46.3412 3.12263 46.7145 3.11349 47.0755 3.18808C47.4364 3.26268 47.7755 3.41904 48.0667 3.64515C48.3578 3.87126 48.5933 4.16112 48.7551 4.49246C48.9168 4.82381 49.0005 5.18783 48.9998 5.55658V37.2061C49.0098 38.283 48.7727 39.3478 48.3067 40.3186C47.8408 41.2894 47.1585 42.1404 46.3123 42.806C45.1815 43.662 43.7152 43.843 42.4224 43.9071C40.0854 44.024 37.6995 42.6815 36.7684 40.7093C36.2407 39.578 35.7243 37.2891 38.2498 34.5061L38.3365 34.4232C39.2252 33.6516 40.2688 33.0794 41.3971 32.7451C41.733 32.6655 42.0328 32.4763 42.2492 32.2072C42.4656 31.9381 42.5862 31.6046 42.592 31.2593V15.6665C42.5923 15.5282 42.561 15.3916 42.5004 15.2673C42.4398 15.143 42.3514 15.0342 42.2423 14.9494C42.1331 14.8645 42.0059 14.8058 41.8705 14.7778C41.7351 14.7499 41.5951 14.7533 41.4612 14.7879L17.4433 21.0816C17.2494 21.133 17.0778 21.2469 16.9551 21.4058C16.8325 21.5646 16.7656 21.7595 16.7648 21.9602V41.5276C16.7045 43.0737 15.5096 46.1093 11.42 46.7202C10.9558 46.79 10.4871 46.8253 10.0178 46.8258ZM46.5799 4.64778C46.5025 4.64724 46.4253 4.65611 46.35 4.67418L12.253 13.4341C12.2393 13.4374 12.2271 13.4451 12.2183 13.456C12.2094 13.4669 12.2044 13.4804 12.204 13.4944V35.7091C12.2061 36.1353 12.055 36.548 11.7782 36.872C11.5014 37.196 11.1174 37.4096 10.6963 37.4739C9.61824 37.6398 7.03628 38.2281 6.35026 39.8533C5.66425 41.4786 5.69441 42.9229 6.46711 43.9146C7.3529 45.0459 9.10562 45.5399 11.1938 45.2269C15.046 44.6537 15.2496 41.6219 15.2571 41.4899V21.9602C15.2593 21.4276 15.4371 20.9105 15.7628 20.4892C16.0886 20.0679 16.5441 19.7658 17.0588 19.6297L41.0843 13.3285C41.4408 13.2364 41.8138 13.2272 42.1745 13.3016C42.5351 13.376 42.874 13.532 43.1651 13.7577C43.4562 13.9834 43.6917 14.2727 43.8538 14.6036C44.0158 14.9345 44.0999 15.2981 44.0997 15.6665V31.2593C44.0946 31.9446 43.859 32.6081 43.431 33.1431C43.0029 33.678 42.4073 34.0532 41.7401 34.2082C40.8442 34.4875 40.0154 34.9484 39.3052 35.562C37.8841 37.1533 37.4733 38.707 38.1141 40.0645C38.785 41.4861 40.5867 42.493 42.3319 42.4025C43.3948 42.3497 44.5935 42.2102 45.385 41.6068C46.0492 41.0833 46.5845 40.4143 46.9497 39.6514C47.315 38.8885 47.5005 38.052 47.4921 37.2061V5.55658C47.4921 5.3162 47.3969 5.08562 47.2273 4.91529C47.0578 4.74497 46.8277 4.64878 46.5874 4.64778H46.5799Z" fill="#07005A"/>
<path d="M42.8375 8.18102C42.6516 8.1825 42.4718 8.11523 42.3325 7.99213C42.1931 7.86904 42.1042 7.6988 42.0827 7.5141C42.0612 7.3294 42.1087 7.14326 42.216 6.99144C42.3233 6.83961 42.4829 6.73279 42.6641 6.6915L45.4307 6.02404C45.6252 5.97704 45.8303 6.00923 46.001 6.11354C46.1717 6.21785 46.294 6.38573 46.341 6.58026C46.388 6.77478 46.3558 6.98001 46.2516 7.15079C46.1473 7.32158 45.9795 7.44393 45.7851 7.49094L43.0146 8.1584C42.9568 8.17355 42.8973 8.18115 42.8375 8.18102Z" fill="white"/>
<path d="M34.6761 10.1499C34.4926 10.1484 34.316 10.0801 34.1793 9.9577C34.0427 9.83531 33.9553 9.66727 33.9335 9.48504C33.9118 9.30282 33.9572 9.11892 34.0613 8.9678C34.1654 8.81668 34.321 8.70871 34.4989 8.66412L39.4668 7.46496C39.6613 7.41795 39.8664 7.45015 40.0371 7.55446C40.2078 7.65877 40.3301 7.82665 40.3771 8.02117C40.4241 8.2157 40.3919 8.42093 40.2877 8.59171C40.1834 8.7625 40.0156 8.88485 39.8211 8.93186L34.8532 10.131C34.7949 10.1427 34.7356 10.149 34.6761 10.1499Z" fill="white"/>
<path d="M18.8459 0.232096L19.3472 1.18992C19.3851 1.25801 19.4412 1.31416 19.5093 1.35207L20.4667 1.87246C20.5313 1.90738 20.5852 1.95911 20.6227 2.02217C20.6603 2.08523 20.6802 2.15728 20.6802 2.2307C20.6802 2.30411 20.6603 2.37616 20.6227 2.43923C20.5852 2.50229 20.5313 2.55402 20.4667 2.58894L19.5093 3.1131C19.4412 3.151 19.3851 3.20716 19.3472 3.27525L18.8459 4.2293C18.811 4.29388 18.7593 4.34781 18.6963 4.38541C18.6332 4.423 18.5612 4.44284 18.4878 4.44284C18.4144 4.44284 18.3424 4.423 18.2794 4.38541C18.2164 4.34781 18.1647 4.29388 18.1298 4.2293L17.5907 3.27525C17.5529 3.20716 17.4967 3.151 17.4287 3.1131L16.4713 2.58894C16.4067 2.55402 16.3528 2.50229 16.3152 2.43923C16.2776 2.37616 16.2578 2.30411 16.2578 2.2307C16.2578 2.15728 16.2776 2.08523 16.3152 2.02217C16.3528 1.95911 16.4067 1.90738 16.4713 1.87246L17.4287 1.35207C17.4967 1.31416 17.5529 1.25801 17.5907 1.18992L18.1109 0.232096C18.144 0.162626 18.1961 0.103955 18.2611 0.0628778C18.3261 0.0218011 18.4015 0 18.4784 0C18.5553 0 18.6307 0.0218011 18.6957 0.0628778C18.7608 0.103955 18.8128 0.162626 18.8459 0.232096Z" fill="white"/>
<path d="M1.75169 19.347L2.106 20.007C2.13276 20.0533 2.17193 20.0911 2.21908 20.1163L2.87117 20.4746C2.91431 20.4988 2.95022 20.5342 2.97521 20.5769C3.0002 20.6196 3.01337 20.6683 3.01337 20.7178C3.01337 20.7673 3.0002 20.8159 2.97521 20.8587C2.95022 20.9014 2.91431 20.9367 2.87117 20.961L2.21908 21.3381C2.17115 21.3622 2.13171 21.4004 2.106 21.4475L1.75169 22.0998C1.72772 22.1439 1.69231 22.1807 1.64919 22.2063C1.60607 22.232 1.55684 22.2455 1.50669 22.2455C1.45653 22.2455 1.4073 22.232 1.36418 22.2063C1.32107 22.1807 1.28566 22.1439 1.26168 22.0998L0.907369 21.4475C0.881664 21.4004 0.842219 21.3622 0.79429 21.3381L0.142203 20.961C0.0990606 20.9367 0.0631514 20.9014 0.0381612 20.8587C0.013171 20.8159 0 20.7673 0 20.7178C0 20.6683 0.013171 20.6196 0.0381612 20.5769C0.0631514 20.5342 0.0990606 20.4988 0.142203 20.4746L0.79429 20.1163C0.841443 20.0911 0.880612 20.0533 0.907369 20.007L1.26168 19.3546C1.28497 19.3101 1.31981 19.2728 1.36253 19.2465C1.40526 19.2202 1.45428 19.2059 1.50445 19.2051C1.55461 19.2043 1.60405 19.2171 1.64756 19.2421C1.69107 19.2671 1.72705 19.3033 1.75169 19.347Z" fill="white"/>
<path d="M27.187 23.9774L27.8127 25.1087C27.8556 25.191 27.9227 25.2581 28.005 25.301L29.1358 25.927C29.212 25.969 29.2756 26.0307 29.3198 26.1056C29.3641 26.1806 29.3875 26.266 29.3875 26.3531C29.3875 26.4401 29.3641 26.5256 29.3198 26.6006C29.2756 26.6755 29.212 26.7372 29.1358 26.7792L28.005 27.4052C27.9243 27.4502 27.8577 27.5168 27.8127 27.5975L27.187 28.7288C27.1459 28.8061 27.0846 28.8707 27.0095 28.9158C26.9345 28.9609 26.8486 28.9847 26.7611 28.9847C26.6736 28.9847 26.5877 28.9609 26.5127 28.9158C26.4377 28.8707 26.3763 28.8061 26.3352 28.7288L25.7095 27.5975C25.6645 27.5168 25.5979 27.4502 25.5172 27.4052L24.3865 26.7792C24.3102 26.7372 24.2467 26.6755 24.2024 26.6006C24.1581 26.5256 24.1348 26.4401 24.1348 26.3531C24.1348 26.266 24.1581 26.1806 24.2024 26.1056C24.2467 26.0307 24.3102 25.969 24.3865 25.927L25.5172 25.301C25.5995 25.2581 25.6666 25.191 25.7095 25.1087L26.3352 23.9774C26.3772 23.9011 26.4388 23.8375 26.5137 23.7932C26.5887 23.749 26.6741 23.7256 26.7611 23.7256C26.8481 23.7256 26.9336 23.749 27.0085 23.7932C27.0834 23.8375 27.1451 23.9011 27.187 23.9774Z" fill="white"/>
</svg>
