<svg width="54" height="63" viewBox="0 0 54 63" fill="none" xmlns="http://www.w3.org/2000/svg">
<path d="M45.8406 44.8564C41.7671 38.8698 38.0806 32.6301 34.8037 26.1752C33.4604 23.3789 32.3505 20.4769 31.4852 17.4987C30.2665 13.5095 26.674 14.1638 26.9873 20.0425C27.2614 25.1547 27.0411 36.5997 26.9187 42.0146C26.8292 44.6979 27.5858 47.3415 29.0821 49.573C29.5928 50.3965 30.2902 51.0889 31.1182 51.5945C32.8655 52.5222 37.4515 53.5475 40.6672 55.5006C41.1323 55.7874 41.6514 55.9762 42.1924 56.0554C42.7334 56.1347 43.2849 56.1026 43.8131 55.9613C44.3412 55.82 44.8348 55.5724 45.2634 55.2337C45.6921 54.895 46.0467 54.4724 46.3056 53.9919C47.0671 52.5706 47.4262 50.9692 47.3443 49.3597C47.2623 47.7502 46.7425 46.1934 45.8406 44.8564Z" fill="white"/>
<path d="M42.7813 57.083C41.8466 57.0868 40.9294 56.8297 40.1334 56.3408C38.2344 55.1788 35.7627 54.3438 33.7707 53.67C32.6977 53.3443 31.6493 52.9429 30.6333 52.4689C29.6728 51.8861 28.8644 51.0846 28.2742 50.1301C26.6553 47.7358 25.838 44.8915 25.9396 42.0053C26.0522 37.1226 26.2871 25.2479 26.0081 20.0966C25.7928 16.0245 27.2856 14.296 28.7588 14.0372C30.3103 13.7638 31.7493 15.0138 32.4247 17.211C33.2753 20.1379 34.3638 22.9907 35.6795 25.741C38.9376 32.1525 42.6029 38.3498 46.6528 44.2952C47.6587 45.7785 48.2384 47.5082 48.329 49.2968C48.4196 51.0854 48.0176 52.8646 47.1667 54.4415C46.8477 55.0383 46.4088 55.563 45.8774 55.9831C45.3461 56.4031 44.7336 56.7094 44.0783 56.8828C43.6565 57.0053 43.2205 57.0726 42.7813 57.083ZM29.1601 15.9512H29.1014C28.6658 16.0245 27.8093 17.1133 27.9659 19.9795C28.2351 25.0135 28.0344 35.9605 27.8925 42.0394C27.804 44.5202 28.5028 46.9654 29.8894 49.0266C30.3145 49.7154 30.89 50.2996 31.5731 50.7355C32.5008 51.1526 33.4538 51.5114 34.4265 51.8097C36.5066 52.5128 39.0909 53.3917 41.1759 54.671C41.5286 54.8877 41.9221 55.0299 42.3322 55.0887C42.7422 55.1475 43.1599 55.1216 43.5595 55.0127C43.955 54.9091 44.3249 54.7256 44.6465 54.4736C44.9681 54.2217 45.2345 53.9066 45.4292 53.5479C46.1152 52.2836 46.4406 50.8558 46.3698 49.4198C46.299 47.9838 45.8349 46.5947 45.0278 45.4036C40.9285 39.3824 37.2207 33.1051 33.9273 26.6102C32.563 23.7639 31.4336 20.8115 30.5501 17.7823C30.1537 16.4932 29.5223 15.9512 29.1601 15.9512Z" fill="#07005A"/>
<path d="M27.4087 46.9123C27.1711 46.9147 26.9408 46.8308 26.7607 46.6762C26.5806 46.5217 26.463 46.3072 26.4298 46.0725C26.1642 44.0473 26.0334 42.0067 26.0382 39.9643C26.0382 35.4673 26.8556 32.4401 28.412 30.9606C28.8452 30.5849 29.3897 30.3611 29.9624 30.3231C30.5351 30.2852 31.1045 30.4354 31.5836 30.7506C33.8595 32.2838 34.7503 38.8022 34.9118 40.0912C34.9272 40.2195 34.9172 40.3495 34.8822 40.4739C34.8473 40.5982 34.7881 40.7145 34.7082 40.8161C34.6282 40.9176 34.5289 41.0025 34.4161 41.0658C34.3032 41.1291 34.1789 41.1696 34.0504 41.1849C33.9218 41.2003 33.7915 41.1903 33.6668 41.1555C33.5422 41.1206 33.4256 41.0616 33.3238 40.9818C33.222 40.902 33.1369 40.803 33.0735 40.6904C33.0101 40.5778 32.9695 40.4538 32.954 40.3256C32.6163 37.5669 31.5983 33.1285 30.4677 32.3766C30.3573 32.3088 30.2302 32.2728 30.1006 32.2728C29.971 32.2728 29.8439 32.3088 29.7335 32.3766C27.3548 34.6421 27.9177 42.8402 28.3386 45.804C28.3749 46.0604 28.3076 46.3207 28.1516 46.5276C27.9956 46.7345 27.7635 46.8712 27.5065 46.9075C27.4741 46.9115 27.4414 46.9131 27.4087 46.9123Z" fill="#07005A"/>
<path d="M46.8835 45.9355C46.8835 45.9355 51.68 46.9121 52.6589 49.3534C53.6378 51.7948 52.1695 60.5836 48.7434 61.0719C45.3173 61.5601 42.782 58.1423 43.0708 56.1892C45.1166 55.2127 46.8835 45.9355 46.8835 45.9355Z" fill="#476FF5"/>
<path d="M48.0976 62.0831C47.3013 62.0723 46.5152 61.9036 45.785 61.5868C45.0547 61.2699 44.395 60.8112 43.8443 60.2374C42.5913 58.9825 41.8865 57.3078 42.1019 56.0236L42.1802 55.5012L42.6697 55.2815C43.5017 54.886 45.0288 50.433 45.9244 45.7358L46.1104 44.7593L47.0893 44.9546C47.6326 45.0669 52.434 46.102 53.5744 48.9535C54.3918 50.9896 53.8094 56.3703 51.9886 59.5099C51.1321 60.9747 50.0896 61.8291 48.8905 62C48.6286 62.0476 48.3636 62.0754 48.0976 62.0831ZM44.0499 56.6681C44.207 57.5071 44.6268 58.2747 45.249 58.8605C45.6724 59.313 46.1962 59.6601 46.7786 59.8738C47.3609 60.0875 47.9853 60.1619 48.6017 60.0909C49.3163 59.9884 49.9134 59.2023 50.2854 58.5578C51.8614 55.8332 52.3117 51.1117 51.7537 49.7054C51.2643 48.4506 49.0862 47.5668 47.6473 47.1371C47.0257 50.1302 45.7727 55.0617 44.0499 56.6681Z" fill="#07005A"/>
<path d="M8.0853 44.8564C12.1588 38.8698 15.8453 32.6301 19.1222 26.1752C20.4655 23.3789 21.5754 20.4769 22.4406 17.4987C23.6594 13.5095 27.2519 14.1638 26.919 20.0425C26.645 25.1547 26.8652 36.5997 26.9925 42.0146C27.0803 44.6984 26.3219 47.3419 24.8242 49.573C24.319 50.3943 23.6285 51.0865 22.8077 51.5945C21.0604 52.5222 16.4743 53.5475 13.2636 55.5006C12.7985 55.7874 12.2794 55.9762 11.7384 56.0554C11.1974 56.1347 10.6459 56.1026 10.1177 55.9613C9.58958 55.82 9.096 55.5724 8.66736 55.2337C8.23872 54.895 7.88407 54.4724 7.62523 53.9919C6.86193 52.5713 6.50141 50.97 6.58248 49.3603C6.66355 47.7506 7.18313 46.1934 8.0853 44.8564Z" fill="white"/>
<path d="M11.1443 57.0831C10.7064 57.0822 10.2704 57.0248 9.8473 56.9122C9.19199 56.7388 8.57954 56.4325 8.04818 56.0125C7.51681 55.5925 7.07792 55.0677 6.75891 54.4709C5.90444 52.8962 5.49833 51.1182 5.58461 49.3296C5.67089 47.5411 6.24626 45.8102 7.24836 44.3247C11.3001 38.3804 14.9654 32.1829 18.2217 25.7704C19.5465 23.0106 20.6448 20.1481 21.5058 17.2111C22.1812 15.009 23.6251 13.7639 25.1668 14.0373C26.7086 14.3108 28.1329 16.0246 27.8979 20.0968C27.6189 25.2626 27.8539 37.1373 27.9713 42.0054C28.0742 44.8897 27.2624 47.7329 25.6514 50.1302C25.0531 51.084 24.2361 51.8823 23.2678 52.4592C22.2519 52.9333 21.2035 53.3347 20.1305 53.6604C18.1433 54.3342 15.6717 55.1691 13.7677 56.3312C12.9798 56.8191 12.0717 57.0794 11.1443 57.0831ZM24.7655 15.9514C24.4033 15.9514 23.7866 16.4885 23.3755 17.7775C22.4921 20.8068 21.3626 23.7592 19.9983 26.6054C16.7058 33.1024 12.998 39.3814 8.89778 45.4037C8.08922 46.5939 7.62335 47.9826 7.55086 49.4185C7.47837 50.8545 7.80204 52.2828 8.48664 53.548C8.68135 53.9068 8.94772 54.2218 9.2693 54.4738C9.59089 54.7257 9.96084 54.9092 10.3563 55.0129C10.7577 55.1224 11.1774 55.1482 11.5892 55.0885C12.0011 55.0289 12.3961 54.8851 12.7497 54.6662C14.8347 53.3869 17.4239 52.508 19.4991 51.8049C20.4721 51.5075 21.4251 51.1487 22.3525 50.7307C23.0356 50.2948 23.6112 49.7107 24.0362 49.0218C25.4228 46.9606 26.1216 44.5154 26.0332 42.0347C25.8912 35.9704 25.6905 25.0332 25.9402 19.9893C26.0968 17.1232 25.2452 16.0344 24.8047 15.9611L24.7655 15.9514Z" fill="#07005A"/>
<path d="M26.5469 46.9125C26.4997 46.9173 26.4522 46.9173 26.405 46.9125C26.148 46.8762 25.9159 46.7395 25.7599 46.5326C25.6039 46.3256 25.5366 46.0654 25.5729 45.809C25.9938 42.8452 26.5518 34.6471 24.178 32.3816C24.0676 32.3138 23.9406 32.2778 23.8109 32.2778C23.6813 32.2778 23.5542 32.3138 23.4438 32.3816C22.3132 33.1335 21.2952 37.5719 20.9575 40.3306C20.9263 40.5896 20.7933 40.8256 20.5877 40.9868C20.3821 41.1479 20.1207 41.221 19.8611 41.1899C19.6015 41.1589 19.3649 41.0262 19.2033 40.8211C19.0418 40.6159 18.9685 40.3552 18.9997 40.0962C19.1563 38.8072 20.052 32.2839 22.3426 30.7556C22.8225 30.44 23.3927 30.2896 23.9662 30.3275C24.5398 30.3654 25.0851 30.5895 25.5191 30.9656C27.0853 32.4402 27.8978 35.4821 27.8978 39.9644C27.9026 42.0069 27.7718 44.0474 27.5062 46.0726C27.4734 46.3039 27.3586 46.5159 27.1826 46.67C27.0066 46.824 26.7811 46.9101 26.5469 46.9125Z" fill="#07005A"/>
<path d="M7.04284 45.9355C7.04284 45.9355 2.2512 46.9121 1.27231 49.3534C0.293428 51.7948 1.76176 60.5836 5.18785 61.0719C8.61395 61.5601 11.1493 58.1423 10.8605 56.1892C8.80973 55.2127 7.04284 45.9355 7.04284 45.9355Z" fill="#476FF5"/>
<path d="M5.8289 62.0826C5.56677 62.0823 5.30502 62.0627 5.04579 62.024C3.85155 61.8482 2.80904 61.0181 1.95741 59.5338C0.126892 56.3942 -0.455544 51.0135 0.361825 48.9774C1.50223 46.1259 6.30366 45.0713 6.84694 44.9785L7.82582 44.7832L8.01181 45.7597C8.90749 50.4374 10.4345 54.8904 11.2813 55.2859L11.7463 55.5007L11.8197 56.0231C12.0154 57.3268 11.3302 58.9821 10.0773 60.2369C9.52711 60.8101 8.8682 61.2685 8.13886 61.5853C7.40952 61.9022 6.62431 62.0712 5.8289 62.0826ZM6.28408 47.1367C4.84512 47.5663 2.68178 48.4501 2.17766 49.7049C1.6148 51.1063 2.06508 55.8327 3.64109 58.5573C4.01307 59.2018 4.61997 59.9879 5.32477 60.0904C5.94421 60.1633 6.57215 60.09 7.15793 59.8762C7.74372 59.6625 8.27093 59.3144 8.69703 58.86C9.31632 58.2727 9.73421 57.5055 9.89127 56.6677C8.15375 55.0613 6.90078 50.1297 6.28408 47.1367Z" fill="#07005A"/>
<path d="M4.5 19.5L9 24" stroke="white" stroke-width="2" stroke-linecap="round"/>
<path d="M50.5 19.5L46 24" stroke="white" stroke-width="2" stroke-linecap="round"/>
<path d="M26.25 1.06787V7.43183" stroke="white" stroke-width="2" stroke-linecap="round"/>
<path d="M8.41553 1.84326L14.6253 11.5062" stroke="white" stroke-width="2" stroke-linecap="round"/>
<path d="M45.7217 1.96143L39.5879 11.5061" stroke="white" stroke-width="2" stroke-linecap="round"/>
</svg>
