<svg width="163" height="161" viewBox="0 0 163 161" fill="none" xmlns="http://www.w3.org/2000/svg">
<path d="M112.869 157.454V7.77734H139.142V142.454C139.142 150.738 132.426 157.454 124.142 157.454H112.869Z" fill="#E1E9FE"/>
<path fill-rule="evenodd" clip-rule="evenodd" d="M109.869 7.77734C109.869 6.12049 111.212 4.77734 112.869 4.77734H139.142C140.799 4.77734 142.142 6.12049 142.142 7.77734V142.454C142.142 152.395 134.083 160.454 124.142 160.454H112.869C111.212 160.454 109.869 159.11 109.869 157.454V7.77734ZM115.869 10.7773V154.454H124.142C130.77 154.454 136.142 149.081 136.142 142.454V10.7773H115.869Z" fill="#07005A"/>
<path d="M3 142.453V13C3 7.47715 7.47715 3 13 3H110.48L139.142 26.8845V157.453H18C9.71573 157.453 3 150.737 3 142.453Z" fill="#F2F6FF"/>
<path fill-rule="evenodd" clip-rule="evenodd" d="M13 6C9.13401 6 6 9.13401 6 13V142.453C6 149.081 11.3726 154.453 18 154.453H136.142V28.2896L109.394 6H13ZM0 13C0 5.8203 5.8203 0 13 0H110.48C111.182 0 111.862 0.246049 112.401 0.695336L141.062 24.5798C141.746 25.1498 142.142 25.9942 142.142 26.8845V157.453C142.142 159.11 140.798 160.453 139.142 160.453H18C8.05888 160.453 0 152.394 0 142.453V13Z" fill="#07005A"/>
<path d="M139.142 157.453V15.3398H159.045V142.453C159.045 150.737 152.33 157.453 144.045 157.453H139.142Z" fill="#07005A"/>
<path fill-rule="evenodd" clip-rule="evenodd" d="M136.142 15.3398C136.142 13.683 137.485 12.3398 139.142 12.3398H159.045C160.702 12.3398 162.045 13.683 162.045 15.3398V142.453C162.045 152.394 153.986 160.453 144.045 160.453H139.142C137.485 160.453 136.142 159.109 136.142 157.453V15.3398ZM142.142 18.3398V154.453H144.045C150.673 154.453 156.045 149.08 156.045 142.453V18.3398H142.142Z" fill="#07005A"/>
<path d="M3 42.8075V13C3 7.47715 7.47715 3 13 3H110.48V26.8845H139.142V42.8075H3Z" fill="#F2F6FF"/>
<path fill-rule="evenodd" clip-rule="evenodd" d="M13 6C9.13401 6 6 9.13401 6 13V39.8075H136.142V29.8845H110.48C108.823 29.8845 107.48 28.5414 107.48 26.8845V6H13ZM0 13C0 5.8203 5.8203 0 13 0H110.48C112.137 0 113.48 1.34315 113.48 3V23.8845H139.142C140.798 23.8845 142.142 25.2276 142.142 26.8845V42.8075C142.142 44.4643 140.798 45.8075 139.142 45.8075H3C1.34315 45.8075 0 44.4643 0 42.8075V13Z" fill="#07005A"/>
<path d="M110.48 26.8845V3L139.142 26.8845H110.48Z" fill="#476FF5"/>
<path fill-rule="evenodd" clip-rule="evenodd" d="M109.208 0.283268C110.262 -0.210471 111.507 -0.0498358 112.401 0.695373L141.062 24.5799C142.033 25.3885 142.393 26.7182 141.963 27.9058C141.533 29.0934 140.405 29.8845 139.142 29.8845H110.48C108.824 29.8845 107.48 28.5414 107.48 26.8845V3.00004C107.48 1.83598 108.154 0.777007 109.208 0.283268ZM113.48 9.40516V23.8845H130.856L113.48 9.40516Z" fill="#07005A"/>
<path fill-rule="evenodd" clip-rule="evenodd" d="M104.296 57.9336C104.296 56.2767 105.639 54.9336 107.296 54.9336H124.413C126.07 54.9336 127.413 56.2767 127.413 57.9336C127.413 59.5904 126.07 60.9336 124.413 60.9336H107.296C105.639 60.9336 104.296 59.5904 104.296 57.9336Z" fill="#07005A"/>
<path fill-rule="evenodd" clip-rule="evenodd" d="M104.693 69.0801C104.693 67.4232 106.037 66.0801 107.693 66.0801H124.811C126.467 66.0801 127.811 67.4232 127.811 69.0801C127.811 70.7369 126.467 72.0801 124.811 72.0801H107.693C106.037 72.0801 104.693 70.7369 104.693 69.0801Z" fill="#07005A"/>
<path fill-rule="evenodd" clip-rule="evenodd" d="M11.1465 81.8184C11.1465 80.1615 12.4896 78.8184 14.1465 78.8184H92.9653C94.6222 78.8184 95.9653 80.1615 95.9653 81.8184C95.9653 83.4752 94.6222 84.8184 92.9653 84.8184H14.1465C12.4896 84.8184 11.1465 83.4752 11.1465 81.8184Z" fill="#07005A"/>
<path fill-rule="evenodd" clip-rule="evenodd" d="M11.1465 92.9648C11.1465 91.308 12.4896 89.9648 14.1465 89.9648H92.9653C94.6222 89.9648 95.9653 91.308 95.9653 92.9648C95.9653 94.6217 94.6222 95.9648 92.9653 95.9648H14.1465C12.4896 95.9648 11.1465 94.6217 11.1465 92.9648Z" fill="#07005A"/>
<path fill-rule="evenodd" clip-rule="evenodd" d="M11.1465 104.111C11.1465 102.454 12.4896 101.111 14.1465 101.111H38.8271C40.484 101.111 41.8271 102.454 41.8271 104.111C41.8271 105.768 40.484 107.111 38.8271 107.111H14.1465C12.4896 107.111 11.1465 105.768 11.1465 104.111Z" fill="#07005A"/>
<path fill-rule="evenodd" clip-rule="evenodd" d="M11.1465 115.258C11.1465 113.601 12.4896 112.258 14.1465 112.258H22.9041C24.561 112.258 25.9041 113.601 25.9041 115.258C25.9041 116.915 24.561 118.258 22.9041 118.258H14.1465C12.4896 118.258 11.1465 116.915 11.1465 115.258Z" fill="#07005A"/>
<path fill-rule="evenodd" clip-rule="evenodd" d="M46.9727 104.111C46.9727 102.454 48.3158 101.111 49.9727 101.111H92.9648C94.6216 101.111 95.9648 102.454 95.9648 104.111C95.9648 105.768 94.6216 107.111 92.9648 107.111H49.9727C48.3158 107.111 46.9727 105.768 46.9727 104.111Z" fill="#07005A"/>
<path fill-rule="evenodd" clip-rule="evenodd" d="M31.0498 115.258C31.0498 113.601 32.393 112.258 34.0498 112.258L92.9649 112.258C94.6217 112.258 95.9649 113.601 95.9649 115.258C95.9649 116.915 94.6217 118.258 92.9649 118.258L34.0498 118.258C32.3929 118.258 31.0498 116.915 31.0498 115.258Z" fill="#07005A"/>
<path fill-rule="evenodd" clip-rule="evenodd" d="M104.693 80.2266C104.693 78.5697 106.037 77.2266 107.693 77.2266H124.811C126.467 77.2266 127.811 78.5697 127.811 80.2266C127.811 81.8834 126.467 83.2266 124.811 83.2266H107.693C106.037 83.2266 104.693 81.8834 104.693 80.2266Z" fill="#07005A"/>
<path d="M35.1492 30.9975H30.0432L24.6382 22.8095V30.9975H19.5322V14.7135H24.6382L30.0432 23.0395V14.7135H35.1492V30.9975Z" fill="#07005A"/>
<path d="M44.8621 18.7615V20.7855H49.9221V24.6265H44.8621V26.9265H50.6121V30.9975H39.7561V14.7135H50.6121V18.7615H44.8621Z" fill="#07005A"/>
<path d="M78.2963 14.7135L74.5703 30.9975H68.2223L66.3363 21.7515L64.4503 30.9975H58.1023L54.3763 14.7135H59.8733L61.3453 24.9715L63.5533 14.7135H69.1193L71.3273 24.9715L72.7993 14.7135H78.2963Z" fill="#07005A"/>
<path d="M95.0083 26.1905C95.0083 27.1258 94.763 27.9692 94.2723 28.7205C93.797 29.4718 93.0993 30.0698 92.1793 30.5145C91.2593 30.9438 90.163 31.1585 88.8903 31.1585C86.943 31.1585 85.333 30.7062 84.0603 29.8015C82.803 28.8815 82.1207 27.5398 82.0133 25.7765H87.4413C87.518 26.7118 87.932 27.1795 88.6833 27.1795C88.944 27.1795 89.151 27.1105 89.3043 26.9725C89.473 26.8345 89.5573 26.6352 89.5573 26.3745C89.5573 25.9912 89.358 25.6922 88.9593 25.4775C88.576 25.2475 87.9473 24.9868 87.0733 24.6955C86.046 24.3582 85.1873 24.0132 84.4973 23.6605C83.8227 23.3078 83.2323 22.7865 82.7263 22.0965C82.2203 21.4065 81.9673 20.5095 81.9673 19.4055C81.9673 18.3475 82.2357 17.4505 82.7723 16.7145C83.3243 15.9632 84.068 15.3958 85.0033 15.0125C85.954 14.6292 87.0197 14.4375 88.2003 14.4375C90.1477 14.4375 91.6963 14.8898 92.8463 15.7945C93.9963 16.6992 94.625 18.0025 94.7323 19.7045H89.2353C89.1587 18.8458 88.806 18.4165 88.1773 18.4165C87.9627 18.4165 87.7863 18.4855 87.6483 18.6235C87.5103 18.7462 87.4413 18.9378 87.4413 19.1985C87.4413 19.5512 87.633 19.8425 88.0163 20.0725C88.415 20.2872 89.0283 20.5402 89.8563 20.8315C90.899 21.1995 91.7577 21.5675 92.4323 21.9355C93.1223 22.2882 93.7203 22.8172 94.2263 23.5225C94.7477 24.2125 95.0083 25.1018 95.0083 26.1905Z" fill="#07005A"/>
<path d="M107.296 91.373H124.811V115.258H107.296V91.373Z" fill="#FFCE85"/>
<path fill-rule="evenodd" clip-rule="evenodd" d="M104.296 91.373C104.296 89.7162 105.639 88.373 107.296 88.373H124.811C126.468 88.373 127.811 89.7162 127.811 91.373V115.258C127.811 116.914 126.468 118.258 124.811 118.258H107.296C105.639 118.258 104.296 116.914 104.296 115.258V91.373ZM110.296 94.373V112.258H121.811V94.373H110.296Z" fill="#07005A"/>
<path d="M92.9648 53.1582L92.9648 70.6735L14.146 70.6735L14.146 53.1582L92.9648 53.1582Z" fill="#FFCE85"/>
<path fill-rule="evenodd" clip-rule="evenodd" d="M92.9648 50.1582C94.6217 50.1582 95.9648 51.5013 95.9648 53.1582L95.9648 70.6735C95.9648 72.3304 94.6217 73.6735 92.9648 73.6735L14.146 73.6735C12.4891 73.6735 11.146 72.3304 11.146 70.6735L11.146 53.1582C11.146 51.5013 12.4892 50.1582 14.146 50.1582L92.9648 50.1582ZM89.9648 56.1582L17.146 56.1582L17.146 67.6735L89.9648 67.6735L89.9648 56.1582Z" fill="#07005A"/>
<path d="M124.811 126.402L124.811 143.918L14.1457 143.918L14.1457 126.402L124.811 126.402Z" fill="#476FF5"/>
<path fill-rule="evenodd" clip-rule="evenodd" d="M124.811 123.402C126.467 123.402 127.811 124.745 127.811 126.402L127.811 143.918C127.811 145.575 126.467 146.918 124.811 146.918L14.1457 146.918C12.4889 146.918 11.1457 145.574 11.1457 143.918L11.1457 126.402C11.1457 124.745 12.4889 123.402 14.1457 123.402L124.811 123.402ZM121.811 129.402L17.1457 129.402L17.1457 140.918L121.811 140.918L121.811 129.402Z" fill="#07005A"/>
</svg>
