<svg width="188" height="154" viewBox="0 0 188 154" fill="none" xmlns="http://www.w3.org/2000/svg">
<path d="M142.625 28L118.625 28L118.625 3L142.625 3L142.625 28Z" fill="#F2F6FF"/>
<path fill-rule="evenodd" clip-rule="evenodd" d="M118.625 31C116.968 31 115.625 29.6569 115.625 28L115.625 3C115.625 1.34315 116.968 1.84864e-06 118.625 1.77621e-06L142.625 7.27141e-07C144.282 6.54718e-07 145.625 1.34315 145.625 3L145.625 28C145.625 29.6569 144.282 31 142.625 31L118.625 31ZM121.625 25L139.625 25L139.625 6L121.625 6L121.625 25Z" fill="#07005A"/>
<path d="M142.625 151L118.625 151L118.625 126L142.625 126L142.625 151Z" fill="#FFCE85"/>
<path fill-rule="evenodd" clip-rule="evenodd" d="M118.625 154C116.968 154 115.625 152.657 115.625 151L115.625 126C115.625 124.343 116.968 123 118.625 123L142.625 123C144.282 123 145.625 124.343 145.625 126L145.625 151C145.625 152.657 144.282 154 142.625 154L118.625 154ZM121.625 148L139.625 148L139.625 129L121.625 129L121.625 148Z" fill="#07005A"/>
<path d="M118.625 28L93.625 28L93.625 3L118.625 3L118.625 28Z" fill="#FFCE85"/>
<path fill-rule="evenodd" clip-rule="evenodd" d="M93.625 31C91.9681 31 90.625 29.6569 90.625 28L90.625 3C90.625 1.34315 91.9681 1.84864e-06 93.625 1.77621e-06L118.625 6.8343e-07C120.282 6.11006e-07 121.625 1.34315 121.625 3L121.625 28C121.625 29.6569 120.282 31 118.625 31L93.625 31ZM96.625 25L115.625 25L115.625 6L96.625 6L96.625 25Z" fill="#07005A"/>
<path d="M118.625 151L93.625 151L93.625 126L118.625 126L118.625 151Z" fill="#F2F6FF"/>
<path fill-rule="evenodd" clip-rule="evenodd" d="M93.625 154C91.9681 154 90.625 152.657 90.625 151L90.625 126C90.625 124.343 91.9681 123 93.625 123L118.625 123C120.282 123 121.625 124.343 121.625 126L121.625 151C121.625 152.657 120.282 154 118.625 154L93.625 154ZM96.625 148L115.625 148L115.625 129L96.625 129L96.625 148Z" fill="#07005A"/>
<path d="M93.625 28L68.625 28L68.625 3L93.625 3L93.625 28Z" fill="#F2F6FF"/>
<path fill-rule="evenodd" clip-rule="evenodd" d="M68.625 31C66.9681 31 65.625 29.6569 65.625 28L65.625 3C65.625 1.34315 66.9681 1.84864e-06 68.625 1.77621e-06L93.625 6.8343e-07C95.2819 6.11006e-07 96.625 1.34315 96.625 3L96.625 28C96.625 29.6569 95.2819 31 93.625 31L68.625 31ZM71.625 25L90.625 25L90.625 6L71.625 6L71.625 25Z" fill="#07005A"/>
<path d="M142.625 126L44.625 126L44.625 28L142.625 28L142.625 126Z" fill="#F2F6FF"/>
<path fill-rule="evenodd" clip-rule="evenodd" d="M44.625 129C42.9681 129 41.625 127.657 41.625 126L41.625 28C41.625 26.3432 42.9681 25 44.625 25L142.625 25C144.282 25 145.625 26.3432 145.625 28L145.625 126C145.625 127.657 144.282 129 142.625 129L44.625 129ZM47.625 123L139.625 123L139.625 31L47.625 31L47.625 123Z" fill="#07005A"/>
<path d="M93.625 151L68.625 151L68.625 126L93.625 126L93.625 151Z" fill="#FFCE85"/>
<path fill-rule="evenodd" clip-rule="evenodd" d="M68.625 154C66.9681 154 65.625 152.657 65.625 151L65.625 126C65.625 124.343 66.9681 123 68.625 123L93.625 123C95.2819 123 96.625 124.343 96.625 126L96.625 151C96.625 152.657 95.2819 154 93.625 154L68.625 154ZM71.625 148L90.625 148L90.625 129L71.625 129L71.625 148Z" fill="#07005A"/>
<path d="M68.625 28L44.625 28L44.625 3L68.625 3L68.625 28Z" fill="#FFCE85"/>
<path fill-rule="evenodd" clip-rule="evenodd" d="M44.625 31C42.9681 31 41.625 29.6569 41.625 28L41.625 3C41.625 1.34315 42.9681 1.84864e-06 44.625 1.77621e-06L68.625 7.27141e-07C70.2819 6.54718e-07 71.625 1.34315 71.625 3L71.625 28C71.625 29.6569 70.2819 31 68.625 31L44.625 31ZM47.625 25L65.625 25L65.625 6L47.625 6L47.625 25Z" fill="#07005A"/>
<path d="M68.625 151L44.625 151L44.625 126L68.625 126L68.625 151Z" fill="#F2F6FF"/>
<path fill-rule="evenodd" clip-rule="evenodd" d="M44.625 154C42.9681 154 41.625 152.657 41.625 151L41.625 126C41.625 124.343 42.9681 123 44.625 123L68.625 123C70.2819 123 71.625 124.343 71.625 126L71.625 151C71.625 152.657 70.2819 154 68.625 154L44.625 154ZM47.625 148L65.625 148L65.625 129L47.625 129L47.625 148Z" fill="#07005A"/>
<path d="M44.625 28L19.625 28L19.625 3L44.625 3L44.625 28Z" fill="#FF8585"/>
<path fill-rule="evenodd" clip-rule="evenodd" d="M19.625 31C17.9681 31 16.625 29.6569 16.625 28L16.625 3C16.625 1.34315 17.9681 1.84864e-06 19.625 1.77621e-06L44.625 6.8343e-07C46.2819 6.11006e-07 47.625 1.34315 47.625 3L47.625 28C47.625 29.6569 46.2819 31 44.625 31L19.625 31ZM22.625 25L41.625 25L41.625 6L22.625 6L22.625 25Z" fill="#07005A"/>
<path d="M44.625 52L19.625 52L19.625 28L44.625 28L44.625 52Z" fill="#F2F6FF"/>
<path fill-rule="evenodd" clip-rule="evenodd" d="M19.625 55C17.9681 55 16.625 53.6569 16.625 52L16.625 28C16.625 26.3431 17.9681 25 19.625 25L44.625 25C46.2819 25 47.625 26.3431 47.625 28L47.625 52C47.625 53.6569 46.2819 55 44.625 55L19.625 55ZM22.625 49L41.625 49L41.625 31L22.625 31L22.625 49Z" fill="#07005A"/>
<path d="M44.625 77L19.625 77L19.625 52L44.625 52L44.625 77Z" fill="#FFCE85"/>
<path fill-rule="evenodd" clip-rule="evenodd" d="M19.625 80C17.9681 80 16.625 78.6569 16.625 77L16.625 52C16.625 50.3431 17.9681 49 19.625 49L44.625 49C46.2819 49 47.625 50.3431 47.625 52L47.625 77C47.625 78.6569 46.2819 80 44.625 80L19.625 80ZM22.625 74L41.625 74L41.625 55L22.625 55L22.625 74Z" fill="#07005A"/>
<path d="M97.7372 100.357L119.332 78.7617L129.299 88.7286L107.704 110.323L97.7372 100.357Z" fill="#476FF5"/>
<path fill-rule="evenodd" clip-rule="evenodd" d="M117.211 76.6409C118.382 75.4693 120.282 75.4693 121.453 76.6409L131.42 86.6077C132.592 87.7793 132.592 89.6788 131.42 90.8503L109.825 112.445C108.654 113.617 106.754 113.617 105.583 112.445L95.6159 102.478C94.4443 101.307 94.4443 99.4072 95.6159 98.2357L117.211 76.6409ZM119.332 83.0048L101.98 100.357L107.704 106.081L125.056 88.729L119.332 83.0048Z" fill="#07005A"/>
<path d="M57.7997 63.9425L79.3945 42.3477L89.3614 52.3145L67.7666 73.9093L57.7997 63.9425Z" fill="#476FF5"/>
<path fill-rule="evenodd" clip-rule="evenodd" d="M77.2732 40.2268C78.4448 39.0552 80.3443 39.0552 81.5159 40.2268L91.4827 50.1936C92.6543 51.3652 92.6543 53.2647 91.4827 54.4363L69.8879 76.0311C68.7163 77.2027 66.8168 77.2027 65.6452 76.0311L55.6784 66.0642C54.5068 64.8927 54.5068 62.9932 55.6784 61.8216L77.2732 40.2268ZM79.3945 46.5907L62.0424 63.9429L67.7666 69.6671L85.1187 52.3149L79.3945 46.5907Z" fill="#07005A"/>
<path d="M44.625 102L19.625 102L19.625 77L44.625 77L44.625 102Z" fill="#F2F6FF"/>
<path fill-rule="evenodd" clip-rule="evenodd" d="M19.625 105C17.9681 105 16.625 103.657 16.625 102L16.625 77C16.625 75.3431 17.9681 74 19.625 74L44.625 74C46.2819 74 47.625 75.3431 47.625 77L47.625 102C47.625 103.657 46.2819 105 44.625 105L19.625 105ZM22.625 99L41.625 99L41.625 80L22.625 80L22.625 99Z" fill="#07005A"/>
<path d="M44.625 126L19.625 126L19.625 102L44.625 102L44.625 126Z" fill="#FFCE85"/>
<path fill-rule="evenodd" clip-rule="evenodd" d="M19.625 129C17.9681 129 16.625 127.657 16.625 126L16.625 102C16.625 100.343 17.9681 99 19.625 99L44.625 99C46.2819 99 47.625 100.343 47.625 102L47.625 126C47.625 127.657 46.2819 129 44.625 129L19.625 129ZM22.625 123L41.625 123L41.625 105L22.625 105L22.625 123Z" fill="#07005A"/>
<path d="M44.625 151L19.625 151L19.625 126L44.625 126L44.625 151Z" fill="#FF8585"/>
<path fill-rule="evenodd" clip-rule="evenodd" d="M19.625 154C17.9681 154 16.625 152.657 16.625 151L16.625 126C16.625 124.343 17.9681 123 19.625 123L44.625 123C46.2819 123 47.625 124.343 47.625 126L47.625 151C47.625 152.657 46.2819 154 44.625 154L19.625 154ZM22.625 148L41.625 148L41.625 129L22.625 129L22.625 148Z" fill="#07005A"/>
<path d="M167.625 28L142.625 28L142.625 3L167.625 3L167.625 28Z" fill="#FF8585"/>
<path fill-rule="evenodd" clip-rule="evenodd" d="M142.625 31C140.968 31 139.625 29.6569 139.625 28L139.625 3C139.625 1.34315 140.968 1.84864e-06 142.625 1.77621e-06L167.625 6.8343e-07C169.282 6.11006e-07 170.625 1.34315 170.625 3L170.625 28C170.625 29.6569 169.282 31 167.625 31L142.625 31ZM145.625 25L164.625 25L164.625 6L145.625 6L145.625 25Z" fill="#07005A"/>
<path d="M167.625 52L142.625 52L142.625 28L167.625 28L167.625 52Z" fill="#FFCE85"/>
<path fill-rule="evenodd" clip-rule="evenodd" d="M142.625 55C140.968 55 139.625 53.6569 139.625 52L139.625 28C139.625 26.3431 140.968 25 142.625 25L167.625 25C169.282 25 170.625 26.3431 170.625 28L170.625 52C170.625 53.6569 169.282 55 167.625 55L142.625 55ZM145.625 49L164.625 49L164.625 31L145.625 31L145.625 49Z" fill="#07005A"/>
<path d="M167.625 77L142.625 77L142.625 52L167.625 52L167.625 77Z" fill="#F2F6FF"/>
<path fill-rule="evenodd" clip-rule="evenodd" d="M142.625 80C140.968 80 139.625 78.6569 139.625 77L139.625 52C139.625 50.3431 140.968 49 142.625 49L167.625 49C169.282 49 170.625 50.3431 170.625 52L170.625 77C170.625 78.6569 169.282 80 167.625 80L142.625 80ZM145.625 74L164.625 74L164.625 55L145.625 55L145.625 74Z" fill="#07005A"/>
<path d="M167.625 102L142.625 102L142.625 77L167.625 77L167.625 102Z" fill="#FFCE85"/>
<path fill-rule="evenodd" clip-rule="evenodd" d="M142.625 105C140.968 105 139.625 103.657 139.625 102L139.625 77C139.625 75.3431 140.968 74 142.625 74L167.625 74C169.282 74 170.625 75.3431 170.625 77L170.625 102C170.625 103.657 169.282 105 167.625 105L142.625 105ZM145.625 99L164.625 99L164.625 80L145.625 80L145.625 99Z" fill="#07005A"/>
<path d="M167.625 126L142.625 126L142.625 102L167.625 102L167.625 126Z" fill="#F2F6FF"/>
<path fill-rule="evenodd" clip-rule="evenodd" d="M142.625 129C140.968 129 139.625 127.657 139.625 126L139.625 102C139.625 100.343 140.968 99 142.625 99L167.625 99C169.282 99 170.625 100.343 170.625 102L170.625 126C170.625 127.657 169.282 129 167.625 129L142.625 129ZM145.625 123L164.625 123L164.625 105L145.625 105L145.625 123Z" fill="#07005A"/>
<path d="M167.625 151L142.625 151L142.625 126L167.625 126L167.625 151Z" fill="#FF8585"/>
<path fill-rule="evenodd" clip-rule="evenodd" d="M142.625 154C140.968 154 139.625 152.657 139.625 151L139.625 126C139.625 124.343 140.968 123 142.625 123L167.625 123C169.282 123 170.625 124.343 170.625 126L170.625 151C170.625 152.657 169.282 154 167.625 154L142.625 154ZM145.625 148L164.625 148L164.625 129L145.625 129L145.625 148Z" fill="#07005A"/>
<path d="M44.2465 151L8.00337 151C4.75848 151 2.37317 147.957 3.14802 144.806L15.689 93.8061C16.2386 91.5711 18.2428 90 20.5444 90L31.7055 90C34.007 90 36.0113 91.5711 36.5608 93.8061L49.1018 144.806C49.8767 147.957 47.4913 151 44.2465 151Z" fill="#FF8585"/>
<path fill-rule="evenodd" clip-rule="evenodd" d="M6.06169 145.522C5.75175 146.783 6.70588 148 8.00383 148L44.2469 148C45.5449 148 46.499 146.783 46.1891 145.522L33.6481 94.5224C33.4282 93.6284 32.6265 93 31.7059 93L20.5448 93C19.6242 93 18.8225 93.6284 18.6027 94.5224L6.06169 145.522ZM8.00383 154C2.812 154 -1.00448 149.131 0.235263 144.09L12.7762 93.0897C13.6556 89.5138 16.8624 87 20.5448 87L31.7059 87C35.3884 87 38.5952 89.5138 39.4745 93.0897L52.0155 144.09C53.2552 149.131 49.4388 154 44.2469 154L8.00383 154Z" fill="#07005A"/>
<path d="M179.247 151L143.004 151C139.759 151 137.374 147.957 138.149 144.806L150.69 93.8061C151.24 91.5711 153.244 90 155.545 90L166.706 90C169.008 90 171.012 91.5711 171.562 93.8061L184.103 144.806C184.878 147.957 182.492 151 179.247 151Z" fill="#476FF5"/>
<path fill-rule="evenodd" clip-rule="evenodd" d="M141.062 145.522C140.752 146.783 141.706 148 143.004 148L179.247 148C180.545 148 181.499 146.783 181.189 145.522L168.648 94.5224C168.428 93.6284 167.627 93 166.706 93L155.545 93C154.624 93 153.823 93.6284 153.603 94.5224L141.062 145.522ZM143.004 154C137.812 154 133.996 149.131 135.235 144.09L147.776 93.0897C148.656 89.5138 151.862 87 155.545 87L166.706 87C170.388 87 173.595 89.5138 174.475 93.0897L187.015 144.09C188.255 149.131 184.439 154 179.247 154L143.004 154Z" fill="#07005A"/>
<path d="M41.625 80C41.625 88.2843 34.9093 95 26.625 95C18.3407 95 11.625 88.2843 11.625 80C11.625 71.7157 18.3407 65 26.625 65C34.9093 65 41.625 71.7157 41.625 80Z" fill="#FF8585"/>
<path fill-rule="evenodd" clip-rule="evenodd" d="M26.625 68C19.9976 68 14.625 73.3726 14.625 80C14.625 86.6274 19.9976 92 26.625 92C33.2524 92 38.625 86.6274 38.625 80C38.625 73.3726 33.2524 68 26.625 68ZM8.625 80C8.625 70.0589 16.6839 62 26.625 62C36.5661 62 44.625 70.0589 44.625 80C44.625 89.9411 36.5661 98 26.625 98C16.6839 98 8.625 89.9411 8.625 80Z" fill="#07005A"/>
<path d="M176.625 80C176.625 88.2843 169.909 95 161.625 95C153.341 95 146.625 88.2843 146.625 80C146.625 71.7157 153.341 65 161.625 65C169.909 65 176.625 71.7157 176.625 80Z" fill="#476FF5"/>
<path fill-rule="evenodd" clip-rule="evenodd" d="M161.625 68C154.998 68 149.625 73.3726 149.625 80C149.625 86.6274 154.998 92 161.625 92C168.252 92 173.625 86.6274 173.625 80C173.625 73.3726 168.252 68 161.625 68ZM143.625 80C143.625 70.0589 151.684 62 161.625 62C171.566 62 179.625 70.0589 179.625 80C179.625 89.9411 171.566 98 161.625 98C151.684 98 143.625 89.9411 143.625 80Z" fill="#07005A"/>
<path d="M154.625 151L127.625 151C124.864 151 122.625 148.761 122.625 146L122.625 119C122.625 116.239 124.864 114 127.625 114L154.625 114C157.386 114 159.625 116.239 159.625 119L159.625 146C159.625 148.761 157.386 151 154.625 151Z" fill="#F2F6FF"/>
<path fill-rule="evenodd" clip-rule="evenodd" d="M125.625 146C125.625 147.105 126.52 148 127.625 148L154.625 148C155.73 148 156.625 147.105 156.625 146L156.625 119C156.625 117.895 155.73 117 154.625 117L127.625 117C126.52 117 125.625 117.895 125.625 119L125.625 146ZM127.625 154C123.207 154 119.625 150.418 119.625 146L119.625 119C119.625 114.582 123.207 111 127.625 111L154.625 111C159.043 111 162.625 114.582 162.625 119L162.625 146C162.625 150.418 159.043 154 154.625 154L127.625 154Z" fill="#07005A"/>
<path d="M137.625 124.5C137.625 126.433 136.058 128 134.125 128C132.192 128 130.625 126.433 130.625 124.5C130.625 122.567 132.192 121 134.125 121C136.058 121 137.625 122.567 137.625 124.5Z" fill="#07005A"/>
<path d="M137.625 140.5C137.625 142.433 136.058 144 134.125 144C132.192 144 130.625 142.433 130.625 140.5C130.625 138.567 132.192 137 134.125 137C136.058 137 137.625 138.567 137.625 140.5Z" fill="#07005A"/>
<path d="M144.625 132.5C144.625 134.433 143.058 136 141.125 136C139.192 136 137.625 134.433 137.625 132.5C137.625 130.567 139.192 129 141.125 129C143.058 129 144.625 130.567 144.625 132.5Z" fill="#07005A"/>
<path d="M151.625 124.5C151.625 126.433 150.058 128 148.125 128C146.192 128 144.625 126.433 144.625 124.5C144.625 122.567 146.192 121 148.125 121C150.058 121 151.625 122.567 151.625 124.5Z" fill="#07005A"/>
<path d="M151.625 140.5C151.625 142.433 150.058 144 148.125 144C146.192 144 144.625 142.433 144.625 140.5C144.625 138.567 146.192 137 148.125 137C150.058 137 151.625 138.567 151.625 140.5Z" fill="#07005A"/>
</svg>
