<svg width="161" height="186" viewBox="0 0 161 186" fill="none" xmlns="http://www.w3.org/2000/svg">
<path d="M16.0728 158.49L3.24902 11.0469L92.9105 3.24864L105.734 150.692L16.0728 158.49Z" fill="#F2F6FF"/>
<path fill-rule="evenodd" clip-rule="evenodd" d="M0.259941 11.3071C0.11638 9.65645 1.33809 8.20198 2.98872 8.05842L92.6502 0.260187C94.3009 0.116625 95.7553 1.33834 95.8989 2.98896L108.723 150.432C108.866 152.083 107.644 153.537 105.994 153.681L16.3324 161.479C14.6817 161.623 13.2273 160.401 13.0837 158.75L0.259941 11.3071ZM6.49732 13.7759L18.8012 155.242L102.485 147.964L90.1814 6.49756L6.49732 13.7759Z" fill="#07005A"/>
<path d="M26.9923 145.553L16.248 22.0195L81.9998 16.3008L92.7441 139.834L26.9923 145.553Z" fill="#FF8585"/>
<path fill-rule="evenodd" clip-rule="evenodd" d="M13.2599 22.2778C13.1164 20.6272 14.3381 19.1727 15.9887 19.0291L81.7405 13.3104C83.3911 13.1669 84.8456 14.3886 84.9892 16.0392L95.7334 139.573C95.8769 141.223 94.6552 142.678 93.0046 142.821L27.2528 148.54C25.6022 148.684 24.1477 147.462 24.0042 145.811L13.2599 22.2778ZM19.4973 24.7466L29.7217 142.303L89.496 137.104L79.2717 19.5478L19.4973 24.7466Z" fill="#07005A"/>
<path d="M29.0769 26.5589C28.8654 26.3758 28.6198 26.2368 28.3542 26.15C28.0908 26.0637 27.8129 26.0316 27.5369 26.0556C27.261 26.0796 26.9927 26.1592 26.7482 26.2897C26.5016 26.421 26.2836 26.6004 26.107 26.8172L26.0135 26.9315C25.9782 26.9757 25.9344 27.0122 25.8846 27.0389C25.8349 27.0656 25.7802 27.0819 25.724 27.0868C25.6678 27.0916 25.6112 27.085 25.5576 27.0674C25.504 27.0497 25.4545 27.0212 25.4121 26.9838L25.2979 26.8876C25.0882 26.7043 24.8439 26.5652 24.5795 26.4787C24.3152 26.3922 24.0361 26.36 23.7591 26.3841C23.4821 26.4082 23.2128 26.4881 22.9673 26.6189C22.7218 26.7498 22.5052 26.9289 22.3304 27.1457C21.9732 27.5906 21.8014 28.1569 21.8509 28.7261C21.9004 29.2953 22.1674 29.8235 22.596 30.2001L23.0354 30.5793L25.9435 33.0927C25.9861 33.1294 26.0357 33.1573 26.0892 33.1746C26.1427 33.1919 26.1991 33.1983 26.2552 33.1934C26.3112 33.1886 26.3657 33.1725 26.4154 33.1462C26.4651 33.12 26.5091 33.084 26.5448 33.0404L28.9704 30.0631L29.3401 29.6135C29.5184 29.3949 29.6522 29.1433 29.7338 28.8729C29.8995 28.3242 29.8481 27.7325 29.5901 27.2207C29.4638 26.9686 29.2894 26.7437 29.0769 26.5589V26.5589Z" fill="#F2F6FF"/>
<path d="M86.1667 128.998C85.9553 128.815 85.7096 128.676 85.444 128.589C85.1807 128.503 84.9027 128.471 84.6268 128.495C84.3508 128.519 84.0826 128.599 83.8381 128.729C83.5915 128.86 83.3735 129.04 83.1968 129.257L83.1033 129.371C83.0681 129.415 83.0242 129.452 82.9745 129.478C82.9247 129.505 82.8701 129.521 82.8139 129.526C82.7577 129.531 82.701 129.524 82.6474 129.507C82.5938 129.489 82.5443 129.461 82.502 129.423L82.3877 129.327C82.1781 129.144 81.9338 129.005 81.6694 128.918C81.405 128.832 81.126 128.799 80.849 128.824C80.5719 128.848 80.3027 128.928 80.0572 129.058C79.8117 129.189 79.5951 129.368 79.4202 129.585C79.0631 130.03 78.8913 130.596 78.9408 131.166C78.9903 131.735 79.2572 132.263 79.6859 132.64L80.1252 133.019L83.0333 135.532C83.076 135.569 83.1255 135.597 83.179 135.614C83.2326 135.631 83.289 135.638 83.345 135.633C83.401 135.628 83.4555 135.612 83.5052 135.586C83.555 135.559 83.599 135.523 83.6346 135.48L86.0602 132.503L86.43 132.053C86.6083 131.834 86.742 131.583 86.8236 131.312C86.9894 130.764 86.9379 130.172 86.6799 129.66C86.5536 129.408 86.3793 129.183 86.1667 128.998V128.998Z" fill="#F2F6FF"/>
<path d="M42.5768 46.8288C42.2584 46.54 41.8889 46.3201 41.4898 46.182C41.0941 46.0449 40.6768 45.9928 40.2629 46.0288C39.849 46.0648 39.4469 46.1882 39.0809 46.3916C38.7117 46.5964 38.3857 46.8768 38.1219 47.2163L37.9823 47.3953C37.9297 47.4645 37.8641 47.5216 37.7896 47.5632C37.7152 47.6048 37.6333 47.63 37.549 47.6374C37.4646 47.6447 37.3796 47.634 37.2991 47.6059C37.2185 47.5777 37.1441 47.5328 37.0803 47.4738L36.9082 47.3218C36.5926 47.0326 36.2251 46.8126 35.8279 46.6751C35.4306 46.5376 35.0117 46.4853 34.5962 46.5215C34.1807 46.5576 33.7771 46.6814 33.4095 46.8854C33.042 47.0895 32.718 47.3696 32.457 47.709C31.9238 48.4058 31.6695 49.2943 31.7473 50.1888C31.8251 51.0833 32.229 51.9145 32.8745 52.5088L33.5361 53.1072L37.9152 57.0734C37.9795 57.1314 38.054 57.1755 38.1344 57.203C38.2148 57.2305 38.2995 57.2409 38.3836 57.2336C38.4676 57.2263 38.5493 57.2014 38.6237 57.1604C38.6982 57.1194 38.764 57.0632 38.8172 56.9949L42.4386 52.3329L42.9906 51.629C43.2568 51.2866 43.456 50.8921 43.5767 50.4679C43.8221 49.607 43.7412 48.6772 43.3509 47.8716C43.1598 47.4748 42.8968 47.1205 42.5768 46.8288V46.8288Z" fill="#F2F6FF"/>
<path d="M45.1764 76.7155C44.858 76.4267 44.4885 76.2068 44.0894 76.0688C43.6937 75.9316 43.2764 75.8795 42.8625 75.9155C42.4486 75.9515 42.0466 76.0749 41.6805 76.2783C41.3113 76.4831 40.9853 76.7635 40.7215 77.103L40.5819 77.282C40.5293 77.3512 40.4637 77.4083 40.3892 77.4499C40.3148 77.4915 40.2329 77.5168 40.1486 77.5241C40.0642 77.5314 39.9792 77.5207 39.8987 77.4926C39.8181 77.4645 39.7437 77.4195 39.6799 77.3605L39.5079 77.2086C39.1922 76.9193 38.8247 76.6993 38.4275 76.5618C38.0302 76.4243 37.6113 76.3721 37.1958 76.4082C36.7803 76.4443 36.3767 76.5681 36.0091 76.7722C35.6416 76.9762 35.3176 77.2563 35.0566 77.5957C34.5234 78.2925 34.2691 79.181 34.3469 80.0755C34.4247 80.97 34.8286 81.8012 35.4741 82.3955L36.1357 82.9939L40.5149 86.9601C40.5791 87.0181 40.6536 87.0622 40.734 87.0897C40.8144 87.1172 40.8992 87.1276 40.9832 87.1203C41.0672 87.113 41.1489 87.0881 41.2233 87.0471C41.2978 87.0062 41.3636 86.9499 41.4168 86.8817L45.0382 82.2196L45.5902 81.5157C45.8564 81.1733 46.0556 80.7788 46.1764 80.3546C46.4217 79.4937 46.3408 78.5639 45.9505 77.7583C45.7595 77.3615 45.4965 77.0072 45.1764 76.7155V76.7155Z" fill="#F2F6FF"/>
<path d="M68.4086 114.851C68.727 115.14 69.0965 115.36 69.4955 115.498C69.8912 115.635 70.3085 115.687 70.7224 115.651C71.1364 115.615 71.5384 115.492 71.9045 115.288C72.2737 115.083 72.5997 114.803 72.8635 114.463L73.003 114.284C73.0557 114.215 73.1212 114.158 73.1957 114.116C73.2702 114.075 73.3521 114.05 73.4364 114.042C73.5207 114.035 73.6057 114.046 73.6863 114.074C73.7668 114.102 73.8412 114.147 73.905 114.206L74.0771 114.358C74.3928 114.647 74.7602 114.867 75.1575 115.005C75.5547 115.142 75.9736 115.194 76.3892 115.158C76.8047 115.122 77.2083 114.998 77.5758 114.794C77.9434 114.59 78.2673 114.31 78.5283 113.971C79.0615 113.274 79.3158 112.385 79.238 111.491C79.1602 110.596 78.7564 109.765 78.1109 109.171L77.4493 108.572L73.0701 104.606C73.0059 104.548 72.9314 104.504 72.8509 104.477C72.7705 104.449 72.6858 104.439 72.6018 104.446C72.5178 104.453 72.4361 104.478 72.3616 104.519C72.2872 104.56 72.2214 104.617 72.1681 104.685L68.5468 109.347L67.9948 110.051C67.7285 110.393 67.5294 110.788 67.4086 111.212C67.1633 112.073 67.2441 113.003 67.6344 113.808C67.8255 114.205 68.0885 114.559 68.4086 114.851V114.851Z" fill="#F2F6FF"/>
<path d="M72.4635 44.2292C72.1451 43.9403 71.7756 43.7205 71.3765 43.5824C70.9809 43.4453 70.5636 43.3931 70.1496 43.4291C69.7357 43.4652 69.3337 43.5885 68.9676 43.7919C68.5984 43.9968 68.2724 44.2772 68.0086 44.6167L67.869 44.7957C67.8164 44.8649 67.7508 44.922 67.6764 44.9636C67.6019 45.0052 67.52 45.0304 67.4357 45.0378C67.3513 45.0451 67.2663 45.0344 67.1858 45.0063C67.1052 44.9781 67.0308 44.9332 66.967 44.8742L66.795 44.7222C66.4793 44.433 66.1118 44.213 65.7146 44.0755C65.3173 43.938 64.8984 43.8857 64.4829 43.9219C64.0674 43.958 63.6638 44.0818 63.2962 44.2858C62.9287 44.4899 62.6047 44.77 62.3437 45.1094C61.8105 45.8062 61.5562 46.6947 61.634 47.5892C61.7118 48.4836 62.1157 49.3149 62.7612 49.9092L63.4228 50.5076L67.802 54.4738C67.8662 54.5318 67.9407 54.5759 68.0211 54.6034C68.1016 54.6309 68.1863 54.6413 68.2703 54.634C68.3543 54.6267 68.436 54.6018 68.5104 54.5608C68.5849 54.5198 68.6507 54.4636 68.7039 54.3953L72.3253 49.7333L72.8773 49.0293C73.1435 48.687 73.3427 48.2925 73.4635 47.8683C73.7088 47.0074 73.6279 46.0776 73.2376 45.2719C73.0466 44.8752 72.7836 44.5209 72.4635 44.2292V44.2292Z" fill="#F2F6FF"/>
<path d="M75.0631 74.1159C74.7447 73.8271 74.3752 73.6072 73.9762 73.4691C73.5805 73.332 73.1632 73.2799 72.7492 73.3159C72.3353 73.3519 71.9333 73.4753 71.5672 73.6787C71.198 73.8835 70.872 74.1639 70.6082 74.5034L70.4686 74.6824C70.416 74.7516 70.3505 74.8087 70.276 74.8503C70.2015 74.8919 70.1196 74.9171 70.0353 74.9245C69.951 74.9318 69.8659 74.9211 69.7854 74.893C69.7048 74.8649 69.6304 74.8199 69.5667 74.7609L69.3946 74.609C69.0789 74.3197 68.7114 74.0997 68.3142 73.9622C67.9169 73.8247 67.498 73.7724 67.0825 73.8086C66.667 73.8447 66.2634 73.9685 65.8959 74.1725C65.5283 74.3766 65.2043 74.6567 64.9433 74.9961C64.4101 75.6929 64.1559 76.5814 64.2337 77.4759C64.3115 78.3704 64.7153 79.2016 65.3608 79.7959L66.0224 80.3943L70.4016 84.3605C70.4658 84.4185 70.5403 84.4626 70.6207 84.4901C70.7012 84.5176 70.7859 84.528 70.8699 84.5207C70.9539 84.5134 71.0356 84.4885 71.11 84.4475C71.1845 84.4066 71.2503 84.3503 71.3036 84.282L74.9249 79.62L75.4769 78.9161C75.7431 78.5737 75.9423 78.1792 76.0631 77.755C76.3084 76.8941 76.2275 75.9643 75.8373 75.1587C75.6462 74.7619 75.3832 74.4076 75.0631 74.1159V74.1159Z" fill="#F2F6FF"/>
<path d="M58.82 60.4714C58.5015 60.1825 58.132 59.9627 57.733 59.8246C57.3373 59.6875 56.92 59.6353 56.5061 59.6713C56.0921 59.7073 55.6901 59.8307 55.324 60.0341C54.9548 60.239 54.6288 60.5194 54.3651 60.8589L54.2255 61.0379C54.1728 61.1071 54.1073 61.1642 54.0328 61.2058C53.9583 61.2474 53.8764 61.2726 53.7921 61.2799C53.7078 61.2873 53.6228 61.2766 53.5422 61.2484C53.4617 61.2203 53.3873 61.1754 53.3235 61.1164L53.1514 60.9644C52.8357 60.6752 52.4683 60.4552 52.071 60.3177C51.6738 60.1802 51.2549 60.1279 50.8394 60.164C50.4238 60.2002 50.0202 60.324 49.6527 60.528C49.2851 60.7321 48.9612 61.0121 48.7002 61.3516C48.167 62.0484 47.9127 62.9369 47.9905 63.8313C48.0683 64.7258 48.4721 65.5571 49.1176 66.1514L49.7793 66.7498L54.1584 70.716C54.2226 70.774 54.2972 70.818 54.3776 70.8456C54.458 70.8731 54.5427 70.8835 54.6267 70.8762C54.7108 70.8689 54.7924 70.844 54.8669 70.803C54.9414 70.762 55.0071 70.7058 55.0604 70.6375L58.6817 65.9755L59.2338 65.2715C59.5 64.9292 59.6991 64.5347 59.8199 64.1105C60.0652 63.2496 59.9844 62.3197 59.5941 61.5141C59.403 61.1174 59.14 60.7631 58.82 60.4714V60.4714Z" fill="#F2F6FF"/>
<path d="M38.5209 117.45C38.8393 117.739 39.2088 117.959 39.6078 118.097C40.0035 118.234 40.4208 118.287 40.8347 118.251C41.2487 118.215 41.6507 118.091 42.0168 117.888C42.386 117.683 42.712 117.403 42.9758 117.063L43.1154 116.884C43.168 116.815 43.2335 116.758 43.308 116.716C43.3825 116.674 43.4644 116.649 43.5487 116.642C43.633 116.635 43.718 116.645 43.7986 116.673C43.8791 116.702 43.9535 116.746 44.0173 116.806L44.1894 116.957C44.5051 117.247 44.8725 117.467 45.2698 117.604C45.667 117.742 46.0859 117.794 46.5015 117.758C46.917 117.722 47.3206 117.598 47.6881 117.394C48.0557 117.19 48.3796 116.91 48.6406 116.57C49.1738 115.874 49.4281 114.985 49.3503 114.091C49.2725 113.196 48.8687 112.365 48.2232 111.771L47.5616 111.172L43.1824 107.206C43.1182 107.148 43.0437 107.104 42.9632 107.076C42.8828 107.049 42.7981 107.038 42.7141 107.046C42.6301 107.053 42.5484 107.078 42.4739 107.119C42.3995 107.16 42.3337 107.216 42.2804 107.284L38.6591 111.946L38.1071 112.65C37.8408 112.993 37.6417 113.387 37.5209 113.811C37.2756 114.672 37.3564 115.602 37.7467 116.408C37.9378 116.805 38.2008 117.159 38.5209 117.45V117.45Z" fill="#F2F6FF"/>
<path d="M24.4346 35.3594L24.6147 37.4309L26.739 37.2461L25.3583 43.3092L27.2355 43.146L28.5741 36.7899L28.4195 35.0128L24.4346 35.3594Z" fill="#F2F6FF"/>
<path d="M79.8789 118.869L80.0591 120.941L82.1833 120.756L80.8026 126.819L82.6798 126.656L84.0184 120.3L83.8639 118.523L79.8789 118.869Z" fill="#F2F6FF"/>
<path d="M31.4907 158.883L69.7959 15.9258L156.729 39.2195L118.424 182.177L31.4907 158.883Z" fill="#F2F6FF"/>
<path fill-rule="evenodd" clip-rule="evenodd" d="M66.8983 15.1497C67.3272 13.5493 68.9722 12.5996 70.5726 13.0284L157.506 36.3221C159.106 36.7509 160.056 38.396 159.627 39.9964L121.322 182.953C120.893 184.554 119.248 185.504 117.648 185.075L30.7145 161.781C29.1141 161.352 28.1643 159.707 28.5931 158.107L66.8983 15.1497ZM71.9174 19.6004L35.1651 156.762L116.303 178.503L153.055 41.3412L71.9174 19.6004Z" fill="#07005A"/>
<path d="M121.416 85.1461C120.463 83.4361 119.178 81.9342 117.639 80.728C116.113 79.5309 114.361 78.6552 112.488 78.1533C110.615 77.6515 108.66 77.5339 106.739 77.8075C104.803 78.0823 102.94 78.7409 101.259 79.745L100.371 80.2737C100.033 80.48 99.6573 80.6155 99.2663 80.6721C98.8752 80.7287 98.4768 80.7052 98.0953 80.6029C97.7137 80.5007 97.357 80.3219 97.0466 80.0773C96.7362 79.8328 96.4786 79.5276 96.2894 79.1802L95.7677 78.2736C94.8269 76.5664 93.552 75.0674 92.0194 73.8662C90.4868 72.665 88.7279 71.7863 86.8478 71.2825C84.9678 70.7787 83.0051 70.6603 81.0772 70.9343C79.1493 71.2082 77.2958 71.869 75.6274 72.877C72.2137 74.9506 69.7296 78.2654 68.6945 82.1287C67.6593 85.992 68.1531 90.1048 70.0727 93.6074L72.0566 97.1526L85.1801 120.641C85.3728 120.985 85.6321 121.287 85.9429 121.528C86.2537 121.77 86.6096 121.947 86.9898 122.049C87.37 122.151 87.7668 122.176 88.1569 122.122C88.5469 122.068 88.9224 121.936 89.2612 121.734L112.337 107.946L115.845 105.872C117.541 104.86 119.022 103.524 120.205 101.94C122.608 98.727 123.684 94.7109 123.21 90.7268C122.982 88.7663 122.372 86.8704 121.416 85.1461V85.1461Z" fill="#FF8585"/>
</svg>
