<svg width="126" height="173" viewBox="0 0 126 173" fill="none" xmlns="http://www.w3.org/2000/svg">
<path d="M3 157.851V3H112.073V169.395L3 157.851Z" fill="#476FF5"/>
<path fill-rule="evenodd" clip-rule="evenodd" d="M0 3C0 1.34315 1.34315 0 3 0H112.073C113.729 0 115.073 1.34315 115.073 3V169.395C115.073 170.246 114.711 171.057 114.079 171.625C113.447 172.194 112.603 172.468 111.757 172.379L2.68425 160.834C1.15815 160.673 0 159.386 0 157.851V3ZM6 6V155.152L109.073 166.061V6H6Z" fill="#07005A"/>
<path d="M3 157.453V3H122.024V157.453H3Z" fill="#F2F6FF"/>
<path fill-rule="evenodd" clip-rule="evenodd" d="M0 3C0 1.34315 1.34315 0 3 0H122.024C123.681 0 125.024 1.34315 125.024 3V157.453C125.024 159.11 123.681 160.453 122.024 160.453H3C1.34315 160.453 0 159.11 0 157.453V3ZM6 6V154.453H119.024V6H6Z" fill="#07005A"/>
<path fill-rule="evenodd" clip-rule="evenodd" d="M0 3C0 1.34315 1.34315 0 3 0H121.626C123.283 0 124.626 1.34315 124.626 3V42.8075C124.626 44.4644 123.283 45.8075 121.626 45.8075H3C1.34315 45.8075 0 44.4644 0 42.8075V3ZM6 6V39.8075H118.626V6H6Z" fill="#07005A"/>
<path fill-rule="evenodd" clip-rule="evenodd" d="M82.0039 3C82.0039 1.34315 83.3471 0 85.0039 0H121.627C123.284 0 124.627 1.34315 124.627 3V42.8075C124.627 44.4644 123.284 45.8075 121.627 45.8075H85.0039C83.3471 45.8075 82.0039 44.4644 82.0039 42.8075V3ZM88.0039 6V39.8075H118.627V6H88.0039Z" fill="#07005A"/>
<path d="M34.073 15.1044V31.3884H28.99V23.2694L26.483 31.3884H22.113L19.606 23.2694V31.3884H14.5V15.1044H20.756L24.344 24.8794L27.84 15.1044H34.073Z" fill="#07005A"/>
<path d="M49.1189 28.9274H43.691L42.886 31.3884H37.527L43.484 15.1044H49.372L55.306 31.3884H49.924L49.1189 28.9274ZM47.877 25.0864L46.405 20.5554L44.933 25.0864H47.877Z" fill="#07005A"/>
<path d="M66.54 14.9434C68.6713 14.9434 70.404 15.457 71.738 16.4844C73.0873 17.5117 73.8847 18.907 74.13 20.6704H68.748C68.5487 20.3484 68.265 20.103 67.897 19.9344C67.529 19.7504 67.0843 19.6584 66.563 19.6584C65.5817 19.6584 64.8227 19.9804 64.286 20.6244C63.7493 21.253 63.481 22.1194 63.481 23.2234C63.481 24.496 63.78 25.4467 64.378 26.0754C64.976 26.704 65.896 27.0184 67.138 27.0184C68.3187 27.0184 69.2693 26.543 69.99 25.5924H65.919V21.9814H74.222V27.0874C73.5167 28.2987 72.543 29.3414 71.301 30.2154C70.059 31.074 68.4873 31.5034 66.586 31.5034C64.8993 31.5034 63.4273 31.1584 62.17 30.4684C60.928 29.763 59.9697 28.7817 59.295 27.5244C58.6357 26.267 58.306 24.8334 58.306 23.2234C58.306 21.6134 58.6357 20.1797 59.295 18.9224C59.9697 17.665 60.928 16.6914 62.17 16.0014C63.412 15.296 64.8687 14.9434 66.54 14.9434Z" fill="#07005A"/>
<path d="M14.1465 145.512V53.1582H85.0038V145.512H14.1465Z" fill="#476FF5"/>
<path fill-rule="evenodd" clip-rule="evenodd" d="M11.1465 53.1582C11.1465 51.5013 12.4896 50.1582 14.1465 50.1582H85.0038C86.6607 50.1582 88.0038 51.5013 88.0038 53.1582V145.512C88.0038 147.168 86.6607 148.512 85.0038 148.512H14.1465C12.4896 148.512 11.1465 147.168 11.1465 145.512V53.1582ZM17.1465 56.1582V142.512H82.0038V56.1582H17.1465Z" fill="#07005A"/>
<path fill-rule="evenodd" clip-rule="evenodd" d="M91.5576 57.9336C91.5576 56.2767 92.9008 54.9336 94.5576 54.9336H111.675C113.332 54.9336 114.675 56.2767 114.675 57.9336C114.675 59.5904 113.332 60.9336 111.675 60.9336H94.5576C92.9008 60.9336 91.5576 59.5904 91.5576 57.9336Z" fill="#07005A"/>
<path fill-rule="evenodd" clip-rule="evenodd" d="M91.9551 69.0801C91.9551 67.4232 93.2982 66.0801 94.9551 66.0801H112.072C113.729 66.0801 115.072 67.4232 115.072 69.0801C115.072 70.7369 113.729 72.0801 112.072 72.0801H94.9551C93.2982 72.0801 91.9551 70.7369 91.9551 69.0801Z" fill="#07005A"/>
<path fill-rule="evenodd" clip-rule="evenodd" d="M91.9551 80.2266C91.9551 78.5697 93.2982 77.2266 94.9551 77.2266H112.072C113.729 77.2266 115.072 78.5697 115.072 80.2266C115.072 81.8834 113.729 83.2266 112.072 83.2266H94.9551C93.2982 83.2266 91.9551 81.8834 91.9551 80.2266Z" fill="#07005A"/>
<path fill-rule="evenodd" clip-rule="evenodd" d="M86.4396 51.5796C87.7505 52.5929 87.9918 54.477 86.9785 55.7879L16.5193 146.947C15.506 148.258 13.6219 148.499 12.311 147.486C11.0001 146.473 10.7588 144.589 11.772 143.278L82.2313 52.1186C83.2445 50.8077 85.1286 50.5664 86.4396 51.5796Z" fill="#07005A"/>
<path fill-rule="evenodd" clip-rule="evenodd" d="M86.04 147.089C87.3516 146.077 87.594 144.193 86.5816 142.882L16.5204 52.1205C15.508 50.8089 13.624 50.5664 12.3125 51.5788C11.0009 52.5913 10.7584 54.4752 11.7709 55.7868L81.8321 146.548C82.8445 147.859 84.7285 148.102 86.04 147.089Z" fill="#07005A"/>
<path fill-rule="evenodd" clip-rule="evenodd" d="M123.681 0.814126C124.888 1.94892 124.947 3.84751 123.812 5.05474L86.3929 44.8622C85.2581 46.0695 83.3595 46.1282 82.1523 44.9934C80.9451 43.8586 80.8864 41.96 82.0212 40.7528L119.44 0.945279C120.575 -0.261951 122.474 -0.32067 123.681 0.814126Z" fill="#07005A"/>
<path d="M94.5576 91.373H112.073V145.511H94.5576V91.373Z" fill="#FFCE85"/>
<path fill-rule="evenodd" clip-rule="evenodd" d="M91.5576 91.373C91.5576 89.7162 92.9008 88.373 94.5576 88.373H112.073C113.73 88.373 115.073 89.7162 115.073 91.373V145.511C115.073 147.168 113.73 148.511 112.073 148.511H94.5576C92.9008 148.511 91.5576 147.168 91.5576 145.511V91.373ZM97.5576 94.373V142.511H109.073V94.373H97.5576Z" fill="#07005A"/>
</svg>
