<svg width="154" height="156" viewBox="0 0 154 156" fill="none" xmlns="http://www.w3.org/2000/svg">
<path d="M3 140.057V34.8887H150.235V140.057H3Z" fill="#F2F6FF"/>
<path fill-rule="evenodd" clip-rule="evenodd" d="M0 34.8887C0 33.2318 1.34315 31.8887 3 31.8887H150.235C151.892 31.8887 153.235 33.2318 153.235 34.8887V140.057C153.235 141.713 151.892 143.057 150.235 143.057H3C1.34315 143.057 0 141.713 0 140.057V34.8887ZM6 37.8887V137.057H147.235V37.8887H6Z" fill="#07005A"/>
<path d="M15.8916 125.809V49.1387H113.596V125.809H15.8916Z" fill="#FF8585"/>
<path fill-rule="evenodd" clip-rule="evenodd" d="M12.8916 49.1387C12.8916 47.4818 14.2347 46.1387 15.8916 46.1387H113.596C115.253 46.1387 116.596 47.4818 116.596 49.1387V125.809C116.596 127.466 115.253 128.809 113.596 128.809H15.8916C14.2347 128.809 12.8916 127.466 12.8916 125.809V49.1387ZM18.8916 52.1387V122.809H110.596V52.1387H18.8916Z" fill="#07005A"/>
<path d="M122.416 125.809V91.2051H143.45V125.809H122.416Z" fill="#476FF5"/>
<path fill-rule="evenodd" clip-rule="evenodd" d="M119.416 91.2051C119.416 89.5482 120.759 88.2051 122.416 88.2051H143.45C145.106 88.2051 146.45 89.5482 146.45 91.2051V125.809C146.45 127.466 145.106 128.809 143.45 128.809H122.416C120.759 128.809 119.416 127.466 119.416 125.809V91.2051ZM125.416 94.2051V122.809H140.45V94.2051H125.416Z" fill="#07005A"/>
<path d="M17.9277 152.948V140.057H30.8193L27.4268 152.948H17.9277Z" fill="#07005A"/>
<path fill-rule="evenodd" clip-rule="evenodd" d="M14.9277 140.057C14.9277 138.4 16.2709 137.057 17.9277 137.057H30.8193C31.7496 137.057 32.6273 137.488 33.1953 138.225C33.7632 138.962 33.9573 139.92 33.7205 140.82L30.328 153.712C29.9812 155.03 28.7896 155.948 27.4268 155.948H17.9277C16.2709 155.948 14.9277 154.605 14.9277 152.948V140.057ZM20.9277 143.057V149.948H25.1141L26.9277 143.057H20.9277Z" fill="#07005A"/>
<path d="M135.308 152.948V140.057H122.416L125.809 152.948H135.308Z" fill="#07005A"/>
<path fill-rule="evenodd" clip-rule="evenodd" d="M138.308 140.057C138.308 138.4 136.964 137.057 135.308 137.057H122.416C121.486 137.057 120.608 137.488 120.04 138.225C119.472 138.962 119.278 139.92 119.515 140.82L122.907 153.712C123.254 155.03 124.446 155.948 125.809 155.948H135.308C136.964 155.948 138.308 154.605 138.308 152.948V140.057ZM132.308 143.057V149.948H128.121L126.308 143.057H132.308Z" fill="#07005A"/>
<path d="M91.8834 34.8885H58.6367C58.6367 29.2676 63.1934 24.7109 68.8143 24.7109H81.7058C87.3267 24.7109 91.8834 29.2676 91.8834 34.8885Z" fill="#07005A"/>
<path fill-rule="evenodd" clip-rule="evenodd" d="M62.2918 31.8885H88.2282C87.0922 29.4226 84.5989 27.7109 81.7058 27.7109H68.8143C65.9212 27.7109 63.4279 29.4226 62.2918 31.8885ZM55.6367 34.8885C55.6367 27.6107 61.5365 21.7109 68.8143 21.7109H81.7058C88.9836 21.7109 94.8834 27.6107 94.8834 34.8885C94.8834 36.5453 93.5402 37.8885 91.8834 37.8885H58.6367C56.9799 37.8885 55.6367 36.5453 55.6367 34.8885Z" fill="#07005A"/>
<path fill-rule="evenodd" clip-rule="evenodd" d="M44.372 0.811398C45.5808 -0.321793 47.4793 -0.26055 48.6124 0.948186L68.9675 22.6603C70.1007 23.869 70.0395 25.7675 68.8307 26.9007C67.622 28.0339 65.7235 27.9727 64.5903 26.7639L44.2352 5.05183C43.102 3.8431 43.1633 1.94459 44.372 0.811398Z" fill="#07005A"/>
<path fill-rule="evenodd" clip-rule="evenodd" d="M105.47 0.811398C104.261 -0.321793 102.363 -0.26055 101.229 0.948186L80.8743 22.6603C79.7411 23.869 79.8023 25.7675 81.0111 26.9007C82.2198 28.0339 84.1183 27.9727 85.2515 26.7639L105.607 5.05183C106.74 3.8431 106.679 1.94459 105.47 0.811398Z" fill="#07005A"/>
<path d="M132.933 47.7812C137.242 47.7812 140.735 51.2747 140.735 55.584C140.735 59.8934 137.242 63.3868 132.933 63.3868C128.623 63.3868 125.13 59.8934 125.13 55.584C125.13 51.2747 128.623 47.7812 132.933 47.7812Z" fill="#FFCE85"/>
<path fill-rule="evenodd" clip-rule="evenodd" d="M132.933 50.7812C130.28 50.7812 128.13 52.9315 128.13 55.584C128.13 58.2365 130.28 60.3868 132.933 60.3868C135.585 60.3868 137.735 58.2365 137.735 55.584C137.735 52.9315 135.585 50.7812 132.933 50.7812ZM122.13 55.584C122.13 49.6178 126.966 44.7812 132.933 44.7812C138.899 44.7812 143.735 49.6178 143.735 55.584C143.735 61.5502 138.899 66.3868 132.933 66.3868C126.966 66.3868 122.13 61.5502 122.13 55.584Z" fill="#07005A"/>
<path d="M132.933 73.5645C134.994 73.5645 136.665 75.2352 136.665 77.2962C136.665 79.3572 134.994 81.028 132.933 81.028C130.872 81.028 129.201 79.3572 129.201 77.2962C129.201 75.2352 130.872 73.5645 132.933 73.5645Z" fill="#07005A"/>
<path fill-rule="evenodd" clip-rule="evenodd" d="M132.933 76.5645C132.529 76.5645 132.201 76.8921 132.201 77.2962C132.201 77.7004 132.529 78.028 132.933 78.028C133.337 78.028 133.665 77.7004 133.665 77.2962C133.665 76.8921 133.337 76.5645 132.933 76.5645ZM126.201 77.2962C126.201 73.5784 129.215 70.5645 132.933 70.5645C136.651 70.5645 139.665 73.5784 139.665 77.2962C139.665 81.0141 136.651 84.028 132.933 84.028C129.215 84.028 126.201 81.0141 126.201 77.2962Z" fill="#07005A"/>
<path d="M77.2957 116.311H52.8696C36.9437 116.311 24.0332 103.401 24.0332 87.475C24.0332 71.5492 36.9437 58.6387 52.8696 58.6387H77.2957C93.2216 58.6387 106.132 71.5492 106.132 87.475C106.132 103.401 93.2216 116.311 77.2957 116.311Z" fill="#FFCE85"/>
<path fill-rule="evenodd" clip-rule="evenodd" d="M52.8696 61.6387C38.6005 61.6387 27.0332 73.206 27.0332 87.475C27.0332 101.744 38.6005 113.311 52.8696 113.311H77.2957C91.5647 113.311 103.132 101.744 103.132 87.475C103.132 73.206 91.5647 61.6387 77.2957 61.6387H52.8696ZM21.0332 87.475C21.0332 69.8923 35.2868 55.6387 52.8696 55.6387H77.2957C94.8784 55.6387 109.132 69.8923 109.132 87.475C109.132 105.058 94.8784 119.311 77.2957 119.311H52.8696C35.2868 119.311 21.0332 105.058 21.0332 87.475Z" fill="#07005A"/>
</svg>
