<svg width="178" height="160" viewBox="0 0 178 160" fill="none" xmlns="http://www.w3.org/2000/svg">
<path fill-rule="evenodd" clip-rule="evenodd" d="M135.052 3C126.503 3 119.102 7.90987 115.513 15.0634C112.618 13.6468 109.364 12.8516 105.924 12.8516C99.6843 12.8516 94.0558 15.4675 90.075 19.6623C86.0942 15.4675 80.4657 12.8516 74.2261 12.8516C65.4731 12.8516 57.9224 17.9995 54.4365 25.4327C52.8142 25.0485 51.1221 24.8452 49.3824 24.8452C37.3173 24.8452 27.5366 34.6259 27.5366 46.691C27.5366 52.1835 29.5636 57.2026 32.9103 61.041C29.5636 64.8794 27.5366 69.8985 27.5366 75.391C27.5366 78.5977 28.2275 81.6431 29.4686 84.3864C28.2275 87.1296 27.5366 90.175 27.5366 93.3817C27.5366 103.199 34.0126 111.504 42.9258 114.258C44.8724 124.328 53.7351 131.933 64.374 131.933C65.7 131.933 66.9985 131.815 68.2593 131.589C71.7946 138.891 79.276 143.928 87.9336 143.928C97.532 143.928 105.685 137.737 108.617 129.131C111.099 130.111 113.803 130.649 116.633 130.649C121.747 130.649 126.451 128.892 130.173 125.948C133.562 128.11 137.588 129.363 141.906 129.363C153.971 129.363 163.752 119.582 163.752 107.517C163.752 105.078 163.352 102.732 162.614 100.542C168.225 96.5878 171.89 90.0581 171.89 82.6724C171.89 77.741 170.256 73.1912 167.5 69.535C171.782 65.5467 174.46 59.859 174.46 53.5458C174.46 42.5375 166.318 33.4309 155.727 31.9201C156.486 29.7014 156.898 27.3217 156.898 24.8458C156.898 12.7807 147.117 3 135.052 3Z" fill="#F2F6FF"/>
<path fill-rule="evenodd" clip-rule="evenodd" d="M159.898 24.8458C159.898 11.1238 148.774 0 135.052 0C126.333 0 118.667 4.49141 114.236 11.2769C111.634 10.3536 108.835 9.85165 105.924 9.85165C99.9004 9.85165 94.3746 11.9979 90.075 15.5624C85.7754 11.9979 80.2496 9.85165 74.2261 9.85165C65.1056 9.85165 57.138 14.766 52.818 22.0811C51.6939 21.9255 50.5468 21.8452 49.3824 21.8452C35.6604 21.8452 24.5366 32.969 24.5366 46.691C24.5366 52.0342 26.2261 56.9883 29.0975 61.041C26.2261 65.0937 24.5366 70.0477 24.5366 75.391C24.5366 78.5587 25.1308 81.5938 26.2158 84.3864C25.1308 87.1789 24.5366 90.214 24.5366 93.3817C24.5366 103.931 31.1089 112.938 40.3762 116.544C43.2197 127.135 52.8833 134.933 64.374 134.933C65.1258 134.933 65.8704 134.9 66.6063 134.834C70.9441 142.074 78.8696 146.928 87.9336 146.928C97.8042 146.928 106.324 141.173 110.334 132.843C112.348 133.369 114.459 133.649 116.633 133.649C121.702 133.649 126.422 132.128 130.354 129.519C133.807 131.335 137.74 132.363 141.906 132.363C155.628 132.363 166.752 121.239 166.752 107.517C166.752 105.506 166.512 103.547 166.059 101.669C171.455 97.1151 174.89 90.295 174.89 82.6724C174.89 77.9937 173.594 73.6116 171.343 69.8723C175.15 65.508 177.46 59.7949 177.46 53.5458C177.46 42.1874 169.84 32.6128 159.433 29.6482C159.738 28.0928 159.898 26.4869 159.898 24.8458ZM135.052 6C145.46 6 153.898 14.4375 153.898 24.8458C153.898 26.987 153.542 29.0388 152.888 30.9491C152.599 31.7948 152.702 32.7254 153.169 33.4875C153.636 34.2496 154.418 34.7638 155.303 34.89C164.437 36.1929 171.46 44.0518 171.46 53.5458C171.46 58.9922 169.154 63.8952 165.455 67.3397C164.331 68.3868 164.18 70.114 165.104 71.3408C167.482 74.4947 168.89 78.4148 168.89 82.6724C168.89 89.0414 165.734 94.6734 160.886 98.0896C159.801 98.8542 159.348 100.241 159.771 101.499C160.406 103.385 160.752 105.408 160.752 107.517C160.752 117.925 152.314 126.363 141.906 126.363C138.176 126.363 134.708 125.283 131.786 123.419C130.709 122.732 129.315 122.802 128.312 123.595C125.101 126.135 121.048 127.649 116.633 127.649C114.186 127.649 111.855 127.184 109.718 126.341C108.955 126.04 108.102 126.064 107.357 126.408C106.613 126.753 106.042 127.387 105.777 128.164C103.246 135.592 96.2092 140.928 87.9336 140.928C80.4694 140.928 74.0128 136.588 70.9596 130.281C70.3735 129.071 69.0532 128.398 67.7293 128.636C66.6425 128.831 65.5215 128.933 64.374 128.933C55.1994 128.933 47.5503 122.374 45.8713 113.688C45.6612 112.601 44.8693 111.718 43.8113 111.391C36.1196 109.015 30.5366 101.847 30.5366 93.3817C30.5366 90.6098 31.1331 87.9854 32.2019 85.623C32.5575 84.8369 32.5575 83.9358 32.2019 83.1497C31.1331 80.7874 30.5366 78.1629 30.5366 75.391C30.5366 70.6506 32.2829 66.3255 35.1715 63.0125C36.1565 61.8827 36.1565 60.1992 35.1715 59.0694C32.2829 55.7565 30.5366 51.4314 30.5366 46.691C30.5366 36.2827 38.9741 27.8452 49.3824 27.8452C50.8875 27.8452 52.3477 28.021 53.745 28.352C55.1272 28.6794 56.5495 27.9925 57.1526 26.7065C60.1631 20.2872 66.6797 15.8516 74.2261 15.8516C79.6091 15.8516 84.461 18.1046 87.8989 21.7274C88.4653 22.3243 89.2521 22.6623 90.075 22.6623C90.8979 22.6623 91.6847 22.3243 92.2511 21.7274C95.689 18.1046 100.541 15.8516 105.924 15.8516C108.897 15.8516 111.701 16.538 114.195 17.7581C115.673 18.4812 117.457 17.8792 118.195 16.4086C121.294 10.2301 127.682 6 135.052 6Z" fill="#07005A"/>
<path d="M11.844 129.979C11.844 135.561 16.3694 140.087 21.9518 140.087C27.5342 140.087 32.0596 135.561 32.0596 129.979C32.0596 124.397 27.5342 119.871 21.9518 119.871C16.3694 119.871 11.844 124.397 11.844 129.979Z" fill="#F2F6FF"/>
<path fill-rule="evenodd" clip-rule="evenodd" d="M21.9518 122.871C25.8773 122.871 29.0596 126.053 29.0596 129.979C29.0596 133.904 25.8773 137.087 21.9518 137.087C18.0262 137.087 14.844 133.904 14.844 129.979C14.844 126.053 18.0262 122.871 21.9518 122.871ZM35.0596 129.979C35.0596 122.74 29.191 116.871 21.9518 116.871C14.7125 116.871 8.84397 122.74 8.84397 129.979C8.84397 137.218 14.7125 143.087 21.9518 143.087C29.191 143.087 35.0596 137.218 35.0596 129.979Z" fill="#07005A"/>
<path d="M2.99942 152.09C2.99942 154.532 4.97929 156.512 7.42159 156.512C9.86388 156.512 11.8438 154.532 11.8438 152.09C11.8438 149.648 9.86388 147.668 7.42159 147.668C4.97929 147.668 2.99942 149.648 2.99942 152.09Z" fill="#F2F6FF"/>
<path fill-rule="evenodd" clip-rule="evenodd" d="M7.42159 150.668C8.20703 150.668 8.84375 151.305 8.84375 152.09C8.84375 152.876 8.20703 153.512 7.42159 153.512C6.63615 153.512 5.99942 152.876 5.99942 152.09C5.99942 151.305 6.63615 150.668 7.42159 150.668ZM14.8438 152.09C14.8438 147.991 11.5207 144.668 7.42159 144.668C3.32244 144.668 -0.000576973 147.991 -0.000576973 152.09C-0.000576973 156.189 3.32244 159.512 7.42159 159.512C11.5207 159.512 14.8438 156.189 14.8438 152.09Z" fill="#07005A"/>
<path d="M96.6868 119.729L104.899 119.729C106.469 119.729 107.742 118.456 107.742 116.886C107.742 115.316 106.469 114.043 104.899 114.043L96.6868 114.043C95.1167 114.043 93.844 115.316 93.844 116.886C93.844 118.456 95.1167 119.729 96.6868 119.729Z" fill="#07005A"/>
<path fill-rule="evenodd" clip-rule="evenodd" d="M104.899 122.729C108.126 122.729 110.742 120.113 110.742 116.886C110.742 113.659 108.126 111.043 104.899 111.043L96.6868 111.043C93.4599 111.043 90.844 113.659 90.844 116.886C90.844 120.113 93.4599 122.729 96.6868 122.729L104.899 122.729Z" fill="#07005A"/>
<path d="M128.072 70.9235C128.072 56.0195 115.99 43.9375 101.086 43.9375V43.9375C86.1823 43.9375 74.1003 56.0195 74.1003 70.9235V71.4255C74.1003 76.2867 75.3895 81.061 77.8364 85.2615L81.7688 92.0122C84.9773 97.5202 90.8714 100.908 97.2457 100.908H104.927C111.301 100.908 117.195 97.5202 120.404 92.0122L124.336 85.2616C126.783 81.061 128.072 76.2867 128.072 71.4255V70.9235Z" fill="#FFCE85"/>
<path fill-rule="evenodd" clip-rule="evenodd" d="M131.072 70.9235C131.072 54.3627 117.647 40.9375 101.086 40.9375C84.5255 40.9375 71.1003 54.3627 71.1003 70.9235V71.4255C71.1003 76.8173 72.5302 82.1126 75.2441 86.7716L79.1766 93.5223C82.9225 99.9528 89.8037 103.908 97.2457 103.908H104.927C112.369 103.908 119.25 99.9528 122.996 93.5223L126.928 86.7716C129.642 82.1126 131.072 76.8173 131.072 71.4255V70.9235ZM101.086 46.9375C114.333 46.9375 125.072 57.6764 125.072 70.9235V71.4255C125.072 75.7562 123.924 80.0094 121.744 83.7515L117.811 90.5022C115.14 95.0876 110.234 97.9079 104.927 97.9079H97.2457C91.939 97.9079 87.0322 95.0876 84.3611 90.5022L80.4286 83.7515C78.2488 80.0094 77.1003 75.7562 77.1003 71.4255V70.9235C77.1003 57.6764 87.8392 46.9375 101.086 46.9375Z" fill="#07005A"/>
<path d="M87.3786 108.189L114.793 108.189L114.793 100.908L87.3786 100.908L87.3786 108.189Z" fill="#F2F6FF"/>
<path fill-rule="evenodd" clip-rule="evenodd" d="M114.793 111.189C116.45 111.189 117.793 109.846 117.793 108.189L117.793 100.908C117.793 99.2507 116.45 97.9075 114.793 97.9075L87.3786 97.9075C85.7218 97.9075 84.3786 99.2507 84.3786 100.908L84.3786 108.189C84.3786 109.846 85.7218 111.189 87.3786 111.189L114.793 111.189ZM111.793 105.189L90.3786 105.189L90.3786 103.908L111.793 103.908L111.793 105.189Z" fill="#07005A"/>
<path d="M95.9462 100.906L106.227 100.906L106.227 79.9172L95.9462 79.9172L95.9462 100.906Z" fill="#FFCE85"/>
<path fill-rule="evenodd" clip-rule="evenodd" d="M106.227 103.906C107.883 103.906 109.227 102.563 109.227 100.906L109.227 79.9172C109.227 78.2603 107.883 76.9172 106.227 76.9172L95.9462 76.9172C94.2893 76.9172 92.9462 78.2603 92.9462 79.9172L92.9462 100.906C92.9462 102.563 94.2893 103.906 95.9462 103.906L106.227 103.906ZM103.227 97.9062L98.9462 97.9062L98.9462 82.9172L103.227 82.9172L103.227 97.9062Z" fill="#07005A"/>
<path fill-rule="evenodd" clip-rule="evenodd" d="M101.086 39.6562C102.743 39.6562 104.086 38.3131 104.086 36.6562L104.086 26.3759C104.086 24.719 102.743 23.3759 101.086 23.3759C99.4291 23.3759 98.0859 24.719 98.0859 26.3759L98.0859 36.6562C98.0859 38.3131 99.4291 39.6562 101.086 39.6562Z" fill="#07005A"/>
<path fill-rule="evenodd" clip-rule="evenodd" d="M66.8193 72.6367C66.8193 70.9799 65.4762 69.6367 63.8193 69.6367H53.539C51.8821 69.6367 50.539 70.9799 50.539 72.6367C50.539 74.2936 51.8821 75.6367 53.539 75.6367H63.8193C65.4762 75.6367 66.8193 74.2936 66.8193 72.6367Z" fill="#07005A"/>
<path fill-rule="evenodd" clip-rule="evenodd" d="M151.633 72.6367C151.633 70.9799 150.29 69.6367 148.633 69.6367H138.352C136.696 69.6367 135.352 70.9799 135.352 72.6367C135.352 74.2936 136.696 75.6367 138.352 75.6367H148.633C150.29 75.6367 151.633 74.2936 151.633 72.6367Z" fill="#07005A"/>
<path fill-rule="evenodd" clip-rule="evenodd" d="M122.108 42.6189C123.28 43.7905 125.179 43.7905 126.351 42.6189L133.62 35.3496C134.792 34.178 134.792 32.2785 133.62 31.107C132.449 29.9354 130.549 29.9354 129.377 31.107L122.108 38.3763C120.937 39.5478 120.937 41.4473 122.108 42.6189Z" fill="#07005A"/>
<path fill-rule="evenodd" clip-rule="evenodd" d="M80.0764 99.6428C78.9048 98.4712 77.0053 98.4712 75.8338 99.6428L68.5644 106.912C67.3929 108.084 67.3929 109.983 68.5644 111.155C69.736 112.326 71.6355 112.326 72.8071 111.155L80.0764 103.885C81.248 102.714 81.248 100.814 80.0764 99.6428Z" fill="#07005A"/>
<path fill-rule="evenodd" clip-rule="evenodd" d="M80.0764 42.6189C78.9048 43.7905 77.0053 43.7905 75.8338 42.6189L68.5644 35.3496C67.3929 34.178 67.3929 32.2785 68.5644 31.107C69.736 29.9354 71.6355 29.9354 72.8071 31.107L80.0764 38.3763C81.248 39.5478 81.248 41.4473 80.0764 42.6189Z" fill="#07005A"/>
<path fill-rule="evenodd" clip-rule="evenodd" d="M122.108 99.6428C123.28 98.4712 125.179 98.4712 126.351 99.6428L133.62 106.912C134.792 108.084 134.792 109.983 133.62 111.155C132.449 112.326 130.549 112.326 129.377 111.155L122.108 103.885C120.937 102.714 120.937 100.814 122.108 99.6428Z" fill="#07005A"/>
<path d="M114.793 75.6345C114.793 73.2688 112.875 71.351 110.509 71.351C108.144 71.351 106.226 73.2688 106.226 75.6345C106.226 78.0002 108.144 79.918 110.509 79.918C112.875 79.918 114.793 78.0002 114.793 75.6345Z" fill="#FFCE85"/>
<path fill-rule="evenodd" clip-rule="evenodd" d="M111.793 75.6345C111.793 76.3433 111.218 76.918 110.509 76.918C109.801 76.918 109.226 76.3433 109.226 75.6345C109.226 74.9256 109.801 74.351 110.509 74.351C111.218 74.351 111.793 74.9256 111.793 75.6345ZM110.509 82.918C114.532 82.918 117.793 79.657 117.793 75.6345C117.793 71.6119 114.532 68.351 110.509 68.351C106.487 68.351 103.226 71.6119 103.226 75.6345C103.226 79.657 106.487 82.918 110.509 82.918Z" fill="#07005A"/>
<path d="M95.9463 75.6345C95.9463 73.2688 94.0285 71.351 91.6628 71.351C89.2971 71.351 87.3793 73.2688 87.3793 75.6345C87.3793 78.0002 89.2971 79.918 91.6628 79.918C94.0285 79.918 95.9463 78.0002 95.9463 75.6345Z" fill="#FFCE85"/>
<path fill-rule="evenodd" clip-rule="evenodd" d="M92.9463 75.6345C92.9463 76.3433 92.3717 76.918 91.6628 76.918C90.9539 76.918 90.3793 76.3433 90.3793 75.6345C90.3793 74.9256 90.9539 74.351 91.6628 74.351C92.3717 74.351 92.9463 74.9256 92.9463 75.6345ZM91.6628 82.918C95.6854 82.918 98.9463 79.657 98.9463 75.6345C98.9463 71.6119 95.6854 68.351 91.6628 68.351C87.6402 68.351 84.3793 71.6119 84.3793 75.6345C84.3793 79.657 87.6402 82.918 91.6628 82.918Z" fill="#07005A"/>
<path d="M89.9485 115.469L112.223 115.469L112.223 108.187L89.9485 108.187L89.9485 115.469Z" fill="#F2F6FF"/>
<path fill-rule="evenodd" clip-rule="evenodd" d="M112.223 118.469C113.88 118.469 115.223 117.126 115.223 115.469L115.223 108.187C115.223 106.53 113.88 105.187 112.223 105.187L89.9485 105.187C88.2917 105.187 86.9485 106.53 86.9485 108.187L86.9485 115.469C86.9485 117.126 88.2917 118.469 89.9485 118.469L112.223 118.469ZM109.223 112.469L92.9485 112.469L92.9485 111.187L109.223 111.187L109.223 112.469Z" fill="#07005A"/>
</svg>
