<svg width="180" height="175" viewBox="0 0 180 175" fill="none" xmlns="http://www.w3.org/2000/svg">
<path d="M104.111 170.988V50.7698L176.561 18.9238V139.939L104.111 170.988Z" fill="#FF8585"/>
<path fill-rule="evenodd" clip-rule="evenodd" d="M178.201 16.4117C179.049 16.9656 179.561 17.9105 179.561 18.9238V139.939C179.561 141.139 178.846 142.223 177.743 142.696L105.293 173.746C104.366 174.143 103.302 174.048 102.46 173.493C101.618 172.938 101.111 171.997 101.111 170.988V50.7698C101.111 49.5798 101.815 48.5023 102.904 48.0234L175.354 16.1774C176.281 15.7697 177.352 15.8578 178.201 16.4117ZM107.111 52.7282V166.439L173.561 137.96V23.5195L107.111 52.7282Z" fill="#07005A"/>
<path d="M75.4492 170.988V50.7698L2.99959 18.9238V139.939L75.4492 170.988Z" fill="#FF8585"/>
<path fill-rule="evenodd" clip-rule="evenodd" d="M1.35971 16.4117C0.511154 16.9656 -0.000411987 17.9105 -0.000411987 18.9238V139.939C-0.000411987 141.139 0.714775 142.223 1.81783 142.696L74.2675 173.746C75.1944 174.143 76.2588 174.048 77.1007 173.493C77.9426 172.938 78.4492 171.997 78.4492 170.988V50.7698C78.4492 49.5798 77.7458 48.5023 76.6564 48.0234L4.20679 16.1774C3.27911 15.7697 2.20827 15.8578 1.35971 16.4117ZM72.4492 52.7282V166.439L5.99959 137.96V23.5195L72.4492 52.7282Z" fill="#07005A"/>
<path d="M118.441 129.987V60.3234L166.608 38.0312V108.491L118.441 129.987Z" fill="#FFCE85"/>
<path fill-rule="evenodd" clip-rule="evenodd" d="M168.224 35.5034C169.087 36.0546 169.608 37.0076 169.608 38.0313V108.491C169.608 109.674 168.912 110.748 167.831 111.23L119.664 132.726C118.736 133.14 117.661 133.056 116.809 132.503C115.956 131.95 115.441 131.003 115.441 129.987V60.3235C115.441 59.1544 116.12 58.0919 117.181 57.6009L165.348 35.3087C166.277 34.8788 167.361 34.9522 168.224 35.5034ZM121.441 62.2407V125.363L163.608 106.544V42.7254L121.441 62.2407Z" fill="#07005A"/>
<path fill-rule="evenodd" clip-rule="evenodd" d="M169.349 128.366C170.024 129.879 169.345 131.653 167.832 132.328L119.665 153.824C118.152 154.499 116.378 153.82 115.703 152.307C115.027 150.794 115.707 149.02 117.22 148.345L165.387 126.849C166.9 126.174 168.674 126.853 169.349 128.366Z" fill="#07005A"/>
<path fill-rule="evenodd" clip-rule="evenodd" d="M169.349 118.016C170.024 119.529 169.345 121.303 167.832 121.979L119.665 143.475C118.152 144.15 116.378 143.471 115.703 141.958C115.027 140.445 115.707 138.671 117.22 137.996L165.387 116.499C166.9 115.824 168.674 116.503 169.349 118.016Z" fill="#07005A"/>
<path fill-rule="evenodd" clip-rule="evenodd" d="M12.203 118.016C11.5277 119.529 12.2069 121.303 13.7199 121.979L61.887 143.475C63.4 144.15 65.1739 143.471 65.8492 141.958C66.5244 140.445 65.8452 138.671 64.3322 137.996L16.1651 116.499C14.6521 115.824 12.8782 116.503 12.203 118.016Z" fill="#07005A"/>
<path fill-rule="evenodd" clip-rule="evenodd" d="M12.203 106.87C11.5277 108.383 12.2069 110.157 13.7199 110.832L61.887 132.328C63.4 133.003 65.1739 132.324 65.8492 130.811C66.5244 129.298 65.8452 127.524 64.3322 126.849L16.1651 105.353C14.6521 104.678 12.8782 105.357 12.203 106.87Z" fill="#07005A"/>
<path fill-rule="evenodd" clip-rule="evenodd" d="M12.203 95.7234C11.5277 97.2365 12.2069 99.0104 13.7199 99.6856L61.887 121.182C63.4 121.857 65.1739 121.178 65.8492 119.665C66.5244 118.152 65.8452 116.378 64.3322 115.703L16.1651 94.2065C14.6521 93.5313 12.8782 94.2104 12.203 95.7234Z" fill="#07005A"/>
<path fill-rule="evenodd" clip-rule="evenodd" d="M12.203 84.577C11.5277 86.09 12.2069 87.8639 13.7199 88.5391L61.887 110.035C63.4 110.71 65.1739 110.031 65.8492 108.518C66.5244 107.005 65.8452 105.231 64.3322 104.556L16.1651 83.06C14.6521 82.3848 12.8782 83.0639 12.203 84.577Z" fill="#07005A"/>
<path fill-rule="evenodd" clip-rule="evenodd" d="M12.203 73.4305C11.5277 74.9435 12.2069 76.7174 13.7199 77.3927L61.887 98.8887C63.4 99.5639 65.1739 98.8848 65.8492 97.3718C66.5244 95.8587 65.8452 94.0848 64.3322 93.4096L16.1651 71.9135C14.6521 71.2383 12.8782 71.9175 12.203 73.4305Z" fill="#07005A"/>
<path fill-rule="evenodd" clip-rule="evenodd" d="M12.203 62.284C11.5277 63.797 12.2069 65.5709 13.7199 66.2462L61.887 87.7422C63.4 88.4174 65.1739 87.7383 65.8492 86.2253C66.5244 84.7122 65.8452 82.9383 64.3322 82.2631L16.1651 60.767C14.6521 60.0918 12.8782 60.771 12.203 62.284Z" fill="#07005A"/>
<path fill-rule="evenodd" clip-rule="evenodd" d="M12.203 51.1395C11.5277 52.6525 12.2069 54.4264 13.7199 55.1016L61.887 76.5977C63.4 77.2729 65.1739 76.5938 65.8492 75.0807C66.5244 73.5677 65.8452 71.7938 64.3322 71.1186L16.1651 49.6225C14.6521 48.9473 12.8782 49.6264 12.203 51.1395Z" fill="#07005A"/>
<path fill-rule="evenodd" clip-rule="evenodd" d="M12.203 39.993C11.5277 41.506 12.2069 43.2799 13.7199 43.9552L61.887 65.4512C63.4 66.1264 65.1739 65.4473 65.8492 63.9343C66.5244 62.4212 65.8452 60.6473 64.3322 59.9721L16.1651 38.476C14.6521 37.8008 12.8782 38.48 12.203 39.993Z" fill="#07005A"/>
<path d="M97.7422 25.0027L137.737 3L146.307 13.6676L97.7422 34.4479V25.0027Z" fill="#F2F6FF"/>
<path fill-rule="evenodd" clip-rule="evenodd" d="M136.291 0.371693C137.567 -0.330427 139.163 -0.0143018 140.076 1.12126L148.646 11.7889C149.234 12.5203 149.445 13.4847 149.218 14.395C148.99 15.3053 148.35 16.0568 147.487 16.4259L98.9223 37.2062C97.9955 37.6028 96.9314 37.5074 96.09 36.9522C95.2485 36.3969 94.7422 35.4562 94.7422 34.4481V25.0029C94.7422 23.9089 95.3377 22.9017 96.2962 22.3744L136.291 0.371693ZM100.742 26.7765V29.9014L141.493 12.4648L136.976 6.84288L100.742 26.7765Z" fill="#07005A"/>
<path d="M81.8184 25.0027L41.8235 3L33.2532 13.6676L81.8184 34.4479V25.0027Z" fill="#F2F6FF"/>
<path fill-rule="evenodd" clip-rule="evenodd" d="M43.2696 0.371693C41.9933 -0.330427 40.3971 -0.0143018 39.4848 1.12126L30.9145 11.7889C30.3268 12.5203 30.1152 13.4847 30.3427 14.395C30.5701 15.3053 31.2104 16.0568 32.0731 16.4259L80.6382 37.2062C81.565 37.6028 82.6291 37.5074 83.4706 36.9522C84.312 36.3969 84.8184 35.4562 84.8184 34.4481V25.0029C84.8184 23.9089 84.2229 22.9017 83.2644 22.3744L43.2696 0.371693ZM78.8184 26.7765V29.9014L38.0679 12.4648L42.5846 6.84288L78.8184 26.7765Z" fill="#07005A"/>
<path d="M89.7803 37.6321L156.657 8.9707L170.988 21.311L104.111 50.3705V48.3801H89.7803V37.6321Z" fill="#F2F6FF"/>
<path fill-rule="evenodd" clip-rule="evenodd" d="M155.475 6.21331C156.528 5.76201 157.746 5.94987 158.614 6.69744L172.945 19.0378C173.727 19.7115 174.108 20.7401 173.954 21.7609C173.799 22.7816 173.13 23.6511 172.183 24.0625L105.307 53.122C104.379 53.525 103.311 53.4337 102.466 52.8792C101.912 52.5161 101.503 51.9865 101.286 51.3802H89.7803C88.1234 51.3802 86.7803 50.037 86.7803 48.3802V37.6321C86.7803 36.4321 87.4955 35.3474 88.5985 34.8747L155.475 6.21331ZM106.175 46.2028C105.637 45.6929 104.911 45.3802 104.111 45.3802H92.7803V39.6103L156.118 12.4656L165.407 20.4648L106.175 46.2028Z" fill="#07005A"/>
<path d="M89.7803 37.6321L22.9037 8.9707L8.57298 21.311L75.4496 50.3705V48.3801H89.7803V37.6321Z" fill="#F2F6FF"/>
<path fill-rule="evenodd" clip-rule="evenodd" d="M24.0854 6.21331C23.0324 5.76201 21.8143 5.94987 20.9461 6.69744L6.61541 19.0378C5.83306 19.7115 5.4521 20.7401 5.6069 21.7609C5.76169 22.7816 6.4305 23.6511 7.3774 24.0625L74.254 53.122C75.1813 53.525 76.2493 53.4337 77.0948 52.8792C77.6484 52.5161 78.0579 51.9865 78.2746 51.3802H89.7803C91.4371 51.3802 92.7803 50.037 92.7803 48.3802V37.6321C92.7803 36.4321 92.0651 35.3474 90.962 34.8747L24.0854 6.21331ZM73.3858 46.2028C73.9236 45.6929 74.65 45.3802 75.4496 45.3802H86.7803V39.6103L23.4426 12.4656L14.1532 20.4648L73.3858 46.2028Z" fill="#07005A"/>
<path d="M75.4492 48.3809H104.111V171.784H75.4492V48.3809Z" fill="#476FF5"/>
<path fill-rule="evenodd" clip-rule="evenodd" d="M72.4492 48.3809C72.4492 46.724 73.7924 45.3809 75.4492 45.3809H104.111C105.767 45.3809 107.111 46.724 107.111 48.3809V171.784C107.111 173.441 105.767 174.784 104.111 174.784H75.4492C73.7924 174.784 72.4492 173.441 72.4492 171.784V48.3809ZM78.4492 51.3809V168.784H101.111V51.3809H78.4492Z" fill="#07005A"/>
<path d="M75.4492 61.916H104.111V73.8583H75.4492V61.916Z" fill="#FFCE85"/>
<path fill-rule="evenodd" clip-rule="evenodd" d="M72.4492 61.916C72.4492 60.2592 73.7924 58.916 75.4492 58.916H104.111C105.767 58.916 107.111 60.2592 107.111 61.916V73.8583C107.111 75.5151 105.767 76.8583 104.111 76.8583H75.4492C73.7924 76.8583 72.4492 75.5151 72.4492 73.8583V61.916ZM78.4492 64.916V70.8583H101.111V64.916H78.4492Z" fill="#07005A"/>
<path d="M75.4492 141.529H104.111V153.472H75.4492V141.529Z" fill="#FFCE85"/>
<path fill-rule="evenodd" clip-rule="evenodd" d="M72.4492 141.529C72.4492 139.872 73.7924 138.529 75.4492 138.529H104.111C105.767 138.529 107.111 139.872 107.111 141.529V153.472C107.111 155.128 105.767 156.472 104.111 156.472H75.4492C73.7924 156.472 72.4492 155.128 72.4492 153.472V141.529ZM78.4492 144.529V150.472H101.111V144.529H78.4492Z" fill="#07005A"/>
</svg>
