<svg width="180" height="203" viewBox="0 0 180 203" fill="none" xmlns="http://www.w3.org/2000/svg">
<path d="M42.5752 156.443V85C42.5752 82.2386 44.8138 80 47.5752 80H160.973C163.735 80 165.973 82.2386 165.973 85V156.443C165.973 159.204 163.735 161.443 160.973 161.443H47.5752C44.8138 161.443 42.5752 159.204 42.5752 156.443Z" fill="#F2F6FF"/>
<path fill-rule="evenodd" clip-rule="evenodd" d="M47.5752 83C46.4706 83 45.5752 83.8954 45.5752 85V156.443C45.5752 157.547 46.4706 158.443 47.5752 158.443H160.973C162.078 158.443 162.973 157.547 162.973 156.443V85C162.973 83.8954 162.078 83 160.973 83H47.5752ZM39.5752 85C39.5752 80.5817 43.1569 77 47.5752 77H160.973C165.392 77 168.973 80.5817 168.973 85V156.443C168.973 160.861 165.392 164.443 160.973 164.443H47.5752C43.1569 164.443 39.5752 160.861 39.5752 156.443V85Z" fill="#07005A"/>
<path d="M32.9778 185.436L41.3176 164.586C42.0769 162.688 43.9155 161.443 45.96 161.443H162.588C164.632 161.443 166.471 162.688 167.23 164.586L175.57 185.436C176.884 188.72 174.465 192.293 170.928 192.293H37.6202C34.0828 192.293 31.6641 188.72 32.9778 185.436Z" fill="#476FF5"/>
<path fill-rule="evenodd" clip-rule="evenodd" d="M45.96 164.443C45.1422 164.443 44.4068 164.941 44.1031 165.701L35.7632 186.55C35.2377 187.864 36.2053 189.293 37.6202 189.293H170.928C172.343 189.293 173.31 187.864 172.785 186.55L164.445 165.701C164.141 164.941 163.406 164.443 162.588 164.443H45.96ZM38.5322 163.472C39.7471 160.435 42.6888 158.443 45.96 158.443H162.588C165.859 158.443 168.801 160.435 170.016 163.472L178.355 184.322C180.457 189.577 176.587 195.293 170.928 195.293H37.6202C31.9605 195.293 28.0904 189.577 30.1924 184.322L38.5322 163.472Z" fill="#07005A"/>
<path d="M80.7908 185.923L82.1597 181.115C82.7715 178.966 84.7345 177.484 86.9686 177.484H121.579C123.814 177.484 125.776 178.966 126.388 181.115L127.757 185.923C128.666 189.116 126.268 192.292 122.948 192.292H85.5997C82.2797 192.292 79.8817 189.116 80.7908 185.923Z" fill="#F2F6FF"/>
<path fill-rule="evenodd" clip-rule="evenodd" d="M86.9685 180.484C86.0748 180.484 85.2896 181.077 85.0449 181.937L83.676 186.744C83.3124 188.022 84.2716 189.292 85.5996 189.292H122.948C124.276 189.292 125.235 188.022 124.872 186.744L123.503 181.937C123.258 181.077 122.473 180.484 121.579 180.484H86.9685ZM79.2742 180.294C80.2531 176.856 83.3939 174.484 86.9685 174.484H121.579C125.154 174.484 128.295 176.856 129.273 180.294L130.642 185.101C132.097 190.21 128.26 195.292 122.948 195.292H85.5996C80.2876 195.292 76.4507 190.21 77.9054 185.101L79.2742 180.294Z" fill="#07005A"/>
<path d="M32.2354 200V189H176.235V200H32.2354Z" fill="#07005A"/>
<path fill-rule="evenodd" clip-rule="evenodd" d="M29.2354 189C29.2354 187.343 30.5785 186 32.2354 186H176.235C177.892 186 179.235 187.343 179.235 189V200C179.235 201.657 177.892 203 176.235 203H32.2354C30.5785 203 29.2354 201.657 29.2354 200V189ZM35.2354 192V197H173.235V192H35.2354Z" fill="#07005A"/>
<path d="M51.8301 152.806V88.6387H156.718V152.806H51.8301Z" fill="#FFCE85"/>
<path fill-rule="evenodd" clip-rule="evenodd" d="M48.8301 88.6387C48.8301 86.9818 50.1732 85.6387 51.8301 85.6387H156.718C158.375 85.6387 159.718 86.9818 159.718 88.6387V152.806C159.718 154.463 158.375 155.806 156.718 155.806H51.8301C50.1732 155.806 48.8301 154.463 48.8301 152.806V88.6387ZM54.8301 91.6387V149.806H153.718V91.6387H54.8301Z" fill="#07005A"/>
<path d="M3.23535 116.334L3.23535 18C3.23535 9.71573 9.95108 3 18.2354 3L86.9539 3C95.2381 3 101.954 9.71573 101.954 18L101.954 116.334C101.954 124.618 95.2381 131.334 86.9539 131.334H18.2354C9.95108 131.334 3.23535 124.618 3.23535 116.334Z" fill="#F2F6FF"/>
<path fill-rule="evenodd" clip-rule="evenodd" d="M18.2354 6C11.6079 6 6.23535 11.3726 6.23535 18L6.23535 116.334C6.23535 122.961 11.6079 128.334 18.2354 128.334H86.9539C93.5813 128.334 98.9539 122.961 98.9539 116.334L98.9539 18C98.9539 11.3726 93.5813 6 86.9539 6L18.2354 6ZM0.235352 18C0.235352 8.05887 8.29423 0 18.2354 0L86.9539 0C96.895 0 104.954 8.05888 104.954 18L104.954 116.334C104.954 126.275 96.895 134.334 86.9539 134.334H18.2354C8.29422 134.334 0.235352 126.275 0.235352 116.334L0.235352 18Z" fill="#07005A"/>
<path d="M12.4883 109.123L12.4883 16.5742L92.6971 16.5742L92.6971 109.123L12.4883 109.123Z" fill="#FFCE85"/>
<path fill-rule="evenodd" clip-rule="evenodd" d="M9.48828 16.5742C9.48828 14.9174 10.8314 13.5742 12.4883 13.5742L92.6971 13.5742C94.3539 13.5742 95.6971 14.9174 95.6971 16.5742L95.6971 109.123C95.6971 110.78 94.3539 112.123 92.6971 112.123L12.4883 112.123C10.8314 112.123 9.48828 110.78 9.48828 109.123L9.48828 16.5742ZM15.4883 19.5742L15.4883 106.123L89.6971 106.123L89.6971 19.5742L15.4883 19.5742Z" fill="#07005A"/>
<path d="M61.2326 123.929H43.9568C41.9123 123.929 40.2549 122.272 40.2549 120.227C40.2549 118.183 41.9123 116.525 43.9568 116.525H61.2326C63.2771 116.525 64.9345 118.183 64.9345 120.227C64.9345 122.272 63.2771 123.929 61.2326 123.929Z" fill="#476FF5"/>
<path fill-rule="evenodd" clip-rule="evenodd" d="M43.9568 119.525C43.5692 119.525 43.2549 119.84 43.2549 120.227C43.2549 120.615 43.5692 120.929 43.9568 120.929H61.2326C61.6202 120.929 61.9345 120.615 61.9345 120.227C61.9345 119.84 61.6202 119.525 61.2326 119.525H43.9568ZM37.2549 120.227C37.2549 116.526 40.2554 113.525 43.9568 113.525H61.2326C64.9339 113.525 67.9345 116.526 67.9345 120.227C67.9345 123.929 64.934 126.929 61.2326 126.929H43.9568C40.2554 126.929 37.2549 123.929 37.2549 120.227Z" fill="#07005A"/>
<path d="M52.5949 7.31836C53.9579 7.31836 55.0629 8.4233 55.0629 9.78632C55.0629 11.1493 53.9579 12.2543 52.5949 12.2543C51.2319 12.2543 50.127 11.1493 50.127 9.78632C50.127 8.4233 51.2319 7.31836 52.5949 7.31836Z" fill="#07005A"/>
</svg>
