<svg width="144" height="151" viewBox="0 0 144 151" fill="none" xmlns="http://www.w3.org/2000/svg">
<g clip-path="url(#clip0)">
<path d="M111.631 27.5429V141.406C111.63 143.743 110.707 145.984 109.065 147.637C107.424 149.29 105.197 150.219 102.875 150.22H9.53144C7.20951 150.219 4.98297 149.29 3.34111 147.637C1.69926 145.984 0.776418 143.743 0.775391 141.406V27.5429C0.776418 25.2056 1.69926 22.9643 3.34111 21.3115C4.98297 19.6588 7.20951 18.7298 9.53144 18.7288H31.3964V23.5631C31.3974 24.9712 31.9535 26.3213 32.9426 27.317C33.9317 28.3126 35.2729 28.8724 36.6717 28.8735H41.4935C43.1303 31.2836 45.3263 33.2555 47.8913 34.6181C50.4563 35.9807 53.3127 36.6929 56.2129 36.6929C59.1132 36.6929 61.9696 35.9807 64.5346 34.6181C67.0995 33.2555 69.2956 31.2836 70.9323 28.8735H75.3665C76.762 28.8673 78.0982 28.3052 79.0831 27.3101C80.068 26.315 80.6215 24.9678 80.6225 23.5631V18.7288H102.875C105.197 18.7298 107.424 19.6588 109.065 21.3115C110.707 22.9643 111.63 25.2056 111.631 27.5429ZM104.267 130.886V117.659C104.267 117.221 104.181 116.787 104.014 116.382C103.848 115.978 103.604 115.61 103.296 115.3C102.988 114.99 102.623 114.745 102.221 114.577C101.819 114.409 101.388 114.323 100.953 114.323H87.8126C86.9337 114.323 86.0907 114.675 85.4692 115.3C84.8477 115.926 84.4986 116.774 84.4986 117.659V130.886C84.4986 131.771 84.8477 132.62 85.4692 133.245C86.0907 133.871 86.9337 134.222 87.8126 134.222H100.953C101.388 134.222 101.819 134.136 102.221 133.968C102.623 133.801 102.988 133.555 103.296 133.245C103.604 132.935 103.848 132.568 104.014 132.163C104.181 131.758 104.267 131.324 104.267 130.886ZM104.267 96.9405V83.7134C104.267 83.2753 104.181 82.8415 104.014 82.4367C103.848 82.032 103.604 81.6642 103.296 81.3544C102.988 81.0447 102.623 80.7989 102.221 80.6313C101.819 80.4636 101.388 80.3773 100.953 80.3773H87.8126C86.9337 80.3773 86.0907 80.7288 85.4692 81.3544C84.8477 81.9801 84.4986 82.8286 84.4986 83.7134V96.9405C84.4986 97.8253 84.8477 98.6738 85.4692 99.2995C86.0907 99.9251 86.9337 100.277 87.8126 100.277H100.953C101.388 100.277 101.819 100.19 102.221 100.023C102.623 99.855 102.988 99.6092 103.296 99.2995C103.604 98.9897 103.848 98.6219 104.014 98.2172C104.181 97.8124 104.267 97.3786 104.267 96.9405ZM104.267 62.9948V49.7676C104.267 49.3296 104.181 48.8957 104.014 48.491C103.848 48.0862 103.604 47.7185 103.296 47.4087C102.988 47.0989 102.623 46.8532 102.221 46.6855C101.819 46.5179 101.388 46.4316 100.953 46.4316H87.8126C86.9337 46.4316 86.0907 46.7831 85.4692 47.4087C84.8477 48.0343 84.4986 48.8829 84.4986 49.7676V62.9948C84.4986 63.8796 84.8477 64.7281 85.4692 65.3537C86.0907 65.9793 86.9337 66.3308 87.8126 66.3308H100.953C101.388 66.3308 101.819 66.2445 102.221 66.0769C102.623 65.9092 102.988 65.6635 103.296 65.3537C103.604 65.0439 103.848 64.6762 104.014 64.2714C104.181 63.8667 104.267 63.4329 104.267 62.9948ZM70.1571 126.204V122.38C70.1571 122.008 70.0101 121.65 69.7484 121.387C69.4867 121.124 69.1318 120.976 68.7617 120.976H38.9935C38.6234 120.976 38.2685 121.124 38.0068 121.387C37.7451 121.65 37.5981 122.008 37.5981 122.38V126.204C37.5981 126.577 37.7451 126.934 38.0068 127.197C38.2685 127.461 38.6234 127.609 38.9935 127.609H68.7617C68.9466 127.609 69.1297 127.572 69.3002 127.5C69.4708 127.428 69.6255 127.323 69.7553 127.19C69.8851 127.058 69.9875 126.901 70.0565 126.728C70.1255 126.555 70.1597 126.371 70.1571 126.185V126.204ZM70.1571 92.6485V88.8247C70.1571 88.4522 70.0101 88.0949 69.7484 87.8315C69.4867 87.5681 69.1318 87.4201 68.7617 87.4201H38.9935C38.6234 87.4201 38.2685 87.5681 38.0068 87.8315C37.7451 88.0949 37.5981 88.4522 37.5981 88.8247V92.6485C37.5981 93.0211 37.7451 93.3783 38.0068 93.6418C38.2685 93.9052 38.6234 94.0532 38.9935 94.0532H68.7617C68.9466 94.0532 69.1297 94.0162 69.3002 93.9444C69.4708 93.8726 69.6255 93.7674 69.7553 93.6349C69.8851 93.5024 69.9875 93.3452 70.0565 93.1725C70.1255 92.9999 70.1597 92.8151 70.1571 92.629V92.6485ZM70.1571 58.7028V54.879C70.1571 54.5065 70.0101 54.1492 69.7484 53.8858C69.4867 53.6224 69.1318 53.4744 68.7617 53.4744H38.9935C38.6234 53.4744 38.2685 53.6224 38.0068 53.8858C37.7451 54.1492 37.5981 54.5065 37.5981 54.879V58.7028C37.5981 59.0753 37.7451 59.4326 38.0068 59.696C38.2685 59.9595 38.6234 60.1074 38.9935 60.1074H68.7617C68.9466 60.1075 69.1297 60.0705 69.3002 59.9987C69.4708 59.9269 69.6255 59.8217 69.7553 59.6892C69.8851 59.5566 69.9875 59.3995 70.0565 59.2268C70.1255 59.0541 70.1597 58.8694 70.1571 58.6833V58.7028ZM31.0088 56.5763C31.0088 54.4927 30.395 52.4559 29.245 50.7234C28.0951 48.991 26.4606 47.6407 24.5483 46.8433C22.636 46.046 20.5318 45.8374 18.5017 46.2438C16.4716 46.6503 14.6068 47.6537 13.1432 49.127C11.6796 50.6003 10.6829 52.4775 10.2791 54.521C9.87525 56.5646 10.0825 58.6828 10.8746 60.6078C11.6667 62.5328 13.0081 64.1782 14.7291 65.3357C16.4501 66.4933 18.4735 67.1112 20.5434 67.1112C23.319 67.1112 25.9809 66.0013 27.9435 64.0256C29.9062 62.0499 31.0088 59.3703 31.0088 56.5763ZM31.0088 90.522C31.0088 88.4384 30.395 86.4016 29.245 84.6692C28.0951 82.9367 26.4606 81.5864 24.5483 80.7891C22.636 79.9917 20.5318 79.7831 18.5017 80.1896C16.4716 80.5961 14.6068 81.5994 13.1432 83.0727C11.6796 84.5461 10.6829 86.4232 10.2791 88.4668C9.87525 90.5104 10.0825 92.6286 10.8746 94.5536C11.6667 96.4786 13.0081 98.1239 14.7291 99.2815C16.4501 100.439 18.4735 101.057 20.5434 101.057C23.319 101.057 25.9809 99.947 27.9435 97.9713C29.9062 95.9957 31.0088 93.3161 31.0088 90.522ZM31.0088 124.468C31.0088 122.384 30.395 120.347 29.245 118.615C28.0951 116.882 26.4606 115.532 24.5483 114.735C22.636 113.937 20.5318 113.729 18.5017 114.135C16.4716 114.542 14.6068 115.545 13.1432 117.018C11.6796 118.492 10.6829 120.369 10.2791 122.413C9.87525 124.456 10.0825 126.574 10.8746 128.499C11.6667 130.424 13.0081 132.07 14.7291 133.227C16.4501 134.385 18.4735 135.003 20.5434 135.003C23.319 135.003 25.9809 133.893 27.9435 131.917C29.9062 129.941 31.0088 127.262 31.0088 124.468Z" fill="#F2F6FF"/>
<path d="M100.952 114.323H87.8126C85.9823 114.323 84.4985 115.817 84.4985 117.659V130.886C84.4985 132.729 85.9823 134.222 87.8126 134.222H100.952C102.783 134.222 104.267 132.729 104.267 130.886V117.659C104.267 115.817 102.783 114.323 100.952 114.323Z" fill="white"/>
<path d="M100.952 80.3772H87.8126C85.9823 80.3772 84.4985 81.8708 84.4985 83.7132V96.9404C84.4985 98.7828 85.9823 100.276 87.8126 100.276H100.952C102.783 100.276 104.267 98.7828 104.267 96.9404V83.7132C104.267 81.8708 102.783 80.3772 100.952 80.3772Z" fill="white"/>
<path d="M100.952 46.4316H87.8126C85.9823 46.4316 84.4985 47.9252 84.4985 49.7677V62.9948C84.4985 64.8373 85.9823 66.3309 87.8126 66.3309H100.952C102.783 66.3309 104.267 64.8373 104.267 62.9948V49.7677C104.267 47.9252 102.783 46.4316 100.952 46.4316Z" fill="white"/>
<path d="M80.6223 18.7288V23.5631C80.6213 24.9712 80.0652 26.3213 79.0761 27.317C78.087 28.3126 76.7458 28.8724 75.347 28.8735H70.9321C72.9632 25.8864 74.0446 22.3485 74.033 18.7288H80.6223Z" fill="#FFEED4"/>
<path d="M68.2186 18.7288H74.0328C74.0444 22.3485 72.963 25.8864 70.9319 28.8735H62.7495C64.4287 27.7752 65.8086 26.2719 66.7637 24.5002C67.7188 22.7285 68.219 20.7445 68.2186 18.7288Z" fill="#FFEED4"/>
<path d="M74.0329 18.7286H68.2188C68.2188 15.5206 66.9529 12.4441 64.6995 10.1757C62.4461 7.90734 59.3898 6.63299 56.203 6.63299C53.0162 6.63299 49.9599 7.90734 47.7065 10.1757C45.4531 12.4441 44.1872 15.5206 44.1872 18.7286H38.373C38.373 13.9684 40.2516 9.40318 43.5953 6.03721C46.9391 2.67125 51.4742 0.780273 56.203 0.780273C60.9318 0.780273 65.4669 2.67125 68.8107 6.03721C72.1544 9.40318 74.0329 13.9684 74.0329 18.7286Z" fill="#FFEED4"/>
<path d="M62.7497 28.8733H70.9321C69.2947 31.2795 67.0995 33.2477 64.5365 34.6077C61.9734 35.9677 59.1197 36.6784 56.2224 36.6784C53.3251 36.6784 50.4714 35.9677 47.9083 34.6077C45.3453 33.2477 43.1501 31.2795 41.5127 28.8733H49.6757C51.6244 30.1479 53.8985 30.8262 56.2224 30.8262C58.5463 30.8262 60.8204 30.1479 62.7691 28.8733H62.7497Z" fill="#F2F6FF"/>
<path d="M68.7618 120.956H38.9935C38.2229 120.956 37.5981 121.585 37.5981 122.361V126.184C37.5981 126.96 38.2229 127.589 38.9935 127.589H68.7618C69.5324 127.589 70.1572 126.96 70.1572 126.184V122.361C70.1572 121.585 69.5324 120.956 68.7618 120.956Z" fill="#CDD3E7"/>
<path d="M68.7618 87.4006H38.9935C38.2229 87.4006 37.5981 88.0295 37.5981 88.8053V92.629C37.5981 93.4048 38.2229 94.0337 38.9935 94.0337H68.7618C69.5324 94.0337 70.1572 93.4048 70.1572 92.629V88.8053C70.1572 88.0295 69.5324 87.4006 68.7618 87.4006Z" fill="#CDD3E7"/>
<path d="M68.7618 53.4548H38.9935C38.2229 53.4548 37.5981 54.0837 37.5981 54.8595V58.6833C37.5981 59.459 38.2229 60.0879 38.9935 60.0879H68.7618C69.5324 60.0879 70.1572 59.459 70.1572 58.6833V54.8595C70.1572 54.0837 69.5324 53.4548 68.7618 53.4548Z" fill="#CDD3E7"/>
<path d="M44.187 18.7288H68.2187C68.219 20.7445 67.7189 22.7285 66.7637 24.5002C65.8086 26.2719 64.4287 27.7752 62.7495 28.8735H49.6562C47.977 27.7752 46.5971 26.2719 45.642 24.5002C44.6868 22.7285 44.1867 20.7445 44.187 18.7288Z" fill="#FFEED4"/>
<path d="M68.2187 18.7287H44.187C44.187 15.5207 45.453 12.4441 47.7064 10.1758C49.9598 7.90741 53.016 6.63306 56.2028 6.63306C59.3896 6.63306 62.4459 7.90741 64.6993 10.1758C66.9527 12.4441 68.2187 15.5207 68.2187 18.7287Z" fill="white"/>
<path d="M49.6562 28.8733H62.7496C60.8009 30.1479 58.5269 30.8262 56.2029 30.8262C53.879 30.8262 51.605 30.1479 49.6562 28.8733Z" fill="#F2F6FF"/>
<path d="M49.6565 28.8735H41.4935C39.4625 25.8864 38.3811 22.3485 38.3927 18.7288H44.2068C44.2043 20.7428 44.7015 22.7255 45.6532 24.497C46.6049 26.2686 47.981 27.7729 49.6565 28.8735Z" fill="#FFEED4"/>
<path d="M41.4932 28.8735H36.6713C35.2725 28.8724 33.9313 28.3126 32.9422 27.317C31.9531 26.3213 31.397 24.9712 31.396 23.5631V18.7288H38.3729C38.367 22.3506 39.4552 25.8886 41.4932 28.8735Z" fill="#FFEED4"/>
<path d="M20.543 67.111C26.3229 67.111 31.0084 62.3944 31.0084 56.5761C31.0084 50.7579 26.3229 46.0413 20.543 46.0413C14.7632 46.0413 10.0776 50.7579 10.0776 56.5761C10.0776 62.3944 14.7632 67.111 20.543 67.111Z" fill="#E1E9FE"/>
<path d="M20.543 101.057C26.3229 101.057 31.0084 96.3402 31.0084 90.5219C31.0084 84.7037 26.3229 79.9871 20.543 79.9871C14.7632 79.9871 10.0776 84.7037 10.0776 90.5219C10.0776 96.3402 14.7632 101.057 20.543 101.057Z" fill="#E1E9FE"/>
<path d="M20.543 135.003C26.3229 135.003 31.0084 130.286 31.0084 124.468C31.0084 118.649 26.3229 113.933 20.543 113.933C14.7632 113.933 10.0776 118.649 10.0776 124.468C10.0776 130.286 14.7632 135.003 20.543 135.003Z" fill="#E1E9FE"/>
<path d="M74.8084 18.7287H73.258C73.258 14.1755 71.4612 9.80872 68.2628 6.5891C65.0644 3.36949 60.7265 1.56072 56.2033 1.56072C51.6801 1.56072 47.3422 3.36949 44.1438 6.5891C40.9454 9.80872 39.1486 14.1755 39.1486 18.7287H37.5981C37.5981 13.7615 39.5583 8.99781 43.0475 5.4855C46.5366 1.97319 51.2689 0 56.2033 0C61.1377 0 65.87 1.97319 69.3591 5.4855C72.8483 8.99781 74.8084 13.7615 74.8084 18.7287Z" fill="#708ACC"/>
<path d="M68.9942 18.7288H67.4438C67.4438 15.7278 66.2595 12.8497 64.1515 10.7277C62.0434 8.60565 59.1843 7.41351 56.2031 7.41351C53.222 7.41351 50.3629 8.60565 48.2548 10.7277C46.1468 12.8497 44.9625 15.7278 44.9625 18.7288H43.4121C43.4121 15.3138 44.7597 12.0388 47.1585 9.62407C49.5573 7.20935 52.8108 5.85278 56.2031 5.85278C59.5955 5.85278 62.849 7.20935 65.2478 9.62407C67.6466 12.0388 68.9942 15.3138 68.9942 18.7288Z" fill="#708ACC"/>
<path d="M102.875 151H9.53126C7.00436 150.997 4.58183 149.985 2.79504 148.186C1.00825 146.388 0.00307722 143.949 0 141.405L0 27.5428C0.00307722 24.9991 1.00825 22.5605 2.79504 20.7618C4.58183 18.9632 7.00436 17.9513 9.53126 17.9482H31.3962V19.509H9.53126C7.41556 19.5121 5.38739 20.3595 3.89136 21.8654C2.39533 23.3714 1.55351 25.413 1.55043 27.5428V141.405C1.55351 143.535 2.39533 145.577 3.89136 147.083C5.38739 148.589 7.41556 149.436 9.53126 149.439H102.875C104.991 149.436 107.019 148.589 108.515 147.083C110.011 145.577 110.853 143.535 110.856 141.405V27.5428C110.853 25.413 110.011 23.3714 108.515 21.8654C107.019 20.3595 104.991 19.5121 102.875 19.509H80.6223V17.9482H102.875C105.402 17.9513 107.824 18.9632 109.611 20.7618C111.398 22.5605 112.403 24.9991 112.406 27.5428V141.405C112.403 143.949 111.398 146.388 109.611 148.186C107.824 149.985 105.402 150.997 102.875 151Z" fill="#708ACC"/>
<path d="M75.3471 29.6537H36.6716C35.0673 29.6526 33.5289 29.0106 32.3944 27.8686C31.2599 26.7266 30.6221 25.178 30.6211 23.5629V17.9482H81.3977V23.5629C81.3966 25.178 80.7588 26.7266 79.6244 27.8686C78.4899 29.0106 76.9515 29.6526 75.3471 29.6537ZM32.1715 19.509V23.5629C32.1736 24.7637 32.6484 25.9148 33.4918 26.7639C34.3353 27.613 35.4788 28.0909 36.6716 28.0929H75.3471C76.54 28.0909 77.6834 27.613 78.5269 26.7639C79.3704 25.9148 79.8452 24.7637 79.8472 23.5629V19.509H32.1715Z" fill="#708ACC"/>
<path d="M20.5434 67.8915C18.3202 67.8915 16.1469 67.2278 14.2984 65.9845C12.4499 64.7412 11.0092 62.974 10.1584 60.9064C9.3076 58.8388 9.085 56.5637 9.51872 54.3687C9.95245 52.1738 11.023 50.1576 12.595 48.5751C14.1671 46.9927 16.17 45.915 18.3504 45.4784C20.5309 45.0418 22.791 45.2659 24.8449 46.1223C26.8989 46.9787 28.6544 48.429 29.8896 50.2898C31.1247 52.1506 31.784 54.3383 31.784 56.5762C31.784 59.5772 30.5997 62.4553 28.4917 64.5773C26.3836 66.6993 23.5245 67.8915 20.5434 67.8915ZM20.5434 46.8217C18.6268 46.8217 16.7533 47.3938 15.1598 48.4656C13.5662 49.5375 12.3242 51.0609 11.5908 52.8433C10.8574 54.6257 10.6655 56.5871 11.0394 58.4792C11.4133 60.3714 12.3362 62.1095 13.6914 63.4737C15.0466 64.8379 16.7732 65.7669 18.6529 66.1433C20.5326 66.5197 22.481 66.3265 24.2516 65.5882C26.0223 64.8499 27.5357 63.5997 28.6004 61.9956C29.6652 60.3914 30.2335 58.5055 30.2335 56.5762C30.2335 53.9892 29.2126 51.5081 27.3953 49.6787C25.5781 47.8494 23.1133 46.8217 20.5434 46.8217Z" fill="#708ACC"/>
<path d="M20.5434 101.837C18.3202 101.837 16.1469 101.174 14.2984 99.9303C12.4499 98.687 11.0092 96.9198 10.1584 94.8522C9.3076 92.7846 9.085 90.5095 9.51872 88.3146C9.95245 86.1196 11.023 84.1034 12.595 82.521C14.1671 80.9385 16.17 79.8608 18.3504 79.4242C20.5309 78.9876 22.791 79.2117 24.8449 80.0681C26.8989 80.9245 28.6544 82.3748 29.8896 84.2356C31.1247 86.0964 31.784 88.2841 31.784 90.522C31.784 93.523 30.5997 96.4011 28.4917 98.5231C26.3836 100.645 23.5245 101.837 20.5434 101.837ZM20.5434 80.7675C18.6268 80.7675 16.7533 81.3396 15.1598 82.4115C13.5662 83.4833 12.3242 85.0067 11.5908 86.7891C10.8574 88.5716 10.6655 90.5329 11.0394 92.4251C11.4133 94.3173 12.3362 96.0553 13.6914 97.4195C15.0466 98.7837 16.7732 99.7128 18.6529 100.089C20.5326 100.466 22.481 100.272 24.2516 99.5341C26.0223 98.7958 27.5357 97.5455 28.6004 95.9414C29.6652 94.3372 30.2335 92.4513 30.2335 90.522C30.2335 87.935 29.2126 85.4539 27.3953 83.6246C25.5781 81.7952 23.1133 80.7675 20.5434 80.7675Z" fill="#708ACC"/>
<path d="M20.5434 135.783C18.3202 135.783 16.1469 135.119 14.2984 133.876C12.4499 132.633 11.0092 130.865 10.1584 128.798C9.3076 126.73 9.085 124.455 9.51872 122.26C9.95245 120.065 11.023 118.049 12.595 116.467C14.1671 114.884 16.17 113.806 18.3504 113.37C20.5309 112.933 22.791 113.157 24.8449 114.014C26.8989 114.87 28.6544 116.32 29.8896 118.181C31.1247 120.042 31.784 122.23 31.784 124.468C31.784 127.469 30.5997 130.347 28.4917 132.469C26.3836 134.591 23.5245 135.783 20.5434 135.783ZM20.5434 114.713C18.6268 114.713 16.7533 115.285 15.1598 116.357C13.5662 117.429 12.3242 118.952 11.5908 120.735C10.8574 122.517 10.6655 124.478 11.0394 126.371C11.4133 128.263 12.3362 130.001 13.6914 131.365C15.0466 132.729 16.7732 133.658 18.6529 134.035C20.5326 134.411 22.481 134.218 24.2516 133.48C26.0223 132.741 27.5357 131.491 28.6004 129.887C29.6652 128.283 30.2335 126.397 30.2335 124.468C30.2335 121.881 29.2126 119.399 27.3953 117.57C25.5781 115.741 23.1133 114.713 20.5434 114.713Z" fill="#708ACC"/>
<path d="M68.7616 60.8681H38.9934C38.4177 60.8681 37.8656 60.6379 37.4585 60.2281C37.0514 59.8184 36.8228 59.2626 36.8228 58.6831V54.8593C36.8228 54.2798 37.0514 53.7241 37.4585 53.3143C37.8656 52.9045 38.4177 52.6743 38.9934 52.6743H68.7616C69.3373 52.6743 69.8894 52.9045 70.2964 53.3143C70.7035 53.7241 70.9322 54.2798 70.9322 54.8593V58.6831C70.9322 59.2626 70.7035 59.8184 70.2964 60.2281C69.8894 60.6379 69.3373 60.8681 68.7616 60.8681ZM38.9934 54.235C38.8289 54.235 38.6711 54.3008 38.5548 54.4179C38.4385 54.535 38.3732 54.6938 38.3732 54.8593V58.6831C38.3732 58.8487 38.4385 59.0075 38.5548 59.1245C38.6711 59.2416 38.8289 59.3074 38.9934 59.3074H68.7616C68.9261 59.3074 69.0838 59.2416 69.2001 59.1245C69.3164 59.0075 69.3818 58.8487 69.3818 58.6831V54.8593C69.3818 54.6938 69.3164 54.535 69.2001 54.4179C69.0838 54.3008 68.9261 54.235 68.7616 54.235H38.9934Z" fill="#708ACC"/>
<path d="M68.7616 94.8139H38.9934C38.4177 94.8139 37.8656 94.5837 37.4585 94.1739C37.0514 93.7642 36.8228 93.2084 36.8228 92.6289V88.8051C36.8228 88.2256 37.0514 87.6699 37.4585 87.2601C37.8656 86.8503 38.4177 86.6201 38.9934 86.6201H68.7616C69.3373 86.6201 69.8894 86.8503 70.2964 87.2601C70.7035 87.6699 70.9322 88.2256 70.9322 88.8051V92.6289C70.9322 93.2084 70.7035 93.7642 70.2964 94.1739C69.8894 94.5837 69.3373 94.8139 68.7616 94.8139ZM38.9934 88.1808C38.8289 88.1808 38.6711 88.2466 38.5548 88.3637C38.4385 88.4808 38.3732 88.6396 38.3732 88.8051V92.6289C38.3732 92.7945 38.4385 92.9533 38.5548 93.0703C38.6711 93.1874 38.8289 93.2532 38.9934 93.2532H68.7616C68.9261 93.2532 69.0838 93.1874 69.2001 93.0703C69.3164 92.9533 69.3818 92.7945 69.3818 92.6289V88.8051C69.3818 88.6396 69.3164 88.4808 69.2001 88.3637C69.0838 88.2466 68.9261 88.1808 68.7616 88.1808H38.9934Z" fill="#708ACC"/>
<path d="M68.7616 128.37H38.9934C38.4177 128.37 37.8656 128.139 37.4585 127.73C37.0514 127.32 36.8228 126.764 36.8228 126.185V122.361C36.8228 121.781 37.0514 121.226 37.4585 120.816C37.8656 120.406 38.4177 120.176 38.9934 120.176H68.7616C69.3373 120.176 69.8894 120.406 70.2964 120.816C70.7035 121.226 70.9322 121.781 70.9322 122.361V126.185C70.9322 126.764 70.7035 127.32 70.2964 127.73C69.8894 128.139 69.3373 128.37 68.7616 128.37ZM38.9934 121.737C38.8289 121.737 38.6711 121.802 38.5548 121.919C38.4385 122.036 38.3732 122.195 38.3732 122.361V126.185C38.3732 126.35 38.4385 126.509 38.5548 126.626C38.6711 126.743 38.8289 126.809 38.9934 126.809H68.7616C68.9261 126.809 69.0838 126.743 69.2001 126.626C69.3164 126.509 69.3818 126.35 69.3818 126.185V122.361C69.3818 122.195 69.3164 122.036 69.2001 121.919C69.0838 121.802 68.9261 121.737 68.7616 121.737H38.9934Z" fill="#708ACC"/>
<path d="M100.952 67.1111H87.8124C86.7282 67.11 85.6887 66.676 84.922 65.9043C84.1553 65.1325 83.7242 64.0861 83.7231 62.9947V49.7675C83.7242 48.6761 84.1553 47.6297 84.922 46.8579C85.6887 46.0862 86.7282 45.6522 87.8124 45.6511H100.952C102.037 45.6522 103.076 46.0862 103.843 46.8579C104.609 47.6297 105.041 48.6761 105.042 49.7675V62.9947C105.041 64.0861 104.609 65.1325 103.843 65.9043C103.076 66.676 102.037 67.11 100.952 67.1111ZM87.8124 47.2118C87.1394 47.2129 86.4942 47.4825 86.0183 47.9615C85.5424 48.4406 85.2746 49.09 85.2736 49.7675V62.9947C85.2746 63.6722 85.5424 64.3216 86.0183 64.8007C86.4942 65.2797 87.1394 65.5493 87.8124 65.5504H100.952C101.625 65.5493 102.27 65.2797 102.746 64.8007C103.222 64.3216 103.49 63.6722 103.491 62.9947V49.7675C103.49 49.09 103.222 48.4406 102.746 47.9615C102.27 47.4825 101.625 47.2129 100.952 47.2118H87.8124Z" fill="#708ACC"/>
<path d="M100.952 101.057H87.8124C86.7282 101.056 85.6887 100.622 84.922 99.8501C84.1553 99.0783 83.7242 98.0319 83.7231 96.9405V83.7133C83.7242 82.6219 84.1553 81.5755 84.922 80.8037C85.6887 80.032 86.7282 79.598 87.8124 79.5969H100.952C102.037 79.598 103.076 80.032 103.843 80.8037C104.609 81.5755 105.041 82.6219 105.042 83.7133V96.9405C105.041 98.0319 104.609 99.0783 103.843 99.8501C103.076 100.622 102.037 101.056 100.952 101.057ZM87.8124 81.1576C87.1394 81.1587 86.4942 81.4283 86.0183 81.9073C85.5424 82.3864 85.2746 83.0358 85.2736 83.7133V96.9405C85.2746 97.618 85.5424 98.2674 86.0183 98.7465C86.4942 99.2255 87.1394 99.4951 87.8124 99.4962H100.952C101.625 99.4951 102.27 99.2255 102.746 98.7465C103.222 98.2674 103.49 97.618 103.491 96.9405V83.7133C103.49 83.0358 103.222 82.3864 102.746 81.9073C102.27 81.4283 101.625 81.1587 100.952 81.1576H87.8124Z" fill="#708ACC"/>
<path d="M100.952 135.003H87.8124C86.7282 135.002 85.6887 134.568 84.922 133.796C84.1553 133.024 83.7242 131.978 83.7231 130.886V117.659C83.7242 116.568 84.1553 115.521 84.922 114.75C85.6887 113.978 86.7282 113.544 87.8124 113.543H100.952C102.037 113.544 103.076 113.978 103.843 114.75C104.609 115.521 105.041 116.568 105.042 117.659V130.886C105.041 131.978 104.609 133.024 103.843 133.796C103.076 134.568 102.037 135.002 100.952 135.003ZM87.8124 115.103C87.1394 115.104 86.4942 115.374 86.0183 115.853C85.5424 116.332 85.2746 116.982 85.2736 117.659V130.886C85.2746 131.564 85.5424 132.213 86.0183 132.692C86.4942 133.171 87.1394 133.441 87.8124 133.442H100.952C101.625 133.441 102.27 133.171 102.746 132.692C103.222 132.213 103.49 131.564 103.491 130.886V117.659C103.49 116.982 103.222 116.332 102.746 115.853C102.27 115.374 101.625 115.104 100.952 115.103H87.8124Z" fill="#708ACC"/>
<path d="M93.9599 61.8789C93.7547 61.878 93.5581 61.7952 93.4134 61.6487L89.111 57.3255C88.965 57.1796 88.8826 56.9812 88.8818 56.7742C88.8811 56.5671 88.9621 56.3682 89.1071 56.2213C89.252 56.0743 89.449 55.9913 89.6547 55.9906C89.8605 55.9899 90.058 56.0714 90.204 56.2174L93.8204 59.8538L98.5725 52.257C98.6825 52.0821 98.857 51.9584 99.0576 51.913C99.2582 51.8677 99.4685 51.9044 99.6423 52.0151C99.816 52.1258 99.9389 52.3015 99.984 52.5035C100.029 52.7054 99.9926 52.9171 99.8826 53.092L94.615 61.516C94.5529 61.6151 94.4694 61.6987 94.3708 61.7609C94.2721 61.823 94.1609 61.862 94.0452 61.875L93.9599 61.8789Z" fill="#476FF5"/>
<path d="M130.586 44.8936L96.2568 84.6475L101.522 89.2551L135.852 49.5012L130.586 44.8936Z" fill="#FFEED4"/>
<path d="M101.522 90.0344C101.334 90.0352 101.152 89.9672 101.011 89.8432L95.7391 85.2351C95.584 85.0995 95.4886 84.9074 95.4741 84.7011C95.4596 84.4948 95.527 84.2911 95.6616 84.1348L129.992 44.3832C130.127 44.227 130.317 44.1311 130.522 44.1165C130.727 44.1018 130.93 44.1697 131.085 44.3052L136.353 48.9132C136.508 49.0488 136.603 49.2409 136.618 49.4472C136.632 49.6535 136.565 49.8572 136.43 50.0135L102.107 89.769C101.972 89.9248 101.781 90.0202 101.576 90.0344H101.522ZM97.3477 84.5718L101.445 88.1537L134.76 49.5804L130.663 45.9947L97.3477 84.5718Z" fill="#708ACC"/>
<path d="M101.522 89.254L94.1343 92.4574L96.2545 84.646L101.522 89.254Z" fill="#CDD3E7"/>
<path d="M94.1343 93.2533C93.9464 93.2541 93.7645 93.1861 93.6226 93.0621C93.5155 92.9666 93.4368 92.8432 93.3951 92.7055C93.3533 92.5678 93.3503 92.4211 93.3862 92.2817L95.5064 84.4781C95.5402 84.3503 95.6057 84.2332 95.6967 84.1378C95.7878 84.0424 95.9014 83.9719 96.027 83.9329C96.1526 83.8939 96.2859 83.8876 96.4145 83.9148C96.5431 83.9419 96.6628 84.0015 96.7623 84.0879L102.03 88.696C102.129 88.7825 102.205 88.893 102.25 89.0172C102.296 89.1413 102.309 89.275 102.289 89.4057C102.268 89.5364 102.216 89.6597 102.135 89.7642C102.055 89.8687 101.949 89.9509 101.828 90.0031L94.4405 93.2065C94.3426 93.2426 94.2384 93.2586 94.1343 93.2533ZM96.677 86.0661L95.3049 91.1151L100.08 89.0432L96.677 86.0661Z" fill="#708ACC"/>
<path d="M141.953 42.436L140.736 43.8446L138.647 46.2637L133.383 41.6557L135.469 39.2365L136.69 37.8475C138.24 36.0566 140.504 35.5064 142.116 36.9111C143.729 38.3157 143.5 40.6451 141.953 42.436Z" fill="#FF8585"/>
<path d="M138.725 47.364L132.291 41.7493L136.105 37.3325C138.019 35.1163 140.756 34.691 142.628 36.3219C144.5 37.9529 144.454 40.7466 142.539 42.955L138.725 47.364ZM134.461 41.5776L138.558 45.1634L141.353 41.921C142.457 40.6451 143 38.7098 141.593 37.4807C140.186 36.2517 138.376 37.0672 137.275 38.3391L134.461 41.5776Z" fill="#708ACC"/>
<path d="M133.381 41.6551L130.583 44.8943L135.849 49.502L138.646 46.2628L133.381 41.6551Z" fill="#E1E9FE"/>
<path d="M135.926 50.6026L129.492 44.9723L133.306 40.5554L139.74 46.1857L135.926 50.6026ZM131.662 44.8162L135.759 48.402L137.538 46.3379L133.445 42.756L131.662 44.8162Z" fill="#708ACC"/>
<path d="M132.126 47.2705L98.8135 85.8464L99.9836 86.8704L133.296 48.2944L132.126 47.2705Z" fill="#708ACC"/>
</g>
<defs>
<clipPath id="clip0">
<rect width="144" height="151" fill="white"/>
</clipPath>
</defs>
</svg>
