<svg width="297" height="127" viewBox="0 0 297 127" fill="none" xmlns="http://www.w3.org/2000/svg">
<g clip-path="url(#clip0)">
<path fill-rule="evenodd" clip-rule="evenodd" d="M189.706 125.782C190.1 125.779 190.485 125.67 190.821 125.466C191.157 125.262 191.43 124.97 191.612 124.623C191.793 124.276 191.876 123.887 191.851 123.496C191.826 123.106 191.694 122.73 191.47 122.408C186.105 114.743 178.948 108.485 170.614 104.171C162.28 99.8575 153.016 97.6166 143.619 97.6409C134.221 97.6653 124.97 99.9541 116.658 104.311C108.346 108.668 101.223 114.963 95.8985 122.656C95.675 122.979 95.5446 123.356 95.5214 123.747C95.4981 124.138 95.5828 124.528 95.7664 124.875C95.95 125.221 96.2255 125.511 96.563 125.714C96.9006 125.916 97.2875 126.023 97.6818 126.023L189.706 125.782Z" fill="#FFCE85"/>
<path d="M143.766 116.344C136.823 116.299 131.585 114.299 128.176 110.404C123.108 104.601 124.098 96.792 124.143 96.4663L127.422 96.8962C127.422 96.9613 126.602 103.611 130.7 108.288C133.46 111.434 137.866 113.049 143.812 113.088C151.024 113.042 156.197 111.232 159.075 107.701C162.668 103.305 161.534 97.554 161.521 97.4954L164.733 96.8441C164.799 97.1437 166.209 104.119 161.652 109.74C158.079 114.065 152.106 116.292 143.766 116.344Z" fill="white"/>
<path d="M97.6887 127.007C97.1155 127.006 96.5534 126.85 96.0629 126.555C95.5725 126.26 95.1724 125.838 94.9059 125.334C94.6393 124.83 94.5164 124.263 94.5505 123.695C94.5845 123.126 94.7742 122.578 95.099 122.109C100.514 114.285 107.759 107.883 116.211 103.452C124.664 99.0211 134.073 96.6933 143.63 96.6683C153.188 96.6433 162.609 98.9219 171.085 103.309C179.561 107.695 186.84 114.059 192.296 121.855C192.624 122.323 192.816 122.872 192.853 123.441C192.889 124.01 192.768 124.578 192.503 125.084C192.237 125.59 191.838 126.014 191.347 126.311C190.856 126.607 190.294 126.764 189.719 126.766L97.6887 127.007ZM143.786 98.6222C134.522 98.6253 125.397 100.865 117.198 105.15C108.998 109.434 101.97 115.634 96.7184 123.216C96.5959 123.392 96.5249 123.599 96.5133 123.812C96.5018 124.026 96.55 124.239 96.6528 124.427C96.7464 124.622 96.8933 124.786 97.0765 124.901C97.2597 125.016 97.4719 125.078 97.6887 125.079L189.706 124.838C189.922 124.837 190.133 124.778 190.317 124.666C190.5 124.555 190.65 124.396 190.749 124.206C190.849 124.016 190.894 123.803 190.88 123.589C190.866 123.376 190.793 123.17 190.67 122.994C185.41 115.477 178.398 109.334 170.232 105.089C162.067 100.844 152.989 98.6232 143.773 98.6157L143.786 98.6222Z" fill="#07005A"/>
<path fill-rule="evenodd" clip-rule="evenodd" d="M115.482 59.4586V69.0395C107.208 70.531 105.281 98.1337 124.576 100.433H164.91C174.863 100.433 185.372 93.1902 184.055 81.2581C182.737 69.326 176.495 68.297 176.495 68.297V59.4586H115.482Z" fill="#07005A"/>
<path fill-rule="evenodd" clip-rule="evenodd" d="M133.034 74.6995L130.582 97.0852C130.582 97.0852 128.831 107.604 141.957 108.861C157.561 110.164 157.692 100.824 157.692 100.824L158.347 73.1819" fill="white"/>
<path d="M144.829 109.962C143.885 109.962 142.901 109.923 141.872 109.838C137.237 109.388 133.834 107.793 131.736 105.083C130.005 102.735 129.245 99.8167 129.612 96.9288L132.057 74.5887L134.024 74.8036L131.579 97.1958C131.29 99.5723 131.913 101.97 133.323 103.911C135.073 106.164 138.017 107.5 142.062 107.89C147.727 108.359 151.896 107.467 154.388 105.227C155.705 104.106 156.533 102.52 156.696 100.804L157.351 73.1558L159.318 73.2014L158.663 100.843C158.487 103.079 157.44 105.159 155.745 106.64C153.286 108.848 149.628 109.962 144.829 109.962Z" fill="#07005A"/>
<path fill-rule="evenodd" clip-rule="evenodd" d="M176.495 39.5935C176.495 26.2676 174.469 20.3537 168.044 15.4949C162.838 11.5414 162.458 11.1636 162.458 5.98565L160.059 3.90796C160.059 3.90796 156.702 17.4488 159.403 19.3702C162.104 21.2916 167.815 24.9064 169.408 41.5149L176.469 42.0816L176.495 39.5935Z" fill="#07005A"/>
<path fill-rule="evenodd" clip-rule="evenodd" d="M168.529 59.9211C172.142 60.9241 179.675 62.8455 180.501 51.923C181.327 41.0004 171.978 41.6257 168.621 42.6287L169.755 43.4689L168.529 59.9211Z" fill="white"/>
<path d="M173.223 61.6926C171.541 61.6403 169.873 61.3599 168.267 60.8589C168.048 60.8003 167.856 60.6671 167.725 60.4827C167.595 60.2982 167.534 60.0741 167.552 59.8494L168.732 43.9312L168.031 43.4102C167.885 43.3018 167.772 43.1551 167.704 42.9866C167.637 42.8181 167.619 42.6344 167.651 42.456C167.683 42.2776 167.764 42.1115 167.885 41.9764C168.007 41.8412 168.164 41.7423 168.339 41.6907C170.627 41.0394 175.328 40.5314 178.462 43.0324C180.77 44.8756 181.786 47.8912 181.478 51.9945C181.17 56.0978 179.924 58.8919 177.747 60.4095C176.41 61.2946 174.829 61.7431 173.223 61.6926ZM169.571 59.185C171.538 59.7061 174.515 60.2727 176.619 58.8073C178.285 57.6479 179.242 55.3032 179.517 51.8512C179.793 48.3993 178.999 45.9894 177.229 44.5565C175.459 43.1236 172.718 42.9347 170.673 43.1952C170.707 43.307 170.718 43.4244 170.706 43.5404L169.571 59.185Z" fill="#07005A"/>
<path fill-rule="evenodd" clip-rule="evenodd" d="M123.835 59.094C120.223 60.097 112.69 62.0184 111.87 51.0958C111.05 40.1732 120.393 40.7985 123.75 41.8015L122.603 42.6417L123.835 59.094Z" fill="white"/>
<path d="M119.148 60.8654C117.538 60.9102 115.954 60.4548 114.617 59.5628C112.447 58.0452 111.188 55.212 110.887 51.1478C110.585 47.0836 111.601 44.0289 113.909 42.1857C117.043 39.6846 121.744 40.1666 124.026 40.844C124.201 40.8965 124.357 40.996 124.479 41.1317C124.601 41.2674 124.682 41.4338 124.714 41.6125C124.747 41.7905 124.729 41.9741 124.661 42.1422C124.594 42.3104 124.481 42.4564 124.334 42.5634L123.639 43.0845L124.819 59.0026C124.836 59.2272 124.774 59.4506 124.644 59.6348C124.514 59.819 124.323 59.9524 124.104 60.0122C122.499 60.5187 120.831 60.8057 119.148 60.8654ZM120.046 42.2638C118.292 42.1913 116.564 42.7075 115.142 43.7293C113.365 45.1492 112.598 47.6372 112.847 51.024C113.096 54.4109 114.08 56.8207 115.752 57.9671C117.856 59.439 120.82 58.8659 122.8 58.3513L121.633 42.7198C121.626 42.6033 121.639 42.4866 121.672 42.3746C121.133 42.3036 120.59 42.2666 120.046 42.2638Z" fill="#07005A"/>
<path fill-rule="evenodd" clip-rule="evenodd" d="M137.931 20.3992C132.607 20.3992 122.851 25.0496 122.851 34.0768V55.948C122.851 55.948 122.386 76.4253 142.881 79.1739C165.172 82.1634 170.096 62.4807 170.096 52.965C170.096 44.1982 171.099 29.1398 167.657 24.776C164.215 20.4122 160.039 20.2689 157.233 20.2689C154.427 20.2689 137.931 20.3992 137.931 20.3992Z" fill="white"/>
<path d="M147.3 80.457C145.778 80.4539 144.258 80.3472 142.75 80.1379C121.626 77.3047 121.868 56.1434 121.868 55.9285V34.0834C121.868 28.6058 125.101 25.0692 127.808 23.0696C130.811 20.8551 134.784 19.4223 137.931 19.4223C138.252 19.4223 154.473 19.292 157.233 19.292C159.803 19.292 164.583 19.292 168.431 24.1703C171.493 28.0782 171.296 39.0855 171.145 47.9434C171.113 49.7475 171.08 51.4539 171.08 52.965C171.08 59.9927 168.713 69.5605 162.071 75.3312C158.144 78.7375 153.188 80.457 147.3 80.457ZM137.931 21.3762C133.014 21.3762 123.835 25.74 123.835 34.0834V55.948C123.835 56.7687 123.652 75.6047 143.012 78.2035C150.349 79.187 156.322 77.7215 160.78 73.8592C166.923 68.5184 169.113 59.5303 169.113 52.965C169.113 51.4344 169.146 49.7084 169.178 47.9108C169.316 39.8084 169.513 28.71 166.884 25.3753C163.606 21.2459 159.626 21.2459 157.233 21.2459C154.466 21.2459 138.108 21.3762 137.938 21.3762H137.931Z" fill="#07005A"/>
<path fill-rule="evenodd" clip-rule="evenodd" d="M115.482 42.075C115.482 42.075 119.633 40.7333 121.285 41.2999C122.937 41.8666 140.39 44.6282 154.558 34.8194C168.726 25.0105 160.57 17.1166 161.855 10.2908C163.14 3.46503 164.215 -2.29259 144.684 0.905365C125.153 4.10332 115.482 16.2634 115.482 36.0764V42.075Z" fill="#07005A"/>
<path d="M118.21 55.7787C118.42 55.7787 118.591 55.6096 118.591 55.401C118.591 55.1923 118.42 55.0232 118.21 55.0232C118 55.0232 117.83 55.1923 117.83 55.401C117.83 55.6096 118 55.7787 118.21 55.7787Z" fill="#FFCE85"/>
<path d="M118.21 56.7556C117.941 56.7556 117.677 56.6762 117.453 56.5273C117.228 56.3784 117.054 56.1669 116.95 55.9193C116.847 55.6718 116.82 55.3994 116.873 55.1366C116.926 54.8738 117.055 54.6324 117.246 54.4429C117.437 54.2535 117.68 54.1244 117.944 54.0722C118.209 54.0199 118.483 54.0467 118.732 54.1493C118.981 54.2518 119.194 54.4254 119.344 54.6482C119.494 54.871 119.574 55.1329 119.574 55.4009C119.574 55.7602 119.43 56.1048 119.175 56.3588C118.919 56.6129 118.572 56.7556 118.21 56.7556ZM118.21 54.8017C118.091 54.8017 117.974 54.8368 117.875 54.9027C117.776 54.9685 117.699 55.0621 117.653 55.1716C117.607 55.2811 117.596 55.4015 117.619 55.5178C117.642 55.634 117.7 55.7408 117.784 55.8246C117.868 55.9084 117.976 55.9655 118.093 55.9886C118.21 56.0117 118.331 55.9998 118.441 55.9545C118.551 55.9091 118.646 55.8323 118.712 55.7338C118.778 55.6352 118.814 55.5194 118.814 55.4009C118.814 55.242 118.75 55.0895 118.637 54.9772C118.524 54.8648 118.37 54.8017 118.21 54.8017Z" fill="#FF8585"/>
<path d="M174.162 56.43C174.372 56.43 174.542 56.2608 174.542 56.0522C174.542 55.8436 174.372 55.6744 174.162 55.6744C173.952 55.6744 173.781 55.8436 173.781 56.0522C173.781 56.2608 173.952 56.43 174.162 56.43Z" fill="#FFCE85"/>
<path d="M174.162 57.407C173.892 57.407 173.628 57.3275 173.404 57.1787C173.18 57.0298 173.005 56.8182 172.902 56.5707C172.798 56.3231 172.771 56.0507 172.824 55.788C172.877 55.5252 173.007 55.2838 173.197 55.0943C173.388 54.9048 173.631 54.7758 173.896 54.7235C174.16 54.6713 174.434 54.6981 174.683 54.8006C174.933 54.9032 175.146 55.0768 175.295 55.2996C175.445 55.5224 175.525 55.7843 175.525 56.0522C175.525 56.4115 175.382 56.7561 175.126 57.0102C174.87 57.2643 174.523 57.407 174.162 57.407ZM174.162 55.453C174.042 55.453 173.926 55.4882 173.826 55.554C173.727 55.6199 173.65 55.7134 173.604 55.8229C173.559 55.9324 173.547 56.0529 173.57 56.1691C173.593 56.2854 173.651 56.3922 173.735 56.476C173.819 56.5598 173.927 56.6168 174.044 56.6399C174.161 56.6631 174.282 56.6512 174.392 56.6058C174.503 56.5605 174.597 56.4837 174.663 56.3851C174.729 56.2866 174.765 56.1708 174.765 56.0522C174.765 55.9736 174.749 55.8956 174.719 55.8229C174.689 55.7502 174.644 55.6842 174.588 55.6285C174.532 55.5729 174.466 55.5288 174.392 55.4986C174.319 55.4685 174.241 55.453 174.162 55.453Z" fill="#FF8585"/>
<path fill-rule="evenodd" clip-rule="evenodd" d="M155.075 40.9612C156.19 41.0068 157.429 42.2639 158.354 41.7298C159.278 41.1957 158.308 39.5218 156.728 38.9226C155.148 38.3234 151.981 38.7533 152.066 40.0298C152.151 41.3064 153.967 40.9222 155.075 40.9612Z" fill="#07005A"/>
<path d="M145.196 59.6801H145.104C144.742 59.6624 144.388 59.5621 144.071 59.387C143.754 59.212 143.481 58.9669 143.275 58.6705C142.35 57.407 142.836 55.414 143.183 53.9355C143.236 53.7205 143.281 53.5317 143.314 53.3688C143.579 50.8135 143.701 48.2456 143.681 45.6768C143.681 45.4177 143.785 45.1692 143.969 44.986C144.154 44.8028 144.404 44.6998 144.665 44.6998C144.926 44.6998 145.176 44.8028 145.36 44.986C145.545 45.1692 145.648 45.4177 145.648 45.6768C145.667 48.3765 145.531 51.0752 145.242 53.7596C145.202 53.942 145.157 54.1504 145.097 54.4109C144.914 55.1925 144.475 57.0162 144.868 57.5503C144.999 57.7327 145.104 57.7457 145.143 57.7522C145.292 57.7566 145.438 57.7157 145.563 57.635C145.743 57.4689 145.979 57.3759 146.225 57.3741C146.47 57.3723 146.708 57.4618 146.89 57.6252C147.073 57.7885 147.187 58.0138 147.211 58.2566C147.235 58.4995 147.166 58.7424 147.018 58.9376C146.779 59.1752 146.495 59.3632 146.182 59.4907C145.869 59.6182 145.534 59.6826 145.196 59.6801Z" fill="#07005A"/>
<path d="M147.516 66.1347C146.605 66.1654 145.702 65.9612 144.894 65.542C144.731 65.4643 144.585 65.3539 144.467 65.2179C144.349 65.0818 144.261 64.923 144.208 64.7513C144.154 64.5796 144.137 64.3989 144.158 64.2204C144.178 64.0419 144.236 63.8696 144.326 63.7142C144.417 63.5587 144.539 63.4236 144.685 63.3174C144.831 63.2111 144.997 63.1359 145.173 63.0965C145.35 63.0571 145.532 63.0544 145.71 63.0886C145.887 63.1227 146.056 63.193 146.205 63.2949C147.029 63.6018 147.935 63.6156 148.768 63.334C148.999 63.2835 149.216 63.1855 149.405 63.0463C149.595 62.9072 149.753 62.7301 149.87 62.5264C149.929 62.359 150.023 62.2056 150.144 62.0754C150.266 61.9452 150.413 61.841 150.576 61.7692C150.739 61.6975 150.916 61.6597 151.095 61.6581C151.273 61.6566 151.45 61.6913 151.615 61.7602C151.78 61.8291 151.928 61.9307 152.052 62.0588C152.176 62.1869 152.272 62.3387 152.334 62.505C152.397 62.6713 152.425 62.8485 152.416 63.0258C152.407 63.2031 152.361 63.3767 152.283 63.5359C152.033 64.0864 151.666 64.5762 151.206 64.9711C150.746 65.3659 150.205 65.6563 149.621 65.822C148.94 66.0331 148.23 66.1385 147.516 66.1347Z" fill="#07005A"/>
<path fill-rule="evenodd" clip-rule="evenodd" d="M153.988 48.7119C154.794 48.7119 155.456 47.7024 155.456 46.4649C155.456 45.2274 154.801 44.2113 153.988 44.2113C153.175 44.2113 152.513 45.2208 152.513 46.4649C152.513 47.7089 153.175 48.7119 153.988 48.7119Z" fill="#07005A"/>
<path fill-rule="evenodd" clip-rule="evenodd" d="M136.056 47.8782C136.712 47.8782 137.256 47.0576 137.256 46.048C137.256 45.0385 136.718 44.2113 136.056 44.2113C135.394 44.2113 134.856 45.032 134.856 46.048C134.856 47.0641 135.394 47.8782 136.056 47.8782Z" fill="#07005A"/>
<path fill-rule="evenodd" clip-rule="evenodd" d="M129.061 87.7062C136.331 87.8625 157.207 84.1891 158.315 80.3593V77.207L153.588 79.0176L143.688 79.3563L132.542 75.8457L129.061 87.7062Z" fill="#07005A"/>
<path d="M89.3163 16.2178H14.273C10.9164 16.2178 8.19531 18.9209 8.19531 22.2555V32.3248C8.19531 35.6593 10.9164 38.3625 14.273 38.3625H89.3163C92.6729 38.3625 95.394 35.6593 95.394 32.3248V22.2555C95.394 18.9209 92.6729 16.2178 89.3163 16.2178Z" fill="#FFF2F2"/>
<path d="M89.3163 39.3395H14.273C12.402 39.3378 10.608 38.5991 9.2843 37.2854C7.96065 35.9716 7.21538 34.1901 7.21191 32.3314V22.2555C7.21365 20.3956 7.95815 18.6124 9.28199 17.2973C10.6058 15.9822 12.4008 15.2426 14.273 15.2408H89.3163C91.1885 15.2426 92.9836 15.9822 94.3074 17.2973C95.6312 18.6124 96.3757 20.3956 96.3775 22.2555V32.3314C96.374 34.1901 95.6287 35.9716 94.3051 37.2854C92.9814 38.5991 91.1874 39.3378 89.3163 39.3395ZM14.273 17.1948C12.9225 17.1965 11.6278 17.7303 10.6728 18.6789C9.71781 19.6276 9.18054 20.9139 9.1788 22.2555V32.3314C9.18054 33.6724 9.71802 34.958 10.6732 35.9056C11.6284 36.8533 12.9231 37.3856 14.273 37.3856H89.3163C90.6663 37.3856 91.961 36.8533 92.9162 35.9056C93.8714 34.958 94.4088 33.6724 94.4106 32.3314V22.2555C94.4089 20.9139 93.8716 19.6276 92.9166 18.6789C91.9616 17.7303 90.6669 17.1965 89.3163 17.1948H14.273Z" fill="#07005A"/>
<path d="M281.415 16.2178H223.418C220.062 16.2178 217.341 18.9209 217.341 22.2555V32.3248C217.341 35.6593 220.062 38.3625 223.418 38.3625H281.415C284.772 38.3625 287.493 35.6593 287.493 32.3248V22.2555C287.493 18.9209 284.772 16.2178 281.415 16.2178Z" fill="#FFF2F2"/>
<path d="M281.416 39.3395H223.419C221.547 39.3378 219.753 38.5991 218.43 37.2854C217.106 35.9716 216.361 34.1901 216.357 32.3314V22.2555C216.359 20.3956 217.104 18.6124 218.427 17.2973C219.751 15.9822 221.546 15.2426 223.419 15.2408H281.416C283.288 15.2426 285.083 15.9822 286.407 17.2973C287.73 18.6124 288.475 20.3956 288.477 22.2555V32.3314C288.473 34.1901 287.728 35.9716 286.404 37.2854C285.081 38.5991 283.287 39.3378 281.416 39.3395ZM223.419 17.1948C222.068 17.1965 220.773 17.7303 219.818 18.6789C218.863 19.6276 218.326 20.9139 218.324 22.2555V32.3314C218.326 33.6724 218.864 34.958 219.819 35.9056C220.774 36.8533 222.069 37.3856 223.419 37.3856H281.416C282.765 37.3856 284.06 36.8533 285.015 35.9056C285.971 34.958 286.508 33.6724 286.51 32.3314V22.2555C286.508 20.9139 285.971 19.6276 285.016 18.6789C284.061 17.7303 282.766 17.1965 281.416 17.1948H223.419Z" fill="#07005A"/>
<path d="M255.19 57.2507H212.273C208.916 57.2507 206.195 59.9539 206.195 63.2884V73.3578C206.195 76.6923 208.916 79.3955 212.273 79.3955H255.19C258.547 79.3955 261.268 76.6923 261.268 73.3578V63.2884C261.268 59.9539 258.547 57.2507 255.19 57.2507Z" fill="#FFCE85"/>
<path d="M255.191 80.3724H212.273C210.402 80.3706 208.608 79.6319 207.284 78.3182C205.961 77.0045 205.215 75.2229 205.212 73.3642V63.2883C205.214 61.4285 205.958 59.6453 207.282 58.3301C208.606 57.015 210.401 56.2754 212.273 56.2737H255.191C257.063 56.2754 258.858 57.015 260.182 58.3301C261.505 59.6453 262.25 61.4285 262.252 63.2883V73.3642C262.248 75.2229 261.503 77.0045 260.179 78.3182C258.856 79.6319 257.062 80.3706 255.191 80.3724ZM212.273 58.2276C210.922 58.2294 209.628 58.7631 208.673 59.7118C207.718 60.6605 207.181 61.9467 207.179 63.2883V73.3642C207.181 74.7053 207.718 75.9908 208.673 76.9385C209.628 77.8861 210.923 78.4184 212.273 78.4184H255.191C256.54 78.4184 257.835 77.8861 258.79 76.9385C259.746 75.9908 260.283 74.7053 260.285 73.3642V63.2883C260.283 61.9467 259.746 60.6605 258.791 59.7118C257.836 58.7631 256.541 58.2294 255.191 58.2276H212.273Z" fill="#07005A"/>
<path d="M289.939 100.889H219.485C216.128 100.889 213.407 103.592 213.407 106.926V116.996C213.407 120.33 216.128 123.034 219.485 123.034H289.939C293.295 123.034 296.016 120.33 296.016 116.996V106.926C296.016 103.592 293.295 100.889 289.939 100.889Z" fill="#FFEED4"/>
<path d="M289.939 124.011H219.485C217.614 124.009 215.82 123.27 214.496 121.956C213.173 120.643 212.427 118.861 212.424 117.002V106.927C212.426 105.067 213.17 103.283 214.494 101.968C215.818 100.653 217.613 99.9136 219.485 99.9119H289.939C291.811 99.9136 293.606 100.653 294.93 101.968C296.254 103.283 296.998 105.067 297 106.927V117.002C296.997 118.861 296.251 120.643 294.928 121.956C293.604 123.27 291.81 124.009 289.939 124.011ZM219.485 101.866C218.134 101.868 216.84 102.401 215.885 103.35C214.93 104.299 214.392 105.585 214.391 106.927V117.002C214.392 118.343 214.93 119.629 215.885 120.577C216.84 121.524 218.135 122.057 219.485 122.057H289.939C291.289 122.057 292.584 121.524 293.539 120.577C294.494 119.629 295.031 118.343 295.033 117.002V106.927C295.031 105.585 294.494 104.299 293.539 103.35C292.584 102.401 291.289 101.868 289.939 101.866H219.485Z" fill="#07005A"/>
<path d="M67.6806 57.2507H7.06108C3.70447 57.2507 0.983398 59.9539 0.983398 63.2884V73.3578C0.983398 76.6923 3.70447 79.3955 7.06108 79.3955H67.6806C71.0372 79.3955 73.7582 76.6923 73.7582 73.3578V63.2884C73.7582 59.9539 71.0372 57.2507 67.6806 57.2507Z" fill="#E1E9FE"/>
<path d="M67.6806 80.3724H7.06113C5.19007 80.3706 3.39604 79.6319 2.07239 78.3182C0.748732 77.0045 0.00347055 75.2229 0 73.3642L0 63.2883C0.00173593 61.4285 0.746231 59.6453 2.07007 58.3301C3.39391 57.015 5.18893 56.2754 7.06113 56.2737H67.6806C69.5528 56.2754 71.3478 57.015 72.6716 58.3301C73.9955 59.6453 74.74 61.4285 74.7417 63.2883V73.3642C74.7382 75.2229 73.993 77.0045 72.6693 78.3182C71.3457 79.6319 69.5517 80.3706 67.6806 80.3724ZM7.06113 58.2276C5.71058 58.2294 4.41585 58.7631 3.46087 59.7118C2.50589 60.6605 1.96862 61.9467 1.96689 63.2883V73.3642C1.96862 74.7053 2.5061 75.9908 3.46127 76.9385C4.41644 77.8861 5.71118 78.4184 7.06113 78.4184H67.6806C69.0305 78.4184 70.3253 77.8861 71.2804 76.9385C72.2356 75.9908 72.7731 74.7053 72.7748 73.3642V63.2883C72.7731 61.9467 72.2358 60.6605 71.2808 59.7118C70.3259 58.7631 69.0311 58.2294 67.6806 58.2276H7.06113Z" fill="#07005A"/>
<path d="M74.8925 97.6322H14.273C10.9164 97.6322 8.19531 100.335 8.19531 103.67V113.739C8.19531 117.074 10.9164 119.777 14.273 119.777H74.8925C78.2491 119.777 80.9701 117.074 80.9701 113.739V103.67C80.9701 100.335 78.2491 97.6322 74.8925 97.6322Z" fill="#F2F6FF"/>
<path d="M74.8925 120.754H14.273C12.402 120.752 10.608 120.014 9.2843 118.7C7.96065 117.386 7.21538 115.605 7.21191 113.746V103.67C7.21365 101.81 7.95815 100.027 9.28199 98.7117C10.6058 97.3966 12.4008 96.657 14.273 96.6553H74.8925C76.7647 96.657 78.5597 97.3966 79.8836 98.7117C81.2074 100.027 81.9519 101.81 81.9536 103.67V113.746C81.9502 115.605 81.2049 117.386 79.8813 118.7C78.5576 120.014 76.7636 120.752 74.8925 120.754ZM14.273 98.6092C12.9225 98.6109 11.6278 99.1447 10.6728 100.093C9.71781 101.042 9.18054 102.328 9.1788 103.67V113.746C9.18054 115.087 9.71802 116.372 10.6732 117.32C11.6284 118.268 12.9231 118.8 14.273 118.8H74.8925C76.2425 118.8 77.5372 118.268 78.4924 117.32C79.4475 116.372 79.985 115.087 79.9867 113.746V103.67C79.985 102.328 79.4477 101.042 78.4928 100.093C77.5378 99.1447 76.2431 98.6109 74.8925 98.6092H14.273Z" fill="#07005A"/>
<path d="M61.6289 71.5796C61.4996 71.5806 61.3715 71.5557 61.2521 71.5065C61.1327 71.4573 61.0245 71.3847 60.9339 71.293C60.8419 71.2028 60.7689 71.0953 60.7191 70.9768C60.6692 70.8582 60.6436 70.7311 60.6436 70.6026C60.6436 70.4742 60.6692 70.347 60.7191 70.2285C60.7689 70.11 60.8419 70.0025 60.9339 69.9122L66.0872 64.7929C66.1784 64.7018 66.2868 64.6295 66.4063 64.58C66.5257 64.5306 66.6537 64.5049 66.7831 64.5046C66.9125 64.5043 67.0406 64.5294 67.1603 64.5783C67.2799 64.6272 67.3887 64.699 67.4804 64.7897C67.5721 64.8803 67.6449 64.988 67.6947 65.1067C67.7445 65.2253 67.7702 65.3525 67.7705 65.481C67.7708 65.6095 67.7457 65.7368 67.6964 65.8557C67.6472 65.9746 67.5749 66.0826 67.4836 66.1737L62.3238 71.293C62.2333 71.3847 62.1251 71.4573 62.0057 71.5065C61.8863 71.5557 61.7581 71.5806 61.6289 71.5796Z" fill="#07005A"/>
<path d="M66.7952 71.5796C66.6649 71.5807 66.5357 71.5559 66.4153 71.5067C66.2948 71.4575 66.1854 71.3848 66.0936 71.293L60.9732 66.1737C60.8765 66.0842 60.799 65.9764 60.7453 65.8565C60.6915 65.7367 60.6626 65.6073 60.6603 65.4761C60.658 65.345 60.6823 65.2147 60.7317 65.093C60.7812 64.9714 60.8548 64.8609 60.9482 64.7681C61.0416 64.6753 61.1528 64.6022 61.2753 64.553C61.3977 64.5039 61.5289 64.4798 61.6609 64.4821C61.793 64.4844 61.9232 64.5131 62.0439 64.5665C62.1645 64.6199 62.2731 64.6969 62.3631 64.7929L67.5229 69.9122C67.7055 70.0962 67.8078 70.3442 67.8078 70.6026C67.8078 70.861 67.7055 71.109 67.5229 71.293C67.4283 71.3884 67.3147 71.4631 67.1894 71.5124C67.0641 71.5618 66.9298 71.5847 66.7952 71.5796Z" fill="#07005A"/>
<path d="M27.8645 32.175C26.892 32.175 25.9413 31.8885 25.1326 31.3518C24.324 30.815 23.6937 30.0521 23.3216 29.1595C22.9494 28.2669 22.852 27.2847 23.0418 26.3371C23.2315 25.3896 23.6998 24.5192 24.3875 23.836C25.0752 23.1529 25.9513 22.6876 26.9052 22.4991C27.859 22.3107 28.8477 22.4074 29.7462 22.7771C30.6447 23.1468 31.4127 23.7729 31.953 24.5763C32.4933 25.3796 32.7817 26.324 32.7817 27.2901C32.7817 28.5857 32.2636 29.8282 31.3415 30.7443C30.4193 31.6603 29.1686 32.175 27.8645 32.175ZM27.8645 24.3592C27.281 24.3592 26.7106 24.5311 26.2254 24.8532C25.7402 25.1752 25.362 25.633 25.1387 26.1685C24.9154 26.7041 24.857 27.2934 24.9708 27.8619C25.0847 28.4305 25.3657 28.9527 25.7783 29.3626C26.1909 29.7725 26.7166 30.0517 27.2889 30.1647C27.8612 30.2778 28.4544 30.2198 28.9935 29.998C29.5326 29.7761 29.9934 29.4005 30.3176 28.9185C30.6418 28.4365 30.8148 27.8698 30.8148 27.2901C30.8131 26.5133 30.5017 25.7688 29.9488 25.2196C29.3959 24.6703 28.6464 24.3609 27.8645 24.3592Z" fill="#07005A"/>
<path d="M50.8108 32.175C49.8382 32.175 48.8875 31.8885 48.0789 31.3518C47.2703 30.815 46.64 30.0521 46.2679 29.1595C45.8957 28.2669 45.7983 27.2847 45.988 26.3371C46.1778 25.3896 46.6461 24.5192 47.3338 23.836C48.0215 23.1529 48.8976 22.6876 49.8515 22.4991C50.8053 22.3107 51.794 22.4074 52.6925 22.7771C53.591 23.1468 54.359 23.7729 54.8993 24.5763C55.4396 25.3796 55.728 26.324 55.728 27.2901C55.728 28.5857 55.2099 29.8282 54.2878 30.7443C53.3656 31.6603 52.1149 32.175 50.8108 32.175ZM50.8108 24.3592C50.2273 24.3592 49.6568 24.5311 49.1717 24.8532C48.6865 25.1752 48.3083 25.633 48.085 26.1685C47.8617 26.7041 47.8033 27.2934 47.9171 27.8619C48.031 28.4305 48.312 28.9527 48.7246 29.3626C49.1372 29.7725 49.6629 30.0517 50.2352 30.1647C50.8075 30.2778 51.4007 30.2198 51.9398 29.998C52.4789 29.7761 52.9397 29.4005 53.2639 28.9185C53.5881 28.4365 53.7611 27.8698 53.7611 27.2901C53.7594 26.5133 53.448 25.7688 52.8951 25.2196C52.3421 24.6703 51.5927 24.3609 50.8108 24.3592Z" fill="#07005A"/>
<path d="M73.758 32.175C72.7855 32.175 71.8348 31.8885 71.0262 31.3518C70.2175 30.815 69.5873 30.0521 69.2151 29.1595C68.8429 28.2669 68.7456 27.2847 68.9353 26.3371C69.125 25.3896 69.5934 24.5192 70.281 23.836C70.9687 23.1529 71.8449 22.6876 72.7987 22.4991C73.7526 22.3107 74.7413 22.4074 75.6398 22.7771C76.5383 23.1468 77.3063 23.7729 77.8466 24.5763C78.3869 25.3796 78.6753 26.324 78.6753 27.2901C78.6753 28.5857 78.1572 29.8282 77.235 30.7443C76.3129 31.6603 75.0622 32.175 73.758 32.175ZM73.758 24.3592C73.1745 24.3592 72.6041 24.5311 72.1189 24.8532C71.6337 25.1752 71.2556 25.633 71.0323 26.1685C70.809 26.7041 70.7506 27.2934 70.8644 27.8619C70.9782 28.4305 71.2592 28.9527 71.6718 29.3626C72.0845 29.7725 72.6102 30.0517 73.1825 30.1647C73.7548 30.2778 74.348 30.2198 74.8871 29.998C75.4262 29.7761 75.887 29.4005 76.2112 28.9185C76.5353 28.4365 76.7084 27.8698 76.7084 27.2901C76.7066 26.5133 76.3952 25.7688 75.8423 25.2196C75.2894 24.6703 74.54 24.3609 73.758 24.3592Z" fill="#07005A"/>
<path d="M283.56 115.869C285.732 115.869 287.494 114.119 287.494 111.961C287.494 109.803 285.732 108.053 283.56 108.053C281.387 108.053 279.626 109.803 279.626 111.961C279.626 114.119 281.387 115.869 283.56 115.869Z" fill="#07005A"/>
<path d="M227.503 116.195C229.676 116.195 231.437 114.445 231.437 112.287C231.437 110.129 229.676 108.379 227.503 108.379C225.331 108.379 223.569 110.129 223.569 112.287C223.569 114.445 225.331 116.195 227.503 116.195Z" fill="#07005A"/>
<path d="M231.109 31.5238C230.89 31.5218 230.678 31.447 230.506 31.3114C230.334 31.1757 230.213 30.987 230.162 30.7751C230.111 30.5632 230.132 30.3404 230.223 30.1421C230.314 29.9437 230.469 29.7813 230.664 29.6805C230.788 29.6089 231.168 29.2897 231.503 29.0292C234.342 26.6194 241.927 20.269 252.745 24.0988C254.974 24.8803 256.902 25.6033 258.606 26.2481C266.008 29.0292 268.782 30.0713 273.181 27.1599C273.288 27.0779 273.41 27.0186 273.541 26.9857C273.672 26.9528 273.808 26.947 273.942 26.9687C274.075 26.9903 274.202 27.039 274.315 27.1116C274.429 27.1843 274.526 27.2793 274.601 27.3909C274.676 27.5024 274.727 27.6281 274.751 27.7601C274.774 27.892 274.771 28.0275 274.74 28.1579C274.709 28.2884 274.651 28.4111 274.57 28.5184C274.489 28.6257 274.387 28.7154 274.269 28.7817C269.024 32.2532 265.543 30.9441 257.911 28.0718C256.22 27.4205 254.299 26.7171 252.089 25.942C242.314 22.5161 235.378 28.3388 232.768 30.5012C232.395 30.8509 231.986 31.1609 231.549 31.4261C231.411 31.4906 231.261 31.524 231.109 31.5238Z" fill="#07005A"/>
<path d="M254.712 63.9918H214.391C214.13 63.9918 213.88 63.8889 213.695 63.7056C213.511 63.5224 213.407 63.2739 213.407 63.0148C213.407 62.7557 213.511 62.5072 213.695 62.324C213.88 62.1408 214.13 62.0378 214.391 62.0378H254.712C254.973 62.0378 255.223 62.1408 255.407 62.324C255.592 62.5072 255.695 62.7557 255.695 63.0148C255.695 63.2739 255.592 63.5224 255.407 63.7056C255.223 63.8889 254.973 63.9918 254.712 63.9918Z" fill="#07005A"/>
<path d="M254.712 69.2022H214.391C214.13 69.2022 213.88 69.0993 213.695 68.9161C213.511 68.7329 213.407 68.4844 213.407 68.2253C213.407 67.9662 213.511 67.7177 213.695 67.5344C213.88 67.3512 214.13 67.2483 214.391 67.2483H254.712C254.973 67.2483 255.223 67.3512 255.407 67.5344C255.592 67.7177 255.695 67.9662 255.695 68.2253C255.695 68.4844 255.592 68.7329 255.407 68.9161C255.223 69.0993 254.973 69.2022 254.712 69.2022Z" fill="#07005A"/>
<path d="M254.712 74.4128H214.391C214.13 74.4128 213.88 74.3099 213.695 74.1267C213.511 73.9434 213.407 73.6949 213.407 73.4358C213.407 73.1767 213.511 72.9282 213.695 72.745C213.88 72.5618 214.13 72.4589 214.391 72.4589H254.712C254.973 72.4589 255.223 72.5618 255.407 72.745C255.592 72.9282 255.695 73.1767 255.695 73.4358C255.695 73.6949 255.592 73.9434 255.407 74.1267C255.223 74.3099 254.973 74.4128 254.712 74.4128Z" fill="#07005A"/>
<path d="M69.8247 109.962H17.6104C17.3496 109.962 17.0994 109.859 16.915 109.675C16.7306 109.492 16.627 109.244 16.627 108.985C16.627 108.726 16.7306 108.477 16.915 108.294C17.0994 108.111 17.3496 108.008 17.6104 108.008H69.8247C70.0855 108.008 70.3357 108.111 70.5201 108.294C70.7045 108.477 70.8081 108.726 70.8081 108.985C70.8081 109.244 70.7045 109.492 70.5201 109.675C70.3357 109.859 70.0855 109.962 69.8247 109.962Z" fill="#07005A"/>
</g>
<defs>
<clipPath id="clip0">
<rect width="297" height="127" fill="white"/>
</clipPath>
</defs>
</svg>
