<svg width="337" height="157" viewBox="0 0 337 157" fill="none" xmlns="http://www.w3.org/2000/svg">
<path fill-rule="evenodd" clip-rule="evenodd" d="M213.672 110.328C214.047 110.327 214.414 110.224 214.734 110.031C215.054 109.838 215.315 109.562 215.488 109.233C215.661 108.903 215.74 108.534 215.717 108.163C215.693 107.793 215.568 107.436 215.354 107.131C210.255 99.8667 203.454 93.9364 195.533 89.8485C187.612 85.7606 178.808 83.6372 169.876 83.6602C160.945 83.6833 152.152 85.8522 144.253 89.981C136.353 94.1097 129.583 100.075 124.522 107.365C124.31 107.671 124.186 108.029 124.164 108.399C124.142 108.77 124.222 109.139 124.397 109.468C124.571 109.796 124.833 110.071 125.154 110.263C125.475 110.455 125.842 110.556 126.217 110.556L213.672 110.328Z" fill="#476FF5"/>
<path d="M126.216 111.482C125.671 111.481 125.137 111.334 124.671 111.054C124.205 110.775 123.825 110.375 123.572 109.897C123.318 109.419 123.201 108.882 123.234 108.344C123.266 107.805 123.446 107.285 123.755 106.841C128.901 99.429 135.785 93.3645 143.816 89.167C151.848 84.9696 160.787 82.7645 169.868 82.7408C178.948 82.7171 187.899 84.8756 195.953 89.0312C204.006 93.1867 210.922 99.2153 216.108 106.6C216.419 107.043 216.602 107.562 216.637 108.101C216.671 108.64 216.557 109.179 216.305 109.658C216.054 110.137 215.675 110.539 215.21 110.82C214.744 111.101 214.21 111.251 213.665 111.254L126.21 111.482H126.216ZM170 84.5652C161.196 84.5681 152.525 86.691 144.734 90.751C136.943 94.8111 130.265 100.687 125.275 107.871C125.16 108.038 125.092 108.233 125.08 108.435C125.068 108.637 125.111 108.838 125.206 109.017C125.301 109.196 125.444 109.346 125.618 109.451C125.793 109.556 125.993 109.612 126.198 109.612L213.653 109.384C213.856 109.382 214.056 109.326 214.229 109.22C214.403 109.115 214.545 108.965 214.639 108.786C214.733 108.607 214.776 108.406 214.764 108.205C214.751 108.003 214.684 107.809 214.569 107.643C209.566 100.524 202.901 94.708 195.141 90.6899C187.381 86.6718 178.756 84.5706 170 84.5652Z" fill="#07005A"/>
<path fill-rule="evenodd" clip-rule="evenodd" d="M189.671 55.7845C193.104 56.735 200.263 58.562 201.048 48.2051C201.833 37.8482 192.948 38.4469 189.758 39.3974L190.83 40.1936L189.671 55.7845Z" fill="white"/>
<path d="M194.132 57.4633C192.53 57.4132 190.944 57.1474 189.415 56.6732C189.208 56.6155 189.027 56.4889 188.904 56.3146C188.78 56.1403 188.721 55.9291 188.736 55.7166L189.864 40.6318L189.197 40.138C189.057 40.0362 188.95 39.8977 188.886 39.7384C188.822 39.579 188.804 39.4051 188.834 39.2363C188.865 39.0674 188.942 38.9103 189.058 38.7828C189.174 38.6553 189.323 38.5625 189.49 38.5147C191.658 37.8975 196.125 37.4099 199.104 39.7862C201.303 41.5329 202.269 44.3845 201.976 48.2729C201.683 52.1614 200.531 54.8092 198.431 56.2474C197.16 57.0861 195.657 57.5111 194.132 57.4633ZM190.661 55.0932C192.53 55.5808 195.359 56.1239 197.359 54.729C198.942 53.6304 199.851 51.4084 200.113 48.1371C200.375 44.8659 199.621 42.5822 197.932 41.2243C196.244 39.8664 193.646 39.6874 191.702 39.9343C191.733 40.0405 191.745 40.1511 191.739 40.2615L190.661 55.0932Z" fill="#07005A"/>
<path fill-rule="evenodd" clip-rule="evenodd" d="M147.196 55.0005C143.763 55.9511 136.603 57.778 135.818 47.4211C135.033 37.0642 143.918 37.6629 147.109 38.6134L146.037 39.4097L147.196 55.0005Z" fill="white"/>
<path d="M142.734 56.6794C141.206 56.7218 139.703 56.2903 138.435 55.445C136.366 54.0069 135.176 51.3282 134.889 47.4706C134.603 43.613 135.562 40.7306 137.762 38.9838C140.74 36.6076 145.239 37.0643 147.376 37.7124C147.542 37.761 147.691 37.8542 147.806 37.9817C147.922 38.1092 147.999 38.266 148.03 38.4345C148.06 38.604 148.041 38.7783 147.978 38.9383C147.914 39.0984 147.807 39.2379 147.669 39.3418L147.002 39.8294L148.13 54.9389C148.145 55.1514 148.086 55.3626 147.962 55.5369C147.838 55.7112 147.658 55.8379 147.451 55.8956C145.921 56.3676 144.335 56.6313 142.734 56.6794ZM143.594 39.0517C141.924 38.9824 140.279 39.4739 138.927 40.4466C137.245 41.786 136.509 44.1129 136.752 47.3533C136.995 50.5937 137.924 52.8465 139.513 53.9452C141.506 55.3401 144.329 54.7969 146.204 54.3093L145.077 39.5085C145.07 39.3981 145.083 39.2875 145.114 39.1813C144.61 39.1068 144.103 39.0635 143.594 39.0517Z" fill="#07005A"/>
<path fill-rule="evenodd" clip-rule="evenodd" d="M181.52 62.3455L180.897 88.5401C180.897 88.5401 180.798 97.391 165.943 96.1628C153.482 94.9653 155.133 85.0035 155.133 85.0035L157.463 63.7836L181.52 62.3455Z" fill="white"/>
<path d="M168.704 97.2306C167.807 97.2306 166.872 97.1874 165.894 97.1071C161.489 96.6874 158.255 95.1691 156.261 92.6076C154.617 90.3816 153.895 87.6168 154.243 84.8801L156.654 62.9627L182.462 61.3888L181.839 88.5895C181.671 90.7081 180.676 92.6785 179.066 94.0828C176.742 96.1751 173.265 97.2306 168.704 97.2306ZM158.342 64.6847L156.093 85.127C155.826 87.3814 156.42 89.6533 157.757 91.4966C159.42 93.626 162.218 94.8975 166.062 95.2617C171.396 95.706 175.465 94.8234 177.807 92.7125C179.042 91.656 179.817 90.1677 179.969 88.5587L180.561 63.3577L158.342 64.6847Z" fill="#07005A"/>
<path fill-rule="evenodd" clip-rule="evenodd" d="M160.591 18.3317C155.532 18.3317 146.261 22.7386 146.261 31.2932V52.0194C146.261 52.0194 145.812 71.4247 165.296 74.0293C186.48 76.8623 191.16 58.2101 191.16 49.1925C191.16 40.8848 192.113 26.6147 188.842 22.4794C185.571 18.344 181.602 18.2083 178.935 18.2083C176.268 18.2083 160.591 18.3317 160.591 18.3317Z" fill="white"/>
<path d="M169.489 75.2453C168.044 75.2411 166.602 75.1422 165.171 74.949C145.077 72.2641 145.32 52.2046 145.326 52.0009V31.2995C145.326 26.1087 148.398 22.7572 150.971 20.8623C153.825 18.7638 157.594 17.4059 160.585 17.4059C160.897 17.4059 176.305 17.2825 178.935 17.2825C181.377 17.2825 185.919 17.2825 189.577 21.9054C192.487 25.6087 192.3 36.0397 192.15 44.4338C192.119 46.1435 192.094 47.7606 192.094 49.1926C192.094 55.8523 189.845 64.9192 183.533 70.3878C179.801 73.622 175.09 75.2453 169.489 75.2453ZM160.591 19.2576C155.918 19.2576 147.195 23.3929 147.195 31.2995V52.0194C147.195 52.8033 147.014 70.6532 165.42 73.1097C172.386 74.0417 178.069 72.6591 182.299 68.9929C188.144 63.9379 190.225 55.4511 190.225 49.1926C190.225 47.7483 190.225 46.1065 190.281 44.403C190.418 36.7248 190.605 26.2136 188.106 23.0473C185.01 19.1403 181.215 19.1403 178.935 19.1403C176.299 19.1403 160.753 19.2637 160.597 19.2637L160.591 19.2576Z" fill="#07005A"/>
<path fill-rule="evenodd" clip-rule="evenodd" d="M177.022 43.9216C177.794 43.9216 178.417 42.9649 178.417 41.786C178.417 40.6071 177.794 39.6566 177.022 39.6566C176.249 39.6566 175.607 40.6133 175.607 41.786C175.607 42.9587 176.23 43.9216 177.022 43.9216Z" fill="#07005A"/>
<path fill-rule="evenodd" clip-rule="evenodd" d="M159.981 43.5264C160.753 43.5264 161.383 42.5698 161.383 41.397C161.383 40.2243 160.759 39.2615 159.981 39.2615C159.202 39.2615 158.585 40.2182 158.585 41.397C158.585 42.5759 159.208 43.5264 159.981 43.5264Z" fill="#07005A"/>
<path d="M167.993 53.2723C167.751 53.2743 167.51 53.2237 167.289 53.1242C167 52.9729 166.761 52.7422 166.601 52.4598C166.441 52.1774 166.366 51.8552 166.386 51.5318C166.305 51.0565 166.137 49.2481 166.024 42.4093C166.024 42.2194 166.101 42.0373 166.236 41.9031C166.372 41.7688 166.555 41.6934 166.747 41.6934C166.939 41.6934 167.123 41.7688 167.258 41.9031C167.394 42.0373 167.47 42.2194 167.47 42.4093C167.601 50.1739 167.806 51.2787 167.813 51.3219C167.822 51.3709 167.822 51.4211 167.813 51.4701C167.813 51.754 167.894 51.8527 167.906 51.8589C167.919 51.8651 168.317 51.8589 168.978 51.396C169.131 51.2827 169.323 51.234 169.512 51.2607C169.701 51.2873 169.872 51.387 169.987 51.538C170.045 51.6123 170.087 51.6973 170.112 51.788C170.136 51.8787 170.142 51.9733 170.129 52.0662C170.117 52.1592 170.085 52.2488 170.037 52.3297C169.989 52.4107 169.926 52.4814 169.85 52.5379C169.329 52.9781 168.677 53.2362 167.993 53.2723Z" fill="#07005A"/>
<path d="M169.888 61.4073C168.724 61.3902 167.57 61.1945 166.467 60.8271C166.35 60.7903 166.241 60.7309 166.148 60.6525C166.054 60.574 165.976 60.4781 165.92 60.37C165.864 60.262 165.829 60.144 165.819 60.0228C165.808 59.9016 165.822 59.7796 165.859 59.6637C165.897 59.5478 165.957 59.4403 166.036 59.3473C166.115 59.2543 166.212 59.1777 166.321 59.1218C166.43 59.0659 166.549 59.0319 166.671 59.0216C166.794 59.0113 166.917 59.025 167.034 59.0619C169.277 59.7717 171.184 59.6791 172.386 58.8891C172.686 58.7024 172.94 58.4513 173.129 58.1542C173.318 57.8572 173.436 57.5219 173.477 57.1732C173.484 57.0516 173.515 56.9327 173.569 56.8231C173.623 56.7136 173.698 56.6156 173.79 56.5348C173.882 56.454 173.989 56.3919 174.105 56.3522C174.222 56.3124 174.345 56.2956 174.467 56.3029C174.59 56.3102 174.71 56.3414 174.821 56.3947C174.931 56.4479 175.03 56.5223 175.112 56.6134C175.193 56.7045 175.256 56.8107 175.296 56.9258C175.336 57.0409 175.353 57.1627 175.346 57.2843C175.287 57.914 175.086 58.5226 174.757 59.0644C174.428 59.6063 173.98 60.0675 173.445 60.4136C172.39 61.098 171.148 61.4449 169.888 61.4073Z" fill="#07005A"/>
<path d="M173.739 39.3232C173.55 39.3221 173.367 39.2648 173.212 39.1587C173.058 39.0526 172.939 38.9027 172.871 38.7287C172.804 38.5546 172.791 38.3644 172.835 38.1831C172.879 38.0017 172.976 37.8377 173.116 37.7123L173.552 37.2987C174.947 35.9656 176.86 34.1448 180.829 36.8297C181.034 36.9688 181.175 37.1829 181.22 37.4248C181.266 37.6667 181.213 37.9167 181.072 38.1196C180.932 38.3226 180.716 38.462 180.471 38.5072C180.227 38.5523 179.975 38.4995 179.77 38.3604C177.06 36.5087 176.181 37.3605 174.854 38.6319L174.38 39.0763C174.207 39.2376 173.977 39.3261 173.739 39.3232Z" fill="#07005A"/>
<path d="M155.85 38.3234C155.663 38.321 155.481 38.2631 155.328 38.1573C155.175 38.0516 155.057 37.9027 154.99 37.73C154.923 37.5573 154.91 37.3686 154.952 37.1883C154.994 37.008 155.09 36.8444 155.227 36.7186L155.495 36.4717C157.053 35.0274 159.408 32.8487 163.994 36.194C164.184 36.3423 164.309 36.5581 164.342 36.7958C164.375 37.0336 164.314 37.2748 164.171 37.4685C164.028 37.6623 163.814 37.7934 163.575 37.8343C163.337 37.8751 163.091 37.8226 162.891 37.6876C159.545 35.2496 158.261 36.4532 156.772 37.8234L156.492 38.0827C156.316 38.2396 156.087 38.3254 155.85 38.3234Z" fill="#07005A"/>
<path fill-rule="evenodd" clip-rule="evenodd" d="M141.544 26.479C143.058 15.8258 150.061 13.5853 150.061 13.5853C149.438 6.27133 156.585 0.623795 163.214 0.0868163C169.844 -0.450162 176.349 1.47555 178.261 6.654C182.854 2.48779 188.231 3.99997 190.1 6.27133C191.969 8.54268 192.268 10.2339 191.757 13.2459C196.985 10.3141 203.359 10.8202 204.761 15.9987C206.163 21.1771 201.066 31.4291 187.552 35.5768C174.037 39.7245 152.485 34.8176 151.849 25.979C148.771 29.2318 147.288 36.1631 147.02 39.348C147.009 39.4986 146.954 39.6428 146.862 39.7635C146.771 39.8842 146.646 39.9763 146.503 40.0289C146.36 40.0816 146.205 40.0925 146.056 40.0604C145.907 40.0283 145.77 39.9546 145.662 39.8479C142.584 36.8853 141.176 29.059 141.544 26.479Z" fill="#07005A"/>
<path fill-rule="evenodd" clip-rule="evenodd" d="M155.551 81.51C162.442 80.8927 181.521 77.6215 181.521 72.8257L181.894 71.6592L177.614 73.8441L168.268 75.165L156.61 71.6592L155.551 81.51Z" fill="#07005A"/>
<path d="M253.071 89.7041C253.304 90.026 253.462 90.3946 253.536 90.784C253.61 91.1734 253.597 91.5743 253.498 91.9587C253.176 93.5218 251.903 95.6307 250.372 97.1743C250.402 97.0282 250.384 96.8766 250.32 96.742C250.255 96.6074 250.149 96.497 250.016 96.4273C249.884 96.3577 249.732 96.3324 249.583 96.3553C249.434 96.3782 249.297 96.448 249.191 96.5544L249.111 96.4648C250.565 95.111 251.876 93.0596 252.159 91.6817C252.218 91.4882 252.232 91.2841 252.201 91.0846C252.17 90.885 252.094 90.6949 251.979 90.5284C251.643 90.1585 251.19 89.9118 250.694 89.828C251.015 89.4218 251.311 89.0185 251.553 88.6405C252.151 88.8439 252.678 89.213 253.071 89.7041Z" fill="#07005A"/>
<path d="M250.844 82.7206C251.524 83.3179 252.005 84.1053 252.225 84.9795C252.444 85.8537 252.391 86.7738 252.074 87.6191C251.913 87.977 251.722 88.3208 251.503 88.6468C251.176 88.5303 250.835 88.4531 250.489 88.4168C250.367 88.4074 250.244 88.4298 250.132 88.4816C250.021 88.5334 249.925 88.613 249.854 88.7125L249.798 88.6695C250.189 88.1829 250.522 87.6537 250.791 87.0925C250.985 86.5226 251.01 85.9098 250.863 85.327C250.716 84.7443 250.403 84.2161 249.961 83.8054C249.219 83.2373 248.051 83.5921 247.738 83.699C247.928 83.3002 248.087 82.8877 248.214 82.4652C248.239 82.3626 248.27 82.2593 248.289 82.1575C248.732 82.074 249.187 82.0809 249.626 82.1777C250.065 82.2745 250.48 82.4592 250.844 82.7206Z" fill="#07005A"/>
<path d="M251.954 90.5315C252.069 90.6981 252.145 90.8881 252.176 91.0877C252.207 91.2873 252.192 91.4913 252.133 91.6848C251.851 93.0627 250.539 95.1142 249.086 96.4679C248.536 97.0139 247.883 97.4471 247.165 97.7423C245.961 98.1638 245.391 98.0721 245.134 97.9233C244.983 97.7878 244.862 97.6222 244.78 97.4373C244.698 97.2524 244.656 97.0523 244.657 96.8501C244.519 95.7228 245.725 94.5549 246.449 93.8566C246.627 93.6952 246.794 93.5231 246.951 93.341C247.082 93.2738 247.209 93.1979 247.331 93.114C248.593 92.1707 249.724 91.0657 250.694 89.8281C251.181 89.9179 251.624 90.1653 251.954 90.5315Z" fill="white"/>
<path d="M246.736 63.6304C247.3 63.8276 247.793 64.1852 248.152 64.6587C248.512 65.1321 248.722 65.7003 248.758 66.2924C249.008 68.3324 245.385 73.0307 242.75 75.8541C241.972 76.0367 241.208 76.276 240.465 76.57C240.372 76.6089 240.29 76.668 240.223 76.7428C240.114 76.7265 240.004 76.7192 239.894 76.721C243.319 73.9436 247.525 67.6563 247.38 66.474C247.374 66.1524 247.275 65.8394 247.094 65.5726C246.913 65.3059 246.659 65.0966 246.36 64.9699C245.666 64.7816 243.578 64.9571 239.069 70.666L230.583 81.4151C229.464 82.1742 228.266 82.993 227.125 83.9291C226.821 84.1715 226.53 84.4294 226.253 84.7015L237.997 69.815C241.672 65.129 244.618 63.0509 246.736 63.6304Z" fill="#07005A"/>
<path d="M249.985 83.8024C250.427 84.2131 250.74 84.7413 250.888 85.3241C251.035 85.9068 251.01 86.5196 250.816 87.0895C250.546 87.6508 250.213 88.1799 249.823 88.6666C248.892 89.9051 247.797 91.0142 246.568 91.9641C246.416 92.0664 246.257 92.1586 246.093 92.24C245.183 92.7 244.074 92.8734 243.423 92.0703C242.772 91.2673 243.166 89.6146 244.174 88.3155C245.668 87.0273 246.888 85.4567 247.762 83.696C248.079 83.6198 249.244 83.2343 249.985 83.8024Z" fill="white"/>
<path d="M251.527 88.6437C251.285 89.0217 250.995 89.4242 250.668 89.8312L250.387 89.785C250.204 89.7686 250.035 89.6814 249.916 89.5422C249.798 89.403 249.74 89.2231 249.755 89.0416C249.769 88.923 249.811 88.8092 249.878 88.7095C249.949 88.6099 250.045 88.5304 250.156 88.4786C250.268 88.4267 250.391 88.4044 250.513 88.4138C250.859 88.4501 251.2 88.5273 251.527 88.6437Z" fill="#07005A"/>
<path d="M250.388 89.7848L250.67 89.8311C249.7 91.0687 248.569 92.1737 247.307 93.117C247.185 93.2009 247.058 93.2767 246.927 93.344L246.972 93.3012C247.07 93.1754 247.122 93.0199 247.119 92.8608C247.116 92.7018 247.057 92.5489 246.953 92.4279C246.849 92.307 246.706 92.2254 246.548 92.197C246.39 92.1686 246.226 92.1951 246.086 92.272L246.082 92.2413C246.246 92.1599 246.405 92.0678 246.557 91.9654C247.786 91.0156 248.88 89.9065 249.812 88.6679L249.867 88.7108C249.8 88.8105 249.758 88.9243 249.745 89.043C249.737 89.1337 249.748 89.2249 249.777 89.3113C249.805 89.3977 249.851 89.4777 249.911 89.5466C249.97 89.6155 250.043 89.6721 250.125 89.7129C250.207 89.7538 250.297 89.7782 250.388 89.7848Z" fill="#07005A"/>
<path d="M246.359 64.9578C246.657 65.0845 246.912 65.2938 247.093 65.5605C247.273 65.8273 247.373 66.1402 247.378 66.4619C247.529 67.6871 243.307 73.9452 239.892 76.7089C238.653 76.7733 237.458 77.1876 236.448 77.9029C236.187 78.078 235.717 78.3409 235.113 78.6887C233.968 79.333 232.357 80.2708 230.587 81.4022L239.072 70.647C243.576 64.945 245.664 64.7695 246.359 64.9578Z" fill="white"/>
<path d="M250.018 96.4407C250.143 96.5144 250.242 96.625 250.301 96.757C250.36 96.889 250.376 97.0359 250.347 97.1776C249.583 97.9835 248.655 98.619 247.625 99.0415L247.317 99.1415C247.947 98.3566 248.532 97.5374 249.069 96.6878C249.097 96.6419 249.13 96.5984 249.166 96.5577C249.275 96.4477 249.418 96.3766 249.572 96.3554C249.726 96.3342 249.883 96.3642 250.018 96.4407Z" fill="#07005A"/>
<path d="M250.346 97.1775C250.332 97.2514 250.305 97.3222 250.265 97.3864C250.046 97.7491 244.871 106.319 235.439 109.921C228.969 112.395 227.015 113.916 225.853 114.83C225.545 115.087 225.22 115.322 224.879 115.534C224.813 115.298 224.718 115.072 224.595 114.86C224.513 114.736 224.392 114.642 224.251 114.592C224.111 114.542 223.957 114.539 223.814 114.583C224.248 114.359 224.655 114.085 225.026 113.768C226.252 112.809 228.302 111.202 234.963 108.655C240.888 106.398 245.132 101.947 247.345 99.1629L247.653 99.0629C248.675 98.6307 249.593 97.9879 250.346 97.1775Z" fill="#07005A"/>
<path d="M246.383 75.9367C248.335 76.9034 248.897 79.8442 248.326 82.1528C247.922 82.2055 247.525 82.3085 247.146 82.4594C247.059 82.4968 246.98 82.5511 246.914 82.619C246.848 82.6869 246.796 82.7671 246.762 82.8549L246.648 82.8004C246.752 82.5647 246.842 82.3232 246.917 82.0771C247.445 80.2898 247.022 77.817 245.755 77.1642C244.907 76.746 243.106 77.1163 241.773 77.5537L241.728 77.4969C241.632 77.3942 241.528 77.2988 241.417 77.2118C241.805 76.8408 242.264 76.3865 242.751 75.8541C243.96 75.5812 245.375 75.4448 246.383 75.9367Z" fill="#07005A"/>
<path d="M248.327 82.1529C248.308 82.2547 248.277 82.3581 248.251 82.4606C248.124 82.8832 247.965 83.2956 247.775 83.6944L247.695 83.7043C247.611 83.7402 247.521 83.7594 247.43 83.7607C247.338 83.762 247.248 83.7454 247.163 83.7119C247.079 83.6784 247.002 83.6285 246.936 83.5653C246.871 83.5021 246.82 83.4267 246.784 83.3435C246.748 83.2601 246.729 83.1705 246.728 83.0797C246.728 82.989 246.745 82.8989 246.78 82.8148C246.814 82.7307 246.866 82.6543 246.93 82.5899C246.995 82.5254 247.072 82.4744 247.157 82.4396C247.533 82.2963 247.926 82.2 248.327 82.1529Z" fill="#07005A"/>
<path d="M247.685 83.7241L247.765 83.7142C246.891 85.4749 245.671 87.0455 244.177 88.3337L244.215 88.2916C244.32 88.1584 244.371 87.9921 244.361 87.8241C244.35 87.656 244.278 87.4977 244.158 87.3789C244.038 87.26 243.878 87.1888 243.708 87.1787C243.538 87.1685 243.371 87.22 243.236 87.3236C244.688 86.0826 245.853 84.5459 246.651 82.8188L246.764 82.8733C246.705 83.0386 246.709 83.2197 246.776 83.3817C246.851 83.5459 246.989 83.6739 247.159 83.738C247.329 83.8021 247.518 83.7971 247.685 83.7241Z" fill="#07005A"/>
<path d="M249.086 96.468L249.166 96.5576C249.131 96.5983 249.098 96.6418 249.069 96.6877C248.532 97.5373 247.947 98.3565 247.318 99.1414C246.954 99.2616 246.58 99.3471 246.2 99.3968C245.584 99.5023 244.951 99.3958 244.406 99.0948C244.068 98.8595 243.791 98.5495 243.595 98.1893C243.399 97.8291 243.291 97.4287 243.278 97.0195C243.247 96.4654 243.332 95.9107 243.527 95.3902C243.722 94.8697 244.024 94.3945 244.413 93.9947C244.651 94.0108 244.89 94.0044 245.127 93.9755C245.765 93.8849 246.378 93.67 246.932 93.3433C246.776 93.5254 246.609 93.6976 246.431 93.8589C245.708 94.5695 244.5 95.7252 244.639 96.8524C244.638 97.0546 244.679 97.2547 244.762 97.4396C244.844 97.6246 244.965 97.7902 245.116 97.9256C245.373 98.0744 245.924 98.1684 247.146 97.7447C247.872 97.4508 248.531 97.0168 249.086 96.468Z" fill="#07005A"/>
<path d="M245.755 77.1642C247.053 77.8133 247.445 80.2898 246.917 82.0771C246.842 82.3232 246.752 82.5647 246.648 82.8004C245.851 84.5276 244.686 86.0643 243.234 87.3052L243.197 87.3098C241.941 88.2786 240.714 88.7153 239.987 88.4688C239.597 88.1925 239.323 87.7835 239.218 87.3195C239.092 87.0079 239.033 86.6733 239.046 86.3375C239.059 86.0016 239.143 85.6721 239.293 85.3702C239.552 85.0032 239.839 84.6561 240.151 84.3321C240.524 83.9554 240.848 83.5332 241.114 83.0758C242.849 80.792 242.726 78.6679 241.792 77.5575C243.107 77.1163 244.907 76.746 245.755 77.1642Z" fill="white"/>
<path d="M246.876 92.324C247.02 92.4387 247.114 92.6046 247.136 92.7865C247.158 92.9685 247.108 93.152 246.996 93.2981L246.951 93.3409C246.397 93.6676 245.783 93.8825 245.145 93.9731C244.909 94.002 244.67 94.0084 244.432 93.9923C244.765 93.6002 245.119 93.2266 245.494 92.8731C245.644 92.7379 245.785 92.5938 245.918 92.4417C245.976 92.3701 246.047 92.3106 246.129 92.2666C246.246 92.2061 246.379 92.1793 246.511 92.1895C246.643 92.1996 246.77 92.2462 246.876 92.324Z" fill="#07005A"/>
<path d="M246.093 92.2399L246.097 92.2705C246.015 92.3145 245.944 92.374 245.886 92.4456C245.753 92.5977 245.612 92.7418 245.462 92.877C245.087 93.2305 244.733 93.6041 244.4 93.9961C243.998 93.9744 243.606 93.8691 243.248 93.6869C242.89 93.5047 242.576 93.2499 242.324 92.9389C241.998 92.4552 241.794 91.9007 241.73 91.3221C241.665 90.7435 241.742 90.1577 241.954 89.614C242.717 89.3089 243.431 88.8966 244.076 88.3896L244.161 88.3169C243.154 89.6221 242.805 91.3315 243.411 92.0718C244.016 92.812 245.18 92.6815 246.093 92.2399Z" fill="#07005A"/>
<path d="M246.2 99.3968C246.579 99.3471 246.953 99.2616 247.317 99.1414C245.101 101.901 240.861 106.377 234.936 108.634C228.274 111.181 226.227 112.812 224.998 113.747C224.637 114.07 224.24 114.35 223.814 114.583L223.771 114.588C223.222 114.717 220.878 112.754 219.247 109.136C218.921 108.4 218.754 107.605 218.756 106.801C218.758 105.996 218.928 105.201 219.257 104.465C219.399 104.135 219.571 103.819 219.769 103.519C221.328 101.238 223.267 98.009 223.653 95.5799C223.729 95.0792 223.8 94.5854 223.864 94.0801C224.227 91.517 224.572 89.0618 226.158 86.8897C226.27 86.8484 226.368 86.7759 226.44 86.681L227.292 85.6C227.512 85.3927 227.75 85.1831 228.007 84.9774C230.466 83.0663 233.081 81.36 235.824 79.876C236.47 79.5107 236.939 79.2417 237.241 79.0429C238.02 78.5368 239.311 77.9616 240.152 78.1072C240.366 78.1341 240.563 78.2355 240.708 78.3933C241.204 78.9543 241.387 80.3434 240.12 82.0909C240.075 82.1333 240.036 82.182 240.006 82.2355L239.979 82.2761C239.868 82.4302 239.748 82.5778 239.619 82.7183C237.512 85.0851 235.413 86.8601 234.272 87.2303C234.143 87.273 234.029 87.3526 233.945 87.4592C233.861 87.5658 233.81 87.6946 233.8 87.8293C233.787 87.9635 233.815 88.0983 233.88 88.2166C233.944 88.3348 234.043 88.4313 234.164 88.4935C234.201 88.489 238.745 90.9844 238.975 94.8053C239.194 98.4785 236.645 99.8051 236.545 99.8609C236.463 99.9007 236.39 99.9561 236.33 100.024C236.27 100.092 236.224 100.17 236.195 100.256C236.165 100.341 236.153 100.431 236.159 100.521C236.164 100.611 236.188 100.699 236.228 100.78C236.268 100.861 236.324 100.933 236.392 100.992C236.46 101.052 236.54 101.097 236.626 101.126C236.712 101.155 236.803 101.167 236.893 101.161C236.984 101.155 237.073 101.132 237.155 101.092C237.297 101.025 240.635 99.3275 240.365 94.7217C240.151 92.6991 239.197 90.8255 237.684 89.4542L238.694 89.1934C238.928 89.4604 239.225 89.6654 239.558 89.79C239.985 89.9312 240.439 89.9733 240.886 89.9131C241.268 89.8648 241.642 89.7666 241.999 89.6209C241.787 90.1647 241.71 90.7505 241.775 91.3291C241.839 91.9077 242.043 92.4622 242.369 92.9459C242.62 93.2568 242.935 93.5117 243.293 93.6939C243.651 93.876 244.043 93.9814 244.445 94.0031C244.056 94.403 243.754 94.8781 243.559 95.3986C243.363 95.9192 243.278 96.4739 243.31 97.0279C243.322 97.4371 243.431 97.8376 243.626 98.1977C243.822 98.5579 244.1 98.8679 244.437 99.1032C244.974 99.394 245.595 99.4974 246.2 99.3968Z" fill="white"/>
<path d="M244.095 87.3053C244.238 87.419 244.331 87.5839 244.353 87.7648C244.375 87.9457 244.325 88.1282 244.213 88.2733L244.175 88.3153L244.089 88.388C243.445 88.895 242.73 89.3074 241.967 89.6124C242.213 88.8203 242.603 88.079 243.117 87.4253L243.2 87.3281L243.237 87.3236C243.357 87.2263 243.507 87.1717 243.663 87.1684C243.818 87.1651 243.97 87.2133 244.095 87.3053Z" fill="#07005A"/>
<path d="M243.199 87.3283L243.117 87.4255C242.602 88.0793 242.212 88.8205 241.967 89.6126C241.61 89.7582 241.236 89.8565 240.854 89.9047C240.407 89.965 239.953 89.9228 239.527 89.7817C239.193 89.6571 238.896 89.4521 238.662 89.1851C238.294 88.7634 238.02 88.2695 237.857 87.7356C237.738 87.3713 237.666 86.9936 237.643 86.6114C238.695 85.684 239.686 84.692 240.612 83.6413C240.777 83.4606 240.931 83.2714 241.076 83.0744C240.81 83.5318 240.486 83.954 240.113 84.3307C239.801 84.6547 239.514 85.0018 239.255 85.3688C239.105 85.6707 239.021 86.0002 239.008 86.3361C238.995 86.6719 239.054 87.0065 239.18 87.3181C239.285 87.7821 239.559 88.1911 239.949 88.4674C240.729 88.7324 241.931 88.2987 243.199 87.3283Z" fill="#07005A"/>
<path d="M241.773 77.5537C242.709 78.6825 242.799 80.792 241.095 83.072C241.128 83.0269 241.158 82.9796 241.184 82.9305C241.275 82.7715 241.298 82.5837 241.249 82.408C241.201 82.2323 241.084 82.0828 240.925 81.9922C240.794 81.915 240.641 81.8831 240.49 81.9017C240.339 81.9203 240.198 81.9882 240.09 82.0948C241.357 80.3473 241.173 78.952 240.678 78.3972C240.533 78.2394 240.336 78.1379 240.122 78.111L240.154 77.9142C240.309 77.9421 240.468 77.9225 240.612 77.8581C240.739 77.8796 240.87 77.8635 240.989 77.8117C241.22 77.7522 241.484 77.6514 241.773 77.5537Z" fill="#07005A"/>
<path d="M241.728 77.497L241.773 77.5537C241.484 77.6514 241.22 77.7522 240.992 77.8424C240.874 77.8941 240.743 77.9102 240.615 77.8887C240.672 77.8647 240.725 77.8331 240.773 77.7947C240.955 77.6417 241.176 77.4467 241.418 77.218C241.528 77.3031 241.632 77.3964 241.728 77.497Z" fill="#07005A"/>
<path d="M242.751 75.854C242.264 76.3865 241.805 76.8408 241.417 77.2118C241.072 76.9455 240.658 76.7808 240.223 76.7366C240.289 76.6618 240.372 76.6027 240.465 76.5638C241.208 76.2719 241.972 76.0346 242.751 75.854Z" fill="#07005A"/>
<path d="M241.417 77.2119C241.175 77.4405 240.954 77.6356 240.772 77.7885C240.713 77.8425 240.638 77.8776 240.559 77.8893C240.48 77.9009 240.398 77.8885 240.326 77.8537C240.254 77.8188 240.194 77.7632 240.155 77.6941C240.115 77.625 240.098 77.5456 240.104 77.4663C240.053 77.3461 240.038 77.2135 240.061 77.0847C240.084 76.956 240.145 76.8367 240.235 76.7413C240.666 76.7865 241.075 76.9494 241.417 77.2119Z" fill="#07005A"/>
<path d="M240.926 82.0107C241.085 82.1013 241.202 82.2507 241.251 82.4264C241.299 82.6021 241.276 82.7899 241.185 82.9489C241.159 82.9981 241.129 83.0454 241.096 83.0904C240.952 83.2874 240.797 83.4766 240.632 83.6573C239.706 84.708 238.715 85.7 237.663 86.6274C237.585 85.9133 237.753 85.1934 238.141 84.5851C238.436 84.1716 238.761 83.7803 239.115 83.4146C239.441 83.0841 239.722 82.713 239.952 82.3106C240.002 82.2515 240.049 82.1897 240.092 82.1254C240.199 82.0173 240.339 81.9473 240.49 81.9265C240.641 81.9057 240.794 81.9353 240.926 82.0107Z" fill="#07005A"/>
<path d="M240.614 77.8825C240.471 77.9469 240.311 77.9665 240.157 77.9387C240.032 77.906 239.918 77.8399 239.829 77.7475C239.74 77.6551 239.678 77.5401 239.65 77.415C239.622 77.29 239.63 77.1597 239.672 77.0385C239.714 76.9172 239.789 76.8098 239.889 76.7279C239.999 76.726 240.109 76.7333 240.218 76.7496C240.127 76.845 240.067 76.9643 240.044 77.0931C240.02 77.2218 240.036 77.3544 240.087 77.4746C240.13 77.5831 240.202 77.6781 240.295 77.7498C240.387 77.8215 240.498 77.8673 240.614 77.8825Z" fill="#07005A"/>
<path d="M240.156 77.9264L240.123 78.1231C239.283 77.9776 237.992 78.5528 237.213 79.0589C236.91 79.2577 236.441 79.5267 235.796 79.892C233.053 81.376 230.438 83.0823 227.979 84.9934C227.721 85.1991 227.484 85.4087 227.264 85.6159L230.583 81.4089C232.324 80.2499 233.964 79.3396 235.109 78.6954C235.695 78.356 236.183 78.0908 236.444 77.9096C237.454 77.1943 238.649 76.78 239.888 76.7156C239.788 76.7975 239.713 76.905 239.671 77.0262C239.629 77.1474 239.621 77.2777 239.649 77.4028C239.677 77.5279 239.739 77.6429 239.828 77.7352C239.917 77.8276 240.031 77.8937 240.156 77.9264Z" fill="#07005A"/>
<path d="M239.976 82.2516C240.007 82.198 240.045 82.1493 240.09 82.107C240.047 82.1713 240 82.2331 239.95 82.2921L239.976 82.2516Z" fill="#07005A"/>
<path d="M239.59 82.7343C239.718 82.5938 239.839 82.4462 239.95 82.2921C239.72 82.6945 239.439 83.0656 239.112 83.3961C238.759 83.7619 238.434 84.1531 238.139 84.5666C237.751 85.1749 237.583 85.8948 237.661 86.6089C237.098 87.1065 236.497 87.5608 235.863 87.9677C236.5 88.4104 237.098 88.9048 237.652 89.4458C239.165 90.8171 240.119 92.6906 240.333 94.7133C240.603 99.3191 237.265 101.016 237.122 101.083C236.957 101.164 236.767 101.176 236.593 101.118C236.419 101.059 236.276 100.935 236.196 100.771C236.115 100.608 236.103 100.419 236.162 100.247C236.222 100.075 236.348 99.9329 236.513 99.8524C236.613 99.7966 239.162 98.47 238.943 94.7968C238.712 90.9759 234.172 88.5112 234.131 88.4851C234.011 88.4228 233.912 88.3264 233.847 88.2081C233.782 88.0898 233.755 87.955 233.767 87.8209C233.778 87.6861 233.828 87.5573 233.912 87.4507C233.997 87.3441 234.111 87.2645 234.24 87.2218C235.384 86.8761 237.483 85.1011 239.59 82.7343Z" fill="#07005A"/>
<path d="M237.875 87.7333C238.038 88.2673 238.312 88.7611 238.68 89.1828L237.67 89.4436C237.117 88.9026 236.518 88.4083 235.882 87.9656C236.515 87.5586 237.116 87.1044 237.68 86.6068C237.697 86.989 237.762 87.3675 237.875 87.7333Z" fill="white"/>
<path d="M230.583 81.4151L227.264 85.6222C226.85 86.0273 226.471 86.4671 226.133 86.9365C226.075 86.9633 226.014 86.9814 225.951 86.9899C225.86 87.0021 225.768 86.9958 225.679 86.9714C225.591 86.9469 225.509 86.9049 225.438 86.8477C225.294 86.735 225.202 86.5711 225.18 86.3912C225.158 86.2113 225.208 86.0298 225.319 85.8859L226.232 84.7291C226.509 84.457 226.8 84.1992 227.104 83.9567C228.272 82.9862 229.465 82.1743 230.583 81.4151Z" fill="#07005A"/>
<path d="M227.264 85.6159L226.411 86.6969C226.339 86.7918 226.242 86.8643 226.129 86.9057C226.47 86.4446 226.85 86.0131 227.264 85.6159Z" fill="#07005A"/>
<path d="M226.229 84.6985L225.31 85.856C225.198 86 225.148 86.1814 225.17 86.3613C225.192 86.5412 225.285 86.7052 225.428 86.8178C225.499 86.875 225.581 86.9171 225.67 86.9415C225.758 86.966 225.85 86.9723 225.941 86.96C226.004 86.9515 226.065 86.9335 226.123 86.9066C224.507 89.0825 224.18 91.5354 223.829 94.097C223.766 94.6023 223.695 95.0961 223.618 95.5967C223.229 98.0013 221.29 101.23 219.734 103.536C219.536 103.836 219.365 104.152 219.223 104.482C219.248 104.393 219.255 104.3 219.244 104.209C219.232 104.117 219.203 104.029 219.157 103.949C219.116 103.868 219.06 103.797 218.991 103.739C218.922 103.68 218.842 103.636 218.756 103.608C218.67 103.581 218.579 103.57 218.488 103.578C218.398 103.585 218.31 103.611 218.229 103.652C218.229 103.652 218.146 103.694 218.02 103.74C218.177 103.402 218.361 103.078 218.573 102.771C220.664 99.7092 221.963 97.0935 222.233 95.4123C222.311 94.9239 222.376 94.4309 222.448 93.9371C222.903 90.747 223.362 87.4757 226.229 84.6985Z" fill="#07005A"/>
<path d="M224.879 115.534C225.061 116.106 225.071 116.718 224.907 117.296C224.637 117.977 224.189 118.575 223.609 119.029C223.029 119.482 222.339 119.776 221.608 119.878C220.598 119.974 219.583 119.769 218.692 119.291C216.578 118.232 214.053 115.507 213.271 110.927C212.746 107.777 212.996 105.725 214.027 104.665C214.354 104.352 214.752 104.121 215.187 103.991C215.623 103.862 216.083 103.839 216.529 103.923C217.031 103.975 217.539 103.912 218.013 103.741C217.773 104.233 217.594 104.752 217.481 105.286C217.111 105.348 216.733 105.356 216.36 105.312C216.128 105.252 215.884 105.251 215.651 105.309C215.418 105.367 215.203 105.482 215.026 105.643C214.643 106.045 214.068 107.241 214.645 110.721C215.313 114.774 217.485 117.182 219.316 118.082C219.75 118.345 220.241 118.502 220.749 118.538C221.257 118.574 221.767 118.489 222.235 118.29C222.537 118.17 222.811 117.989 223.04 117.76C223.269 117.531 223.448 117.258 223.566 116.957C223.651 116.633 223.646 116.292 223.551 115.97C223.668 115.985 223.786 115.986 223.903 115.971C224.028 115.954 224.151 115.922 224.268 115.876C224.481 115.779 224.685 115.664 224.879 115.534Z" fill="#07005A"/>
<path d="M224.596 114.86C224.719 115.072 224.814 115.298 224.879 115.534C224.692 115.654 224.495 115.759 224.29 115.849C224.173 115.895 224.05 115.927 223.925 115.943C223.809 115.958 223.69 115.958 223.574 115.943C223.537 115.811 223.485 115.684 223.42 115.564C223.329 115.406 223.304 115.218 223.35 115.042C223.397 114.865 223.511 114.713 223.669 114.619L223.764 114.576L223.807 114.571C223.952 114.526 224.109 114.53 224.251 114.583C224.394 114.635 224.515 114.732 224.596 114.86Z" fill="#07005A"/>
<path d="M223.746 114.591L223.651 114.634C223.493 114.728 223.379 114.88 223.332 115.056C223.286 115.233 223.311 115.42 223.403 115.578C223.468 115.699 223.519 115.826 223.556 115.957C221.77 115.779 219.356 112.835 217.942 109.707C217.319 108.314 217.166 106.759 217.504 105.271C217.976 105.203 218.435 105.065 218.866 104.861C219.029 104.78 219.154 104.64 219.214 104.47C218.885 105.206 218.715 106.002 218.713 106.806C218.711 107.61 218.878 108.406 219.204 109.142C220.834 112.759 223.178 114.723 223.727 114.593L223.746 114.591Z" fill="#07005A"/>
<path d="M223.554 115.945C223.649 116.267 223.654 116.608 223.569 116.932C223.451 117.233 223.272 117.506 223.043 117.735C222.814 117.964 222.54 118.145 222.238 118.265C221.77 118.464 221.26 118.549 220.752 118.513C220.244 118.476 219.753 118.32 219.319 118.057C217.507 117.154 215.334 114.747 214.648 110.696C214.07 107.216 214.645 106.02 215.029 105.618C215.206 105.457 215.421 105.342 215.654 105.284C215.887 105.226 216.131 105.227 216.363 105.287C216.736 105.331 217.113 105.323 217.484 105.261C217.145 106.749 217.299 108.304 217.922 109.697C219.354 112.823 221.768 115.767 223.554 115.945Z" fill="#476FF5"/>
<path d="M219.172 103.922C219.215 104.002 219.241 104.09 219.248 104.181C219.256 104.272 219.245 104.363 219.217 104.449C219.188 104.536 219.142 104.616 219.082 104.684C219.022 104.753 218.948 104.809 218.865 104.849C218.435 105.053 217.975 105.191 217.503 105.259C217.617 104.724 217.795 104.205 218.035 103.713C218.165 103.697 218.244 103.625 218.244 103.625C218.325 103.584 218.413 103.559 218.503 103.551C218.594 103.543 218.685 103.554 218.771 103.581C218.858 103.609 218.938 103.653 219.006 103.712C219.075 103.77 219.132 103.842 219.172 103.922Z" fill="#07005A"/>
<path d="M89.5782 88.5629C89.3297 88.8733 89.1538 89.2346 89.0629 89.6209C88.9721 90.0071 88.9686 90.4088 89.0527 90.797C89.3114 92.3721 90.4968 94.5313 91.963 96.1361C91.9425 95.9937 91.9658 95.8485 92.0298 95.7196C92.0938 95.5906 92.1956 95.4839 92.3218 95.4133C92.4587 95.3405 92.6161 95.3147 92.7696 95.3399C92.9231 95.3652 93.064 95.4401 93.1703 95.5529L93.2601 95.4676C91.8571 94.0545 90.6309 91.9512 90.4047 90.5629C90.3554 90.367 90.3501 90.1629 90.3892 89.965C90.4283 89.7672 90.5109 89.5804 90.631 89.4179C90.9859 89.0636 91.4496 88.8363 91.9497 88.7717C91.6566 88.3784 91.3844 87.9703 91.1342 87.5491C90.5268 87.7299 89.9862 88.0821 89.5782 88.5629Z" fill="#07005A"/>
<path d="M92.0835 81.6752C91.3799 82.2442 90.867 83.0113 90.612 83.8758C90.3571 84.7403 90.3721 85.6618 90.655 86.5193C90.8007 86.8835 90.9773 87.2349 91.1831 87.5695C91.5167 87.4651 91.8622 87.4022 92.2116 87.3822C92.3336 87.3776 92.4547 87.4048 92.5628 87.461C92.671 87.5172 92.7626 87.6005 92.8283 87.7026L92.8855 87.662C92.5154 87.1597 92.2042 86.6175 91.958 86.0457C91.7889 85.4678 91.7904 84.8546 91.9624 84.2786C92.1344 83.7027 92.4696 83.1882 92.9283 82.7963C93.6862 82.2579 94.8449 82.6612 95.1474 82.7798C94.9712 82.3746 94.8289 81.9558 94.722 81.5276C94.6935 81.425 94.6705 81.321 94.6533 81.216C94.2154 81.1159 93.7618 81.105 93.32 81.1839C92.8783 81.2628 92.4576 81.43 92.0835 81.6752Z" fill="#07005A"/>
<path d="M90.6546 89.4342C90.5345 89.5967 90.452 89.7835 90.4129 89.9814C90.3738 90.1792 90.3791 90.3833 90.4284 90.5792C90.6546 91.9675 91.8808 94.0709 93.2838 95.4839C93.8098 96.053 94.4447 96.5126 95.1514 96.8359C96.337 97.3062 96.9041 97.2368 97.1606 97.0976C97.3205 96.971 97.4509 96.8115 97.5428 96.6302C97.6348 96.4489 97.6861 96.2499 97.6934 96.0469C97.8778 94.9263 96.7142 93.7089 96.0193 92.9816C95.8481 92.8131 95.6877 92.6342 95.5391 92.446C95.411 92.3723 95.2873 92.2914 95.1685 92.2036C93.9455 91.2096 92.8607 90.0593 91.9426 88.7829C91.4529 88.8554 91.0007 89.084 90.6546 89.4342Z" fill="white"/>
<path d="M96.9674 62.7688C96.3956 62.9428 95.8888 63.28 95.5102 63.7383C95.1315 64.1967 94.8979 64.7558 94.8384 65.3459C94.5047 67.374 97.9324 72.2165 100.45 75.1453C101.22 75.3589 101.974 75.6293 102.704 75.954C102.795 75.9967 102.875 76.0591 102.939 76.1366C103.05 76.1245 103.163 76.122 103.275 76.1293C99.9657 73.2141 96.014 66.7591 96.2074 65.5837C96.2279 65.263 96.3404 64.9551 96.5318 64.6962C96.7232 64.4373 96.9855 64.2383 97.2877 64.1226C97.9896 63.9629 100.075 64.2246 104.341 70.1121L112.38 81.1991C113.472 82.0044 114.63 82.8705 115.732 83.8524C116.036 84.1151 116.313 84.386 116.578 84.6609L105.471 69.3035C101.972 64.4743 99.1131 62.2774 96.9674 62.7688Z" fill="#07005A"/>
<path d="M92.9027 82.7921C92.444 83.184 92.1088 83.6985 91.9368 84.2744C91.7648 84.8504 91.7633 85.4636 91.9323 86.0414C92.1786 86.6133 92.4897 87.1555 92.8598 87.6578C93.7414 88.934 94.7921 90.0873 95.9834 91.0866C96.1288 91.1948 96.2814 91.293 96.4401 91.3807C97.337 91.8786 98.4376 92.0972 99.1148 91.3204C99.792 90.5436 99.4726 88.8772 98.5185 87.538C97.0781 86.1897 95.9232 84.5706 95.1218 82.7756C94.8081 82.6865 93.6606 82.2537 92.9027 82.7921Z" fill="white"/>
<path d="M91.1574 87.5655C91.4076 87.9867 91.6798 88.3948 91.9729 88.788L92.2564 88.7534C92.3471 88.749 92.436 88.727 92.518 88.6885C92.6 88.6501 92.6735 88.596 92.7343 88.5293C92.7951 88.4626 92.842 88.3847 92.8724 88.3C92.9028 88.2152 92.916 88.1254 92.9113 88.0355C92.9089 87.9151 92.8711 87.798 92.8025 87.6985C92.7368 87.5964 92.6453 87.5131 92.5371 87.4569C92.4289 87.4007 92.3078 87.3735 92.1859 87.3782C91.8364 87.3981 91.4909 87.4611 91.1574 87.5655Z" fill="#07005A"/>
<path d="M92.2569 88.7533L91.9733 88.7879C92.8914 90.0643 93.9762 91.2146 95.1992 92.2086C95.3179 92.2964 95.4417 92.3773 95.5698 92.451L95.5266 92.4064C95.431 92.2763 95.384 92.1175 95.3937 91.9572C95.4033 91.7968 95.469 91.645 95.5794 91.5278C95.6899 91.4105 95.8382 91.3351 95.9989 91.3146C96.1596 91.2941 96.3226 91.3297 96.46 91.4152L96.4651 91.3848C96.3063 91.2971 96.1537 91.1988 96.0083 91.0907C94.817 90.0914 93.7664 88.9381 92.8848 87.6619L92.8276 87.7025C92.8961 87.802 92.9339 87.9191 92.9363 88.0394C92.9405 88.131 92.926 88.2224 92.8939 88.3082C92.8618 88.394 92.8126 88.4725 92.7492 88.5391C92.6859 88.6056 92.6096 88.6589 92.5251 88.6957C92.4405 88.7325 92.3493 88.7521 92.2569 88.7533Z" fill="#07005A"/>
<path d="M97.2901 64.1106C96.9879 64.2263 96.7256 64.4253 96.5342 64.6842C96.3428 64.9431 96.2303 65.251 96.2098 65.5717C96.0094 66.7898 100.003 73.2204 103.277 76.1173C104.512 76.2323 105.689 76.6951 106.67 77.4511C106.923 77.6367 107.388 77.9197 107.971 78.2908C109.12 78.9864 110.66 79.9843 112.382 81.1871L104.325 70.097C100.077 64.2126 97.992 63.9509 97.2901 64.1106Z" fill="white"/>
<path d="M92.3474 95.4174C92.2212 95.488 92.1194 95.5948 92.0554 95.7237C91.9914 95.8526 91.9681 95.9978 91.9886 96.1403C92.7194 96.9756 93.6202 97.6483 94.6316 98.114L94.9413 98.2275C94.3438 97.4162 93.791 96.5735 93.2855 95.7032C93.2603 95.6501 93.2281 95.6007 93.1897 95.556C93.0837 95.4447 92.9439 95.3709 92.7918 95.3459C92.6396 95.3208 92.4835 95.346 92.3474 95.4174Z" fill="#07005A"/>
<path d="M91.9883 96.1404C91.9985 96.2162 92.0253 96.2889 92.0669 96.3535C92.2648 96.7238 97.0912 105.5 106.368 109.484C112.725 112.219 114.616 113.819 115.739 114.779C116.036 115.049 116.352 115.297 116.684 115.523C116.763 115.291 116.867 115.069 116.995 114.861C117.087 114.732 117.22 114.638 117.373 114.595C117.526 114.552 117.689 114.562 117.836 114.624C117.41 114.385 117.014 114.095 116.658 113.761C115.473 112.753 113.484 111.062 106.932 108.245C101.104 105.747 97.0468 101.126 94.9555 98.2549L94.6458 98.1414C93.6266 97.6696 92.7205 96.9873 91.9883 96.1404Z" fill="#07005A"/>
<path d="M96.8234 75.0803C94.8338 75.9665 94.152 78.8818 94.6213 81.2109C95.036 81.2803 95.4404 81.4015 95.8248 81.5715C95.9097 81.6124 95.9855 81.6698 96.0477 81.7402C96.1098 81.8106 96.1571 81.8926 96.1868 81.9814L96.3023 81.9316C96.2075 81.693 96.1296 81.4482 96.0693 81.1989C95.6152 79.3915 96.102 76.932 97.425 76.3365C98.29 75.9534 100.08 76.398 101.388 76.8885L101.435 76.8337C101.535 76.735 101.643 76.644 101.758 76.5615C101.386 76.175 100.946 75.7023 100.481 75.1504C99.2526 74.8233 97.8326 74.6271 96.8234 75.0803Z" fill="#07005A"/>
<path d="M94.6221 81.211C94.6393 81.316 94.6622 81.42 94.6908 81.5225C94.7977 81.9507 94.94 82.3695 95.1162 82.7748L95.2023 82.7889C95.3679 82.8664 95.5575 82.8758 95.7296 82.815C95.9018 82.7542 96.0424 82.6282 96.1207 82.4647C96.1976 82.3063 96.2095 82.1244 96.1537 81.9572C96.1241 81.8684 96.0767 81.7864 96.0146 81.716C95.9524 81.6456 95.8766 81.5882 95.7917 81.5473C95.417 81.3883 95.0242 81.2754 94.6221 81.211Z" fill="#07005A"/>
<path d="M95.2049 82.8081L95.1188 82.7939C95.9202 84.5889 97.075 86.2081 98.5154 87.5563L98.4784 87.5127C98.3797 87.3753 98.3349 87.207 98.3523 87.0396C98.3698 86.8721 98.4484 86.7168 98.5733 86.603C98.6982 86.4892 98.8609 86.4246 99.0308 86.4214C99.2007 86.4181 99.3662 86.4765 99.4961 86.5855C98.098 85.2846 96.9974 83.702 96.2689 81.9448L96.1533 81.9946C96.2091 82.1618 96.1973 82.3438 96.1203 82.5021C96.0387 82.6617 95.8972 82.7831 95.7261 82.8403C95.555 82.8975 95.3679 82.8859 95.2049 82.8081Z" fill="#07005A"/>
<path d="M93.2828 95.4839L93.1888 95.5561C93.2247 95.5968 93.2555 95.6418 93.2804 95.69C93.786 96.5604 94.3387 97.403 94.9363 98.2143C95.2924 98.3491 95.6607 98.4496 96.0362 98.5141C96.6473 98.6448 97.2845 98.5642 97.8418 98.2858C98.1904 98.0659 98.482 97.7682 98.6934 97.4163C98.9048 97.0644 99.0301 96.6682 99.0593 96.2593C99.1117 95.7071 99.049 95.1498 98.8752 94.6219C98.7013 94.094 98.42 93.6068 98.0487 93.1906C97.8084 93.1965 97.568 93.18 97.3307 93.1412C96.6973 93.024 96.093 92.7843 95.5524 92.4358C95.701 92.6241 95.8614 92.803 96.0325 92.9714C96.7254 93.711 97.8911 94.9161 97.7067 96.0367C97.6994 96.2397 97.648 96.4387 97.5561 96.62C97.4641 96.8014 97.3338 96.9608 97.1739 97.0875C96.9173 97.2267 96.3626 97.298 95.1647 96.8257C94.4538 96.507 93.8139 96.0508 93.2828 95.4839Z" fill="#07005A"/>
<path d="M97.3945 76.3316C96.0715 76.9271 95.5847 79.3866 96.0388 81.194C96.0991 81.4432 96.177 81.6881 96.2718 81.9266C97.0003 83.6838 98.1009 85.2664 99.499 86.5673L99.5359 86.5734C100.751 87.5927 101.959 88.0792 102.696 87.8626C103.097 87.6025 103.387 87.205 103.511 86.7458C103.65 86.4396 103.722 86.1076 103.723 85.7716C103.724 85.4355 103.653 85.1028 103.516 84.795C103.272 84.4177 103 84.0592 102.701 83.7226C102.347 83.3283 102.041 82.8937 101.79 82.4281C100.15 80.0753 100.36 77.958 101.338 76.8867C100.049 76.3931 98.2595 75.9485 97.3945 76.3316Z" fill="white"/>
<path d="M95.6545 91.433C95.5059 91.5416 95.4061 91.7036 95.3763 91.8845C95.3466 92.0653 95.3892 92.2508 95.4952 92.4013L95.5384 92.446C96.079 92.7944 96.6833 93.0342 97.3167 93.1514C97.554 93.1901 97.7944 93.2067 98.0347 93.2007C97.7162 92.7949 97.3753 92.4068 97.0136 92.0381C96.8708 91.8955 96.7352 91.7458 96.6075 91.5898C96.5548 91.5164 96.4877 91.4543 96.4102 91.4072C96.2942 91.3412 96.1619 91.3086 96.0283 91.3132C95.8948 91.3177 95.7653 91.3592 95.6545 91.433Z" fill="#07005A"/>
<path d="M96.4409 91.3809L96.4359 91.4114C96.5134 91.4585 96.5805 91.5206 96.6332 91.594C96.7609 91.75 96.8965 91.8997 97.0393 92.0423C97.401 92.411 97.7419 92.7991 98.0604 93.2049C98.462 93.1995 98.8577 93.11 99.2215 92.9424C99.5853 92.7749 99.9091 92.5329 100.172 92.2325C100.52 91.7637 100.747 91.2179 100.836 90.6419C100.924 90.066 100.87 89.477 100.678 88.9255C99.9281 88.5895 99.2308 88.1482 98.6076 87.6153L98.5254 87.5392C99.4785 88.8845 99.7572 90.6067 99.1217 91.3216C98.4863 92.0365 97.3408 91.8605 96.4409 91.3809Z" fill="#07005A"/>
<path d="M96.0409 98.5273C95.6654 98.4628 95.2971 98.3624 94.9409 98.2275C97.0362 101.074 101.09 105.72 106.918 108.217C113.47 111.034 115.454 112.749 116.644 113.733C117.003 114.078 117.403 114.377 117.836 114.624L117.873 114.63C118.416 114.782 120.839 112.916 122.622 109.369C122.976 108.646 123.174 107.859 123.206 107.055C123.237 106.252 123.1 105.45 122.803 104.701C122.676 104.365 122.518 104.042 122.33 103.735C120.866 101.392 119.06 98.0865 118.78 95.6447C118.718 95.1403 118.673 94.645 118.624 94.1365C118.366 91.5607 118.122 89.0935 116.627 86.8583C116.516 86.8124 116.421 86.736 116.353 86.6382L115.546 85.5233C115.335 85.3072 115.106 85.0881 114.863 84.873C112.481 82.8635 109.937 81.0514 107.255 79.4553C106.625 79.0639 106.173 78.7769 105.88 78.5659C105.116 78.0274 103.849 77.3998 103.003 77.5109C102.789 77.5291 102.588 77.6224 102.436 77.7741C101.918 78.3143 101.678 79.6948 102.872 81.4927C102.917 81.5356 102.954 81.5862 102.98 81.6418L103.005 81.6834C103.106 81.8376 103.226 81.9888 103.347 82.1399C105.356 84.591 107.38 86.4503 108.505 86.8668C108.63 86.9154 108.739 86.999 108.818 87.1076C108.897 87.2161 108.943 87.3448 108.95 87.4783C108.956 87.6117 108.924 87.7441 108.856 87.8595C108.789 87.9749 108.689 88.0683 108.569 88.1284C108.526 88.1213 103.884 90.4288 103.497 94.2371C103.134 97.8993 105.627 99.329 105.725 99.3888C105.886 99.4768 106.006 99.6245 106.057 99.7996C106.109 99.9747 106.089 100.163 106 100.322C105.912 100.482 105.763 100.6 105.587 100.651C105.41 100.702 105.221 100.681 105.059 100.593C104.92 100.52 101.653 98.6877 102.112 94.0968C102.41 92.0841 103.442 90.2514 105.012 88.9443L104.007 88.6414C103.764 88.9001 103.459 89.093 103.119 89.2021C102.687 89.3257 102.232 89.3493 101.788 89.2709C101.408 89.207 101.038 89.0936 100.688 88.9335C100.88 89.485 100.934 90.074 100.846 90.6499C100.758 91.2259 100.53 91.7717 100.182 92.2405C99.9195 92.5409 99.5957 92.7829 99.2319 92.9504C98.8681 93.118 98.4724 93.2075 98.0708 93.2129C98.4422 93.6292 98.7235 94.1164 98.8973 94.6442C99.0711 95.1721 99.1338 95.7294 99.0814 96.2816C99.0522 96.6906 98.9269 97.0868 98.7155 97.4387C98.5041 97.7905 98.2125 98.0883 97.8639 98.3081C97.3006 98.5874 96.6565 98.6649 96.0409 98.5273Z" fill="white"/>
<path d="M98.6404 86.5322C98.4924 86.6399 98.3929 86.8009 98.3633 86.9807C98.3337 87.1606 98.3763 87.345 98.4821 87.4945L98.5191 87.5381L98.6013 87.6142C99.2246 88.1471 99.9219 88.5884 100.672 88.9243C100.459 88.1241 100.102 87.3682 99.618 86.693L99.5336 86.5916L99.4968 86.5855C99.3801 86.4834 99.2325 86.4227 99.0774 86.413C98.9223 86.4034 98.7685 86.4453 98.6404 86.5322Z" fill="#07005A"/>
<path d="M99.5332 86.5916L99.6176 86.693C100.101 87.3682 100.458 88.1241 100.671 88.9243C101.021 89.0844 101.391 89.1979 101.771 89.2617C102.215 89.3401 102.67 89.3166 103.102 89.193C103.442 89.0839 103.747 88.8909 103.99 88.6323C104.375 88.2259 104.67 87.7438 104.855 87.2169C104.988 86.8578 105.075 86.4834 105.114 86.1024C104.101 85.1327 103.151 84.101 102.269 83.0134C102.112 82.8261 101.965 82.6307 101.829 82.428C102.079 82.8936 102.385 83.3282 102.739 83.7226C103.038 84.0591 103.311 84.4176 103.554 84.795C103.692 85.1027 103.762 85.4354 103.761 85.7715C103.76 86.1076 103.688 86.4395 103.549 86.7457C103.425 87.2049 103.135 87.6025 102.734 87.8626C101.956 88.0975 100.748 87.611 99.5332 86.5916Z" fill="#07005A"/>
<path d="M101.357 76.8835C100.376 77.973 100.2 80.0771 101.81 82.4249C101.778 82.3799 101.752 82.3316 101.732 82.2808C101.648 82.1189 101.631 81.9306 101.685 81.7569C101.74 81.5832 101.862 81.438 102.024 81.353C102.158 81.2811 102.312 81.2556 102.462 81.2803C102.612 81.305 102.75 81.3786 102.854 81.4895C101.659 79.6917 101.9 78.3051 102.417 77.771C102.569 77.6192 102.77 77.526 102.985 77.5078L102.961 77.3099C102.807 77.3316 102.65 77.3058 102.512 77.236C102.381 77.2521 102.249 77.2303 102.131 77.1733C101.908 77.1054 101.642 76.9929 101.357 76.8835Z" fill="#07005A"/>
<path d="M101.405 76.8286L101.358 76.8835C101.643 76.9929 101.902 77.1044 102.126 77.2038C102.244 77.2608 102.377 77.2826 102.507 77.2665C102.451 77.2402 102.4 77.2065 102.353 77.1661C102.171 77.0048 101.959 76.8009 101.726 76.5625C101.613 76.6431 101.505 76.732 101.405 76.8286Z" fill="#07005A"/>
<path d="M100.45 75.1454C100.915 75.6973 101.355 76.17 101.727 76.5565C102.083 76.3045 102.503 76.1569 102.94 76.1306C102.877 76.0531 102.796 75.9907 102.705 75.948C101.974 75.6253 101.221 75.357 100.45 75.1454Z" fill="#07005A"/>
<path d="M101.727 76.5564C101.959 76.7948 102.172 76.9987 102.354 77.16C102.4 77.2003 102.452 77.2341 102.508 77.2604C102.631 77.2441 102.747 77.1951 102.845 77.1188C102.942 77.0424 103.016 76.9414 103.061 76.8264C103.105 76.7114 103.117 76.5866 103.095 76.4652C103.074 76.3439 103.02 76.2303 102.939 76.1366C102.503 76.1614 102.083 76.3068 101.727 76.5564Z" fill="#07005A"/>
<path d="M102.021 81.3713C101.859 81.4564 101.737 81.6015 101.682 81.7752C101.628 81.9489 101.645 82.1372 101.729 82.2991C101.749 82.3499 101.775 82.3982 101.807 82.4432C101.943 82.6459 102.09 82.8413 102.247 83.0286C103.129 84.1162 104.079 85.1479 105.092 86.1176C105.202 85.4072 105.063 84.6802 104.698 84.0574C104.422 83.6329 104.115 83.229 103.779 82.8491C103.465 82.5056 103.196 82.1229 102.982 81.7108C102.934 81.6497 102.889 81.586 102.849 81.52C102.747 81.4076 102.61 81.332 102.46 81.305C102.31 81.2781 102.156 81.3014 102.021 81.3713Z" fill="#07005A"/>
<path d="M102.514 77.2615C102.653 77.3313 102.81 77.3571 102.963 77.3354C103.091 77.3099 103.209 77.2495 103.303 77.161C103.398 77.0726 103.465 76.9596 103.498 76.8348C103.531 76.7101 103.528 76.5786 103.49 76.4552C103.451 76.3317 103.379 76.2214 103.28 76.1365C103.168 76.1293 103.056 76.1317 102.945 76.1438C103.026 76.2375 103.079 76.3511 103.101 76.4725C103.122 76.5939 103.11 76.7186 103.066 76.8336C103.022 76.9486 102.947 77.0496 102.85 77.126C102.753 77.2024 102.637 77.2513 102.513 77.2676L102.514 77.2615Z" fill="#07005A"/>
<path d="M102.959 77.3222L102.983 77.5201C103.829 77.409 105.096 78.0365 105.86 78.5751C106.153 78.786 106.605 79.073 107.235 79.4644C109.916 81.0606 112.461 82.8726 114.843 84.8822C115.086 85.0972 115.315 85.3163 115.525 85.5324L112.38 81.1992C110.688 79.97 109.087 78.9935 107.969 78.3029C107.398 77.9399 106.92 77.6549 106.668 77.4633C105.688 76.7072 104.51 76.2444 103.275 76.1294C103.374 76.2143 103.446 76.3247 103.485 76.4481C103.523 76.5715 103.526 76.703 103.493 76.8277C103.46 76.9525 103.392 77.0655 103.298 77.1539C103.203 77.2424 103.086 77.3028 102.958 77.3283L102.959 77.3222Z" fill="#07005A"/>
<path d="M102.961 81.651C102.934 81.5953 102.897 81.5448 102.853 81.5018C102.893 81.5678 102.937 81.6315 102.985 81.6926L102.961 81.651Z" fill="#07005A"/>
<path d="M103.327 82.149C103.207 81.9979 103.086 81.8467 102.985 81.6925C103.2 82.1046 103.468 82.4873 103.783 82.8309C104.119 83.2108 104.426 83.6146 104.702 84.0392C105.067 84.6619 105.205 85.3889 105.095 86.0993C105.639 86.6184 106.221 87.0968 106.836 87.5305C106.183 87.9455 105.567 88.4155 104.995 88.9351C103.425 90.2422 102.394 92.0749 102.095 94.0876C101.637 98.6785 104.903 100.511 105.042 100.584C105.204 100.672 105.393 100.693 105.57 100.642C105.746 100.591 105.895 100.473 105.983 100.313C106.072 100.154 106.092 99.9655 106.041 99.7904C105.989 99.6154 105.869 99.4676 105.708 99.3797C105.61 99.3198 103.118 97.8901 103.48 94.228C103.867 90.4196 108.504 88.1426 108.552 88.1192C108.672 88.0591 108.772 87.9657 108.84 87.8503C108.907 87.735 108.94 87.6026 108.933 87.4691C108.926 87.3357 108.88 87.2069 108.801 87.0984C108.723 86.9899 108.614 86.9063 108.488 86.8577C107.36 86.4594 105.336 84.6001 103.327 82.149Z" fill="#07005A"/>
<path d="M104.836 87.2138C104.651 87.7407 104.356 88.2228 103.971 88.6291L104.976 88.9321C105.548 88.4124 106.164 87.9424 106.817 87.5274C106.202 87.0937 105.62 86.6153 105.076 86.0962C105.044 86.4774 104.963 86.8529 104.836 87.2138Z" fill="white"/>
<path d="M112.38 81.1992L115.524 85.5385C115.922 85.9523 116.284 86.399 116.605 86.8736C116.662 86.9028 116.722 86.9233 116.785 86.9344C116.875 86.9503 116.968 86.9478 117.057 86.927C117.146 86.9062 117.23 86.8675 117.303 86.8133C117.378 86.7615 117.441 86.6955 117.489 86.6191C117.538 86.5427 117.57 86.4576 117.585 86.3685C117.599 86.2795 117.596 86.1884 117.575 86.1006C117.553 86.0128 117.515 85.93 117.461 85.8571L116.602 84.665C116.338 84.3901 116.061 84.1193 115.757 83.8566C114.626 82.8635 113.472 82.0045 112.38 81.1992Z" fill="#07005A"/>
<path d="M115.525 85.5323L116.333 86.6474C116.401 86.7451 116.496 86.8215 116.607 86.8675C116.285 86.3929 115.923 85.9462 115.525 85.5323Z" fill="#07005A"/>
<path d="M116.604 84.6588L117.462 85.8509C117.516 85.9238 117.554 86.0066 117.576 86.0944C117.597 86.1822 117.6 86.2733 117.586 86.3623C117.571 86.4514 117.539 86.5365 117.49 86.6129C117.442 86.6893 117.379 86.7553 117.305 86.8071C117.231 86.8613 117.147 86.9 117.058 86.9208C116.969 86.9416 116.876 86.9441 116.786 86.9282C116.723 86.9171 116.663 86.8966 116.606 86.8674C118.132 89.1075 118.358 91.5717 118.604 94.1455C118.653 94.654 118.698 95.1493 118.76 95.6537C119.044 98.0711 120.849 101.377 122.31 103.744C122.498 104.051 122.656 104.374 122.782 104.71C122.742 104.529 122.774 104.339 122.87 104.18C122.961 104.022 123.111 103.907 123.288 103.859C123.465 103.811 123.655 103.834 123.815 103.923C123.881 103.959 123.95 103.991 124.02 104.019C123.873 103.677 123.702 103.346 123.508 103.028C121.537 99.8825 120.347 97.2158 120.151 95.526C120.087 95.0338 120.042 94.5385 119.991 94.0423C119.672 90.8372 119.348 87.5499 116.604 84.6588Z" fill="#07005A"/>
<path d="M116.685 115.523C116.485 116.088 116.45 116.698 116.585 117.283C116.827 117.974 117.25 118.59 117.811 119.067C118.372 119.544 119.05 119.865 119.776 119.997C120.783 120.134 121.807 119.971 122.719 119.531C124.874 118.559 127.503 115.939 128.478 111.396C129.131 108.269 128.965 106.209 127.978 105.108C127.664 104.782 127.276 104.534 126.847 104.387C126.417 104.24 125.958 104.198 125.509 104.264C125.007 104.296 124.505 104.213 124.039 104.022C124.255 104.524 124.41 105.05 124.502 105.587C124.87 105.664 125.246 105.688 125.62 105.659C125.855 105.608 126.099 105.617 126.329 105.685C126.56 105.752 126.77 105.876 126.94 106.045C127.313 106.463 127.833 107.68 127.113 111.133C126.28 115.156 124.011 117.473 122.145 118.298C121.7 118.543 121.201 118.678 120.691 118.693C120.181 118.709 119.675 118.603 119.214 118.385C118.917 118.252 118.651 118.061 118.432 117.822C118.212 117.584 118.045 117.304 117.939 116.999C117.864 116.671 117.885 116.33 118 116.014C117.881 116.024 117.76 116.019 117.642 115.999C117.52 115.978 117.401 115.942 117.288 115.891C117.077 115.784 116.876 115.661 116.685 115.523Z" fill="#07005A"/>
<path d="M116.995 114.861C116.867 115.069 116.762 115.291 116.684 115.523C116.867 115.65 117.059 115.763 117.26 115.861C117.373 115.912 117.492 115.949 117.614 115.97C117.733 115.99 117.853 115.995 117.972 115.985C118.014 115.855 118.068 115.73 118.134 115.611C118.232 115.457 118.265 115.271 118.226 115.092C118.187 114.914 118.079 114.758 117.925 114.657L117.836 114.624L117.799 114.618C117.656 114.566 117.501 114.561 117.356 114.605C117.21 114.649 117.084 114.739 116.995 114.861Z" fill="#07005A"/>
<path d="M117.836 114.624L117.929 114.67C118.083 114.771 118.191 114.927 118.23 115.106C118.269 115.284 118.236 115.47 118.139 115.624C118.073 115.743 118.018 115.869 117.976 115.998C119.762 115.891 122.3 113.05 123.835 109.981C124.514 108.615 124.731 107.067 124.454 105.567C123.985 105.479 123.532 105.322 123.109 105.102C122.952 105.012 122.834 104.868 122.778 104.697C123.075 105.446 123.212 106.248 123.181 107.051C123.15 107.854 122.951 108.642 122.597 109.365C120.814 112.912 118.392 114.778 117.848 114.626L117.836 114.624Z" fill="#07005A"/>
<path d="M117.996 115.989C117.881 116.304 117.86 116.646 117.935 116.973C118.041 117.278 118.209 117.559 118.428 117.797C118.647 118.035 118.914 118.227 119.21 118.359C119.671 118.577 120.178 118.683 120.688 118.668C121.198 118.653 121.696 118.517 122.142 118.272C123.983 117.443 126.252 115.127 127.109 111.108C127.829 107.655 127.31 106.437 126.936 106.019C126.766 105.85 126.557 105.727 126.326 105.659C126.095 105.592 125.852 105.583 125.617 105.633C125.243 105.663 124.866 105.638 124.499 105.562C124.776 107.062 124.559 108.61 123.88 109.976C122.321 113.041 119.782 115.882 117.996 115.989Z" fill="#476FF5"/>
<path d="M122.861 104.154C122.765 104.313 122.734 104.502 122.774 104.684C122.83 104.855 122.948 104.999 123.105 105.088C123.528 105.309 123.981 105.466 124.45 105.554C124.358 105.016 124.202 104.491 123.987 103.989C123.917 103.961 123.848 103.929 123.782 103.892C123.624 103.811 123.44 103.793 123.269 103.841C123.097 103.89 122.952 104.002 122.861 104.154Z" fill="#07005A"/>
<path d="M307.208 45.6238H259.854C256.413 45.6238 253.623 48.3872 253.623 51.7959C253.623 55.2047 256.413 57.9681 259.854 57.9681H307.208C310.649 57.9681 313.438 55.2047 313.438 51.7959C313.438 48.3872 310.649 45.6238 307.208 45.6238Z" fill="#FFB8B8"/>
<path d="M307.208 58.5854H259.854C258.036 58.5854 256.293 57.87 255.007 56.5968C253.722 55.3235 253 53.5966 253 51.796C253 49.9953 253.722 48.2684 255.007 46.9952C256.293 45.7219 258.036 45.0066 259.854 45.0066H307.208C309.025 45.0066 310.769 45.7219 312.054 46.9952C313.339 48.2684 314.062 49.9953 314.062 51.796C314.062 53.5966 313.339 55.3235 312.054 56.5968C310.769 57.87 309.025 58.5854 307.208 58.5854ZM259.854 46.241C258.367 46.241 256.94 46.8263 255.889 47.868C254.837 48.9098 254.246 50.3227 254.246 51.796C254.246 53.2692 254.837 54.6822 255.889 55.7239C256.94 56.7657 258.367 57.3509 259.854 57.3509H307.208C308.695 57.3509 310.121 56.7657 311.173 55.7239C312.225 54.6822 312.815 53.2692 312.815 51.796C312.815 50.3227 312.225 48.9098 311.173 47.868C310.121 46.8263 308.695 46.241 307.208 46.241H259.854Z" fill="#07005A"/>
<path d="M304.093 54.2648C303.969 54.2655 303.848 54.2297 303.744 54.1619C303.641 54.0942 303.561 53.9975 303.513 53.8843C303.466 53.7711 303.454 53.6464 303.478 53.5262C303.502 53.406 303.562 53.2957 303.65 53.2094L307.389 49.5061C307.447 49.4482 307.515 49.4023 307.591 49.371C307.667 49.3396 307.749 49.3235 307.831 49.3235C307.913 49.3235 307.995 49.3396 308.071 49.371C308.147 49.4023 308.215 49.4482 308.273 49.5061C308.389 49.6217 308.455 49.7781 308.455 49.9412C308.455 50.1043 308.389 50.2607 308.273 50.3763L304.535 54.0796C304.477 54.138 304.408 54.1844 304.332 54.2161C304.257 54.2479 304.175 54.2645 304.093 54.2648Z" fill="#FF0000"/>
<path d="M307.831 54.2648C307.748 54.2645 307.667 54.2479 307.591 54.2161C307.515 54.1844 307.446 54.138 307.388 54.0796L303.65 50.3763C303.534 50.2607 303.469 50.1043 303.469 49.9412C303.469 49.7781 303.534 49.6217 303.65 49.5061C303.708 49.4482 303.777 49.4023 303.853 49.371C303.929 49.3396 304.01 49.3235 304.092 49.3235C304.175 49.3235 304.256 49.3396 304.332 49.371C304.408 49.4023 304.477 49.4482 304.535 49.5061L308.273 53.2094C308.361 53.2957 308.421 53.406 308.445 53.5262C308.47 53.6464 308.457 53.7711 308.41 53.8843C308.362 53.9975 308.282 54.0942 308.179 54.1619C308.076 54.2297 307.955 54.2655 307.831 54.2648Z" fill="#FF0000"/>
<path d="M85.2077 45.6238H37.8538C34.4127 45.6238 31.623 48.3872 31.623 51.7959C31.623 55.2047 34.4127 57.9681 37.8538 57.9681H85.2077C88.6488 57.9681 91.4384 55.2047 91.4384 51.7959C91.4384 48.3872 88.6488 45.6238 85.2077 45.6238Z" fill="#D6FFB6"/>
<path d="M85.2077 58.5854H37.8538C36.0361 58.5854 34.2928 57.87 33.0074 56.5968C31.7221 55.3235 31 53.5966 31 51.796C31 49.9953 31.7221 48.2684 33.0074 46.9952C34.2928 45.7219 36.0361 45.0066 37.8538 45.0066H85.2077C87.0254 45.0066 88.7687 45.7219 90.0541 46.9952C91.3394 48.2684 92.0615 49.9953 92.0615 51.796C92.0615 53.5966 91.3394 55.3235 90.0541 56.5968C88.7687 57.87 87.0254 58.5854 85.2077 58.5854ZM37.8538 46.241C36.3666 46.241 34.9403 46.8263 33.8886 47.868C32.837 48.9098 32.2462 50.3227 32.2462 51.796C32.2462 53.2692 32.837 54.6822 33.8886 55.7239C34.9403 56.7657 36.3666 57.3509 37.8538 57.3509H85.2077C86.6949 57.3509 88.1213 56.7657 89.1729 55.7239C90.2246 54.6822 90.8154 53.2692 90.8154 51.796C90.8154 50.3227 90.2246 48.9098 89.1729 47.868C88.1213 46.8263 86.6949 46.241 85.2077 46.241H37.8538Z" fill="#07005A"/>
<path d="M84.0734 54.8821C83.991 54.8818 83.9094 54.8652 83.8335 54.8335C83.7575 54.8017 83.6887 54.7553 83.631 54.6969L81.363 52.4503C81.3046 52.3929 81.2583 52.3246 81.2266 52.2494C81.195 52.1742 81.1787 52.0935 81.1787 52.0121C81.1787 51.9306 81.195 51.8499 81.2266 51.7747C81.2583 51.6995 81.3046 51.6312 81.363 51.5738C81.4798 51.4589 81.6377 51.3944 81.8023 51.3944C81.9669 51.3944 82.1248 51.4589 82.2416 51.5738L83.9612 53.228L85.9489 49.6296C85.988 49.5581 86.041 49.495 86.1048 49.4439C86.1686 49.3928 86.242 49.3547 86.3208 49.3317C86.3995 49.3088 86.482 49.3015 86.5636 49.3102C86.6452 49.319 86.7243 49.3436 86.7962 49.3827C86.8684 49.4215 86.9321 49.474 86.9837 49.5372C87.0353 49.6004 87.0738 49.6731 87.097 49.7511C87.1201 49.8291 87.1275 49.9109 87.1187 49.9917C87.1098 50.0725 87.0849 50.1508 87.0455 50.2221L84.6529 54.5426C84.6061 54.6271 84.5401 54.6996 84.46 54.7542C84.38 54.8089 84.2881 54.8442 84.1918 54.8574L84.0734 54.8821Z" fill="#33C169"/>
<path d="M5 110.507H332.5" stroke="#07005A" stroke-width="2" stroke-linecap="round"/>
<rect x="2" y="113" width="333" height="42" rx="3" fill="#F2F6FF" stroke="white" stroke-width="3"/>
</svg>
