<svg width="157" height="155" viewBox="0 0 157 155" fill="none" xmlns="http://www.w3.org/2000/svg">
<g clip-path="url(#clip0)">
<path d="M135.137 132.927L78.9038 97.1863L79.2977 43.6062L135.531 79.3474L135.137 132.927Z" fill="white"/>
<path d="M135.137 133.72C134.99 133.718 134.847 133.674 134.723 133.594L78.4821 97.8563C78.3687 97.7841 78.2756 97.6839 78.2115 97.5652C78.1473 97.4466 78.1144 97.3134 78.1158 97.1784L78.5097 43.6023C78.5084 43.4619 78.5443 43.3237 78.6135 43.2019C78.6827 43.08 78.7828 42.9788 78.9036 42.9086C79.0258 42.8432 79.1629 42.8113 79.3012 42.8162C79.4396 42.821 79.5741 42.8625 79.6915 42.9363L135.925 78.6775C136.037 78.7494 136.13 78.849 136.194 78.9668C136.258 79.0847 136.292 79.2171 136.291 79.3514L135.897 132.931C135.898 133.071 135.862 133.209 135.792 133.33C135.723 133.451 135.623 133.551 135.503 133.621C135.391 133.683 135.265 133.717 135.137 133.72ZM79.6915 96.7503L134.357 131.492L134.751 79.7796L80.0736 45.0374L79.6915 96.7503Z" fill="#7384C2"/>
<path d="M135.054 79.4702V132.927L76.0479 154.08V100.627L135.054 79.4702Z" fill="white"/>
<path d="M76.0476 154.873C75.8843 154.874 75.7246 154.824 75.5907 154.73C75.4878 154.657 75.404 154.559 75.3464 154.446C75.2888 154.333 75.2591 154.207 75.2598 154.08V100.627C75.2601 100.464 75.3107 100.304 75.4045 100.171C75.4982 100.037 75.6307 99.9364 75.7837 99.8817L134.79 78.7248C134.909 78.6823 135.036 78.6691 135.161 78.6863C135.286 78.7035 135.405 78.7505 135.508 78.8235C135.611 78.8965 135.695 78.9934 135.753 79.1058C135.811 79.2183 135.842 79.3432 135.842 79.47V132.927C135.842 133.091 135.791 133.25 135.697 133.383C135.604 133.517 135.471 133.618 135.318 133.672L76.3116 154.829C76.2267 154.859 76.1374 154.874 76.0476 154.873ZM76.8355 101.186V152.958L134.266 132.368V80.5959L76.8355 101.186Z" fill="#7384C2"/>
<path d="M78.7223 43.6694V97.1226L19.7158 118.28V64.8263L78.7223 43.6694Z" fill="#7384C2"/>
<path d="M19.7161 119.072C19.5523 119.073 19.3926 119.021 19.2591 118.926C19.1568 118.852 19.0733 118.756 19.0158 118.643C18.9582 118.531 18.9282 118.406 18.9282 118.28V64.8265C18.9278 64.6624 18.9779 64.5022 19.0718 64.368C19.1656 64.2338 19.2985 64.1322 19.4522 64.0772L78.4586 42.9203C78.5777 42.8777 78.7052 42.8646 78.8303 42.882C78.9555 42.8993 79.0746 42.9468 79.1778 43.0202C79.2809 43.0937 79.3649 43.191 79.4228 43.304C79.4807 43.417 79.5108 43.5424 79.5104 43.6696V97.1227C79.5101 97.2862 79.4595 97.4455 79.3658 97.5789C79.272 97.7123 79.1395 97.8133 78.9865 97.868L19.98 119.025C19.8954 119.056 19.8061 119.072 19.7161 119.072ZM20.5039 65.3854V117.154L77.9347 96.5638V44.7954L20.5039 65.3854Z" fill="#7384C2"/>
<path d="M75.6536 154.207L19.4204 118.466L19.8143 64.8857L76.0476 100.627L75.6536 154.207Z" fill="white"/>
<path d="M75.6539 155C75.5047 155 75.3585 154.957 75.2324 154.877L18.9992 119.136C18.8864 119.064 18.7936 118.964 18.7295 118.847C18.6654 118.729 18.6321 118.596 18.6328 118.462L19.0268 64.8819C19.0262 64.7422 19.0623 64.6048 19.1315 64.4837C19.2007 64.3626 19.3004 64.262 19.4207 64.1921C19.5425 64.1261 19.6795 64.0936 19.8178 64.0978C19.9561 64.1019 20.0909 64.1427 20.2085 64.2159L76.4418 99.9571C76.5551 100.029 76.6483 100.13 76.7124 100.248C76.7765 100.367 76.8095 100.5 76.8081 100.635L76.4142 154.211C76.4147 154.351 76.3786 154.488 76.3094 154.609C76.2402 154.73 76.1405 154.831 76.0203 154.901C75.9084 154.964 75.7824 154.998 75.6539 155ZM20.2085 118.03L74.8739 152.776L75.2679 101.063L20.5906 66.3209L20.2085 118.03Z" fill="#7384C2"/>
<path d="M78.7227 43.6695L100.668 38.0562L156.212 72.1482L135.054 79.4701L78.7227 43.6695Z" fill="white"/>
<path d="M135.054 80.263C134.905 80.2644 134.758 80.2217 134.633 80.1401L78.301 44.3395C78.1707 44.2566 78.0674 44.1371 78.004 43.9957C77.9405 43.8544 77.9196 43.6974 77.944 43.5442C77.9683 43.391 78.0367 43.2484 78.1408 43.134C78.2449 43.0195 78.38 42.9384 78.5295 42.9005L100.471 37.2872C100.573 37.2608 100.68 37.2552 100.784 37.2709C100.888 37.2866 100.988 37.3231 101.078 37.3783L156.622 71.4704C156.754 71.5461 156.861 71.6587 156.931 71.7944C157.001 71.9301 157.03 72.0833 157.016 72.2355C156.999 72.3849 156.941 72.5264 156.847 72.6436C156.754 72.7608 156.629 72.8489 156.488 72.8975L135.33 80.2194C135.242 80.2521 135.148 80.2669 135.054 80.263ZM80.6921 44.0025L135.153 78.6179L154.369 71.9659L100.538 38.9085L80.6921 44.0025Z" fill="#7384C2"/>
<path d="M76.0479 100.627L85.3052 125.269L147.152 102.673L135.054 79.4702L76.0479 100.627Z" fill="white"/>
<path d="M85.305 126.061C85.1452 126.061 84.9891 126.013 84.8575 125.921C84.726 125.83 84.6251 125.7 84.5684 125.55L75.3111 100.909C75.2704 100.811 75.2495 100.707 75.2495 100.601C75.2495 100.496 75.2704 100.391 75.3111 100.294C75.4042 100.107 75.567 99.9645 75.7641 99.8977L134.771 78.7408C134.949 78.6768 135.144 78.6797 135.321 78.7488C135.497 78.818 135.643 78.9489 135.732 79.1174L147.829 102.32C147.881 102.42 147.911 102.53 147.917 102.643C147.923 102.756 147.905 102.869 147.865 102.974C147.824 103.08 147.762 103.175 147.682 103.255C147.602 103.334 147.505 103.395 147.4 103.434L85.5532 126.03C85.4726 126.053 85.3889 126.064 85.305 126.061ZM77.068 101.087L85.7659 124.242L146.037 102.221L134.676 80.4177L77.068 101.087Z" fill="#7384C2"/>
<path d="M78.7227 43.6695L59.1602 38.0562L4.35693 58.7651L19.8147 64.8858L78.7227 43.6695Z" fill="white"/>
<path d="M19.8148 65.6786C19.7149 65.6797 19.6158 65.6609 19.5233 65.6231L4.06948 59.5024C3.92 59.4453 3.7913 59.3438 3.70049 59.2114C3.60967 59.079 3.56104 58.922 3.56104 58.7611C3.56104 58.6002 3.60967 58.4431 3.70049 58.3107C3.7913 58.1783 3.92 58.0768 4.06948 58.0198L58.8806 37.3148C59.0418 37.261 59.2158 37.261 59.377 37.3148L78.9394 42.9241C79.1003 42.97 79.2425 43.0663 79.3454 43.1989C79.4483 43.3316 79.5066 43.4937 79.5119 43.6619C79.5172 43.8301 79.4691 43.9956 79.3747 44.1345C79.2803 44.2734 79.1444 44.3784 78.9867 44.4345L20.0905 65.635C20.0015 65.6642 19.9084 65.6789 19.8148 65.6786ZM6.55123 58.7809L19.8266 64.0414L76.1583 43.7526L59.2194 38.8886L6.55123 58.7809Z" fill="#7384C2"/>
<path d="M19.8143 64.8857L0.787598 79.47L60.6056 116.777L76.0475 100.627L19.8143 64.8857Z" fill="white"/>
<path d="M60.6058 117.57C60.4663 117.566 60.3304 117.525 60.2119 117.451L0.393899 80.1442C0.285376 80.0765 0.194818 79.9833 0.130021 79.8726C0.0652234 79.7619 0.0281275 79.637 0.0219262 79.5087C0.0157249 79.3804 0.0406039 79.2525 0.0944217 79.136C0.148239 79.0195 0.229384 78.9179 0.33087 78.8399L19.3576 64.2557C19.4854 64.1577 19.64 64.1014 19.8005 64.0943C19.961 64.0872 20.1199 64.1297 20.2557 64.216L76.489 99.9572C76.5879 100.02 76.6716 100.104 76.7341 100.204C76.7966 100.304 76.8363 100.416 76.8503 100.533C76.8642 100.65 76.8521 100.768 76.8148 100.88C76.7775 100.992 76.716 101.093 76.6347 101.178L61.177 117.34C61.102 117.415 61.0127 117.474 60.9146 117.514C60.8165 117.553 60.7115 117.572 60.6058 117.57ZM2.17445 79.4029L60.4758 115.766L74.8069 100.778L19.8539 65.8532L2.17445 79.4029Z" fill="#7384C2"/>
<path d="M78.9038 97.186L80.578 98.7083L76.0478 100.627L74.0703 98.7915L78.9038 97.186Z" fill="#7384C2"/>
<path d="M77.1943 103.679L82.0987 132.927L135.137 114.763L135.326 106.994L86.9716 125.268L85.5023 125.863L77.1943 103.679Z" fill="#7384C2"/>
<path d="M81.937 133.197L76.9893 103.719L77.3832 103.616L85.6242 125.613L86.9044 125.094L135.539 106.712L135.338 114.914L81.937 133.197ZM77.718 105.669L82.2482 132.67L134.936 114.628L135.113 107.291L87.0581 125.455L85.4075 126.121L77.718 105.669Z" fill="#7384C2"/>
<path d="M76.0479 100.627L63.2452 126.458L19.5547 99.9493L19.7162 91.2756L60.6059 116.777L76.0479 100.627Z" fill="#7384C2"/>
<path d="M63.2451 127.251C63.1061 127.248 62.9701 127.208 62.8512 127.136L19.1488 100.631C19.028 100.561 18.9279 100.46 18.8587 100.338C18.7895 100.216 18.7537 100.078 18.7549 99.9372L18.9164 91.2596C18.9193 91.1199 18.9589 90.9835 19.0311 90.8641C19.1033 90.7447 19.2055 90.6467 19.3275 90.5799C19.4494 90.5131 19.5868 90.4799 19.7256 90.4837C19.8644 90.4875 19.9997 90.5282 20.1179 90.6016L60.4798 115.754L75.4805 100.068C75.6113 99.9335 75.7853 99.8502 75.9715 99.8329C76.1577 99.8156 76.3439 99.8655 76.4969 99.9737C76.6498 100.082 76.7596 100.241 76.8065 100.423C76.8534 100.606 76.8344 100.799 76.7529 100.968L63.9503 126.799C63.9002 126.895 63.831 126.98 63.747 127.048C63.6629 127.116 63.5659 127.166 63.4618 127.195C63.3924 127.223 63.3195 127.242 63.2451 127.251ZM20.3503 99.5012L62.9182 125.328L73.0421 104.908L61.177 117.34C61.0518 117.471 60.8855 117.555 60.7063 117.577C60.527 117.6 60.3455 117.559 60.1922 117.463L20.4843 92.6828L20.3503 99.5012Z" fill="#7384C2"/>
<path d="M106.422 97.0041L89.1709 103.547C86.1986 104.674 84.6971 108.013 85.8173 111.004L85.9285 111.301C87.0486 114.292 90.3663 115.803 93.3386 114.675L110.59 108.133C113.562 107.005 115.064 103.667 113.944 100.676L113.832 100.379C112.712 97.3878 109.395 95.8769 106.422 97.0041Z" fill="white"/>
<path d="M91.3163 115.846C89.9861 115.845 88.6875 115.437 87.5933 114.676C86.4991 113.915 85.661 112.836 85.1907 111.584L85.0804 111.287C84.4694 109.654 84.5274 107.844 85.2416 106.254C85.9558 104.664 87.2679 103.424 88.8897 102.807L106.144 96.2665C107.767 95.6529 109.566 95.7123 111.145 96.4317C112.725 97.1511 113.957 98.4718 114.57 100.104L114.68 100.401C114.983 101.21 115.125 102.071 115.097 102.935C115.07 103.798 114.873 104.648 114.519 105.436C114.165 106.223 113.66 106.933 113.033 107.524C112.407 108.115 111.671 108.576 110.867 108.881L93.6129 115.421C92.8789 115.701 92.1009 115.844 91.3163 115.846ZM108.444 97.428C107.848 97.4283 107.257 97.5371 106.699 97.7491L89.4451 104.294C88.8353 104.525 88.2767 104.875 87.8013 105.324C87.3259 105.772 86.943 106.31 86.6745 106.908C86.406 107.505 86.2571 108.15 86.2364 108.806C86.2156 109.461 86.3235 110.114 86.5537 110.728L86.664 111.025C87.1297 112.263 88.0642 113.265 89.2625 113.811C90.4609 114.357 91.8255 114.403 93.0575 113.939L110.3 107.394C111.531 106.926 112.527 105.986 113.07 104.78C113.613 103.573 113.658 102.2 113.195 100.96L113.081 100.663C112.725 99.7143 112.091 98.8971 111.263 98.3194C110.435 97.7417 109.452 97.4309 108.444 97.428Z" fill="#7384C2"/>
<path d="M128.808 88.3317L121.082 91.2619C118.11 92.3892 116.608 95.7278 117.728 98.7189L117.84 99.0156C118.96 102.007 122.277 103.518 125.25 102.39L132.976 99.4602C135.948 98.3329 137.45 94.9943 136.33 92.0032L136.218 91.7065C135.098 88.7153 131.781 87.2044 128.808 88.3317Z" fill="white"/>
<path d="M123.224 103.557C121.894 103.556 120.596 103.148 119.501 102.387C118.407 101.626 117.569 100.547 117.099 99.2952L116.989 98.9979C116.378 97.3651 116.436 95.5549 117.15 93.965C117.864 92.3752 119.176 91.1356 120.798 90.5185L128.527 87.6088C130.15 86.9952 131.949 87.0546 133.528 87.774C135.108 88.4934 136.34 89.814 136.953 91.4461L137.063 91.7434C137.366 92.5522 137.508 93.413 137.48 94.2769C137.453 95.1407 137.256 95.9906 136.902 96.778C136.548 97.5654 136.043 98.2749 135.416 98.866C134.79 99.4571 134.054 99.9181 133.25 100.223L125.521 103.152C124.786 103.425 124.008 103.562 123.224 103.557ZM130.827 88.7505C130.231 88.7507 129.64 88.8595 129.082 89.0716L121.353 92.0051C120.744 92.2362 120.185 92.5861 119.71 93.0346C119.234 93.4831 118.851 94.0215 118.583 94.619C118.314 95.2165 118.165 95.8615 118.145 96.5169C118.124 97.1724 118.232 97.8255 118.462 98.439L118.572 98.7363C119.038 99.9744 119.972 100.976 121.171 101.522C122.369 102.069 123.734 102.114 124.966 101.65L132.695 98.7165C133.305 98.4857 133.864 98.1361 134.339 97.6878C134.815 97.2394 135.199 96.7011 135.468 96.1035C135.736 95.506 135.886 94.8609 135.907 94.2053C135.928 93.5497 135.82 92.8963 135.59 92.2826L135.48 91.9852C135.122 91.0346 134.486 90.2159 133.655 89.6381C132.823 89.0603 131.837 88.7507 130.827 88.7505Z" fill="#7384C2"/>
<path d="M32.2668 91.8822C31.1403 91.8834 30.0367 91.5631 29.0838 90.9585L16.0172 82.7091C14.6679 81.8574 13.71 80.5013 13.3543 78.939C13.1782 78.1654 13.1552 77.3645 13.2866 76.582C13.4181 75.7994 13.7014 75.0506 14.1205 74.3783C14.5395 73.706 15.086 73.1233 15.7288 72.6635C16.3716 72.2037 17.0981 71.8758 17.8668 71.6986C19.4193 71.3406 21.0495 71.6179 22.3989 72.4695L35.4536 80.7151C36.5587 81.4124 37.4081 82.4526 37.8738 83.6787C38.3394 84.9048 38.3958 86.25 38.0346 87.5112C37.6733 88.7724 36.914 89.881 35.8713 90.6696C34.8286 91.4581 33.5592 91.8838 32.2549 91.8822H32.2668ZM29.9032 89.6147C30.3962 89.927 30.9455 90.1386 31.5197 90.2373C32.094 90.336 32.6819 90.32 33.25 90.19C33.8181 90.0601 34.3552 89.8188 34.8306 89.48C35.306 89.1412 35.7105 88.7114 36.0209 88.2153C36.3313 87.7192 36.5415 87.1664 36.6396 86.5885C36.7377 86.0106 36.7217 85.419 36.5926 84.8473C36.4635 84.2756 36.2237 83.7351 35.8871 83.2567C35.5504 82.7783 35.1233 82.3713 34.6303 82.0589L21.5637 73.8094C21.0707 73.4971 20.5214 73.2855 19.9472 73.1868C19.3729 73.0881 18.785 73.1041 18.2169 73.2341C17.6488 73.364 17.1117 73.6053 16.6363 73.9441C16.1609 74.2829 15.7564 74.7127 15.446 75.2088C15.1356 75.7049 14.9254 76.2577 14.8273 76.8356C14.7292 77.4135 14.7452 78.0051 14.8743 78.5768C15.0034 79.1485 15.2432 79.689 15.5799 80.1674C15.9166 80.6458 16.3436 81.0528 16.8366 81.3652L29.9032 89.6147Z" fill="#7384C2"/>
<path d="M58.1517 108.71C56.9692 108.711 55.8131 108.358 54.8308 107.695L41.9927 99.1048C40.6664 98.2164 39.7451 96.8342 39.4315 95.2622C39.1179 93.6902 39.4377 92.0573 40.3205 90.7226C41.2033 89.3879 42.5769 88.4607 44.139 88.1451C45.7011 87.8296 47.3238 88.1514 48.6501 89.0398L61.4882 97.646C62.5615 98.3659 63.3761 99.4142 63.8115 100.636C64.2469 101.858 64.2799 103.188 63.9057 104.43C63.5315 105.673 62.7699 106.761 61.7337 107.533C60.6974 108.306 59.4415 108.723 58.1517 108.722V108.71ZM55.7014 106.375C56.4308 106.864 57.288 107.125 58.1645 107.124C59.041 107.123 59.8975 106.86 60.6257 106.369C61.3539 105.878 61.9211 105.181 62.2555 104.366C62.59 103.55 62.6766 102.653 62.5046 101.789C62.3925 101.214 62.168 100.667 61.8441 100.181C61.5201 99.694 61.1032 99.2771 60.6176 98.9542L47.7795 90.348C47.2951 90.0231 46.7518 89.7975 46.1807 89.6839C45.6095 89.5704 45.0218 89.5711 44.451 89.6862C43.8801 89.8012 43.3374 90.0283 42.8538 90.3544C42.3702 90.6805 41.9551 91.0992 41.6323 91.5868C41.3095 92.0743 41.0853 92.621 40.9724 93.1958C40.8596 93.7705 40.8604 94.362 40.9747 94.9364C41.089 95.5108 41.3146 96.057 41.6387 96.5437C41.9627 97.0303 42.3789 97.448 42.8633 97.7729L55.7014 106.375Z" fill="#7384C2"/>
<path d="M83 5.5C84.5 10.5 76.5 12.7347 80.5 16C86 20.4898 79 21 76.5 27.5" stroke="#7384C2" stroke-width="2" stroke-linecap="round"/>
</g>
<defs>
<clipPath id="clip0">
<rect width="157" height="155" fill="white"/>
</clipPath>
</defs>
</svg>
