<svg width="366" height="263" viewBox="0 0 366 263" fill="none" xmlns="http://www.w3.org/2000/svg">
<g clip-path="url(#clip0)">
<path d="M31.0528 201.713C30.767 201.704 30.4965 201.582 30.3004 201.373C30.1043 201.164 29.9985 200.887 30.0063 200.6C30.164 194.856 32.3216 190.964 35.7408 190.102C39.1601 189.241 43.0883 191.66 45.8194 196.457C45.961 196.706 45.9983 197 45.923 197.276C45.8477 197.552 45.666 197.787 45.4179 197.929C45.1699 198.071 44.8757 198.108 44.6001 198.033C44.3245 197.957 44.0901 197.776 43.9485 197.527C41.755 193.664 38.7372 191.567 36.2641 192.192C33.7911 192.816 32.2499 195.976 32.1209 200.665C32.1134 200.944 31.9979 201.21 31.7986 201.406C31.5993 201.601 31.3318 201.712 31.0528 201.713V201.713Z" fill="#07005A"/>
<path fill-rule="evenodd" clip-rule="evenodd" d="M36.006 178.189C35.5857 178.514 35.0838 178.715 34.556 178.771C34.0283 178.827 33.4954 178.735 33.0168 178.505C15.8202 169.027 1.29738 151.348 1.07517 132.241C0.82428 112.623 25.1604 108.494 33.9272 138.919C40.5291 161.81 38.9449 172.107 37.7622 175.798C37.4201 176.749 36.81 177.579 36.006 178.189V178.189Z" fill="#476FF5"/>
<path d="M35.0808 179.353C34.9559 179.355 34.8342 179.313 34.7372 179.234C34.6401 179.155 34.574 179.045 34.5503 178.922C27.7262 144.67 18.6369 125.01 7.44726 120.471C7.31527 120.413 7.21171 120.305 7.1593 120.17C7.1069 120.036 7.10992 119.886 7.1677 119.753C7.19434 119.686 7.23427 119.625 7.28512 119.573C7.33596 119.522 7.39666 119.481 7.46359 119.453C7.53052 119.426 7.60229 119.412 7.67462 119.413C7.74695 119.414 7.81834 119.43 7.88452 119.459C19.3537 124.155 28.7082 144.081 35.6041 178.692C35.6315 178.832 35.6023 178.977 35.5231 179.096C35.4438 179.214 35.3208 179.296 35.1812 179.324L35.0808 179.353Z" fill="#07005A"/>
<path d="M31.1103 162.033C31.0027 162.034 30.8975 162.002 30.8093 161.94C30.6968 161.862 30.6185 161.745 30.5904 161.611C30.5624 161.477 30.5869 161.338 30.6587 161.222C33.7554 156.605 32.8092 143.923 32.3074 138.689C32.2959 138.616 32.2993 138.542 32.3174 138.471C32.3354 138.4 32.3678 138.334 32.4125 138.276C32.4571 138.217 32.5132 138.169 32.5772 138.134C32.6411 138.098 32.7117 138.076 32.7845 138.068C32.8574 138.061 32.9309 138.069 33.0007 138.091C33.0705 138.113 33.135 138.149 33.1903 138.197C33.2457 138.245 33.2906 138.304 33.3225 138.37C33.3543 138.436 33.3724 138.508 33.3755 138.581C34.0565 145.23 34.7303 157.093 31.5548 161.825C31.5021 161.892 31.4345 161.946 31.3573 161.982C31.2801 162.018 31.1955 162.036 31.1103 162.033V162.033Z" fill="#07005A"/>
<path d="M28.2643 153.237C28.1937 153.237 28.1237 153.223 28.0585 153.196C27.9932 153.169 27.9341 153.129 27.8844 153.079C20.4725 145.604 8.65922 138.33 3.05366 136.807C2.91583 136.77 2.79837 136.68 2.72712 136.556C2.65587 136.432 2.63667 136.285 2.67374 136.147C2.71082 136.009 2.80112 135.891 2.9248 135.82C3.04848 135.748 3.19539 135.729 3.33322 135.766C9.69861 137.497 21.7627 145.388 28.6442 152.282C28.7193 152.357 28.7705 152.453 28.7912 152.557C28.8119 152.662 28.8012 152.77 28.7606 152.868C28.7199 152.967 28.6511 153.051 28.5628 153.11C28.4744 153.169 28.3706 153.201 28.2643 153.201V153.237Z" fill="#07005A"/>
<path d="M32.8446 168.984C32.7971 168.991 32.7488 168.991 32.7012 168.984C24.0144 166.518 15.8482 162.488 8.60165 157.093C8.54611 157.049 8.49974 156.994 8.46518 156.933C8.43062 156.871 8.40855 156.803 8.40022 156.733C8.3919 156.662 8.3975 156.591 8.41668 156.523C8.43587 156.455 8.46827 156.391 8.51205 156.335C8.55582 156.28 8.6101 156.233 8.6718 156.198C8.73349 156.164 8.80139 156.142 8.87161 156.133C8.94184 156.125 9.01301 156.131 9.08108 156.15C9.14914 156.169 9.21276 156.202 9.2683 156.245C16.3972 161.548 24.4298 165.507 32.9736 167.928C33.0968 167.964 33.2032 168.043 33.2735 168.15C33.3437 168.258 33.3733 168.387 33.3569 168.515C33.3404 168.642 33.279 168.759 33.1838 168.845C33.0885 168.931 32.9657 168.981 32.8374 168.984H32.8446Z" fill="#07005A"/>
<path fill-rule="evenodd" clip-rule="evenodd" d="M50.7371 180.616C50.4557 180.045 50.3461 179.404 50.4217 178.771C50.7801 176.365 52.7944 170.154 62.9446 159.096C76.4424 144.448 88.9796 153.632 83.3167 164.604C77.833 175.288 64.6793 181.119 52.3284 181.636C51.9943 181.633 51.6678 181.536 51.3864 181.356C51.1049 181.175 50.8799 180.919 50.7371 180.616Z" fill="#476FF5"/>
<path d="M51.0877 181.758C50.9872 181.758 50.8889 181.729 50.8037 181.676C50.7186 181.622 50.6502 181.546 50.6061 181.456C50.5621 181.365 50.5443 181.264 50.5546 181.164C50.565 181.064 50.6031 180.969 50.6648 180.889C64.2844 163.297 75.2446 154.68 83.1153 155.298C83.186 155.303 83.2549 155.322 83.3181 155.355C83.3813 155.387 83.4375 155.431 83.4834 155.485C83.5294 155.539 83.5642 155.602 83.586 155.67C83.6077 155.737 83.6158 155.808 83.6099 155.879C83.5972 156.021 83.5292 156.153 83.4206 156.246C83.3121 156.338 83.1716 156.385 83.0293 156.375C75.5385 155.793 64.9367 164.273 51.4891 181.55C51.4413 181.612 51.3806 181.662 51.3113 181.698C51.242 181.734 51.1657 181.755 51.0877 181.758V181.758Z" fill="#07005A"/>
<path d="M58.1845 173.141C58.0536 173.141 57.9276 173.092 57.8299 173.005C57.7323 172.918 57.6697 172.798 57.654 172.668C57.1881 169.077 60.9228 162.514 63.1951 158.938C63.2701 158.823 63.3866 158.742 63.5203 158.711C63.6539 158.68 63.7943 158.702 63.9119 158.773C64.0267 158.848 64.108 158.965 64.1388 159.099C64.1695 159.233 64.1473 159.373 64.0768 159.491C60.3565 165.365 58.3924 170.111 58.7006 172.51C58.7096 172.58 58.7048 172.651 58.6862 172.72C58.6677 172.788 58.6359 172.852 58.5926 172.908C58.5493 172.964 58.4954 173.011 58.434 173.046C58.3726 173.081 58.3048 173.104 58.2347 173.113L58.1845 173.141Z" fill="#07005A"/>
<path d="M62.263 168.991C62.1357 168.991 62.0127 168.945 61.9158 168.863C61.8188 168.78 61.7543 168.666 61.7337 168.54C61.713 168.414 61.7376 168.285 61.803 168.176C61.8685 168.066 61.9705 167.984 62.091 167.943C67.9402 165.968 77.0009 164.927 81.1011 165.789C81.2408 165.817 81.3635 165.9 81.4422 166.019C81.5208 166.138 81.549 166.284 81.5204 166.424C81.4919 166.564 81.4091 166.687 81.2901 166.766C81.1711 166.844 81.0258 166.873 80.886 166.844C77.3019 166.126 68.7001 166.887 62.435 168.998C62.3777 169.006 62.3194 169.004 62.263 168.991Z" fill="#07005A"/>
<path d="M63.8756 177.4C60.9467 177.411 58.024 177.127 55.1519 176.552C55.0827 176.538 55.017 176.51 54.9584 176.471C54.8999 176.431 54.8498 176.381 54.8108 176.322C54.7719 176.263 54.7449 176.196 54.7315 176.127C54.7181 176.058 54.7184 175.986 54.7325 175.917C54.7467 175.847 54.7743 175.782 54.8138 175.723C54.8533 175.664 54.904 175.614 54.9629 175.575C55.0218 175.536 55.0878 175.509 55.1571 175.496C55.2264 175.482 55.2977 175.483 55.3669 175.497C60.8345 176.554 66.4493 176.598 71.9327 175.626C72.0733 175.598 72.2191 175.627 72.3385 175.707C72.4579 175.786 72.5413 175.909 72.5707 176.05C72.5981 176.19 72.5689 176.335 72.4897 176.453C72.4104 176.572 72.2874 176.654 72.1478 176.682C69.4183 177.176 66.6492 177.416 63.8756 177.4V177.4Z" fill="#07005A"/>
<path d="M46.7514 207.127C46.51 207.126 46.2759 207.045 46.0862 206.895C45.8966 206.745 45.7624 206.537 45.7048 206.302C35.8413 165.408 54.8371 138.337 61.0878 134.323C61.3283 134.169 61.6201 134.116 61.8991 134.178C62.178 134.239 62.4213 134.409 62.5752 134.65C62.7292 134.891 62.7814 135.183 62.7202 135.462C62.6591 135.742 62.4896 135.985 62.2491 136.14C59.3818 137.992 53.253 145.539 49.1527 157.883C45.7407 168.158 42.7372 184.81 47.7979 205.792C47.831 205.93 47.8367 206.072 47.8146 206.212C47.7925 206.352 47.7431 206.486 47.6692 206.607C47.5953 206.728 47.4983 206.833 47.3839 206.916C47.2694 206.999 47.1398 207.059 47.0023 207.092C46.9205 207.114 46.8362 207.126 46.7514 207.127V207.127Z" fill="#07005A"/>
<path fill-rule="evenodd" clip-rule="evenodd" d="M66.2923 132.047C68.0485 128.966 68.2708 125.778 66.7726 124.923C65.2744 124.069 62.6509 125.871 60.8875 128.952C59.1241 132.032 58.9091 135.22 60.4 136.075C61.891 136.929 64.5146 135.127 66.2923 132.047Z" fill="#476FF5"/>
<path fill-rule="evenodd" clip-rule="evenodd" d="M66.4067 139.048C69.912 138.976 72.7291 137.504 72.6932 135.766C72.6574 134.029 69.7829 132.679 66.2418 132.75C62.7007 132.822 59.9266 134.287 59.9553 136.025C59.984 137.763 62.9014 139.141 66.4067 139.048Z" fill="#476FF5"/>
<path fill-rule="evenodd" clip-rule="evenodd" d="M59.9627 136.147C61.2028 135.221 60.6795 132.413 58.7942 129.871C56.909 127.329 54.3786 126.022 53.1385 126.934C51.8984 127.846 52.4217 130.661 54.3069 133.203C56.1922 135.745 58.7225 137.066 59.9627 136.147Z" fill="#476FF5"/>
<path fill-rule="evenodd" clip-rule="evenodd" d="M62.2485 141.152C63.5316 138.279 63.4456 135.407 62.0549 134.79C60.6643 134.172 58.4708 136.003 57.1949 138.89C55.9189 141.776 55.9978 144.634 57.3884 145.259C58.779 145.884 60.9295 144.038 62.2485 141.152Z" fill="#476FF5"/>
<path fill-rule="evenodd" clip-rule="evenodd" d="M57.7973 138.545C60.6072 138.244 62.772 136.858 62.6143 135.457C62.4566 134.057 60.0625 133.167 57.2525 133.476C54.4426 133.784 52.2778 135.163 52.4283 136.563C52.5788 137.964 54.9802 138.847 57.7973 138.545Z" fill="#476FF5"/>
<path d="M61.274 136.326C62.1885 136.326 62.9299 135.584 62.9299 134.668C62.9299 133.752 62.1885 133.009 61.274 133.009C60.3595 133.009 59.6182 133.752 59.6182 134.668C59.6182 135.584 60.3595 136.326 61.274 136.326Z" fill="white"/>
<path fill-rule="evenodd" clip-rule="evenodd" d="M71.9406 205.052H72.0051C73.876 205.131 75.3169 207.408 74.8151 209.784L63.7975 259.711C63.6619 260.338 63.3165 260.9 62.8185 261.304C62.3205 261.707 61.6998 261.928 61.0592 261.93H30.1642C29.5229 261.929 28.9009 261.71 28.4006 261.308C27.9004 260.906 27.5516 260.345 27.4116 259.718L16.437 209.885C15.8922 207.415 17.3976 205.052 19.3043 205.052H71.9406Z" fill="#FF8585"/>
<path d="M61.0591 263H30.164C29.2791 262.994 28.4221 262.689 27.7323 262.134C27.0425 261.578 26.5606 260.806 26.3649 259.941L15.3831 210.115C15.198 209.313 15.1927 208.481 15.3675 207.678C15.5422 206.874 15.8928 206.12 16.3939 205.469C16.74 205.009 17.187 204.635 17.7004 204.376C18.2137 204.117 18.7796 203.98 19.3543 203.975H72.0695C72.6329 204.009 73.1819 204.167 73.6774 204.437C74.173 204.708 74.603 205.085 74.9368 205.54C75.406 206.172 75.7346 206.896 75.9003 207.666C76.066 208.435 76.065 209.231 75.8973 210L64.8654 259.941C64.6766 260.81 64.1956 261.589 63.5028 262.145C62.81 262.702 61.9473 263.004 61.0591 263V263ZM19.3543 206.129C19.1064 206.149 18.866 206.224 18.6503 206.348C18.4347 206.472 18.2491 206.643 18.1071 206.847C17.8086 207.249 17.6014 207.71 17.4998 208.2C17.3983 208.69 17.4049 209.197 17.5193 209.684L28.501 259.51C28.5885 259.896 28.8041 260.242 29.1126 260.489C29.4212 260.737 29.8044 260.873 30.1999 260.874H61.0949C61.4933 260.877 61.8803 260.742 62.191 260.492C62.5016 260.242 62.717 259.893 62.801 259.503L73.8042 209.576C73.9067 209.114 73.9098 208.636 73.8134 208.173C73.717 207.71 73.5233 207.273 73.2451 206.89C73.1009 206.688 72.9149 206.519 72.6996 206.395C72.4844 206.271 72.245 206.195 71.9978 206.172V205.095V206.172L19.3543 206.129Z" fill="#FF8585"/>
<path d="M151.242 126.259C157.878 126.259 163.256 120.871 163.256 114.224C163.256 107.578 157.878 102.19 151.242 102.19C144.607 102.19 139.229 107.578 139.229 114.224C139.229 120.871 144.607 126.259 151.242 126.259Z" fill="white"/>
<path fill-rule="evenodd" clip-rule="evenodd" d="M200.151 124.5C204.18 125.311 212.56 126.819 212.56 114.741C212.56 102.664 202.46 104.107 198.854 105.486L200.151 106.318V124.5Z" fill="white"/>
<path d="M204.445 126.108C202.93 126.074 201.422 125.889 199.943 125.555C199.7 125.506 199.48 125.374 199.323 125.182C199.165 124.99 199.078 124.749 199.076 124.5V106.907L198.273 106.39C198.104 106.284 197.968 106.133 197.88 105.954C197.792 105.774 197.756 105.574 197.776 105.375C197.797 105.176 197.872 104.987 197.994 104.829C198.116 104.671 198.28 104.55 198.467 104.48C200.904 103.547 205.993 102.635 209.613 105.134C212.28 106.972 213.613 110.21 213.613 114.727C213.613 119.244 212.473 122.432 210.222 124.277C208.567 125.541 206.525 126.188 204.445 126.108V126.108ZM201.226 123.609C203.427 124.019 206.71 124.406 208.882 122.626C210.61 121.19 211.484 118.561 211.484 114.727C211.484 110.892 210.438 108.307 208.395 106.893C206.244 105.406 203.341 105.457 201.162 105.923C201.205 106.046 201.227 106.174 201.226 106.304V123.609Z" fill="#07005A"/>
<path fill-rule="evenodd" clip-rule="evenodd" d="M301.56 233.093C301.56 233.294 301.56 233.488 301.56 233.689C301.534 235.419 301.4 237.145 301.158 238.859C300.52 243.138 299.315 247.314 297.574 251.274C296.8 253.042 295.934 254.767 294.979 256.444C293.895 258.313 292.698 260.114 291.395 261.837H42.5932C41.6618 260.107 40.8754 258.304 40.242 256.444C39.6601 254.769 39.2611 253.035 39.0521 251.274C39.0521 251.001 38.9947 250.728 38.9804 250.455C38.7565 246.484 39.4533 242.515 41.0162 238.859C41.7777 237.044 42.7216 235.312 43.8333 233.689C47.5401 228.41 52.5019 224.141 58.2701 221.266C63.635 218.533 69.4441 216.783 75.4237 216.096C76.1907 216.003 76.972 215.924 77.7533 215.866C81.4091 212.061 85.495 207.917 89.8748 203.659C91.6454 201.95 93.4589 200.22 95.3227 198.489C99.8458 194.274 104.598 190.052 109.43 186.067C111.58 184.293 113.731 182.563 115.917 180.897C121.852 176.259 128.155 172.114 134.762 168.503C137.484 167.03 140.303 165.744 143.199 164.654C144.418 164.202 145.644 163.756 146.869 163.333C176.352 153 207.434 149.603 230.516 163.333L231.318 163.814C233.611 165.242 235.816 166.808 237.92 168.503C242.505 172.241 246.733 176.397 250.551 180.918C251.984 182.584 253.382 184.307 254.744 186.088C255.533 187.108 256.307 188.144 257.067 189.197C258.494 189.028 259.93 188.942 261.368 188.939C270.591 188.975 279.486 192.378 286.385 198.511C288.19 200.088 289.857 201.818 291.367 203.681C294.393 207.409 296.799 211.601 298.492 216.096C299.136 217.786 299.68 219.512 300.119 221.266C301.087 225.133 301.571 229.106 301.56 233.093V233.093Z" fill="#FFCE85"/>
<path fill-rule="evenodd" clip-rule="evenodd" d="M237.892 168.503H134.763C137.485 167.03 140.303 165.744 143.2 164.654C144.418 164.202 145.644 163.756 146.87 163.333H230.487L231.29 163.814C233.583 165.242 235.788 166.808 237.892 168.503V168.503Z" fill="#FFEED4"/>
<path fill-rule="evenodd" clip-rule="evenodd" d="M254.716 186.088H109.431C111.581 184.315 113.732 182.584 115.918 180.918H250.523C251.964 182.584 253.354 184.307 254.716 186.088Z" fill="#FFEED4"/>
<path fill-rule="evenodd" clip-rule="evenodd" d="M291.345 203.681H89.875L95.3229 198.511H286.363C288.168 200.088 289.835 201.818 291.345 203.681V203.681Z" fill="#FFEED4"/>
<path fill-rule="evenodd" clip-rule="evenodd" d="M300.098 221.266H58.2705L75.4241 216.096H298.471C299.115 217.786 299.658 219.512 300.098 221.266Z" fill="#FFEED4"/>
<path fill-rule="evenodd" clip-rule="evenodd" d="M301.553 233.689C301.527 235.419 301.393 237.145 301.152 238.859H41.0166L43.8337 233.689H301.553Z" fill="#FFEED4"/>
<path fill-rule="evenodd" clip-rule="evenodd" d="M297.589 251.274C296.815 253.042 295.949 254.767 294.994 256.444H40.2427L39.0527 251.274H297.589Z" fill="#FFEED4"/>
<path d="M288.658 262.914H46.0129C44.7372 262.917 43.4891 262.542 42.4262 261.835C41.3634 261.129 40.5336 260.122 40.0418 258.943C38.8685 256.27 38.142 253.422 37.8913 250.513C37.3752 241.702 41.2532 233.143 48.8085 226.407C56.1846 219.844 66.2703 215.737 77.2377 214.818C95.6673 195.667 121.889 171.368 142.777 163.641C168.489 154.098 204.811 146.221 231.828 162.923C240.587 168.338 249.462 177.033 257.519 188.056C258.845 187.926 260.121 187.862 261.325 187.862C284.091 187.862 302.614 208.154 302.614 233.1C302.614 242.169 299.546 251.769 293.976 260.106C293.387 260.974 292.593 261.684 291.666 262.174C290.739 262.663 289.706 262.917 288.658 262.914V262.914ZM194.073 155.333C176.31 155.333 158.189 160.231 143.544 165.666C122.935 173.285 96.8142 197.577 78.528 216.606C78.3395 216.803 78.0833 216.921 77.8112 216.936C55.9983 218.588 39.0526 233.595 40.0346 250.391C40.2702 253.056 40.936 255.665 42.0059 258.117C42.3348 258.903 42.8891 259.574 43.5985 260.044C44.3079 260.514 45.1407 260.763 45.9914 260.76H288.636C289.34 260.771 290.037 260.607 290.662 260.282C291.288 259.958 291.823 259.483 292.22 258.9C297.553 250.901 300.492 241.738 300.492 233.093C300.492 209.339 282.937 190.009 261.354 190.009C259.955 190.011 258.557 190.095 257.168 190.26C256.979 190.281 256.788 190.252 256.614 190.175C256.44 190.098 256.29 189.976 256.178 189.822C248.179 178.757 239.383 170.083 230.731 164.69C219.678 157.911 206.968 155.333 194.073 155.333Z" fill="#07005A"/>
<path fill-rule="evenodd" clip-rule="evenodd" d="M320.42 122.626C321.581 119.603 322.778 116.328 323.424 114.138C325.094 108.566 319.245 107.762 316.413 115.782L316.463 116.501L316.134 116.594C317.789 111.46 318.9 106.232 316.965 105.356C313.782 103.92 311.266 109.392 307.646 120.335L307.345 120.486C309.051 114.655 311.266 107.719 309.589 106.512C307.238 104.818 303.238 108.573 298.335 125.261C298.029 125.449 297.762 125.692 297.546 125.979C296.371 124.069 294.607 120.371 290.012 119.789C284.063 119.014 287.217 124.141 290.428 129.067C292.464 132.154 292.736 138.351 293.847 141.683C293.946 142.38 294.19 143.048 294.564 143.643C293.131 146.788 284.894 164.654 270.529 193.384C254.644 225.108 256.802 241.494 268.436 245.587C280.07 249.68 292.55 242.786 299.138 206.653C303.704 181.658 311.739 151.607 311.739 151.607C311.739 151.607 313.173 149.804 317.202 145.747C321.23 141.69 322.8 132.736 324.95 125.843C327.101 118.949 322.965 118.576 320.42 122.626Z" fill="white"/>
<path fill-rule="evenodd" clip-rule="evenodd" d="M165.981 249.105L167.264 245.278H169.285L186.489 249.472L193.973 251.597L195.349 252.775V253.837L193.593 254.527L192.137 255.582L192.252 256.868H190.267L189.213 258.634L186.79 259.043L185.708 260.357L185.464 261.205L163.551 261.499L163.292 260.034L165.981 249.105Z" fill="white"/>
<path d="M230.544 196.773C230.322 196.772 230.105 196.704 229.921 196.579C229.689 196.412 229.532 196.159 229.485 195.877C229.438 195.594 229.504 195.305 229.67 195.071C234.379 188.451 240.243 184.709 247.082 183.97C249.568 183.708 252.081 183.868 254.515 184.444C254.657 184.472 254.791 184.528 254.911 184.609C255.031 184.69 255.133 184.794 255.211 184.916C255.289 185.037 255.343 185.173 255.367 185.316C255.392 185.458 255.388 185.604 255.355 185.745C255.323 185.886 255.262 186.019 255.177 186.136C255.092 186.252 254.984 186.351 254.86 186.425C254.736 186.499 254.599 186.548 254.456 186.568C254.313 186.588 254.167 186.578 254.028 186.541C251.828 186.026 249.558 185.881 247.311 186.11C241.11 186.785 235.763 190.217 231.426 196.321C231.325 196.46 231.193 196.574 231.04 196.653C230.886 196.732 230.717 196.773 230.544 196.773Z" fill="#07005A"/>
<path d="M231.899 218.48C231.615 218.48 231.342 218.368 231.139 218.168C230.936 217.967 230.821 217.695 230.817 217.41C231.201 211.744 233.032 206.272 236.136 201.519C240.845 194.245 247.813 189.743 256.845 188.128C256.986 188.103 257.131 188.107 257.27 188.138C257.41 188.17 257.542 188.228 257.66 188.311C257.777 188.394 257.876 188.499 257.953 188.62C258.03 188.741 258.082 188.876 258.106 189.018C258.131 189.159 258.127 189.304 258.096 189.444C258.064 189.584 258.006 189.717 257.923 189.834C257.841 189.952 257.736 190.051 257.615 190.128C257.494 190.205 257.359 190.257 257.217 190.282C248.795 191.782 242.308 195.969 237.935 202.719C235.058 207.113 233.348 212.169 232.967 217.41C232.965 217.693 232.852 217.964 232.652 218.165C232.453 218.365 232.182 218.478 231.899 218.48Z" fill="#07005A"/>
<path d="M113.214 218.803C113.061 218.804 112.909 218.772 112.77 218.708C112.63 218.645 112.505 218.553 112.404 218.437C104.598 209.54 84.9287 211.601 81.4521 213.518C81.328 213.592 81.1904 213.639 81.0475 213.658C80.9046 213.677 80.7594 213.668 80.6204 213.629C80.4814 213.591 80.3515 213.525 80.2384 213.436C80.1254 213.346 80.0314 213.235 79.9622 213.108C79.893 212.981 79.8499 212.842 79.8355 212.698C79.8211 212.555 79.8356 212.41 79.8783 212.272C79.921 212.134 79.991 212.006 80.084 211.896C80.177 211.785 80.2912 211.695 80.4198 211.63C84.4484 209.411 105.193 206.955 114.017 217.015C114.157 217.169 114.248 217.361 114.281 217.566C114.313 217.772 114.285 217.982 114.2 218.172C114.114 218.362 113.976 218.523 113.801 218.635C113.626 218.747 113.422 218.805 113.214 218.803V218.803Z" fill="#07005A"/>
<path fill-rule="evenodd" clip-rule="evenodd" d="M77.1084 215.924H77.174C77.1648 215.916 77.1532 215.912 77.1412 215.912C77.1292 215.912 77.1176 215.916 77.1084 215.924V215.924Z" fill="white"/>
<path d="M110.061 225.309C109.828 225.309 109.602 225.233 109.416 225.093C97.1868 215.852 80.9723 216.699 77.8756 216.965C77.7344 216.977 77.5923 216.961 77.4573 216.917C77.3223 216.874 77.1972 216.805 77.089 216.713C76.9809 216.621 76.8918 216.509 76.8269 216.383C76.762 216.257 76.7225 216.119 76.7108 215.978C76.699 215.836 76.7152 215.694 76.7583 215.559C76.8015 215.423 76.8708 215.298 76.9623 215.19C77.0539 215.081 77.1658 214.992 77.2917 214.927C77.4177 214.862 77.5552 214.823 77.6964 214.811C80.9651 214.531 97.8965 213.655 110.742 223.363C110.855 223.448 110.95 223.554 111.022 223.676C111.094 223.798 111.141 223.932 111.161 224.072C111.181 224.212 111.173 224.355 111.138 224.492C111.103 224.629 111.042 224.758 110.957 224.871C110.853 225.01 110.718 225.122 110.562 225.199C110.406 225.275 110.234 225.313 110.061 225.309Z" fill="#07005A"/>
<path fill-rule="evenodd" clip-rule="evenodd" d="M166.841 148.024L167.737 164.805C167.737 164.805 168.339 176.538 182.654 174.822C199.628 172.567 197.535 162.485 197.535 162.485L193.456 140.47L166.841 148.024Z" fill="white"/>
<path d="M179.923 176.071C176.202 176.071 173.17 175.095 170.869 173.149C168.465 171.025 166.964 168.06 166.676 164.862L165.751 148.081L167.901 147.966L168.826 164.747C169.091 167.357 170.321 169.772 172.274 171.519C174.668 173.536 178.123 174.283 182.539 173.752C188.646 172.94 192.997 170.937 195.105 167.957C196.226 166.452 196.726 164.572 196.503 162.708L192.417 140.663L194.531 140.268L198.61 162.291C198.948 164.737 198.32 167.217 196.861 169.206C194.359 172.739 189.628 174.951 182.811 175.892C181.853 176.01 180.888 176.069 179.923 176.071V176.071Z" fill="#07005A"/>
<path d="M297.188 145.92C296.988 145.92 296.792 145.865 296.621 145.762L296.127 145.46C293.46 143.859 292.471 142.832 291.202 133.562C290.894 131.264 289.252 128.744 287.941 126.719C286.851 125.046 285.998 123.731 285.79 122.59C285.582 121.312 285.503 119.883 286.507 118.956C287.511 118.03 289.045 117.987 291.596 118.655C294.564 119.437 296.521 121.678 297.654 123.466C301.03 113.025 303.804 105.708 307.531 105.22C308.076 105.141 309.732 104.925 310.714 106.103C312.305 108.02 311.323 111.991 306.886 125.634C306.842 125.769 306.773 125.894 306.681 126.002C306.589 126.11 306.476 126.198 306.35 126.263C306.224 126.327 306.087 126.366 305.946 126.377C305.804 126.388 305.662 126.371 305.528 126.327C305.393 126.283 305.269 126.213 305.161 126.121C305.053 126.029 304.965 125.917 304.901 125.79C304.836 125.664 304.798 125.526 304.787 125.385C304.776 125.244 304.792 125.101 304.836 124.967C307.309 117.369 310.112 108.753 309.058 107.482C308.922 107.309 308.463 107.266 307.811 107.352C304.944 107.733 301.36 118.928 299.209 125.613L298.915 126.597C298.843 126.805 298.707 126.987 298.527 127.115C298.348 127.244 298.132 127.314 297.912 127.315C297.686 127.321 297.465 127.255 297.28 127.126C297.096 126.996 296.957 126.811 296.887 126.597C296.887 126.553 295.066 121.757 291.066 120.701C288.622 120.062 288.055 120.436 287.962 120.515C287.869 120.594 287.711 120.96 287.912 122.202C288.027 122.92 288.887 124.227 289.718 125.505C291.152 127.71 292.937 130.453 293.302 133.239C294.492 141.949 295.288 142.43 297.209 143.579L297.725 143.895C297.922 144.019 298.074 144.204 298.157 144.421C298.24 144.639 298.251 144.878 298.187 145.102C298.123 145.326 297.989 145.524 297.803 145.665C297.618 145.806 297.392 145.882 297.159 145.884L297.188 145.92Z" fill="#07005A"/>
<path d="M311.933 128.37C311.753 128.368 311.576 128.32 311.419 128.232C311.262 128.143 311.129 128.017 311.033 127.865C310.937 127.712 310.881 127.538 310.869 127.358C310.857 127.178 310.89 126.997 310.965 126.834C316.255 115.646 318.069 107.18 316.449 106.29C316.32 106.221 316.176 106.184 316.03 106.184C315.883 106.184 315.739 106.221 315.61 106.29C314.177 106.893 311.625 110.189 307.94 122.468C307.902 122.606 307.837 122.736 307.748 122.849C307.659 122.962 307.549 123.056 307.423 123.125C307.297 123.195 307.159 123.238 307.016 123.254C306.873 123.269 306.729 123.255 306.591 123.213C306.454 123.171 306.326 123.103 306.216 123.011C306.106 122.919 306.015 122.806 305.949 122.678C305.883 122.55 305.843 122.41 305.831 122.267C305.82 122.124 305.838 121.979 305.883 121.843C308.091 114.476 311.101 105.816 314.8 104.293C315.227 104.11 315.69 104.028 316.154 104.053C316.617 104.078 317.069 104.209 317.474 104.437C319.832 105.722 319.703 109.902 317.058 117.578C315.273 122.769 312.929 127.738 312.908 127.789C312.816 127.967 312.675 128.116 312.503 128.219C312.331 128.321 312.133 128.374 311.933 128.37V128.37Z" fill="#07005A"/>
<path d="M317.216 131.386C317.078 131.385 316.942 131.358 316.814 131.307C316.68 131.254 316.557 131.174 316.454 131.072C316.351 130.97 316.269 130.849 316.214 130.715C316.158 130.581 316.13 130.437 316.131 130.292C316.132 130.147 316.162 130.004 316.219 129.871C316.993 127.975 317.775 126.137 318.527 124.363C320.9 118.798 323.846 111.876 322.291 110.971C322.127 110.851 321.936 110.772 321.735 110.742C321.534 110.712 321.329 110.731 321.137 110.799C319.352 111.431 317.66 115.926 317.029 117.621C316.988 117.763 316.919 117.894 316.824 118.008C316.73 118.122 316.614 118.215 316.482 118.282C316.351 118.348 316.207 118.387 316.06 118.396C315.912 118.405 315.765 118.383 315.627 118.332C315.488 118.281 315.362 118.202 315.255 118.101C315.148 117.999 315.063 117.876 315.006 117.74C314.949 117.604 314.92 117.457 314.921 117.309C314.923 117.162 314.955 117.016 315.015 116.881C316.406 113.183 318.026 109.643 320.42 108.789C320.905 108.621 321.421 108.564 321.931 108.622C322.441 108.681 322.931 108.853 323.366 109.126C326.57 110.993 324.025 116.96 320.499 125.232C319.746 126.999 318.965 128.823 318.205 130.704C318.127 130.904 317.991 131.076 317.815 131.197C317.639 131.319 317.43 131.385 317.216 131.386Z" fill="#07005A"/>
<path d="M273.454 247.834C268.286 247.834 264.178 245.824 261.49 241.932C255.992 234.033 257.046 218.502 264.042 204.262C273.59 184.81 293.353 143.586 293.546 143.177C293.608 143.049 293.693 142.934 293.799 142.84C293.904 142.745 294.027 142.672 294.16 142.625C294.294 142.578 294.435 142.558 294.576 142.566C294.718 142.574 294.856 142.609 294.984 142.67C295.111 142.732 295.225 142.818 295.32 142.923C295.414 143.029 295.487 143.152 295.534 143.285C295.581 143.419 295.601 143.561 295.593 143.702C295.586 143.844 295.55 143.982 295.489 144.11C295.288 144.519 275.526 185.758 265.97 205.21C259.304 218.782 258.186 233.38 263.253 240.711C265.863 244.481 269.934 246.118 275.353 245.587C291.432 244 296.858 214.164 300.141 196.342C300.557 194.08 300.944 191.94 301.317 190.095C304.292 175.288 309.496 155.628 310.506 151.872C310.645 151.356 310.903 150.878 311.259 150.479C314.356 147.054 317.918 142.976 318.793 141.654C319.288 140.398 324.427 127.293 324.434 122.597C324.434 121.793 324.255 121.376 324.09 121.333C323.524 121.19 322.019 122.13 321.166 123.681C321.026 123.932 320.793 124.116 320.517 124.194C320.241 124.272 319.946 124.238 319.696 124.098C319.446 123.958 319.262 123.724 319.184 123.448C319.106 123.172 319.141 122.876 319.28 122.626C320.413 120.572 322.721 118.741 324.628 119.236C325.345 119.423 326.592 120.112 326.585 122.59C326.585 127.875 320.986 141.978 320.75 142.538C320.727 142.598 320.698 142.656 320.664 142.71C319.624 144.354 314.858 149.69 312.858 151.908C312.729 152.052 312.635 152.224 312.585 152.411C311.575 156.188 306.385 175.762 303.424 190.511C303.059 192.328 302.672 194.461 302.256 196.716C298.887 215.141 293.253 245.968 275.569 247.698C274.845 247.799 274.142 247.834 273.454 247.834Z" fill="#07005A"/>
<path fill-rule="evenodd" clip-rule="evenodd" d="M164.661 261.844L61.5391 261.585C61.5391 261.585 69.3668 224.203 102.563 230.838C132.232 236.511 168.052 245.127 168.052 245.127L164.661 261.844Z" fill="white"/>
<path d="M164.661 262.921L61.539 262.648C61.3791 262.649 61.221 262.615 61.0763 262.547C60.9315 262.479 60.8039 262.379 60.7027 262.255C60.6016 262.131 60.5296 261.986 60.4919 261.83C60.4543 261.674 60.452 261.512 60.4853 261.356C62.0597 254.798 64.8566 248.598 68.7288 243.081C74.4633 235.053 85.0652 226.228 102.771 229.768C132.117 235.376 167.944 243.978 168.303 244.065C168.58 244.131 168.82 244.306 168.969 244.549C169.118 244.793 169.165 245.086 169.098 245.364C169.032 245.642 168.858 245.883 168.614 246.032C168.371 246.181 168.078 246.228 167.801 246.161C167.442 246.075 131.666 237.48 102.362 231.886C89.0292 229.215 78.3127 233.409 70.4778 244.337C67.0537 249.25 64.4958 254.715 62.9153 260.494L164.661 260.745C164.946 260.745 165.22 260.859 165.421 261.061C165.623 261.263 165.736 261.537 165.736 261.822C165.736 262.108 165.623 262.382 165.421 262.584C165.22 262.786 164.946 262.899 164.661 262.899V262.921Z" fill="#07005A"/>
<path d="M191.779 255.927C191.353 255.957 190.929 255.843 190.574 255.604C190.367 255.443 190.226 255.212 190.177 254.954C190.128 254.696 190.174 254.428 190.308 254.202C190.442 253.977 190.654 253.807 190.904 253.727C191.153 253.647 191.424 253.66 191.664 253.766C192.519 253.742 193.363 253.56 194.151 253.227L194.467 253.105C194.2 252.901 193.909 252.732 193.599 252.602C192.883 252.33 183.722 249.658 177.026 248.337C176.883 248.316 176.745 248.265 176.621 248.189C176.497 248.112 176.39 248.012 176.306 247.892C176.222 247.773 176.163 247.638 176.133 247.496C176.103 247.353 176.102 247.206 176.13 247.063C176.158 246.92 176.215 246.784 176.297 246.664C176.379 246.544 176.484 246.441 176.607 246.363C176.73 246.285 176.867 246.232 177.011 246.209C177.154 246.185 177.301 246.191 177.442 246.226C184.245 247.569 193.614 250.305 194.352 250.585C194.452 250.621 196.847 251.54 196.818 253.227C196.818 254.139 196.137 254.828 194.84 255.266C193.859 255.643 192.827 255.865 191.779 255.927V255.927Z" fill="#07005A"/>
<path d="M191.528 258.182C190.279 258.086 189.053 257.795 187.894 257.32C187.761 257.273 187.638 257.2 187.533 257.105C187.428 257.011 187.343 256.896 187.282 256.769C187.221 256.641 187.186 256.503 187.178 256.361C187.171 256.22 187.191 256.078 187.238 255.945C187.285 255.812 187.358 255.689 187.452 255.584C187.547 255.478 187.661 255.393 187.789 255.332C187.916 255.271 188.054 255.235 188.195 255.228C188.336 255.22 188.478 255.241 188.611 255.288C189.302 255.543 190.008 255.754 190.725 255.92C189.548 254.661 188.247 253.525 186.84 252.531C182.575 249.35 174.188 247.569 169.17 246.463C168.325 246.283 167.55 246.118 166.898 245.968C166.76 245.936 166.63 245.877 166.515 245.795C166.399 245.713 166.301 245.609 166.226 245.489C166.151 245.369 166.1 245.236 166.076 245.096C166.053 244.956 166.057 244.813 166.088 244.675C166.12 244.537 166.178 244.406 166.26 244.291C166.342 244.175 166.446 244.077 166.566 244.002C166.685 243.926 166.819 243.875 166.958 243.852C167.098 243.828 167.241 243.832 167.378 243.864L169.622 244.359C175.149 245.551 183.507 247.346 188.145 250.822C194.288 255.396 193.585 256.717 193.249 257.349C193.075 257.641 192.819 257.876 192.513 258.024C192.207 258.172 191.865 258.227 191.528 258.182V258.182Z" fill="#07005A"/>
<path d="M186.668 260.128C186.267 260.128 185.851 260.128 185.435 260.092C185.15 260.078 184.882 259.952 184.689 259.741C184.497 259.529 184.397 259.25 184.41 258.964C184.423 258.679 184.549 258.41 184.76 258.217C184.971 258.025 185.25 257.924 185.535 257.938C186.466 258.022 187.403 257.983 188.324 257.823C187.779 257.176 185.887 255.669 179.414 252.33C179.16 252.199 178.968 251.973 178.881 251.701C178.793 251.429 178.817 251.133 178.948 250.879C179.078 250.625 179.304 250.433 179.575 250.345C179.847 250.258 180.142 250.282 180.396 250.412C189.499 255.058 191.041 256.875 190.618 258.483C190.266 259.819 188.611 260.128 186.668 260.128Z" fill="#07005A"/>
<path d="M161.809 262.914C161.523 262.914 161.25 262.8 161.048 262.598C160.847 262.396 160.733 262.122 160.733 261.837C160.733 261.551 160.847 261.277 161.048 261.075C161.25 260.873 161.523 260.76 161.809 260.76C162.525 260.76 178.754 260.135 183.141 260.422C183.783 260.528 184.442 260.458 185.048 260.221C184.957 259.979 184.792 259.773 184.575 259.632C183.593 259.079 179.98 257.162 177.457 255.963C177.307 255.921 177.168 255.847 177.05 255.746C176.931 255.645 176.836 255.519 176.771 255.378C176.705 255.236 176.671 255.082 176.671 254.926C176.671 254.77 176.705 254.616 176.77 254.475C176.835 254.333 176.93 254.207 177.049 254.106C177.167 254.005 177.306 253.931 177.456 253.889C177.606 253.846 177.763 253.837 177.916 253.862C178.07 253.887 178.217 253.944 178.346 254.031C180.912 255.252 184.582 257.198 185.586 257.765C186.589 258.333 187.442 259.675 187.091 260.874C186.74 262.074 185.328 262.734 182.962 262.583C178.661 262.303 162.017 262.921 161.852 262.928L161.809 262.914Z" fill="#07005A"/>
<path d="M175.837 246.197C172.64 246.197 169.285 246.032 165.801 245.68C165.516 245.652 165.254 245.511 165.072 245.289C164.891 245.066 164.805 244.781 164.833 244.495C164.862 244.21 165.003 243.947 165.224 243.765C165.446 243.584 165.731 243.497 166.016 243.526C196.402 246.585 215.097 234.909 216.602 227.836C216.627 227.693 216.679 227.556 216.758 227.433C216.836 227.311 216.939 227.206 217.059 227.124C217.179 227.042 217.315 226.986 217.457 226.958C217.6 226.93 217.747 226.932 217.889 226.962C218.031 226.993 218.165 227.052 218.284 227.136C218.402 227.22 218.503 227.327 218.579 227.451C218.655 227.575 218.705 227.713 218.726 227.857C218.748 228.001 218.74 228.148 218.703 228.289C217.197 235.398 201.836 246.197 175.837 246.197Z" fill="#07005A"/>
<path fill-rule="evenodd" clip-rule="evenodd" d="M164.869 83.8502C159.049 83.8502 148.382 88.9772 148.382 98.9296V123.071C148.382 123.071 147.866 145.64 170.281 148.67C194.653 151.973 200.037 130.273 200.037 119.782C200.037 110.11 201.133 93.5154 197.37 88.6972C193.607 83.879 189.041 83.7354 185.973 83.7354C182.905 83.7354 164.869 83.8502 164.869 83.8502Z" fill="white"/>
<path d="M175.077 150.092C173.415 150.084 171.756 149.967 170.109 149.74C147.013 146.616 147.271 123.279 147.279 123.042V98.9654C147.279 92.9193 150.812 89.0274 153.773 86.8158C157.049 84.3744 161.393 82.7946 164.834 82.7946C165.192 82.7946 182.919 82.6582 185.944 82.6582C188.754 82.6582 193.98 82.6582 198.187 88.0365C201.535 92.3449 201.32 104.473 201.148 114.246C201.112 116.235 201.083 118.116 201.083 119.782C201.083 127.53 198.496 138.078 191.234 144.433C186.933 148.196 181.514 150.092 175.077 150.092ZM164.869 84.9488C159.493 84.9488 149.458 89.7599 149.458 98.9654V123.071C149.458 123.976 149.25 144.742 170.425 147.607C178.439 148.691 184.976 147.076 189.843 142.81C196.567 136.929 198.961 127.056 198.961 119.782C198.961 118.095 198.961 116.192 199.026 114.21C199.184 105.277 199.399 93.0414 196.517 89.3649C192.933 84.8124 188.582 84.8124 185.973 84.8124C182.94 84.8124 165.056 84.9488 164.877 84.9488H164.869Z" fill="#07005A"/>
<path fill-rule="evenodd" clip-rule="evenodd" d="M181.686 116.163C182.575 116.163 183.291 115.05 183.291 113.686C183.291 112.321 182.575 111.201 181.686 111.201C180.797 111.201 180.08 112.314 180.08 113.686C180.08 115.057 180.797 116.163 181.686 116.163Z" fill="#07005A"/>
<path fill-rule="evenodd" clip-rule="evenodd" d="M158.317 116.752C159.199 116.752 159.923 115.646 159.923 114.275C159.923 112.903 159.206 111.797 158.317 111.797C157.429 111.797 156.705 112.903 156.705 114.275C156.705 115.646 157.429 116.752 158.317 116.752Z" fill="#07005A"/>
<path fill-rule="evenodd" clip-rule="evenodd" d="M203.578 104.042C204.938 99.3449 205.662 94.4854 205.728 89.5947C205.585 82.9239 201.427 76.8994 195.47 75.2981C190.517 73.9625 187.671 76.5834 187.671 76.5834C187.671 76.5834 190.252 66.6023 181.399 60.3839C179.923 59.3171 178.231 58.5857 176.444 58.241C174.656 57.8962 172.815 57.9463 171.048 58.3877C162.575 60.6855 161.823 69.3741 161.823 69.3741C161.823 69.3741 148.26 52.715 132.096 68.2467C130.454 69.8049 129.057 73.424 128.512 75.8007C125.301 90.0328 149.3 100.373 160.21 99.066C172.202 97.6299 178.553 93.8672 181.542 89.8245C179.206 92.3306 186.926 111.137 203.578 104.042Z" fill="#07005A"/>
<path d="M200.323 103.376L193.297 107.356L194.356 109.231L201.382 105.251L200.323 103.376Z" fill="#07005A"/>
<path d="M167.493 130.194C167.313 130.194 167.134 130.165 166.963 130.108C165.629 129.67 165.443 127.954 165.436 126.302C165.436 125.864 165.199 122.525 165.056 107.482C165.054 107.34 165.08 107.2 165.132 107.068C165.184 106.937 165.262 106.817 165.361 106.716C165.459 106.615 165.577 106.534 165.706 106.478C165.836 106.422 165.975 106.392 166.117 106.39V106.39C166.401 106.39 166.673 106.503 166.874 106.703C167.076 106.904 167.19 107.176 167.192 107.46C167.342 123.258 167.557 126.058 167.572 126.173V126.259C167.557 126.794 167.6 127.328 167.701 127.853C168.433 127.196 169.078 126.448 169.622 125.627C169.789 125.396 170.041 125.24 170.323 125.195C170.605 125.15 170.893 125.219 171.124 125.387C171.355 125.554 171.51 125.807 171.555 126.089C171.6 126.371 171.531 126.66 171.364 126.891C169.944 128.866 168.712 130.194 167.493 130.194Z" fill="#07005A"/>
<path d="M171.357 114.727H163.242C162.957 114.727 162.684 114.613 162.482 114.411C162.28 114.209 162.167 113.936 162.167 113.65C162.167 113.364 162.28 113.09 162.482 112.888C162.684 112.686 162.957 112.573 163.242 112.573H171.357C171.642 112.573 171.915 112.686 172.117 112.888C172.319 113.09 172.432 113.364 172.432 113.65C172.432 113.936 172.319 114.209 172.117 114.411C171.915 114.613 171.642 114.727 171.357 114.727V114.727Z" fill="#07005A"/>
<path d="M172.611 138.359C171.27 138.339 169.94 138.112 168.668 137.684C168.534 137.641 168.409 137.572 168.301 137.48C168.193 137.389 168.104 137.277 168.039 137.152C167.974 137.026 167.935 136.889 167.923 136.748C167.911 136.607 167.927 136.465 167.97 136.33C168.012 136.195 168.081 136.07 168.172 135.962C168.264 135.854 168.375 135.765 168.5 135.7C168.626 135.635 168.763 135.595 168.904 135.583C169.044 135.571 169.186 135.587 169.321 135.63C171.909 136.456 174.095 136.348 175.485 135.429C175.83 135.211 176.121 134.918 176.338 134.573C176.555 134.227 176.692 133.838 176.74 133.433C176.757 133.147 176.887 132.88 177.1 132.69C177.314 132.5 177.594 132.403 177.88 132.42C178.165 132.437 178.432 132.567 178.621 132.781C178.811 132.995 178.907 133.276 178.89 133.562C178.825 134.295 178.594 135.003 178.215 135.634C177.837 136.265 177.32 136.801 176.704 137.202C175.491 138 174.062 138.404 172.611 138.359V138.359Z" fill="#07005A"/>
<path d="M174.145 102.139C173.997 102.139 173.85 102.108 173.714 102.047C173.578 101.987 173.456 101.898 173.357 101.787C173.261 101.683 173.187 101.561 173.139 101.428C173.09 101.295 173.068 101.154 173.074 101.013C173.08 100.872 173.114 100.733 173.174 100.604C173.233 100.476 173.317 100.361 173.421 100.265L173.93 99.7841C175.529 98.2331 177.729 96.1148 182.296 99.2384C182.531 99.4002 182.693 99.6493 182.746 99.9307C182.798 100.212 182.737 100.503 182.575 100.739C182.414 100.975 182.165 101.137 181.884 101.19C181.603 101.242 181.313 101.181 181.077 101.019C177.959 98.865 176.948 99.8559 175.421 101.335C175.242 101.507 175.063 101.687 174.876 101.852C174.678 102.038 174.417 102.141 174.145 102.139V102.139Z" fill="#07005A"/>
<path d="M153.565 100.976C153.35 100.973 153.141 100.906 152.965 100.783C152.788 100.66 152.653 100.487 152.576 100.286C152.498 100.085 152.483 99.8652 152.532 99.6554C152.58 99.4457 152.691 99.2554 152.848 99.109L153.156 98.8218C154.949 97.1415 157.658 94.6068 162.941 98.4987C163.055 98.5826 163.151 98.6882 163.224 98.8094C163.298 98.9306 163.346 99.065 163.368 99.205C163.389 99.3451 163.382 99.4879 163.349 99.6255C163.315 99.763 163.254 99.8925 163.17 100.007C163.087 100.121 162.981 100.217 162.86 100.29C162.739 100.364 162.605 100.412 162.465 100.434C162.326 100.455 162.183 100.449 162.046 100.415C161.908 100.381 161.779 100.32 161.665 100.236C157.823 97.3641 156.339 98.8003 154.626 100.394L154.303 100.696C154.101 100.879 153.838 100.979 153.565 100.976V100.976Z" fill="#07005A"/>
<g opacity="0.1">
<path opacity="0.1" fill-rule="evenodd" clip-rule="evenodd" d="M191.807 105.471L171.987 118.095L175.586 123.767L195.815 110.892L191.807 105.471Z" fill="#476FF5"/>
</g>
<g opacity="0.1">
<path opacity="0.1" fill-rule="evenodd" clip-rule="evenodd" d="M190.231 103.446L170.919 115.739L171.593 116.802L190.654 104.667L190.231 103.446Z" fill="#476FF5"/>
</g>
<path d="M183.363 127.336C180.774 127.336 178.244 126.567 176.091 125.126C173.939 123.686 172.261 121.638 171.27 119.242C170.28 116.846 170.02 114.21 170.525 111.666C171.03 109.123 172.277 106.787 174.108 104.953C175.938 103.119 178.27 101.87 180.81 101.364C183.349 100.859 185.98 101.118 188.372 102.111C190.764 103.103 192.808 104.784 194.246 106.94C195.685 109.096 196.452 111.631 196.452 114.224C196.449 117.701 195.068 121.034 192.614 123.492C190.161 125.95 186.833 127.332 183.363 127.336V127.336ZM183.363 103.274C181.199 103.274 179.084 103.917 177.285 105.121C175.486 106.325 174.084 108.037 173.256 110.04C172.429 112.043 172.212 114.246 172.635 116.372C173.058 118.498 174.1 120.45 175.631 121.982C177.161 123.515 179.111 124.558 181.233 124.98C183.356 125.402 185.555 125.184 187.554 124.353C189.553 123.523 191.261 122.117 192.462 120.314C193.663 118.511 194.303 116.392 194.302 114.224C194.298 111.32 193.144 108.536 191.093 106.483C189.043 104.43 186.262 103.276 183.363 103.274V103.274Z" fill="#07005A"/>
<g opacity="0.1">
<path opacity="0.1" fill-rule="evenodd" clip-rule="evenodd" d="M159.357 105.471L139.537 118.095L143.142 123.767L163.364 110.892L159.357 105.471Z" fill="#476FF5"/>
</g>
<g opacity="0.1">
<path opacity="0.1" fill-rule="evenodd" clip-rule="evenodd" d="M157.78 103.446L138.469 115.739L139.143 116.802L158.203 104.667L157.78 103.446Z" fill="#476FF5"/>
</g>
<path d="M151.25 127.336C148.661 127.338 146.129 126.57 143.976 125.13C141.822 123.69 140.144 121.643 139.152 119.247C138.16 116.851 137.9 114.215 138.404 111.671C138.908 109.127 140.154 106.79 141.985 104.955C143.815 103.121 146.147 101.872 148.686 101.365C151.226 100.859 153.858 101.118 156.25 102.11C158.642 103.102 160.687 104.783 162.125 106.939C163.564 109.095 164.332 111.631 164.332 114.224C164.328 117.699 162.949 121.031 160.496 123.489C158.044 125.947 154.719 127.331 151.25 127.336V127.336ZM151.25 103.274C149.086 103.273 146.97 103.914 145.17 105.118C143.37 106.321 141.967 108.032 141.138 110.035C140.309 112.037 140.092 114.241 140.514 116.368C140.935 118.494 141.977 120.447 143.508 121.98C145.038 123.513 146.988 124.556 149.11 124.979C151.233 125.402 153.433 125.184 155.432 124.354C157.431 123.524 159.139 122.118 160.341 120.315C161.542 118.512 162.183 116.392 162.181 114.224C162.177 111.321 161.024 108.538 158.975 106.485C156.926 104.433 154.148 103.278 151.25 103.274V103.274Z" fill="#07005A"/>
<path fill-rule="evenodd" clip-rule="evenodd" d="M35.2604 202.065C37.7048 200.744 39.1599 198.712 38.522 197.52C37.884 196.328 35.3823 196.443 32.9379 197.771C30.4935 199.1 29.0384 201.132 29.6764 202.316C30.3143 203.501 32.8161 203.394 35.2604 202.065Z" fill="#476FF5"/>
<path fill-rule="evenodd" clip-rule="evenodd" d="M32.4579 206.776C34.8234 208.212 37.3036 208.362 37.9918 207.192C38.6799 206.022 37.3323 203.932 34.9668 202.532C32.6012 201.132 30.121 200.945 29.4257 202.115C28.7304 203.286 30.1067 205.375 32.4579 206.776Z" fill="#476FF5"/>
<path fill-rule="evenodd" clip-rule="evenodd" d="M29.3894 202.18C30.6009 202.079 31.4109 200.026 31.1958 197.52C30.9808 195.014 29.841 193.125 28.6368 193.211C27.4325 193.297 26.6225 195.366 26.8304 197.872C27.0383 200.378 28.1493 202.288 29.3894 202.18Z" fill="#476FF5"/>
<path fill-rule="evenodd" clip-rule="evenodd" d="M28.8162 206.46C30.8663 205.067 31.9845 203.135 31.3107 202.151C30.6369 201.168 28.4434 201.483 26.379 202.869C24.3145 204.255 23.2178 206.194 23.8916 207.178C24.5654 208.161 26.7661 207.853 28.8162 206.46Z" fill="#476FF5"/>
<path fill-rule="evenodd" clip-rule="evenodd" d="M26.9237 202.884C28.9236 203.846 30.9307 203.817 31.411 202.826C31.8912 201.835 30.6511 200.241 28.6512 199.279C26.6513 198.317 24.6442 198.353 24.1639 199.344C23.6836 200.335 24.9237 201.929 26.9237 202.884Z" fill="#476FF5"/>
<path d="M30.8375 203.042C31.5541 203.042 32.1349 202.46 32.1349 201.742C32.1349 201.024 31.5541 200.442 30.8375 200.442C30.1209 200.442 29.54 201.024 29.54 201.742C29.54 202.46 30.1209 203.042 30.8375 203.042Z" fill="white"/>
<path d="M337.925 262.914H1.07523C0.790065 262.914 0.516575 262.8 0.314929 262.598C0.113283 262.396 0 262.122 0 261.837C0 261.551 0.113283 261.277 0.314929 261.075C0.516575 260.873 0.790065 260.76 1.07523 260.76H337.925C338.21 260.76 338.483 260.873 338.685 261.075C338.887 261.277 339 261.551 339 261.837C339 262.122 338.887 262.396 338.685 262.598C338.483 262.8 338.21 262.914 337.925 262.914V262.914Z" fill="#07005A"/>
<path d="M52.4354 255.173C51.6574 255.167 50.8905 254.988 50.1902 254.648C49.49 254.308 48.8741 253.817 48.3872 253.209C47.9003 252.601 47.5547 251.892 47.3754 251.134C47.1961 250.375 47.1877 249.586 47.3507 248.824C47.5137 248.062 47.8441 247.346 48.3179 246.728C48.7916 246.11 49.3969 245.605 50.0897 245.25C50.7825 244.895 51.5455 244.7 52.3232 244.677C53.1009 244.655 53.8738 244.806 54.5859 245.12L53.8691 246.65C53.3797 246.421 52.8451 246.306 52.3051 246.313C51.7651 246.321 51.2338 246.45 50.7508 246.692C50.2678 246.934 49.8457 247.282 49.5159 247.711C49.1861 248.139 48.9572 248.637 48.8463 249.166C48.7354 249.695 48.7453 250.243 48.8754 250.768C49.0054 251.293 49.2523 251.782 49.5974 252.198C49.9425 252.614 50.377 252.947 50.8685 253.171C51.3599 253.395 51.8956 253.505 52.4354 253.493C52.903 253.493 53.366 253.4 53.7974 253.22L54.4354 254.764C53.8028 255.033 53.1227 255.172 52.4354 255.173Z" fill="#07005A"/>
<path fill-rule="evenodd" clip-rule="evenodd" d="M53.2314 252.114V256.013C53.2314 257.298 53.74 258.531 54.6456 259.44C55.5513 260.35 56.7802 260.863 58.0628 260.867H66.2418C67.527 260.867 68.7595 260.356 69.6682 259.446C70.577 258.535 71.0875 257.301 71.0875 256.013V244.014C71.0875 243.521 70.8919 243.048 70.5437 242.699C70.1956 242.35 69.7233 242.155 69.2309 242.155H55.088C54.5956 242.155 54.1234 242.35 53.7752 242.699C53.427 243.048 53.2314 243.521 53.2314 244.014V252.114Z" fill="#476FF5"/>
<path fill-rule="evenodd" clip-rule="evenodd" d="M59.7762 206.819C59.7548 206.678 59.6978 206.545 59.6106 206.433C59.5234 206.32 59.409 206.232 59.2781 206.177C59.1473 206.121 59.0045 206.101 58.8633 206.116C58.7221 206.132 58.5872 206.183 58.4716 206.266C54.6007 208.994 50.0919 213.827 53.0452 221.625C56.3498 230.342 61.7044 228.088 61.7833 232.568V236.755C61.7839 236.901 61.8227 237.044 61.8959 237.17C61.9691 237.296 62.0742 237.401 62.2005 237.474C62.3268 237.546 62.4699 237.585 62.6156 237.584C62.7613 237.584 62.9044 237.546 63.0306 237.473C66.0197 235.771 70.5214 228.964 70.0769 222.458C69.568 214.947 62.0629 214.933 60.6507 210.337C60.2735 209.187 59.9813 208.011 59.7762 206.819V206.819Z" fill="white"/>
</g>
<mask id="path-79-inside-1" fill="white">
<path fill-rule="evenodd" clip-rule="evenodd" d="M306.185 83.2532C339.028 83.2532 365.652 64.6163 365.652 41.6266C365.652 18.6369 339.028 0 306.185 0C273.343 0 246.719 18.6369 246.719 41.6266C246.719 47.3571 248.373 52.8171 251.365 57.7855L242 69.1447L255.243 63.1131C265.655 75.1831 284.574 83.2532 306.185 83.2532Z"/>
</mask>
<path fill-rule="evenodd" clip-rule="evenodd" d="M306.185 83.2532C339.028 83.2532 365.652 64.6163 365.652 41.6266C365.652 18.6369 339.028 0 306.185 0C273.343 0 246.719 18.6369 246.719 41.6266C246.719 47.3571 248.373 52.8171 251.365 57.7855L242 69.1447L255.243 63.1131C265.655 75.1831 284.574 83.2532 306.185 83.2532Z" fill="white"/>
<path d="M251.365 57.7855L252.909 59.0577L253.809 57.9658L253.079 56.7536L251.365 57.7855ZM242 69.1447L240.457 67.8724L242.829 70.9648L242 69.1447ZM255.243 63.1131L256.757 61.8067L255.778 60.6716L254.414 61.293L255.243 63.1131ZM363.652 41.6266C363.652 52.2897 357.48 62.1478 347.088 69.4225C336.701 76.6929 322.247 81.2532 306.185 81.2532V85.2532C322.967 85.2532 338.245 80.495 349.381 72.6995C360.512 64.9084 367.652 53.9532 367.652 41.6266H363.652ZM306.185 2C322.247 2 336.701 6.56029 347.088 13.8306C357.48 21.1053 363.652 30.9635 363.652 41.6266H367.652C367.652 29.3 360.512 18.3448 349.381 10.5537C338.245 2.75814 322.967 -2 306.185 -2V2ZM248.719 41.6266C248.719 30.9635 254.891 21.1053 265.283 13.8306C275.669 6.56029 290.124 2 306.185 2V-2C289.404 -2 274.126 2.75814 262.989 10.5537C251.859 18.3448 244.719 29.3 244.719 41.6266H248.719ZM253.079 56.7536C250.256 52.0663 248.719 46.9595 248.719 41.6266H244.719C244.719 47.7546 246.49 53.5679 249.652 58.8173L253.079 56.7536ZM243.543 70.417L252.909 59.0577L249.822 56.5132L240.457 67.8724L243.543 70.417ZM254.414 61.293L241.171 67.3246L242.829 70.9648L256.072 64.9332L254.414 61.293ZM306.185 81.2532C285.015 81.2532 266.706 73.3398 256.757 61.8067L253.728 64.4194C264.603 77.0263 284.133 85.2532 306.185 85.2532V81.2532Z" fill="#07005A" mask="url(#path-79-inside-1)"/>
<path d="M294.06 34.88V49H291.22V42.86H285.18V49H282.36V34.88H285.18V40.6H291.22V34.88H294.06ZM307.038 43.04C307.038 43.32 307.005 43.64 306.938 44H298.818C298.858 44.9867 299.125 45.7133 299.618 46.18C300.111 46.6467 300.725 46.88 301.458 46.88C302.111 46.88 302.651 46.72 303.078 46.4C303.518 46.08 303.798 45.6467 303.918 45.1H306.898C306.751 45.8733 306.438 46.5667 305.958 47.18C305.478 47.7933 304.858 48.2733 304.098 48.62C303.351 48.9667 302.518 49.14 301.598 49.14C300.518 49.14 299.558 48.9133 298.718 48.46C297.878 47.9933 297.225 47.3333 296.758 46.48C296.291 45.6267 296.058 44.62 296.058 43.46C296.058 42.3 296.291 41.2933 296.758 40.44C297.225 39.5733 297.878 38.9133 298.718 38.46C299.558 38.0067 300.518 37.78 301.598 37.78C302.691 37.78 303.645 38.0067 304.458 38.46C305.285 38.9133 305.918 39.54 306.358 40.34C306.811 41.1267 307.038 42.0267 307.038 43.04ZM304.198 42.76C304.238 41.8533 303.998 41.1667 303.478 40.7C302.971 40.2333 302.345 40 301.598 40C300.838 40 300.198 40.2333 299.678 40.7C299.158 41.1667 298.871 41.8533 298.818 42.76H304.198ZM310.94 37.92L313.96 45.44L316.76 37.92H319.86L313.08 54.28H309.96L312.46 48.68L307.8 37.92H310.94ZM325.088 34.3L324.728 44.3H322.348L321.988 34.3H325.088ZM325.068 46.06V49H322.028V46.06H325.068Z" fill="#07005A"/>
<defs>
<clipPath id="clip0">
<rect width="339" height="205" fill="white" transform="translate(0 58)"/>
</clipPath>
</defs>
</svg>
