<svg width="219" height="157" viewBox="0 0 219 157" fill="none" xmlns="http://www.w3.org/2000/svg">
<g clip-path="url(#clip0)">
<path d="M117.73 113.779C139.481 113.779 157.113 96.3289 157.113 74.8027C157.113 53.2764 139.481 35.8259 117.73 35.8259C95.9791 35.8259 78.3467 53.2764 78.3467 74.8027C78.3467 96.3289 95.9791 113.779 117.73 113.779Z" fill="#F2F6FF"/>
<path d="M117.73 114.326C109.831 114.326 102.11 112.008 95.5429 107.665C88.9756 103.322 83.857 97.1494 80.8343 89.9275C77.8117 82.7056 77.0209 74.7588 78.5618 67.092C80.1027 59.4253 83.9062 52.3829 89.4912 46.8555C95.0763 41.3281 102.192 37.5639 109.939 36.0389C117.685 34.5139 125.715 35.2965 133.012 38.288C140.31 41.2794 146.547 46.3452 150.935 52.8447C155.323 59.3443 157.665 66.9857 157.665 74.8026C157.652 85.281 153.441 95.3266 145.954 102.736C138.468 110.145 128.317 114.313 117.73 114.326ZM117.73 36.3722C110.05 36.3722 102.542 38.6261 96.1564 42.8489C89.7706 47.0717 84.7935 53.0737 81.8545 60.096C78.9155 67.1182 78.1465 74.8453 79.6448 82.3C81.1431 89.7548 84.8414 96.6024 90.272 101.977C95.7026 107.352 102.622 111.012 110.154 112.495C117.687 113.977 125.494 113.216 132.59 110.308C139.685 107.399 145.75 102.473 150.017 96.1534C154.283 89.8336 156.561 82.4035 156.561 74.8026C156.549 64.6138 152.454 54.8456 145.175 47.641C137.895 40.4364 128.025 36.3838 117.73 36.3722Z" fill="#07005A"/>
<path d="M195.628 45.7158C208.231 45.7158 218.448 35.6043 218.448 23.1311C218.448 10.6579 208.231 0.546387 195.628 0.546387C183.025 0.546387 172.808 10.6579 172.808 23.1311C172.808 35.6043 183.025 45.7158 195.628 45.7158Z" fill="#F2F6FF"/>
<path d="M195.628 46.2622C191.005 46.2622 186.486 44.9056 182.643 42.3639C178.799 39.8222 175.803 36.2096 174.034 31.983C172.266 27.7563 171.803 23.1054 172.704 18.6184C173.606 14.1315 175.832 10.0099 179.101 6.77495C182.37 3.54001 186.534 1.33699 191.068 0.444468C195.602 -0.44805 200.301 0.0100223 204.572 1.76076C208.843 3.5115 212.493 6.47627 215.061 10.2802C217.629 14.084 219 18.5562 219 23.1311C218.992 29.2635 216.527 35.1425 212.146 39.4787C207.764 43.815 201.824 46.2545 195.628 46.2622ZM195.628 1.09282C191.223 1.09282 186.918 2.38534 183.256 4.80694C179.594 7.22854 176.74 10.6704 175.055 14.6974C173.369 18.7244 172.928 23.1556 173.787 27.4306C174.647 31.7056 176.768 35.6324 179.882 38.7145C182.996 41.7966 186.964 43.8956 191.283 44.7459C195.603 45.5963 200.08 45.1599 204.149 43.4918C208.218 41.8238 211.696 38.9991 214.143 35.3749C216.59 31.7507 217.896 27.4899 217.896 23.1311C217.889 17.2883 215.541 11.6867 211.366 7.55514C207.191 3.42362 201.531 1.09957 195.628 1.09282Z" fill="#07005A"/>
<path d="M190.475 156.454C203.078 156.454 213.295 146.342 213.295 133.869C213.295 121.396 203.078 111.284 190.475 111.284C177.872 111.284 167.655 121.396 167.655 133.869C167.655 146.342 177.872 156.454 190.475 156.454Z" fill="#F2F6FF"/>
<path d="M190.475 157C185.852 157 181.333 155.643 177.49 153.102C173.646 150.56 170.651 146.947 168.882 142.721C167.113 138.494 166.65 133.843 167.552 129.356C168.453 124.869 170.679 120.748 173.948 117.513C177.217 114.278 181.381 112.075 185.915 111.182C190.449 110.29 195.148 110.748 199.419 112.499C203.69 114.249 207.34 117.214 209.908 121.018C212.476 124.822 213.847 129.294 213.847 133.869C213.839 140.001 211.374 145.88 206.993 150.217C202.611 154.553 196.671 156.992 190.475 157ZM190.475 111.831C186.071 111.831 181.765 113.123 178.103 115.545C174.441 117.966 171.587 121.408 169.902 125.435C168.216 129.462 167.775 133.893 168.635 138.168C169.494 142.443 171.615 146.37 174.729 149.452C177.843 152.534 181.811 154.633 186.131 155.484C190.45 156.334 194.927 155.898 198.996 154.23C203.065 152.562 206.543 149.737 208.99 146.113C211.437 142.489 212.743 138.228 212.743 133.869C212.736 128.026 210.388 122.424 206.213 118.293C202.039 114.161 196.379 111.837 190.475 111.831Z" fill="#07005A"/>
<path d="M23.3724 97.442C35.9756 97.442 46.1926 87.3305 46.1926 74.8573C46.1926 62.3842 35.9756 52.2726 23.3724 52.2726C10.7692 52.2726 0.552246 62.3842 0.552246 74.8573C0.552246 87.3305 10.7692 97.442 23.3724 97.442Z" fill="#F2F6FF"/>
<path d="M23.3723 97.9884C18.7497 97.9884 14.2309 96.6318 10.3873 94.0901C6.54379 91.5484 3.54811 87.9358 1.77912 83.7092C0.0101268 79.4825 -0.452722 74.8316 0.449102 70.3446C1.35093 65.8577 3.57692 61.7361 6.84559 58.5011C10.1143 55.2662 14.2788 53.0632 18.8126 52.1707C23.3464 51.2781 28.0457 51.7362 32.3165 53.487C36.5872 55.2377 40.2374 58.2025 42.8056 62.0063C45.3738 65.8102 46.7445 70.2824 46.7445 74.8573C46.7368 80.9897 44.2718 86.8687 39.8904 91.2049C35.5089 95.5412 29.5686 97.9807 23.3723 97.9884ZM23.3723 52.819C18.9681 52.819 14.6628 54.1115 11.0008 56.5331C7.33884 58.9547 4.48469 62.3966 2.79927 66.4236C1.11385 70.4506 0.672869 74.8817 1.53209 79.1567C2.39131 83.4318 4.51213 87.3586 7.62638 90.4407C10.7406 93.5228 14.7084 95.6218 19.028 96.4721C23.3476 97.3225 27.8249 96.886 31.8939 95.218C35.9629 93.55 39.4407 90.7253 41.8875 87.1011C44.3343 83.4769 45.6403 79.2161 45.6403 74.8573C45.6335 69.0145 43.2852 63.4129 39.1107 59.2813C34.9361 55.1498 29.276 52.8258 23.3723 52.819Z" fill="#07005A"/>
<path fill-rule="evenodd" clip-rule="evenodd" d="M187.184 25.018V27.852C184.725 28.2964 184.151 36.4743 189.889 37.1555H201.888C204.833 37.1555 207.972 35.0099 207.582 31.4729C207.192 27.9358 205.333 27.6335 205.333 27.6335V25.018H187.184Z" fill="#07005A"/>
<path fill-rule="evenodd" clip-rule="evenodd" d="M205.334 19.1351C205.334 15.1827 204.73 13.4342 202.82 11.9845C201.27 10.8115 201.156 10.7022 201.156 9.16501L200.442 8.56396C200.442 8.56396 199.445 12.5709 200.254 13.1465C201.064 13.722 202.757 14.7857 203.232 19.7033L205.334 19.8709V19.1351Z" fill="#07005A"/>
<path d="M206.118 17.4376C206.04 17.4366 205.966 17.4055 205.912 17.3509C205.857 17.2964 205.827 17.2228 205.827 17.1461C205.827 11.8278 201.966 10.8261 200.7 10.4946C200.587 10.4694 200.477 10.4378 200.368 10.3999C200.302 10.3663 200.252 10.3092 200.226 10.2402C200.201 10.1711 200.203 10.0952 200.232 10.0275C200.26 9.95978 200.314 9.90537 200.382 9.87513C200.449 9.84489 200.526 9.84106 200.596 9.8644C200.679 9.89203 200.762 9.91514 200.847 9.93361C204.527 10.8953 206.412 13.3213 206.412 17.1461C206.412 17.2234 206.381 17.2975 206.326 17.3522C206.271 17.4069 206.196 17.4376 206.118 17.4376Z" fill="#07005A"/>
<path fill-rule="evenodd" clip-rule="evenodd" d="M202.963 25.1565C204.038 25.4515 206.276 26.0234 206.523 22.7851C206.769 19.5467 203.998 19.7361 202.989 20.0312L203.328 20.2825L202.963 25.1565Z" fill="white"/>
<path d="M204.358 25.681C203.858 25.6652 203.363 25.5819 202.886 25.4333C202.82 25.4164 202.763 25.3771 202.724 25.3225C202.685 25.2678 202.667 25.2013 202.672 25.1346L203.04 20.3991L202.834 20.2461C202.79 20.2143 202.756 20.1709 202.735 20.1208C202.715 20.0706 202.709 20.0158 202.719 19.9626C202.728 19.9093 202.753 19.8599 202.79 19.8198C202.826 19.7798 202.874 19.7507 202.926 19.7361C203.604 19.5358 205.002 19.3937 205.933 20.1332C206.622 20.6796 206.924 21.5902 206.832 22.7887C206.74 23.9871 206.371 24.8322 205.727 25.2803C205.326 25.5544 204.846 25.6948 204.358 25.681ZM203.254 24.9524C203.843 25.1054 204.726 25.2766 205.352 24.8395C205.845 24.4971 206.136 23.8014 206.213 22.7814C206.291 21.7614 206.059 21.0366 205.532 20.6176C204.963 20.2358 204.265 20.0905 203.589 20.2133C203.596 20.2481 203.596 20.2841 203.589 20.3189L203.254 24.9524Z" fill="#07005A"/>
<path fill-rule="evenodd" clip-rule="evenodd" d="M189.669 24.9087C188.594 25.2074 186.356 25.7793 186.11 22.541C185.863 19.3026 188.638 19.4884 189.643 19.7871L189.308 20.0348L189.669 24.9087Z" fill="white"/>
<path d="M188.274 25.4369C187.799 25.4568 187.329 25.3295 186.93 25.0727C186.282 24.6246 185.907 23.7868 185.826 22.5811C185.745 21.3753 186.04 20.4719 186.724 19.9255C187.655 19.197 189.054 19.3281 189.735 19.5285C189.787 19.5439 189.833 19.5731 189.868 19.613C189.904 19.6529 189.928 19.7018 189.937 19.7543C189.948 19.8072 189.943 19.8619 189.924 19.9123C189.904 19.9626 189.871 20.0063 189.827 20.0385L189.617 20.1914L189.985 24.9087C189.989 24.9752 189.971 25.041 189.932 25.0954C189.893 25.1497 189.836 25.1893 189.772 25.2074C189.286 25.3521 188.781 25.4293 188.274 25.4369ZM188.542 19.9219C188.016 19.898 187.497 20.0521 187.07 20.359C186.54 20.7779 186.312 21.5065 186.389 22.5191C186.467 23.5318 186.757 24.2385 187.25 24.5809C187.876 25.0144 188.76 24.8468 189.345 24.6938L188.999 20.0567C188.995 20.0228 188.995 19.9886 188.999 19.9547C188.847 19.9351 188.695 19.9241 188.542 19.9219Z" fill="#07005A"/>
<path fill-rule="evenodd" clip-rule="evenodd" d="M193.861 13.4452C192.278 13.4452 189.378 14.8221 189.378 17.4995V23.9798C189.378 23.9798 189.238 30.0449 195.333 30.8609C201.958 31.7461 203.431 25.9141 203.431 23.0947C203.431 20.4974 203.729 16.0351 202.694 14.742C201.66 13.4488 200.431 13.4088 199.595 13.4088C198.76 13.4088 193.861 13.4452 193.861 13.4452Z" fill="white"/>
<path d="M196.647 31.2397C196.196 31.2391 195.744 31.2087 195.296 31.1487C189.014 30.3072 189.084 24.0418 189.084 23.9726V17.4849C189.091 16.8383 189.255 16.2027 189.562 15.6321C189.87 15.0615 190.312 14.5725 190.85 14.2065C191.723 13.5554 192.77 13.1751 193.861 13.1137C193.957 13.1137 198.782 13.0773 199.603 13.0773C200.424 13.0773 201.789 13.0773 202.934 14.5343C203.843 15.6854 203.788 18.9529 203.74 21.5793C203.74 22.1111 203.74 22.6175 203.74 23.0655C203.74 25.1491 203.037 27.9832 201.06 29.6916C199.838 30.7372 198.263 31.2898 196.647 31.2397ZM193.861 13.733C192.389 13.733 189.669 15.0261 189.669 17.4995V23.9798C189.669 24.2239 189.614 29.8081 195.374 30.5731C197.553 30.8645 199.331 30.4311 200.656 29.2872C202.496 27.7027 203.136 25.0508 203.136 23.0947C203.136 22.643 203.136 22.133 203.155 21.5975C203.199 19.197 203.254 15.9076 202.474 14.9205C201.506 13.6965 200.313 13.6965 199.603 13.6965C198.778 13.6965 193.913 13.733 193.865 13.733H193.861Z" fill="#07005A"/>
<path fill-rule="evenodd" clip-rule="evenodd" d="M187.184 19.8672C187.184 19.8672 188.421 19.4702 188.91 19.6377C189.4 19.8053 194.593 20.6249 198.808 17.718C203.022 14.8112 200.597 12.4726 200.965 10.4509C201.333 8.42916 201.664 6.72074 195.856 7.67148C190.048 8.62222 187.169 12.2212 187.169 18.0969L187.184 19.8672Z" fill="#07005A"/>
<path d="M186.647 27.506C186.57 27.506 186.496 27.4756 186.441 27.4217C186.387 27.3677 186.356 27.2945 186.356 27.2182C186.356 19.8344 186.96 19.1788 187.81 19.0622C187.884 19.0577 187.957 19.081 188.014 19.1275C188.072 19.174 188.109 19.2402 188.119 19.3129C188.13 19.3856 188.112 19.4594 188.069 19.5196C188.027 19.5799 187.963 19.622 187.891 19.6377C187.449 19.696 186.941 20.614 186.941 27.2182C186.941 27.2563 186.934 27.294 186.919 27.3292C186.904 27.3643 186.882 27.3962 186.855 27.423C186.827 27.4497 186.795 27.4709 186.759 27.4851C186.723 27.4993 186.685 27.5064 186.647 27.506Z" fill="#07005A"/>
<path d="M187.998 23.9289C188.061 23.9289 188.112 23.8783 188.112 23.8159C188.112 23.7536 188.061 23.703 187.998 23.703C187.935 23.703 187.884 23.7536 187.884 23.8159C187.884 23.8783 187.935 23.9289 187.998 23.9289Z" fill="#FF8585"/>
<path d="M187.998 24.2202C187.941 24.2256 187.884 24.2192 187.83 24.2014C187.776 24.1836 187.726 24.1548 187.684 24.1169C187.642 24.079 187.608 24.0328 187.585 23.9813C187.562 23.9298 187.55 23.8741 187.55 23.8177C187.55 23.7614 187.562 23.7057 187.585 23.6542C187.608 23.6027 187.642 23.5565 187.684 23.5186C187.726 23.4807 187.776 23.4519 187.83 23.4341C187.884 23.4163 187.941 23.4099 187.998 23.4152C188.099 23.4248 188.193 23.4713 188.261 23.5457C188.33 23.6201 188.367 23.7171 188.367 23.8177C188.367 23.9183 188.33 24.0153 188.261 24.0897C188.193 24.1642 188.099 24.2107 187.998 24.2202ZM187.998 23.6411C187.974 23.6406 187.951 23.6447 187.929 23.6533C187.907 23.6619 187.887 23.6747 187.87 23.691C187.853 23.7073 187.84 23.7267 187.831 23.7481C187.822 23.7696 187.817 23.7926 187.817 23.8159C187.817 23.8632 187.836 23.9086 187.87 23.9421C187.904 23.9756 187.95 23.9944 187.998 23.9944C188.021 23.9944 188.044 23.9898 188.066 23.9808C188.088 23.9717 188.107 23.9585 188.124 23.9419C188.14 23.9253 188.153 23.9056 188.162 23.8839C188.171 23.8623 188.175 23.8392 188.174 23.8159C188.175 23.7928 188.171 23.7699 188.162 23.7484C188.153 23.727 188.14 23.7075 188.124 23.6912C188.107 23.6748 188.087 23.662 188.066 23.6534C188.044 23.6447 188.021 23.6406 187.998 23.6411Z" fill="#FF8585"/>
<path d="M204.638 24.1219C204.701 24.1219 204.752 24.0713 204.752 24.009C204.752 23.9466 204.701 23.8961 204.638 23.8961C204.575 23.8961 204.524 23.9466 204.524 24.009C204.524 24.0713 204.575 24.1219 204.638 24.1219Z" fill="#FF8585"/>
<path d="M204.646 24.406C204.565 24.4067 204.485 24.3836 204.418 24.3396C204.35 24.2957 204.297 24.2328 204.266 24.1589C204.234 24.0851 204.225 24.0037 204.241 23.925C204.256 23.8464 204.295 23.774 204.352 23.7171C204.409 23.6602 204.482 23.6213 204.561 23.6054C204.64 23.5895 204.723 23.5973 204.797 23.6278C204.872 23.6583 204.936 23.7101 204.981 23.7767C205.026 23.8432 205.051 23.9215 205.051 24.0017C205.051 24.1083 205.008 24.2106 204.932 24.2863C204.856 24.362 204.753 24.405 204.646 24.406ZM204.646 23.8268C204.622 23.8263 204.599 23.8305 204.577 23.8391C204.555 23.8476 204.535 23.8604 204.518 23.8767C204.502 23.893 204.488 23.9125 204.479 23.9339C204.47 23.9554 204.465 23.9784 204.465 24.0017C204.465 24.05 204.485 24.0963 204.519 24.1305C204.554 24.1646 204.601 24.1838 204.649 24.1838C204.698 24.1838 204.745 24.1646 204.779 24.1305C204.814 24.0963 204.833 24.05 204.833 24.0017C204.832 23.9784 204.827 23.9555 204.817 23.9344C204.807 23.9133 204.793 23.8944 204.775 23.8788C204.758 23.8632 204.737 23.8512 204.715 23.8435C204.693 23.8358 204.669 23.8326 204.646 23.8341V23.8268Z" fill="#FF8585"/>
<path fill-rule="evenodd" clip-rule="evenodd" d="M198.962 19.5394C199.294 19.5394 199.662 19.9292 199.927 19.7652C200.192 19.6013 199.927 19.1096 199.445 18.9347C198.962 18.7599 198.035 18.8837 198.061 19.2625C198.086 19.6414 198.631 19.5248 198.962 19.5394Z" fill="#07005A"/>
<path d="M196.022 25.0835H195.996C195.885 25.0788 195.777 25.048 195.681 24.9934C195.585 24.9389 195.504 24.8624 195.444 24.7703C195.168 24.406 195.311 23.8013 195.418 23.3678C195.418 23.3023 195.448 23.2476 195.455 23.2003C195.534 22.4428 195.571 21.6815 195.565 20.9199C195.565 20.8436 195.596 20.7704 195.65 20.7165C195.705 20.6625 195.779 20.6322 195.856 20.6322C195.895 20.6317 195.933 20.6388 195.968 20.653C196.004 20.6673 196.037 20.6884 196.064 20.7152C196.091 20.7419 196.113 20.7738 196.128 20.809C196.143 20.8441 196.151 20.8818 196.15 20.9199C196.157 21.7206 196.117 22.5209 196.029 23.3168C196.029 23.3678 196.003 23.4334 195.985 23.5026C195.93 23.7321 195.801 24.2712 195.919 24.4315C195.959 24.4861 195.989 24.4898 196 24.4898C196.044 24.4927 196.088 24.4812 196.125 24.457C196.176 24.4035 196.247 24.3717 196.322 24.3683C196.396 24.3649 196.47 24.3902 196.526 24.4388C196.585 24.4888 196.621 24.5597 196.627 24.636C196.633 24.7124 196.609 24.7881 196.559 24.8468C196.418 24.9927 196.225 25.0778 196.022 25.0835Z" fill="#07005A"/>
<path d="M196.71 26.996C196.441 27.0047 196.175 26.9445 195.937 26.8212C195.89 26.7979 195.849 26.7651 195.816 26.725C195.783 26.6848 195.76 26.6382 195.746 26.5883C195.733 26.5383 195.731 26.4862 195.74 26.4353C195.748 26.3843 195.768 26.3358 195.797 26.293C195.85 26.2053 195.935 26.1417 196.035 26.1158C196.135 26.0899 196.241 26.1038 196.33 26.1546C196.577 26.2421 196.846 26.2421 197.092 26.1546C197.16 26.1371 197.222 26.1066 197.277 26.0646C197.333 26.0227 197.378 25.9703 197.413 25.9105C197.43 25.8605 197.458 25.8146 197.494 25.7757C197.53 25.7367 197.573 25.7054 197.622 25.6839C197.671 25.6623 197.724 25.6509 197.777 25.6503C197.83 25.6497 197.883 25.66 197.933 25.6805C197.982 25.7009 198.026 25.7312 198.063 25.7694C198.1 25.8076 198.129 25.8528 198.147 25.9024C198.166 25.952 198.174 26.0048 198.171 26.0575C198.168 26.1103 198.154 26.1619 198.13 26.2092C198.056 26.3724 197.947 26.5176 197.81 26.6346C197.674 26.7516 197.513 26.8377 197.339 26.8867C197.136 26.9544 196.924 26.9913 196.71 26.996Z" fill="#07005A"/>
<path fill-rule="evenodd" clip-rule="evenodd" d="M198.639 21.8343C198.878 21.8343 199.073 21.5356 199.073 21.1677C199.073 20.7997 198.878 20.501 198.639 20.501C198.399 20.501 198.201 20.7997 198.201 21.1677C198.201 21.5356 198.388 21.8343 198.639 21.8343Z" fill="#07005A"/>
<path fill-rule="evenodd" clip-rule="evenodd" d="M193.305 21.5902C193.5 21.5902 193.673 21.3461 193.673 21.0438C193.673 20.7415 193.511 20.501 193.305 20.501C193.099 20.501 192.937 20.7451 192.937 21.0438C192.937 21.3425 193.106 21.5902 193.305 21.5902Z" fill="#07005A"/>
<path d="M99.6687 69.3678C99.5474 69.3673 99.4295 69.3276 99.3331 69.2545C99.2367 69.1815 99.1672 69.0793 99.135 68.9635C98.3363 66.0894 98.7669 63.4375 100.364 61.3138C102.293 58.7421 105.388 57.5728 106.541 57.5436C106.613 57.5402 106.686 57.5514 106.755 57.5765C106.823 57.6017 106.886 57.6402 106.939 57.6899C106.992 57.7396 107.034 57.7994 107.063 57.8656C107.092 57.9319 107.107 58.0033 107.107 58.0755C107.109 58.1472 107.097 58.2187 107.071 58.2857C107.045 58.3527 107.006 58.4141 106.956 58.4662C106.906 58.5183 106.846 58.5601 106.78 58.5893C106.714 58.6185 106.642 58.6346 106.57 58.6364C105.753 58.6547 102.967 59.6783 101.251 61.9659C99.838 63.8528 99.4847 66.1185 100.202 68.6939C100.222 68.763 100.227 68.8353 100.218 68.9065C100.21 68.9778 100.186 69.0465 100.151 69.1089C100.115 69.1712 100.066 69.2259 100.009 69.2697C99.9516 69.3135 99.886 69.3456 99.8159 69.3642C99.7673 69.3724 99.7177 69.3736 99.6687 69.3678Z" fill="#07005A"/>
<path d="M179.433 137.147C180.856 137.147 182.009 135.679 182.009 133.869C182.009 132.058 180.856 130.59 179.433 130.59C178.01 130.59 176.856 132.058 176.856 133.869C176.856 135.679 178.01 137.147 179.433 137.147Z" fill="white"/>
<path d="M179.433 137.694C177.707 137.694 176.304 135.978 176.304 133.869C176.304 131.76 177.707 130.044 179.433 130.044C181.159 130.044 182.561 131.76 182.561 133.869C182.561 135.978 181.159 137.694 179.433 137.694ZM179.433 131.137C178.329 131.137 177.408 132.361 177.408 133.869C177.408 135.377 178.318 136.601 179.433 136.601C180.548 136.601 181.457 135.377 181.457 133.869C181.457 132.361 180.548 131.137 179.433 131.137Z" fill="#07005A"/>
<path d="M201.517 137.147C202.94 137.147 204.093 135.679 204.093 133.869C204.093 132.058 202.94 130.59 201.517 130.59C200.094 130.59 198.94 132.058 198.94 133.869C198.94 135.679 200.094 137.147 201.517 137.147Z" fill="white"/>
<path d="M201.517 137.694C199.791 137.694 198.388 135.978 198.388 133.869C198.388 131.76 199.791 130.044 201.517 130.044C203.243 130.044 204.645 131.76 204.645 133.869C204.645 135.978 203.243 137.694 201.517 137.694ZM201.517 131.137C200.413 131.137 199.492 132.361 199.492 133.869C199.492 135.377 200.402 136.601 201.517 136.601C202.632 136.601 203.541 135.377 203.541 133.869C203.541 132.361 202.632 131.137 201.517 131.137Z" fill="#07005A"/>
<path d="M190.659 146.436C196.554 146.436 201.333 140.891 201.333 134.051C201.333 127.211 196.554 121.666 190.659 121.666C184.764 121.666 179.985 127.211 179.985 134.051C179.985 140.891 184.764 146.436 190.659 146.436Z" fill="white"/>
<path d="M190.659 146.983C184.468 146.983 179.433 141.183 179.433 134.051C179.433 126.919 184.468 121.12 190.659 121.12C196.85 121.12 201.885 126.919 201.885 134.051C201.885 141.183 196.85 146.983 190.659 146.983ZM190.659 122.212C185.079 122.212 180.537 127.523 180.537 134.051C180.537 140.579 185.079 145.89 190.659 145.89C196.239 145.89 200.781 140.579 200.781 134.051C200.781 127.523 196.239 122.212 190.659 122.212Z" fill="#07005A"/>
<path fill-rule="evenodd" clip-rule="evenodd" d="M129.122 82.8785C131.15 83.4395 135.379 84.5177 135.839 78.409C136.299 72.3002 131.072 72.6462 129.192 73.2181L129.825 73.688L129.122 82.8785Z" fill="white"/>
<path d="M131.768 83.8693C130.819 83.8473 129.878 83.6953 128.971 83.4177C128.848 83.3842 128.741 83.3096 128.668 83.2066C128.595 83.1036 128.56 82.9786 128.569 82.853L129.232 73.9539L128.842 73.6625C128.76 73.6019 128.696 73.5199 128.659 73.4256C128.621 73.3314 128.611 73.2286 128.629 73.1289C128.646 73.0291 128.692 72.9362 128.76 72.8606C128.829 72.785 128.917 72.7297 129.015 72.7009C130.296 72.3366 132.935 72.0525 134.694 73.4512C135.99 74.4821 136.56 76.1687 136.391 78.4636C136.222 80.7585 135.515 82.3176 134.297 83.1663C133.547 83.6533 132.664 83.8989 131.768 83.8693ZM129.718 82.4706C130.822 82.7583 132.497 83.0789 133.675 82.2593C134.613 81.6072 135.147 80.2995 135.305 78.3689C135.463 76.4383 135.014 75.0905 134.017 74.2891C133.019 73.4877 131.485 73.3784 130.336 73.5277C130.355 73.5904 130.362 73.6557 130.358 73.7208L129.718 82.4706Z" fill="#07005A"/>
<path fill-rule="evenodd" clip-rule="evenodd" d="M104.031 82.4159C102.002 82.9769 97.7734 84.0551 97.3096 77.9463C96.8459 71.8375 102.095 72.1836 103.979 72.7482L103.342 73.2181L104.031 82.4159Z" fill="white"/>
<path d="M101.395 83.4176C100.493 83.4427 99.6046 83.1879 98.8554 82.6891C97.6335 81.8403 96.9305 80.2594 96.7612 77.9864C96.5918 75.7133 97.1587 74.0049 98.4543 72.974C100.214 71.5752 102.871 71.8448 104.137 72.2236C104.235 72.2525 104.324 72.3078 104.392 72.3834C104.46 72.459 104.506 72.5519 104.524 72.6516C104.541 72.7514 104.531 72.8542 104.493 72.9484C104.456 73.0427 104.392 73.1247 104.31 73.1853L103.916 73.4767L104.579 82.3758C104.589 82.5015 104.555 82.6268 104.482 82.73C104.408 82.8332 104.301 82.9076 104.178 82.9404C103.277 83.2261 102.34 83.3867 101.395 83.4176ZM101.899 73.0141C100.914 72.9737 99.944 73.2638 99.1462 73.8373C98.1524 74.6278 97.7181 76.0011 97.8617 77.9172C98.0052 79.8332 98.5536 81.1555 99.4885 81.8076C100.67 82.6272 102.334 82.3066 103.445 82.0188L102.794 73.2764C102.787 73.2114 102.793 73.1458 102.812 73.0833C102.51 73.0354 102.205 73.0086 101.899 73.0032V73.0141Z" fill="#07005A"/>
<path fill-rule="evenodd" clip-rule="evenodd" d="M111.944 60.7747C108.955 60.7747 103.479 63.3756 103.479 68.4243V80.6528C103.479 80.6528 103.214 92.1018 114.723 93.639C127.237 95.3147 130.001 84.3065 130.001 78.9808C130.001 74.0778 130.565 65.6559 128.629 63.2153C126.693 60.7747 124.352 60.6982 122.78 60.6982C121.208 60.6982 111.944 60.7747 111.944 60.7747Z" fill="white"/>
<path d="M117.2 94.3639C116.347 94.3617 115.494 94.3033 114.649 94.1891C102.786 92.6045 102.922 80.7658 102.926 80.6456V68.4316C102.926 65.3645 104.737 63.3865 106.261 62.2682C107.943 61.0297 110.173 60.2283 111.94 60.2283C112.124 60.2283 121.226 60.1591 122.78 60.1591C124.219 60.1591 126.906 60.1591 129.063 62.8838C130.785 65.0694 130.675 71.2256 130.586 76.1833C130.568 77.1923 130.553 78.143 130.553 78.9881C130.553 82.9222 129.221 88.2734 125.492 91.4971C123.302 93.4059 120.505 94.3639 117.2 94.3639ZM111.944 61.3211C109.18 61.3211 104.03 63.7617 104.03 68.4316V80.6601C104.03 81.1191 103.924 91.6538 114.796 93.1072C118.911 93.6536 122.268 92.8376 124.767 90.6739C128.216 87.6905 129.449 82.6818 129.449 78.9881C129.449 78.1357 129.449 77.1668 129.482 76.1614C129.563 71.6299 129.674 65.4264 128.194 63.5577C126.354 61.2519 124.119 61.2519 122.78 61.2519C121.223 61.2519 112.039 61.3211 111.947 61.3211H111.944Z" fill="#07005A"/>
<path fill-rule="evenodd" clip-rule="evenodd" d="M121.65 75.8773C122.107 75.8773 122.475 75.3127 122.475 74.6205C122.475 73.9284 122.107 73.3602 121.65 73.3602C121.194 73.3602 120.826 73.9248 120.826 74.6205C120.826 75.3163 121.194 75.8773 121.65 75.8773Z" fill="#07005A"/>
<path fill-rule="evenodd" clip-rule="evenodd" d="M111.583 75.6441C112.04 75.6441 112.408 75.0831 112.408 74.3874C112.408 73.6916 112.04 73.127 111.583 73.127C111.127 73.127 110.759 73.6916 110.759 74.3874C110.759 75.0831 111.127 75.6441 111.583 75.6441Z" fill="#07005A"/>
<path d="M116.309 81.3996C116.165 81.402 116.023 81.3708 115.893 81.3085C115.722 81.2193 115.581 81.0831 115.487 80.9164C115.392 80.7497 115.348 80.5596 115.36 80.3687C115.312 80.0882 115.212 79.0209 115.146 74.9848C115.145 74.9293 115.155 74.8742 115.176 74.8226C115.196 74.7709 115.227 74.7238 115.266 74.6839C115.305 74.644 115.351 74.612 115.403 74.5899C115.454 74.5678 115.51 74.5559 115.566 74.555C115.678 74.555 115.785 74.5985 115.865 74.6762C115.945 74.7538 115.991 74.8595 115.993 74.9703C116.066 79.5528 116.188 80.2048 116.195 80.2303C116.2 80.2592 116.2 80.2888 116.195 80.3177C116.195 80.4853 116.239 80.5436 116.25 80.5472C116.261 80.5509 116.493 80.5691 116.88 80.2777C116.924 80.2439 116.975 80.2193 117.03 80.205C117.084 80.1908 117.141 80.1873 117.196 80.1948C117.252 80.2022 117.306 80.2204 117.354 80.2484C117.403 80.2764 117.446 80.3136 117.48 80.3578C117.514 80.4021 117.539 80.4525 117.553 80.5063C117.567 80.5601 117.571 80.6161 117.563 80.6713C117.556 80.7264 117.537 80.7795 117.509 80.8276C117.481 80.8757 117.443 80.9178 117.399 80.9516C117.093 81.2127 116.711 81.3698 116.309 81.3996Z" fill="#07005A"/>
<path d="M117.436 86.2007C116.747 86.1894 116.064 86.0727 115.411 85.8546C115.341 85.8342 115.276 85.8002 115.219 85.7546C115.163 85.7089 115.116 85.6525 115.082 85.5888C115.048 85.525 115.026 85.4551 115.02 85.3831C115.013 85.3112 115.021 85.2386 115.043 85.1698C115.087 85.0309 115.184 84.9146 115.313 84.8464C115.443 84.7781 115.595 84.7634 115.735 84.8055C117.064 85.2244 118.187 85.1698 118.901 84.7035C119.078 84.5941 119.228 84.4466 119.339 84.2719C119.451 84.0971 119.521 83.8998 119.545 83.6945C119.548 83.6223 119.566 83.5516 119.597 83.4864C119.629 83.4212 119.673 83.363 119.727 83.3151C119.782 83.2672 119.846 83.2306 119.915 83.2075C119.984 83.1845 120.057 83.1754 120.13 83.1809C120.276 83.1893 120.412 83.2546 120.51 83.3625C120.607 83.4704 120.657 83.612 120.649 83.7564C120.614 84.128 120.495 84.487 120.301 84.8068C120.107 85.1266 119.842 85.3988 119.526 85.6032C118.908 86.0106 118.178 86.2193 117.436 86.2007Z" fill="#07005A"/>
<path d="M119.714 73.1635C119.603 73.162 119.496 73.1279 119.406 73.0655C119.315 73.0031 119.245 72.9152 119.206 72.8133C119.166 72.7113 119.158 72.6 119.183 72.4936C119.208 72.3872 119.265 72.2906 119.346 72.2164L119.603 71.9687C120.428 71.1855 121.554 70.1072 123.899 71.6955C124.008 71.7813 124.081 71.9051 124.102 72.0419C124.123 72.1787 124.091 72.3183 124.012 72.4325C123.933 72.5467 123.813 72.6271 123.677 72.6572C123.54 72.6874 123.397 72.6653 123.277 72.5952C121.676 71.5024 121.157 72.0087 120.373 72.7555L120.089 73.0214C119.987 73.1141 119.853 73.1648 119.714 73.1635Z" fill="#07005A"/>
<path d="M109.143 72.577C109.032 72.5764 108.924 72.5425 108.832 72.4799C108.741 72.4173 108.671 72.3288 108.631 72.2261C108.591 72.1234 108.584 72.0112 108.609 71.9041C108.635 71.7971 108.693 71.7003 108.775 71.6263L108.933 71.4806C109.853 70.6282 111.241 69.3423 113.954 71.3203C114.016 71.3612 114.069 71.4143 114.111 71.4762C114.152 71.5382 114.179 71.6078 114.193 71.6808C114.206 71.7538 114.203 71.8286 114.186 71.9007C114.169 71.9729 114.137 72.0408 114.093 72.1004C114.048 72.1601 113.992 72.2101 113.928 72.2475C113.863 72.2849 113.791 72.3089 113.717 72.3181C113.643 72.3272 113.567 72.3213 113.495 72.3007C113.423 72.2801 113.356 72.2452 113.299 72.1982C111.326 70.7593 110.567 71.4696 109.688 72.2783L109.522 72.4313C109.419 72.5249 109.283 72.5769 109.143 72.577Z" fill="#07005A"/>
<path fill-rule="evenodd" clip-rule="evenodd" d="M100.688 65.5867C101.586 59.2958 105.734 57.9844 105.734 57.9844C105.366 53.6605 109.577 50.3056 113.493 50.0069C117.41 49.7082 121.252 50.8265 122.382 53.8827C125.091 51.4239 128.271 52.3164 129.375 53.6605C130.48 55.0047 130.656 55.9991 130.354 57.7731C133.443 56.0465 137.208 56.3415 138.036 59.3978C138.864 62.454 135.85 68.5045 127.866 70.9524C119.883 73.4003 107.155 70.5043 106.78 65.288C104.962 67.2113 104.082 71.3021 103.927 73.1781C103.92 73.267 103.888 73.3521 103.834 73.4233C103.78 73.4945 103.706 73.5489 103.622 73.58C103.537 73.611 103.445 73.6175 103.357 73.5985C103.269 73.5796 103.189 73.5361 103.125 73.4731C101.303 71.7283 100.482 67.1057 100.688 65.5867Z" fill="#07005A"/>
<path d="M176.335 35.207L150.209 52.7524L151.036 53.9581L177.162 36.4127L176.335 35.207Z" fill="#07005A"/>
<path d="M148.02 99.6448L147.119 100.797L172.354 120.134L173.255 118.982L148.02 99.6448Z" fill="#07005A"/>
<path d="M78.3467 74.0742H46.1924V75.5312H78.3467V74.0742Z" fill="#07005A"/>
<path d="M24.6606 68.4826C24.6606 67.879 24.1662 67.3898 23.5564 67.3898C22.9465 67.3898 22.4521 67.879 22.4521 68.4826V81.232C22.4521 81.8355 22.9465 82.3248 23.5564 82.3248C24.1662 82.3248 24.6606 81.8355 24.6606 81.232V68.4826Z" fill="#07005A"/>
<path d="M29.9974 75.9501C30.6072 75.9501 31.1016 75.4609 31.1016 74.8573C31.1016 74.2538 30.6072 73.7645 29.9974 73.7645H17.115C16.5052 73.7645 16.0108 74.2538 16.0108 74.8573C16.0108 75.4609 16.5052 75.9501 17.115 75.9501H29.9974Z" fill="#07005A"/>
<path d="M187.99 132.958C188.448 132.958 188.818 132.387 188.818 131.683C188.818 130.979 188.448 130.408 187.99 130.408C187.533 130.408 187.162 130.979 187.162 131.683C187.162 132.387 187.533 132.958 187.99 132.958Z" fill="#07005A"/>
<path d="M193.879 132.958C194.337 132.958 194.708 132.387 194.708 131.683C194.708 130.979 194.337 130.408 193.879 130.408C193.422 130.408 193.051 130.979 193.051 131.683C193.051 132.387 193.422 132.958 193.879 132.958Z" fill="#07005A"/>
<path d="M189.555 138.058C189.469 138.059 189.384 138.039 189.307 138.001C189.231 137.963 189.164 137.908 189.113 137.839C188.649 137.246 189.142 135.038 189.481 133.778C189.49 133.728 189.509 133.681 189.537 133.639C189.565 133.597 189.602 133.562 189.644 133.535C189.687 133.507 189.735 133.489 189.785 133.481C189.835 133.473 189.887 133.476 189.936 133.488C189.985 133.501 190.031 133.523 190.071 133.555C190.111 133.586 190.144 133.624 190.168 133.669C190.192 133.713 190.206 133.762 190.21 133.812C190.215 133.862 190.208 133.912 190.191 133.96C189.801 135.443 189.58 136.911 189.676 137.326C190.222 137.268 190.76 137.154 191.281 136.983C191.327 136.968 191.375 136.962 191.424 136.965C191.472 136.968 191.519 136.981 191.563 137.002C191.606 137.024 191.645 137.053 191.677 137.089C191.709 137.125 191.733 137.167 191.748 137.213C191.764 137.258 191.77 137.306 191.767 137.354C191.764 137.402 191.751 137.449 191.729 137.492C191.708 137.535 191.678 137.573 191.641 137.605C191.605 137.636 191.562 137.66 191.517 137.675C190.882 137.885 190.222 138.014 189.555 138.058Z" fill="#07005A"/>
<path d="M190.452 141.012C190.148 141.014 189.843 140.988 189.543 140.936C189.4 140.907 189.274 140.823 189.193 140.702C189.112 140.581 189.083 140.433 189.113 140.291C189.142 140.149 189.227 140.024 189.349 139.944C189.471 139.864 189.621 139.836 189.764 139.865C189.764 139.865 191.417 140.178 192.293 139.311C192.397 139.215 192.536 139.162 192.679 139.165C192.822 139.167 192.958 139.224 193.06 139.324C193.161 139.425 193.219 139.56 193.221 139.701C193.224 139.843 193.171 139.98 193.073 140.083C192.357 140.723 191.416 141.056 190.452 141.012Z" fill="#07005A"/>
<path d="M185.874 130.226C185.754 130.226 185.638 130.187 185.543 130.115C185.448 130.044 185.379 129.943 185.346 129.83C185.313 129.716 185.319 129.595 185.361 129.484C185.404 129.374 185.482 129.28 185.583 129.217C185.679 129.155 187.957 127.782 189.613 128.977C189.726 129.064 189.8 129.192 189.819 129.332C189.839 129.472 189.802 129.615 189.718 129.729C189.633 129.843 189.507 129.921 189.366 129.945C189.225 129.969 189.08 129.938 188.962 129.858C187.909 129.097 186.183 130.135 186.165 130.146C186.077 130.199 185.976 130.226 185.874 130.226Z" fill="#07005A"/>
<path d="M195.543 130.226C195.44 130.226 195.34 130.199 195.252 130.146C195.23 130.146 193.504 129.101 192.455 129.858C192.397 129.907 192.329 129.943 192.257 129.964C192.184 129.986 192.108 129.992 192.032 129.983C191.957 129.974 191.885 129.95 191.819 129.912C191.754 129.874 191.697 129.823 191.652 129.762C191.608 129.701 191.576 129.632 191.56 129.559C191.544 129.486 191.543 129.41 191.557 129.336C191.572 129.262 191.601 129.192 191.644 129.131C191.687 129.069 191.743 129.016 191.807 128.977C193.46 127.782 195.738 129.155 195.834 129.217C195.958 129.293 196.047 129.415 196.08 129.556C196.114 129.696 196.09 129.844 196.014 129.968C195.964 130.047 195.895 130.112 195.812 130.157C195.73 130.202 195.637 130.226 195.543 130.226Z" fill="#07005A"/>
<path d="M181.089 130.044C182.918 130.044 184.402 128.576 184.402 126.766C184.402 124.955 182.918 123.487 181.089 123.487C179.259 123.487 177.776 124.955 177.776 126.766C177.776 128.576 179.259 130.044 181.089 130.044Z" fill="#07005A"/>
<path d="M183.297 127.13C185.33 127.13 186.978 125.499 186.978 123.487C186.978 121.475 185.33 119.845 183.297 119.845C181.265 119.845 179.617 121.475 179.617 123.487C179.617 125.499 181.265 127.13 183.297 127.13Z" fill="#07005A"/>
<path d="M187.346 125.309C189.582 125.309 191.395 123.515 191.395 121.302C191.395 119.089 189.582 117.295 187.346 117.295C185.11 117.295 183.297 119.089 183.297 121.302C183.297 123.515 185.11 125.309 187.346 125.309Z" fill="#07005A"/>
<path d="M192.131 126.037C194.774 126.037 196.916 123.917 196.916 121.302C196.916 118.686 194.774 116.566 192.131 116.566C189.488 116.566 187.346 118.686 187.346 121.302C187.346 123.917 189.488 126.037 192.131 126.037Z" fill="#07005A"/>
<path d="M197.284 127.494C199.723 127.494 201.701 125.537 201.701 123.123C201.701 120.709 199.723 118.752 197.284 118.752C194.845 118.752 192.867 120.709 192.867 123.123C192.867 125.537 194.845 127.494 197.284 127.494Z" fill="#07005A"/>
<path d="M199.86 130.408C201.69 130.408 203.173 128.941 203.173 127.13C203.173 125.319 201.69 123.852 199.86 123.852C198.031 123.852 196.548 125.319 196.548 127.13C196.548 128.941 198.031 130.408 199.86 130.408Z" fill="#07005A"/>
</g>
<defs>
<clipPath id="clip0">
<rect width="219" height="157" fill="white"/>
</clipPath>
</defs>
</svg>
