<svg width="266" height="125" viewBox="0 0 266 125" fill="none" xmlns="http://www.w3.org/2000/svg">
<g clip-path="url(#clip0)">
<path d="M230.967 109.095C231.687 114.989 231.156 118.557 229.255 120.659C227.595 122.504 224.712 123.35 220.73 123.672H208.524C192.313 123.121 175.737 121.578 174.5 120.426C174.338 120.07 174.113 119.746 173.836 119.47C175.937 108.577 173.561 104.66 172.675 103.631C173.006 103.05 173.829 101.779 175.14 101.56C176.063 101.407 183.436 101.978 190.963 102.625C196.272 103.084 201.671 103.581 204.877 103.887C205.009 103.899 205.141 103.858 205.243 103.774C205.345 103.689 205.409 103.567 205.421 103.435C205.434 103.303 205.393 103.172 205.308 103.07C205.224 102.968 205.102 102.903 204.97 102.891C203.643 102.765 197.553 102.187 191.185 101.636C190.223 100.641 184.054 94.0023 184.349 85.9798C184.353 85.848 184.306 85.7197 184.216 85.6227C184.127 85.5258 184.003 85.4681 183.871 85.462C183.805 85.458 183.74 85.4673 183.678 85.4894C183.616 85.5114 183.559 85.5458 183.51 85.5905C183.462 85.6352 183.423 85.6891 183.396 85.7492C183.369 85.8093 183.355 85.8742 183.353 85.94C183.085 93.2023 187.694 99.2167 189.705 101.51C182.796 100.919 175.976 100.402 174.974 100.571C173.202 100.866 172.154 102.486 171.775 103.193C170.45 103.179 169.132 103.376 167.869 103.777C167.159 103.754 161.714 103.552 156.477 103.552C155.707 103.553 154.939 103.608 154.177 103.717C155.554 102.527 156.842 101.237 158.03 99.8573C161.568 95.7315 163.323 91.5925 163.114 87.8817C163.105 87.7508 163.045 87.6287 162.947 87.5413C162.849 87.454 162.721 87.4082 162.59 87.4137C162.522 87.4157 162.455 87.4316 162.393 87.4605C162.331 87.4893 162.276 87.5306 162.231 87.5816C162.186 87.6326 162.152 87.6923 162.131 87.7571C162.11 87.8219 162.102 87.8902 162.108 87.958C162.563 95.9539 153.049 103.415 152.087 104.149C150.507 104.552 148.986 105.159 147.564 105.955C146.29 106.663 145.13 107.558 144.122 108.61C142.919 109.069 141.687 109.451 140.435 109.755C136.679 110.701 130.51 111.667 123.727 110.346C112.829 108.225 100.959 83.8522 100.829 83.6066L100.809 83.5668L98.8182 80.2476C97.305 77.725 97.8227 75.8763 98.0716 75.2954C101.155 74.6314 104.033 73.232 106.46 71.2162C108.886 69.2005 110.79 66.6281 112.009 63.7181C116.927 63.519 121.699 71.1332 127.208 79.9223C128.263 81.6052 129.355 83.3444 130.483 85.087C130.534 85.1664 130.607 85.2297 130.692 85.2695C130.778 85.3093 130.873 85.3239 130.966 85.3117C131.06 85.2996 131.148 85.2611 131.221 85.2007C131.293 85.1403 131.347 85.0606 131.376 84.9708C136.201 69.8885 157.446 58.1618 160.555 56.5155C161.866 58.2415 163.728 59.5194 166.363 60.2928C166.559 61.6204 167.637 66.0947 173.351 66.3967C173.932 66.4266 174.47 66.4432 174.974 66.4432C178.15 66.4432 179.892 65.8026 181.654 64.1198C182.813 62.9945 183.715 61.6331 184.3 60.1279C184.885 58.6228 185.14 57.0092 185.046 55.397C188.066 56.7877 199.455 62.3672 207.887 70.6917C227.317 89.8632 230.463 104.932 230.967 109.095Z" fill="#E1E9FE"/>
<path d="M215.997 124.834C220.311 124.834 223.689 124.555 226.248 123.672H266V125H215.997V124.834Z" fill="#07005A"/>
<path d="M208.523 123.672H220.732C218.555 123.848 216.046 123.865 213.222 123.805C211.669 123.772 210.1 123.725 208.523 123.672Z" fill="#07005A"/>
<path d="M213.203 124.801C206.194 124.648 197.772 124.227 190.617 123.672H208.537C210.113 123.725 211.683 123.772 213.236 123.805C216.06 123.865 218.569 123.848 220.746 123.672H226.261C223.703 124.555 220.308 124.834 216.01 124.834C215.104 124.834 214.172 124.821 213.203 124.801Z" fill="#07005A"/>
<path d="M207.899 70.6984C199.467 62.364 188.078 56.7944 185.058 55.4037C185.058 55.0319 185.005 54.6602 184.952 54.2884C184.952 54.2884 184.952 54.2685 184.952 54.2585C186.9 55.1282 199.457 60.95 208.603 69.9914C214.151 75.4587 219.106 81.4978 223.384 88.0079C228.308 95.642 231.195 102.699 231.962 108.988C232.728 115.278 232.141 118.972 230.001 121.342C228.972 122.432 227.681 123.239 226.251 123.686H220.732C224.714 123.354 227.588 122.517 229.257 120.672C231.159 118.571 231.69 115.003 230.97 109.108C230.462 104.932 227.316 89.8633 207.899 70.6984Z" fill="#07005A"/>
<path d="M204.87 103.89C201.665 103.585 196.276 103.087 190.956 102.629C191.055 102.629 191.151 102.599 191.233 102.544C191.315 102.489 191.379 102.411 191.416 102.319C191.454 102.228 191.463 102.127 191.443 102.03C191.423 101.934 191.375 101.845 191.304 101.776L191.178 101.65C197.547 102.201 203.639 102.778 204.963 102.904C205.029 102.91 205.092 102.929 205.15 102.96C205.208 102.991 205.26 103.032 205.302 103.083C205.344 103.134 205.375 103.192 205.395 103.255C205.414 103.317 205.421 103.383 205.415 103.449C205.409 103.514 205.39 103.578 205.359 103.636C205.328 103.694 205.287 103.745 205.236 103.787C205.186 103.829 205.127 103.861 205.064 103.88C205.002 103.899 204.936 103.906 204.87 103.9V103.89Z" fill="#07005A"/>
<path d="M191.178 101.643L191.304 101.769C191.394 101.862 191.444 101.986 191.444 102.116C191.444 102.245 191.393 102.369 191.303 102.462C191.213 102.554 191.09 102.608 190.961 102.612C190.832 102.616 190.706 102.57 190.611 102.483C190.548 102.423 190.206 102.088 189.698 101.517L191.178 101.643Z" fill="#07005A"/>
<path d="M188.822 35.1267C188.841 35.0613 188.847 34.9928 188.838 34.9252C188.83 34.8575 188.808 34.7924 188.774 34.7336C188.739 34.6749 188.693 34.6238 188.638 34.5836C188.583 34.5434 188.521 34.515 188.454 34.4999C188.388 34.4849 188.319 34.4837 188.252 34.4963C188.185 34.509 188.121 34.5352 188.065 34.5734C188.009 34.6116 187.961 34.661 187.924 34.7185C187.888 34.776 187.863 34.8403 187.853 34.9076C187.853 34.9341 187.73 35.4387 187.521 36.2684C185.98 37.0056 184.265 37.3036 182.566 37.1296C180.866 36.9556 179.248 36.3163 177.888 35.2821C176.528 34.2478 175.48 32.8586 174.858 31.2672C174.236 29.6757 174.065 27.9436 174.363 26.2611C169.484 29.2307 163.692 30.3265 158.066 29.3447L157.96 26.3574C157.955 26.2254 157.899 26.1005 157.802 26.0102C157.706 25.92 157.577 25.8717 157.445 25.8761C157.313 25.8805 157.189 25.9372 157.098 26.0337C157.008 26.1302 156.96 26.2585 156.964 26.3906L157.064 29.1389C153.384 28.3212 149.88 26.8496 146.72 24.7941C145.952 24.3139 145.178 23.7873 144.397 23.2141C142.912 21.9413 141.748 20.3363 140.999 18.5293C140.25 16.7222 139.937 14.764 140.086 12.8135C140.235 10.863 140.842 8.9751 141.857 7.30294C142.872 5.63078 144.266 4.22144 145.928 3.18923C147.589 2.15703 149.47 1.53102 151.419 1.36199C153.367 1.19295 155.328 1.48565 157.142 2.21635C158.957 2.94704 160.573 4.09515 161.861 5.56756C163.148 7.03996 164.071 8.7952 164.554 10.6909C165.519 8.64526 167.152 6.98931 169.184 5.99566C171.215 5.00201 173.525 4.72987 175.732 5.22406C177.939 5.71824 179.912 6.94929 181.326 8.71455C182.74 10.4798 183.511 12.6741 183.512 14.9361C183.515 16.1971 183.275 17.4468 182.805 18.6171C183.038 18.5972 183.273 18.5872 183.512 18.5872C185.503 18.5867 187.442 19.2258 189.042 20.4105C190.643 21.5951 191.82 23.2626 192.402 25.1673C192.983 27.0719 192.937 29.113 192.271 30.9897C191.605 32.8664 190.354 34.4795 188.702 35.5913L188.822 35.1267Z" fill="#07005A"/>
<path d="M188.822 35.1269L188.716 35.5915C188.338 35.8403 187.943 36.0621 187.534 36.2554C187.73 35.4256 187.846 34.9277 187.866 34.8945C187.877 34.8272 187.901 34.7629 187.938 34.7054C187.974 34.6479 188.022 34.5986 188.078 34.5603C188.135 34.5221 188.198 34.4959 188.265 34.4833C188.332 34.4706 188.401 34.4718 188.467 34.4869C188.534 34.5019 188.596 34.5304 188.651 34.5706C188.706 34.6107 188.753 34.6618 188.787 34.7205C188.821 34.7793 188.844 34.8445 188.852 34.9121C188.86 34.9797 188.854 35.0483 188.835 35.1136L188.822 35.1269Z" fill="#07005A"/>
<path d="M184.037 50.1195C183.946 50.1253 183.858 50.1563 183.783 50.209C183.708 50.2617 183.649 50.3341 183.612 50.4182C185.215 45.7249 186.848 39.0965 187.521 36.2686C187.93 36.0753 188.325 35.8535 188.703 35.6047C188.242 37.5962 186.42 45.2934 184.568 50.6937C184.568 50.6339 184.568 50.6041 184.568 50.6007C184.566 50.5337 184.551 50.4677 184.523 50.4068C184.495 50.3459 184.455 50.2912 184.406 50.2462C184.356 50.2012 184.298 50.1667 184.234 50.145C184.171 50.1232 184.104 50.1145 184.037 50.1195Z" fill="#07005A"/>
<path d="M184.69 54.1289L184.949 54.2451C184.949 54.2451 184.949 54.265 184.949 54.275C185.002 54.6467 185.038 55.0185 185.055 55.3902C184.581 55.1679 184.315 55.0583 184.295 55.0583C184.217 55.0244 184.148 54.9708 184.097 54.9028C184.045 54.8348 184.012 54.7546 184 54.67C183.986 54.5801 183.998 54.4882 184.033 54.4044C184.058 54.343 184.094 54.287 184.141 54.2398C184.187 54.1927 184.243 54.1552 184.304 54.1295C184.365 54.1039 184.431 54.0907 184.497 54.0906C184.563 54.0905 184.629 54.1035 184.69 54.1289Z" fill="#07005A"/>
<path d="M189.698 101.517C187.687 99.2366 183.077 93.219 183.346 85.9467C183.347 85.8808 183.362 85.8159 183.389 85.7559C183.416 85.6958 183.455 85.6418 183.503 85.5972C183.551 85.5525 183.608 85.5181 183.67 85.496C183.732 85.474 183.798 85.4647 183.864 85.4687C183.996 85.4747 184.12 85.5325 184.209 85.6294C184.299 85.7263 184.346 85.8546 184.342 85.9865C184.046 93.9956 190.215 100.654 191.178 101.643L189.698 101.517Z" fill="#07005A"/>
<path d="M184.037 50.1196C184.102 50.1151 184.168 50.1237 184.23 50.1449C184.292 50.166 184.35 50.1994 184.399 50.2429C184.448 50.2865 184.488 50.3394 184.516 50.3986C184.545 50.4578 184.561 50.522 184.564 50.5876C184.564 50.5876 184.564 50.6208 184.564 50.6805C184.299 51.4672 184.027 52.2007 183.765 52.8645C183.622 51.57 183.566 50.6606 183.566 50.6473C183.559 50.6055 183.559 50.563 183.566 50.5212C183.569 50.4992 183.575 50.4779 183.585 50.4581C183.585 50.4581 183.585 50.4316 183.585 50.4183C183.624 50.3303 183.687 50.2552 183.767 50.2022C183.847 50.1492 183.941 50.1205 184.037 50.1196Z" fill="#07005A"/>
<path d="M184.037 54.3913C184.001 54.475 183.99 54.5669 184.003 54.6568C184.003 54.5771 183.983 54.4975 183.974 54.4178C183.894 53.8635 183.828 53.3391 183.774 52.8644C184.037 52.2006 184.309 51.4671 184.574 50.6804C184.601 51.0488 184.707 52.5159 184.956 54.2452L184.697 54.129C184.636 54.1027 184.571 54.0886 184.505 54.0875C184.439 54.0865 184.374 54.0985 184.312 54.1228C184.251 54.1472 184.195 54.1835 184.148 54.2295C184.1 54.2756 184.063 54.3306 184.037 54.3913Z" fill="#07005A"/>
<path d="M183.967 54.4343C183.967 54.514 183.99 54.5936 183.997 54.6733C184.206 56.2617 184.043 57.8771 183.519 59.3912C182.996 60.9053 182.126 62.2766 180.98 63.3961C179.155 65.1353 177.387 65.6 173.418 65.3876C168.868 65.1486 167.713 61.9788 167.428 60.5515C167.716 60.6179 168.015 60.6777 168.324 60.7341C169.546 60.9558 170.785 61.0691 172.027 61.0727C177.566 61.0727 180.39 58.3509 182.421 55.5429C182.969 54.6986 183.42 53.7957 183.768 52.8511C183.821 53.339 183.887 53.8634 183.967 54.4343Z" fill="white"/>
<path d="M183.612 50.4182C183.612 50.4182 183.612 50.4451 183.612 50.4586C183.609 50.4453 183.609 50.4315 183.612 50.4182Z" fill="#07005A"/>
<path d="M140.5 110.5L144 109.5L153 105H171L175 101L191 124C174 124 144.1 124.5 140.5 124.5C138.9 120.9 139.833 113.667 140.5 110.5Z" fill="#E1E9FE"/>
<path d="M173.889 33.5736C173.904 33.6813 173.898 33.791 173.871 33.8963C173.844 34.0017 173.797 34.1007 173.731 34.1877C173.666 34.2747 173.584 34.3479 173.491 34.4031C173.397 34.4583 173.293 34.4945 173.185 34.5096H173.069C172.869 34.5099 172.676 34.4377 172.526 34.3065C172.375 34.1753 172.277 33.9939 172.25 33.796C172.031 32.2857 169.167 32.4019 169.134 32.4052C168.914 32.4189 168.698 32.3454 168.532 32.2006C168.366 32.0558 168.264 31.8515 168.247 31.6319C168.235 31.4131 168.309 31.1983 168.455 31.0346C168.601 30.8709 168.805 30.7718 169.024 30.7589C169.735 30.73 170.446 30.7981 171.138 30.9614C172.724 31.3497 173.696 32.2791 173.889 33.5736Z" fill="#07005A"/>
<path d="M172.803 119.54C172.86 119.258 172.913 118.979 172.959 118.707C173.27 118.937 173.56 119.192 173.829 119.47L173.779 119.732C173.757 119.845 173.696 119.947 173.607 120.021C173.518 120.094 173.407 120.134 173.291 120.134H173.195C173.117 120.118 173.044 120.082 172.983 120.031L172.923 119.971C172.871 119.914 172.833 119.845 172.812 119.77C172.791 119.695 172.788 119.616 172.803 119.54Z" fill="#07005A"/>
<path d="M171.842 104.202C172.363 104.766 174.885 108.125 172.96 118.707C172.173 118.133 171.352 117.608 170.501 117.133C170.136 116.918 169.688 116.659 169.529 116.543C169.529 116.35 169.568 115.915 169.608 115.494C169.814 113.406 170.235 109.141 168.576 104.617C169.637 104.31 170.738 104.17 171.842 104.202Z" fill="#476FF5"/>
<path d="M172.967 120.012C172.943 119.995 172.923 119.975 172.906 119.951L172.967 120.012Z" fill="#07005A"/>
<path d="M172.959 118.707C174.884 108.125 172.362 104.766 171.841 104.202H171.987C172.096 104.219 172.208 104.199 172.305 104.146C172.401 104.092 172.477 104.008 172.521 103.907C172.521 103.907 172.574 103.791 172.667 103.618C173.553 104.647 175.929 108.563 173.829 119.457C173.56 119.184 173.269 118.933 172.959 118.707Z" fill="#07005A"/>
<path d="M172.369 103.333C172.293 103.272 172.2 103.235 172.103 103.228C172.006 103.221 171.909 103.244 171.825 103.293L171.769 103.2C172.147 102.493 173.196 100.876 174.968 100.578C175.963 100.408 182.789 100.926 189.698 101.517C190.206 102.088 190.548 102.423 190.611 102.483C190.7 102.569 190.819 102.619 190.943 102.622C183.426 101.975 176.043 101.404 175.12 101.557C173.793 101.776 172.973 103.047 172.655 103.628C172.569 103.521 172.473 103.422 172.369 103.333Z" fill="#07005A"/>
<path d="M171.825 103.293C171.909 103.243 172.006 103.221 172.103 103.228C172.2 103.235 172.293 103.271 172.369 103.332C172.478 103.422 172.578 103.522 172.668 103.631C172.575 103.804 172.525 103.917 172.522 103.92C172.478 104.021 172.402 104.106 172.305 104.159C172.209 104.213 172.097 104.232 171.988 104.215H171.842C171.814 104.183 171.784 104.153 171.752 104.126C171.65 104.043 171.586 103.923 171.572 103.792C171.558 103.662 171.597 103.531 171.679 103.429C171.717 103.373 171.767 103.327 171.825 103.293Z" fill="#07005A"/>
<path d="M172.027 61.0728C170.785 61.0714 169.546 60.9604 168.324 60.7409C168.015 60.6844 167.717 60.6247 167.428 60.5583C167.381 60.3327 167.349 60.1043 167.332 59.8746C167.327 59.7684 167.288 59.6665 167.222 59.5841C167.155 59.5016 167.063 59.4428 166.96 59.4165C167.448 59.5493 167.956 59.6621 168.503 59.7484C176.006 61.096 179.242 58.2482 181.618 54.9688C182.212 54.1457 182.892 52.5126 183.579 50.5178C183.572 50.5596 183.572 50.6022 183.579 50.644C183.579 50.644 183.635 51.5667 183.778 52.8612C183.431 53.8058 182.979 54.7087 182.431 55.553C180.39 58.3643 177.566 61.0728 172.027 61.0728Z" fill="#07005A"/>
<path d="M173.593 120.838C173.448 120.527 173.24 120.25 172.982 120.025C173.044 120.076 173.117 120.111 173.195 120.127H173.291C173.406 120.127 173.518 120.087 173.607 120.014C173.696 119.941 173.757 119.839 173.779 119.726L173.829 119.464C174.106 119.739 174.331 120.063 174.492 120.42C175.73 121.571 192.306 123.115 208.517 123.666H190.597C189.744 123.599 188.908 123.533 188.095 123.463C174.17 122.285 173.779 121.306 173.593 120.838Z" fill="#07005A"/>
<path d="M168.745 39.2491C169.203 39.2491 169.574 38.6919 169.574 38.0045C169.574 37.317 169.203 36.7598 168.745 36.7598C168.286 36.7598 167.915 37.317 167.915 38.0045C167.915 38.6919 168.286 39.2491 168.745 39.2491Z" fill="#07005A"/>
<path d="M169.242 115.965C169.252 116.097 169.209 116.227 169.123 116.328C169.038 116.428 168.916 116.491 168.784 116.503L168.532 116.52C168.532 116.281 168.562 115.965 168.609 115.524H168.705C168.834 115.514 168.962 115.555 169.062 115.637C169.162 115.719 169.227 115.837 169.242 115.965Z" fill="#07005A"/>
<path d="M167.584 104.77C169.243 109.151 168.835 113.353 168.632 115.391V115.507C167.796 115.567 161.663 115.912 158.196 114.067C157.711 113.795 157.14 113.721 156.601 113.859C156.063 113.997 155.599 114.338 155.305 114.81C155.086 115.17 154.971 115.584 154.973 116.005C154.953 116.175 154.898 116.34 154.81 116.487C154.723 116.635 154.605 116.762 154.466 116.861C154.404 116.907 154.33 116.933 154.254 116.938C154.177 116.942 154.101 116.925 154.034 116.888C153.945 116.842 153.646 116.556 153.646 114.677V113.074C153.719 112.742 153.792 112.108 153.357 111.8C153.055 111.587 152.667 111.634 152.209 111.939C151.515 112.4 151.336 113.393 151.147 114.442C150.994 115.285 150.835 116.158 150.427 116.702C150.319 116.828 150.185 116.928 150.033 116.994C149.881 117.06 149.716 117.091 149.551 117.084C149.461 117.084 149.368 117.031 149.305 116.845C149.103 116.234 149.82 113.492 150.633 111.202C150.659 111.127 150.666 111.047 150.655 110.968C150.643 110.889 150.613 110.814 150.567 110.749C150.521 110.685 150.461 110.632 150.39 110.595C150.319 110.558 150.241 110.539 150.162 110.538C148.721 110.538 147.606 113.074 147.175 114.814C147.072 115.206 147.012 115.609 146.996 116.015C146.996 116.37 146.909 116.845 146.166 116.845C146.098 116.821 146.04 116.775 146 116.715C145.701 116.357 145.469 115.494 145.668 114.445C145.833 113.468 146.223 112.543 146.806 111.743C147.39 110.942 148.151 110.288 149.03 109.831C149.151 109.779 149.246 109.68 149.294 109.557C149.342 109.434 149.34 109.297 149.287 109.176C149.234 109.055 149.136 108.96 149.013 108.912C148.89 108.863 148.753 108.866 148.632 108.919L148.559 108.952C147.665 109.357 146.861 109.937 146.196 110.659C145.53 111.381 145.017 112.23 144.686 113.154C144.221 114.435 143.531 115.52 142.927 115.922C142.741 116.045 142.569 116.098 142.499 116.048C142.499 116.048 141.928 115.597 142.682 112.835C143.105 111.544 143.813 110.365 144.752 109.383C146.69 107.306 149.558 105.815 152.468 105.068C153.775 104.733 155.118 104.561 156.467 104.554C161.278 104.554 166.256 104.727 167.584 104.77Z" fill="white"/>
<path d="M171.841 104.202C170.738 104.17 169.636 104.31 168.576 104.617C170.235 109.141 169.814 113.406 169.608 115.494C169.568 115.915 169.525 116.35 169.528 116.543C169.688 116.659 170.136 116.918 170.501 117.134C171.351 117.608 172.173 118.133 172.96 118.707C172.913 118.979 172.86 119.258 172.804 119.54C172.79 119.612 172.791 119.686 172.809 119.757C172.827 119.828 172.86 119.895 172.907 119.951C172.003 119.206 171.03 118.551 170 117.993C169.173 117.512 168.832 117.309 168.672 117.087C168.566 116.918 168.517 116.719 168.533 116.519L168.785 116.503C168.85 116.498 168.914 116.48 168.973 116.45C169.031 116.42 169.083 116.379 169.125 116.329C169.168 116.279 169.2 116.221 169.22 116.159C169.241 116.096 169.248 116.031 169.243 115.965C169.238 115.9 169.22 115.836 169.19 115.778C169.16 115.719 169.119 115.667 169.069 115.625C169.019 115.582 168.961 115.55 168.899 115.53C168.837 115.51 168.771 115.502 168.705 115.507H168.609V115.391C168.812 113.346 169.223 109.144 167.561 104.77H167.892C167.958 104.774 168.024 104.764 168.086 104.742C168.148 104.72 168.205 104.686 168.253 104.641C168.302 104.596 168.34 104.542 168.367 104.482C168.394 104.422 168.409 104.357 168.41 104.292C168.415 104.16 168.367 104.031 168.277 103.935C168.188 103.838 168.064 103.78 167.932 103.774H167.859C169.122 103.373 170.44 103.176 171.765 103.19L171.821 103.283C171.765 103.313 171.715 103.355 171.675 103.405C171.593 103.508 171.555 103.638 171.569 103.769C171.582 103.899 171.647 104.019 171.748 104.102C171.782 104.133 171.813 104.167 171.841 104.202Z" fill="#07005A"/>
<path d="M173.365 66.3835C167.65 66.0814 166.572 61.6072 166.376 60.2795C166.708 60.3791 167.063 60.4687 167.428 60.5517C167.713 61.9789 168.868 65.1487 173.418 65.3877C177.4 65.5968 179.155 65.1321 180.981 63.3962C182.128 62.2753 182.999 60.9019 183.523 59.3852C184.046 57.8686 184.209 56.2507 183.997 54.6602C184.009 54.7448 184.042 54.825 184.094 54.893C184.146 54.961 184.214 55.0146 184.292 55.0485C184.312 55.0485 184.578 55.1713 185.052 55.3804C185.146 56.9927 184.892 58.6062 184.307 60.1114C183.722 61.6165 182.819 62.978 181.661 64.1032C179.899 65.7794 178.157 66.4266 174.981 66.4266C174.483 66.4299 173.945 66.4134 173.365 66.3835Z" fill="#07005A"/>
<path d="M167.895 104.783H167.563C167.527 104.683 167.487 104.584 167.447 104.484C167.421 104.419 167.409 104.349 167.412 104.279C167.414 104.209 167.432 104.14 167.463 104.077C167.495 104.014 167.539 103.959 167.594 103.915C167.648 103.87 167.711 103.838 167.779 103.82L167.865 103.794H167.942C168.073 103.8 168.198 103.857 168.287 103.954C168.376 104.051 168.424 104.18 168.42 104.311C168.418 104.377 168.402 104.442 168.374 104.502C168.347 104.562 168.307 104.615 168.258 104.659C168.209 104.703 168.152 104.737 168.089 104.758C168.027 104.779 167.961 104.788 167.895 104.783Z" fill="#07005A"/>
<path d="M167.331 59.8679C167.349 60.0976 167.381 60.326 167.427 60.5516C167.062 60.4686 166.714 60.379 166.376 60.2794C166.342 60.0537 166.336 59.921 166.336 59.911C166.332 59.8457 166.342 59.7803 166.364 59.7187C166.386 59.6571 166.42 59.6005 166.464 59.5522C166.508 59.504 166.562 59.4651 166.621 59.4378C166.681 59.4105 166.745 59.3953 166.81 59.3932C166.852 59.3865 166.895 59.3865 166.936 59.3932C166.94 59.3914 166.944 59.3905 166.948 59.3905C166.952 59.3905 166.956 59.3914 166.96 59.3932C167.065 59.4203 167.159 59.4815 167.226 59.5673C167.293 59.6532 167.33 59.7588 167.331 59.8679Z" fill="#07005A"/>
<path d="M166.31 51.1152C166.824 51.1517 168.194 51.2546 168.633 50.3816C168.695 50.2703 168.798 50.1874 168.92 50.15C169.043 50.1126 169.175 50.1236 169.289 50.1807C169.403 50.2379 169.491 50.3368 169.534 50.457C169.578 50.5772 169.573 50.7094 169.522 50.8264C168.958 51.9582 167.69 52.1342 166.847 52.1342C166.595 52.1342 166.383 52.1176 166.237 52.1076H166.091C165.959 52.1076 165.832 52.0552 165.739 51.9618C165.645 51.8684 165.593 51.7418 165.593 51.6097C165.593 51.4777 165.645 51.3511 165.739 51.2577C165.832 51.1643 165.959 51.1119 166.091 51.1119C166.137 51.1152 166.213 51.1152 166.31 51.1152Z" fill="#07005A"/>
<path d="M164.929 39.0468L164.312 45.8046H166.422C166.554 45.8046 166.681 45.857 166.774 45.9504C166.868 46.0438 166.92 46.1704 166.92 46.3025C166.92 46.4345 166.868 46.5611 166.774 46.6545C166.681 46.7479 166.554 46.8003 166.422 46.8003H163.767C163.698 46.8007 163.629 46.7864 163.566 46.7585C163.503 46.7306 163.446 46.6897 163.399 46.6383C163.352 46.587 163.317 46.5264 163.295 46.4606C163.274 46.3947 163.266 46.325 163.273 46.256L163.937 38.9538C163.949 38.8218 164.013 38.7 164.115 38.6154C164.217 38.5307 164.349 38.4901 164.481 38.5024C164.613 38.5147 164.735 38.579 164.819 38.6811C164.904 38.7832 164.945 38.9147 164.932 39.0468H164.929Z" fill="#07005A"/>
<path d="M162.938 31.1005C163.038 31.1441 163.129 31.207 163.205 31.2857C163.281 31.3643 163.34 31.4571 163.38 31.5588C163.42 31.6606 163.44 31.7692 163.438 31.8785C163.436 31.9878 163.413 32.0956 163.369 32.1959C163.326 32.2961 163.263 32.3868 163.184 32.4628C163.105 32.5387 163.013 32.5984 162.911 32.6385C162.809 32.6785 162.701 32.6982 162.591 32.6963C162.482 32.6944 162.374 32.671 162.274 32.6274C160.562 31.8938 159.304 33.3343 159.251 33.3941C159.173 33.4859 159.076 33.5596 158.966 33.61C158.857 33.6605 158.738 33.6865 158.617 33.6862C158.475 33.6872 158.335 33.6505 158.212 33.58L158.159 32.1328C158.985 31.2897 160.814 30.2044 162.938 31.1005Z" fill="#07005A"/>
<path d="M152.086 104.136C153.048 103.402 162.562 95.9407 162.108 87.9448C162.104 87.8794 162.114 87.8139 162.135 87.7521C162.157 87.6904 162.191 87.6335 162.235 87.5848C162.278 87.536 162.331 87.4965 162.39 87.4682C162.45 87.44 162.514 87.4238 162.579 87.4204C162.71 87.4149 162.838 87.4606 162.936 87.548C163.034 87.6354 163.094 87.7575 163.103 87.8884C163.312 91.5992 161.557 95.7382 158.019 99.8639C156.832 101.244 155.544 102.534 154.167 103.724C153.466 103.823 152.771 103.96 152.086 104.136Z" fill="#07005A"/>
<path d="M160.781 39.2491C161.239 39.2491 161.61 38.6919 161.61 38.0045C161.61 37.317 161.239 36.7598 160.781 36.7598C160.323 36.7598 159.951 37.317 159.951 38.0045C159.951 38.6919 160.323 39.2491 160.781 39.2491Z" fill="#07005A"/>
<path d="M161.169 55.636C162.476 57.5279 164.351 58.7129 166.937 59.4032C166.895 59.3965 166.852 59.3965 166.81 59.4032C166.745 59.4054 166.681 59.4205 166.621 59.4478C166.562 59.4751 166.508 59.5141 166.464 59.5623C166.42 59.6105 166.386 59.6671 166.364 59.7287C166.342 59.7903 166.332 59.8557 166.336 59.921C166.336 59.921 166.336 60.0638 166.376 60.2895C163.741 59.5161 161.879 58.2382 160.568 56.5122L160.947 56.3131C161.006 56.2839 161.059 56.243 161.103 56.1929C161.147 56.1428 161.18 56.0845 161.2 56.0214C161.221 55.9583 161.229 55.8917 161.224 55.8255C161.218 55.7593 161.2 55.6949 161.169 55.636Z" fill="#07005A"/>
<path d="M161.156 55.6159L161.103 55.5396C161.124 55.5622 161.142 55.5879 161.156 55.6159Z" fill="#07005A"/>
<path d="M160.946 56.303L160.568 56.5022C160.369 56.2367 160.18 55.9612 160.004 55.6724L160.498 55.4135C160.595 55.3653 160.704 55.3496 160.81 55.3688C160.916 55.3879 161.012 55.4409 161.086 55.5197L161.102 55.5396L161.155 55.616V55.6359C161.215 55.7523 161.227 55.8875 161.188 56.0123C161.149 56.1372 161.062 56.2416 160.946 56.303Z" fill="#07005A"/>
<path d="M158.623 33.6862C158.744 33.6865 158.863 33.6605 158.972 33.6101C159.082 33.5596 159.179 33.4859 159.257 33.3941C159.31 33.3344 160.568 31.8939 162.28 32.6274C162.381 32.671 162.488 32.6944 162.598 32.6963C162.707 32.6982 162.816 32.6786 162.917 32.6385C163.019 32.5984 163.112 32.5387 163.19 32.4628C163.269 32.3868 163.332 32.2962 163.375 32.1959C163.419 32.0957 163.442 31.9878 163.444 31.8785C163.446 31.7692 163.427 31.6606 163.387 31.5589C163.346 31.4572 163.287 31.3643 163.211 31.2857C163.135 31.2071 163.044 31.1442 162.944 31.1006C160.827 30.1944 158.998 31.2898 158.179 32.1328L158.079 29.3447C163.706 30.3266 169.497 29.2308 174.376 26.2612C174.078 27.9437 174.249 29.6758 174.871 31.2673C175.493 32.8587 176.541 34.2479 177.901 35.2822C179.261 36.3164 180.879 36.9557 182.579 37.1297C184.278 37.3037 185.993 37.0057 187.534 36.2685C186.87 39.0965 185.211 45.7248 183.625 50.4182C183.622 50.4313 183.622 50.4449 183.625 50.458C183.615 50.4778 183.608 50.4991 183.605 50.5211C182.918 52.5126 182.238 54.1489 181.644 54.9721C179.268 58.2514 176.032 61.0993 168.529 59.7517C167.988 59.6554 167.474 59.5426 166.986 59.4198C166.982 59.418 166.978 59.4171 166.974 59.4171C166.97 59.4171 166.966 59.418 166.963 59.4198C164.378 58.7294 162.503 57.5444 161.195 55.6525V55.6326C161.181 55.6046 161.163 55.5789 161.142 55.5562L161.125 55.5363C159.569 53.2129 158.836 49.8141 158.663 44.9747L158.258 33.5966C158.371 33.6549 158.496 33.6856 158.623 33.6862ZM173.175 34.5193C173.283 34.5043 173.386 34.4681 173.48 34.4128C173.574 34.3576 173.656 34.2844 173.721 34.1974C173.786 34.1105 173.834 34.0115 173.861 33.9061C173.888 33.8007 173.894 33.691 173.878 33.5833C173.696 32.2888 172.724 31.3595 171.141 30.9711C170.449 30.8078 169.737 30.7397 169.027 30.7687C168.809 30.7807 168.605 30.8781 168.459 31.0397C168.313 31.2013 168.237 31.414 168.247 31.6316C168.261 31.8506 168.36 32.0554 168.523 32.202C168.686 32.3485 168.901 32.425 169.12 32.415C169.153 32.415 172.017 32.2955 172.236 33.8057C172.263 34.0042 172.362 34.1861 172.513 34.3173C172.664 34.4486 172.858 34.5204 173.059 34.5193H173.175ZM169.525 50.8496C169.576 50.7327 169.58 50.6004 169.537 50.4802C169.494 50.36 169.406 50.2611 169.291 50.204C169.177 50.1468 169.045 50.1358 168.923 50.1732C168.801 50.2106 168.698 50.2936 168.635 50.4049C168.197 51.2778 166.827 51.1749 166.312 51.1384C166.216 51.1384 166.14 51.1384 166.093 51.1384C165.961 51.1384 165.835 51.1909 165.741 51.2842C165.648 51.3776 165.595 51.5043 165.595 51.6363C165.595 51.7683 165.648 51.895 165.741 51.9883C165.835 52.0817 165.961 52.1342 166.093 52.1342H166.239C166.385 52.1342 166.598 52.1607 166.85 52.1607C167.689 52.1474 168.957 51.9715 169.521 50.8397L169.525 50.8496ZM169.574 38.0045C169.574 37.3174 169.203 36.7598 168.745 36.7598C168.287 36.7598 167.915 37.3174 167.915 38.0045C167.915 38.6915 168.287 39.2491 168.745 39.2491C169.203 39.2491 169.574 38.6915 169.574 38.0045ZM166.92 46.3024C166.92 46.1703 166.867 46.0437 166.774 45.9503C166.68 45.857 166.554 45.8045 166.422 45.8045H164.311L164.928 39.0467C164.935 38.9813 164.928 38.9154 164.908 38.8526C164.889 38.7899 164.857 38.7316 164.816 38.681C164.774 38.6305 164.722 38.5887 164.664 38.558C164.606 38.5274 164.543 38.5084 164.477 38.5023C164.412 38.4962 164.346 38.5031 164.283 38.5225C164.22 38.5418 164.162 38.5734 164.112 38.6153C164.061 38.6572 164.019 38.7087 163.989 38.7667C163.958 38.8248 163.939 38.8884 163.933 38.9537L163.269 46.2559C163.262 46.3252 163.27 46.3952 163.292 46.4613C163.314 46.5274 163.349 46.5881 163.396 46.6395C163.443 46.6909 163.501 46.7318 163.564 46.7595C163.628 46.7872 163.697 46.8011 163.767 46.8003H166.422C166.554 46.8003 166.68 46.7478 166.774 46.6544C166.867 46.5611 166.92 46.4344 166.92 46.3024ZM161.61 38.0045C161.61 37.3174 161.238 36.7598 160.78 36.7598C160.322 36.7598 159.951 37.3174 159.951 38.0045C159.951 38.6915 160.322 39.2491 160.78 39.2491C161.238 39.2491 161.61 38.6915 161.61 38.0045Z" fill="white"/>
<path d="M158.166 32.1328L158.219 33.58C158.172 33.5551 158.129 33.5251 158.089 33.4904C157.922 33.3497 157.817 33.1485 157.798 32.9308C157.779 32.713 157.847 32.4965 157.987 32.3286C158.04 32.2656 158.099 32.1959 158.166 32.1328Z" fill="#07005A"/>
<path d="M157.96 26.3709L158.066 29.3581C157.734 29.3017 157.402 29.2386 157.071 29.1656L156.971 26.4173C156.969 26.352 156.98 26.2868 157.003 26.2255C157.026 26.1643 157.06 26.1082 157.105 26.0604C157.15 26.0126 157.203 25.9741 157.263 25.9471C157.323 25.9201 157.387 25.905 157.452 25.9029C157.518 25.9007 157.583 25.9114 157.644 25.9344C157.705 25.9574 157.761 25.9923 157.809 26.037C157.857 26.0816 157.895 26.1353 157.922 26.1949C157.949 26.2544 157.964 26.3188 157.967 26.3841L157.96 26.3709Z" fill="#07005A"/>
<path d="M158.624 44.9582C158.797 49.7976 159.53 53.1865 161.086 55.5198C161.013 55.441 160.916 55.3881 160.81 55.3689C160.705 55.3498 160.595 55.3654 160.499 55.4136L160.005 55.6725C158.345 52.984 157.785 49.3661 157.629 44.9914L157.064 29.1523C157.396 29.2254 157.728 29.2884 158.06 29.3449L158.16 32.133C158.093 32.1993 158.033 32.2657 157.98 32.3288C157.84 32.4967 157.773 32.7132 157.792 32.9309C157.811 33.1486 157.916 33.3498 158.083 33.4905C158.123 33.5252 158.166 33.5553 158.213 33.5801L158.624 44.9582Z" fill="#07005A"/>
<path d="M156.467 104.554C155.114 104.563 153.768 104.739 152.458 105.078C152.509 105.061 152.557 105.037 152.601 105.005C152.654 104.969 153.264 104.517 154.17 103.734C154.932 103.625 155.701 103.57 156.47 103.568C161.707 103.568 167.152 103.771 167.862 103.794L167.776 103.82C167.708 103.838 167.645 103.871 167.591 103.915C167.536 103.959 167.492 104.015 167.46 104.077C167.429 104.14 167.411 104.209 167.408 104.279C167.406 104.349 167.418 104.419 167.444 104.484C167.484 104.584 167.524 104.683 167.56 104.783C166.256 104.727 161.279 104.554 156.467 104.554Z" fill="#07005A"/>
<path d="M152.318 105.092C152.213 105.092 152.111 105.06 152.026 104.998C151.941 104.937 151.877 104.85 151.845 104.75C151.812 104.651 151.812 104.543 151.845 104.443C151.877 104.344 151.941 104.257 152.026 104.196L152.099 104.139C152.785 103.963 153.479 103.826 154.18 103.728C153.274 104.511 152.663 104.962 152.61 104.999C152.567 105.03 152.519 105.055 152.468 105.072C152.419 105.086 152.369 105.093 152.318 105.092Z" fill="#07005A"/>
<path d="M148.363 117.167C148.088 116.344 148.642 114.179 149.126 112.596C148.69 113.337 148.361 114.136 148.148 114.969L147.188 114.813C147.607 113.074 148.722 110.538 150.175 110.538C150.255 110.539 150.333 110.558 150.404 110.595C150.474 110.632 150.535 110.684 150.581 110.749C150.627 110.814 150.657 110.889 150.668 110.968C150.68 111.047 150.672 111.127 150.646 111.202C149.833 113.502 149.117 116.244 149.319 116.845C149.382 117.031 149.475 117.07 149.565 117.084C149.73 117.091 149.895 117.06 150.047 116.994C150.198 116.928 150.333 116.828 150.441 116.702C150.849 116.158 151.008 115.285 151.161 114.442C151.35 113.393 151.529 112.4 152.223 111.939C152.681 111.634 153.069 111.587 153.371 111.8C153.806 112.108 153.733 112.752 153.66 113.074V114.677C153.66 116.546 153.958 116.841 154.048 116.888C154.115 116.925 154.191 116.942 154.267 116.938C154.344 116.933 154.417 116.906 154.479 116.861C154.617 116.761 154.732 116.633 154.817 116.485C154.902 116.338 154.955 116.174 154.974 116.005C154.971 115.584 155.086 115.17 155.305 114.81C155.6 114.345 156.06 114.01 156.593 113.873C157.126 113.736 157.691 113.808 158.173 114.073C161.65 115.919 167.773 115.574 168.609 115.514C168.563 115.965 168.533 116.28 168.533 116.51C167.226 116.592 161.309 116.841 157.705 114.943C157.447 114.8 157.145 114.759 156.858 114.828C156.571 114.897 156.32 115.07 156.155 115.315C156.031 115.52 155.966 115.755 155.969 115.995C155.949 116.337 155.848 116.67 155.675 116.966C155.502 117.262 155.262 117.512 154.974 117.698C154.768 117.832 154.53 117.909 154.285 117.922C154.039 117.934 153.795 117.881 153.577 117.767C152.75 117.353 152.637 115.968 152.637 114.667V113.008C152.632 112.968 152.632 112.928 152.637 112.888C152.639 112.868 152.639 112.848 152.637 112.829C152.355 113.124 152.219 113.877 152.087 114.608C151.921 115.52 151.735 116.556 151.184 117.29C150.991 117.527 150.749 117.72 150.475 117.856C150.201 117.992 149.9 118.067 149.594 118.076C149.513 118.076 149.432 118.07 149.352 118.056C149.121 118.014 148.906 117.909 148.732 117.752C148.557 117.595 148.429 117.392 148.363 117.167Z" fill="#07005A"/>
<path d="M152.458 105.078C149.548 105.815 146.681 107.305 144.743 109.393C144.827 109.312 144.88 109.205 144.892 109.089C144.905 108.973 144.877 108.857 144.812 108.759C144.748 108.662 144.652 108.591 144.54 108.557C144.429 108.524 144.309 108.531 144.202 108.577L144.122 108.61C145.13 107.558 146.29 106.663 147.563 105.955C148.986 105.159 150.507 104.552 152.086 104.149L152.013 104.205C151.928 104.267 151.865 104.353 151.832 104.453C151.799 104.553 151.799 104.66 151.832 104.76C151.864 104.86 151.928 104.947 152.013 105.008C152.098 105.07 152.201 105.102 152.305 105.102C152.357 105.102 152.409 105.094 152.458 105.078Z" fill="#07005A"/>
<path d="M144.391 23.2341C145.178 23.805 145.953 24.3317 146.714 24.8141C145.881 24.3779 145.102 23.8478 144.391 23.2341Z" fill="#07005A"/>
<path d="M144.849 108.832C144.888 108.924 144.899 109.026 144.879 109.123C144.86 109.221 144.811 109.311 144.739 109.38C144.695 109.425 144.642 109.46 144.583 109.483C144.56 109.483 143.972 109.739 142.924 110.067C143.278 109.546 143.674 109.054 144.109 108.597L144.188 108.564C144.249 108.537 144.315 108.523 144.381 108.522C144.448 108.521 144.513 108.534 144.575 108.559C144.637 108.584 144.692 108.621 144.739 108.668C144.786 108.715 144.824 108.771 144.849 108.832Z" fill="#07005A"/>
<path d="M142.672 112.852C141.919 115.613 142.486 116.061 142.489 116.065C142.559 116.114 142.732 116.065 142.917 115.939C143.521 115.537 144.212 114.452 144.676 113.17C145.008 112.243 145.523 111.391 146.192 110.668C146.86 109.944 147.667 109.363 148.566 108.958L148.639 108.925C148.76 108.872 148.897 108.87 149.02 108.918C149.142 108.966 149.241 109.061 149.294 109.182C149.347 109.303 149.349 109.44 149.301 109.563C149.253 109.686 149.158 109.785 149.037 109.838C148.161 110.293 147.402 110.945 146.82 111.743C146.238 112.54 145.849 113.462 145.682 114.435C145.489 115.484 145.722 116.347 146.014 116.705C146.053 116.765 146.112 116.811 146.18 116.835C146.923 116.835 147.009 116.36 147.009 116.005C147.025 115.599 147.085 115.196 147.188 114.803L148.147 114.959C148.06 115.301 148.012 115.652 148.005 116.005C148.021 116.249 147.986 116.494 147.9 116.723C147.814 116.952 147.68 117.16 147.507 117.333C147.334 117.506 147.126 117.64 146.897 117.726C146.668 117.811 146.424 117.847 146.18 117.83C145.998 117.826 145.819 117.779 145.658 117.695C145.497 117.61 145.358 117.49 145.25 117.343C144.857 116.807 144.637 116.164 144.62 115.5C144.32 115.988 143.929 116.413 143.468 116.752C142.904 117.127 142.337 117.163 141.909 116.858C141.152 116.31 141.089 114.866 141.716 112.543C141.997 111.658 142.406 110.82 142.931 110.054C143.973 109.722 144.56 109.479 144.59 109.469C144.648 109.446 144.702 109.411 144.746 109.367C143.801 110.357 143.092 111.549 142.672 112.852Z" fill="#07005A"/>
<path d="M140.615 109.755C140.744 109.781 140.858 109.857 140.931 109.966C141.005 110.076 141.032 110.21 141.006 110.339C141.006 110.339 140.983 110.452 140.95 110.635C140.618 110.721 140.266 110.807 139.895 110.894C139.964 110.472 140.017 110.206 140.031 110.147C140.05 110.048 140.098 109.957 140.17 109.887C140.242 109.816 140.333 109.769 140.432 109.752C140.493 109.741 140.555 109.742 140.615 109.755Z" fill="#07005A"/>
<path d="M140.959 124.11C141.018 124.227 141.029 124.363 140.988 124.487C140.948 124.611 140.86 124.715 140.743 124.774C140.674 124.81 140.596 124.83 140.518 124.831C140.426 124.831 140.336 124.805 140.257 124.757C140.179 124.709 140.115 124.64 140.073 124.559C139.928 124.273 139.806 123.977 139.708 123.672H140.763C140.819 123.822 140.885 123.969 140.959 124.11Z" fill="#07005A"/>
<path d="M140.95 110.635C140.658 112.251 139.35 120.051 140.767 123.672H139.709C138.481 119.912 139.493 113.154 139.891 110.893C140.265 110.807 140.618 110.721 140.95 110.635Z" fill="#07005A"/>
<path d="M215.997 125H140.518V124.834C140.596 124.833 140.673 124.814 140.743 124.778C140.86 124.718 140.948 124.615 140.988 124.49C141.029 124.366 141.018 124.231 140.959 124.114C140.886 123.972 140.821 123.826 140.766 123.676H190.617C197.771 124.23 206.194 124.652 213.202 124.804C214.171 124.824 215.104 124.837 215.997 124.837V125Z" fill="#07005A"/>
<path d="M140.949 110.635C140.983 110.452 141.002 110.349 141.006 110.339C141.031 110.21 141.004 110.076 140.931 109.966C140.857 109.857 140.743 109.781 140.614 109.755C140.554 109.743 140.492 109.743 140.432 109.755C141.683 109.451 142.915 109.069 144.118 108.61C143.684 109.067 143.288 109.559 142.934 110.08C142.386 110.24 141.723 110.435 140.949 110.635Z" fill="#07005A"/>
<path d="M140.518 125H0V123.672H139.708C139.805 123.978 139.926 124.276 140.07 124.562C140.112 124.644 140.176 124.712 140.254 124.76C140.333 124.808 140.423 124.834 140.515 124.834L140.518 125Z" fill="#07005A"/>
<path d="M128.064 79.3779C128.943 80.7819 129.849 82.2224 130.778 83.6729C132.56 78.8601 136.927 71.7571 147.51 63.7114C151.463 60.7164 155.64 58.0288 160.004 55.6724C160.18 55.9611 160.369 56.2366 160.568 56.5022C157.459 58.1617 136.214 69.8751 131.389 84.9574C131.36 85.0472 131.306 85.127 131.233 85.1873C131.161 85.2477 131.073 85.2862 130.979 85.2984C130.886 85.3106 130.79 85.2959 130.705 85.2561C130.619 85.2163 130.547 85.153 130.496 85.0736C129.368 83.331 128.276 81.5918 127.221 79.909C121.712 71.1198 116.933 63.5056 112.022 63.7048C112.098 63.5056 112.138 63.3928 112.141 63.3728C112.161 63.3099 112.168 63.2437 112.162 63.178C112.155 63.1124 112.136 63.0486 112.106 62.9903C112.075 62.932 112.033 62.8804 111.982 62.8384C111.931 62.7964 111.873 62.7648 111.81 62.7455V62.7123C117.371 62.3406 122.332 70.2369 128.064 79.3779Z" fill="#07005A"/>
<path d="M112.141 63.3963C112.141 63.3963 112.098 63.5191 112.022 63.7282C111.922 63.7282 111.819 63.7282 111.72 63.7481C111.594 63.7627 111.468 63.7282 111.368 63.6519L111.069 63.4295C111.149 63.227 111.189 63.0976 111.192 63.0976C111.231 62.9728 111.316 62.8681 111.431 62.806C111.546 62.7439 111.681 62.7294 111.806 62.7657C111.87 62.7846 111.929 62.816 111.98 62.8581C112.032 62.9002 112.074 62.9521 112.106 63.0108C112.137 63.0695 112.156 63.1338 112.162 63.2C112.168 63.2661 112.161 63.3329 112.141 63.3963Z" fill="#07005A"/>
<path d="M111.814 62.7324V62.7656C111.688 62.7294 111.554 62.7438 111.439 62.8059C111.324 62.868 111.238 62.9727 111.2 63.0975C111.2 63.0975 111.156 63.2236 111.077 63.4294C108.455 61.5109 107.115 61.1658 106.637 61.106L106.587 61.0363C106.687 60.9779 106.764 60.886 106.803 60.7768C106.843 60.6676 106.843 60.5479 106.803 60.4389C106.759 60.3254 106.709 60.2146 106.653 60.1069C107.353 60.1401 108.913 60.5683 111.814 62.7324Z" fill="#07005A"/>
<path d="M111.069 63.3962C109.912 66.1351 108.112 68.5548 105.822 70.4505C103.531 72.3461 100.818 73.6619 97.9116 74.2864C97.6826 73.9346 97.1749 72.8824 96.916 70.2072C97.0786 70.1507 97.2479 70.091 97.3939 70.0279H97.4237C97.5379 70.0194 97.6452 69.9699 97.7257 69.8885C102.826 67.6813 105.926 62.3706 106.616 61.0828C107.107 61.1425 108.448 61.4877 111.069 63.3962Z" fill="#476FF5"/>
<path d="M105.776 60.5747L105.883 60.369C105.915 60.3038 105.962 60.2467 106.019 60.2019C106.077 60.1571 106.143 60.1257 106.214 60.1101C106.359 60.0795 106.508 60.0717 106.656 60.0868C106.712 60.1945 106.762 60.3053 106.805 60.4187C106.845 60.5278 106.845 60.6474 106.806 60.7567C106.766 60.8659 106.69 60.9578 106.589 61.0162C106.563 61.0328 106.536 61.0461 106.506 61.056C106.383 61.1001 106.247 61.0939 106.127 61.0386C106.008 60.9834 105.916 60.8835 105.869 60.7606C105.841 60.6971 105.81 60.6351 105.776 60.5747Z" fill="#07005A"/>
<path d="M104.2 58.5901C104.599 58.922 104.911 59.2772 105.77 60.5816C105.166 61.6902 102.077 67.0108 97.1686 69.0588C93.3556 69.3442 90.2263 68.3949 88.6865 67.4556C88.0167 67.071 87.2929 66.7891 86.5395 66.6192C85.826 66.4333 85.441 66.3171 85.1955 65.9553C85.1467 65.8855 85.1165 65.8043 85.1078 65.7195C85.0991 65.6347 85.1121 65.5491 85.1457 65.4707C85.3282 64.9397 86.1744 64.1962 87.6512 63.7182C88.869 63.3232 90.2429 64.0734 91.0659 64.5181C91.6533 64.8501 91.9751 65.0127 92.3169 64.8501C92.4422 64.7681 92.546 64.6571 92.6193 64.5265C92.6927 64.3959 92.7335 64.2496 92.7384 64.0999C92.8811 63.2735 92.8778 60.3493 92.1012 59.5726C91.3247 58.7959 86.3968 57.7304 84.8902 58.4839C83.596 59.1278 79.2288 59.3104 78.4954 58.5768C78.3859 58.464 78.376 58.4109 78.376 58.4109C78.3992 58.1254 79.6536 57.5313 80.4003 57.1761C80.7089 57.0301 81.0308 56.8807 81.3527 56.7181C83.1546 55.8153 90.4685 56.0941 96.9197 56.3397L97.7029 56.3696C100.968 56.4791 102.993 57.5412 104.2 58.5901Z" fill="white"/>
<path d="M91.587 18.0916H101.217C102.405 18.0916 103.369 19.0549 103.369 20.2436V46.8036C103.369 47.9922 102.405 48.9556 101.217 48.9556H91.587C90.3989 48.9556 89.4355 47.9922 89.4355 46.8036V20.2436C89.4355 19.0549 90.3989 18.0916 91.587 18.0916Z" fill="#FFCE85" stroke="#07005A"/>
<path d="M112.022 63.7049C110.803 66.6149 108.899 69.1873 106.473 71.203C104.046 73.2187 101.168 74.6182 98.0845 75.2822C98.1097 75.2176 98.1385 75.1544 98.1708 75.093C98.2303 74.9881 98.25 74.8652 98.2262 74.7469C98.2024 74.6286 98.1368 74.5229 98.0413 74.4491C97.9965 74.4023 97.9565 74.3512 97.9219 74.2964C100.828 73.6694 103.54 72.3515 105.828 70.4541C108.117 68.5567 109.915 66.1358 111.07 63.3962L111.368 63.6186C111.469 63.695 111.595 63.7295 111.72 63.7149C111.833 63.7282 111.923 63.7082 112.022 63.7049Z" fill="#07005A"/>
<path d="M98.0317 74.449C98.1271 74.5228 98.1928 74.6285 98.2166 74.7468C98.2403 74.8651 98.2206 74.988 98.1611 75.0929C98.1288 75.1543 98.1 75.2175 98.0748 75.2821L97.8326 75.3352C97.7984 75.3385 97.7639 75.3385 97.7297 75.3352C97.6154 75.3354 97.5046 75.2962 97.4157 75.2243C97.3269 75.1524 97.2655 75.0521 97.2419 74.9402C97.2419 74.9402 97.2419 74.9237 97.2419 74.917C97.2212 74.7906 97.25 74.6611 97.3223 74.5554C97.3946 74.4497 97.5049 74.3759 97.6302 74.3494L97.9155 74.2864C97.9486 74.3444 97.9875 74.399 98.0317 74.449Z" fill="#07005A"/>
<path d="M97.7391 69.895C97.6585 69.9764 97.5513 70.0259 97.4371 70.0344H97.4072L97.7391 69.895Z" fill="#07005A"/>
<path d="M106.629 61.0893C105.939 62.3771 102.839 67.6878 97.739 69.895C97.8152 69.8249 97.8675 69.7326 97.8884 69.6312C97.9094 69.5297 97.898 69.4243 97.8559 69.3297C97.8137 69.2351 97.7429 69.1561 97.6535 69.1039C97.564 69.0517 97.4604 69.0289 97.3573 69.0387H97.1748C102.083 66.9908 105.172 61.6701 105.776 60.5615C105.807 60.6231 105.835 60.6863 105.859 60.7507C105.906 60.8736 105.998 60.9735 106.117 61.0287C106.237 61.084 106.373 61.0902 106.496 61.0461C106.526 61.0362 106.553 61.0229 106.579 61.0063L106.629 61.0893Z" fill="#07005A"/>
<path d="M97.9652 80.7456C96.2695 77.9176 96.8237 75.7403 97.1423 74.937H97.2385C97.2385 74.937 97.2385 74.937 97.2385 74.9602C97.2642 75.0708 97.3269 75.1693 97.4163 75.2393C97.5056 75.3093 97.6161 75.3467 97.7296 75.3453C97.7638 75.3485 97.7983 75.3485 97.8325 75.3453L98.0748 75.2922C97.8358 75.873 97.3082 77.7218 98.8214 80.2444L100.813 83.5635L100.832 83.6034C100.952 83.849 112.822 108.222 123.73 110.343C130.513 111.67 136.672 110.698 140.439 109.752C140.34 109.769 140.248 109.817 140.177 109.887C140.105 109.958 140.056 110.048 140.037 110.147C140.037 110.207 139.971 110.479 139.901 110.894C136.832 111.602 133.693 111.964 130.543 111.972C128.192 111.976 125.846 111.754 123.538 111.309C118.729 110.372 113.29 105.48 107.373 96.7672C104.627 92.6905 102.148 88.4396 99.953 84.0415L97.9652 80.7456Z" fill="#07005A"/>
<path d="M97.1421 74.9369C96.7605 74.4092 96.1731 73.1247 95.9209 70.0976C96.4021 70.0976 96.9164 70.0777 97.4076 70.0378C97.2483 70.1009 97.0923 70.1607 96.9297 70.2171C97.1753 72.8923 97.683 73.9445 97.9253 74.2963L97.6399 74.3594C97.5146 74.3859 97.4043 74.4597 97.332 74.5654C97.2597 74.6711 97.2309 74.8006 97.2516 74.927L97.1421 74.9369Z" fill="#07005A"/>
<path d="M96.2527 69.394C96.5656 69.2992 96.8736 69.1884 97.1752 69.062H97.3577C97.4608 69.0522 97.5644 69.075 97.6539 69.1272C97.7433 69.1794 97.8141 69.2584 97.8563 69.353C97.8984 69.4476 97.9098 69.5531 97.8888 69.6545C97.8679 69.756 97.8156 69.8483 97.7393 69.9184L97.4075 70.0611C96.9031 70.1009 96.4119 70.1175 95.9208 70.1209C95.9208 70.0578 95.9208 69.9947 95.9042 69.9317C95.8897 69.8154 95.9167 69.6977 95.9805 69.5993C96.0442 69.5009 96.1406 69.4282 96.2527 69.394Z" fill="#07005A"/>
<path d="M80.6359 80.824H90.2661C91.4542 80.824 92.4176 81.7874 92.4176 82.976V109.536C92.4176 110.725 91.4542 111.688 90.2661 111.688H80.6359C79.4477 111.688 78.4844 110.725 78.4844 109.536V82.976C78.4844 81.7874 79.4477 80.824 80.6359 80.824Z" fill="#FF8585" stroke="#07005A"/>
<path d="M91.4043 60.2629C90.9132 59.7716 86.5228 58.7693 85.3415 59.3601C83.9012 60.0803 78.9998 60.4687 77.7985 59.2671C77.6506 59.1404 77.537 58.9786 77.468 58.7965C77.399 58.6144 77.3768 58.4178 77.4036 58.2249C77.543 57.4183 78.5651 56.9337 79.9821 56.2633C80.2841 56.1206 80.5993 55.9712 80.9146 55.8152C82.9455 54.7995 89.755 55.0584 96.9661 55.3339L97.7493 55.3605C103.922 55.5961 106.102 58.9883 106.646 60.087C106.499 60.0718 106.35 60.0797 106.205 60.1102C106.134 60.1258 106.067 60.1572 106.01 60.202C105.952 60.2468 105.905 60.3039 105.873 60.3691L105.767 60.5749C104.907 59.2771 104.595 58.9352 104.197 58.5834C102.983 57.5345 100.958 56.4724 97.6995 56.3496L96.9163 56.3197C90.4652 56.0741 83.1513 55.7953 81.3493 56.6981C81.0175 56.8607 80.7055 57.0101 80.3969 57.1561C79.6502 57.5113 78.4058 58.1054 78.3726 58.3909C78.3726 58.3909 78.3726 58.444 78.4921 58.5568C79.2255 59.2904 83.5926 59.1078 84.8868 58.4639C86.3934 57.7104 91.2782 58.7294 92.0979 59.5526C92.9176 60.3757 92.8777 63.2535 92.735 64.0799C92.7302 64.2296 92.6893 64.3759 92.616 64.5065C92.5426 64.6371 92.4389 64.7481 92.3136 64.8301C91.9817 64.9927 91.6499 64.8301 91.0625 64.4981C90.2395 64.0534 88.8657 63.3032 87.6478 63.6982C86.1711 64.1762 85.3249 64.9197 85.1423 65.4507C85.1088 65.5291 85.0957 65.6147 85.1044 65.6995C85.1131 65.7843 85.1433 65.8655 85.1921 65.9353C85.4377 66.3038 85.8226 66.4199 86.5361 66.5992C87.2896 66.7691 88.0133 67.051 88.6832 67.4356C90.2229 68.3617 93.3523 69.3242 97.1652 69.0388C96.8636 69.1651 96.5557 69.2759 96.2427 69.3707C96.1349 69.4042 96.0417 69.4734 95.9784 69.5669C95.9151 69.6604 95.8854 69.7726 95.8942 69.8852C95.8942 69.9482 95.8942 70.0113 95.9108 70.0743H95.8378C92.4231 70.0743 89.6356 69.1616 88.1721 68.282C87.5827 67.9456 86.9462 67.6995 86.2839 67.5518C85.5372 67.3593 84.8304 67.1734 84.3625 66.4697C84.229 66.2716 84.1446 66.0445 84.1163 65.8073C84.088 65.5701 84.1167 65.3295 84.1999 65.1055C84.5317 64.1629 85.733 63.2535 87.3425 62.7323C88.952 62.2112 90.5747 63.0842 91.5371 63.6053L91.7826 63.738C91.8955 62.8452 91.766 60.6247 91.4043 60.2629Z" fill="#07005A"/>
<path d="M62.7159 39.998H72.3462C73.5343 39.998 74.4976 40.9614 74.4976 42.1501V68.7101C74.4976 69.8987 73.5343 70.8621 72.3462 70.8621H62.7159C61.5278 70.8621 60.5645 69.8987 60.5645 68.7101V42.1501C60.5645 40.9614 61.5278 39.998 62.7159 39.998Z" fill="white" stroke="#07005A"/>
<path d="M64.7134 0H55.0831C53.6187 0 52.4316 1.18735 52.4316 2.65202V29.212C52.4316 30.6767 53.6187 31.864 55.0831 31.864H64.7134C66.1777 31.864 67.3648 30.6767 67.3648 29.212V2.65202C67.3648 1.18735 66.1777 0 64.7134 0Z" fill="#FFEED4"/>
<path d="M42.8048 74.1855H52.435C53.6232 74.1855 54.5865 75.1489 54.5865 76.3376V102.898C54.5865 104.086 53.6232 105.05 52.435 105.05H42.8048C41.6167 105.05 40.6533 104.086 40.6533 102.898V76.3376C40.6533 75.1489 41.6167 74.1855 42.8048 74.1855Z" fill="#F2F6FF" stroke="#07005A"/>
<path d="M30.5265 27.0535H40.1567C41.3449 27.0535 42.3082 28.0169 42.3082 29.2055V55.7655C42.3082 56.9541 41.3448 57.9175 40.1567 57.9175H30.5265C29.3383 57.9175 28.375 56.9541 28.375 55.7655V29.2055C28.375 28.0169 29.3383 27.0535 30.5265 27.0535Z" fill="#476FF5" stroke="#07005A"/>
<path d="M185.835 40.1619C185.835 40.1619 189.154 39.8299 189.486 42.8172C189.818 45.8044 186.831 48.1279 185.006 46.4683" fill="white"/>
<path d="M186.403 47.5173C185.763 47.5219 185.144 47.2848 184.671 46.8535C184.615 46.812 184.569 46.7594 184.535 46.6992C184.502 46.6389 184.481 46.5722 184.474 46.5034C184.467 46.4346 184.475 46.3652 184.497 46.2995C184.518 46.2339 184.553 46.1735 184.6 46.1221C184.646 46.0707 184.702 46.0296 184.765 46.0012C184.828 45.9729 184.897 45.958 184.966 45.9575C185.035 45.957 185.103 45.9709 185.167 45.9983C185.23 46.0257 185.287 46.066 185.334 46.1166C185.596 46.3509 185.925 46.4961 186.275 46.5313C186.624 46.5665 186.976 46.4899 187.279 46.3125C187.867 45.9717 188.342 45.4658 188.645 44.8575C188.948 44.2492 189.066 43.5652 188.985 42.8904C188.713 40.4342 185.998 40.6632 185.879 40.6732C185.747 40.6864 185.615 40.6466 185.512 40.5626C185.409 40.4785 185.344 40.3572 185.331 40.2251C185.318 40.0931 185.358 39.9612 185.442 39.8585C185.526 39.7558 185.647 39.6907 185.779 39.6774C187.106 39.5447 189.668 40.0094 189.974 42.7709C190.081 43.6474 189.926 44.5362 189.526 45.3237C189.127 46.1113 188.501 46.7617 187.73 47.192C187.32 47.4036 186.865 47.5151 186.403 47.5173Z" fill="#07005A"/>
<circle cx="100" cy="22" r="1.5" stroke="#07005A"/>
<circle cx="39" cy="31" r="1.5" stroke="#07005A"/>
<circle cx="51" cy="78" r="1.5" stroke="#07005A"/>
<circle cx="89" cy="85" r="1.5" stroke="#07005A"/>
</g>
<defs>
<clipPath id="clip0">
<rect width="266" height="125" fill="white"/>
</clipPath>
</defs>
</svg>
