<svg width="247" height="149" viewBox="0 0 247 149" fill="none" xmlns="http://www.w3.org/2000/svg">
<g clip-path="url(#clip0)">
<path d="M22.6256 104.455C22.4173 104.448 22.2202 104.359 22.0774 104.208C21.9345 104.056 21.8574 103.854 21.8631 103.646C21.978 99.4708 23.5501 96.642 26.0414 96.0157C28.5327 95.3894 31.3948 97.1483 33.3847 100.635C33.4879 100.815 33.5151 101.029 33.4602 101.23C33.4054 101.431 33.273 101.601 33.0923 101.705C32.9115 101.808 32.6971 101.835 32.4963 101.78C32.2955 101.725 32.1248 101.593 32.0216 101.412C30.4234 98.6044 28.2245 97.0804 26.4226 97.5345C24.6208 97.9886 23.4978 100.285 23.4038 103.693C23.3984 103.896 23.3142 104.089 23.169 104.231C23.0238 104.374 22.8289 104.454 22.6256 104.455Z" fill="#07005A"/>
<path fill-rule="evenodd" clip-rule="evenodd" d="M26.2347 87.3573C25.9285 87.5932 25.5628 87.7396 25.1782 87.7801C24.7937 87.8206 24.4055 87.7538 24.0567 87.5869C11.5271 80.6977 0.945538 67.8483 0.783629 53.9603C0.600829 39.7017 18.3325 36.7007 24.72 58.814C29.5303 75.4525 28.3761 82.9367 27.5143 85.6193C27.265 86.3101 26.8205 86.9139 26.2347 87.3573Z" fill="#476FF5"/>
<path d="M25.5606 88.2028C25.4695 88.2044 25.3809 88.1739 25.3102 88.1166C25.2395 88.0593 25.1913 87.9789 25.1741 87.8896C20.2019 62.9945 13.5793 48.7046 5.42639 45.4062C5.33022 45.3638 5.25477 45.2851 5.21658 45.1873C5.1784 45.0894 5.1806 44.9805 5.2227 44.8842C5.24211 44.8353 5.27121 44.7907 5.30825 44.7533C5.34529 44.7158 5.38952 44.6862 5.43829 44.6662C5.48705 44.6462 5.53935 44.6363 5.59205 44.637C5.64475 44.6377 5.69677 44.649 5.74499 44.6703C14.1016 48.0836 20.9174 62.5665 25.9418 87.7226C25.9618 87.8243 25.9406 87.9298 25.8828 88.0159C25.825 88.102 25.7354 88.1617 25.6337 88.1819L25.5606 88.2028Z" fill="#07005A"/>
<path d="M22.6673 75.6143C22.5889 75.6151 22.5122 75.5914 22.448 75.5465C22.3661 75.4902 22.3089 75.4046 22.2885 75.3075C22.2681 75.2103 22.2859 75.1089 22.3383 75.0245C24.5946 71.6687 23.9052 62.4517 23.5396 58.647C23.5312 58.5944 23.5337 58.5406 23.5468 58.4889C23.56 58.4373 23.5835 58.3889 23.6161 58.3467C23.6486 58.3044 23.6895 58.2693 23.7361 58.2434C23.7827 58.2175 23.8341 58.2014 23.8872 58.1961C23.9402 58.1907 23.9938 58.1963 24.0447 58.2124C24.0955 58.2285 24.1425 58.2547 24.1829 58.2896C24.2232 58.3245 24.2559 58.3673 24.2791 58.4153C24.3023 58.4633 24.3155 58.5155 24.3178 58.5687C24.8139 63.4016 25.3049 72.0236 22.9912 75.4629C22.9528 75.5117 22.9035 75.5508 22.8473 75.5771C22.791 75.6034 22.7294 75.6161 22.6673 75.6143Z" fill="#07005A"/>
<path d="M20.5937 69.2209C20.5422 69.2211 20.4912 69.2111 20.4437 69.1914C20.3961 69.1717 20.353 69.1426 20.3169 69.1061C14.9164 63.673 6.30913 58.386 2.22484 57.2796C2.12441 57.2526 2.03883 57.1868 1.98692 57.0968C1.93501 57.0067 1.92102 56.8998 1.94803 56.7994C1.97504 56.6991 2.04084 56.6136 2.13095 56.5617C2.22106 56.5098 2.32811 56.4958 2.42853 56.5228C7.06644 57.7806 15.8565 63.5164 20.8705 68.5267C20.9252 68.5815 20.9625 68.6512 20.9775 68.7271C20.9926 68.803 20.9849 68.8816 20.9552 68.9531C20.9256 69.0246 20.8755 69.0857 20.8111 69.1287C20.7468 69.1717 20.6711 69.1947 20.5937 69.1948V69.2209Z" fill="#07005A"/>
<path d="M23.9314 80.6664C23.8968 80.6715 23.8616 80.6715 23.8269 80.6664C17.4976 78.8738 11.5476 75.9451 6.26765 72.0235C6.22718 71.9917 6.1934 71.9521 6.16821 71.9072C6.14303 71.8623 6.12695 71.8129 6.12089 71.7617C6.11483 71.7106 6.1189 71.6588 6.13288 71.6092C6.14686 71.5597 6.17047 71.5134 6.20236 71.4729C6.23426 71.4325 6.27381 71.3987 6.31876 71.3736C6.36371 71.3484 6.41318 71.3323 6.46435 71.3263C6.51552 71.3202 6.56738 71.3243 6.61697 71.3383C6.66656 71.3522 6.71291 71.3758 6.75338 71.4077C11.9476 75.2617 17.8003 78.1391 24.0254 79.8992C24.1152 79.9252 24.1927 79.9825 24.2439 80.0606C24.2951 80.1387 24.3166 80.2326 24.3047 80.3252C24.2927 80.4179 24.2479 80.5032 24.1785 80.5657C24.1091 80.6283 24.0196 80.664 23.9262 80.6664H23.9314Z" fill="#07005A"/>
<path fill-rule="evenodd" clip-rule="evenodd" d="M36.9675 89.1213C36.7624 88.7059 36.6826 88.2399 36.7376 87.78C36.9988 86.0316 38.4664 81.517 45.862 73.4796C55.6967 62.8327 64.8315 69.5079 60.7054 77.4827C56.7099 85.2487 47.1259 89.4866 38.1269 89.8624C37.8835 89.8602 37.6456 89.7895 37.4405 89.6585C37.2355 89.5274 37.0715 89.3412 36.9675 89.1213Z" fill="#476FF5"/>
<path d="M37.2235 89.9512C37.1503 89.9509 37.0786 89.9302 37.0166 89.8913C36.9546 89.8525 36.9047 89.797 36.8726 89.7313C36.8406 89.6655 36.8275 89.5921 36.8351 89.5194C36.8426 89.4466 36.8704 89.3774 36.9153 89.3196C46.8388 76.5329 54.8246 70.2699 60.5593 70.7188C60.6108 70.7227 60.661 70.7368 60.707 70.7602C60.753 70.7837 60.794 70.8159 60.8275 70.8552C60.861 70.8945 60.8864 70.94 60.9022 70.9892C60.918 71.0383 60.9239 71.0901 60.9196 71.1415C60.9103 71.2449 60.8608 71.3406 60.7817 71.4079C60.7026 71.4752 60.6003 71.5089 60.4966 71.5016C55.0387 71.0789 47.3141 77.2426 37.516 89.7998C37.4811 89.8447 37.4369 89.8816 37.3864 89.9077C37.3359 89.9338 37.2803 89.9487 37.2235 89.9512Z" fill="#07005A"/>
<path d="M42.394 83.6883C42.2987 83.6877 42.2068 83.6524 42.1357 83.5889C42.0645 83.5255 42.0189 83.4384 42.0075 83.3438C41.668 80.7342 44.3891 75.964 46.0448 73.3649C46.0994 73.2813 46.1843 73.2221 46.2817 73.1997C46.3791 73.1773 46.4814 73.1935 46.5671 73.2448C46.6507 73.2994 46.71 73.3843 46.7324 73.4816C46.7548 73.5789 46.7386 73.6811 46.6872 73.7667C43.9765 78.036 42.5455 81.4858 42.77 83.229C42.7766 83.28 42.7731 83.3319 42.7596 83.3816C42.7461 83.4313 42.7229 83.4778 42.6913 83.5186C42.6598 83.5593 42.6205 83.5934 42.5758 83.6189C42.531 83.6445 42.4817 83.6609 42.4306 83.6674L42.394 83.6883Z" fill="#07005A"/>
<path d="M45.3659 80.6716C45.2732 80.6714 45.1836 80.6383 45.113 80.5783C45.0423 80.5182 44.9953 80.4351 44.9803 80.3436C44.9652 80.2522 44.9832 80.1584 45.0308 80.0789C45.0785 79.9995 45.1528 79.9395 45.2406 79.9096C49.5025 78.4744 56.1042 77.7176 59.0916 78.3439C59.1935 78.3646 59.2828 78.425 59.3401 78.5116C59.3974 78.5982 59.418 78.704 59.3972 78.8058C59.3764 78.9075 59.316 78.9968 59.2294 79.0541C59.1427 79.1113 59.0368 79.1318 58.935 79.1111C56.3235 78.5892 50.0561 79.1424 45.4913 80.6768C45.4495 80.6826 45.4071 80.6809 45.3659 80.6716Z" fill="#07005A"/>
<path d="M46.5408 86.7831C44.4067 86.7916 42.2772 86.5853 40.1845 86.1673C40.1341 86.157 40.0862 86.1369 40.0436 86.1081C40.001 86.0794 39.9644 86.0425 39.936 85.9996C39.9077 85.9567 39.888 85.9086 39.8782 85.8582C39.8685 85.8077 39.8687 85.7558 39.879 85.7054C39.8893 85.655 39.9094 85.6072 39.9382 85.5646C39.967 85.522 40.0039 85.4854 40.0468 85.4571C40.0898 85.4287 40.1379 85.4091 40.1884 85.3993C40.2389 85.3895 40.2908 85.3898 40.3412 85.4001C44.325 86.1686 48.416 86.2004 52.4113 85.494C52.5137 85.474 52.6199 85.495 52.7069 85.5527C52.7939 85.6103 52.8547 85.6999 52.8761 85.802C52.8961 85.9037 52.8749 86.0092 52.8171 86.0953C52.7593 86.1814 52.6697 86.2411 52.568 86.2612C50.5793 86.6204 48.5616 86.7951 46.5408 86.7831Z" fill="#07005A"/>
<path d="M34.0638 108.39C33.8879 108.389 33.7173 108.33 33.5792 108.221C33.441 108.112 33.3432 107.961 33.3013 107.79C26.1146 78.0673 39.9552 58.3913 44.5095 55.4738C44.6848 55.3617 44.8974 55.3237 45.1006 55.3682C45.3039 55.4128 45.4811 55.5362 45.5933 55.7113C45.7055 55.8864 45.7435 56.0988 45.6989 56.3019C45.6544 56.505 45.5309 56.6821 45.3556 56.7942C43.2665 58.1407 38.8009 63.626 35.8135 72.5977C33.3274 80.0662 31.139 92.1693 34.8263 107.419C34.8504 107.52 34.8546 107.623 34.8385 107.725C34.8224 107.827 34.7864 107.924 34.7325 108.012C34.6787 108.1 34.608 108.176 34.5247 108.236C34.4413 108.297 34.3468 108.34 34.2466 108.364C34.187 108.38 34.1256 108.389 34.0638 108.39Z" fill="#07005A"/>
<path fill-rule="evenodd" clip-rule="evenodd" d="M48.3013 53.8193C49.5809 51.5803 49.7428 49.263 48.6512 48.642C47.5596 48.0209 45.6481 49.3309 44.3632 51.5699C43.0784 53.8089 42.9217 56.1262 44.0081 56.7472C45.0944 57.3683 47.006 56.0583 48.3013 53.8193Z" fill="#476FF5"/>
<path fill-rule="evenodd" clip-rule="evenodd" d="M48.3848 58.9079C50.9388 58.8557 52.9914 57.7858 52.9653 56.5228C52.9392 55.2598 50.8448 54.2786 48.2647 54.3308C45.6846 54.383 43.6634 55.4477 43.6842 56.7107C43.7051 57.9737 45.8308 58.9758 48.3848 58.9079Z" fill="#476FF5"/>
<path fill-rule="evenodd" clip-rule="evenodd" d="M43.6893 56.7994C44.5929 56.1262 44.2116 54.0855 42.838 52.2379C41.4644 50.3904 39.6207 49.4405 38.7172 50.1033C37.8136 50.7661 38.1949 52.812 39.5685 54.6596C40.9421 56.5072 42.7858 57.4675 43.6893 56.7994Z" fill="#476FF5"/>
<path fill-rule="evenodd" clip-rule="evenodd" d="M45.3553 60.4371C46.2902 58.3495 46.2275 56.2619 45.2143 55.813C44.201 55.3642 42.6028 56.6951 41.6732 58.7931C40.7435 60.8912 40.8009 62.9684 41.8142 63.4225C42.8274 63.8765 44.3943 62.5352 45.3553 60.4371Z" fill="#476FF5"/>
<path fill-rule="evenodd" clip-rule="evenodd" d="M42.1121 58.5426C44.1595 58.3234 45.7368 57.3161 45.6219 56.2984C45.507 55.2807 43.7626 54.6335 41.7152 54.8579C39.6678 55.0823 38.0905 56.0844 38.2002 57.1021C38.3099 58.1199 40.0596 58.7618 42.1121 58.5426Z" fill="#476FF5"/>
<path d="M44.645 56.9299C45.3113 56.9299 45.8514 56.3901 45.8514 55.7243C45.8514 55.0584 45.3113 54.5187 44.645 54.5187C43.9786 54.5187 43.4385 55.0584 43.4385 55.7243C43.4385 56.3901 43.9786 56.9299 44.645 56.9299Z" fill="white"/>
<path fill-rule="evenodd" clip-rule="evenodd" d="M52.4169 106.882H52.4639C53.8271 106.939 54.8769 108.594 54.5113 110.321L46.4837 146.61C46.3849 147.065 46.1332 147.474 45.7704 147.767C45.4075 148.06 44.9553 148.221 44.4886 148.222H21.978C21.5108 148.222 21.0576 148.062 20.6931 147.77C20.3286 147.478 20.0744 147.071 19.9724 146.615L11.9762 110.394C11.5793 108.599 12.6761 106.882 14.0654 106.882H52.4169Z" fill="#FF8585"/>
<path d="M44.4883 149H21.9777C21.3329 148.996 20.7085 148.774 20.2059 148.37C19.7033 147.967 19.3522 147.405 19.2096 146.777L11.2081 110.561C11.0733 109.979 11.0694 109.374 11.1967 108.79C11.3241 108.206 11.5795 107.658 11.9445 107.185C12.1968 106.851 12.5225 106.579 12.8965 106.391C13.2705 106.202 13.6828 106.103 14.1016 106.099H52.5106C52.9211 106.124 53.3211 106.238 53.6821 106.435C54.0432 106.632 54.3565 106.905 54.5997 107.237C54.9416 107.696 55.181 108.222 55.3018 108.781C55.4225 109.341 55.4218 109.919 55.2996 110.478L47.2616 146.777C47.124 147.409 46.7736 147.974 46.2688 148.379C45.764 148.784 45.1354 149.003 44.4883 149ZM14.1016 107.665C13.9209 107.679 13.7458 107.734 13.5886 107.824C13.4315 107.914 13.2963 108.038 13.1928 108.187C12.9754 108.478 12.8243 108.814 12.7504 109.17C12.6764 109.526 12.6812 109.894 12.7645 110.248L20.766 146.464C20.8297 146.744 20.9868 146.995 21.2116 147.175C21.4364 147.355 21.7157 147.454 22.0038 147.455H44.5144C44.8046 147.457 45.0866 147.359 45.3129 147.177C45.5393 146.996 45.6963 146.742 45.7574 146.458L53.7745 110.17C53.8492 109.834 53.8514 109.487 53.7812 109.15C53.711 108.814 53.5698 108.496 53.3671 108.218C53.2621 108.071 53.1265 107.948 52.9697 107.858C52.8129 107.768 52.6385 107.713 52.4584 107.696V106.913V107.696L14.1016 107.665Z" fill="#FF8585"/>
<path d="M110.197 49.6128C115.032 49.6128 118.951 45.6965 118.951 40.8656C118.951 36.0346 115.032 32.1183 110.197 32.1183C105.363 32.1183 101.444 36.0346 101.444 40.8656C101.444 45.6965 105.363 49.6128 110.197 49.6128Z" fill="white"/>
<path fill-rule="evenodd" clip-rule="evenodd" d="M145.833 48.3341C148.768 48.9238 154.874 50.0198 154.874 41.2413C154.874 32.4628 147.515 33.5118 144.888 34.5139L145.833 35.1193V48.3341Z" fill="white"/>
<path d="M148.961 49.5031C147.857 49.4785 146.759 49.3439 145.681 49.1013C145.504 49.0653 145.344 48.9694 145.229 48.8297C145.114 48.69 145.051 48.515 145.049 48.334V35.5473L144.464 35.1715C144.341 35.0945 144.242 34.9846 144.178 34.8541C144.114 34.7237 144.088 34.578 144.103 34.4335C144.117 34.289 144.172 34.1515 144.261 34.0365C144.35 33.9216 144.469 33.8339 144.605 33.7832C146.381 33.1047 150.089 32.4419 152.727 34.2581C154.67 35.5942 155.641 37.948 155.641 41.2309C155.641 44.5137 154.811 46.8309 153.171 48.1723C151.965 49.0906 150.477 49.5611 148.961 49.5031ZM146.616 47.6869C148.22 47.9844 150.612 48.2662 152.194 46.9719C153.453 45.928 154.09 44.0178 154.09 41.2309C154.09 38.4439 153.328 36.565 151.839 35.5368C150.272 34.4565 148.157 34.493 146.569 34.8322C146.601 34.921 146.617 35.0146 146.616 35.1088V47.6869Z" fill="#07005A"/>
<path fill-rule="evenodd" clip-rule="evenodd" d="M219.721 127.262C219.721 127.409 219.721 127.55 219.721 127.696C219.702 128.953 219.604 130.208 219.428 131.453C218.963 134.564 218.085 137.599 216.817 140.477C216.253 141.762 215.622 143.016 214.926 144.235C214.136 145.593 213.264 146.902 212.315 148.155H31.0342C30.3556 146.898 29.7826 145.587 29.3211 144.235C28.8971 143.017 28.6064 141.757 28.4541 140.477C28.4541 140.279 28.4123 140.081 28.4019 139.882C28.2388 136.996 28.7465 134.111 29.8852 131.453C30.4401 130.134 31.1278 128.875 31.9378 127.696C34.6386 123.859 38.2539 120.756 42.4566 118.667C46.3656 116.68 50.5982 115.408 54.955 114.909C55.5138 114.841 56.0831 114.784 56.6524 114.742C59.3161 111.976 62.2931 108.964 65.4843 105.869C66.7743 104.627 68.0957 103.369 69.4536 102.112C72.7493 99.048 76.212 95.9792 79.7323 93.0826C81.2991 91.7935 82.866 90.5357 84.459 89.3248C88.7833 85.9541 93.3755 82.9414 98.1899 80.3167C100.173 79.2459 102.227 78.3113 104.337 77.5192C105.225 77.1904 106.118 76.8669 107.011 76.5589C128.493 69.0487 151.139 66.58 167.957 76.5589L168.542 76.9086C170.213 77.9469 171.819 79.085 173.352 80.3167C176.693 83.0335 179.774 86.0544 182.555 89.3405C183.599 90.5513 184.618 91.8039 185.61 93.0983C186.185 93.8394 186.749 94.5927 187.303 95.3581C188.343 95.2352 189.389 95.1724 190.436 95.1702C197.157 95.1963 203.637 97.6698 208.664 102.127C209.979 103.274 211.194 104.531 212.294 105.885C214.499 108.595 216.252 111.642 217.485 114.909C217.955 116.137 218.351 117.392 218.671 118.667C219.377 121.477 219.729 124.365 219.721 127.262Z" fill="#FFCE85"/>
<path fill-rule="evenodd" clip-rule="evenodd" d="M173.331 80.3167H98.1899C100.173 79.2459 102.227 78.3113 104.337 77.5193C105.225 77.1905 106.118 76.8669 107.011 76.559H167.936L168.521 76.9086C170.192 77.9469 171.798 79.085 173.331 80.3167Z" fill="#FFEED4"/>
<path fill-rule="evenodd" clip-rule="evenodd" d="M185.59 93.0983H79.7324C81.2993 91.8092 82.8661 90.5513 84.4591 89.3405H182.534C183.584 90.5513 184.597 91.8039 185.59 93.0983Z" fill="#FFEED4"/>
<path fill-rule="evenodd" clip-rule="evenodd" d="M212.278 105.885H65.4844L69.4538 102.127H208.648C209.964 103.274 211.178 104.531 212.278 105.885Z" fill="#FFEED4"/>
<path fill-rule="evenodd" clip-rule="evenodd" d="M218.655 118.667H42.4565L54.9549 114.909H217.47C217.939 116.137 218.335 117.392 218.655 118.667Z" fill="#FFEED4"/>
<path fill-rule="evenodd" clip-rule="evenodd" d="M219.716 127.696C219.697 128.953 219.599 130.208 219.423 131.453H29.8853L31.9378 127.696H219.716Z" fill="#FFEED4"/>
<path fill-rule="evenodd" clip-rule="evenodd" d="M216.827 140.477C216.263 141.762 215.632 143.016 214.937 144.235H29.3211L28.4541 140.477H216.827Z" fill="#FFEED4"/>
<path d="M210.32 148.937H33.5255C32.596 148.94 31.6865 148.667 30.9121 148.154C30.1378 147.64 29.5332 146.908 29.1748 146.051C28.3199 144.108 27.7906 142.038 27.6079 139.924C27.2319 133.52 30.0575 127.299 35.5624 122.403C40.9367 117.633 48.2853 114.648 56.2763 113.98C69.7043 100.06 88.8095 82.3991 104.029 76.7833C122.763 69.8472 149.228 64.1218 168.913 76.2614C175.295 80.1966 181.761 86.5169 187.631 94.5283C188.598 94.4343 189.527 94.3873 190.405 94.3873C206.993 94.3873 220.489 109.137 220.489 127.268C220.489 133.859 218.253 140.837 214.195 146.897C213.765 147.528 213.187 148.044 212.512 148.399C211.836 148.755 211.083 148.94 210.32 148.937ZM141.404 70.7448C128.462 70.7448 115.258 74.3043 104.588 78.2551C89.5721 83.7926 70.5399 101.449 57.2164 115.279C57.079 115.423 56.8924 115.508 56.6941 115.519C40.8009 116.72 28.454 127.628 29.1696 139.835C29.3413 141.772 29.8263 143.669 30.6059 145.451C30.8455 146.022 31.2494 146.51 31.7663 146.851C32.2832 147.193 32.8899 147.374 33.5098 147.372H210.304C210.817 147.38 211.324 147.261 211.78 147.025C212.236 146.789 212.626 146.443 212.915 146.02C216.801 140.206 218.943 133.546 218.943 127.262C218.943 109.998 206.152 95.9478 190.426 95.9478C189.406 95.9493 188.388 96.0103 187.376 96.1305C187.238 96.1458 187.099 96.1244 186.972 96.0685C186.846 96.0126 186.736 95.9241 186.655 95.8122C180.826 87.7695 174.418 81.4649 168.114 77.5453C160.06 72.6185 150.8 70.7448 141.404 70.7448Z" fill="#07005A"/>
<path fill-rule="evenodd" clip-rule="evenodd" d="M233.462 46.9719C234.308 44.7746 235.181 42.3947 235.651 40.8029C236.868 36.7529 232.606 36.1683 230.543 41.9981L230.579 42.52L230.339 42.5878C231.545 38.8562 232.355 35.0567 230.945 34.4199C228.626 33.3761 226.793 37.3531 224.155 45.307L223.936 45.4166C225.179 41.1787 226.793 36.137 225.571 35.2602C223.857 34.0285 220.943 36.7581 217.371 48.8873C217.148 49.0238 216.953 49.2009 216.796 49.4092C215.94 48.0209 214.655 45.3331 211.307 44.9103C206.972 44.3467 209.27 48.0731 211.61 51.6534C213.093 53.8976 213.292 58.4017 214.101 60.8233C214.173 61.3298 214.351 61.8154 214.623 62.2482C213.579 64.5341 207.578 77.5192 197.111 98.4008C185.537 121.459 187.109 133.369 195.586 136.344C204.063 139.319 213.156 134.308 217.956 108.046C221.283 89.8781 227.137 68.0361 227.137 68.0361C227.137 68.0361 228.182 66.7261 231.117 63.7773C234.052 60.8286 235.196 54.3204 236.763 49.31C238.33 44.2997 235.316 44.0283 233.462 46.9719Z" fill="white"/>
<path fill-rule="evenodd" clip-rule="evenodd" d="M120.936 138.901L121.871 136.119H123.343L135.878 139.167L141.331 140.712L142.334 141.568V142.34L141.054 142.841L139.994 143.609L140.077 144.543H138.631L137.863 145.827L136.098 146.124L135.309 147.079L135.131 147.695L119.165 147.909L118.977 146.844L120.936 138.901Z" fill="white"/>
<path d="M167.978 100.864C167.816 100.864 167.658 100.814 167.524 100.723C167.354 100.602 167.24 100.418 167.206 100.213C167.172 100.008 167.22 99.7971 167.341 99.6273C170.772 94.8153 175.045 92.0962 180.027 91.5586C181.839 91.3681 183.67 91.4846 185.443 91.9031C185.547 91.9233 185.645 91.9641 185.732 92.023C185.819 92.0819 185.893 92.1578 185.95 92.2461C186.008 92.3343 186.046 92.4332 186.064 92.5368C186.082 92.6403 186.08 92.7465 186.056 92.8489C186.032 92.9513 185.988 93.0478 185.926 93.1327C185.864 93.2177 185.785 93.2893 185.695 93.3432C185.604 93.3972 185.504 93.4324 185.4 93.4468C185.296 93.4612 185.19 93.4545 185.088 93.427C183.485 93.0533 181.832 92.9475 180.194 93.1139C175.677 93.6045 171.78 96.0992 168.62 100.535C168.547 100.637 168.45 100.72 168.339 100.777C168.227 100.834 168.103 100.864 167.978 100.864Z" fill="#07005A"/>
<path d="M168.965 116.642C168.758 116.642 168.559 116.56 168.411 116.414C168.263 116.269 168.179 116.071 168.176 115.864C168.456 111.746 169.79 107.768 172.052 104.314C175.483 99.0272 180.56 95.7548 187.14 94.5805C187.243 94.5627 187.349 94.5653 187.451 94.5882C187.553 94.611 187.649 94.6537 187.734 94.7138C187.82 94.7739 187.892 94.8502 187.948 94.9384C188.004 95.0266 188.042 95.1249 188.06 95.2277C188.078 95.3305 188.075 95.4358 188.052 95.5376C188.029 95.6394 187.986 95.7357 187.926 95.821C187.866 95.9063 187.79 95.9789 187.702 96.0347C187.613 96.0905 187.515 96.1284 187.412 96.1462C181.275 97.237 176.549 100.28 173.363 105.186C171.266 108.379 170.021 112.055 169.743 115.864C169.742 116.07 169.659 116.267 169.514 116.412C169.368 116.558 169.171 116.64 168.965 116.642Z" fill="#07005A"/>
<path d="M82.4899 116.876C82.3781 116.877 82.2676 116.854 82.1658 116.808C82.0639 116.762 81.9732 116.694 81.8997 116.61C76.212 110.144 61.8804 111.642 59.3473 113.035C59.2569 113.089 59.1567 113.123 59.0526 113.137C58.9484 113.151 58.8426 113.144 58.7413 113.116C58.6401 113.088 58.5454 113.04 58.4631 112.975C58.3807 112.91 58.3122 112.829 58.2618 112.737C58.2114 112.645 58.1799 112.544 58.1695 112.439C58.159 112.335 58.1696 112.229 58.2007 112.129C58.2318 112.029 58.2827 111.936 58.3505 111.856C58.4183 111.776 58.5015 111.71 58.5952 111.663C61.5305 110.05 76.6455 108.265 83.0748 115.577C83.1764 115.689 83.243 115.828 83.2666 115.978C83.2902 116.127 83.2698 116.28 83.2077 116.418C83.1456 116.556 83.0446 116.673 82.9172 116.754C82.7897 116.836 82.6412 116.878 82.4899 116.876Z" fill="#07005A"/>
<path fill-rule="evenodd" clip-rule="evenodd" d="M56.1826 114.784H56.2304C56.2237 114.778 56.2152 114.775 56.2065 114.775C56.1978 114.775 56.1893 114.778 56.1826 114.784Z" fill="white"/>
<path d="M80.1918 121.605C80.0223 121.605 79.8573 121.55 79.7217 121.448C70.8115 114.731 58.9974 115.347 56.7411 115.54C56.6382 115.549 56.5346 115.537 56.4363 115.506C56.338 115.474 56.2468 115.424 56.168 115.357C56.0892 115.291 56.0243 115.209 55.977 115.117C55.9297 115.026 55.9009 114.926 55.8924 114.823C55.8838 114.72 55.8956 114.616 55.927 114.518C55.9585 114.42 56.009 114.329 56.0757 114.25C56.1423 114.171 56.2239 114.106 56.3157 114.059C56.4074 114.012 56.5076 113.983 56.6105 113.975C58.9921 113.771 71.3286 113.134 80.688 120.191C80.7703 120.252 80.8396 120.33 80.892 120.418C80.9444 120.506 80.9789 120.604 80.9934 120.706C81.008 120.808 81.0023 120.912 80.9768 121.011C80.9513 121.111 80.9064 121.204 80.8446 121.287C80.769 121.388 80.6703 121.469 80.5568 121.525C80.4432 121.58 80.3181 121.608 80.1918 121.605Z" fill="#07005A"/>
<path fill-rule="evenodd" clip-rule="evenodd" d="M121.562 65.4318L122.215 77.6289C122.215 77.6289 122.654 86.1569 133.084 84.9095C145.452 83.2707 143.927 75.9431 143.927 75.9431L140.955 59.9413L121.562 65.4318Z" fill="white"/>
<path d="M131.094 85.8176C128.384 85.8176 126.174 85.1078 124.498 83.6934C122.746 82.1502 121.652 79.9948 121.442 77.6706L120.769 65.4735L122.335 65.39L123.009 77.5871C123.202 79.4836 124.098 81.2393 125.521 82.5087C127.266 83.9753 129.783 84.518 133.001 84.1318C137.45 83.5421 140.621 82.0859 142.156 79.92C142.973 78.826 143.338 77.4601 143.175 76.1049L140.198 60.0822L141.738 59.7952L144.71 75.8021C144.956 77.5794 144.499 79.3823 143.436 80.8281C141.613 83.3959 138.166 85.0034 133.199 85.6871C132.501 85.7728 131.798 85.8164 131.094 85.8176Z" fill="#07005A"/>
<path d="M216.535 63.9026C216.389 63.9028 216.247 63.8631 216.122 63.7878L215.762 63.5686C213.819 62.4047 213.098 61.6584 212.174 54.9206C211.949 53.2504 210.753 51.4185 209.797 49.9467C209.003 48.7307 208.382 47.7756 208.23 46.9458C208.079 46.0168 208.022 44.9782 208.753 44.3049C209.484 43.6316 210.602 43.6003 212.461 44.0857C214.623 44.6546 216.049 46.2829 216.874 47.5825C219.334 39.9939 221.356 34.6757 224.071 34.3208C224.468 34.2634 225.675 34.1068 226.39 34.9627C227.55 36.3562 226.834 39.2424 223.601 49.1587C223.569 49.2567 223.519 49.3475 223.452 49.4258C223.385 49.5042 223.303 49.5686 223.211 49.6153C223.119 49.6621 223.019 49.6903 222.916 49.6984C222.813 49.7064 222.71 49.6942 222.612 49.6623C222.514 49.6304 222.423 49.5796 222.344 49.5126C222.266 49.4457 222.201 49.3639 222.155 49.2721C222.108 49.1803 222.08 49.0801 222.072 48.9774C222.063 48.8746 222.076 48.7713 222.108 48.6733C223.91 43.1515 225.952 36.8886 225.184 35.9648C225.085 35.8395 224.75 35.8082 224.275 35.8708C222.186 36.1475 219.575 44.284 218.008 49.143L217.794 49.858C217.741 50.0099 217.642 50.1416 217.511 50.2351C217.38 50.3286 217.223 50.3792 217.062 50.3799C216.898 50.3849 216.737 50.3368 216.602 50.2427C216.468 50.1487 216.367 50.0138 216.315 49.858C216.315 49.8267 214.989 46.3404 212.074 45.5731C210.293 45.1086 209.881 45.38 209.813 45.4375C209.745 45.4949 209.63 45.761 209.776 46.6639C209.86 47.1859 210.487 48.1357 211.093 49.0647C212.137 50.667 213.438 52.6607 213.704 54.6857C214.571 61.0165 215.151 61.3661 216.55 62.2012L216.927 62.4308C217.07 62.521 217.181 62.6553 217.241 62.8135C217.302 62.9718 217.31 63.1454 217.263 63.3084C217.217 63.4713 217.118 63.6148 216.983 63.7173C216.848 63.8197 216.683 63.8756 216.514 63.8765L216.535 63.9026Z" fill="#07005A"/>
<path d="M227.279 51.1472C227.147 51.1452 227.019 51.1106 226.904 51.0464C226.79 50.9822 226.693 50.8905 226.623 50.7796C226.553 50.6687 226.512 50.5421 226.503 50.4112C226.495 50.2804 226.519 50.1494 226.573 50.0303C230.428 41.8989 231.749 35.7456 230.569 35.0984C230.475 35.0482 230.37 35.0219 230.263 35.0219C230.157 35.0219 230.052 35.0482 229.958 35.0984C228.913 35.5368 227.054 37.9324 224.369 46.857C224.342 46.9579 224.294 47.0521 224.229 47.1342C224.165 47.2163 224.084 47.2846 223.992 47.3351C223.901 47.3856 223.8 47.4173 223.696 47.4282C223.592 47.4392 223.487 47.4292 223.387 47.3989C223.287 47.3686 223.194 47.3185 223.113 47.2517C223.033 47.1848 222.966 47.1026 222.918 47.0098C222.87 46.9169 222.841 46.8154 222.833 46.7112C222.825 46.607 222.838 46.5022 222.87 46.403C224.479 41.0482 226.673 34.754 229.368 33.6475C229.679 33.5143 230.016 33.4545 230.354 33.4726C230.692 33.4907 231.021 33.5863 231.316 33.7519C233.034 34.6861 232.94 37.7236 231.013 43.3028C229.712 47.0763 228.005 50.6879 227.989 50.7244C227.922 50.854 227.82 50.9623 227.694 51.037C227.569 51.1117 227.425 51.1499 227.279 51.1472Z" fill="#07005A"/>
<path d="M231.128 53.3392C231.028 53.3383 230.928 53.3188 230.835 53.2818C230.737 53.2429 230.648 53.1848 230.573 53.1109C230.498 53.0369 230.438 52.9487 230.398 52.8514C230.357 52.7541 230.337 52.6496 230.338 52.5443C230.338 52.4389 230.36 52.3348 230.402 52.238C230.966 50.8601 231.535 49.524 232.083 48.2349C233.812 44.1901 235.959 39.1589 234.826 38.5013C234.706 38.4135 234.567 38.3562 234.421 38.3343C234.274 38.3125 234.124 38.3268 233.985 38.376C232.684 38.8353 231.452 42.1025 230.992 43.3342C230.962 43.4373 230.911 43.5332 230.843 43.6158C230.774 43.6985 230.689 43.7662 230.593 43.8147C230.497 43.8632 230.393 43.8914 230.285 43.8977C230.178 43.904 230.071 43.8882 229.97 43.8512C229.869 43.8143 229.777 43.757 229.699 43.6829C229.621 43.6089 229.56 43.5196 229.518 43.4207C229.476 43.3218 229.455 43.2153 229.456 43.108C229.457 43.0006 229.48 42.8946 229.524 42.7966C230.538 40.1088 231.718 37.5358 233.462 36.9147C233.816 36.7927 234.192 36.7514 234.564 36.7938C234.935 36.8363 235.292 36.9614 235.609 37.16C237.944 38.517 236.089 42.854 233.52 48.8664C232.971 50.1503 232.402 51.476 231.848 52.8434C231.792 52.9887 231.693 53.1137 231.564 53.2021C231.436 53.2905 231.284 53.3383 231.128 53.3392Z" fill="#07005A"/>
<path d="M199.242 137.977C195.477 137.977 192.484 136.516 190.525 133.687C186.519 127.946 187.287 116.657 192.385 106.308C199.341 92.1693 213.741 62.2064 213.882 61.9089C213.927 61.8161 213.989 61.7329 214.066 61.6641C214.142 61.5954 214.232 61.5424 214.329 61.5082C214.426 61.4741 214.53 61.4594 214.632 61.465C214.735 61.4706 214.836 61.4964 214.929 61.541C215.022 61.5855 215.105 61.6479 215.174 61.7246C215.243 61.8013 215.296 61.8908 215.33 61.988C215.364 62.0852 215.379 62.1881 215.373 62.291C215.368 62.3938 215.342 62.4945 215.297 62.5874C215.151 62.8849 200.752 92.8582 193.79 106.997C188.932 116.861 188.118 127.471 191.81 132.8C193.711 135.54 196.678 136.73 200.626 136.344C212.341 135.19 216.295 113.505 218.687 100.551C218.99 98.9071 219.272 97.3518 219.544 96.0105C221.711 85.2487 225.503 70.9588 226.239 68.2293C226.34 67.8536 226.528 67.5068 226.788 67.2168C229.044 64.7272 231.64 61.7628 232.277 60.8025C232.637 59.8891 236.382 50.3643 236.387 46.951C236.387 46.3665 236.257 46.0637 236.137 46.0324C235.724 45.9281 234.627 46.6118 234.006 47.7391C233.904 47.9211 233.734 48.0553 233.533 48.112C233.332 48.1688 233.117 48.1435 232.935 48.0418C232.753 47.9401 232.619 47.7702 232.562 47.5695C232.505 47.3689 232.53 47.1539 232.632 46.9719C233.457 45.4792 235.139 44.1483 236.528 44.5085C237.051 44.6442 237.959 45.1452 237.954 46.9458C237.954 50.787 233.875 61.0373 233.703 61.4444C233.686 61.4882 233.665 61.5301 233.64 61.5697C232.883 62.7649 229.41 66.6427 227.952 68.2554C227.858 68.3598 227.79 68.485 227.754 68.6207C227.017 71.3659 223.236 85.5932 221.079 96.3132C220.813 97.6337 220.531 99.1837 220.228 100.823C217.773 114.215 213.668 136.62 200.783 137.878C200.255 137.951 199.744 137.977 199.242 137.977Z" fill="#07005A"/>
<path fill-rule="evenodd" clip-rule="evenodd" d="M119.975 148.16L44.8384 147.972C44.8384 147.972 50.5418 120.801 74.7289 125.624C96.3463 129.747 122.445 136.01 122.445 136.01L119.975 148.16Z" fill="white"/>
<path d="M119.975 148.943L44.8385 148.744C44.722 148.745 44.6068 148.72 44.5013 148.671C44.3959 148.621 44.3029 148.549 44.2292 148.459C44.1555 148.368 44.103 148.263 44.0756 148.15C44.0482 148.037 44.0465 147.919 44.0707 147.805C45.2179 143.039 47.2557 138.532 50.077 134.522C54.2553 128.687 61.98 122.273 74.8805 124.846C96.2629 128.922 122.367 135.175 122.628 135.237C122.83 135.286 123.005 135.412 123.114 135.59C123.222 135.767 123.256 135.98 123.208 136.182C123.159 136.384 123.032 136.559 122.855 136.667C122.678 136.776 122.465 136.81 122.262 136.761C122.001 136.699 95.9338 130.451 74.5828 126.386C64.8682 124.444 57.06 127.492 51.3514 135.436C48.8566 139.006 46.9929 142.978 45.8413 147.179L119.975 147.361C120.183 147.361 120.382 147.444 120.529 147.591C120.676 147.737 120.758 147.936 120.758 148.144C120.758 148.352 120.676 148.551 120.529 148.698C120.382 148.844 120.183 148.927 119.975 148.927V148.943Z" fill="#07005A"/>
<path d="M139.733 143.859C139.422 143.881 139.113 143.798 138.855 143.624C138.704 143.507 138.601 143.339 138.565 143.152C138.53 142.964 138.564 142.77 138.661 142.606C138.759 142.442 138.913 142.319 139.095 142.26C139.277 142.202 139.474 142.212 139.649 142.288C140.272 142.271 140.887 142.139 141.462 141.897L141.691 141.808C141.497 141.66 141.285 141.537 141.059 141.443C140.537 141.244 133.862 139.303 128.984 138.343C128.879 138.327 128.779 138.29 128.688 138.235C128.598 138.179 128.52 138.106 128.459 138.019C128.398 137.933 128.355 137.835 128.333 137.731C128.311 137.628 128.31 137.521 128.331 137.417C128.351 137.313 128.393 137.214 128.452 137.127C128.512 137.039 128.589 136.965 128.679 136.908C128.768 136.851 128.868 136.813 128.973 136.796C129.077 136.779 129.184 136.783 129.287 136.808C134.244 137.784 141.07 139.773 141.608 139.976C141.681 140.002 143.425 140.67 143.404 141.897C143.404 142.56 142.908 143.061 141.963 143.379C141.249 143.652 140.496 143.814 139.733 143.859Z" fill="#07005A"/>
<path d="M139.55 145.498C138.64 145.428 137.746 145.217 136.902 144.872C136.805 144.837 136.715 144.784 136.639 144.716C136.562 144.647 136.5 144.564 136.456 144.471C136.411 144.378 136.386 144.277 136.38 144.175C136.375 144.072 136.39 143.969 136.424 143.872C136.458 143.775 136.511 143.686 136.58 143.609C136.649 143.533 136.732 143.471 136.825 143.426C136.918 143.382 137.019 143.356 137.121 143.351C137.224 143.346 137.327 143.36 137.424 143.395C137.927 143.58 138.442 143.734 138.965 143.854C138.107 142.939 137.159 142.114 136.134 141.391C133.026 139.078 126.916 137.784 123.26 136.98C122.643 136.85 122.079 136.73 121.604 136.62C121.504 136.597 121.409 136.555 121.325 136.495C121.241 136.436 121.169 136.36 121.114 136.273C121.059 136.185 121.022 136.088 121.005 135.987C120.988 135.885 120.991 135.781 121.014 135.681C121.037 135.58 121.079 135.486 121.139 135.402C121.199 135.318 121.274 135.246 121.362 135.191C121.449 135.137 121.546 135.1 121.648 135.082C121.75 135.065 121.854 135.068 121.954 135.091L123.589 135.451C127.616 136.318 133.705 137.622 137.085 140.148C141.561 143.473 141.049 144.433 140.803 144.893C140.677 145.105 140.49 145.276 140.268 145.383C140.045 145.491 139.795 145.531 139.55 145.498Z" fill="#07005A"/>
<path d="M136.009 146.912C135.716 146.912 135.413 146.912 135.111 146.886C134.903 146.877 134.707 146.785 134.567 146.631C134.427 146.477 134.354 146.274 134.364 146.067C134.373 145.859 134.465 145.664 134.619 145.524C134.773 145.384 134.976 145.311 135.184 145.32C135.862 145.382 136.545 145.354 137.215 145.237C136.818 144.767 135.44 143.671 130.723 141.244C130.538 141.15 130.399 140.985 130.335 140.788C130.271 140.59 130.289 140.375 130.384 140.19C130.479 140.005 130.643 139.866 130.841 139.802C131.039 139.739 131.254 139.756 131.439 139.851C138.072 143.228 139.195 144.548 138.887 145.717C138.631 146.688 137.424 146.912 136.009 146.912Z" fill="#07005A"/>
<path d="M117.896 148.937C117.688 148.937 117.489 148.855 117.342 148.708C117.195 148.561 117.112 148.362 117.112 148.154C117.112 147.947 117.195 147.748 117.342 147.601C117.489 147.454 117.688 147.372 117.896 147.372C118.418 147.372 130.243 146.918 133.439 147.126C133.907 147.203 134.387 147.153 134.828 146.98C134.762 146.804 134.641 146.654 134.484 146.552C133.768 146.15 131.136 144.757 129.297 143.885C129.188 143.855 129.087 143.801 129 143.727C128.914 143.654 128.845 143.563 128.797 143.46C128.75 143.357 128.725 143.245 128.725 143.132C128.725 143.018 128.749 142.906 128.797 142.804C128.844 142.701 128.914 142.609 129 142.536C129.086 142.462 129.187 142.408 129.296 142.378C129.406 142.347 129.52 142.34 129.632 142.358C129.744 142.376 129.851 142.418 129.945 142.481C131.815 143.369 134.489 144.783 135.22 145.195C135.951 145.608 136.573 146.584 136.317 147.455C136.061 148.327 135.032 148.807 133.308 148.697C130.175 148.494 118.047 148.943 117.927 148.948L117.896 148.937Z" fill="#07005A"/>
<path d="M128.117 136.787C125.788 136.787 123.344 136.667 120.805 136.412C120.597 136.391 120.406 136.288 120.274 136.127C120.142 135.965 120.079 135.758 120.1 135.55C120.121 135.343 120.223 135.152 120.385 135.02C120.547 134.888 120.754 134.825 120.962 134.846C143.102 137.069 156.723 128.583 157.82 123.442C157.837 123.338 157.876 123.238 157.933 123.149C157.99 123.06 158.065 122.984 158.152 122.924C158.24 122.865 158.339 122.824 158.443 122.804C158.547 122.783 158.653 122.784 158.757 122.807C158.86 122.829 158.958 122.872 159.045 122.933C159.131 122.994 159.204 123.072 159.26 123.162C159.315 123.252 159.352 123.353 159.367 123.457C159.383 123.562 159.377 123.669 159.35 123.771C158.253 128.938 147.061 136.787 128.117 136.787Z" fill="#07005A"/>
<path fill-rule="evenodd" clip-rule="evenodd" d="M120.126 18.7888C115.885 18.7888 108.114 22.5152 108.114 29.7489V47.2955C108.114 47.2955 107.737 63.6991 124.069 65.9016C141.827 68.3023 145.75 52.5302 145.75 44.9051C145.75 37.875 146.549 25.8137 143.807 22.3117C141.065 18.8096 137.738 18.7053 135.502 18.7053C133.267 18.7053 120.126 18.7888 120.126 18.7888Z" fill="white"/>
<path d="M127.563 66.9349C126.353 66.9298 125.143 66.8444 123.944 66.6792C107.116 64.4089 107.304 47.4468 107.309 47.2746V29.775C107.309 25.3805 109.884 22.5517 112.041 20.9443C114.428 19.1698 117.593 18.0216 120.1 18.0216C120.361 18.0216 133.277 17.9224 135.481 17.9224C137.529 17.9224 141.336 17.9224 144.402 21.8315C146.841 24.963 146.684 33.778 146.559 40.8812C146.533 42.3269 146.512 43.6943 146.512 44.9051C146.512 50.5365 144.626 58.2034 139.336 62.8223C136.202 65.5571 132.254 66.9349 127.563 66.9349ZM120.126 19.5873C116.209 19.5873 108.897 23.0841 108.897 29.775V47.2955C108.897 47.9531 108.745 63.0467 124.174 65.1291C130.013 65.9172 134.776 64.7429 138.322 61.6428C143.222 57.3683 144.966 50.1921 144.966 44.9051C144.966 43.6786 144.966 42.2956 145.013 40.8551C145.128 34.3626 145.285 25.4692 143.185 22.797C140.574 19.4881 137.403 19.4881 135.502 19.4881C133.293 19.4881 120.262 19.5873 120.131 19.5873H120.126Z" fill="#07005A"/>
<path fill-rule="evenodd" clip-rule="evenodd" d="M132.379 42.2747C133.027 42.2747 133.549 41.4657 133.549 40.4741C133.549 39.4825 133.027 38.6683 132.379 38.6683C131.731 38.6683 131.209 39.4773 131.209 40.4741C131.209 41.471 131.731 42.2747 132.379 42.2747Z" fill="#07005A"/>
<path fill-rule="evenodd" clip-rule="evenodd" d="M115.352 42.7026C115.995 42.7026 116.522 41.8989 116.522 40.9021C116.522 39.9052 116 39.1015 115.352 39.1015C114.705 39.1015 114.177 39.9052 114.177 40.9021C114.177 41.8989 114.705 42.7026 115.352 42.7026Z" fill="#07005A"/>
<path fill-rule="evenodd" clip-rule="evenodd" d="M148.329 33.4648C149.321 30.0507 149.848 26.5187 149.896 22.964C149.792 18.1155 146.763 13.7367 142.422 12.5728C138.813 11.6021 136.74 13.507 136.74 13.507C136.74 13.507 138.62 6.25248 132.17 1.73274C131.094 0.95732 129.862 0.425776 128.559 0.175185C127.257 -0.0754061 125.915 -0.0390114 124.628 0.281831C118.455 1.95194 117.906 8.26705 117.906 8.26705C117.906 8.26705 108.024 -3.84126 96.2469 7.44765C95.0509 8.58019 94.0324 11.2106 93.6355 12.9381C91.2956 23.2824 108.782 30.7979 116.731 29.848C125.469 28.8042 130.096 26.0694 132.274 23.131C130.572 24.9525 136.197 38.6213 148.329 33.4648Z" fill="#07005A"/>
<path d="M145.958 32.9808L140.839 35.8737L141.611 37.2366L146.73 34.3436L145.958 32.9808Z" fill="#07005A"/>
<path d="M122.038 52.4728C121.906 52.4728 121.776 52.4516 121.651 52.4102C120.68 52.0918 120.544 50.8444 120.539 49.644C120.539 49.3257 120.366 46.8988 120.262 35.9648C120.26 35.862 120.279 35.7599 120.317 35.6644C120.356 35.5689 120.412 35.4818 120.484 35.4081C120.556 35.3345 120.641 35.2757 120.736 35.235C120.83 35.1944 120.932 35.1728 121.035 35.1715C121.242 35.1715 121.44 35.2532 121.587 35.3989C121.734 35.5446 121.817 35.7424 121.818 35.9491C121.928 47.4311 122.085 49.4666 122.095 49.5501V49.6127C122.084 50.0012 122.116 50.3897 122.189 50.7714C122.722 50.2934 123.193 49.7497 123.589 49.1534C123.711 48.9853 123.894 48.8724 124.1 48.8396C124.305 48.8068 124.515 48.8568 124.683 48.9786C124.851 49.1004 124.964 49.284 124.997 49.4891C125.03 49.6941 124.98 49.9038 124.858 50.072C123.824 51.5072 122.925 52.4728 122.038 52.4728Z" fill="#07005A"/>
<path d="M124.853 41.2309H118.941C118.733 41.2309 118.534 41.1484 118.387 41.0016C118.24 40.8548 118.157 40.6556 118.157 40.448C118.157 40.2404 118.24 40.0412 118.387 39.8944C118.534 39.7476 118.733 39.6651 118.941 39.6651H124.853C125.061 39.6651 125.26 39.7476 125.407 39.8944C125.554 40.0412 125.636 40.2404 125.636 40.448C125.636 40.6556 125.554 40.8548 125.407 41.0016C125.26 41.1484 125.061 41.2309 124.853 41.2309Z" fill="#07005A"/>
<path d="M125.767 58.4069C124.79 58.3929 123.821 58.2274 122.894 57.9163C122.796 57.8852 122.705 57.835 122.627 57.7687C122.548 57.7023 122.483 57.6212 122.436 57.5298C122.388 57.4385 122.36 57.3387 122.351 57.2362C122.342 57.1337 122.354 57.0305 122.385 56.9325C122.416 56.8345 122.466 56.7436 122.533 56.665C122.599 56.5864 122.68 56.5216 122.772 56.4744C122.863 56.4271 122.963 56.3983 123.066 56.3896C123.168 56.3809 123.271 56.3925 123.37 56.4237C125.255 57.0239 126.848 56.9456 127.861 56.2775C128.112 56.1189 128.324 55.9063 128.482 55.6553C128.64 55.4043 128.74 55.1212 128.775 54.8266C128.788 54.619 128.882 54.4248 129.038 54.2868C129.194 54.1488 129.398 54.0783 129.606 54.0907C129.813 54.1032 130.008 54.1976 130.146 54.3532C130.284 54.5089 130.355 54.7129 130.342 54.9206C130.294 55.4534 130.126 55.9683 129.85 56.4267C129.574 56.8851 129.198 57.2749 128.749 57.5667C127.865 58.1464 126.824 58.4398 125.767 58.4069Z" fill="#07005A"/>
<path d="M126.885 32.0818C126.776 32.0818 126.669 32.059 126.57 32.015C126.471 31.9709 126.383 31.9065 126.31 31.8261C126.24 31.7503 126.186 31.6616 126.151 31.5651C126.116 31.4685 126.1 31.3659 126.104 31.2631C126.109 31.1604 126.133 31.0595 126.177 30.9662C126.22 30.873 126.281 30.7892 126.357 30.7196L126.728 30.3699C127.893 29.2426 129.496 27.703 132.823 29.9733C132.995 30.0909 133.113 30.272 133.151 30.4765C133.189 30.6811 133.145 30.8924 133.027 31.0641C132.909 31.2357 132.728 31.3536 132.523 31.3918C132.318 31.4299 132.107 31.3853 131.935 31.2676C129.663 29.7019 128.927 30.4221 127.814 31.4973C127.684 31.6225 127.553 31.753 127.417 31.873C127.273 32.0082 127.082 32.0829 126.885 32.0818Z" fill="#07005A"/>
<path d="M111.889 31.2363C111.733 31.2343 111.58 31.1853 111.452 31.0959C111.323 31.0065 111.225 30.8806 111.168 30.7345C111.112 30.5885 111.101 30.4289 111.137 30.2765C111.172 30.1241 111.252 29.9857 111.367 29.8793L111.592 29.6706C112.897 28.4493 114.872 26.607 118.721 29.4357C118.804 29.4967 118.874 29.5735 118.927 29.6615C118.981 29.7496 119.016 29.8474 119.032 29.9491C119.047 30.0509 119.042 30.1547 119.018 30.2547C118.993 30.3547 118.949 30.4488 118.888 30.5317C118.827 30.6147 118.75 30.6848 118.662 30.738C118.574 30.7913 118.476 30.8267 118.374 30.8422C118.272 30.8577 118.168 30.853 118.068 30.8284C117.968 30.8038 117.874 30.7597 117.791 30.6987C114.992 28.6111 113.911 29.6549 112.662 30.8136L112.427 31.0328C112.28 31.1659 112.088 31.2386 111.889 31.2363Z" fill="#07005A"/>
<g opacity="0.1">
<path opacity="0.1" fill-rule="evenodd" clip-rule="evenodd" d="M139.754 34.5034L125.312 43.6786L127.934 47.8017L142.673 38.4439L139.754 34.5034Z" fill="#476FF5"/>
</g>
<g opacity="0.1">
<path opacity="0.1" fill-rule="evenodd" clip-rule="evenodd" d="M138.605 33.0317L124.534 41.9668L125.025 42.7392L138.913 33.9189L138.605 33.0317Z" fill="#476FF5"/>
</g>
<path d="M133.601 50.3956C131.715 50.3956 129.871 49.8367 128.302 48.7895C126.734 47.7423 125.512 46.2539 124.79 44.5125C124.068 42.7711 123.879 40.855 124.247 39.0063C124.615 37.1576 125.524 35.4596 126.857 34.1267C128.191 32.7939 129.89 31.8863 131.74 31.5186C133.59 31.1509 135.508 31.3396 137.251 32.0609C138.993 32.7822 140.483 34.0037 141.531 35.5709C142.579 37.1381 143.138 38.9807 143.138 40.8655C143.135 43.3922 142.129 45.8146 140.342 47.6013C138.554 49.3879 136.129 50.3928 133.601 50.3956ZM133.601 32.9064C132.024 32.9064 130.483 33.3736 129.172 34.249C127.862 35.1244 126.84 36.3685 126.237 37.8241C125.634 39.2797 125.476 40.8814 125.784 42.4264C126.092 43.9715 126.852 45.3906 127.967 46.5042C129.082 47.6179 130.503 48.376 132.049 48.6827C133.596 48.9894 135.198 48.8309 136.655 48.2273C138.111 47.6237 139.355 46.6021 140.23 45.2917C141.106 43.9813 141.572 42.4409 141.571 40.8655C141.568 38.7546 140.728 36.731 139.233 35.2388C137.739 33.7466 135.713 32.9078 133.601 32.9064Z" fill="#07005A"/>
<g opacity="0.1">
<path opacity="0.1" fill-rule="evenodd" clip-rule="evenodd" d="M116.11 34.5034L101.668 43.6786L104.296 47.8017L119.029 38.4439L116.11 34.5034Z" fill="#476FF5"/>
</g>
<g opacity="0.1">
<path opacity="0.1" fill-rule="evenodd" clip-rule="evenodd" d="M114.961 33.0317L100.89 41.9668L101.381 42.7392L115.269 33.9189L114.961 33.0317Z" fill="#476FF5"/>
</g>
<path d="M110.202 50.3956C108.316 50.3966 106.472 49.8386 104.902 48.792C103.333 47.7455 102.11 46.2574 101.388 44.5161C100.665 42.7748 100.475 40.8585 100.843 39.0095C101.21 37.1605 102.118 35.4619 103.452 34.1286C104.785 32.7953 106.484 31.8871 108.335 31.519C110.185 31.1508 112.103 31.3392 113.846 32.0604C115.589 32.7815 117.078 34.003 118.126 35.5704C119.175 37.1377 119.734 38.9804 119.734 40.8655C119.731 43.3913 118.726 45.8129 116.94 47.5994C115.153 49.3859 112.73 50.3914 110.202 50.3956ZM110.202 32.9064C108.626 32.9054 107.084 33.3717 105.772 34.2465C104.461 35.1212 103.439 36.365 102.835 37.8205C102.231 39.276 102.073 40.8778 102.38 42.4232C102.687 43.9686 103.446 45.3882 104.561 46.5024C105.676 47.6165 107.097 48.3752 108.644 48.6823C110.19 48.9894 111.793 48.8313 113.25 48.2278C114.706 47.6244 115.951 46.6028 116.826 45.2922C117.702 43.9817 118.168 42.4412 118.167 40.8655C118.164 38.7555 117.324 36.7327 115.831 35.2406C114.338 33.7486 112.314 32.9092 110.202 32.9064Z" fill="#07005A"/>
<path fill-rule="evenodd" clip-rule="evenodd" d="M25.6911 104.711C27.4721 103.75 28.5323 102.273 28.0675 101.407C27.6027 100.541 25.7799 100.624 23.9989 101.59C22.2179 102.555 21.1576 104.032 21.6225 104.893C22.0873 105.755 23.9101 105.676 25.6911 104.711Z" fill="#476FF5"/>
<path fill-rule="evenodd" clip-rule="evenodd" d="M23.649 108.134C25.3725 109.178 27.1796 109.288 27.681 108.437C28.1824 107.586 27.2005 106.068 25.477 105.05C23.7534 104.032 21.9463 103.897 21.4397 104.747C20.9331 105.598 21.9359 107.117 23.649 108.134Z" fill="#476FF5"/>
<path fill-rule="evenodd" clip-rule="evenodd" d="M21.4137 104.794C22.2963 104.721 22.8865 103.229 22.7298 101.407C22.5731 99.5856 21.7427 98.213 20.8653 98.2756C19.9878 98.3382 19.3976 99.8413 19.5491 101.663C19.7006 103.484 20.5101 104.873 21.4137 104.794Z" fill="#476FF5"/>
<path fill-rule="evenodd" clip-rule="evenodd" d="M20.9957 107.905C22.4895 106.892 23.3042 105.488 22.8133 104.773C22.3223 104.058 20.7241 104.288 19.22 105.295C17.7158 106.303 16.9167 107.712 17.4076 108.427C17.8986 109.142 19.502 108.917 20.9957 107.905Z" fill="#476FF5"/>
<path fill-rule="evenodd" clip-rule="evenodd" d="M19.6173 105.306C21.0745 106.005 22.5369 105.984 22.8869 105.264C23.2368 104.544 22.3332 103.385 20.8761 102.686C19.4189 101.986 17.9565 102.012 17.6065 102.733C17.2566 103.453 18.1602 104.612 19.6173 105.306Z" fill="#476FF5"/>
<path d="M22.4688 105.421C22.9909 105.421 23.4141 104.998 23.4141 104.476C23.4141 103.954 22.9909 103.531 22.4688 103.531C21.9467 103.531 21.5234 103.954 21.5234 104.476C21.5234 104.998 21.9467 105.421 22.4688 105.421Z" fill="white"/>
<path d="M246.217 148.937H0.783431C0.575652 148.937 0.376383 148.855 0.229462 148.708C0.0825398 148.561 0 148.362 0 148.155C0 147.947 0.0825398 147.748 0.229462 147.601C0.376383 147.454 0.575652 147.372 0.783431 147.372H246.217C246.424 147.372 246.624 147.454 246.771 147.601C246.917 147.748 247 147.947 247 148.155C247 148.362 246.917 148.561 246.771 148.708C246.624 148.855 246.424 148.937 246.217 148.937Z" fill="#07005A"/>
<path d="M38.2051 143.311C37.6382 143.307 37.0794 143.177 36.5692 142.93C36.059 142.683 35.6102 142.325 35.2555 141.884C34.9007 141.442 34.6489 140.926 34.5183 140.375C34.3876 139.824 34.3815 139.251 34.5003 138.697C34.6191 138.143 34.8598 137.622 35.205 137.173C35.5502 136.724 35.9912 136.357 36.496 136.099C37.0007 135.841 37.5566 135.699 38.1233 135.683C38.6899 135.666 39.2531 135.776 39.772 136.004L39.2497 137.116C38.8931 136.95 38.5035 136.866 38.1101 136.872C37.7167 136.877 37.3296 136.971 36.9777 137.147C36.6258 137.323 36.3182 137.576 36.0779 137.887C35.8376 138.199 35.6708 138.56 35.59 138.945C35.5092 139.33 35.5164 139.728 35.6112 140.11C35.706 140.491 35.8858 140.846 36.1372 141.149C36.3887 141.451 36.7053 141.693 37.0634 141.856C37.4214 142.019 37.8117 142.099 38.2051 142.09C38.5458 142.09 38.8831 142.023 39.1974 141.892L39.6623 143.014C39.2013 143.209 38.7058 143.31 38.2051 143.311Z" fill="#07005A"/>
<path fill-rule="evenodd" clip-rule="evenodd" d="M38.7852 141.088V143.922C38.7852 144.856 39.1557 145.752 39.8156 146.413C40.4754 147.074 41.3708 147.447 42.3054 147.45H48.2647C49.2011 147.45 50.0991 147.078 50.7612 146.417C51.4233 145.755 51.7953 144.858 51.7953 143.922V135.201C51.7953 134.842 51.6528 134.498 51.3991 134.245C51.1454 133.991 50.8014 133.849 50.4426 133.849H40.1379C39.7791 133.849 39.435 133.991 39.1814 134.245C38.9277 134.498 38.7852 134.842 38.7852 135.201V141.088Z" fill="#476FF5"/>
<path fill-rule="evenodd" clip-rule="evenodd" d="M43.5533 108.166C43.5377 108.064 43.4962 107.967 43.4327 107.885C43.3692 107.804 43.2858 107.74 43.1904 107.699C43.0951 107.659 42.9911 107.644 42.8882 107.655C42.7853 107.666 42.687 107.704 42.6028 107.764C39.7824 109.747 36.4972 113.26 38.649 118.928C41.0568 125.264 44.9583 123.625 45.0157 126.881V129.924C45.0161 130.03 45.0444 130.134 45.0978 130.226C45.1511 130.318 45.2277 130.394 45.3197 130.447C45.4117 130.5 45.516 130.527 45.6222 130.527C45.7283 130.527 45.8326 130.499 45.9245 130.446C48.1024 129.209 51.3824 124.262 51.0586 119.533C50.6878 114.074 45.2194 114.063 44.1905 110.723C43.9157 109.887 43.7027 109.033 43.5533 108.166Z" fill="white"/>
</g>
<defs>
<clipPath id="clip0">
<rect width="247" height="149" fill="white"/>
</clipPath>
</defs>
</svg>
